G04 #@! TF.GenerationSoftware,KiCad,Pcbnew,8.0.3-8.0.3-0~ubuntu22.04.1*
G04 #@! TF.CreationDate,2024-07-07T23:08:19+03:00*
G04 #@! TF.ProjectId,riaa-preamp,72696161-2d70-4726-9561-6d702e6b6963,rev?*
G04 #@! TF.SameCoordinates,Original*
G04 #@! TF.FileFunction,Copper,L4,Bot*
G04 #@! TF.FilePolarity,Positive*
%FSLAX46Y46*%
G04 Gerber Fmt 4.6, Leading zero omitted, Abs format (unit mm)*
G04 Created by KiCad (PCBNEW 8.0.3-8.0.3-0~ubuntu22.04.1) date 2024-07-07 23:08:19*
%MOMM*%
%LPD*%
G01*
G04 APERTURE LIST*
G04 Aperture macros list*
%AMRoundRect*
0 Rectangle with rounded corners*
0 $1 Rounding radius*
0 $2 $3 $4 $5 $6 $7 $8 $9 X,Y pos of 4 corners*
0 Add a 4 corners polygon primitive as box body*
4,1,4,$2,$3,$4,$5,$6,$7,$8,$9,$2,$3,0*
0 Add four circle primitives for the rounded corners*
1,1,$1+$1,$2,$3*
1,1,$1+$1,$4,$5*
1,1,$1+$1,$6,$7*
1,1,$1+$1,$8,$9*
0 Add four rect primitives between the rounded corners*
20,1,$1+$1,$2,$3,$4,$5,0*
20,1,$1+$1,$4,$5,$6,$7,0*
20,1,$1+$1,$6,$7,$8,$9,0*
20,1,$1+$1,$8,$9,$2,$3,0*%
G04 Aperture macros list end*
G04 #@! TA.AperFunction,ComponentPad*
%ADD10C,2.590800*%
G04 #@! TD*
G04 #@! TA.AperFunction,ComponentPad*
%ADD11C,2.794000*%
G04 #@! TD*
G04 #@! TA.AperFunction,ComponentPad*
%ADD12C,0.800000*%
G04 #@! TD*
G04 #@! TA.AperFunction,ComponentPad*
%ADD13C,6.400000*%
G04 #@! TD*
G04 #@! TA.AperFunction,ComponentPad*
%ADD14R,3.500000X3.500000*%
G04 #@! TD*
G04 #@! TA.AperFunction,ComponentPad*
%ADD15RoundRect,0.750000X-0.750000X-1.000000X0.750000X-1.000000X0.750000X1.000000X-0.750000X1.000000X0*%
G04 #@! TD*
G04 #@! TA.AperFunction,ComponentPad*
%ADD16RoundRect,0.875000X-0.875000X-0.875000X0.875000X-0.875000X0.875000X0.875000X-0.875000X0.875000X0*%
G04 #@! TD*
G04 #@! TA.AperFunction,ComponentPad*
%ADD17R,2.000000X2.000000*%
G04 #@! TD*
G04 #@! TA.AperFunction,ComponentPad*
%ADD18C,2.000000*%
G04 #@! TD*
G04 #@! TA.AperFunction,ComponentPad*
%ADD19C,0.900000*%
G04 #@! TD*
G04 #@! TA.AperFunction,ComponentPad*
%ADD20C,8.600000*%
G04 #@! TD*
G04 #@! TA.AperFunction,ViaPad*
%ADD21C,0.600000*%
G04 #@! TD*
G04 #@! TA.AperFunction,Conductor*
%ADD22C,2.000000*%
G04 #@! TD*
G04 APERTURE END LIST*
D10*
X180524700Y-104809800D03*
X180524700Y-114614200D03*
D11*
X175216100Y-112810800D03*
D12*
X186621000Y-128000000D03*
X187323944Y-126302944D03*
X187323944Y-129697056D03*
X189021000Y-125600000D03*
D13*
X189021000Y-128000000D03*
D12*
X189021000Y-130400000D03*
X190718056Y-126302944D03*
X190718056Y-129697056D03*
X191421000Y-128000000D03*
X190100000Y-103500000D03*
X190802944Y-101802944D03*
X190802944Y-105197056D03*
X192500000Y-101100000D03*
D13*
X192500000Y-103500000D03*
D12*
X192500000Y-105900000D03*
X194197056Y-101802944D03*
X194197056Y-105197056D03*
X194900000Y-103500000D03*
D14*
X113950000Y-112760000D03*
D15*
X107950000Y-112760000D03*
D16*
X110950000Y-117460000D03*
D12*
X101100000Y-152500000D03*
X101802944Y-150802944D03*
X101802944Y-154197056D03*
X103500000Y-150100000D03*
D13*
X103500000Y-152500000D03*
D12*
X103500000Y-154900000D03*
X105197056Y-150802944D03*
X105197056Y-154197056D03*
X105900000Y-152500000D03*
D10*
X180524700Y-150860000D03*
X180524700Y-141055600D03*
D11*
X185833300Y-142859000D03*
D17*
X119330000Y-109183821D03*
X121330000Y-108511677D03*
D18*
X121330000Y-103511677D03*
X123330000Y-102839533D03*
D12*
X190100000Y-152500000D03*
X190802944Y-150802944D03*
X190802944Y-154197056D03*
X192500000Y-150100000D03*
D13*
X192500000Y-152500000D03*
D12*
X192500000Y-154900000D03*
X194197056Y-150802944D03*
X194197056Y-154197056D03*
X194900000Y-152500000D03*
D10*
X145028200Y-104809800D03*
X145028200Y-114614200D03*
D11*
X139719600Y-112810800D03*
D12*
X101100000Y-103500000D03*
X101802944Y-101802944D03*
X101802944Y-105197056D03*
X103500000Y-101100000D03*
D13*
X103500000Y-103500000D03*
D12*
X103500000Y-105900000D03*
X105197056Y-101802944D03*
X105197056Y-105197056D03*
X105900000Y-103500000D03*
D19*
X134742000Y-127953944D03*
X135686581Y-125673525D03*
X135686581Y-130234363D03*
X137967000Y-124728944D03*
D20*
X137967000Y-127953944D03*
D19*
X137967000Y-131178944D03*
X140247419Y-125673525D03*
X140247419Y-130234363D03*
X141192000Y-127953944D03*
D10*
X145028200Y-150860000D03*
X145028200Y-141055600D03*
D11*
X150336800Y-142859000D03*
D21*
X170479000Y-142605000D03*
X168574000Y-151876000D03*
X156382000Y-151368000D03*
X162986000Y-147050000D03*
X172384000Y-132826000D03*
X155620000Y-122158000D03*
X155747000Y-118982999D03*
X162986000Y-129016000D03*
X162732000Y-112760000D03*
X172326314Y-116627686D03*
X169336000Y-120126000D03*
X168574000Y-118094000D03*
X152572000Y-128254000D03*
X151048000Y-129778000D03*
X106915500Y-132127500D03*
X104820000Y-136763000D03*
X167304000Y-116824000D03*
X104820000Y-133969000D03*
X162224000Y-103997000D03*
X167812000Y-122158000D03*
X149397000Y-128254000D03*
X111932000Y-131429000D03*
X102661000Y-144002000D03*
X158160000Y-115300000D03*
X101346000Y-142650000D03*
X173146000Y-146034000D03*
X169844000Y-150352000D03*
X114472000Y-145780000D03*
X108630000Y-130794000D03*
X155620000Y-147558000D03*
X167304000Y-150352000D03*
X153588000Y-120634000D03*
X166923000Y-133715000D03*
X102661000Y-147431000D03*
X174289000Y-144764000D03*
X111678000Y-145780000D03*
X157652000Y-120672500D03*
X166415000Y-120126000D03*
X167773500Y-137779000D03*
X108630000Y-133461000D03*
X169336000Y-136128000D03*
X110027000Y-132191000D03*
X166288000Y-136128000D03*
X171495000Y-107680000D03*
X163494000Y-105648000D03*
X158287000Y-131302000D03*
X102661000Y-141208000D03*
X103169000Y-135239000D03*
X156890000Y-132572000D03*
X101264000Y-145780000D03*
X170352000Y-109204000D03*
X155112000Y-149844000D03*
X104058000Y-145780000D03*
X106471000Y-135239000D03*
X165081500Y-154352500D03*
X109900000Y-147685000D03*
X106598000Y-144129000D03*
X156001000Y-153019000D03*
X161335000Y-147177000D03*
X163875000Y-142605000D03*
X166669000Y-143875000D03*
X164891000Y-150606000D03*
X160700000Y-135620000D03*
X162986000Y-138414000D03*
X161843000Y-131175000D03*
X162986000Y-126222000D03*
X163748000Y-135620000D03*
X164891000Y-133588000D03*
X165272000Y-138414000D03*
X165272000Y-126476000D03*
X163748000Y-119110000D03*
X165145000Y-110093000D03*
X165272000Y-122158000D03*
X164891000Y-117078000D03*
X160573000Y-119110000D03*
X162986000Y-122158000D03*
X158668000Y-105648000D03*
X154604000Y-144764000D03*
X171495000Y-105394000D03*
X170860000Y-147558000D03*
X162224000Y-108696000D03*
X161462000Y-113395000D03*
X158414000Y-129905000D03*
X152318000Y-116443000D03*
X148254000Y-131556000D03*
X158398000Y-146415000D03*
X166923000Y-114665000D03*
X167177000Y-107680000D03*
X166923000Y-131175000D03*
X173654000Y-119999000D03*
X166796000Y-147685000D03*
X171749000Y-142732000D03*
D22*
X114576323Y-103511677D02*
X107950000Y-110138000D01*
X107950000Y-114460000D02*
X110950000Y-117460000D01*
X107950000Y-112760000D02*
X107950000Y-114460000D01*
X121330000Y-103511677D02*
X114576323Y-103511677D01*
X122657856Y-103511677D02*
X123330000Y-102839533D01*
X121330000Y-103511677D02*
X122657856Y-103511677D01*
X107950000Y-110138000D02*
X107950000Y-112760000D01*
X117526179Y-109183821D02*
X113950000Y-112760000D01*
X120657856Y-109183821D02*
X121330000Y-108511677D01*
X119330000Y-109183821D02*
X117526179Y-109183821D01*
X119330000Y-109183821D02*
X120657856Y-109183821D01*
G04 #@! TA.AperFunction,Conductor*
G36*
X102279588Y-153542330D02*
G01*
X102457670Y-153720412D01*
X102559300Y-153794251D01*
X101064648Y-155288903D01*
X101064649Y-155288904D01*
X101322202Y-155497465D01*
X101436212Y-155571505D01*
X101481714Y-155624526D01*
X101491328Y-155693731D01*
X101462001Y-155757148D01*
X101403044Y-155794642D01*
X101368676Y-155799500D01*
X100324500Y-155799500D01*
X100257461Y-155779815D01*
X100211706Y-155727011D01*
X100200500Y-155675500D01*
X100200500Y-154631323D01*
X100220185Y-154564284D01*
X100272989Y-154518529D01*
X100342147Y-154508585D01*
X100405703Y-154537610D01*
X100428495Y-154563788D01*
X100502531Y-154677793D01*
X100711095Y-154935350D01*
X100711096Y-154935350D01*
X102205748Y-153440698D01*
X102279588Y-153542330D01*
G37*
G04 #@! TD.AperFunction*
G04 #@! TA.AperFunction,Conductor*
G36*
X190435715Y-100220185D02*
G01*
X190481470Y-100272989D01*
X190491414Y-100342147D01*
X190462389Y-100405703D01*
X190436212Y-100428495D01*
X190322202Y-100502534D01*
X190064648Y-100711095D01*
X190064648Y-100711096D01*
X191559301Y-102205748D01*
X191457670Y-102279588D01*
X191279588Y-102457670D01*
X191205748Y-102559300D01*
X189711096Y-101064648D01*
X189711095Y-101064648D01*
X189502531Y-101322206D01*
X189291310Y-101647456D01*
X189115244Y-101993005D01*
X188976262Y-102355063D01*
X188875887Y-102729669D01*
X188875886Y-102729676D01*
X188815219Y-103112712D01*
X188794922Y-103499999D01*
X188794922Y-103500000D01*
X188815219Y-103887287D01*
X188875886Y-104270323D01*
X188875887Y-104270330D01*
X188976262Y-104644936D01*
X189115244Y-105006994D01*
X189291310Y-105352543D01*
X189502531Y-105677793D01*
X189711095Y-105935350D01*
X189711096Y-105935350D01*
X191205748Y-104440698D01*
X191279588Y-104542330D01*
X191457670Y-104720412D01*
X191559300Y-104794251D01*
X190064648Y-106288903D01*
X190064649Y-106288904D01*
X190322206Y-106497468D01*
X190647456Y-106708689D01*
X190993005Y-106884755D01*
X191355063Y-107023737D01*
X191729669Y-107124112D01*
X191729676Y-107124113D01*
X192112712Y-107184780D01*
X192499999Y-107205078D01*
X192500001Y-107205078D01*
X192887287Y-107184780D01*
X193270323Y-107124113D01*
X193270330Y-107124112D01*
X193644936Y-107023737D01*
X194006994Y-106884755D01*
X194352543Y-106708689D01*
X194677783Y-106497476D01*
X194677785Y-106497475D01*
X194935349Y-106288902D01*
X193440698Y-104794251D01*
X193542330Y-104720412D01*
X193720412Y-104542330D01*
X193794251Y-104440698D01*
X195288902Y-105935349D01*
X195497475Y-105677785D01*
X195497476Y-105677783D01*
X195571505Y-105563789D01*
X195624526Y-105518286D01*
X195693731Y-105508672D01*
X195757148Y-105537999D01*
X195794642Y-105596956D01*
X195799500Y-105631324D01*
X195799500Y-150368676D01*
X195779815Y-150435715D01*
X195727011Y-150481470D01*
X195657853Y-150491414D01*
X195594297Y-150462389D01*
X195571505Y-150436212D01*
X195497465Y-150322202D01*
X195288904Y-150064649D01*
X195288903Y-150064648D01*
X193794251Y-151559300D01*
X193720412Y-151457670D01*
X193542330Y-151279588D01*
X193440698Y-151205748D01*
X194935350Y-149711096D01*
X194935350Y-149711095D01*
X194677793Y-149502531D01*
X194352543Y-149291310D01*
X194006994Y-149115244D01*
X193644936Y-148976262D01*
X193270330Y-148875887D01*
X193270323Y-148875886D01*
X192887287Y-148815219D01*
X192500001Y-148794922D01*
X192499999Y-148794922D01*
X192112712Y-148815219D01*
X191729676Y-148875886D01*
X191729669Y-148875887D01*
X191355063Y-148976262D01*
X190993005Y-149115244D01*
X190647456Y-149291310D01*
X190322206Y-149502531D01*
X190064648Y-149711095D01*
X190064648Y-149711096D01*
X191559301Y-151205748D01*
X191457670Y-151279588D01*
X191279588Y-151457670D01*
X191205748Y-151559300D01*
X189711096Y-150064648D01*
X189711095Y-150064648D01*
X189502531Y-150322206D01*
X189291310Y-150647456D01*
X189115244Y-150993005D01*
X188976262Y-151355063D01*
X188875887Y-151729669D01*
X188875886Y-151729676D01*
X188815219Y-152112712D01*
X188794922Y-152499999D01*
X188794922Y-152500000D01*
X188815219Y-152887287D01*
X188875886Y-153270323D01*
X188875887Y-153270330D01*
X188976262Y-153644936D01*
X189115244Y-154006994D01*
X189291310Y-154352543D01*
X189502531Y-154677793D01*
X189711095Y-154935350D01*
X189711096Y-154935350D01*
X191205748Y-153440698D01*
X191279588Y-153542330D01*
X191457670Y-153720412D01*
X191559300Y-153794251D01*
X190064648Y-155288903D01*
X190064649Y-155288904D01*
X190322202Y-155497465D01*
X190436212Y-155571505D01*
X190481714Y-155624526D01*
X190491328Y-155693731D01*
X190462001Y-155757148D01*
X190403044Y-155794642D01*
X190368676Y-155799500D01*
X105631324Y-155799500D01*
X105564285Y-155779815D01*
X105518530Y-155727011D01*
X105508586Y-155657853D01*
X105537611Y-155594297D01*
X105563789Y-155571505D01*
X105677783Y-155497476D01*
X105677785Y-155497475D01*
X105935349Y-155288902D01*
X104440698Y-153794251D01*
X104542330Y-153720412D01*
X104720412Y-153542330D01*
X104794251Y-153440698D01*
X106288902Y-154935349D01*
X106497475Y-154677785D01*
X106497476Y-154677783D01*
X106708689Y-154352543D01*
X106708713Y-154352496D01*
X164275935Y-154352496D01*
X164275935Y-154352503D01*
X164296130Y-154531749D01*
X164296131Y-154531754D01*
X164355711Y-154702023D01*
X164451684Y-154854762D01*
X164579238Y-154982316D01*
X164731978Y-155078289D01*
X164902245Y-155137868D01*
X164902250Y-155137869D01*
X165081496Y-155158065D01*
X165081500Y-155158065D01*
X165081504Y-155158065D01*
X165260749Y-155137869D01*
X165260752Y-155137868D01*
X165260755Y-155137868D01*
X165431022Y-155078289D01*
X165583762Y-154982316D01*
X165711316Y-154854762D01*
X165807289Y-154702022D01*
X165866868Y-154531755D01*
X165866869Y-154531749D01*
X165887065Y-154352503D01*
X165887065Y-154352496D01*
X165866869Y-154173250D01*
X165866868Y-154173245D01*
X165807288Y-154002976D01*
X165711315Y-153850237D01*
X165583762Y-153722684D01*
X165431023Y-153626711D01*
X165260754Y-153567131D01*
X165260749Y-153567130D01*
X165081504Y-153546935D01*
X165081496Y-153546935D01*
X164902250Y-153567130D01*
X164902245Y-153567131D01*
X164731976Y-153626711D01*
X164579237Y-153722684D01*
X164451684Y-153850237D01*
X164355711Y-154002976D01*
X164296131Y-154173245D01*
X164296130Y-154173250D01*
X164275935Y-154352496D01*
X106708713Y-154352496D01*
X106884755Y-154006994D01*
X107023737Y-153644936D01*
X107124112Y-153270330D01*
X107124113Y-153270323D01*
X107163919Y-153018996D01*
X155195435Y-153018996D01*
X155195435Y-153019003D01*
X155215630Y-153198249D01*
X155215631Y-153198254D01*
X155275211Y-153368523D01*
X155371184Y-153521262D01*
X155498738Y-153648816D01*
X155651478Y-153744789D01*
X155821745Y-153804368D01*
X155821750Y-153804369D01*
X156000996Y-153824565D01*
X156001000Y-153824565D01*
X156001004Y-153824565D01*
X156180249Y-153804369D01*
X156180252Y-153804368D01*
X156180255Y-153804368D01*
X156350522Y-153744789D01*
X156503262Y-153648816D01*
X156630816Y-153521262D01*
X156726789Y-153368522D01*
X156786368Y-153198255D01*
X156806565Y-153019000D01*
X156786368Y-152839745D01*
X156726789Y-152669478D01*
X156718257Y-152655900D01*
X156630815Y-152516737D01*
X156503262Y-152389184D01*
X156350523Y-152293211D01*
X156180254Y-152233631D01*
X156180249Y-152233630D01*
X156001004Y-152213435D01*
X156000996Y-152213435D01*
X155821750Y-152233630D01*
X155821745Y-152233631D01*
X155651476Y-152293211D01*
X155498737Y-152389184D01*
X155371184Y-152516737D01*
X155275211Y-152669476D01*
X155215631Y-152839745D01*
X155215630Y-152839750D01*
X155195435Y-153018996D01*
X107163919Y-153018996D01*
X107184780Y-152887287D01*
X107205078Y-152500000D01*
X107205078Y-152499999D01*
X107184780Y-152112712D01*
X107124113Y-151729676D01*
X107124112Y-151729669D01*
X107023737Y-151355063D01*
X106884755Y-150993005D01*
X106767217Y-150762323D01*
X140040600Y-150762323D01*
X140040600Y-150957677D01*
X140050031Y-151017221D01*
X140071160Y-151150626D01*
X140131525Y-151336414D01*
X140131526Y-151336417D01*
X140220218Y-151510481D01*
X140335036Y-151668516D01*
X140335040Y-151668521D01*
X140473178Y-151806659D01*
X140473183Y-151806663D01*
X140566558Y-151874503D01*
X140631222Y-151921484D01*
X140745006Y-151979460D01*
X140805282Y-152010173D01*
X140805285Y-152010174D01*
X140898179Y-152040356D01*
X140991075Y-152070540D01*
X141184023Y-152101100D01*
X141184024Y-152101100D01*
X141379376Y-152101100D01*
X141379377Y-152101100D01*
X141572325Y-152070540D01*
X141758117Y-152010173D01*
X141932178Y-151921484D01*
X142090223Y-151806658D01*
X142228358Y-151668523D01*
X142343184Y-151510478D01*
X142431873Y-151336417D01*
X142492240Y-151150625D01*
X142522800Y-150957677D01*
X142522800Y-150859995D01*
X143227264Y-150859995D01*
X143227264Y-150860004D01*
X143247377Y-151128406D01*
X143247378Y-151128411D01*
X143307271Y-151390821D01*
X143307277Y-151390840D01*
X143405613Y-151641397D01*
X143540199Y-151874506D01*
X143577662Y-151921484D01*
X143708020Y-152084948D01*
X143774301Y-152146447D01*
X143905330Y-152268024D01*
X143905332Y-152268025D01*
X143905335Y-152268028D01*
X144127732Y-152419656D01*
X144370244Y-152536444D01*
X144627454Y-152615783D01*
X144627455Y-152615783D01*
X144627458Y-152615784D01*
X144893608Y-152655899D01*
X144893613Y-152655899D01*
X144893616Y-152655900D01*
X144893617Y-152655900D01*
X145162783Y-152655900D01*
X145162784Y-152655900D01*
X145162791Y-152655899D01*
X145428941Y-152615784D01*
X145428942Y-152615783D01*
X145428946Y-152615783D01*
X145686156Y-152536444D01*
X145928668Y-152419656D01*
X146151065Y-152268028D01*
X146348380Y-152084948D01*
X146516203Y-151874503D01*
X146650787Y-151641397D01*
X146749125Y-151390835D01*
X146809021Y-151128416D01*
X146809022Y-151128406D01*
X146829136Y-150860004D01*
X146829136Y-150859995D01*
X146821816Y-150762323D01*
X147533600Y-150762323D01*
X147533600Y-150957677D01*
X147543031Y-151017221D01*
X147564160Y-151150626D01*
X147624525Y-151336414D01*
X147624526Y-151336417D01*
X147713218Y-151510481D01*
X147828036Y-151668516D01*
X147828040Y-151668521D01*
X147966178Y-151806659D01*
X147966183Y-151806663D01*
X148059558Y-151874503D01*
X148124222Y-151921484D01*
X148238006Y-151979460D01*
X148298282Y-152010173D01*
X148298285Y-152010174D01*
X148391179Y-152040356D01*
X148484075Y-152070540D01*
X148677023Y-152101100D01*
X148677024Y-152101100D01*
X148872376Y-152101100D01*
X148872377Y-152101100D01*
X149065325Y-152070540D01*
X149251117Y-152010173D01*
X149425178Y-151921484D01*
X149583223Y-151806658D01*
X149721358Y-151668523D01*
X149836184Y-151510478D01*
X149924873Y-151336417D01*
X149985240Y-151150625D01*
X150015800Y-150957677D01*
X150015800Y-150762323D01*
X149991040Y-150605996D01*
X164085435Y-150605996D01*
X164085435Y-150606003D01*
X164105630Y-150785249D01*
X164105631Y-150785254D01*
X164165211Y-150955523D01*
X164188763Y-150993005D01*
X164261184Y-151108262D01*
X164388738Y-151235816D01*
X164541478Y-151331789D01*
X164710182Y-151390821D01*
X164711745Y-151391368D01*
X164711750Y-151391369D01*
X164890996Y-151411565D01*
X164891000Y-151411565D01*
X164891004Y-151411565D01*
X165070249Y-151391369D01*
X165070252Y-151391368D01*
X165070255Y-151391368D01*
X165240522Y-151331789D01*
X165393262Y-151235816D01*
X165520816Y-151108262D01*
X165616789Y-150955522D01*
X165676368Y-150785255D01*
X165678952Y-150762323D01*
X175537100Y-150762323D01*
X175537100Y-150957677D01*
X175546531Y-151017221D01*
X175567660Y-151150626D01*
X175628025Y-151336414D01*
X175628026Y-151336417D01*
X175716718Y-151510481D01*
X175831536Y-151668516D01*
X175831540Y-151668521D01*
X175969678Y-151806659D01*
X175969683Y-151806663D01*
X176063058Y-151874503D01*
X176127722Y-151921484D01*
X176241506Y-151979460D01*
X176301782Y-152010173D01*
X176301785Y-152010174D01*
X176394679Y-152040356D01*
X176487575Y-152070540D01*
X176680523Y-152101100D01*
X176680524Y-152101100D01*
X176875876Y-152101100D01*
X176875877Y-152101100D01*
X177068825Y-152070540D01*
X177254617Y-152010173D01*
X177428678Y-151921484D01*
X177586723Y-151806658D01*
X177724858Y-151668523D01*
X177839684Y-151510478D01*
X177928373Y-151336417D01*
X177988740Y-151150625D01*
X178019300Y-150957677D01*
X178019300Y-150859995D01*
X178723764Y-150859995D01*
X178723764Y-150860004D01*
X178743877Y-151128406D01*
X178743878Y-151128411D01*
X178803771Y-151390821D01*
X178803777Y-151390840D01*
X178902113Y-151641397D01*
X179036699Y-151874506D01*
X179074162Y-151921484D01*
X179204520Y-152084948D01*
X179270801Y-152146447D01*
X179401830Y-152268024D01*
X179401832Y-152268025D01*
X179401835Y-152268028D01*
X179624232Y-152419656D01*
X179866744Y-152536444D01*
X180123954Y-152615783D01*
X180123955Y-152615783D01*
X180123958Y-152615784D01*
X180390108Y-152655899D01*
X180390113Y-152655899D01*
X180390116Y-152655900D01*
X180390117Y-152655900D01*
X180659283Y-152655900D01*
X180659284Y-152655900D01*
X180659291Y-152655899D01*
X180925441Y-152615784D01*
X180925442Y-152615783D01*
X180925446Y-152615783D01*
X181182656Y-152536444D01*
X181425168Y-152419656D01*
X181647565Y-152268028D01*
X181844880Y-152084948D01*
X182012703Y-151874503D01*
X182147287Y-151641397D01*
X182245625Y-151390835D01*
X182305521Y-151128416D01*
X182305522Y-151128406D01*
X182325636Y-150860004D01*
X182325636Y-150859995D01*
X182318316Y-150762323D01*
X183030100Y-150762323D01*
X183030100Y-150957677D01*
X183039531Y-151017221D01*
X183060660Y-151150626D01*
X183121025Y-151336414D01*
X183121026Y-151336417D01*
X183209718Y-151510481D01*
X183324536Y-151668516D01*
X183324540Y-151668521D01*
X183462678Y-151806659D01*
X183462683Y-151806663D01*
X183556058Y-151874503D01*
X183620722Y-151921484D01*
X183734506Y-151979460D01*
X183794782Y-152010173D01*
X183794785Y-152010174D01*
X183887679Y-152040356D01*
X183980575Y-152070540D01*
X184173523Y-152101100D01*
X184173524Y-152101100D01*
X184368876Y-152101100D01*
X184368877Y-152101100D01*
X184561825Y-152070540D01*
X184747617Y-152010173D01*
X184921678Y-151921484D01*
X185079723Y-151806658D01*
X185217858Y-151668523D01*
X185332684Y-151510478D01*
X185421373Y-151336417D01*
X185481740Y-151150625D01*
X185512300Y-150957677D01*
X185512300Y-150762323D01*
X185481740Y-150569375D01*
X185421373Y-150383583D01*
X185421373Y-150383582D01*
X185356608Y-150256476D01*
X185332684Y-150209522D01*
X185255827Y-150103737D01*
X185217863Y-150051483D01*
X185217859Y-150051478D01*
X185079721Y-149913340D01*
X185079716Y-149913336D01*
X184921681Y-149798518D01*
X184921680Y-149798517D01*
X184921678Y-149798516D01*
X184865913Y-149770102D01*
X184747617Y-149709826D01*
X184747614Y-149709825D01*
X184561826Y-149649460D01*
X184465351Y-149634180D01*
X184368877Y-149618900D01*
X184173523Y-149618900D01*
X184109207Y-149629086D01*
X183980573Y-149649460D01*
X183794785Y-149709825D01*
X183794782Y-149709826D01*
X183620718Y-149798518D01*
X183462683Y-149913336D01*
X183462678Y-149913340D01*
X183324540Y-150051478D01*
X183324536Y-150051483D01*
X183209718Y-150209518D01*
X183121026Y-150383582D01*
X183121025Y-150383585D01*
X183060660Y-150569373D01*
X183048293Y-150647456D01*
X183030100Y-150762323D01*
X182318316Y-150762323D01*
X182305522Y-150591593D01*
X182305521Y-150591588D01*
X182305521Y-150591584D01*
X182245625Y-150329165D01*
X182147287Y-150078603D01*
X182012703Y-149845497D01*
X181992873Y-149820631D01*
X181844885Y-149635058D01*
X181844883Y-149635056D01*
X181844880Y-149635052D01*
X181702055Y-149502531D01*
X181647569Y-149451975D01*
X181647565Y-149451972D01*
X181425168Y-149300344D01*
X181425165Y-149300343D01*
X181425163Y-149300341D01*
X181182656Y-149183556D01*
X180925447Y-149104217D01*
X180925441Y-149104215D01*
X180659291Y-149064100D01*
X180659284Y-149064100D01*
X180390116Y-149064100D01*
X180390108Y-149064100D01*
X180123958Y-149104215D01*
X180123952Y-149104217D01*
X179866743Y-149183556D01*
X179624236Y-149300341D01*
X179401830Y-149451975D01*
X179204522Y-149635050D01*
X179204514Y-149635058D01*
X179036699Y-149845493D01*
X178902113Y-150078602D01*
X178803777Y-150329159D01*
X178803771Y-150329178D01*
X178743878Y-150591588D01*
X178743877Y-150591593D01*
X178723764Y-150859995D01*
X178019300Y-150859995D01*
X178019300Y-150762323D01*
X177988740Y-150569375D01*
X177928373Y-150383583D01*
X177928373Y-150383582D01*
X177863608Y-150256476D01*
X177839684Y-150209522D01*
X177762827Y-150103737D01*
X177724863Y-150051483D01*
X177724859Y-150051478D01*
X177586721Y-149913340D01*
X177586716Y-149913336D01*
X177428681Y-149798518D01*
X177428680Y-149798517D01*
X177428678Y-149798516D01*
X177372913Y-149770102D01*
X177254617Y-149709826D01*
X177254614Y-149709825D01*
X177068826Y-149649460D01*
X176972351Y-149634180D01*
X176875877Y-149618900D01*
X176680523Y-149618900D01*
X176616207Y-149629086D01*
X176487573Y-149649460D01*
X176301785Y-149709825D01*
X176301782Y-149709826D01*
X176127718Y-149798518D01*
X175969683Y-149913336D01*
X175969678Y-149913340D01*
X175831540Y-150051478D01*
X175831536Y-150051483D01*
X175716718Y-150209518D01*
X175628026Y-150383582D01*
X175628025Y-150383585D01*
X175567660Y-150569373D01*
X175555293Y-150647456D01*
X175537100Y-150762323D01*
X165678952Y-150762323D01*
X165696565Y-150606000D01*
X165694941Y-150591588D01*
X165676369Y-150426750D01*
X165676368Y-150426745D01*
X165616788Y-150256476D01*
X165520815Y-150103737D01*
X165393262Y-149976184D01*
X165240523Y-149880211D01*
X165070254Y-149820631D01*
X165070249Y-149820630D01*
X164891004Y-149800435D01*
X164890996Y-149800435D01*
X164711750Y-149820630D01*
X164711745Y-149820631D01*
X164541476Y-149880211D01*
X164388737Y-149976184D01*
X164261184Y-150103737D01*
X164165211Y-150256476D01*
X164105631Y-150426745D01*
X164105630Y-150426750D01*
X164085435Y-150605996D01*
X149991040Y-150605996D01*
X149985240Y-150569375D01*
X149924873Y-150383583D01*
X149924873Y-150383582D01*
X149860108Y-150256476D01*
X149836184Y-150209522D01*
X149759327Y-150103737D01*
X149721363Y-150051483D01*
X149721359Y-150051478D01*
X149583221Y-149913340D01*
X149583216Y-149913336D01*
X149425181Y-149798518D01*
X149425180Y-149798517D01*
X149425178Y-149798516D01*
X149369413Y-149770102D01*
X149251117Y-149709826D01*
X149251114Y-149709825D01*
X149065326Y-149649460D01*
X148968851Y-149634180D01*
X148872377Y-149618900D01*
X148677023Y-149618900D01*
X148612707Y-149629086D01*
X148484073Y-149649460D01*
X148298285Y-149709825D01*
X148298282Y-149709826D01*
X148124218Y-149798518D01*
X147966183Y-149913336D01*
X147966178Y-149913340D01*
X147828040Y-150051478D01*
X147828036Y-150051483D01*
X147713218Y-150209518D01*
X147624526Y-150383582D01*
X147624525Y-150383585D01*
X147564160Y-150569373D01*
X147551793Y-150647456D01*
X147533600Y-150762323D01*
X146821816Y-150762323D01*
X146809022Y-150591593D01*
X146809021Y-150591588D01*
X146809021Y-150591584D01*
X146749125Y-150329165D01*
X146650787Y-150078603D01*
X146516203Y-149845497D01*
X146496373Y-149820631D01*
X146348385Y-149635058D01*
X146348383Y-149635056D01*
X146348380Y-149635052D01*
X146205555Y-149502531D01*
X146151069Y-149451975D01*
X146151065Y-149451972D01*
X145928668Y-149300344D01*
X145928665Y-149300343D01*
X145928663Y-149300341D01*
X145686156Y-149183556D01*
X145428947Y-149104217D01*
X145428941Y-149104215D01*
X145162791Y-149064100D01*
X145162784Y-149064100D01*
X144893616Y-149064100D01*
X144893608Y-149064100D01*
X144627458Y-149104215D01*
X144627452Y-149104217D01*
X144370243Y-149183556D01*
X144127736Y-149300341D01*
X143905330Y-149451975D01*
X143708022Y-149635050D01*
X143708014Y-149635058D01*
X143540199Y-149845493D01*
X143405613Y-150078602D01*
X143307277Y-150329159D01*
X143307271Y-150329178D01*
X143247378Y-150591588D01*
X143247377Y-150591593D01*
X143227264Y-150859995D01*
X142522800Y-150859995D01*
X142522800Y-150762323D01*
X142492240Y-150569375D01*
X142431873Y-150383583D01*
X142431873Y-150383582D01*
X142367108Y-150256476D01*
X142343184Y-150209522D01*
X142266327Y-150103737D01*
X142228363Y-150051483D01*
X142228359Y-150051478D01*
X142090221Y-149913340D01*
X142090216Y-149913336D01*
X141932181Y-149798518D01*
X141932180Y-149798517D01*
X141932178Y-149798516D01*
X141876413Y-149770102D01*
X141758117Y-149709826D01*
X141758114Y-149709825D01*
X141572326Y-149649460D01*
X141475851Y-149634180D01*
X141379377Y-149618900D01*
X141184023Y-149618900D01*
X141119707Y-149629086D01*
X140991073Y-149649460D01*
X140805285Y-149709825D01*
X140805282Y-149709826D01*
X140631218Y-149798518D01*
X140473183Y-149913336D01*
X140473178Y-149913340D01*
X140335040Y-150051478D01*
X140335036Y-150051483D01*
X140220218Y-150209518D01*
X140131526Y-150383582D01*
X140131525Y-150383585D01*
X140071160Y-150569373D01*
X140058793Y-150647456D01*
X140040600Y-150762323D01*
X106767217Y-150762323D01*
X106708689Y-150647456D01*
X106497468Y-150322206D01*
X106288904Y-150064649D01*
X106288903Y-150064648D01*
X104794251Y-151559300D01*
X104720412Y-151457670D01*
X104542330Y-151279588D01*
X104440698Y-151205748D01*
X105935350Y-149711096D01*
X105935350Y-149711095D01*
X105677793Y-149502531D01*
X105352543Y-149291310D01*
X105006994Y-149115244D01*
X104644936Y-148976262D01*
X104270330Y-148875887D01*
X104270323Y-148875886D01*
X103887287Y-148815219D01*
X103500001Y-148794922D01*
X103499999Y-148794922D01*
X103112712Y-148815219D01*
X102729676Y-148875886D01*
X102729669Y-148875887D01*
X102355063Y-148976262D01*
X101993005Y-149115244D01*
X101647456Y-149291310D01*
X101322206Y-149502531D01*
X101064648Y-149711095D01*
X101064648Y-149711096D01*
X102559301Y-151205748D01*
X102457670Y-151279588D01*
X102279588Y-151457670D01*
X102205748Y-151559300D01*
X100711096Y-150064648D01*
X100711095Y-150064648D01*
X100502534Y-150322202D01*
X100428495Y-150436212D01*
X100375474Y-150481714D01*
X100306269Y-150491328D01*
X100242852Y-150462001D01*
X100205358Y-150403044D01*
X100200500Y-150368676D01*
X100200500Y-147684996D01*
X109094435Y-147684996D01*
X109094435Y-147685003D01*
X109114630Y-147864249D01*
X109114631Y-147864254D01*
X109174211Y-148034523D01*
X109270184Y-148187262D01*
X109397738Y-148314816D01*
X109550478Y-148410789D01*
X109720745Y-148470368D01*
X109720750Y-148470369D01*
X109899996Y-148490565D01*
X109900000Y-148490565D01*
X109900004Y-148490565D01*
X110079249Y-148470369D01*
X110079252Y-148470368D01*
X110079255Y-148470368D01*
X110249522Y-148410789D01*
X110402262Y-148314816D01*
X110529816Y-148187262D01*
X110625789Y-148034522D01*
X110685368Y-147864255D01*
X110691840Y-147806815D01*
X110705565Y-147685003D01*
X110705565Y-147684996D01*
X110685369Y-147505750D01*
X110685368Y-147505745D01*
X110625789Y-147335478D01*
X110529816Y-147182738D01*
X110402262Y-147055184D01*
X110249523Y-146959211D01*
X110079254Y-146899631D01*
X110079249Y-146899630D01*
X109900004Y-146879435D01*
X109899996Y-146879435D01*
X109720750Y-146899630D01*
X109720745Y-146899631D01*
X109550476Y-146959211D01*
X109397737Y-147055184D01*
X109270184Y-147182737D01*
X109174211Y-147335476D01*
X109114631Y-147505745D01*
X109114630Y-147505750D01*
X109094435Y-147684996D01*
X100200500Y-147684996D01*
X100200500Y-146414996D01*
X157592435Y-146414996D01*
X157592435Y-146415003D01*
X157612630Y-146594249D01*
X157612631Y-146594254D01*
X157672211Y-146764523D01*
X157711769Y-146827478D01*
X157768184Y-146917262D01*
X157895738Y-147044816D01*
X158048478Y-147140789D01*
X158218745Y-147200368D01*
X158218750Y-147200369D01*
X158397996Y-147220565D01*
X158398000Y-147220565D01*
X158398004Y-147220565D01*
X158577249Y-147200369D01*
X158577252Y-147200368D01*
X158577255Y-147200368D01*
X158644048Y-147176996D01*
X160529435Y-147176996D01*
X160529435Y-147177003D01*
X160549630Y-147356249D01*
X160549631Y-147356254D01*
X160609211Y-147526523D01*
X160705184Y-147679262D01*
X160832738Y-147806816D01*
X160985478Y-147902789D01*
X161155745Y-147962368D01*
X161155750Y-147962369D01*
X161334996Y-147982565D01*
X161335000Y-147982565D01*
X161335004Y-147982565D01*
X161514249Y-147962369D01*
X161514252Y-147962368D01*
X161514255Y-147962368D01*
X161684522Y-147902789D01*
X161837262Y-147806816D01*
X161959082Y-147684996D01*
X165990435Y-147684996D01*
X165990435Y-147685003D01*
X166010630Y-147864249D01*
X166010631Y-147864254D01*
X166070211Y-148034523D01*
X166166184Y-148187262D01*
X166293738Y-148314816D01*
X166446478Y-148410789D01*
X166616745Y-148470368D01*
X166616750Y-148470369D01*
X166795996Y-148490565D01*
X166796000Y-148490565D01*
X166796004Y-148490565D01*
X166975249Y-148470369D01*
X166975252Y-148470368D01*
X166975255Y-148470368D01*
X167145522Y-148410789D01*
X167298262Y-148314816D01*
X167425816Y-148187262D01*
X167521789Y-148034522D01*
X167581368Y-147864255D01*
X167587840Y-147806815D01*
X167601565Y-147685003D01*
X167601565Y-147684996D01*
X167587256Y-147557996D01*
X170054435Y-147557996D01*
X170054435Y-147558003D01*
X170074630Y-147737249D01*
X170074631Y-147737254D01*
X170134211Y-147907523D01*
X170214010Y-148034522D01*
X170230184Y-148060262D01*
X170357738Y-148187816D01*
X170510478Y-148283789D01*
X170599148Y-148314816D01*
X170680745Y-148343368D01*
X170680750Y-148343369D01*
X170859996Y-148363565D01*
X170860000Y-148363565D01*
X170860004Y-148363565D01*
X171039249Y-148343369D01*
X171039252Y-148343368D01*
X171039255Y-148343368D01*
X171209522Y-148283789D01*
X171362262Y-148187816D01*
X171489816Y-148060262D01*
X171585789Y-147907522D01*
X171645368Y-147737255D01*
X171645369Y-147737249D01*
X171665565Y-147558003D01*
X171665565Y-147557996D01*
X171645369Y-147378750D01*
X171645368Y-147378745D01*
X171630228Y-147335478D01*
X171585789Y-147208478D01*
X171569615Y-147182738D01*
X171543257Y-147140789D01*
X171489816Y-147055738D01*
X171362262Y-146928184D01*
X171316822Y-146899632D01*
X171209523Y-146832211D01*
X171039254Y-146772631D01*
X171039249Y-146772630D01*
X170860004Y-146752435D01*
X170859996Y-146752435D01*
X170680750Y-146772630D01*
X170680745Y-146772631D01*
X170510476Y-146832211D01*
X170357737Y-146928184D01*
X170230184Y-147055737D01*
X170134211Y-147208476D01*
X170074631Y-147378745D01*
X170074630Y-147378750D01*
X170054435Y-147557996D01*
X167587256Y-147557996D01*
X167581369Y-147505750D01*
X167581368Y-147505745D01*
X167521789Y-147335478D01*
X167425816Y-147182738D01*
X167298262Y-147055184D01*
X167145523Y-146959211D01*
X166975254Y-146899631D01*
X166975249Y-146899630D01*
X166796004Y-146879435D01*
X166795996Y-146879435D01*
X166616750Y-146899630D01*
X166616745Y-146899631D01*
X166446476Y-146959211D01*
X166293737Y-147055184D01*
X166166184Y-147182737D01*
X166070211Y-147335476D01*
X166010631Y-147505745D01*
X166010630Y-147505750D01*
X165990435Y-147684996D01*
X161959082Y-147684996D01*
X161964816Y-147679262D01*
X162060789Y-147526522D01*
X162120368Y-147356255D01*
X162122709Y-147335478D01*
X162140565Y-147177003D01*
X162140565Y-147176996D01*
X162120369Y-146997750D01*
X162120368Y-146997745D01*
X162106884Y-146959211D01*
X162060789Y-146827478D01*
X161964816Y-146674738D01*
X161837262Y-146547184D01*
X161684523Y-146451211D01*
X161514254Y-146391631D01*
X161514249Y-146391630D01*
X161335004Y-146371435D01*
X161334996Y-146371435D01*
X161155750Y-146391630D01*
X161155745Y-146391631D01*
X160985476Y-146451211D01*
X160832737Y-146547184D01*
X160705184Y-146674737D01*
X160609211Y-146827476D01*
X160549631Y-146997745D01*
X160549630Y-146997750D01*
X160529435Y-147176996D01*
X158644048Y-147176996D01*
X158747522Y-147140789D01*
X158900262Y-147044816D01*
X159027816Y-146917262D01*
X159123789Y-146764522D01*
X159183368Y-146594255D01*
X159203565Y-146415000D01*
X159200932Y-146391632D01*
X159183369Y-146235750D01*
X159183368Y-146235745D01*
X159123788Y-146065476D01*
X159027815Y-145912737D01*
X158900262Y-145785184D01*
X158747523Y-145689211D01*
X158577254Y-145629631D01*
X158577249Y-145629630D01*
X158398004Y-145609435D01*
X158397996Y-145609435D01*
X158218750Y-145629630D01*
X158218745Y-145629631D01*
X158048476Y-145689211D01*
X157895737Y-145785184D01*
X157768184Y-145912737D01*
X157672211Y-146065476D01*
X157612631Y-146235745D01*
X157612630Y-146235750D01*
X157592435Y-146414996D01*
X100200500Y-146414996D01*
X100200500Y-144128996D01*
X105792435Y-144128996D01*
X105792435Y-144129003D01*
X105812630Y-144308249D01*
X105812631Y-144308254D01*
X105872211Y-144478523D01*
X105968184Y-144631262D01*
X106095738Y-144758816D01*
X106248478Y-144854789D01*
X106418745Y-144914368D01*
X106418750Y-144914369D01*
X106597996Y-144934565D01*
X106598000Y-144934565D01*
X106598004Y-144934565D01*
X106777249Y-144914369D01*
X106777252Y-144914368D01*
X106777255Y-144914368D01*
X106947522Y-144854789D01*
X107100262Y-144758816D01*
X107227816Y-144631262D01*
X107323789Y-144478522D01*
X107383368Y-144308255D01*
X107388609Y-144261738D01*
X107403565Y-144129003D01*
X107403565Y-144128996D01*
X107383369Y-143949750D01*
X107383368Y-143949745D01*
X107357215Y-143875003D01*
X107323789Y-143779478D01*
X107227816Y-143626738D01*
X107100262Y-143499184D01*
X107034817Y-143458062D01*
X106947523Y-143403211D01*
X106777254Y-143343631D01*
X106777249Y-143343630D01*
X106598004Y-143323435D01*
X106597996Y-143323435D01*
X106418750Y-143343630D01*
X106418745Y-143343631D01*
X106248476Y-143403211D01*
X106095737Y-143499184D01*
X105968184Y-143626737D01*
X105872211Y-143779476D01*
X105812631Y-143949745D01*
X105812630Y-143949750D01*
X105792435Y-144128996D01*
X100200500Y-144128996D01*
X100200500Y-141055595D01*
X143227766Y-141055595D01*
X143227766Y-141055604D01*
X143247873Y-141323931D01*
X143247874Y-141323936D01*
X143307750Y-141586273D01*
X143307756Y-141586292D01*
X143406065Y-141836779D01*
X143406064Y-141836779D01*
X143540614Y-142069824D01*
X143593767Y-142136477D01*
X143593768Y-142136477D01*
X144135778Y-141594467D01*
X144219292Y-141719454D01*
X144364346Y-141864508D01*
X144489331Y-141948020D01*
X143946359Y-142490992D01*
X144127989Y-142614825D01*
X144127990Y-142614826D01*
X144370422Y-142731574D01*
X144370441Y-142731581D01*
X144627553Y-142810889D01*
X144627563Y-142810891D01*
X144811719Y-142838650D01*
X144875076Y-142868107D01*
X144912449Y-142927141D01*
X144911974Y-142997009D01*
X144873800Y-143055528D01*
X144812635Y-143083738D01*
X144725677Y-143097511D01*
X144532284Y-143160347D01*
X144351096Y-143252668D01*
X144289033Y-143297760D01*
X144186584Y-143372194D01*
X144186582Y-143372196D01*
X144186581Y-143372196D01*
X144042796Y-143515981D01*
X144042796Y-143515982D01*
X144042794Y-143515984D01*
X143991462Y-143586635D01*
X143923268Y-143680496D01*
X143830947Y-143861684D01*
X143768111Y-144055077D01*
X143755582Y-144134184D01*
X143736300Y-144255925D01*
X143736300Y-144459275D01*
X143739349Y-144478523D01*
X143768111Y-144660122D01*
X143830947Y-144853515D01*
X143923268Y-145034703D01*
X144042794Y-145199216D01*
X144186584Y-145343006D01*
X144351097Y-145462532D01*
X144404590Y-145489788D01*
X144532284Y-145554852D01*
X144577567Y-145569565D01*
X144725679Y-145617689D01*
X144926525Y-145649500D01*
X144926526Y-145649500D01*
X145129874Y-145649500D01*
X145129875Y-145649500D01*
X145330721Y-145617689D01*
X145524118Y-145554851D01*
X145705303Y-145462532D01*
X145869816Y-145343006D01*
X146013606Y-145199216D01*
X146133132Y-145034703D01*
X146225451Y-144853518D01*
X146254538Y-144763996D01*
X153798435Y-144763996D01*
X153798435Y-144764003D01*
X153818630Y-144943249D01*
X153818631Y-144943254D01*
X153878211Y-145113523D01*
X153932056Y-145199216D01*
X153974184Y-145266262D01*
X154101738Y-145393816D01*
X154254478Y-145489789D01*
X154424745Y-145549368D01*
X154424750Y-145549369D01*
X154603996Y-145569565D01*
X154604000Y-145569565D01*
X154604004Y-145569565D01*
X154783249Y-145549369D01*
X154783252Y-145549368D01*
X154783255Y-145549368D01*
X154953522Y-145489789D01*
X155106262Y-145393816D01*
X155233816Y-145266262D01*
X155329789Y-145113522D01*
X155389368Y-144943255D01*
X155399479Y-144853518D01*
X155409565Y-144764003D01*
X155409565Y-144763996D01*
X155389369Y-144584750D01*
X155389368Y-144584745D01*
X155329789Y-144414478D01*
X155233816Y-144261738D01*
X155106262Y-144134184D01*
X154953523Y-144038211D01*
X154783254Y-143978631D01*
X154783249Y-143978630D01*
X154604004Y-143958435D01*
X154603996Y-143958435D01*
X154424750Y-143978630D01*
X154424745Y-143978631D01*
X154254476Y-144038211D01*
X154101737Y-144134184D01*
X153974184Y-144261737D01*
X153878211Y-144414476D01*
X153818631Y-144584745D01*
X153818630Y-144584750D01*
X153798435Y-144763996D01*
X146254538Y-144763996D01*
X146288289Y-144660121D01*
X146320100Y-144459275D01*
X146320100Y-144255925D01*
X146288289Y-144055079D01*
X146243834Y-143918259D01*
X146225452Y-143861684D01*
X146212661Y-143836581D01*
X146133132Y-143680497D01*
X146013606Y-143515984D01*
X145869816Y-143372194D01*
X145705303Y-143252668D01*
X145670265Y-143234815D01*
X145524115Y-143160347D01*
X145330722Y-143097511D01*
X145243764Y-143083738D01*
X145180629Y-143053809D01*
X145143698Y-142994497D01*
X145144696Y-142924635D01*
X145183306Y-142866402D01*
X145199680Y-142858998D01*
X148434954Y-142858998D01*
X148434954Y-142859001D01*
X148454312Y-143129666D01*
X148511989Y-143394803D01*
X148606822Y-143649061D01*
X148736861Y-143887210D01*
X148736861Y-143887211D01*
X148830264Y-144011981D01*
X149369724Y-143472521D01*
X149464969Y-143603614D01*
X149592186Y-143730831D01*
X149723277Y-143826074D01*
X149183817Y-144365534D01*
X149183818Y-144365535D01*
X149308580Y-144458933D01*
X149546738Y-144588977D01*
X149800996Y-144683810D01*
X150066133Y-144741487D01*
X150336799Y-144760846D01*
X150336801Y-144760846D01*
X150607466Y-144741487D01*
X150872603Y-144683810D01*
X151126861Y-144588977D01*
X151365019Y-144458933D01*
X151489781Y-144365535D01*
X151489781Y-144365534D01*
X150950322Y-143826074D01*
X151081414Y-143730831D01*
X151208631Y-143603614D01*
X151303875Y-143472522D01*
X151843334Y-144011981D01*
X151843335Y-144011981D01*
X151936733Y-143887219D01*
X151943407Y-143874996D01*
X165863435Y-143874996D01*
X165863435Y-143875003D01*
X165883630Y-144054249D01*
X165883631Y-144054254D01*
X165943211Y-144224523D01*
X165966595Y-144261738D01*
X166039184Y-144377262D01*
X166166738Y-144504816D01*
X166319478Y-144600789D01*
X166406565Y-144631262D01*
X166489745Y-144660368D01*
X166489750Y-144660369D01*
X166668996Y-144680565D01*
X166669000Y-144680565D01*
X166669004Y-144680565D01*
X166848249Y-144660369D01*
X166848252Y-144660368D01*
X166848255Y-144660368D01*
X167018522Y-144600789D01*
X167171262Y-144504816D01*
X167298816Y-144377262D01*
X167394789Y-144224522D01*
X167454368Y-144054255D01*
X167463427Y-143973855D01*
X167474565Y-143875003D01*
X167474565Y-143874996D01*
X167454369Y-143695750D01*
X167454368Y-143695745D01*
X167449032Y-143680496D01*
X167394789Y-143525478D01*
X167378267Y-143499184D01*
X167352257Y-143457789D01*
X167298816Y-143372738D01*
X167171262Y-143245184D01*
X167018523Y-143149211D01*
X166848254Y-143089631D01*
X166848249Y-143089630D01*
X166669004Y-143069435D01*
X166668996Y-143069435D01*
X166489750Y-143089630D01*
X166489745Y-143089631D01*
X166319476Y-143149211D01*
X166166737Y-143245184D01*
X166039184Y-143372737D01*
X165943211Y-143525476D01*
X165883631Y-143695745D01*
X165883630Y-143695750D01*
X165863435Y-143874996D01*
X151943407Y-143874996D01*
X152066777Y-143649061D01*
X152161610Y-143394803D01*
X152219287Y-143129666D01*
X152238646Y-142859001D01*
X152238646Y-142858998D01*
X152220479Y-142604996D01*
X163069435Y-142604996D01*
X163069435Y-142605003D01*
X163089630Y-142784249D01*
X163089631Y-142784254D01*
X163149211Y-142954523D01*
X163174329Y-142994497D01*
X163245184Y-143107262D01*
X163372738Y-143234816D01*
X163525478Y-143330789D01*
X163695745Y-143390368D01*
X163695750Y-143390369D01*
X163874996Y-143410565D01*
X163875000Y-143410565D01*
X163875004Y-143410565D01*
X164054249Y-143390369D01*
X164054252Y-143390368D01*
X164054255Y-143390368D01*
X164224522Y-143330789D01*
X164377262Y-143234816D01*
X164504816Y-143107262D01*
X164600789Y-142954522D01*
X164660368Y-142784255D01*
X164662082Y-142769044D01*
X164666256Y-142731996D01*
X170943435Y-142731996D01*
X170943435Y-142732003D01*
X170963630Y-142911249D01*
X170963631Y-142911254D01*
X171023211Y-143081523D01*
X171065743Y-143149211D01*
X171119184Y-143234262D01*
X171246738Y-143361816D01*
X171399478Y-143457789D01*
X171517778Y-143499184D01*
X171569745Y-143517368D01*
X171569750Y-143517369D01*
X171748996Y-143537565D01*
X171749000Y-143537565D01*
X171749004Y-143537565D01*
X171928249Y-143517369D01*
X171928252Y-143517368D01*
X171928255Y-143517368D01*
X172098522Y-143457789D01*
X172251262Y-143361816D01*
X172378816Y-143234262D01*
X172474789Y-143081522D01*
X172534368Y-142911255D01*
X172542549Y-142838650D01*
X172554565Y-142732003D01*
X172554565Y-142731996D01*
X172534369Y-142552750D01*
X172534368Y-142552745D01*
X172512760Y-142490992D01*
X172474789Y-142382478D01*
X172378816Y-142229738D01*
X172251262Y-142102184D01*
X172199771Y-142069830D01*
X172098523Y-142006211D01*
X171928254Y-141946631D01*
X171928249Y-141946630D01*
X171749004Y-141926435D01*
X171748996Y-141926435D01*
X171569750Y-141946630D01*
X171569745Y-141946631D01*
X171399476Y-142006211D01*
X171246737Y-142102184D01*
X171119184Y-142229737D01*
X171023211Y-142382476D01*
X170963631Y-142552745D01*
X170963630Y-142552750D01*
X170943435Y-142731996D01*
X164666256Y-142731996D01*
X164680565Y-142605003D01*
X164680565Y-142604996D01*
X164660369Y-142425750D01*
X164660368Y-142425745D01*
X164645228Y-142382478D01*
X164600789Y-142255478D01*
X164584615Y-142229738D01*
X164561582Y-142193080D01*
X164504816Y-142102738D01*
X164377262Y-141975184D01*
X164331822Y-141946632D01*
X164224523Y-141879211D01*
X164054254Y-141819631D01*
X164054249Y-141819630D01*
X163875004Y-141799435D01*
X163874996Y-141799435D01*
X163695750Y-141819630D01*
X163695745Y-141819631D01*
X163525476Y-141879211D01*
X163372737Y-141975184D01*
X163245184Y-142102737D01*
X163149211Y-142255476D01*
X163089631Y-142425745D01*
X163089630Y-142425750D01*
X163069435Y-142604996D01*
X152220479Y-142604996D01*
X152219287Y-142588333D01*
X152161610Y-142323196D01*
X152066777Y-142068938D01*
X151936733Y-141830780D01*
X151843335Y-141706018D01*
X151843334Y-141706017D01*
X151303874Y-142245477D01*
X151208631Y-142114386D01*
X151081414Y-141987169D01*
X150950321Y-141891924D01*
X151489781Y-141352464D01*
X151365011Y-141259061D01*
X151126861Y-141129022D01*
X150929995Y-141055595D01*
X178724266Y-141055595D01*
X178724266Y-141055604D01*
X178744373Y-141323931D01*
X178744374Y-141323936D01*
X178804250Y-141586273D01*
X178804256Y-141586292D01*
X178902565Y-141836779D01*
X178902564Y-141836779D01*
X179037114Y-142069824D01*
X179090267Y-142136477D01*
X179090268Y-142136477D01*
X179632278Y-141594467D01*
X179715792Y-141719454D01*
X179860846Y-141864508D01*
X179985831Y-141948020D01*
X179442859Y-142490992D01*
X179624489Y-142614825D01*
X179624490Y-142614826D01*
X179866922Y-142731574D01*
X179866941Y-142731581D01*
X180124053Y-142810889D01*
X180124063Y-142810891D01*
X180308219Y-142838650D01*
X180371576Y-142868107D01*
X180408949Y-142927141D01*
X180408474Y-142997009D01*
X180370300Y-143055528D01*
X180309135Y-143083738D01*
X180222177Y-143097511D01*
X180028784Y-143160347D01*
X179847596Y-143252668D01*
X179785533Y-143297760D01*
X179683084Y-143372194D01*
X179683082Y-143372196D01*
X179683081Y-143372196D01*
X179539296Y-143515981D01*
X179539296Y-143515982D01*
X179539294Y-143515984D01*
X179487962Y-143586635D01*
X179419768Y-143680496D01*
X179327447Y-143861684D01*
X179264611Y-144055077D01*
X179252082Y-144134184D01*
X179232800Y-144255925D01*
X179232800Y-144459275D01*
X179235849Y-144478523D01*
X179264611Y-144660122D01*
X179327447Y-144853515D01*
X179419768Y-145034703D01*
X179539294Y-145199216D01*
X179683084Y-145343006D01*
X179847597Y-145462532D01*
X179901090Y-145489788D01*
X180028784Y-145554852D01*
X180074067Y-145569565D01*
X180222179Y-145617689D01*
X180423025Y-145649500D01*
X180423026Y-145649500D01*
X180626374Y-145649500D01*
X180626375Y-145649500D01*
X180827221Y-145617689D01*
X181020618Y-145554851D01*
X181201803Y-145462532D01*
X181366316Y-145343006D01*
X181510106Y-145199216D01*
X181629632Y-145034703D01*
X181721951Y-144853518D01*
X181784789Y-144660121D01*
X181816600Y-144459275D01*
X181816600Y-144255925D01*
X181784789Y-144055079D01*
X181740334Y-143918259D01*
X181721952Y-143861684D01*
X181709161Y-143836581D01*
X181629632Y-143680497D01*
X181510106Y-143515984D01*
X181366316Y-143372194D01*
X181201803Y-143252668D01*
X181166765Y-143234815D01*
X181020615Y-143160347D01*
X180827222Y-143097511D01*
X180740264Y-143083738D01*
X180677129Y-143053809D01*
X180640198Y-142994497D01*
X180641196Y-142924635D01*
X180679806Y-142866402D01*
X180696180Y-142858998D01*
X183931454Y-142858998D01*
X183931454Y-142859001D01*
X183950812Y-143129666D01*
X184008489Y-143394803D01*
X184103322Y-143649061D01*
X184233361Y-143887210D01*
X184233361Y-143887211D01*
X184326764Y-144011981D01*
X184866224Y-143472521D01*
X184961469Y-143603614D01*
X185088686Y-143730831D01*
X185219777Y-143826074D01*
X184680317Y-144365534D01*
X184680318Y-144365535D01*
X184805080Y-144458933D01*
X185043238Y-144588977D01*
X185297496Y-144683810D01*
X185562633Y-144741487D01*
X185833299Y-144760846D01*
X185833301Y-144760846D01*
X186103966Y-144741487D01*
X186369103Y-144683810D01*
X186623361Y-144588977D01*
X186861519Y-144458933D01*
X186986281Y-144365535D01*
X186986281Y-144365534D01*
X186446822Y-143826074D01*
X186577914Y-143730831D01*
X186705131Y-143603614D01*
X186800375Y-143472522D01*
X187339834Y-144011981D01*
X187339835Y-144011981D01*
X187433233Y-143887219D01*
X187563277Y-143649061D01*
X187658110Y-143394803D01*
X187715787Y-143129666D01*
X187735146Y-142859001D01*
X187735146Y-142858998D01*
X187715787Y-142588333D01*
X187658110Y-142323196D01*
X187563277Y-142068938D01*
X187433233Y-141830780D01*
X187339835Y-141706018D01*
X187339834Y-141706017D01*
X186800374Y-142245477D01*
X186705131Y-142114386D01*
X186577914Y-141987169D01*
X186446821Y-141891924D01*
X186986281Y-141352464D01*
X186861511Y-141259061D01*
X186623361Y-141129022D01*
X186369103Y-141034189D01*
X186103966Y-140976512D01*
X185833301Y-140957154D01*
X185833299Y-140957154D01*
X185562633Y-140976512D01*
X185297496Y-141034189D01*
X185043238Y-141129022D01*
X184805089Y-141259061D01*
X184805081Y-141259066D01*
X184680318Y-141352463D01*
X184680317Y-141352464D01*
X185219778Y-141891924D01*
X185088686Y-141987169D01*
X184961469Y-142114386D01*
X184866224Y-142245477D01*
X184326764Y-141706017D01*
X184326763Y-141706018D01*
X184233366Y-141830781D01*
X184233361Y-141830789D01*
X184103322Y-142068938D01*
X184008489Y-142323196D01*
X183950812Y-142588333D01*
X183931454Y-142858998D01*
X180696180Y-142858998D01*
X180741180Y-142838650D01*
X180925336Y-142810891D01*
X180925346Y-142810889D01*
X181182458Y-142731581D01*
X181182477Y-142731574D01*
X181424909Y-142614826D01*
X181424919Y-142614819D01*
X181606539Y-142490992D01*
X181063568Y-141948020D01*
X181188554Y-141864508D01*
X181333608Y-141719454D01*
X181417120Y-141594468D01*
X181959130Y-142136477D01*
X181959131Y-142136476D01*
X182012281Y-142069830D01*
X182012288Y-142069819D01*
X182146834Y-141836779D01*
X182245143Y-141586292D01*
X182245149Y-141586273D01*
X182305025Y-141323936D01*
X182305026Y-141323931D01*
X182325134Y-141055604D01*
X182325134Y-141055595D01*
X182305026Y-140787268D01*
X182305025Y-140787263D01*
X182245149Y-140524926D01*
X182245143Y-140524907D01*
X182146834Y-140274420D01*
X182146835Y-140274420D01*
X182012285Y-140041375D01*
X181959131Y-139974721D01*
X181417120Y-140516731D01*
X181333608Y-140391746D01*
X181188554Y-140246692D01*
X181063567Y-140163178D01*
X181606539Y-139620206D01*
X181424910Y-139496374D01*
X181424909Y-139496373D01*
X181182477Y-139379625D01*
X181182458Y-139379618D01*
X180925346Y-139300310D01*
X180925336Y-139300308D01*
X180659252Y-139260200D01*
X180390147Y-139260200D01*
X180124063Y-139300308D01*
X180124053Y-139300310D01*
X179866941Y-139379618D01*
X179866922Y-139379625D01*
X179624490Y-139496373D01*
X179624482Y-139496378D01*
X179442859Y-139620206D01*
X179985832Y-140163178D01*
X179860846Y-140246692D01*
X179715792Y-140391746D01*
X179632278Y-140516732D01*
X179090268Y-139974722D01*
X179037112Y-140041378D01*
X178902565Y-140274420D01*
X178804256Y-140524907D01*
X178804250Y-140524926D01*
X178744374Y-140787263D01*
X178744373Y-140787268D01*
X178724266Y-141055595D01*
X150929995Y-141055595D01*
X150872603Y-141034189D01*
X150607466Y-140976512D01*
X150336801Y-140957154D01*
X150336799Y-140957154D01*
X150066133Y-140976512D01*
X149800996Y-141034189D01*
X149546738Y-141129022D01*
X149308589Y-141259061D01*
X149308581Y-141259066D01*
X149183818Y-141352463D01*
X149183817Y-141352464D01*
X149723278Y-141891924D01*
X149592186Y-141987169D01*
X149464969Y-142114386D01*
X149369724Y-142245477D01*
X148830264Y-141706017D01*
X148830263Y-141706018D01*
X148736866Y-141830781D01*
X148736861Y-141830789D01*
X148606822Y-142068938D01*
X148511989Y-142323196D01*
X148454312Y-142588333D01*
X148434954Y-142858998D01*
X145199680Y-142858998D01*
X145244680Y-142838650D01*
X145428836Y-142810891D01*
X145428846Y-142810889D01*
X145685958Y-142731581D01*
X145685977Y-142731574D01*
X145928409Y-142614826D01*
X145928419Y-142614819D01*
X146110039Y-142490992D01*
X145567068Y-141948020D01*
X145692054Y-141864508D01*
X145837108Y-141719454D01*
X145920621Y-141594468D01*
X146462630Y-142136477D01*
X146462631Y-142136476D01*
X146515781Y-142069830D01*
X146515788Y-142069819D01*
X146650334Y-141836779D01*
X146748643Y-141586292D01*
X146748649Y-141586273D01*
X146808525Y-141323936D01*
X146808526Y-141323931D01*
X146828634Y-141055604D01*
X146828634Y-141055595D01*
X146808526Y-140787268D01*
X146808525Y-140787263D01*
X146748649Y-140524926D01*
X146748643Y-140524907D01*
X146650334Y-140274420D01*
X146650335Y-140274420D01*
X146515785Y-140041375D01*
X146462631Y-139974721D01*
X145920620Y-140516731D01*
X145837108Y-140391746D01*
X145692054Y-140246692D01*
X145567067Y-140163178D01*
X146110039Y-139620206D01*
X145928410Y-139496374D01*
X145928409Y-139496373D01*
X145685977Y-139379625D01*
X145685958Y-139379618D01*
X145428846Y-139300310D01*
X145428836Y-139300308D01*
X145162752Y-139260200D01*
X144893647Y-139260200D01*
X144627563Y-139300308D01*
X144627553Y-139300310D01*
X144370441Y-139379618D01*
X144370422Y-139379625D01*
X144127990Y-139496373D01*
X144127982Y-139496378D01*
X143946359Y-139620206D01*
X144489332Y-140163178D01*
X144364346Y-140246692D01*
X144219292Y-140391746D01*
X144135778Y-140516732D01*
X143593768Y-139974722D01*
X143540612Y-140041378D01*
X143406065Y-140274420D01*
X143307756Y-140524907D01*
X143307750Y-140524926D01*
X143247874Y-140787263D01*
X143247873Y-140787268D01*
X143227766Y-141055595D01*
X100200500Y-141055595D01*
X100200500Y-138413996D01*
X162180435Y-138413996D01*
X162180435Y-138414003D01*
X162200630Y-138593249D01*
X162200631Y-138593254D01*
X162260211Y-138763523D01*
X162356184Y-138916262D01*
X162483738Y-139043816D01*
X162636478Y-139139789D01*
X162806745Y-139199368D01*
X162806750Y-139199369D01*
X162985996Y-139219565D01*
X162986000Y-139219565D01*
X162986004Y-139219565D01*
X163165249Y-139199369D01*
X163165252Y-139199368D01*
X163165255Y-139199368D01*
X163335522Y-139139789D01*
X163488262Y-139043816D01*
X163615816Y-138916262D01*
X163711789Y-138763522D01*
X163771368Y-138593255D01*
X163791565Y-138414000D01*
X163791565Y-138413996D01*
X164466435Y-138413996D01*
X164466435Y-138414003D01*
X164486630Y-138593249D01*
X164486631Y-138593254D01*
X164546211Y-138763523D01*
X164642184Y-138916262D01*
X164769738Y-139043816D01*
X164922478Y-139139789D01*
X165092745Y-139199368D01*
X165092750Y-139199369D01*
X165271996Y-139219565D01*
X165272000Y-139219565D01*
X165272004Y-139219565D01*
X165451249Y-139199369D01*
X165451252Y-139199368D01*
X165451255Y-139199368D01*
X165621522Y-139139789D01*
X165774262Y-139043816D01*
X165901816Y-138916262D01*
X165997789Y-138763522D01*
X166057368Y-138593255D01*
X166077565Y-138414000D01*
X166057368Y-138234745D01*
X165997789Y-138064478D01*
X165901816Y-137911738D01*
X165774262Y-137784184D01*
X165621523Y-137688211D01*
X165451254Y-137628631D01*
X165451249Y-137628630D01*
X165272004Y-137608435D01*
X165271996Y-137608435D01*
X165092750Y-137628630D01*
X165092745Y-137628631D01*
X164922476Y-137688211D01*
X164769737Y-137784184D01*
X164642184Y-137911737D01*
X164546211Y-138064476D01*
X164486631Y-138234745D01*
X164486630Y-138234750D01*
X164466435Y-138413996D01*
X163791565Y-138413996D01*
X163771368Y-138234745D01*
X163711789Y-138064478D01*
X163615816Y-137911738D01*
X163488262Y-137784184D01*
X163335523Y-137688211D01*
X163165254Y-137628631D01*
X163165249Y-137628630D01*
X162986004Y-137608435D01*
X162985996Y-137608435D01*
X162806750Y-137628630D01*
X162806745Y-137628631D01*
X162636476Y-137688211D01*
X162483737Y-137784184D01*
X162356184Y-137911737D01*
X162260211Y-138064476D01*
X162200631Y-138234745D01*
X162200630Y-138234750D01*
X162180435Y-138413996D01*
X100200500Y-138413996D01*
X100200500Y-135619996D01*
X159894435Y-135619996D01*
X159894435Y-135620003D01*
X159914630Y-135799249D01*
X159914631Y-135799254D01*
X159974211Y-135969523D01*
X160070184Y-136122262D01*
X160197738Y-136249816D01*
X160350478Y-136345789D01*
X160520745Y-136405368D01*
X160520750Y-136405369D01*
X160699996Y-136425565D01*
X160700000Y-136425565D01*
X160700004Y-136425565D01*
X160879249Y-136405369D01*
X160879252Y-136405368D01*
X160879255Y-136405368D01*
X161049522Y-136345789D01*
X161202262Y-136249816D01*
X161329816Y-136122262D01*
X161425789Y-135969522D01*
X161485368Y-135799255D01*
X161505565Y-135620000D01*
X161505565Y-135619996D01*
X162942435Y-135619996D01*
X162942435Y-135620003D01*
X162962630Y-135799249D01*
X162962631Y-135799254D01*
X163022211Y-135969523D01*
X163118184Y-136122262D01*
X163245738Y-136249816D01*
X163398478Y-136345789D01*
X163568745Y-136405368D01*
X163568750Y-136405369D01*
X163747996Y-136425565D01*
X163748000Y-136425565D01*
X163748004Y-136425565D01*
X163927249Y-136405369D01*
X163927252Y-136405368D01*
X163927255Y-136405368D01*
X164097522Y-136345789D01*
X164250262Y-136249816D01*
X164377816Y-136122262D01*
X164473789Y-135969522D01*
X164533368Y-135799255D01*
X164553565Y-135620000D01*
X164533368Y-135440745D01*
X164473789Y-135270478D01*
X164377816Y-135117738D01*
X164250262Y-134990184D01*
X164097523Y-134894211D01*
X163927254Y-134834631D01*
X163927249Y-134834630D01*
X163748004Y-134814435D01*
X163747996Y-134814435D01*
X163568750Y-134834630D01*
X163568745Y-134834631D01*
X163398476Y-134894211D01*
X163245737Y-134990184D01*
X163118184Y-135117737D01*
X163022211Y-135270476D01*
X162962631Y-135440745D01*
X162962630Y-135440750D01*
X162942435Y-135619996D01*
X161505565Y-135619996D01*
X161485368Y-135440745D01*
X161425789Y-135270478D01*
X161329816Y-135117738D01*
X161202262Y-134990184D01*
X161049523Y-134894211D01*
X160879254Y-134834631D01*
X160879249Y-134834630D01*
X160700004Y-134814435D01*
X160699996Y-134814435D01*
X160520750Y-134834630D01*
X160520745Y-134834631D01*
X160350476Y-134894211D01*
X160197737Y-134990184D01*
X160070184Y-135117737D01*
X159974211Y-135270476D01*
X159914631Y-135440745D01*
X159914630Y-135440750D01*
X159894435Y-135619996D01*
X100200500Y-135619996D01*
X100200500Y-133587996D01*
X164085435Y-133587996D01*
X164085435Y-133588003D01*
X164105630Y-133767249D01*
X164105631Y-133767254D01*
X164165211Y-133937523D01*
X164261184Y-134090262D01*
X164388738Y-134217816D01*
X164541478Y-134313789D01*
X164711745Y-134373368D01*
X164711750Y-134373369D01*
X164890996Y-134393565D01*
X164891000Y-134393565D01*
X164891004Y-134393565D01*
X165070249Y-134373369D01*
X165070252Y-134373368D01*
X165070255Y-134373368D01*
X165240522Y-134313789D01*
X165393262Y-134217816D01*
X165520816Y-134090262D01*
X165616789Y-133937522D01*
X165676368Y-133767255D01*
X165696565Y-133588000D01*
X165676368Y-133408745D01*
X165616789Y-133238478D01*
X165520816Y-133085738D01*
X165393262Y-132958184D01*
X165240523Y-132862211D01*
X165070254Y-132802631D01*
X165070249Y-132802630D01*
X164891004Y-132782435D01*
X164890996Y-132782435D01*
X164711750Y-132802630D01*
X164711745Y-132802631D01*
X164541476Y-132862211D01*
X164388737Y-132958184D01*
X164261184Y-133085737D01*
X164165211Y-133238476D01*
X164105631Y-133408745D01*
X164105630Y-133408750D01*
X164085435Y-133587996D01*
X100200500Y-133587996D01*
X100200500Y-130029000D01*
X100220185Y-129961961D01*
X100272989Y-129916206D01*
X100324500Y-129905000D01*
X127045000Y-129905000D01*
X127045000Y-127953940D01*
X133162162Y-127953940D01*
X133162162Y-127953947D01*
X133181504Y-128384636D01*
X133181505Y-128384645D01*
X133239378Y-128811882D01*
X133335313Y-129232202D01*
X133468542Y-129642240D01*
X133468545Y-129642248D01*
X133637985Y-130038674D01*
X133637989Y-130038682D01*
X133842294Y-130418343D01*
X134079799Y-130778151D01*
X134079800Y-130778152D01*
X134348608Y-131115226D01*
X134399223Y-131168165D01*
X136280097Y-129287291D01*
X136347076Y-129374579D01*
X136546365Y-129573868D01*
X136633651Y-129640845D01*
X134753877Y-131520619D01*
X134971227Y-131710513D01*
X134971244Y-131710526D01*
X135320024Y-131963930D01*
X135690140Y-132185064D01*
X135690146Y-132185067D01*
X136078569Y-132372122D01*
X136078583Y-132372128D01*
X136482209Y-132523611D01*
X136482234Y-132523619D01*
X136897816Y-132638313D01*
X137322023Y-132715295D01*
X137751435Y-132753943D01*
X137751438Y-132753944D01*
X138182562Y-132753944D01*
X138182564Y-132753943D01*
X138611976Y-132715295D01*
X139036183Y-132638313D01*
X139451765Y-132523619D01*
X139451790Y-132523611D01*
X139855416Y-132372128D01*
X139855430Y-132372122D01*
X140243853Y-132185067D01*
X140243859Y-132185064D01*
X140613975Y-131963930D01*
X140962755Y-131710526D01*
X140962772Y-131710513D01*
X141139629Y-131555996D01*
X147448435Y-131555996D01*
X147448435Y-131556003D01*
X147468630Y-131735249D01*
X147468631Y-131735254D01*
X147528211Y-131905523D01*
X147624184Y-132058262D01*
X147751738Y-132185816D01*
X147904478Y-132281789D01*
X148074745Y-132341368D01*
X148074750Y-132341369D01*
X148253996Y-132361565D01*
X148254000Y-132361565D01*
X148254004Y-132361565D01*
X148433249Y-132341369D01*
X148433252Y-132341368D01*
X148433255Y-132341368D01*
X148603522Y-132281789D01*
X148756262Y-132185816D01*
X148883816Y-132058262D01*
X148979789Y-131905522D01*
X149039368Y-131735255D01*
X149039369Y-131735249D01*
X149059565Y-131556003D01*
X149059565Y-131555996D01*
X149039369Y-131376750D01*
X149039368Y-131376745D01*
X149031496Y-131354249D01*
X148979789Y-131206478D01*
X148960008Y-131174996D01*
X161037435Y-131174996D01*
X161037435Y-131175003D01*
X161057630Y-131354249D01*
X161057631Y-131354254D01*
X161117211Y-131524523D01*
X161179788Y-131624113D01*
X161213184Y-131677262D01*
X161340738Y-131804816D01*
X161493478Y-131900789D01*
X161663745Y-131960368D01*
X161663750Y-131960369D01*
X161842996Y-131980565D01*
X161843000Y-131980565D01*
X161843004Y-131980565D01*
X162022249Y-131960369D01*
X162022252Y-131960368D01*
X162022255Y-131960368D01*
X162192522Y-131900789D01*
X162345262Y-131804816D01*
X162472816Y-131677262D01*
X162568789Y-131524522D01*
X162628368Y-131354255D01*
X162628369Y-131354249D01*
X162648565Y-131175003D01*
X162648565Y-131174996D01*
X166117435Y-131174996D01*
X166117435Y-131175003D01*
X166137630Y-131354249D01*
X166137631Y-131354254D01*
X166197211Y-131524523D01*
X166259788Y-131624113D01*
X166293184Y-131677262D01*
X166420738Y-131804816D01*
X166573478Y-131900789D01*
X166743745Y-131960368D01*
X166743750Y-131960369D01*
X166922996Y-131980565D01*
X166923000Y-131980565D01*
X166923004Y-131980565D01*
X167102249Y-131960369D01*
X167102252Y-131960368D01*
X167102255Y-131960368D01*
X167272522Y-131900789D01*
X167425262Y-131804816D01*
X167552816Y-131677262D01*
X167648789Y-131524522D01*
X167708368Y-131354255D01*
X167708369Y-131354249D01*
X167728565Y-131175003D01*
X167728565Y-131174996D01*
X167708369Y-130995750D01*
X167708368Y-130995745D01*
X167648789Y-130825478D01*
X167619051Y-130778151D01*
X167563894Y-130690369D01*
X167552816Y-130672738D01*
X167425262Y-130545184D01*
X167272523Y-130449211D01*
X167102254Y-130389631D01*
X167102249Y-130389630D01*
X166923004Y-130369435D01*
X166922996Y-130369435D01*
X166743750Y-130389630D01*
X166743745Y-130389631D01*
X166573476Y-130449211D01*
X166420737Y-130545184D01*
X166293184Y-130672737D01*
X166197211Y-130825476D01*
X166137631Y-130995745D01*
X166137630Y-130995750D01*
X166117435Y-131174996D01*
X162648565Y-131174996D01*
X162628369Y-130995750D01*
X162628368Y-130995745D01*
X162568789Y-130825478D01*
X162539051Y-130778151D01*
X162483894Y-130690369D01*
X162472816Y-130672738D01*
X162345262Y-130545184D01*
X162192523Y-130449211D01*
X162022254Y-130389631D01*
X162022249Y-130389630D01*
X161843004Y-130369435D01*
X161842996Y-130369435D01*
X161663750Y-130389630D01*
X161663745Y-130389631D01*
X161493476Y-130449211D01*
X161340737Y-130545184D01*
X161213184Y-130672737D01*
X161117211Y-130825476D01*
X161057631Y-130995745D01*
X161057630Y-130995750D01*
X161037435Y-131174996D01*
X148960008Y-131174996D01*
X148883816Y-131053738D01*
X148756262Y-130926184D01*
X148603523Y-130830211D01*
X148433254Y-130770631D01*
X148433249Y-130770630D01*
X148254004Y-130750435D01*
X148253996Y-130750435D01*
X148074750Y-130770630D01*
X148074745Y-130770631D01*
X147904476Y-130830211D01*
X147751737Y-130926184D01*
X147624184Y-131053737D01*
X147528211Y-131206476D01*
X147468631Y-131376745D01*
X147468630Y-131376750D01*
X147448435Y-131555996D01*
X141139629Y-131555996D01*
X141180121Y-131520619D01*
X139300348Y-129640845D01*
X139387635Y-129573868D01*
X139586924Y-129374579D01*
X139653901Y-129287292D01*
X141534775Y-131168166D01*
X141534776Y-131168166D01*
X141585386Y-131115233D01*
X141585386Y-131115232D01*
X141854199Y-130778152D01*
X141854200Y-130778151D01*
X142091705Y-130418343D01*
X142296010Y-130038682D01*
X142296014Y-130038674D01*
X142353151Y-129904996D01*
X157608435Y-129904996D01*
X157608435Y-129905000D01*
X157628630Y-130084249D01*
X157628631Y-130084254D01*
X157688211Y-130254523D01*
X157760416Y-130369435D01*
X157784184Y-130407262D01*
X157911738Y-130534816D01*
X158064478Y-130630789D01*
X158234745Y-130690368D01*
X158234750Y-130690369D01*
X158413996Y-130710565D01*
X158414000Y-130710565D01*
X158414004Y-130710565D01*
X158593249Y-130690369D01*
X158593252Y-130690368D01*
X158593255Y-130690368D01*
X158763522Y-130630789D01*
X158916262Y-130534816D01*
X159043816Y-130407262D01*
X159139789Y-130254522D01*
X159199368Y-130084255D01*
X159201295Y-130067157D01*
X159219565Y-129905000D01*
X159219565Y-129904996D01*
X159199369Y-129725750D01*
X159199368Y-129725745D01*
X159139788Y-129555476D01*
X159043815Y-129402737D01*
X158916262Y-129275184D01*
X158763523Y-129179211D01*
X158593254Y-129119631D01*
X158593249Y-129119630D01*
X158414004Y-129099435D01*
X158413996Y-129099435D01*
X158234750Y-129119630D01*
X158234745Y-129119631D01*
X158064476Y-129179211D01*
X157911737Y-129275184D01*
X157784184Y-129402737D01*
X157688211Y-129555476D01*
X157628631Y-129725745D01*
X157628630Y-129725750D01*
X157608435Y-129904996D01*
X142353151Y-129904996D01*
X142465454Y-129642248D01*
X142465457Y-129642240D01*
X142598686Y-129232202D01*
X142694621Y-128811882D01*
X142752494Y-128384645D01*
X142752495Y-128384636D01*
X142769770Y-127999999D01*
X185315922Y-127999999D01*
X185315922Y-128000000D01*
X185336219Y-128387287D01*
X185396886Y-128770323D01*
X185396887Y-128770330D01*
X185497262Y-129144936D01*
X185636244Y-129506994D01*
X185812310Y-129852543D01*
X186023531Y-130177793D01*
X186232095Y-130435350D01*
X186232096Y-130435350D01*
X187726748Y-128940698D01*
X187800588Y-129042330D01*
X187978670Y-129220412D01*
X188080300Y-129294251D01*
X186585648Y-130788903D01*
X186585649Y-130788904D01*
X186843206Y-130997468D01*
X187168456Y-131208689D01*
X187514005Y-131384755D01*
X187876063Y-131523737D01*
X188250669Y-131624112D01*
X188250676Y-131624113D01*
X188633712Y-131684780D01*
X189020999Y-131705078D01*
X189021001Y-131705078D01*
X189408287Y-131684780D01*
X189791323Y-131624113D01*
X189791330Y-131624112D01*
X190165936Y-131523737D01*
X190527994Y-131384755D01*
X190873543Y-131208689D01*
X191198783Y-130997476D01*
X191198785Y-130997475D01*
X191456349Y-130788902D01*
X189961698Y-129294251D01*
X190063330Y-129220412D01*
X190241412Y-129042330D01*
X190315251Y-128940698D01*
X191809902Y-130435349D01*
X192018475Y-130177785D01*
X192018476Y-130177783D01*
X192229689Y-129852543D01*
X192405755Y-129506994D01*
X192544737Y-129144936D01*
X192645112Y-128770330D01*
X192645113Y-128770323D01*
X192705780Y-128387287D01*
X192726078Y-128000000D01*
X192726078Y-127999999D01*
X192705780Y-127612712D01*
X192645113Y-127229676D01*
X192645112Y-127229669D01*
X192544737Y-126855063D01*
X192405755Y-126493005D01*
X192229689Y-126147456D01*
X192018468Y-125822206D01*
X191809904Y-125564649D01*
X191809903Y-125564648D01*
X190315251Y-127059300D01*
X190241412Y-126957670D01*
X190063330Y-126779588D01*
X189961698Y-126705748D01*
X191456350Y-125211096D01*
X191456350Y-125211095D01*
X191198793Y-125002531D01*
X190873543Y-124791310D01*
X190527994Y-124615244D01*
X190165936Y-124476262D01*
X189791330Y-124375887D01*
X189791323Y-124375886D01*
X189408287Y-124315219D01*
X189021001Y-124294922D01*
X189020999Y-124294922D01*
X188633712Y-124315219D01*
X188250676Y-124375886D01*
X188250669Y-124375887D01*
X187876063Y-124476262D01*
X187514005Y-124615244D01*
X187168456Y-124791310D01*
X186843206Y-125002531D01*
X186585648Y-125211095D01*
X186585648Y-125211096D01*
X188080301Y-126705748D01*
X187978670Y-126779588D01*
X187800588Y-126957670D01*
X187726748Y-127059300D01*
X186232096Y-125564648D01*
X186232095Y-125564648D01*
X186023531Y-125822206D01*
X185812310Y-126147456D01*
X185636244Y-126493005D01*
X185497262Y-126855063D01*
X185396887Y-127229669D01*
X185396886Y-127229676D01*
X185336219Y-127612712D01*
X185315922Y-127999999D01*
X142769770Y-127999999D01*
X142771838Y-127953947D01*
X142771838Y-127953940D01*
X142752495Y-127523251D01*
X142752494Y-127523242D01*
X142694621Y-127096005D01*
X142598686Y-126675685D01*
X142465457Y-126265647D01*
X142465454Y-126265639D01*
X142446800Y-126221996D01*
X162180435Y-126221996D01*
X162180435Y-126222003D01*
X162200630Y-126401249D01*
X162200631Y-126401254D01*
X162260211Y-126571523D01*
X162312820Y-126655249D01*
X162356184Y-126724262D01*
X162483738Y-126851816D01*
X162636478Y-126947789D01*
X162723565Y-126978262D01*
X162806745Y-127007368D01*
X162806750Y-127007369D01*
X162985996Y-127027565D01*
X162986000Y-127027565D01*
X162986004Y-127027565D01*
X163165249Y-127007369D01*
X163165252Y-127007368D01*
X163165255Y-127007368D01*
X163335522Y-126947789D01*
X163488262Y-126851816D01*
X163615816Y-126724262D01*
X163711789Y-126571522D01*
X163745215Y-126475996D01*
X164466435Y-126475996D01*
X164466435Y-126476003D01*
X164486630Y-126655249D01*
X164486631Y-126655254D01*
X164546211Y-126825523D01*
X164629245Y-126957670D01*
X164642184Y-126978262D01*
X164769738Y-127105816D01*
X164922478Y-127201789D01*
X165092739Y-127261366D01*
X165092745Y-127261368D01*
X165092750Y-127261369D01*
X165271996Y-127281565D01*
X165272000Y-127281565D01*
X165272004Y-127281565D01*
X165451249Y-127261369D01*
X165451252Y-127261368D01*
X165451255Y-127261368D01*
X165621522Y-127201789D01*
X165774262Y-127105816D01*
X165901816Y-126978262D01*
X165997789Y-126825522D01*
X166057368Y-126655255D01*
X166060038Y-126631557D01*
X166077565Y-126476003D01*
X166077565Y-126475996D01*
X166057369Y-126296750D01*
X166057368Y-126296745D01*
X166046486Y-126265647D01*
X165997789Y-126126478D01*
X165901816Y-125973738D01*
X165774262Y-125846184D01*
X165765584Y-125840731D01*
X165621523Y-125750211D01*
X165451254Y-125690631D01*
X165451249Y-125690630D01*
X165272004Y-125670435D01*
X165271996Y-125670435D01*
X165092750Y-125690630D01*
X165092745Y-125690631D01*
X164922476Y-125750211D01*
X164769737Y-125846184D01*
X164642184Y-125973737D01*
X164546211Y-126126476D01*
X164486631Y-126296745D01*
X164486630Y-126296750D01*
X164466435Y-126475996D01*
X163745215Y-126475996D01*
X163771368Y-126401255D01*
X163771369Y-126401249D01*
X163791565Y-126222003D01*
X163791565Y-126221996D01*
X163771369Y-126042750D01*
X163771368Y-126042745D01*
X163711788Y-125872476D01*
X163615815Y-125719737D01*
X163488262Y-125592184D01*
X163335523Y-125496211D01*
X163165254Y-125436631D01*
X163165249Y-125436630D01*
X162986004Y-125416435D01*
X162985996Y-125416435D01*
X162806750Y-125436630D01*
X162806745Y-125436631D01*
X162636476Y-125496211D01*
X162483737Y-125592184D01*
X162356184Y-125719737D01*
X162260211Y-125872476D01*
X162200631Y-126042745D01*
X162200630Y-126042750D01*
X162180435Y-126221996D01*
X142446800Y-126221996D01*
X142296014Y-125869213D01*
X142296010Y-125869205D01*
X142091705Y-125489544D01*
X141854200Y-125129736D01*
X141854199Y-125129735D01*
X141585391Y-124792661D01*
X141534774Y-124739720D01*
X139653900Y-126620594D01*
X139586924Y-126533309D01*
X139387635Y-126334020D01*
X139300346Y-126267041D01*
X141180121Y-124387267D01*
X140962772Y-124197374D01*
X140962755Y-124197361D01*
X140613975Y-123943957D01*
X140243859Y-123722823D01*
X140243853Y-123722820D01*
X139855430Y-123535765D01*
X139855416Y-123535759D01*
X139451790Y-123384276D01*
X139451765Y-123384268D01*
X139036183Y-123269574D01*
X138611976Y-123192592D01*
X138182564Y-123153944D01*
X137751435Y-123153944D01*
X137322023Y-123192592D01*
X136897816Y-123269574D01*
X136482234Y-123384268D01*
X136482209Y-123384276D01*
X136078583Y-123535759D01*
X136078569Y-123535765D01*
X135690146Y-123722820D01*
X135690140Y-123722823D01*
X135320024Y-123943957D01*
X134971235Y-124197367D01*
X134753877Y-124387266D01*
X134753877Y-124387267D01*
X136633652Y-126267042D01*
X136546365Y-126334020D01*
X136347076Y-126533309D01*
X136280098Y-126620595D01*
X134399223Y-124739721D01*
X134348624Y-124792643D01*
X134348612Y-124792656D01*
X134079800Y-125129735D01*
X134079799Y-125129736D01*
X133842294Y-125489544D01*
X133637989Y-125869205D01*
X133637985Y-125869213D01*
X133468545Y-126265639D01*
X133468542Y-126265647D01*
X133335313Y-126675685D01*
X133239378Y-127096005D01*
X133181505Y-127523242D01*
X133181504Y-127523251D01*
X133162162Y-127953940D01*
X127045000Y-127953940D01*
X127045000Y-122157996D01*
X162180435Y-122157996D01*
X162180435Y-122158003D01*
X162200630Y-122337249D01*
X162200631Y-122337254D01*
X162260211Y-122507523D01*
X162356184Y-122660262D01*
X162483738Y-122787816D01*
X162636478Y-122883789D01*
X162806745Y-122943368D01*
X162806750Y-122943369D01*
X162985996Y-122963565D01*
X162986000Y-122963565D01*
X162986004Y-122963565D01*
X163165249Y-122943369D01*
X163165252Y-122943368D01*
X163165255Y-122943368D01*
X163335522Y-122883789D01*
X163488262Y-122787816D01*
X163615816Y-122660262D01*
X163711789Y-122507522D01*
X163771368Y-122337255D01*
X163791565Y-122158000D01*
X163791565Y-122157996D01*
X164466435Y-122157996D01*
X164466435Y-122158003D01*
X164486630Y-122337249D01*
X164486631Y-122337254D01*
X164546211Y-122507523D01*
X164642184Y-122660262D01*
X164769738Y-122787816D01*
X164922478Y-122883789D01*
X165092745Y-122943368D01*
X165092750Y-122943369D01*
X165271996Y-122963565D01*
X165272000Y-122963565D01*
X165272004Y-122963565D01*
X165451249Y-122943369D01*
X165451252Y-122943368D01*
X165451255Y-122943368D01*
X165621522Y-122883789D01*
X165774262Y-122787816D01*
X165901816Y-122660262D01*
X165997789Y-122507522D01*
X166057368Y-122337255D01*
X166077565Y-122158000D01*
X166057368Y-121978745D01*
X165997789Y-121808478D01*
X165901816Y-121655738D01*
X165774262Y-121528184D01*
X165621523Y-121432211D01*
X165451254Y-121372631D01*
X165451249Y-121372630D01*
X165272004Y-121352435D01*
X165271996Y-121352435D01*
X165092750Y-121372630D01*
X165092745Y-121372631D01*
X164922476Y-121432211D01*
X164769737Y-121528184D01*
X164642184Y-121655737D01*
X164546211Y-121808476D01*
X164486631Y-121978745D01*
X164486630Y-121978750D01*
X164466435Y-122157996D01*
X163791565Y-122157996D01*
X163771368Y-121978745D01*
X163711789Y-121808478D01*
X163615816Y-121655738D01*
X163488262Y-121528184D01*
X163335523Y-121432211D01*
X163165254Y-121372631D01*
X163165249Y-121372630D01*
X162986004Y-121352435D01*
X162985996Y-121352435D01*
X162806750Y-121372630D01*
X162806745Y-121372631D01*
X162636476Y-121432211D01*
X162483737Y-121528184D01*
X162356184Y-121655737D01*
X162260211Y-121808476D01*
X162200631Y-121978745D01*
X162200630Y-121978750D01*
X162180435Y-122157996D01*
X127045000Y-122157996D01*
X127045000Y-119998996D01*
X172848435Y-119998996D01*
X172848435Y-119999003D01*
X172868630Y-120178249D01*
X172868631Y-120178254D01*
X172928211Y-120348523D01*
X173024184Y-120501262D01*
X173151738Y-120628816D01*
X173304478Y-120724789D01*
X173474745Y-120784368D01*
X173474750Y-120784369D01*
X173653996Y-120804565D01*
X173654000Y-120804565D01*
X173654004Y-120804565D01*
X173833249Y-120784369D01*
X173833252Y-120784368D01*
X173833255Y-120784368D01*
X174003522Y-120724789D01*
X174156262Y-120628816D01*
X174283816Y-120501262D01*
X174379789Y-120348522D01*
X174439368Y-120178255D01*
X174459565Y-119999000D01*
X174450164Y-119915565D01*
X174439369Y-119819750D01*
X174439368Y-119819745D01*
X174379789Y-119649478D01*
X174283816Y-119496738D01*
X174156262Y-119369184D01*
X174063889Y-119311142D01*
X174003523Y-119273211D01*
X173833254Y-119213631D01*
X173833249Y-119213630D01*
X173654004Y-119193435D01*
X173653996Y-119193435D01*
X173474750Y-119213630D01*
X173474745Y-119213631D01*
X173304476Y-119273211D01*
X173151737Y-119369184D01*
X173024184Y-119496737D01*
X172928211Y-119649476D01*
X172868631Y-119819745D01*
X172868630Y-119819750D01*
X172848435Y-119998996D01*
X127045000Y-119998996D01*
X127045000Y-119109996D01*
X159767435Y-119109996D01*
X159767435Y-119110003D01*
X159787630Y-119289249D01*
X159787631Y-119289254D01*
X159847211Y-119459523D01*
X159870595Y-119496738D01*
X159943184Y-119612262D01*
X160070738Y-119739816D01*
X160223478Y-119835789D01*
X160393745Y-119895368D01*
X160393750Y-119895369D01*
X160572996Y-119915565D01*
X160573000Y-119915565D01*
X160573004Y-119915565D01*
X160752249Y-119895369D01*
X160752252Y-119895368D01*
X160752255Y-119895368D01*
X160922522Y-119835789D01*
X161075262Y-119739816D01*
X161202816Y-119612262D01*
X161298789Y-119459522D01*
X161358368Y-119289255D01*
X161366889Y-119213630D01*
X161378565Y-119110003D01*
X161378565Y-119109996D01*
X162942435Y-119109996D01*
X162942435Y-119110003D01*
X162962630Y-119289249D01*
X162962631Y-119289254D01*
X163022211Y-119459523D01*
X163045595Y-119496738D01*
X163118184Y-119612262D01*
X163245738Y-119739816D01*
X163398478Y-119835789D01*
X163568745Y-119895368D01*
X163568750Y-119895369D01*
X163747996Y-119915565D01*
X163748000Y-119915565D01*
X163748004Y-119915565D01*
X163927249Y-119895369D01*
X163927252Y-119895368D01*
X163927255Y-119895368D01*
X164097522Y-119835789D01*
X164250262Y-119739816D01*
X164377816Y-119612262D01*
X164473789Y-119459522D01*
X164533368Y-119289255D01*
X164541889Y-119213630D01*
X164553565Y-119110003D01*
X164553565Y-119109996D01*
X164533369Y-118930750D01*
X164533368Y-118930745D01*
X164473788Y-118760476D01*
X164377815Y-118607737D01*
X164250262Y-118480184D01*
X164097523Y-118384211D01*
X163927254Y-118324631D01*
X163927249Y-118324630D01*
X163748004Y-118304435D01*
X163747996Y-118304435D01*
X163568750Y-118324630D01*
X163568745Y-118324631D01*
X163398476Y-118384211D01*
X163245737Y-118480184D01*
X163118184Y-118607737D01*
X163022211Y-118760476D01*
X162962631Y-118930745D01*
X162962630Y-118930750D01*
X162942435Y-119109996D01*
X161378565Y-119109996D01*
X161358369Y-118930750D01*
X161358368Y-118930745D01*
X161298788Y-118760476D01*
X161202815Y-118607737D01*
X161075262Y-118480184D01*
X160922523Y-118384211D01*
X160752254Y-118324631D01*
X160752249Y-118324630D01*
X160573004Y-118304435D01*
X160572996Y-118304435D01*
X160393750Y-118324630D01*
X160393745Y-118324631D01*
X160223476Y-118384211D01*
X160070737Y-118480184D01*
X159943184Y-118607737D01*
X159847211Y-118760476D01*
X159787631Y-118930745D01*
X159787630Y-118930750D01*
X159767435Y-119109996D01*
X127045000Y-119109996D01*
X127045000Y-116442996D01*
X151512435Y-116442996D01*
X151512435Y-116443003D01*
X151532630Y-116622249D01*
X151532631Y-116622254D01*
X151592211Y-116792523D01*
X151688184Y-116945262D01*
X151815738Y-117072816D01*
X151968478Y-117168789D01*
X152138745Y-117228368D01*
X152138750Y-117228369D01*
X152317996Y-117248565D01*
X152318000Y-117248565D01*
X152318004Y-117248565D01*
X152497249Y-117228369D01*
X152497252Y-117228368D01*
X152497255Y-117228368D01*
X152667522Y-117168789D01*
X152812018Y-117077996D01*
X164085435Y-117077996D01*
X164085435Y-117078003D01*
X164105630Y-117257249D01*
X164105631Y-117257254D01*
X164165211Y-117427523D01*
X164261184Y-117580262D01*
X164388738Y-117707816D01*
X164541478Y-117803789D01*
X164711745Y-117863368D01*
X164711750Y-117863369D01*
X164890996Y-117883565D01*
X164891000Y-117883565D01*
X164891004Y-117883565D01*
X165070249Y-117863369D01*
X165070252Y-117863368D01*
X165070255Y-117863368D01*
X165240522Y-117803789D01*
X165393262Y-117707816D01*
X165520816Y-117580262D01*
X165616789Y-117427522D01*
X165676368Y-117257255D01*
X165696565Y-117078000D01*
X165681609Y-116945262D01*
X165676369Y-116898750D01*
X165676368Y-116898745D01*
X165616788Y-116728476D01*
X165577582Y-116666080D01*
X165520816Y-116575738D01*
X165393262Y-116448184D01*
X165240523Y-116352211D01*
X165070254Y-116292631D01*
X165070249Y-116292630D01*
X164891004Y-116272435D01*
X164890996Y-116272435D01*
X164711750Y-116292630D01*
X164711745Y-116292631D01*
X164541476Y-116352211D01*
X164388737Y-116448184D01*
X164261184Y-116575737D01*
X164165211Y-116728476D01*
X164105631Y-116898745D01*
X164105630Y-116898750D01*
X164085435Y-117077996D01*
X152812018Y-117077996D01*
X152820262Y-117072816D01*
X152947816Y-116945262D01*
X153043789Y-116792522D01*
X153103368Y-116622255D01*
X153108609Y-116575738D01*
X153123565Y-116443003D01*
X153123565Y-116442996D01*
X153103369Y-116263750D01*
X153103368Y-116263745D01*
X153071764Y-116173425D01*
X153043789Y-116093478D01*
X152947816Y-115940738D01*
X152820262Y-115813184D01*
X152779972Y-115787868D01*
X152667523Y-115717211D01*
X152497254Y-115657631D01*
X152497249Y-115657630D01*
X152318004Y-115637435D01*
X152317996Y-115637435D01*
X152138750Y-115657630D01*
X152138745Y-115657631D01*
X151968476Y-115717211D01*
X151815737Y-115813184D01*
X151688184Y-115940737D01*
X151592211Y-116093476D01*
X151532631Y-116263745D01*
X151532630Y-116263750D01*
X151512435Y-116442996D01*
X127045000Y-116442996D01*
X127045000Y-112810798D01*
X137817754Y-112810798D01*
X137817754Y-112810801D01*
X137837112Y-113081466D01*
X137894789Y-113346603D01*
X137989622Y-113600861D01*
X138119661Y-113839010D01*
X138119661Y-113839011D01*
X138213064Y-113963781D01*
X138752524Y-113424321D01*
X138847769Y-113555414D01*
X138974986Y-113682631D01*
X139106077Y-113777874D01*
X138566617Y-114317334D01*
X138566618Y-114317335D01*
X138691380Y-114410733D01*
X138929538Y-114540777D01*
X139183796Y-114635610D01*
X139448933Y-114693287D01*
X139719599Y-114712646D01*
X139719601Y-114712646D01*
X139990266Y-114693287D01*
X140255403Y-114635610D01*
X140312819Y-114614195D01*
X143227766Y-114614195D01*
X143227766Y-114614204D01*
X143247873Y-114882531D01*
X143247874Y-114882536D01*
X143307750Y-115144873D01*
X143307756Y-115144892D01*
X143406065Y-115395379D01*
X143406064Y-115395379D01*
X143540614Y-115628424D01*
X143593767Y-115695077D01*
X143593768Y-115695077D01*
X144135778Y-115153067D01*
X144219292Y-115278054D01*
X144364346Y-115423108D01*
X144489331Y-115506620D01*
X143946359Y-116049592D01*
X144127989Y-116173425D01*
X144127990Y-116173426D01*
X144370422Y-116290174D01*
X144370441Y-116290181D01*
X144627553Y-116369489D01*
X144627563Y-116369491D01*
X144893647Y-116409599D01*
X144893653Y-116409600D01*
X145162747Y-116409600D01*
X145162752Y-116409599D01*
X145428836Y-116369491D01*
X145428846Y-116369489D01*
X145685958Y-116290181D01*
X145685977Y-116290174D01*
X145928409Y-116173426D01*
X145928419Y-116173419D01*
X146110039Y-116049592D01*
X145567068Y-115506620D01*
X145692054Y-115423108D01*
X145837108Y-115278054D01*
X145920620Y-115153068D01*
X146462630Y-115695077D01*
X146462631Y-115695076D01*
X146515781Y-115628430D01*
X146515788Y-115628419D01*
X146650334Y-115395379D01*
X146748643Y-115144892D01*
X146748649Y-115144873D01*
X146808525Y-114882536D01*
X146808526Y-114882531D01*
X146824828Y-114664996D01*
X166117435Y-114664996D01*
X166117435Y-114665003D01*
X166137630Y-114844249D01*
X166137631Y-114844254D01*
X166197211Y-115014523D01*
X166255625Y-115107488D01*
X166293184Y-115167262D01*
X166420738Y-115294816D01*
X166573478Y-115390789D01*
X166706999Y-115437510D01*
X166743745Y-115450368D01*
X166743750Y-115450369D01*
X166922996Y-115470565D01*
X166923000Y-115470565D01*
X166923004Y-115470565D01*
X167102249Y-115450369D01*
X167102252Y-115450368D01*
X167102255Y-115450368D01*
X167272522Y-115390789D01*
X167425262Y-115294816D01*
X167552816Y-115167262D01*
X167648789Y-115014522D01*
X167708368Y-114844255D01*
X167708369Y-114844249D01*
X167728565Y-114665003D01*
X167728565Y-114664996D01*
X167708369Y-114485750D01*
X167708368Y-114485745D01*
X167659421Y-114345863D01*
X167648789Y-114315478D01*
X167645620Y-114310435D01*
X167563894Y-114180369D01*
X167552816Y-114162738D01*
X167425262Y-114035184D01*
X167272523Y-113939211D01*
X167102254Y-113879631D01*
X167102249Y-113879630D01*
X166923004Y-113859435D01*
X166922996Y-113859435D01*
X166743750Y-113879630D01*
X166743745Y-113879631D01*
X166573476Y-113939211D01*
X166420737Y-114035184D01*
X166293184Y-114162737D01*
X166197211Y-114315476D01*
X166137631Y-114485745D01*
X166137630Y-114485750D01*
X166117435Y-114664996D01*
X146824828Y-114664996D01*
X146828634Y-114614204D01*
X146828634Y-114614195D01*
X146808526Y-114345868D01*
X146808525Y-114345863D01*
X146748649Y-114083526D01*
X146748643Y-114083507D01*
X146650334Y-113833020D01*
X146650335Y-113833020D01*
X146515785Y-113599975D01*
X146462631Y-113533321D01*
X145920620Y-114075331D01*
X145837108Y-113950346D01*
X145692054Y-113805292D01*
X145567067Y-113721778D01*
X145893849Y-113394996D01*
X160656435Y-113394996D01*
X160656435Y-113395003D01*
X160676630Y-113574249D01*
X160676631Y-113574254D01*
X160736211Y-113744523D01*
X160791818Y-113833020D01*
X160832184Y-113897262D01*
X160959738Y-114024816D01*
X161112478Y-114120789D01*
X161266498Y-114174683D01*
X161282745Y-114180368D01*
X161282750Y-114180369D01*
X161461996Y-114200565D01*
X161462000Y-114200565D01*
X161462004Y-114200565D01*
X161641249Y-114180369D01*
X161641252Y-114180368D01*
X161641255Y-114180368D01*
X161811522Y-114120789D01*
X161964262Y-114024816D01*
X162091816Y-113897262D01*
X162187789Y-113744522D01*
X162247368Y-113574255D01*
X162251980Y-113533321D01*
X162267565Y-113395003D01*
X162267565Y-113394996D01*
X162247369Y-113215750D01*
X162247368Y-113215745D01*
X162187788Y-113045476D01*
X162091815Y-112892737D01*
X162009876Y-112810798D01*
X173314254Y-112810798D01*
X173314254Y-112810801D01*
X173333612Y-113081466D01*
X173391289Y-113346603D01*
X173486122Y-113600861D01*
X173616161Y-113839010D01*
X173616161Y-113839011D01*
X173709564Y-113963781D01*
X174249024Y-113424321D01*
X174344269Y-113555414D01*
X174471486Y-113682631D01*
X174602577Y-113777874D01*
X174063117Y-114317334D01*
X174063118Y-114317335D01*
X174187880Y-114410733D01*
X174426038Y-114540777D01*
X174680296Y-114635610D01*
X174945433Y-114693287D01*
X175216099Y-114712646D01*
X175216101Y-114712646D01*
X175486766Y-114693287D01*
X175751903Y-114635610D01*
X175809319Y-114614195D01*
X178724266Y-114614195D01*
X178724266Y-114614204D01*
X178744373Y-114882531D01*
X178744374Y-114882536D01*
X178804250Y-115144873D01*
X178804256Y-115144892D01*
X178902565Y-115395379D01*
X178902564Y-115395379D01*
X179037114Y-115628424D01*
X179090267Y-115695077D01*
X179090268Y-115695077D01*
X179632278Y-115153067D01*
X179715792Y-115278054D01*
X179860846Y-115423108D01*
X179985831Y-115506620D01*
X179442859Y-116049592D01*
X179624489Y-116173425D01*
X179624490Y-116173426D01*
X179866922Y-116290174D01*
X179866941Y-116290181D01*
X180124053Y-116369489D01*
X180124063Y-116369491D01*
X180390147Y-116409599D01*
X180390153Y-116409600D01*
X180659247Y-116409600D01*
X180659252Y-116409599D01*
X180925336Y-116369491D01*
X180925346Y-116369489D01*
X181182458Y-116290181D01*
X181182477Y-116290174D01*
X181424909Y-116173426D01*
X181424919Y-116173419D01*
X181606539Y-116049592D01*
X181063568Y-115506620D01*
X181188554Y-115423108D01*
X181333608Y-115278054D01*
X181417121Y-115153068D01*
X181959130Y-115695077D01*
X181959131Y-115695076D01*
X182012281Y-115628430D01*
X182012288Y-115628419D01*
X182146834Y-115395379D01*
X182245143Y-115144892D01*
X182245149Y-115144873D01*
X182305025Y-114882536D01*
X182305026Y-114882531D01*
X182325134Y-114614204D01*
X182325134Y-114614195D01*
X182305026Y-114345868D01*
X182305025Y-114345863D01*
X182245149Y-114083526D01*
X182245143Y-114083507D01*
X182146834Y-113833020D01*
X182146835Y-113833020D01*
X182012285Y-113599975D01*
X181959131Y-113533321D01*
X181417120Y-114075331D01*
X181333608Y-113950346D01*
X181188554Y-113805292D01*
X181063567Y-113721778D01*
X181606539Y-113178806D01*
X181424910Y-113054974D01*
X181424909Y-113054973D01*
X181182477Y-112938225D01*
X181182458Y-112938218D01*
X180925346Y-112858910D01*
X180925336Y-112858907D01*
X180741180Y-112831149D01*
X180677823Y-112801692D01*
X180640450Y-112742658D01*
X180640926Y-112672790D01*
X180679099Y-112614270D01*
X180740259Y-112586062D01*
X180827221Y-112572289D01*
X181020618Y-112509451D01*
X181201803Y-112417132D01*
X181366316Y-112297606D01*
X181510106Y-112153816D01*
X181629632Y-111989303D01*
X181721951Y-111808118D01*
X181784789Y-111614721D01*
X181816600Y-111413875D01*
X181816600Y-111210525D01*
X181784789Y-111009679D01*
X181722766Y-110818789D01*
X181721952Y-110816284D01*
X181654713Y-110684321D01*
X181629632Y-110635097D01*
X181510106Y-110470584D01*
X181366316Y-110326794D01*
X181201803Y-110207268D01*
X181020615Y-110114947D01*
X180827222Y-110052111D01*
X180726798Y-110036205D01*
X180626375Y-110020300D01*
X180423025Y-110020300D01*
X180356076Y-110030903D01*
X180222177Y-110052111D01*
X180028784Y-110114947D01*
X179847596Y-110207268D01*
X179758159Y-110272249D01*
X179683084Y-110326794D01*
X179683082Y-110326796D01*
X179683081Y-110326796D01*
X179539296Y-110470581D01*
X179539296Y-110470582D01*
X179539294Y-110470584D01*
X179487962Y-110541235D01*
X179419768Y-110635096D01*
X179327447Y-110816284D01*
X179264611Y-111009677D01*
X179232800Y-111210525D01*
X179232800Y-111413874D01*
X179264611Y-111614722D01*
X179327447Y-111808115D01*
X179394121Y-111938969D01*
X179419768Y-111989303D01*
X179539294Y-112153816D01*
X179683084Y-112297606D01*
X179847597Y-112417132D01*
X179926325Y-112457246D01*
X180028784Y-112509452D01*
X180222178Y-112572289D01*
X180248223Y-112576414D01*
X180309135Y-112586061D01*
X180372269Y-112615990D01*
X180409201Y-112675301D01*
X180408203Y-112745163D01*
X180369594Y-112803396D01*
X180308220Y-112831149D01*
X180124061Y-112858908D01*
X180124053Y-112858910D01*
X179866941Y-112938218D01*
X179866922Y-112938225D01*
X179624490Y-113054973D01*
X179624482Y-113054978D01*
X179442859Y-113178806D01*
X179985832Y-113721778D01*
X179860846Y-113805292D01*
X179715792Y-113950346D01*
X179632278Y-114075332D01*
X179090268Y-113533322D01*
X179037112Y-113599978D01*
X178902565Y-113833020D01*
X178804256Y-114083507D01*
X178804250Y-114083526D01*
X178744374Y-114345863D01*
X178744373Y-114345868D01*
X178724266Y-114614195D01*
X175809319Y-114614195D01*
X176006161Y-114540777D01*
X176244319Y-114410733D01*
X176369081Y-114317335D01*
X176369081Y-114317334D01*
X175829622Y-113777874D01*
X175960714Y-113682631D01*
X176087931Y-113555414D01*
X176183175Y-113424322D01*
X176722634Y-113963781D01*
X176722635Y-113963781D01*
X176816033Y-113839019D01*
X176946077Y-113600861D01*
X177040910Y-113346603D01*
X177098587Y-113081466D01*
X177117946Y-112810801D01*
X177117946Y-112810798D01*
X177098587Y-112540133D01*
X177040910Y-112274996D01*
X176946077Y-112020738D01*
X176816033Y-111782580D01*
X176722635Y-111657818D01*
X176722634Y-111657817D01*
X176183174Y-112197277D01*
X176087931Y-112066186D01*
X175960714Y-111938969D01*
X175829621Y-111843724D01*
X176369081Y-111304264D01*
X176244311Y-111210861D01*
X176006161Y-111080822D01*
X175751903Y-110985989D01*
X175486766Y-110928312D01*
X175216101Y-110908954D01*
X175216099Y-110908954D01*
X174945433Y-110928312D01*
X174680296Y-110985989D01*
X174426038Y-111080822D01*
X174187889Y-111210861D01*
X174187881Y-111210866D01*
X174063118Y-111304263D01*
X174063117Y-111304264D01*
X174602578Y-111843724D01*
X174471486Y-111938969D01*
X174344269Y-112066186D01*
X174249024Y-112197277D01*
X173709564Y-111657817D01*
X173709563Y-111657818D01*
X173616166Y-111782581D01*
X173616161Y-111782589D01*
X173486122Y-112020738D01*
X173391289Y-112274996D01*
X173333612Y-112540133D01*
X173314254Y-112810798D01*
X162009876Y-112810798D01*
X161964262Y-112765184D01*
X161811523Y-112669211D01*
X161641254Y-112609631D01*
X161641249Y-112609630D01*
X161462004Y-112589435D01*
X161461996Y-112589435D01*
X161282750Y-112609630D01*
X161282745Y-112609631D01*
X161112476Y-112669211D01*
X160959737Y-112765184D01*
X160832184Y-112892737D01*
X160736211Y-113045476D01*
X160676631Y-113215745D01*
X160676630Y-113215750D01*
X160656435Y-113394996D01*
X145893849Y-113394996D01*
X146110039Y-113178806D01*
X145928410Y-113054974D01*
X145928409Y-113054973D01*
X145685977Y-112938225D01*
X145685958Y-112938218D01*
X145428846Y-112858910D01*
X145428836Y-112858907D01*
X145244680Y-112831149D01*
X145181323Y-112801692D01*
X145143950Y-112742658D01*
X145144426Y-112672790D01*
X145182599Y-112614270D01*
X145243759Y-112586062D01*
X145330721Y-112572289D01*
X145524118Y-112509451D01*
X145705303Y-112417132D01*
X145869816Y-112297606D01*
X146013606Y-112153816D01*
X146133132Y-111989303D01*
X146225451Y-111808118D01*
X146288289Y-111614721D01*
X146320100Y-111413875D01*
X146320100Y-111210525D01*
X146288289Y-111009679D01*
X146226266Y-110818789D01*
X146225452Y-110816284D01*
X146158213Y-110684321D01*
X146133132Y-110635097D01*
X146013606Y-110470584D01*
X145869816Y-110326794D01*
X145705303Y-110207268D01*
X145524115Y-110114947D01*
X145456555Y-110092996D01*
X164339435Y-110092996D01*
X164339435Y-110093003D01*
X164359630Y-110272249D01*
X164359631Y-110272254D01*
X164419211Y-110442523D01*
X164465323Y-110515909D01*
X164515184Y-110595262D01*
X164642738Y-110722816D01*
X164699787Y-110758662D01*
X164759497Y-110796181D01*
X164795478Y-110818789D01*
X164965745Y-110878368D01*
X164965750Y-110878369D01*
X165144996Y-110898565D01*
X165145000Y-110898565D01*
X165145004Y-110898565D01*
X165324249Y-110878369D01*
X165324252Y-110878368D01*
X165324255Y-110878368D01*
X165494522Y-110818789D01*
X165647262Y-110722816D01*
X165774816Y-110595262D01*
X165870789Y-110442522D01*
X165930368Y-110272255D01*
X165930369Y-110272249D01*
X165950565Y-110093003D01*
X165950565Y-110092996D01*
X165930369Y-109913750D01*
X165930368Y-109913745D01*
X165885889Y-109786632D01*
X165870789Y-109743478D01*
X165774816Y-109590738D01*
X165647262Y-109463184D01*
X165494523Y-109367211D01*
X165324254Y-109307631D01*
X165324249Y-109307630D01*
X165145004Y-109287435D01*
X165144996Y-109287435D01*
X164965750Y-109307630D01*
X164965745Y-109307631D01*
X164795476Y-109367211D01*
X164642737Y-109463184D01*
X164515184Y-109590737D01*
X164419211Y-109743476D01*
X164359631Y-109913745D01*
X164359630Y-109913750D01*
X164339435Y-110092996D01*
X145456555Y-110092996D01*
X145330722Y-110052111D01*
X145230298Y-110036205D01*
X145129875Y-110020300D01*
X144926525Y-110020300D01*
X144859576Y-110030903D01*
X144725677Y-110052111D01*
X144532284Y-110114947D01*
X144351096Y-110207268D01*
X144261659Y-110272249D01*
X144186584Y-110326794D01*
X144186582Y-110326796D01*
X144186581Y-110326796D01*
X144042796Y-110470581D01*
X144042796Y-110470582D01*
X144042794Y-110470584D01*
X143991462Y-110541235D01*
X143923268Y-110635096D01*
X143830947Y-110816284D01*
X143768111Y-111009677D01*
X143736300Y-111210525D01*
X143736300Y-111413874D01*
X143768111Y-111614722D01*
X143830947Y-111808115D01*
X143897621Y-111938969D01*
X143923268Y-111989303D01*
X144042794Y-112153816D01*
X144186584Y-112297606D01*
X144351097Y-112417132D01*
X144429825Y-112457246D01*
X144532284Y-112509452D01*
X144725678Y-112572289D01*
X144751723Y-112576414D01*
X144812635Y-112586061D01*
X144875769Y-112615990D01*
X144912701Y-112675301D01*
X144911703Y-112745163D01*
X144873094Y-112803396D01*
X144811720Y-112831149D01*
X144627561Y-112858908D01*
X144627553Y-112858910D01*
X144370441Y-112938218D01*
X144370422Y-112938225D01*
X144127990Y-113054973D01*
X144127982Y-113054978D01*
X143946359Y-113178806D01*
X144489332Y-113721778D01*
X144364346Y-113805292D01*
X144219292Y-113950346D01*
X144135778Y-114075332D01*
X143593768Y-113533322D01*
X143540612Y-113599978D01*
X143406065Y-113833020D01*
X143307756Y-114083507D01*
X143307750Y-114083526D01*
X143247874Y-114345863D01*
X143247873Y-114345868D01*
X143227766Y-114614195D01*
X140312819Y-114614195D01*
X140509661Y-114540777D01*
X140747819Y-114410733D01*
X140872581Y-114317335D01*
X140872581Y-114317334D01*
X140333122Y-113777874D01*
X140464214Y-113682631D01*
X140591431Y-113555414D01*
X140686675Y-113424322D01*
X141226134Y-113963781D01*
X141226135Y-113963781D01*
X141319533Y-113839019D01*
X141449577Y-113600861D01*
X141544410Y-113346603D01*
X141602087Y-113081466D01*
X141621446Y-112810801D01*
X141621446Y-112810798D01*
X141602087Y-112540133D01*
X141544410Y-112274996D01*
X141449577Y-112020738D01*
X141319533Y-111782580D01*
X141226135Y-111657818D01*
X141226134Y-111657817D01*
X140686674Y-112197277D01*
X140591431Y-112066186D01*
X140464214Y-111938969D01*
X140333121Y-111843724D01*
X140872581Y-111304264D01*
X140747811Y-111210861D01*
X140509661Y-111080822D01*
X140255403Y-110985989D01*
X139990266Y-110928312D01*
X139719601Y-110908954D01*
X139719599Y-110908954D01*
X139448933Y-110928312D01*
X139183796Y-110985989D01*
X138929538Y-111080822D01*
X138691389Y-111210861D01*
X138691381Y-111210866D01*
X138566618Y-111304263D01*
X138566617Y-111304264D01*
X139106078Y-111843724D01*
X138974986Y-111938969D01*
X138847769Y-112066186D01*
X138752524Y-112197277D01*
X138213064Y-111657817D01*
X138213063Y-111657818D01*
X138119666Y-111782581D01*
X138119661Y-111782589D01*
X137989622Y-112020738D01*
X137894789Y-112274996D01*
X137837112Y-112540133D01*
X137817754Y-112810798D01*
X127045000Y-112810798D01*
X127045000Y-108695996D01*
X161418435Y-108695996D01*
X161418435Y-108696003D01*
X161438630Y-108875249D01*
X161438631Y-108875254D01*
X161498211Y-109045523D01*
X161570450Y-109160490D01*
X161594184Y-109198262D01*
X161721738Y-109325816D01*
X161874478Y-109421789D01*
X161992778Y-109463184D01*
X162044745Y-109481368D01*
X162044750Y-109481369D01*
X162223996Y-109501565D01*
X162224000Y-109501565D01*
X162224004Y-109501565D01*
X162403249Y-109481369D01*
X162403252Y-109481368D01*
X162403255Y-109481368D01*
X162573522Y-109421789D01*
X162726262Y-109325816D01*
X162853816Y-109198262D01*
X162949789Y-109045522D01*
X163009368Y-108875255D01*
X163029565Y-108696000D01*
X163009368Y-108516745D01*
X162949789Y-108346478D01*
X162853816Y-108193738D01*
X162726262Y-108066184D01*
X162683483Y-108039304D01*
X162573523Y-107970211D01*
X162403254Y-107910631D01*
X162403249Y-107910630D01*
X162224004Y-107890435D01*
X162223996Y-107890435D01*
X162044750Y-107910630D01*
X162044745Y-107910631D01*
X161874476Y-107970211D01*
X161721737Y-108066184D01*
X161594184Y-108193737D01*
X161498211Y-108346476D01*
X161438631Y-108516745D01*
X161438630Y-108516750D01*
X161418435Y-108695996D01*
X127045000Y-108695996D01*
X127045000Y-107679996D01*
X166371435Y-107679996D01*
X166371435Y-107680003D01*
X166391630Y-107859249D01*
X166391631Y-107859254D01*
X166451211Y-108029523D01*
X166457357Y-108039304D01*
X166547184Y-108182262D01*
X166674738Y-108309816D01*
X166827478Y-108405789D01*
X166997745Y-108465368D01*
X166997750Y-108465369D01*
X167176996Y-108485565D01*
X167177000Y-108485565D01*
X167177004Y-108485565D01*
X167356249Y-108465369D01*
X167356252Y-108465368D01*
X167356255Y-108465368D01*
X167526522Y-108405789D01*
X167679262Y-108309816D01*
X167806816Y-108182262D01*
X167902789Y-108029522D01*
X167962368Y-107859255D01*
X167982565Y-107680000D01*
X167962368Y-107500745D01*
X167902789Y-107330478D01*
X167806816Y-107177738D01*
X167679262Y-107050184D01*
X167627383Y-107017586D01*
X167526523Y-106954211D01*
X167356254Y-106894631D01*
X167356249Y-106894630D01*
X167177004Y-106874435D01*
X167176996Y-106874435D01*
X166997750Y-106894630D01*
X166997745Y-106894631D01*
X166827476Y-106954211D01*
X166674737Y-107050184D01*
X166547184Y-107177737D01*
X166451211Y-107330476D01*
X166391631Y-107500745D01*
X166391630Y-107500750D01*
X166371435Y-107679996D01*
X127045000Y-107679996D01*
X127045000Y-104712123D01*
X140040600Y-104712123D01*
X140040600Y-104907476D01*
X140071160Y-105100426D01*
X140131525Y-105286214D01*
X140131526Y-105286217D01*
X140220218Y-105460281D01*
X140335036Y-105618316D01*
X140335040Y-105618321D01*
X140473178Y-105756459D01*
X140473183Y-105756463D01*
X140570621Y-105827255D01*
X140631222Y-105871284D01*
X140745006Y-105929260D01*
X140805282Y-105959973D01*
X140805285Y-105959974D01*
X140898179Y-105990156D01*
X140991075Y-106020340D01*
X141184023Y-106050900D01*
X141184024Y-106050900D01*
X141379376Y-106050900D01*
X141379377Y-106050900D01*
X141572325Y-106020340D01*
X141758117Y-105959973D01*
X141932178Y-105871284D01*
X142090223Y-105756458D01*
X142228358Y-105618323D01*
X142343184Y-105460278D01*
X142431873Y-105286217D01*
X142492240Y-105100425D01*
X142522800Y-104907477D01*
X142522800Y-104809795D01*
X143227264Y-104809795D01*
X143227264Y-104809804D01*
X143247377Y-105078206D01*
X143247378Y-105078211D01*
X143307271Y-105340621D01*
X143307277Y-105340640D01*
X143405613Y-105591197D01*
X143540199Y-105824306D01*
X143628752Y-105935349D01*
X143708020Y-106034748D01*
X143799672Y-106119788D01*
X143905330Y-106217824D01*
X143905332Y-106217825D01*
X143905335Y-106217828D01*
X144127732Y-106369456D01*
X144127735Y-106369457D01*
X144127736Y-106369458D01*
X144157918Y-106383993D01*
X144370244Y-106486244D01*
X144627454Y-106565583D01*
X144627455Y-106565583D01*
X144627458Y-106565584D01*
X144893608Y-106605699D01*
X144893613Y-106605699D01*
X144893616Y-106605700D01*
X144893617Y-106605700D01*
X145162783Y-106605700D01*
X145162784Y-106605700D01*
X145162791Y-106605699D01*
X145428941Y-106565584D01*
X145428942Y-106565583D01*
X145428946Y-106565583D01*
X145686156Y-106486244D01*
X145928668Y-106369456D01*
X146151065Y-106217828D01*
X146348380Y-106034748D01*
X146516203Y-105824303D01*
X146650787Y-105591197D01*
X146749125Y-105340635D01*
X146809021Y-105078216D01*
X146810341Y-105060603D01*
X146829136Y-104809804D01*
X146829136Y-104809795D01*
X146821816Y-104712123D01*
X147533600Y-104712123D01*
X147533600Y-104907476D01*
X147564160Y-105100426D01*
X147624525Y-105286214D01*
X147624526Y-105286217D01*
X147713218Y-105460281D01*
X147828036Y-105618316D01*
X147828040Y-105618321D01*
X147966178Y-105756459D01*
X147966183Y-105756463D01*
X148063621Y-105827255D01*
X148124222Y-105871284D01*
X148238006Y-105929260D01*
X148298282Y-105959973D01*
X148298285Y-105959974D01*
X148391179Y-105990156D01*
X148484075Y-106020340D01*
X148677023Y-106050900D01*
X148677024Y-106050900D01*
X148872376Y-106050900D01*
X148872377Y-106050900D01*
X149065325Y-106020340D01*
X149251117Y-105959973D01*
X149425178Y-105871284D01*
X149583223Y-105756458D01*
X149691685Y-105647996D01*
X157862435Y-105647996D01*
X157862435Y-105648003D01*
X157882630Y-105827249D01*
X157882631Y-105827254D01*
X157942211Y-105997523D01*
X158038184Y-106150262D01*
X158165738Y-106277816D01*
X158318478Y-106373789D01*
X158488745Y-106433368D01*
X158488750Y-106433369D01*
X158667996Y-106453565D01*
X158668000Y-106453565D01*
X158668004Y-106453565D01*
X158847249Y-106433369D01*
X158847252Y-106433368D01*
X158847255Y-106433368D01*
X159017522Y-106373789D01*
X159170262Y-106277816D01*
X159297816Y-106150262D01*
X159393789Y-105997522D01*
X159453368Y-105827255D01*
X159453369Y-105827249D01*
X159473565Y-105648003D01*
X159473565Y-105647996D01*
X159453369Y-105468750D01*
X159453368Y-105468745D01*
X159427215Y-105394003D01*
X159427213Y-105393996D01*
X170689435Y-105393996D01*
X170689435Y-105394003D01*
X170709630Y-105573249D01*
X170709631Y-105573254D01*
X170769211Y-105743523D01*
X170777342Y-105756463D01*
X170865184Y-105896262D01*
X170992738Y-106023816D01*
X171145478Y-106119789D01*
X171232565Y-106150262D01*
X171315745Y-106179368D01*
X171315750Y-106179369D01*
X171494996Y-106199565D01*
X171495000Y-106199565D01*
X171495004Y-106199565D01*
X171674249Y-106179369D01*
X171674252Y-106179368D01*
X171674255Y-106179368D01*
X171844522Y-106119789D01*
X171997262Y-106023816D01*
X172124816Y-105896262D01*
X172220789Y-105743522D01*
X172280368Y-105573255D01*
X172281435Y-105563789D01*
X172300565Y-105394003D01*
X172300565Y-105393996D01*
X172280369Y-105214750D01*
X172280368Y-105214745D01*
X172220789Y-105044478D01*
X172204267Y-105018184D01*
X172124815Y-104891737D01*
X171997262Y-104764184D01*
X171914408Y-104712123D01*
X175537100Y-104712123D01*
X175537100Y-104907476D01*
X175567660Y-105100426D01*
X175628025Y-105286214D01*
X175628026Y-105286217D01*
X175716718Y-105460281D01*
X175831536Y-105618316D01*
X175831540Y-105618321D01*
X175969678Y-105756459D01*
X175969683Y-105756463D01*
X176067121Y-105827255D01*
X176127722Y-105871284D01*
X176241506Y-105929260D01*
X176301782Y-105959973D01*
X176301785Y-105959974D01*
X176394679Y-105990156D01*
X176487575Y-106020340D01*
X176680523Y-106050900D01*
X176680524Y-106050900D01*
X176875876Y-106050900D01*
X176875877Y-106050900D01*
X177068825Y-106020340D01*
X177254617Y-105959973D01*
X177428678Y-105871284D01*
X177586723Y-105756458D01*
X177724858Y-105618323D01*
X177839684Y-105460278D01*
X177928373Y-105286217D01*
X177988740Y-105100425D01*
X178019300Y-104907477D01*
X178019300Y-104809795D01*
X178723764Y-104809795D01*
X178723764Y-104809804D01*
X178743877Y-105078206D01*
X178743878Y-105078211D01*
X178803771Y-105340621D01*
X178803777Y-105340640D01*
X178902113Y-105591197D01*
X179036699Y-105824306D01*
X179125252Y-105935349D01*
X179204520Y-106034748D01*
X179296172Y-106119788D01*
X179401830Y-106217824D01*
X179401832Y-106217825D01*
X179401835Y-106217828D01*
X179624232Y-106369456D01*
X179624235Y-106369457D01*
X179624236Y-106369458D01*
X179654418Y-106383993D01*
X179866744Y-106486244D01*
X180123954Y-106565583D01*
X180123955Y-106565583D01*
X180123958Y-106565584D01*
X180390108Y-106605699D01*
X180390113Y-106605699D01*
X180390116Y-106605700D01*
X180390117Y-106605700D01*
X180659283Y-106605700D01*
X180659284Y-106605700D01*
X180659291Y-106605699D01*
X180925441Y-106565584D01*
X180925442Y-106565583D01*
X180925446Y-106565583D01*
X181182656Y-106486244D01*
X181425168Y-106369456D01*
X181647565Y-106217828D01*
X181844880Y-106034748D01*
X182012703Y-105824303D01*
X182147287Y-105591197D01*
X182245625Y-105340635D01*
X182305521Y-105078216D01*
X182306841Y-105060603D01*
X182325636Y-104809804D01*
X182325636Y-104809795D01*
X182318316Y-104712123D01*
X183030100Y-104712123D01*
X183030100Y-104907476D01*
X183060660Y-105100426D01*
X183121025Y-105286214D01*
X183121026Y-105286217D01*
X183209718Y-105460281D01*
X183324536Y-105618316D01*
X183324540Y-105618321D01*
X183462678Y-105756459D01*
X183462683Y-105756463D01*
X183560121Y-105827255D01*
X183620722Y-105871284D01*
X183734506Y-105929260D01*
X183794782Y-105959973D01*
X183794785Y-105959974D01*
X183887679Y-105990156D01*
X183980575Y-106020340D01*
X184173523Y-106050900D01*
X184173524Y-106050900D01*
X184368876Y-106050900D01*
X184368877Y-106050900D01*
X184561825Y-106020340D01*
X184747617Y-105959973D01*
X184921678Y-105871284D01*
X185079723Y-105756458D01*
X185217858Y-105618323D01*
X185332684Y-105460278D01*
X185421373Y-105286217D01*
X185481740Y-105100425D01*
X185512300Y-104907477D01*
X185512300Y-104712123D01*
X185481740Y-104519175D01*
X185421373Y-104333383D01*
X185421373Y-104333382D01*
X185389242Y-104270323D01*
X185332684Y-104159322D01*
X185299892Y-104114187D01*
X185217863Y-104001283D01*
X185217859Y-104001278D01*
X185079721Y-103863140D01*
X185079716Y-103863136D01*
X184921681Y-103748318D01*
X184921680Y-103748317D01*
X184921678Y-103748316D01*
X184865913Y-103719902D01*
X184747617Y-103659626D01*
X184747614Y-103659625D01*
X184561826Y-103599260D01*
X184465351Y-103583980D01*
X184368877Y-103568700D01*
X184173523Y-103568700D01*
X184109207Y-103578886D01*
X183980573Y-103599260D01*
X183794785Y-103659625D01*
X183794782Y-103659626D01*
X183620718Y-103748318D01*
X183462683Y-103863136D01*
X183462678Y-103863140D01*
X183324540Y-104001278D01*
X183324536Y-104001283D01*
X183209718Y-104159318D01*
X183121026Y-104333382D01*
X183121025Y-104333385D01*
X183060660Y-104519173D01*
X183030100Y-104712123D01*
X182318316Y-104712123D01*
X182305522Y-104541393D01*
X182305521Y-104541388D01*
X182305521Y-104541384D01*
X182245625Y-104278965D01*
X182147287Y-104028403D01*
X182012703Y-103795297D01*
X181844880Y-103584852D01*
X181734085Y-103482050D01*
X181647569Y-103401775D01*
X181606916Y-103374058D01*
X181425168Y-103250144D01*
X181425165Y-103250143D01*
X181425163Y-103250141D01*
X181182656Y-103133356D01*
X180925447Y-103054017D01*
X180925441Y-103054015D01*
X180659291Y-103013900D01*
X180659284Y-103013900D01*
X180390116Y-103013900D01*
X180390108Y-103013900D01*
X180123958Y-103054015D01*
X180123952Y-103054017D01*
X179866743Y-103133356D01*
X179624236Y-103250141D01*
X179401830Y-103401775D01*
X179204522Y-103584850D01*
X179204514Y-103584858D01*
X179036699Y-103795293D01*
X178902113Y-104028402D01*
X178803777Y-104278959D01*
X178803771Y-104278978D01*
X178743878Y-104541388D01*
X178743877Y-104541393D01*
X178723764Y-104809795D01*
X178019300Y-104809795D01*
X178019300Y-104712123D01*
X177988740Y-104519175D01*
X177928373Y-104333383D01*
X177928373Y-104333382D01*
X177896242Y-104270323D01*
X177839684Y-104159322D01*
X177806892Y-104114187D01*
X177724863Y-104001283D01*
X177724859Y-104001278D01*
X177586721Y-103863140D01*
X177586716Y-103863136D01*
X177428681Y-103748318D01*
X177428680Y-103748317D01*
X177428678Y-103748316D01*
X177372913Y-103719902D01*
X177254617Y-103659626D01*
X177254614Y-103659625D01*
X177068826Y-103599260D01*
X176972351Y-103583980D01*
X176875877Y-103568700D01*
X176680523Y-103568700D01*
X176616207Y-103578886D01*
X176487573Y-103599260D01*
X176301785Y-103659625D01*
X176301782Y-103659626D01*
X176127718Y-103748318D01*
X175969683Y-103863136D01*
X175969678Y-103863140D01*
X175831540Y-104001278D01*
X175831536Y-104001283D01*
X175716718Y-104159318D01*
X175628026Y-104333382D01*
X175628025Y-104333385D01*
X175567660Y-104519173D01*
X175537100Y-104712123D01*
X171914408Y-104712123D01*
X171844523Y-104668211D01*
X171674254Y-104608631D01*
X171674249Y-104608630D01*
X171495004Y-104588435D01*
X171494996Y-104588435D01*
X171315750Y-104608630D01*
X171315745Y-104608631D01*
X171145476Y-104668211D01*
X170992737Y-104764184D01*
X170865184Y-104891737D01*
X170769211Y-105044476D01*
X170709631Y-105214745D01*
X170709630Y-105214750D01*
X170689435Y-105393996D01*
X159427213Y-105393996D01*
X159393789Y-105298478D01*
X159297816Y-105145738D01*
X159170262Y-105018184D01*
X159152453Y-105006994D01*
X159017523Y-104922211D01*
X158847254Y-104862631D01*
X158847249Y-104862630D01*
X158668004Y-104842435D01*
X158667996Y-104842435D01*
X158488750Y-104862630D01*
X158488745Y-104862631D01*
X158318476Y-104922211D01*
X158165737Y-105018184D01*
X158038184Y-105145737D01*
X157942211Y-105298476D01*
X157882631Y-105468745D01*
X157882630Y-105468750D01*
X157862435Y-105647996D01*
X149691685Y-105647996D01*
X149721358Y-105618323D01*
X149836184Y-105460278D01*
X149924873Y-105286217D01*
X149985240Y-105100425D01*
X150015800Y-104907477D01*
X150015800Y-104712123D01*
X149985240Y-104519175D01*
X149924873Y-104333383D01*
X149924873Y-104333382D01*
X149892742Y-104270323D01*
X149836184Y-104159322D01*
X149803392Y-104114187D01*
X149721363Y-104001283D01*
X149721359Y-104001278D01*
X149583221Y-103863140D01*
X149583216Y-103863136D01*
X149425181Y-103748318D01*
X149425180Y-103748317D01*
X149425178Y-103748316D01*
X149369413Y-103719902D01*
X149251117Y-103659626D01*
X149251114Y-103659625D01*
X149065326Y-103599260D01*
X148968851Y-103583980D01*
X148872377Y-103568700D01*
X148677023Y-103568700D01*
X148612707Y-103578886D01*
X148484073Y-103599260D01*
X148298285Y-103659625D01*
X148298282Y-103659626D01*
X148124218Y-103748318D01*
X147966183Y-103863136D01*
X147966178Y-103863140D01*
X147828040Y-104001278D01*
X147828036Y-104001283D01*
X147713218Y-104159318D01*
X147624526Y-104333382D01*
X147624525Y-104333385D01*
X147564160Y-104519173D01*
X147533600Y-104712123D01*
X146821816Y-104712123D01*
X146809022Y-104541393D01*
X146809021Y-104541388D01*
X146809021Y-104541384D01*
X146749125Y-104278965D01*
X146650787Y-104028403D01*
X146516203Y-103795297D01*
X146348380Y-103584852D01*
X146237585Y-103482050D01*
X146151069Y-103401775D01*
X146110416Y-103374058D01*
X145928668Y-103250144D01*
X145928665Y-103250143D01*
X145928663Y-103250141D01*
X145686156Y-103133356D01*
X145428947Y-103054017D01*
X145428941Y-103054015D01*
X145162791Y-103013900D01*
X145162784Y-103013900D01*
X144893616Y-103013900D01*
X144893608Y-103013900D01*
X144627458Y-103054015D01*
X144627452Y-103054017D01*
X144370243Y-103133356D01*
X144127736Y-103250141D01*
X143905330Y-103401775D01*
X143708022Y-103584850D01*
X143708014Y-103584858D01*
X143540199Y-103795293D01*
X143405613Y-104028402D01*
X143307277Y-104278959D01*
X143307271Y-104278978D01*
X143247378Y-104541388D01*
X143247377Y-104541393D01*
X143227264Y-104809795D01*
X142522800Y-104809795D01*
X142522800Y-104712123D01*
X142492240Y-104519175D01*
X142431873Y-104333383D01*
X142431873Y-104333382D01*
X142399742Y-104270323D01*
X142343184Y-104159322D01*
X142310392Y-104114187D01*
X142228363Y-104001283D01*
X142228359Y-104001278D01*
X142090221Y-103863140D01*
X142090216Y-103863136D01*
X141932181Y-103748318D01*
X141932180Y-103748317D01*
X141932178Y-103748316D01*
X141876413Y-103719902D01*
X141758117Y-103659626D01*
X141758114Y-103659625D01*
X141572326Y-103599260D01*
X141475851Y-103583980D01*
X141379377Y-103568700D01*
X141184023Y-103568700D01*
X141119707Y-103578886D01*
X140991073Y-103599260D01*
X140805285Y-103659625D01*
X140805282Y-103659626D01*
X140631218Y-103748318D01*
X140473183Y-103863136D01*
X140473178Y-103863140D01*
X140335040Y-104001278D01*
X140335036Y-104001283D01*
X140220218Y-104159318D01*
X140131526Y-104333382D01*
X140131525Y-104333385D01*
X140071160Y-104519173D01*
X140040600Y-104712123D01*
X127045000Y-104712123D01*
X127045000Y-100324500D01*
X127064685Y-100257461D01*
X127117489Y-100211706D01*
X127169000Y-100200500D01*
X190368676Y-100200500D01*
X190435715Y-100220185D01*
G37*
G04 #@! TD.AperFunction*
G04 #@! TA.AperFunction,Conductor*
G36*
X195288902Y-154935349D02*
G01*
X195497475Y-154677785D01*
X195497476Y-154677783D01*
X195571505Y-154563789D01*
X195624526Y-154518286D01*
X195693731Y-154508672D01*
X195757148Y-154537999D01*
X195794642Y-154596956D01*
X195799500Y-154631324D01*
X195799500Y-155675500D01*
X195779815Y-155742539D01*
X195727011Y-155788294D01*
X195675500Y-155799500D01*
X194631324Y-155799500D01*
X194564285Y-155779815D01*
X194518530Y-155727011D01*
X194508586Y-155657853D01*
X194537611Y-155594297D01*
X194563789Y-155571505D01*
X194677783Y-155497476D01*
X194677785Y-155497475D01*
X194935349Y-155288902D01*
X193440698Y-153794251D01*
X193542330Y-153720412D01*
X193720412Y-153542330D01*
X193794251Y-153440698D01*
X195288902Y-154935349D01*
G37*
G04 #@! TD.AperFunction*
G04 #@! TA.AperFunction,Conductor*
G36*
X195742539Y-100220185D02*
G01*
X195788294Y-100272989D01*
X195799500Y-100324500D01*
X195799500Y-101368676D01*
X195779815Y-101435715D01*
X195727011Y-101481470D01*
X195657853Y-101491414D01*
X195594297Y-101462389D01*
X195571505Y-101436212D01*
X195497465Y-101322202D01*
X195288904Y-101064649D01*
X195288903Y-101064648D01*
X193794251Y-102559300D01*
X193720412Y-102457670D01*
X193542330Y-102279588D01*
X193440698Y-102205748D01*
X194935350Y-100711096D01*
X194935350Y-100711095D01*
X194677797Y-100502534D01*
X194563788Y-100428495D01*
X194518286Y-100375474D01*
X194508672Y-100306269D01*
X194537999Y-100242852D01*
X194596956Y-100205358D01*
X194631324Y-100200500D01*
X195675500Y-100200500D01*
X195742539Y-100220185D01*
G37*
G04 #@! TD.AperFunction*
M02*
