%TF.GenerationSoftware,KiCad,Pcbnew,8.0.3-8.0.3-0~ubuntu22.04.1*%
%TF.CreationDate,2024-07-07T23:08:22+03:00*%
%TF.ProjectId,riaa-preamp,72696161-2d70-4726-9561-6d702e6b6963,rev?*%
%TF.SameCoordinates,Original*%
%TF.FileFunction,Drillmap*%
%TF.FilePolarity,Positive*%
%FSLAX45Y45*%
G04 Gerber Fmt 4.5, Leading zero omitted, Abs format (unit mm)*
G04 Created by KiCad (PCBNEW 8.0.3-8.0.3-0~ubuntu22.04.1) date 2024-07-07 23:08:22*
%MOMM*%
%LPD*%
G01*
G04 APERTURE LIST*
%ADD10C,0.100000*%
%ADD11C,0.200000*%
%ADD12C,0.208280*%
%ADD13C,0.228600*%
%ADD14C,0.320000*%
%ADD15C,0.430000*%
G04 APERTURE END LIST*
D10*
X10000000Y-10000000D02*
X19600000Y-10000000D01*
X19600000Y-15600000D01*
X10000000Y-15600000D01*
X10000000Y-10000000D01*
D11*
D10*
X10111400Y-14563000D02*
X10141400Y-14593000D01*
X10141400Y-14563000D02*
X10111400Y-14593000D01*
X10119600Y-14250000D02*
X10149600Y-14280000D01*
X10149600Y-14250000D02*
X10119600Y-14280000D01*
X10251100Y-14105800D02*
X10281100Y-14135800D01*
X10281100Y-14105800D02*
X10251100Y-14135800D01*
X10251100Y-14385200D02*
X10281100Y-14415200D01*
X10281100Y-14385200D02*
X10251100Y-14415200D01*
X10251100Y-14728100D02*
X10281100Y-14758100D01*
X10281100Y-14728100D02*
X10251100Y-14758100D01*
X10301900Y-13508900D02*
X10331900Y-13538900D01*
X10331900Y-13508900D02*
X10301900Y-13538900D01*
X10390800Y-14563000D02*
X10420800Y-14593000D01*
X10420800Y-14563000D02*
X10390800Y-14593000D01*
X10467000Y-13381900D02*
X10497000Y-13411900D01*
X10497000Y-13381900D02*
X10467000Y-13411900D01*
X10467000Y-13661300D02*
X10497000Y-13691300D01*
X10497000Y-13661300D02*
X10467000Y-13691300D01*
X10632100Y-13508900D02*
X10662100Y-13538900D01*
X10662100Y-13508900D02*
X10632100Y-13538900D01*
X10644800Y-14397900D02*
X10674800Y-14427900D01*
X10674800Y-14397900D02*
X10644800Y-14427900D01*
X10676550Y-13197750D02*
X10706550Y-13227750D01*
X10706550Y-13197750D02*
X10676550Y-13227750D01*
X10848000Y-13064400D02*
X10878000Y-13094400D01*
X10878000Y-13064400D02*
X10848000Y-13094400D01*
X10848000Y-13331100D02*
X10878000Y-13361100D01*
X10878000Y-13331100D02*
X10848000Y-13361100D01*
X10975000Y-14753500D02*
X11005000Y-14783500D01*
X11005000Y-14753500D02*
X10975000Y-14783500D01*
X10987700Y-13204100D02*
X11017700Y-13234100D01*
X11017700Y-13204100D02*
X10987700Y-13234100D01*
X11152800Y-14563000D02*
X11182800Y-14593000D01*
X11182800Y-14563000D02*
X11152800Y-14593000D01*
X11178200Y-13127900D02*
X11208200Y-13157900D01*
X11208200Y-13127900D02*
X11178200Y-13157900D01*
X11432200Y-14563000D02*
X11462200Y-14593000D01*
X11462200Y-14563000D02*
X11432200Y-14593000D01*
X14810400Y-13140600D02*
X14840400Y-13170600D01*
X14840400Y-13140600D02*
X14810400Y-13170600D01*
X14924700Y-12810400D02*
X14954700Y-12840400D01*
X14954700Y-12810400D02*
X14924700Y-12840400D01*
X15089800Y-12962800D02*
X15119800Y-12992800D01*
X15119800Y-12962800D02*
X15089800Y-12992800D01*
X15216800Y-11629300D02*
X15246800Y-11659300D01*
X15246800Y-11629300D02*
X15216800Y-11659300D01*
X15242200Y-12810400D02*
X15272200Y-12840400D01*
X15272200Y-12810400D02*
X15242200Y-12840400D01*
X15343800Y-12048400D02*
X15373800Y-12078400D01*
X15373800Y-12048400D02*
X15343800Y-12078400D01*
X15445400Y-14461400D02*
X15475400Y-14491400D01*
X15475400Y-14461400D02*
X15445400Y-14491400D01*
X15496200Y-14969400D02*
X15526200Y-14999400D01*
X15526200Y-14969400D02*
X15496200Y-14999400D01*
X15547000Y-12200800D02*
X15577000Y-12230800D01*
X15577000Y-12200800D02*
X15547000Y-12230800D01*
X15547000Y-14740800D02*
X15577000Y-14770800D01*
X15577000Y-14740800D02*
X15547000Y-14770800D01*
X15559700Y-11883300D02*
X15589700Y-11913300D01*
X15589700Y-11883300D02*
X15559700Y-11913300D01*
X15585100Y-15286900D02*
X15615100Y-15316900D01*
X15615100Y-15286900D02*
X15585100Y-15316900D01*
X15623200Y-15121800D02*
X15653200Y-15151800D01*
X15653200Y-15121800D02*
X15623200Y-15151800D01*
X15674000Y-13242200D02*
X15704000Y-13272200D01*
X15704000Y-13242200D02*
X15674000Y-13272200D01*
X15750200Y-12052250D02*
X15780200Y-12082250D01*
X15780200Y-12052250D02*
X15750200Y-12082250D01*
X15801000Y-11515000D02*
X15831000Y-11545000D01*
X15831000Y-11515000D02*
X15801000Y-11545000D01*
X15813700Y-13115200D02*
X15843700Y-13145200D01*
X15843700Y-13115200D02*
X15813700Y-13145200D01*
X15824800Y-14626500D02*
X15854800Y-14656500D01*
X15854800Y-14626500D02*
X15824800Y-14656500D01*
X15826400Y-12975500D02*
X15856400Y-13005500D01*
X15856400Y-12975500D02*
X15826400Y-13005500D01*
X15851800Y-10549800D02*
X15881800Y-10579800D01*
X15881800Y-10549800D02*
X15851800Y-10579800D01*
X16042300Y-11896000D02*
X16072300Y-11926000D01*
X16072300Y-11896000D02*
X16042300Y-11926000D01*
X16055000Y-13547000D02*
X16085000Y-13577000D01*
X16085000Y-13547000D02*
X16055000Y-13577000D01*
X16118500Y-14702700D02*
X16148500Y-14732700D01*
X16148500Y-14702700D02*
X16118500Y-14732700D01*
X16131200Y-11324500D02*
X16161200Y-11354500D01*
X16161200Y-11324500D02*
X16131200Y-11354500D01*
X16169300Y-13102500D02*
X16199300Y-13132500D01*
X16199300Y-13102500D02*
X16169300Y-13132500D01*
X16207400Y-10384700D02*
X16237400Y-10414700D01*
X16237400Y-10384700D02*
X16207400Y-10414700D01*
X16207400Y-10854600D02*
X16237400Y-10884600D01*
X16237400Y-10854600D02*
X16207400Y-10884600D01*
X16258200Y-11261000D02*
X16288200Y-11291000D01*
X16288200Y-11261000D02*
X16258200Y-11291000D01*
X16283600Y-12200800D02*
X16313600Y-12230800D01*
X16313600Y-12200800D02*
X16283600Y-12230800D01*
X16283600Y-12607200D02*
X16313600Y-12637200D01*
X16313600Y-12607200D02*
X16283600Y-12637200D01*
X16283600Y-12886600D02*
X16313600Y-12916600D01*
X16313600Y-12886600D02*
X16283600Y-12916600D01*
X16283600Y-13826400D02*
X16313600Y-13856400D01*
X16313600Y-13826400D02*
X16283600Y-13856400D01*
X16283600Y-14690000D02*
X16313600Y-14720000D01*
X16313600Y-14690000D02*
X16283600Y-14720000D01*
X16334400Y-10549800D02*
X16364400Y-10579800D01*
X16364400Y-10549800D02*
X16334400Y-10579800D01*
X16359800Y-11896000D02*
X16389800Y-11926000D01*
X16389800Y-11896000D02*
X16359800Y-11926000D01*
X16359800Y-13547000D02*
X16389800Y-13577000D01*
X16389800Y-13547000D02*
X16359800Y-13577000D01*
X16372500Y-14245500D02*
X16402500Y-14275500D01*
X16402500Y-14245500D02*
X16372500Y-14275500D01*
X16474100Y-11692800D02*
X16504100Y-11722800D01*
X16504100Y-11692800D02*
X16474100Y-11722800D01*
X16474100Y-13343800D02*
X16504100Y-13373800D01*
X16504100Y-13343800D02*
X16474100Y-13373800D01*
X16474100Y-15045600D02*
X16504100Y-15075600D01*
X16504100Y-15045600D02*
X16474100Y-15075600D01*
X16493150Y-15420250D02*
X16523150Y-15450250D01*
X16523150Y-15420250D02*
X16493150Y-15450250D01*
X16499500Y-10994300D02*
X16529500Y-11024300D01*
X16529500Y-10994300D02*
X16499500Y-11024300D01*
X16512200Y-12200800D02*
X16542200Y-12230800D01*
X16542200Y-12200800D02*
X16512200Y-12230800D01*
X16512200Y-12632600D02*
X16542200Y-12662600D01*
X16542200Y-12632600D02*
X16512200Y-12662600D01*
X16512200Y-13826400D02*
X16542200Y-13856400D01*
X16542200Y-13826400D02*
X16512200Y-13856400D01*
X16613800Y-13597800D02*
X16643800Y-13627800D01*
X16643800Y-13597800D02*
X16613800Y-13627800D01*
X16626500Y-11997600D02*
X16656500Y-12027600D01*
X16656500Y-11997600D02*
X16626500Y-12027600D01*
X16651900Y-14372500D02*
X16681900Y-14402500D01*
X16681900Y-14372500D02*
X16651900Y-14402500D01*
X16664600Y-14753500D02*
X16694600Y-14783500D01*
X16694600Y-14753500D02*
X16664600Y-14783500D01*
X16677300Y-11451500D02*
X16707300Y-11481500D01*
X16707300Y-11451500D02*
X16677300Y-11481500D01*
X16677300Y-13102500D02*
X16707300Y-13132500D01*
X16707300Y-13102500D02*
X16677300Y-13132500D01*
X16677300Y-13356500D02*
X16707300Y-13386500D01*
X16707300Y-13356500D02*
X16677300Y-13386500D01*
X16702700Y-10753000D02*
X16732700Y-10783000D01*
X16732700Y-10753000D02*
X16702700Y-10783000D01*
X16715400Y-11667400D02*
X16745400Y-11697400D01*
X16745400Y-11667400D02*
X16715400Y-11697400D01*
X16715400Y-15020200D02*
X16745400Y-15050200D01*
X16745400Y-15020200D02*
X16715400Y-15050200D01*
X16762350Y-13762900D02*
X16792350Y-13792900D01*
X16792350Y-13762900D02*
X16762350Y-13792900D01*
X16766200Y-12200800D02*
X16796200Y-12230800D01*
X16796200Y-12200800D02*
X16766200Y-12230800D01*
X16842400Y-11794400D02*
X16872400Y-11824400D01*
X16872400Y-11794400D02*
X16842400Y-11824400D01*
X16842400Y-15172600D02*
X16872400Y-15202600D01*
X16872400Y-15172600D02*
X16842400Y-15202600D01*
X16918600Y-11997600D02*
X16948600Y-12027600D01*
X16948600Y-11997600D02*
X16918600Y-12027600D01*
X16918600Y-13597800D02*
X16948600Y-13627800D01*
X16948600Y-13597800D02*
X16918600Y-13627800D01*
X16969400Y-15020200D02*
X16999400Y-15050200D01*
X16999400Y-15020200D02*
X16969400Y-15050200D01*
X17020200Y-10905400D02*
X17050200Y-10935400D01*
X17050200Y-10905400D02*
X17020200Y-10935400D01*
X17032900Y-14245500D02*
X17062900Y-14275500D01*
X17062900Y-14245500D02*
X17032900Y-14275500D01*
X17071000Y-14740800D02*
X17101000Y-14770800D01*
X17101000Y-14740800D02*
X17071000Y-14770800D01*
X17134500Y-10524400D02*
X17164500Y-10554400D01*
X17164500Y-10524400D02*
X17134500Y-10554400D01*
X17134500Y-10753000D02*
X17164500Y-10783000D01*
X17164500Y-10753000D02*
X17134500Y-10783000D01*
X17159900Y-14258200D02*
X17189900Y-14288200D01*
X17189900Y-14258200D02*
X17159900Y-14288200D01*
X17217631Y-11647769D02*
X17247631Y-11677769D01*
X17247631Y-11647769D02*
X17217631Y-11677769D01*
X17223400Y-13267600D02*
X17253400Y-13297600D01*
X17253400Y-13267600D02*
X17223400Y-13297600D01*
X17299600Y-14588400D02*
X17329600Y-14618400D01*
X17329600Y-14588400D02*
X17299600Y-14618400D01*
X17350400Y-11984900D02*
X17380400Y-12014900D01*
X17380400Y-11984900D02*
X17350400Y-12014900D01*
X17413900Y-14461400D02*
X17443900Y-14491400D01*
X17443900Y-14461400D02*
X17413900Y-14491400D01*
X10135000Y-10350000D02*
G75*
G02*
X10085000Y-10350000I-25000J0D01*
G01*
X10085000Y-10350000D02*
G75*
G02*
X10135000Y-10350000I25000J0D01*
G01*
X10135000Y-15250000D02*
G75*
G02*
X10085000Y-15250000I-25000J0D01*
G01*
X10085000Y-15250000D02*
G75*
G02*
X10135000Y-15250000I25000J0D01*
G01*
X10205294Y-10180294D02*
G75*
G02*
X10155294Y-10180294I-25000J0D01*
G01*
X10155294Y-10180294D02*
G75*
G02*
X10205294Y-10180294I25000J0D01*
G01*
X10205294Y-10519706D02*
G75*
G02*
X10155294Y-10519706I-25000J0D01*
G01*
X10155294Y-10519706D02*
G75*
G02*
X10205294Y-10519706I25000J0D01*
G01*
X10205294Y-15080294D02*
G75*
G02*
X10155294Y-15080294I-25000J0D01*
G01*
X10155294Y-15080294D02*
G75*
G02*
X10205294Y-15080294I25000J0D01*
G01*
X10205294Y-15419706D02*
G75*
G02*
X10155294Y-15419706I-25000J0D01*
G01*
X10155294Y-15419706D02*
G75*
G02*
X10205294Y-15419706I25000J0D01*
G01*
X10375000Y-10110000D02*
G75*
G02*
X10325000Y-10110000I-25000J0D01*
G01*
X10325000Y-10110000D02*
G75*
G02*
X10375000Y-10110000I25000J0D01*
G01*
X10375000Y-10590000D02*
G75*
G02*
X10325000Y-10590000I-25000J0D01*
G01*
X10325000Y-10590000D02*
G75*
G02*
X10375000Y-10590000I25000J0D01*
G01*
X10375000Y-15010000D02*
G75*
G02*
X10325000Y-15010000I-25000J0D01*
G01*
X10325000Y-15010000D02*
G75*
G02*
X10375000Y-15010000I25000J0D01*
G01*
X10375000Y-15490000D02*
G75*
G02*
X10325000Y-15490000I-25000J0D01*
G01*
X10325000Y-15490000D02*
G75*
G02*
X10375000Y-15490000I25000J0D01*
G01*
X10544706Y-10180294D02*
G75*
G02*
X10494706Y-10180294I-25000J0D01*
G01*
X10494706Y-10180294D02*
G75*
G02*
X10544706Y-10180294I25000J0D01*
G01*
X10544706Y-10519706D02*
G75*
G02*
X10494706Y-10519706I-25000J0D01*
G01*
X10494706Y-10519706D02*
G75*
G02*
X10544706Y-10519706I25000J0D01*
G01*
X10544706Y-15080294D02*
G75*
G02*
X10494706Y-15080294I-25000J0D01*
G01*
X10494706Y-15080294D02*
G75*
G02*
X10544706Y-15080294I25000J0D01*
G01*
X10544706Y-15419706D02*
G75*
G02*
X10494706Y-15419706I-25000J0D01*
G01*
X10494706Y-15419706D02*
G75*
G02*
X10544706Y-15419706I25000J0D01*
G01*
X10615000Y-10350000D02*
G75*
G02*
X10565000Y-10350000I-25000J0D01*
G01*
X10565000Y-10350000D02*
G75*
G02*
X10615000Y-10350000I25000J0D01*
G01*
X10615000Y-15250000D02*
G75*
G02*
X10565000Y-15250000I-25000J0D01*
G01*
X10565000Y-15250000D02*
G75*
G02*
X10615000Y-15250000I25000J0D01*
G01*
X18687100Y-12800000D02*
G75*
G02*
X18637100Y-12800000I-25000J0D01*
G01*
X18637100Y-12800000D02*
G75*
G02*
X18687100Y-12800000I25000J0D01*
G01*
X18757394Y-12630294D02*
G75*
G02*
X18707394Y-12630294I-25000J0D01*
G01*
X18707394Y-12630294D02*
G75*
G02*
X18757394Y-12630294I25000J0D01*
G01*
X18757394Y-12969706D02*
G75*
G02*
X18707394Y-12969706I-25000J0D01*
G01*
X18707394Y-12969706D02*
G75*
G02*
X18757394Y-12969706I25000J0D01*
G01*
X18927100Y-12560000D02*
G75*
G02*
X18877100Y-12560000I-25000J0D01*
G01*
X18877100Y-12560000D02*
G75*
G02*
X18927100Y-12560000I25000J0D01*
G01*
X18927100Y-13040000D02*
G75*
G02*
X18877100Y-13040000I-25000J0D01*
G01*
X18877100Y-13040000D02*
G75*
G02*
X18927100Y-13040000I25000J0D01*
G01*
X19035000Y-10350000D02*
G75*
G02*
X18985000Y-10350000I-25000J0D01*
G01*
X18985000Y-10350000D02*
G75*
G02*
X19035000Y-10350000I25000J0D01*
G01*
X19035000Y-15250000D02*
G75*
G02*
X18985000Y-15250000I-25000J0D01*
G01*
X18985000Y-15250000D02*
G75*
G02*
X19035000Y-15250000I25000J0D01*
G01*
X19096806Y-12630294D02*
G75*
G02*
X19046806Y-12630294I-25000J0D01*
G01*
X19046806Y-12630294D02*
G75*
G02*
X19096806Y-12630294I25000J0D01*
G01*
X19096806Y-12969706D02*
G75*
G02*
X19046806Y-12969706I-25000J0D01*
G01*
X19046806Y-12969706D02*
G75*
G02*
X19096806Y-12969706I25000J0D01*
G01*
X19105294Y-10180294D02*
G75*
G02*
X19055294Y-10180294I-25000J0D01*
G01*
X19055294Y-10180294D02*
G75*
G02*
X19105294Y-10180294I25000J0D01*
G01*
X19105294Y-10519706D02*
G75*
G02*
X19055294Y-10519706I-25000J0D01*
G01*
X19055294Y-10519706D02*
G75*
G02*
X19105294Y-10519706I25000J0D01*
G01*
X19105294Y-15080294D02*
G75*
G02*
X19055294Y-15080294I-25000J0D01*
G01*
X19055294Y-15080294D02*
G75*
G02*
X19105294Y-15080294I25000J0D01*
G01*
X19105294Y-15419706D02*
G75*
G02*
X19055294Y-15419706I-25000J0D01*
G01*
X19055294Y-15419706D02*
G75*
G02*
X19105294Y-15419706I25000J0D01*
G01*
X19167100Y-12800000D02*
G75*
G02*
X19117100Y-12800000I-25000J0D01*
G01*
X19117100Y-12800000D02*
G75*
G02*
X19167100Y-12800000I25000J0D01*
G01*
X19275000Y-10110000D02*
G75*
G02*
X19225000Y-10110000I-25000J0D01*
G01*
X19225000Y-10110000D02*
G75*
G02*
X19275000Y-10110000I25000J0D01*
G01*
X19275000Y-10590000D02*
G75*
G02*
X19225000Y-10590000I-25000J0D01*
G01*
X19225000Y-10590000D02*
G75*
G02*
X19275000Y-10590000I25000J0D01*
G01*
X19275000Y-15010000D02*
G75*
G02*
X19225000Y-15010000I-25000J0D01*
G01*
X19225000Y-15010000D02*
G75*
G02*
X19275000Y-15010000I25000J0D01*
G01*
X19275000Y-15490000D02*
G75*
G02*
X19225000Y-15490000I-25000J0D01*
G01*
X19225000Y-15490000D02*
G75*
G02*
X19275000Y-15490000I25000J0D01*
G01*
X19444706Y-10180294D02*
G75*
G02*
X19394706Y-10180294I-25000J0D01*
G01*
X19394706Y-10180294D02*
G75*
G02*
X19444706Y-10180294I25000J0D01*
G01*
X19444706Y-10519706D02*
G75*
G02*
X19394706Y-10519706I-25000J0D01*
G01*
X19394706Y-10519706D02*
G75*
G02*
X19444706Y-10519706I25000J0D01*
G01*
X19444706Y-15080294D02*
G75*
G02*
X19394706Y-15080294I-25000J0D01*
G01*
X19394706Y-15080294D02*
G75*
G02*
X19444706Y-15080294I25000J0D01*
G01*
X19444706Y-15419706D02*
G75*
G02*
X19394706Y-15419706I-25000J0D01*
G01*
X19394706Y-15419706D02*
G75*
G02*
X19444706Y-15419706I25000J0D01*
G01*
X19515000Y-10350000D02*
G75*
G02*
X19465000Y-10350000I-25000J0D01*
G01*
X19465000Y-10350000D02*
G75*
G02*
X19515000Y-10350000I25000J0D01*
G01*
X19515000Y-15250000D02*
G75*
G02*
X19465000Y-15250000I-25000J0D01*
G01*
X19465000Y-15250000D02*
G75*
G02*
X19515000Y-15250000I25000J0D01*
G01*
X13474200Y-12765394D02*
X13474200Y-12825394D01*
X13444200Y-12795394D02*
X13504200Y-12795394D01*
X13568658Y-12537352D02*
X13568658Y-12597352D01*
X13538658Y-12567352D02*
X13598658Y-12567352D01*
X13568658Y-12993436D02*
X13568658Y-13053436D01*
X13538658Y-13023436D02*
X13598658Y-13023436D01*
X13796700Y-12442894D02*
X13796700Y-12502894D01*
X13766700Y-12472894D02*
X13826700Y-12472894D01*
X13796700Y-13087894D02*
X13796700Y-13147894D01*
X13766700Y-13117894D02*
X13826700Y-13117894D01*
X14024742Y-12537352D02*
X14024742Y-12597352D01*
X13994742Y-12567352D02*
X14054742Y-12567352D01*
X14024742Y-12993436D02*
X14024742Y-13053436D01*
X13994742Y-13023436D02*
X14054742Y-13023436D01*
X14119200Y-12765394D02*
X14119200Y-12825394D01*
X14089200Y-12795394D02*
X14149200Y-12795394D01*
X10830356Y-11311356D02*
X10830356Y-11240644D01*
X10759644Y-11240644D01*
X10759644Y-11311356D01*
X10830356Y-11311356D01*
X10745000Y-11176000D02*
X10745000Y-11376000D01*
X10845000Y-11376000D02*
G75*
G02*
X10745000Y-11376000I-50000J0D01*
G01*
X10845000Y-11376000D02*
X10845000Y-11176000D01*
X10845000Y-11176000D02*
G75*
G03*
X10745000Y-11176000I-50000J0D01*
G01*
X11130356Y-11781356D02*
X11130356Y-11710644D01*
X11059644Y-11710644D01*
X11059644Y-11781356D01*
X11130356Y-11781356D01*
X10995000Y-11796000D02*
X11195000Y-11796000D01*
X11195000Y-11696000D02*
G75*
G02*
X11195000Y-11796000I0J-50000D01*
G01*
X11195000Y-11696000D02*
X10995000Y-11696000D01*
X10995000Y-11696000D02*
G75*
G03*
X10995000Y-11796000I0J-50000D01*
G01*
X11430356Y-11311356D02*
X11430356Y-11240644D01*
X11359644Y-11240644D01*
X11359644Y-11311356D01*
X11430356Y-11311356D01*
X11345000Y-11176000D02*
X11345000Y-11376000D01*
X11445000Y-11376000D02*
G75*
G02*
X11345000Y-11376000I-50000J0D01*
G01*
X11445000Y-11376000D02*
X11445000Y-11176000D01*
X11445000Y-11176000D02*
G75*
G03*
X11345000Y-11176000I-50000J0D01*
G01*
X11968356Y-10953738D02*
X11968356Y-10883026D01*
X11897644Y-10883026D01*
X11897644Y-10953738D01*
X11968356Y-10953738D01*
X12168356Y-10386523D02*
X12168356Y-10315812D01*
X12097644Y-10315812D01*
X12097644Y-10386523D01*
X12168356Y-10386523D01*
X12168356Y-10886523D02*
X12168356Y-10815812D01*
X12097644Y-10815812D01*
X12097644Y-10886523D01*
X12168356Y-10886523D01*
X12368356Y-10319309D02*
X12368356Y-10248598D01*
X12297644Y-10248598D01*
X12297644Y-10319309D01*
X12368356Y-10319309D01*
D12*
X14502820Y-10585120D02*
X14606960Y-10480980D01*
X14502820Y-10376840D01*
X14398680Y-10480980D01*
X14502820Y-10585120D01*
X14502820Y-11565560D02*
X14606960Y-11461420D01*
X14502820Y-11357280D01*
X14398680Y-11461420D01*
X14502820Y-11565560D01*
X14502820Y-14209700D02*
X14606960Y-14105560D01*
X14502820Y-14001420D01*
X14398680Y-14105560D01*
X14502820Y-14209700D01*
X14502820Y-15190140D02*
X14606960Y-15086000D01*
X14502820Y-14981860D01*
X14398680Y-15086000D01*
X14502820Y-15190140D01*
X18052470Y-10585120D02*
X18156610Y-10480980D01*
X18052470Y-10376840D01*
X17948330Y-10480980D01*
X18052470Y-10585120D01*
X18052470Y-11565560D02*
X18156610Y-11461420D01*
X18052470Y-11357280D01*
X17948330Y-11461420D01*
X18052470Y-11565560D01*
X18052470Y-14209700D02*
X18156610Y-14105560D01*
X18052470Y-14001420D01*
X17948330Y-14105560D01*
X18052470Y-14209700D01*
X18052470Y-15190140D02*
X18156610Y-15086000D01*
X18052470Y-14981860D01*
X17948330Y-15086000D01*
X18052470Y-15190140D01*
D13*
X13857660Y-11166780D02*
X14086260Y-11395380D01*
X14086260Y-11166780D02*
X13857660Y-11395380D01*
X14086260Y-11281080D02*
G75*
G02*
X13857660Y-11281080I-114300J0D01*
G01*
X13857660Y-11281080D02*
G75*
G02*
X14086260Y-11281080I114300J0D01*
G01*
X14919380Y-14171600D02*
X15147980Y-14400200D01*
X15147980Y-14171600D02*
X14919380Y-14400200D01*
X15147980Y-14285900D02*
G75*
G02*
X14919380Y-14285900I-114300J0D01*
G01*
X14919380Y-14285900D02*
G75*
G02*
X15147980Y-14285900I114300J0D01*
G01*
X17407310Y-11166780D02*
X17635910Y-11395380D01*
X17635910Y-11166780D02*
X17407310Y-11395380D01*
X17635910Y-11281080D02*
G75*
G02*
X17407310Y-11281080I-114300J0D01*
G01*
X17407310Y-11281080D02*
G75*
G02*
X17635910Y-11281080I114300J0D01*
G01*
X18469030Y-14171600D02*
X18697630Y-14400200D01*
X18697630Y-14171600D02*
X18469030Y-14400200D01*
X18697630Y-14285900D02*
G75*
G02*
X18469030Y-14285900I-114300J0D01*
G01*
X18469030Y-14285900D02*
G75*
G02*
X18697630Y-14285900I114300J0D01*
G01*
D14*
X10190000Y-10190000D02*
X10510000Y-10510000D01*
X10510000Y-10190000D02*
X10190000Y-10510000D01*
X10350000Y-10190000D02*
X10350000Y-10510000D01*
X10190000Y-10350000D02*
X10510000Y-10350000D01*
X10190000Y-15090000D02*
X10510000Y-15410000D01*
X10510000Y-15090000D02*
X10190000Y-15410000D01*
X10350000Y-15090000D02*
X10350000Y-15410000D01*
X10190000Y-15250000D02*
X10510000Y-15250000D01*
X18742100Y-12640000D02*
X19062100Y-12960000D01*
X19062100Y-12640000D02*
X18742100Y-12960000D01*
X18902100Y-12640000D02*
X18902100Y-12960000D01*
X18742100Y-12800000D02*
X19062100Y-12800000D01*
X19090000Y-10190000D02*
X19410000Y-10510000D01*
X19410000Y-10190000D02*
X19090000Y-10510000D01*
X19250000Y-10190000D02*
X19250000Y-10510000D01*
X19090000Y-10350000D02*
X19410000Y-10350000D01*
X19090000Y-15090000D02*
X19410000Y-15410000D01*
X19410000Y-15090000D02*
X19090000Y-15410000D01*
X19250000Y-15090000D02*
X19250000Y-15410000D01*
X19090000Y-15250000D02*
X19410000Y-15250000D01*
D15*
X13581700Y-12580394D02*
X14011700Y-13010394D01*
X14011700Y-12580394D02*
X13581700Y-13010394D01*
X13948729Y-12947424D02*
X13948729Y-12643365D01*
X13644671Y-12643365D01*
X13644671Y-12947424D01*
X13948729Y-12947424D01*
D11*
X10255777Y-15916484D02*
X10255777Y-15716484D01*
X10255777Y-15716484D02*
X10303396Y-15716484D01*
X10303396Y-15716484D02*
X10331967Y-15726008D01*
X10331967Y-15726008D02*
X10351015Y-15745055D01*
X10351015Y-15745055D02*
X10360539Y-15764103D01*
X10360539Y-15764103D02*
X10370063Y-15802198D01*
X10370063Y-15802198D02*
X10370063Y-15830769D01*
X10370063Y-15830769D02*
X10360539Y-15868865D01*
X10360539Y-15868865D02*
X10351015Y-15887912D01*
X10351015Y-15887912D02*
X10331967Y-15906960D01*
X10331967Y-15906960D02*
X10303396Y-15916484D01*
X10303396Y-15916484D02*
X10255777Y-15916484D01*
X10455777Y-15916484D02*
X10455777Y-15783150D01*
X10455777Y-15821246D02*
X10465301Y-15802198D01*
X10465301Y-15802198D02*
X10474824Y-15792674D01*
X10474824Y-15792674D02*
X10493872Y-15783150D01*
X10493872Y-15783150D02*
X10512920Y-15783150D01*
X10579586Y-15916484D02*
X10579586Y-15783150D01*
X10579586Y-15716484D02*
X10570063Y-15726008D01*
X10570063Y-15726008D02*
X10579586Y-15735531D01*
X10579586Y-15735531D02*
X10589110Y-15726008D01*
X10589110Y-15726008D02*
X10579586Y-15716484D01*
X10579586Y-15716484D02*
X10579586Y-15735531D01*
X10703396Y-15916484D02*
X10684348Y-15906960D01*
X10684348Y-15906960D02*
X10674824Y-15887912D01*
X10674824Y-15887912D02*
X10674824Y-15716484D01*
X10808158Y-15916484D02*
X10789110Y-15906960D01*
X10789110Y-15906960D02*
X10779586Y-15887912D01*
X10779586Y-15887912D02*
X10779586Y-15716484D01*
X11036729Y-15916484D02*
X11036729Y-15716484D01*
X11036729Y-15716484D02*
X11103396Y-15859341D01*
X11103396Y-15859341D02*
X11170063Y-15716484D01*
X11170063Y-15716484D02*
X11170063Y-15916484D01*
X11351015Y-15916484D02*
X11351015Y-15811722D01*
X11351015Y-15811722D02*
X11341491Y-15792674D01*
X11341491Y-15792674D02*
X11322443Y-15783150D01*
X11322443Y-15783150D02*
X11284348Y-15783150D01*
X11284348Y-15783150D02*
X11265301Y-15792674D01*
X11351015Y-15906960D02*
X11331967Y-15916484D01*
X11331967Y-15916484D02*
X11284348Y-15916484D01*
X11284348Y-15916484D02*
X11265301Y-15906960D01*
X11265301Y-15906960D02*
X11255777Y-15887912D01*
X11255777Y-15887912D02*
X11255777Y-15868865D01*
X11255777Y-15868865D02*
X11265301Y-15849817D01*
X11265301Y-15849817D02*
X11284348Y-15840293D01*
X11284348Y-15840293D02*
X11331967Y-15840293D01*
X11331967Y-15840293D02*
X11351015Y-15830769D01*
X11446253Y-15783150D02*
X11446253Y-15983150D01*
X11446253Y-15792674D02*
X11465301Y-15783150D01*
X11465301Y-15783150D02*
X11503396Y-15783150D01*
X11503396Y-15783150D02*
X11522443Y-15792674D01*
X11522443Y-15792674D02*
X11531967Y-15802198D01*
X11531967Y-15802198D02*
X11541491Y-15821246D01*
X11541491Y-15821246D02*
X11541491Y-15878388D01*
X11541491Y-15878388D02*
X11531967Y-15897436D01*
X11531967Y-15897436D02*
X11522443Y-15906960D01*
X11522443Y-15906960D02*
X11503396Y-15916484D01*
X11503396Y-15916484D02*
X11465301Y-15916484D01*
X11465301Y-15916484D02*
X11446253Y-15906960D01*
X11627205Y-15897436D02*
X11636729Y-15906960D01*
X11636729Y-15906960D02*
X11627205Y-15916484D01*
X11627205Y-15916484D02*
X11617682Y-15906960D01*
X11617682Y-15906960D02*
X11627205Y-15897436D01*
X11627205Y-15897436D02*
X11627205Y-15916484D01*
X11627205Y-15792674D02*
X11636729Y-15802198D01*
X11636729Y-15802198D02*
X11627205Y-15811722D01*
X11627205Y-15811722D02*
X11617682Y-15802198D01*
X11617682Y-15802198D02*
X11627205Y-15792674D01*
X11627205Y-15792674D02*
X11627205Y-15811722D01*
D10*
X9965000Y-16230000D02*
X9995000Y-16260000D01*
X9995000Y-16230000D02*
X9965000Y-16260000D01*
D11*
X10293872Y-16136484D02*
X10312920Y-16136484D01*
X10312920Y-16136484D02*
X10331967Y-16146008D01*
X10331967Y-16146008D02*
X10341491Y-16155531D01*
X10341491Y-16155531D02*
X10351015Y-16174579D01*
X10351015Y-16174579D02*
X10360539Y-16212674D01*
X10360539Y-16212674D02*
X10360539Y-16260293D01*
X10360539Y-16260293D02*
X10351015Y-16298388D01*
X10351015Y-16298388D02*
X10341491Y-16317436D01*
X10341491Y-16317436D02*
X10331967Y-16326960D01*
X10331967Y-16326960D02*
X10312920Y-16336484D01*
X10312920Y-16336484D02*
X10293872Y-16336484D01*
X10293872Y-16336484D02*
X10274824Y-16326960D01*
X10274824Y-16326960D02*
X10265301Y-16317436D01*
X10265301Y-16317436D02*
X10255777Y-16298388D01*
X10255777Y-16298388D02*
X10246253Y-16260293D01*
X10246253Y-16260293D02*
X10246253Y-16212674D01*
X10246253Y-16212674D02*
X10255777Y-16174579D01*
X10255777Y-16174579D02*
X10265301Y-16155531D01*
X10265301Y-16155531D02*
X10274824Y-16146008D01*
X10274824Y-16146008D02*
X10293872Y-16136484D01*
X10446253Y-16317436D02*
X10455777Y-16326960D01*
X10455777Y-16326960D02*
X10446253Y-16336484D01*
X10446253Y-16336484D02*
X10436729Y-16326960D01*
X10436729Y-16326960D02*
X10446253Y-16317436D01*
X10446253Y-16317436D02*
X10446253Y-16336484D01*
X10522444Y-16136484D02*
X10646253Y-16136484D01*
X10646253Y-16136484D02*
X10579586Y-16212674D01*
X10579586Y-16212674D02*
X10608158Y-16212674D01*
X10608158Y-16212674D02*
X10627205Y-16222198D01*
X10627205Y-16222198D02*
X10636729Y-16231722D01*
X10636729Y-16231722D02*
X10646253Y-16250769D01*
X10646253Y-16250769D02*
X10646253Y-16298388D01*
X10646253Y-16298388D02*
X10636729Y-16317436D01*
X10636729Y-16317436D02*
X10627205Y-16326960D01*
X10627205Y-16326960D02*
X10608158Y-16336484D01*
X10608158Y-16336484D02*
X10551015Y-16336484D01*
X10551015Y-16336484D02*
X10531967Y-16326960D01*
X10531967Y-16326960D02*
X10522444Y-16317436D01*
X10770063Y-16136484D02*
X10789110Y-16136484D01*
X10789110Y-16136484D02*
X10808158Y-16146008D01*
X10808158Y-16146008D02*
X10817682Y-16155531D01*
X10817682Y-16155531D02*
X10827205Y-16174579D01*
X10827205Y-16174579D02*
X10836729Y-16212674D01*
X10836729Y-16212674D02*
X10836729Y-16260293D01*
X10836729Y-16260293D02*
X10827205Y-16298388D01*
X10827205Y-16298388D02*
X10817682Y-16317436D01*
X10817682Y-16317436D02*
X10808158Y-16326960D01*
X10808158Y-16326960D02*
X10789110Y-16336484D01*
X10789110Y-16336484D02*
X10770063Y-16336484D01*
X10770063Y-16336484D02*
X10751015Y-16326960D01*
X10751015Y-16326960D02*
X10741491Y-16317436D01*
X10741491Y-16317436D02*
X10731967Y-16298388D01*
X10731967Y-16298388D02*
X10722444Y-16260293D01*
X10722444Y-16260293D02*
X10722444Y-16212674D01*
X10722444Y-16212674D02*
X10731967Y-16174579D01*
X10731967Y-16174579D02*
X10741491Y-16155531D01*
X10741491Y-16155531D02*
X10751015Y-16146008D01*
X10751015Y-16146008D02*
X10770063Y-16136484D01*
X10960539Y-16136484D02*
X10979586Y-16136484D01*
X10979586Y-16136484D02*
X10998634Y-16146008D01*
X10998634Y-16146008D02*
X11008158Y-16155531D01*
X11008158Y-16155531D02*
X11017682Y-16174579D01*
X11017682Y-16174579D02*
X11027205Y-16212674D01*
X11027205Y-16212674D02*
X11027205Y-16260293D01*
X11027205Y-16260293D02*
X11017682Y-16298388D01*
X11017682Y-16298388D02*
X11008158Y-16317436D01*
X11008158Y-16317436D02*
X10998634Y-16326960D01*
X10998634Y-16326960D02*
X10979586Y-16336484D01*
X10979586Y-16336484D02*
X10960539Y-16336484D01*
X10960539Y-16336484D02*
X10941491Y-16326960D01*
X10941491Y-16326960D02*
X10931967Y-16317436D01*
X10931967Y-16317436D02*
X10922444Y-16298388D01*
X10922444Y-16298388D02*
X10912920Y-16260293D01*
X10912920Y-16260293D02*
X10912920Y-16212674D01*
X10912920Y-16212674D02*
X10922444Y-16174579D01*
X10922444Y-16174579D02*
X10931967Y-16155531D01*
X10931967Y-16155531D02*
X10941491Y-16146008D01*
X10941491Y-16146008D02*
X10960539Y-16136484D01*
X11112920Y-16336484D02*
X11112920Y-16203150D01*
X11112920Y-16222198D02*
X11122444Y-16212674D01*
X11122444Y-16212674D02*
X11141491Y-16203150D01*
X11141491Y-16203150D02*
X11170063Y-16203150D01*
X11170063Y-16203150D02*
X11189110Y-16212674D01*
X11189110Y-16212674D02*
X11198634Y-16231722D01*
X11198634Y-16231722D02*
X11198634Y-16336484D01*
X11198634Y-16231722D02*
X11208158Y-16212674D01*
X11208158Y-16212674D02*
X11227205Y-16203150D01*
X11227205Y-16203150D02*
X11255777Y-16203150D01*
X11255777Y-16203150D02*
X11274824Y-16212674D01*
X11274824Y-16212674D02*
X11284348Y-16231722D01*
X11284348Y-16231722D02*
X11284348Y-16336484D01*
X11379586Y-16336484D02*
X11379586Y-16203150D01*
X11379586Y-16222198D02*
X11389110Y-16212674D01*
X11389110Y-16212674D02*
X11408158Y-16203150D01*
X11408158Y-16203150D02*
X11436729Y-16203150D01*
X11436729Y-16203150D02*
X11455777Y-16212674D01*
X11455777Y-16212674D02*
X11465301Y-16231722D01*
X11465301Y-16231722D02*
X11465301Y-16336484D01*
X11465301Y-16231722D02*
X11474824Y-16212674D01*
X11474824Y-16212674D02*
X11493872Y-16203150D01*
X11493872Y-16203150D02*
X11522443Y-16203150D01*
X11522443Y-16203150D02*
X11541491Y-16212674D01*
X11541491Y-16212674D02*
X11551015Y-16231722D01*
X11551015Y-16231722D02*
X11551015Y-16336484D01*
X11941491Y-16126960D02*
X11770063Y-16384103D01*
X12198634Y-16136484D02*
X12217682Y-16136484D01*
X12217682Y-16136484D02*
X12236729Y-16146008D01*
X12236729Y-16146008D02*
X12246253Y-16155531D01*
X12246253Y-16155531D02*
X12255777Y-16174579D01*
X12255777Y-16174579D02*
X12265301Y-16212674D01*
X12265301Y-16212674D02*
X12265301Y-16260293D01*
X12265301Y-16260293D02*
X12255777Y-16298388D01*
X12255777Y-16298388D02*
X12246253Y-16317436D01*
X12246253Y-16317436D02*
X12236729Y-16326960D01*
X12236729Y-16326960D02*
X12217682Y-16336484D01*
X12217682Y-16336484D02*
X12198634Y-16336484D01*
X12198634Y-16336484D02*
X12179586Y-16326960D01*
X12179586Y-16326960D02*
X12170063Y-16317436D01*
X12170063Y-16317436D02*
X12160539Y-16298388D01*
X12160539Y-16298388D02*
X12151015Y-16260293D01*
X12151015Y-16260293D02*
X12151015Y-16212674D01*
X12151015Y-16212674D02*
X12160539Y-16174579D01*
X12160539Y-16174579D02*
X12170063Y-16155531D01*
X12170063Y-16155531D02*
X12179586Y-16146008D01*
X12179586Y-16146008D02*
X12198634Y-16136484D01*
X12351015Y-16317436D02*
X12360539Y-16326960D01*
X12360539Y-16326960D02*
X12351015Y-16336484D01*
X12351015Y-16336484D02*
X12341491Y-16326960D01*
X12341491Y-16326960D02*
X12351015Y-16317436D01*
X12351015Y-16317436D02*
X12351015Y-16336484D01*
X12484348Y-16136484D02*
X12503396Y-16136484D01*
X12503396Y-16136484D02*
X12522444Y-16146008D01*
X12522444Y-16146008D02*
X12531967Y-16155531D01*
X12531967Y-16155531D02*
X12541491Y-16174579D01*
X12541491Y-16174579D02*
X12551015Y-16212674D01*
X12551015Y-16212674D02*
X12551015Y-16260293D01*
X12551015Y-16260293D02*
X12541491Y-16298388D01*
X12541491Y-16298388D02*
X12531967Y-16317436D01*
X12531967Y-16317436D02*
X12522444Y-16326960D01*
X12522444Y-16326960D02*
X12503396Y-16336484D01*
X12503396Y-16336484D02*
X12484348Y-16336484D01*
X12484348Y-16336484D02*
X12465301Y-16326960D01*
X12465301Y-16326960D02*
X12455777Y-16317436D01*
X12455777Y-16317436D02*
X12446253Y-16298388D01*
X12446253Y-16298388D02*
X12436729Y-16260293D01*
X12436729Y-16260293D02*
X12436729Y-16212674D01*
X12436729Y-16212674D02*
X12446253Y-16174579D01*
X12446253Y-16174579D02*
X12455777Y-16155531D01*
X12455777Y-16155531D02*
X12465301Y-16146008D01*
X12465301Y-16146008D02*
X12484348Y-16136484D01*
X12741491Y-16336484D02*
X12627206Y-16336484D01*
X12684348Y-16336484D02*
X12684348Y-16136484D01*
X12684348Y-16136484D02*
X12665301Y-16165055D01*
X12665301Y-16165055D02*
X12646253Y-16184103D01*
X12646253Y-16184103D02*
X12627206Y-16193627D01*
X12931967Y-16336484D02*
X12817682Y-16336484D01*
X12874825Y-16336484D02*
X12874825Y-16136484D01*
X12874825Y-16136484D02*
X12855777Y-16165055D01*
X12855777Y-16165055D02*
X12836729Y-16184103D01*
X12836729Y-16184103D02*
X12817682Y-16193627D01*
X13046253Y-16222198D02*
X13027206Y-16212674D01*
X13027206Y-16212674D02*
X13017682Y-16203150D01*
X13017682Y-16203150D02*
X13008158Y-16184103D01*
X13008158Y-16184103D02*
X13008158Y-16174579D01*
X13008158Y-16174579D02*
X13017682Y-16155531D01*
X13017682Y-16155531D02*
X13027206Y-16146008D01*
X13027206Y-16146008D02*
X13046253Y-16136484D01*
X13046253Y-16136484D02*
X13084348Y-16136484D01*
X13084348Y-16136484D02*
X13103396Y-16146008D01*
X13103396Y-16146008D02*
X13112920Y-16155531D01*
X13112920Y-16155531D02*
X13122444Y-16174579D01*
X13122444Y-16174579D02*
X13122444Y-16184103D01*
X13122444Y-16184103D02*
X13112920Y-16203150D01*
X13112920Y-16203150D02*
X13103396Y-16212674D01*
X13103396Y-16212674D02*
X13084348Y-16222198D01*
X13084348Y-16222198D02*
X13046253Y-16222198D01*
X13046253Y-16222198D02*
X13027206Y-16231722D01*
X13027206Y-16231722D02*
X13017682Y-16241246D01*
X13017682Y-16241246D02*
X13008158Y-16260293D01*
X13008158Y-16260293D02*
X13008158Y-16298388D01*
X13008158Y-16298388D02*
X13017682Y-16317436D01*
X13017682Y-16317436D02*
X13027206Y-16326960D01*
X13027206Y-16326960D02*
X13046253Y-16336484D01*
X13046253Y-16336484D02*
X13084348Y-16336484D01*
X13084348Y-16336484D02*
X13103396Y-16326960D01*
X13103396Y-16326960D02*
X13112920Y-16317436D01*
X13112920Y-16317436D02*
X13122444Y-16298388D01*
X13122444Y-16298388D02*
X13122444Y-16260293D01*
X13122444Y-16260293D02*
X13112920Y-16241246D01*
X13112920Y-16241246D02*
X13103396Y-16231722D01*
X13103396Y-16231722D02*
X13084348Y-16222198D01*
X13198634Y-16136484D02*
X13198634Y-16174579D01*
X13274825Y-16136484D02*
X13274825Y-16174579D01*
X13570063Y-16412674D02*
X13560539Y-16403150D01*
X13560539Y-16403150D02*
X13541491Y-16374579D01*
X13541491Y-16374579D02*
X13531968Y-16355531D01*
X13531968Y-16355531D02*
X13522444Y-16326960D01*
X13522444Y-16326960D02*
X13512920Y-16279341D01*
X13512920Y-16279341D02*
X13512920Y-16241246D01*
X13512920Y-16241246D02*
X13522444Y-16193627D01*
X13522444Y-16193627D02*
X13531968Y-16165055D01*
X13531968Y-16165055D02*
X13541491Y-16146008D01*
X13541491Y-16146008D02*
X13560539Y-16117436D01*
X13560539Y-16117436D02*
X13570063Y-16107912D01*
X13655777Y-16336484D02*
X13693872Y-16336484D01*
X13693872Y-16336484D02*
X13712920Y-16326960D01*
X13712920Y-16326960D02*
X13722444Y-16317436D01*
X13722444Y-16317436D02*
X13741491Y-16288865D01*
X13741491Y-16288865D02*
X13751015Y-16250769D01*
X13751015Y-16250769D02*
X13751015Y-16174579D01*
X13751015Y-16174579D02*
X13741491Y-16155531D01*
X13741491Y-16155531D02*
X13731968Y-16146008D01*
X13731968Y-16146008D02*
X13712920Y-16136484D01*
X13712920Y-16136484D02*
X13674825Y-16136484D01*
X13674825Y-16136484D02*
X13655777Y-16146008D01*
X13655777Y-16146008D02*
X13646253Y-16155531D01*
X13646253Y-16155531D02*
X13636729Y-16174579D01*
X13636729Y-16174579D02*
X13636729Y-16222198D01*
X13636729Y-16222198D02*
X13646253Y-16241246D01*
X13646253Y-16241246D02*
X13655777Y-16250769D01*
X13655777Y-16250769D02*
X13674825Y-16260293D01*
X13674825Y-16260293D02*
X13712920Y-16260293D01*
X13712920Y-16260293D02*
X13731968Y-16250769D01*
X13731968Y-16250769D02*
X13741491Y-16241246D01*
X13741491Y-16241246D02*
X13751015Y-16222198D01*
X13827206Y-16155531D02*
X13836729Y-16146008D01*
X13836729Y-16146008D02*
X13855777Y-16136484D01*
X13855777Y-16136484D02*
X13903396Y-16136484D01*
X13903396Y-16136484D02*
X13922444Y-16146008D01*
X13922444Y-16146008D02*
X13931968Y-16155531D01*
X13931968Y-16155531D02*
X13941491Y-16174579D01*
X13941491Y-16174579D02*
X13941491Y-16193627D01*
X13941491Y-16193627D02*
X13931968Y-16222198D01*
X13931968Y-16222198D02*
X13817682Y-16336484D01*
X13817682Y-16336484D02*
X13941491Y-16336484D01*
X14179587Y-16336484D02*
X14179587Y-16136484D01*
X14265301Y-16336484D02*
X14265301Y-16231722D01*
X14265301Y-16231722D02*
X14255777Y-16212674D01*
X14255777Y-16212674D02*
X14236730Y-16203150D01*
X14236730Y-16203150D02*
X14208158Y-16203150D01*
X14208158Y-16203150D02*
X14189110Y-16212674D01*
X14189110Y-16212674D02*
X14179587Y-16222198D01*
X14389110Y-16336484D02*
X14370063Y-16326960D01*
X14370063Y-16326960D02*
X14360539Y-16317436D01*
X14360539Y-16317436D02*
X14351015Y-16298388D01*
X14351015Y-16298388D02*
X14351015Y-16241246D01*
X14351015Y-16241246D02*
X14360539Y-16222198D01*
X14360539Y-16222198D02*
X14370063Y-16212674D01*
X14370063Y-16212674D02*
X14389110Y-16203150D01*
X14389110Y-16203150D02*
X14417682Y-16203150D01*
X14417682Y-16203150D02*
X14436730Y-16212674D01*
X14436730Y-16212674D02*
X14446253Y-16222198D01*
X14446253Y-16222198D02*
X14455777Y-16241246D01*
X14455777Y-16241246D02*
X14455777Y-16298388D01*
X14455777Y-16298388D02*
X14446253Y-16317436D01*
X14446253Y-16317436D02*
X14436730Y-16326960D01*
X14436730Y-16326960D02*
X14417682Y-16336484D01*
X14417682Y-16336484D02*
X14389110Y-16336484D01*
X14570063Y-16336484D02*
X14551015Y-16326960D01*
X14551015Y-16326960D02*
X14541491Y-16307912D01*
X14541491Y-16307912D02*
X14541491Y-16136484D01*
X14722444Y-16326960D02*
X14703396Y-16336484D01*
X14703396Y-16336484D02*
X14665301Y-16336484D01*
X14665301Y-16336484D02*
X14646253Y-16326960D01*
X14646253Y-16326960D02*
X14636730Y-16307912D01*
X14636730Y-16307912D02*
X14636730Y-16231722D01*
X14636730Y-16231722D02*
X14646253Y-16212674D01*
X14646253Y-16212674D02*
X14665301Y-16203150D01*
X14665301Y-16203150D02*
X14703396Y-16203150D01*
X14703396Y-16203150D02*
X14722444Y-16212674D01*
X14722444Y-16212674D02*
X14731968Y-16231722D01*
X14731968Y-16231722D02*
X14731968Y-16250769D01*
X14731968Y-16250769D02*
X14636730Y-16269817D01*
X14808158Y-16326960D02*
X14827206Y-16336484D01*
X14827206Y-16336484D02*
X14865301Y-16336484D01*
X14865301Y-16336484D02*
X14884349Y-16326960D01*
X14884349Y-16326960D02*
X14893872Y-16307912D01*
X14893872Y-16307912D02*
X14893872Y-16298388D01*
X14893872Y-16298388D02*
X14884349Y-16279341D01*
X14884349Y-16279341D02*
X14865301Y-16269817D01*
X14865301Y-16269817D02*
X14836730Y-16269817D01*
X14836730Y-16269817D02*
X14817682Y-16260293D01*
X14817682Y-16260293D02*
X14808158Y-16241246D01*
X14808158Y-16241246D02*
X14808158Y-16231722D01*
X14808158Y-16231722D02*
X14817682Y-16212674D01*
X14817682Y-16212674D02*
X14836730Y-16203150D01*
X14836730Y-16203150D02*
X14865301Y-16203150D01*
X14865301Y-16203150D02*
X14884349Y-16212674D01*
X14960539Y-16412674D02*
X14970063Y-16403150D01*
X14970063Y-16403150D02*
X14989111Y-16374579D01*
X14989111Y-16374579D02*
X14998634Y-16355531D01*
X14998634Y-16355531D02*
X15008158Y-16326960D01*
X15008158Y-16326960D02*
X15017682Y-16279341D01*
X15017682Y-16279341D02*
X15017682Y-16241246D01*
X15017682Y-16241246D02*
X15008158Y-16193627D01*
X15008158Y-16193627D02*
X14998634Y-16165055D01*
X14998634Y-16165055D02*
X14989111Y-16146008D01*
X14989111Y-16146008D02*
X14970063Y-16117436D01*
X14970063Y-16117436D02*
X14960539Y-16107912D01*
D10*
X9995000Y-16509000D02*
G75*
G02*
X9945000Y-16509000I-25000J0D01*
G01*
X9945000Y-16509000D02*
G75*
G02*
X9995000Y-16509000I25000J0D01*
G01*
D11*
X10293872Y-16400484D02*
X10312920Y-16400484D01*
X10312920Y-16400484D02*
X10331967Y-16410008D01*
X10331967Y-16410008D02*
X10341491Y-16419531D01*
X10341491Y-16419531D02*
X10351015Y-16438579D01*
X10351015Y-16438579D02*
X10360539Y-16476674D01*
X10360539Y-16476674D02*
X10360539Y-16524293D01*
X10360539Y-16524293D02*
X10351015Y-16562388D01*
X10351015Y-16562388D02*
X10341491Y-16581436D01*
X10341491Y-16581436D02*
X10331967Y-16590960D01*
X10331967Y-16590960D02*
X10312920Y-16600484D01*
X10312920Y-16600484D02*
X10293872Y-16600484D01*
X10293872Y-16600484D02*
X10274824Y-16590960D01*
X10274824Y-16590960D02*
X10265301Y-16581436D01*
X10265301Y-16581436D02*
X10255777Y-16562388D01*
X10255777Y-16562388D02*
X10246253Y-16524293D01*
X10246253Y-16524293D02*
X10246253Y-16476674D01*
X10246253Y-16476674D02*
X10255777Y-16438579D01*
X10255777Y-16438579D02*
X10265301Y-16419531D01*
X10265301Y-16419531D02*
X10274824Y-16410008D01*
X10274824Y-16410008D02*
X10293872Y-16400484D01*
X10446253Y-16581436D02*
X10455777Y-16590960D01*
X10455777Y-16590960D02*
X10446253Y-16600484D01*
X10446253Y-16600484D02*
X10436729Y-16590960D01*
X10436729Y-16590960D02*
X10446253Y-16581436D01*
X10446253Y-16581436D02*
X10446253Y-16600484D01*
X10636729Y-16400484D02*
X10541491Y-16400484D01*
X10541491Y-16400484D02*
X10531967Y-16495722D01*
X10531967Y-16495722D02*
X10541491Y-16486198D01*
X10541491Y-16486198D02*
X10560539Y-16476674D01*
X10560539Y-16476674D02*
X10608158Y-16476674D01*
X10608158Y-16476674D02*
X10627205Y-16486198D01*
X10627205Y-16486198D02*
X10636729Y-16495722D01*
X10636729Y-16495722D02*
X10646253Y-16514769D01*
X10646253Y-16514769D02*
X10646253Y-16562388D01*
X10646253Y-16562388D02*
X10636729Y-16581436D01*
X10636729Y-16581436D02*
X10627205Y-16590960D01*
X10627205Y-16590960D02*
X10608158Y-16600484D01*
X10608158Y-16600484D02*
X10560539Y-16600484D01*
X10560539Y-16600484D02*
X10541491Y-16590960D01*
X10541491Y-16590960D02*
X10531967Y-16581436D01*
X10770063Y-16400484D02*
X10789110Y-16400484D01*
X10789110Y-16400484D02*
X10808158Y-16410008D01*
X10808158Y-16410008D02*
X10817682Y-16419531D01*
X10817682Y-16419531D02*
X10827205Y-16438579D01*
X10827205Y-16438579D02*
X10836729Y-16476674D01*
X10836729Y-16476674D02*
X10836729Y-16524293D01*
X10836729Y-16524293D02*
X10827205Y-16562388D01*
X10827205Y-16562388D02*
X10817682Y-16581436D01*
X10817682Y-16581436D02*
X10808158Y-16590960D01*
X10808158Y-16590960D02*
X10789110Y-16600484D01*
X10789110Y-16600484D02*
X10770063Y-16600484D01*
X10770063Y-16600484D02*
X10751015Y-16590960D01*
X10751015Y-16590960D02*
X10741491Y-16581436D01*
X10741491Y-16581436D02*
X10731967Y-16562388D01*
X10731967Y-16562388D02*
X10722444Y-16524293D01*
X10722444Y-16524293D02*
X10722444Y-16476674D01*
X10722444Y-16476674D02*
X10731967Y-16438579D01*
X10731967Y-16438579D02*
X10741491Y-16419531D01*
X10741491Y-16419531D02*
X10751015Y-16410008D01*
X10751015Y-16410008D02*
X10770063Y-16400484D01*
X10960539Y-16400484D02*
X10979586Y-16400484D01*
X10979586Y-16400484D02*
X10998634Y-16410008D01*
X10998634Y-16410008D02*
X11008158Y-16419531D01*
X11008158Y-16419531D02*
X11017682Y-16438579D01*
X11017682Y-16438579D02*
X11027205Y-16476674D01*
X11027205Y-16476674D02*
X11027205Y-16524293D01*
X11027205Y-16524293D02*
X11017682Y-16562388D01*
X11017682Y-16562388D02*
X11008158Y-16581436D01*
X11008158Y-16581436D02*
X10998634Y-16590960D01*
X10998634Y-16590960D02*
X10979586Y-16600484D01*
X10979586Y-16600484D02*
X10960539Y-16600484D01*
X10960539Y-16600484D02*
X10941491Y-16590960D01*
X10941491Y-16590960D02*
X10931967Y-16581436D01*
X10931967Y-16581436D02*
X10922444Y-16562388D01*
X10922444Y-16562388D02*
X10912920Y-16524293D01*
X10912920Y-16524293D02*
X10912920Y-16476674D01*
X10912920Y-16476674D02*
X10922444Y-16438579D01*
X10922444Y-16438579D02*
X10931967Y-16419531D01*
X10931967Y-16419531D02*
X10941491Y-16410008D01*
X10941491Y-16410008D02*
X10960539Y-16400484D01*
X11112920Y-16600484D02*
X11112920Y-16467150D01*
X11112920Y-16486198D02*
X11122444Y-16476674D01*
X11122444Y-16476674D02*
X11141491Y-16467150D01*
X11141491Y-16467150D02*
X11170063Y-16467150D01*
X11170063Y-16467150D02*
X11189110Y-16476674D01*
X11189110Y-16476674D02*
X11198634Y-16495722D01*
X11198634Y-16495722D02*
X11198634Y-16600484D01*
X11198634Y-16495722D02*
X11208158Y-16476674D01*
X11208158Y-16476674D02*
X11227205Y-16467150D01*
X11227205Y-16467150D02*
X11255777Y-16467150D01*
X11255777Y-16467150D02*
X11274824Y-16476674D01*
X11274824Y-16476674D02*
X11284348Y-16495722D01*
X11284348Y-16495722D02*
X11284348Y-16600484D01*
X11379586Y-16600484D02*
X11379586Y-16467150D01*
X11379586Y-16486198D02*
X11389110Y-16476674D01*
X11389110Y-16476674D02*
X11408158Y-16467150D01*
X11408158Y-16467150D02*
X11436729Y-16467150D01*
X11436729Y-16467150D02*
X11455777Y-16476674D01*
X11455777Y-16476674D02*
X11465301Y-16495722D01*
X11465301Y-16495722D02*
X11465301Y-16600484D01*
X11465301Y-16495722D02*
X11474824Y-16476674D01*
X11474824Y-16476674D02*
X11493872Y-16467150D01*
X11493872Y-16467150D02*
X11522443Y-16467150D01*
X11522443Y-16467150D02*
X11541491Y-16476674D01*
X11541491Y-16476674D02*
X11551015Y-16495722D01*
X11551015Y-16495722D02*
X11551015Y-16600484D01*
X11941491Y-16390960D02*
X11770063Y-16648103D01*
X12198634Y-16400484D02*
X12217682Y-16400484D01*
X12217682Y-16400484D02*
X12236729Y-16410008D01*
X12236729Y-16410008D02*
X12246253Y-16419531D01*
X12246253Y-16419531D02*
X12255777Y-16438579D01*
X12255777Y-16438579D02*
X12265301Y-16476674D01*
X12265301Y-16476674D02*
X12265301Y-16524293D01*
X12265301Y-16524293D02*
X12255777Y-16562388D01*
X12255777Y-16562388D02*
X12246253Y-16581436D01*
X12246253Y-16581436D02*
X12236729Y-16590960D01*
X12236729Y-16590960D02*
X12217682Y-16600484D01*
X12217682Y-16600484D02*
X12198634Y-16600484D01*
X12198634Y-16600484D02*
X12179586Y-16590960D01*
X12179586Y-16590960D02*
X12170063Y-16581436D01*
X12170063Y-16581436D02*
X12160539Y-16562388D01*
X12160539Y-16562388D02*
X12151015Y-16524293D01*
X12151015Y-16524293D02*
X12151015Y-16476674D01*
X12151015Y-16476674D02*
X12160539Y-16438579D01*
X12160539Y-16438579D02*
X12170063Y-16419531D01*
X12170063Y-16419531D02*
X12179586Y-16410008D01*
X12179586Y-16410008D02*
X12198634Y-16400484D01*
X12351015Y-16581436D02*
X12360539Y-16590960D01*
X12360539Y-16590960D02*
X12351015Y-16600484D01*
X12351015Y-16600484D02*
X12341491Y-16590960D01*
X12341491Y-16590960D02*
X12351015Y-16581436D01*
X12351015Y-16581436D02*
X12351015Y-16600484D01*
X12484348Y-16400484D02*
X12503396Y-16400484D01*
X12503396Y-16400484D02*
X12522444Y-16410008D01*
X12522444Y-16410008D02*
X12531967Y-16419531D01*
X12531967Y-16419531D02*
X12541491Y-16438579D01*
X12541491Y-16438579D02*
X12551015Y-16476674D01*
X12551015Y-16476674D02*
X12551015Y-16524293D01*
X12551015Y-16524293D02*
X12541491Y-16562388D01*
X12541491Y-16562388D02*
X12531967Y-16581436D01*
X12531967Y-16581436D02*
X12522444Y-16590960D01*
X12522444Y-16590960D02*
X12503396Y-16600484D01*
X12503396Y-16600484D02*
X12484348Y-16600484D01*
X12484348Y-16600484D02*
X12465301Y-16590960D01*
X12465301Y-16590960D02*
X12455777Y-16581436D01*
X12455777Y-16581436D02*
X12446253Y-16562388D01*
X12446253Y-16562388D02*
X12436729Y-16524293D01*
X12436729Y-16524293D02*
X12436729Y-16476674D01*
X12436729Y-16476674D02*
X12446253Y-16438579D01*
X12446253Y-16438579D02*
X12455777Y-16419531D01*
X12455777Y-16419531D02*
X12465301Y-16410008D01*
X12465301Y-16410008D02*
X12484348Y-16400484D01*
X12741491Y-16600484D02*
X12627206Y-16600484D01*
X12684348Y-16600484D02*
X12684348Y-16400484D01*
X12684348Y-16400484D02*
X12665301Y-16429055D01*
X12665301Y-16429055D02*
X12646253Y-16448103D01*
X12646253Y-16448103D02*
X12627206Y-16457627D01*
X12836729Y-16600484D02*
X12874825Y-16600484D01*
X12874825Y-16600484D02*
X12893872Y-16590960D01*
X12893872Y-16590960D02*
X12903396Y-16581436D01*
X12903396Y-16581436D02*
X12922444Y-16552865D01*
X12922444Y-16552865D02*
X12931967Y-16514769D01*
X12931967Y-16514769D02*
X12931967Y-16438579D01*
X12931967Y-16438579D02*
X12922444Y-16419531D01*
X12922444Y-16419531D02*
X12912920Y-16410008D01*
X12912920Y-16410008D02*
X12893872Y-16400484D01*
X12893872Y-16400484D02*
X12855777Y-16400484D01*
X12855777Y-16400484D02*
X12836729Y-16410008D01*
X12836729Y-16410008D02*
X12827206Y-16419531D01*
X12827206Y-16419531D02*
X12817682Y-16438579D01*
X12817682Y-16438579D02*
X12817682Y-16486198D01*
X12817682Y-16486198D02*
X12827206Y-16505246D01*
X12827206Y-16505246D02*
X12836729Y-16514769D01*
X12836729Y-16514769D02*
X12855777Y-16524293D01*
X12855777Y-16524293D02*
X12893872Y-16524293D01*
X12893872Y-16524293D02*
X12912920Y-16514769D01*
X12912920Y-16514769D02*
X12922444Y-16505246D01*
X12922444Y-16505246D02*
X12931967Y-16486198D01*
X12998634Y-16400484D02*
X13131967Y-16400484D01*
X13131967Y-16400484D02*
X13046253Y-16600484D01*
X13198634Y-16400484D02*
X13198634Y-16438579D01*
X13274825Y-16400484D02*
X13274825Y-16438579D01*
X13570063Y-16676674D02*
X13560539Y-16667150D01*
X13560539Y-16667150D02*
X13541491Y-16638579D01*
X13541491Y-16638579D02*
X13531968Y-16619531D01*
X13531968Y-16619531D02*
X13522444Y-16590960D01*
X13522444Y-16590960D02*
X13512920Y-16543341D01*
X13512920Y-16543341D02*
X13512920Y-16505246D01*
X13512920Y-16505246D02*
X13522444Y-16457627D01*
X13522444Y-16457627D02*
X13531968Y-16429055D01*
X13531968Y-16429055D02*
X13541491Y-16410008D01*
X13541491Y-16410008D02*
X13560539Y-16381436D01*
X13560539Y-16381436D02*
X13570063Y-16371912D01*
X13731968Y-16467150D02*
X13731968Y-16600484D01*
X13684348Y-16390960D02*
X13636729Y-16533817D01*
X13636729Y-16533817D02*
X13760539Y-16533817D01*
X13874825Y-16400484D02*
X13893872Y-16400484D01*
X13893872Y-16400484D02*
X13912920Y-16410008D01*
X13912920Y-16410008D02*
X13922444Y-16419531D01*
X13922444Y-16419531D02*
X13931968Y-16438579D01*
X13931968Y-16438579D02*
X13941491Y-16476674D01*
X13941491Y-16476674D02*
X13941491Y-16524293D01*
X13941491Y-16524293D02*
X13931968Y-16562388D01*
X13931968Y-16562388D02*
X13922444Y-16581436D01*
X13922444Y-16581436D02*
X13912920Y-16590960D01*
X13912920Y-16590960D02*
X13893872Y-16600484D01*
X13893872Y-16600484D02*
X13874825Y-16600484D01*
X13874825Y-16600484D02*
X13855777Y-16590960D01*
X13855777Y-16590960D02*
X13846253Y-16581436D01*
X13846253Y-16581436D02*
X13836729Y-16562388D01*
X13836729Y-16562388D02*
X13827206Y-16524293D01*
X13827206Y-16524293D02*
X13827206Y-16476674D01*
X13827206Y-16476674D02*
X13836729Y-16438579D01*
X13836729Y-16438579D02*
X13846253Y-16419531D01*
X13846253Y-16419531D02*
X13855777Y-16410008D01*
X13855777Y-16410008D02*
X13874825Y-16400484D01*
X14179587Y-16600484D02*
X14179587Y-16400484D01*
X14265301Y-16600484D02*
X14265301Y-16495722D01*
X14265301Y-16495722D02*
X14255777Y-16476674D01*
X14255777Y-16476674D02*
X14236730Y-16467150D01*
X14236730Y-16467150D02*
X14208158Y-16467150D01*
X14208158Y-16467150D02*
X14189110Y-16476674D01*
X14189110Y-16476674D02*
X14179587Y-16486198D01*
X14389110Y-16600484D02*
X14370063Y-16590960D01*
X14370063Y-16590960D02*
X14360539Y-16581436D01*
X14360539Y-16581436D02*
X14351015Y-16562388D01*
X14351015Y-16562388D02*
X14351015Y-16505246D01*
X14351015Y-16505246D02*
X14360539Y-16486198D01*
X14360539Y-16486198D02*
X14370063Y-16476674D01*
X14370063Y-16476674D02*
X14389110Y-16467150D01*
X14389110Y-16467150D02*
X14417682Y-16467150D01*
X14417682Y-16467150D02*
X14436730Y-16476674D01*
X14436730Y-16476674D02*
X14446253Y-16486198D01*
X14446253Y-16486198D02*
X14455777Y-16505246D01*
X14455777Y-16505246D02*
X14455777Y-16562388D01*
X14455777Y-16562388D02*
X14446253Y-16581436D01*
X14446253Y-16581436D02*
X14436730Y-16590960D01*
X14436730Y-16590960D02*
X14417682Y-16600484D01*
X14417682Y-16600484D02*
X14389110Y-16600484D01*
X14570063Y-16600484D02*
X14551015Y-16590960D01*
X14551015Y-16590960D02*
X14541491Y-16571912D01*
X14541491Y-16571912D02*
X14541491Y-16400484D01*
X14722444Y-16590960D02*
X14703396Y-16600484D01*
X14703396Y-16600484D02*
X14665301Y-16600484D01*
X14665301Y-16600484D02*
X14646253Y-16590960D01*
X14646253Y-16590960D02*
X14636730Y-16571912D01*
X14636730Y-16571912D02*
X14636730Y-16495722D01*
X14636730Y-16495722D02*
X14646253Y-16476674D01*
X14646253Y-16476674D02*
X14665301Y-16467150D01*
X14665301Y-16467150D02*
X14703396Y-16467150D01*
X14703396Y-16467150D02*
X14722444Y-16476674D01*
X14722444Y-16476674D02*
X14731968Y-16495722D01*
X14731968Y-16495722D02*
X14731968Y-16514769D01*
X14731968Y-16514769D02*
X14636730Y-16533817D01*
X14808158Y-16590960D02*
X14827206Y-16600484D01*
X14827206Y-16600484D02*
X14865301Y-16600484D01*
X14865301Y-16600484D02*
X14884349Y-16590960D01*
X14884349Y-16590960D02*
X14893872Y-16571912D01*
X14893872Y-16571912D02*
X14893872Y-16562388D01*
X14893872Y-16562388D02*
X14884349Y-16543341D01*
X14884349Y-16543341D02*
X14865301Y-16533817D01*
X14865301Y-16533817D02*
X14836730Y-16533817D01*
X14836730Y-16533817D02*
X14817682Y-16524293D01*
X14817682Y-16524293D02*
X14808158Y-16505246D01*
X14808158Y-16505246D02*
X14808158Y-16495722D01*
X14808158Y-16495722D02*
X14817682Y-16476674D01*
X14817682Y-16476674D02*
X14836730Y-16467150D01*
X14836730Y-16467150D02*
X14865301Y-16467150D01*
X14865301Y-16467150D02*
X14884349Y-16476674D01*
X14960539Y-16676674D02*
X14970063Y-16667150D01*
X14970063Y-16667150D02*
X14989111Y-16638579D01*
X14989111Y-16638579D02*
X14998634Y-16619531D01*
X14998634Y-16619531D02*
X15008158Y-16590960D01*
X15008158Y-16590960D02*
X15017682Y-16543341D01*
X15017682Y-16543341D02*
X15017682Y-16505246D01*
X15017682Y-16505246D02*
X15008158Y-16457627D01*
X15008158Y-16457627D02*
X14998634Y-16429055D01*
X14998634Y-16429055D02*
X14989111Y-16410008D01*
X14989111Y-16410008D02*
X14970063Y-16381436D01*
X14970063Y-16381436D02*
X14960539Y-16371912D01*
D10*
X9965000Y-16743000D02*
X9965000Y-16803000D01*
X9935000Y-16773000D02*
X9995000Y-16773000D01*
D11*
X10293872Y-16664484D02*
X10312920Y-16664484D01*
X10312920Y-16664484D02*
X10331967Y-16674008D01*
X10331967Y-16674008D02*
X10341491Y-16683531D01*
X10341491Y-16683531D02*
X10351015Y-16702579D01*
X10351015Y-16702579D02*
X10360539Y-16740674D01*
X10360539Y-16740674D02*
X10360539Y-16788293D01*
X10360539Y-16788293D02*
X10351015Y-16826389D01*
X10351015Y-16826389D02*
X10341491Y-16845436D01*
X10341491Y-16845436D02*
X10331967Y-16854960D01*
X10331967Y-16854960D02*
X10312920Y-16864484D01*
X10312920Y-16864484D02*
X10293872Y-16864484D01*
X10293872Y-16864484D02*
X10274824Y-16854960D01*
X10274824Y-16854960D02*
X10265301Y-16845436D01*
X10265301Y-16845436D02*
X10255777Y-16826389D01*
X10255777Y-16826389D02*
X10246253Y-16788293D01*
X10246253Y-16788293D02*
X10246253Y-16740674D01*
X10246253Y-16740674D02*
X10255777Y-16702579D01*
X10255777Y-16702579D02*
X10265301Y-16683531D01*
X10265301Y-16683531D02*
X10274824Y-16674008D01*
X10274824Y-16674008D02*
X10293872Y-16664484D01*
X10446253Y-16845436D02*
X10455777Y-16854960D01*
X10455777Y-16854960D02*
X10446253Y-16864484D01*
X10446253Y-16864484D02*
X10436729Y-16854960D01*
X10436729Y-16854960D02*
X10446253Y-16845436D01*
X10446253Y-16845436D02*
X10446253Y-16864484D01*
X10627205Y-16664484D02*
X10589110Y-16664484D01*
X10589110Y-16664484D02*
X10570063Y-16674008D01*
X10570063Y-16674008D02*
X10560539Y-16683531D01*
X10560539Y-16683531D02*
X10541491Y-16712103D01*
X10541491Y-16712103D02*
X10531967Y-16750198D01*
X10531967Y-16750198D02*
X10531967Y-16826389D01*
X10531967Y-16826389D02*
X10541491Y-16845436D01*
X10541491Y-16845436D02*
X10551015Y-16854960D01*
X10551015Y-16854960D02*
X10570063Y-16864484D01*
X10570063Y-16864484D02*
X10608158Y-16864484D01*
X10608158Y-16864484D02*
X10627205Y-16854960D01*
X10627205Y-16854960D02*
X10636729Y-16845436D01*
X10636729Y-16845436D02*
X10646253Y-16826389D01*
X10646253Y-16826389D02*
X10646253Y-16778770D01*
X10646253Y-16778770D02*
X10636729Y-16759722D01*
X10636729Y-16759722D02*
X10627205Y-16750198D01*
X10627205Y-16750198D02*
X10608158Y-16740674D01*
X10608158Y-16740674D02*
X10570063Y-16740674D01*
X10570063Y-16740674D02*
X10551015Y-16750198D01*
X10551015Y-16750198D02*
X10541491Y-16759722D01*
X10541491Y-16759722D02*
X10531967Y-16778770D01*
X10770063Y-16664484D02*
X10789110Y-16664484D01*
X10789110Y-16664484D02*
X10808158Y-16674008D01*
X10808158Y-16674008D02*
X10817682Y-16683531D01*
X10817682Y-16683531D02*
X10827205Y-16702579D01*
X10827205Y-16702579D02*
X10836729Y-16740674D01*
X10836729Y-16740674D02*
X10836729Y-16788293D01*
X10836729Y-16788293D02*
X10827205Y-16826389D01*
X10827205Y-16826389D02*
X10817682Y-16845436D01*
X10817682Y-16845436D02*
X10808158Y-16854960D01*
X10808158Y-16854960D02*
X10789110Y-16864484D01*
X10789110Y-16864484D02*
X10770063Y-16864484D01*
X10770063Y-16864484D02*
X10751015Y-16854960D01*
X10751015Y-16854960D02*
X10741491Y-16845436D01*
X10741491Y-16845436D02*
X10731967Y-16826389D01*
X10731967Y-16826389D02*
X10722444Y-16788293D01*
X10722444Y-16788293D02*
X10722444Y-16740674D01*
X10722444Y-16740674D02*
X10731967Y-16702579D01*
X10731967Y-16702579D02*
X10741491Y-16683531D01*
X10741491Y-16683531D02*
X10751015Y-16674008D01*
X10751015Y-16674008D02*
X10770063Y-16664484D01*
X10960539Y-16664484D02*
X10979586Y-16664484D01*
X10979586Y-16664484D02*
X10998634Y-16674008D01*
X10998634Y-16674008D02*
X11008158Y-16683531D01*
X11008158Y-16683531D02*
X11017682Y-16702579D01*
X11017682Y-16702579D02*
X11027205Y-16740674D01*
X11027205Y-16740674D02*
X11027205Y-16788293D01*
X11027205Y-16788293D02*
X11017682Y-16826389D01*
X11017682Y-16826389D02*
X11008158Y-16845436D01*
X11008158Y-16845436D02*
X10998634Y-16854960D01*
X10998634Y-16854960D02*
X10979586Y-16864484D01*
X10979586Y-16864484D02*
X10960539Y-16864484D01*
X10960539Y-16864484D02*
X10941491Y-16854960D01*
X10941491Y-16854960D02*
X10931967Y-16845436D01*
X10931967Y-16845436D02*
X10922444Y-16826389D01*
X10922444Y-16826389D02*
X10912920Y-16788293D01*
X10912920Y-16788293D02*
X10912920Y-16740674D01*
X10912920Y-16740674D02*
X10922444Y-16702579D01*
X10922444Y-16702579D02*
X10931967Y-16683531D01*
X10931967Y-16683531D02*
X10941491Y-16674008D01*
X10941491Y-16674008D02*
X10960539Y-16664484D01*
X11112920Y-16864484D02*
X11112920Y-16731150D01*
X11112920Y-16750198D02*
X11122444Y-16740674D01*
X11122444Y-16740674D02*
X11141491Y-16731150D01*
X11141491Y-16731150D02*
X11170063Y-16731150D01*
X11170063Y-16731150D02*
X11189110Y-16740674D01*
X11189110Y-16740674D02*
X11198634Y-16759722D01*
X11198634Y-16759722D02*
X11198634Y-16864484D01*
X11198634Y-16759722D02*
X11208158Y-16740674D01*
X11208158Y-16740674D02*
X11227205Y-16731150D01*
X11227205Y-16731150D02*
X11255777Y-16731150D01*
X11255777Y-16731150D02*
X11274824Y-16740674D01*
X11274824Y-16740674D02*
X11284348Y-16759722D01*
X11284348Y-16759722D02*
X11284348Y-16864484D01*
X11379586Y-16864484D02*
X11379586Y-16731150D01*
X11379586Y-16750198D02*
X11389110Y-16740674D01*
X11389110Y-16740674D02*
X11408158Y-16731150D01*
X11408158Y-16731150D02*
X11436729Y-16731150D01*
X11436729Y-16731150D02*
X11455777Y-16740674D01*
X11455777Y-16740674D02*
X11465301Y-16759722D01*
X11465301Y-16759722D02*
X11465301Y-16864484D01*
X11465301Y-16759722D02*
X11474824Y-16740674D01*
X11474824Y-16740674D02*
X11493872Y-16731150D01*
X11493872Y-16731150D02*
X11522443Y-16731150D01*
X11522443Y-16731150D02*
X11541491Y-16740674D01*
X11541491Y-16740674D02*
X11551015Y-16759722D01*
X11551015Y-16759722D02*
X11551015Y-16864484D01*
X11941491Y-16654960D02*
X11770063Y-16912103D01*
X12198634Y-16664484D02*
X12217682Y-16664484D01*
X12217682Y-16664484D02*
X12236729Y-16674008D01*
X12236729Y-16674008D02*
X12246253Y-16683531D01*
X12246253Y-16683531D02*
X12255777Y-16702579D01*
X12255777Y-16702579D02*
X12265301Y-16740674D01*
X12265301Y-16740674D02*
X12265301Y-16788293D01*
X12265301Y-16788293D02*
X12255777Y-16826389D01*
X12255777Y-16826389D02*
X12246253Y-16845436D01*
X12246253Y-16845436D02*
X12236729Y-16854960D01*
X12236729Y-16854960D02*
X12217682Y-16864484D01*
X12217682Y-16864484D02*
X12198634Y-16864484D01*
X12198634Y-16864484D02*
X12179586Y-16854960D01*
X12179586Y-16854960D02*
X12170063Y-16845436D01*
X12170063Y-16845436D02*
X12160539Y-16826389D01*
X12160539Y-16826389D02*
X12151015Y-16788293D01*
X12151015Y-16788293D02*
X12151015Y-16740674D01*
X12151015Y-16740674D02*
X12160539Y-16702579D01*
X12160539Y-16702579D02*
X12170063Y-16683531D01*
X12170063Y-16683531D02*
X12179586Y-16674008D01*
X12179586Y-16674008D02*
X12198634Y-16664484D01*
X12351015Y-16845436D02*
X12360539Y-16854960D01*
X12360539Y-16854960D02*
X12351015Y-16864484D01*
X12351015Y-16864484D02*
X12341491Y-16854960D01*
X12341491Y-16854960D02*
X12351015Y-16845436D01*
X12351015Y-16845436D02*
X12351015Y-16864484D01*
X12484348Y-16664484D02*
X12503396Y-16664484D01*
X12503396Y-16664484D02*
X12522444Y-16674008D01*
X12522444Y-16674008D02*
X12531967Y-16683531D01*
X12531967Y-16683531D02*
X12541491Y-16702579D01*
X12541491Y-16702579D02*
X12551015Y-16740674D01*
X12551015Y-16740674D02*
X12551015Y-16788293D01*
X12551015Y-16788293D02*
X12541491Y-16826389D01*
X12541491Y-16826389D02*
X12531967Y-16845436D01*
X12531967Y-16845436D02*
X12522444Y-16854960D01*
X12522444Y-16854960D02*
X12503396Y-16864484D01*
X12503396Y-16864484D02*
X12484348Y-16864484D01*
X12484348Y-16864484D02*
X12465301Y-16854960D01*
X12465301Y-16854960D02*
X12455777Y-16845436D01*
X12455777Y-16845436D02*
X12446253Y-16826389D01*
X12446253Y-16826389D02*
X12436729Y-16788293D01*
X12436729Y-16788293D02*
X12436729Y-16740674D01*
X12436729Y-16740674D02*
X12446253Y-16702579D01*
X12446253Y-16702579D02*
X12455777Y-16683531D01*
X12455777Y-16683531D02*
X12465301Y-16674008D01*
X12465301Y-16674008D02*
X12484348Y-16664484D01*
X12627206Y-16683531D02*
X12636729Y-16674008D01*
X12636729Y-16674008D02*
X12655777Y-16664484D01*
X12655777Y-16664484D02*
X12703396Y-16664484D01*
X12703396Y-16664484D02*
X12722444Y-16674008D01*
X12722444Y-16674008D02*
X12731967Y-16683531D01*
X12731967Y-16683531D02*
X12741491Y-16702579D01*
X12741491Y-16702579D02*
X12741491Y-16721627D01*
X12741491Y-16721627D02*
X12731967Y-16750198D01*
X12731967Y-16750198D02*
X12617682Y-16864484D01*
X12617682Y-16864484D02*
X12741491Y-16864484D01*
X12808158Y-16664484D02*
X12931967Y-16664484D01*
X12931967Y-16664484D02*
X12865301Y-16740674D01*
X12865301Y-16740674D02*
X12893872Y-16740674D01*
X12893872Y-16740674D02*
X12912920Y-16750198D01*
X12912920Y-16750198D02*
X12922444Y-16759722D01*
X12922444Y-16759722D02*
X12931967Y-16778770D01*
X12931967Y-16778770D02*
X12931967Y-16826389D01*
X12931967Y-16826389D02*
X12922444Y-16845436D01*
X12922444Y-16845436D02*
X12912920Y-16854960D01*
X12912920Y-16854960D02*
X12893872Y-16864484D01*
X12893872Y-16864484D02*
X12836729Y-16864484D01*
X12836729Y-16864484D02*
X12817682Y-16854960D01*
X12817682Y-16854960D02*
X12808158Y-16845436D01*
X13103396Y-16664484D02*
X13065301Y-16664484D01*
X13065301Y-16664484D02*
X13046253Y-16674008D01*
X13046253Y-16674008D02*
X13036729Y-16683531D01*
X13036729Y-16683531D02*
X13017682Y-16712103D01*
X13017682Y-16712103D02*
X13008158Y-16750198D01*
X13008158Y-16750198D02*
X13008158Y-16826389D01*
X13008158Y-16826389D02*
X13017682Y-16845436D01*
X13017682Y-16845436D02*
X13027206Y-16854960D01*
X13027206Y-16854960D02*
X13046253Y-16864484D01*
X13046253Y-16864484D02*
X13084348Y-16864484D01*
X13084348Y-16864484D02*
X13103396Y-16854960D01*
X13103396Y-16854960D02*
X13112920Y-16845436D01*
X13112920Y-16845436D02*
X13122444Y-16826389D01*
X13122444Y-16826389D02*
X13122444Y-16778770D01*
X13122444Y-16778770D02*
X13112920Y-16759722D01*
X13112920Y-16759722D02*
X13103396Y-16750198D01*
X13103396Y-16750198D02*
X13084348Y-16740674D01*
X13084348Y-16740674D02*
X13046253Y-16740674D01*
X13046253Y-16740674D02*
X13027206Y-16750198D01*
X13027206Y-16750198D02*
X13017682Y-16759722D01*
X13017682Y-16759722D02*
X13008158Y-16778770D01*
X13198634Y-16664484D02*
X13198634Y-16702579D01*
X13274825Y-16664484D02*
X13274825Y-16702579D01*
X13570063Y-16940674D02*
X13560539Y-16931150D01*
X13560539Y-16931150D02*
X13541491Y-16902579D01*
X13541491Y-16902579D02*
X13531968Y-16883531D01*
X13531968Y-16883531D02*
X13522444Y-16854960D01*
X13522444Y-16854960D02*
X13512920Y-16807341D01*
X13512920Y-16807341D02*
X13512920Y-16769246D01*
X13512920Y-16769246D02*
X13522444Y-16721627D01*
X13522444Y-16721627D02*
X13531968Y-16693055D01*
X13531968Y-16693055D02*
X13541491Y-16674008D01*
X13541491Y-16674008D02*
X13560539Y-16645436D01*
X13560539Y-16645436D02*
X13570063Y-16635912D01*
X13674825Y-16750198D02*
X13655777Y-16740674D01*
X13655777Y-16740674D02*
X13646253Y-16731150D01*
X13646253Y-16731150D02*
X13636729Y-16712103D01*
X13636729Y-16712103D02*
X13636729Y-16702579D01*
X13636729Y-16702579D02*
X13646253Y-16683531D01*
X13646253Y-16683531D02*
X13655777Y-16674008D01*
X13655777Y-16674008D02*
X13674825Y-16664484D01*
X13674825Y-16664484D02*
X13712920Y-16664484D01*
X13712920Y-16664484D02*
X13731968Y-16674008D01*
X13731968Y-16674008D02*
X13741491Y-16683531D01*
X13741491Y-16683531D02*
X13751015Y-16702579D01*
X13751015Y-16702579D02*
X13751015Y-16712103D01*
X13751015Y-16712103D02*
X13741491Y-16731150D01*
X13741491Y-16731150D02*
X13731968Y-16740674D01*
X13731968Y-16740674D02*
X13712920Y-16750198D01*
X13712920Y-16750198D02*
X13674825Y-16750198D01*
X13674825Y-16750198D02*
X13655777Y-16759722D01*
X13655777Y-16759722D02*
X13646253Y-16769246D01*
X13646253Y-16769246D02*
X13636729Y-16788293D01*
X13636729Y-16788293D02*
X13636729Y-16826389D01*
X13636729Y-16826389D02*
X13646253Y-16845436D01*
X13646253Y-16845436D02*
X13655777Y-16854960D01*
X13655777Y-16854960D02*
X13674825Y-16864484D01*
X13674825Y-16864484D02*
X13712920Y-16864484D01*
X13712920Y-16864484D02*
X13731968Y-16854960D01*
X13731968Y-16854960D02*
X13741491Y-16845436D01*
X13741491Y-16845436D02*
X13751015Y-16826389D01*
X13751015Y-16826389D02*
X13751015Y-16788293D01*
X13751015Y-16788293D02*
X13741491Y-16769246D01*
X13741491Y-16769246D02*
X13731968Y-16759722D01*
X13731968Y-16759722D02*
X13712920Y-16750198D01*
X13989110Y-16864484D02*
X13989110Y-16664484D01*
X14074825Y-16864484D02*
X14074825Y-16759722D01*
X14074825Y-16759722D02*
X14065301Y-16740674D01*
X14065301Y-16740674D02*
X14046253Y-16731150D01*
X14046253Y-16731150D02*
X14017682Y-16731150D01*
X14017682Y-16731150D02*
X13998634Y-16740674D01*
X13998634Y-16740674D02*
X13989110Y-16750198D01*
X14198634Y-16864484D02*
X14179587Y-16854960D01*
X14179587Y-16854960D02*
X14170063Y-16845436D01*
X14170063Y-16845436D02*
X14160539Y-16826389D01*
X14160539Y-16826389D02*
X14160539Y-16769246D01*
X14160539Y-16769246D02*
X14170063Y-16750198D01*
X14170063Y-16750198D02*
X14179587Y-16740674D01*
X14179587Y-16740674D02*
X14198634Y-16731150D01*
X14198634Y-16731150D02*
X14227206Y-16731150D01*
X14227206Y-16731150D02*
X14246253Y-16740674D01*
X14246253Y-16740674D02*
X14255777Y-16750198D01*
X14255777Y-16750198D02*
X14265301Y-16769246D01*
X14265301Y-16769246D02*
X14265301Y-16826389D01*
X14265301Y-16826389D02*
X14255777Y-16845436D01*
X14255777Y-16845436D02*
X14246253Y-16854960D01*
X14246253Y-16854960D02*
X14227206Y-16864484D01*
X14227206Y-16864484D02*
X14198634Y-16864484D01*
X14379587Y-16864484D02*
X14360539Y-16854960D01*
X14360539Y-16854960D02*
X14351015Y-16835912D01*
X14351015Y-16835912D02*
X14351015Y-16664484D01*
X14531968Y-16854960D02*
X14512920Y-16864484D01*
X14512920Y-16864484D02*
X14474825Y-16864484D01*
X14474825Y-16864484D02*
X14455777Y-16854960D01*
X14455777Y-16854960D02*
X14446253Y-16835912D01*
X14446253Y-16835912D02*
X14446253Y-16759722D01*
X14446253Y-16759722D02*
X14455777Y-16740674D01*
X14455777Y-16740674D02*
X14474825Y-16731150D01*
X14474825Y-16731150D02*
X14512920Y-16731150D01*
X14512920Y-16731150D02*
X14531968Y-16740674D01*
X14531968Y-16740674D02*
X14541491Y-16759722D01*
X14541491Y-16759722D02*
X14541491Y-16778770D01*
X14541491Y-16778770D02*
X14446253Y-16797817D01*
X14617682Y-16854960D02*
X14636730Y-16864484D01*
X14636730Y-16864484D02*
X14674825Y-16864484D01*
X14674825Y-16864484D02*
X14693872Y-16854960D01*
X14693872Y-16854960D02*
X14703396Y-16835912D01*
X14703396Y-16835912D02*
X14703396Y-16826389D01*
X14703396Y-16826389D02*
X14693872Y-16807341D01*
X14693872Y-16807341D02*
X14674825Y-16797817D01*
X14674825Y-16797817D02*
X14646253Y-16797817D01*
X14646253Y-16797817D02*
X14627206Y-16788293D01*
X14627206Y-16788293D02*
X14617682Y-16769246D01*
X14617682Y-16769246D02*
X14617682Y-16759722D01*
X14617682Y-16759722D02*
X14627206Y-16740674D01*
X14627206Y-16740674D02*
X14646253Y-16731150D01*
X14646253Y-16731150D02*
X14674825Y-16731150D01*
X14674825Y-16731150D02*
X14693872Y-16740674D01*
X14770063Y-16940674D02*
X14779587Y-16931150D01*
X14779587Y-16931150D02*
X14798634Y-16902579D01*
X14798634Y-16902579D02*
X14808158Y-16883531D01*
X14808158Y-16883531D02*
X14817682Y-16854960D01*
X14817682Y-16854960D02*
X14827206Y-16807341D01*
X14827206Y-16807341D02*
X14827206Y-16769246D01*
X14827206Y-16769246D02*
X14817682Y-16721627D01*
X14817682Y-16721627D02*
X14808158Y-16693055D01*
X14808158Y-16693055D02*
X14798634Y-16674008D01*
X14798634Y-16674008D02*
X14779587Y-16645436D01*
X14779587Y-16645436D02*
X14770063Y-16635912D01*
D10*
X9980356Y-17072356D02*
X9980356Y-17001644D01*
X9909644Y-17001644D01*
X9909644Y-17072356D01*
X9980356Y-17072356D01*
D11*
X10360539Y-17128484D02*
X10246253Y-17128484D01*
X10303396Y-17128484D02*
X10303396Y-16928484D01*
X10303396Y-16928484D02*
X10284348Y-16957055D01*
X10284348Y-16957055D02*
X10265301Y-16976103D01*
X10265301Y-16976103D02*
X10246253Y-16985627D01*
X10446253Y-17109436D02*
X10455777Y-17118960D01*
X10455777Y-17118960D02*
X10446253Y-17128484D01*
X10446253Y-17128484D02*
X10436729Y-17118960D01*
X10436729Y-17118960D02*
X10446253Y-17109436D01*
X10446253Y-17109436D02*
X10446253Y-17128484D01*
X10579586Y-16928484D02*
X10598634Y-16928484D01*
X10598634Y-16928484D02*
X10617682Y-16938008D01*
X10617682Y-16938008D02*
X10627205Y-16947531D01*
X10627205Y-16947531D02*
X10636729Y-16966579D01*
X10636729Y-16966579D02*
X10646253Y-17004674D01*
X10646253Y-17004674D02*
X10646253Y-17052293D01*
X10646253Y-17052293D02*
X10636729Y-17090389D01*
X10636729Y-17090389D02*
X10627205Y-17109436D01*
X10627205Y-17109436D02*
X10617682Y-17118960D01*
X10617682Y-17118960D02*
X10598634Y-17128484D01*
X10598634Y-17128484D02*
X10579586Y-17128484D01*
X10579586Y-17128484D02*
X10560539Y-17118960D01*
X10560539Y-17118960D02*
X10551015Y-17109436D01*
X10551015Y-17109436D02*
X10541491Y-17090389D01*
X10541491Y-17090389D02*
X10531967Y-17052293D01*
X10531967Y-17052293D02*
X10531967Y-17004674D01*
X10531967Y-17004674D02*
X10541491Y-16966579D01*
X10541491Y-16966579D02*
X10551015Y-16947531D01*
X10551015Y-16947531D02*
X10560539Y-16938008D01*
X10560539Y-16938008D02*
X10579586Y-16928484D01*
X10770063Y-16928484D02*
X10789110Y-16928484D01*
X10789110Y-16928484D02*
X10808158Y-16938008D01*
X10808158Y-16938008D02*
X10817682Y-16947531D01*
X10817682Y-16947531D02*
X10827205Y-16966579D01*
X10827205Y-16966579D02*
X10836729Y-17004674D01*
X10836729Y-17004674D02*
X10836729Y-17052293D01*
X10836729Y-17052293D02*
X10827205Y-17090389D01*
X10827205Y-17090389D02*
X10817682Y-17109436D01*
X10817682Y-17109436D02*
X10808158Y-17118960D01*
X10808158Y-17118960D02*
X10789110Y-17128484D01*
X10789110Y-17128484D02*
X10770063Y-17128484D01*
X10770063Y-17128484D02*
X10751015Y-17118960D01*
X10751015Y-17118960D02*
X10741491Y-17109436D01*
X10741491Y-17109436D02*
X10731967Y-17090389D01*
X10731967Y-17090389D02*
X10722444Y-17052293D01*
X10722444Y-17052293D02*
X10722444Y-17004674D01*
X10722444Y-17004674D02*
X10731967Y-16966579D01*
X10731967Y-16966579D02*
X10741491Y-16947531D01*
X10741491Y-16947531D02*
X10751015Y-16938008D01*
X10751015Y-16938008D02*
X10770063Y-16928484D01*
X10960539Y-16928484D02*
X10979586Y-16928484D01*
X10979586Y-16928484D02*
X10998634Y-16938008D01*
X10998634Y-16938008D02*
X11008158Y-16947531D01*
X11008158Y-16947531D02*
X11017682Y-16966579D01*
X11017682Y-16966579D02*
X11027205Y-17004674D01*
X11027205Y-17004674D02*
X11027205Y-17052293D01*
X11027205Y-17052293D02*
X11017682Y-17090389D01*
X11017682Y-17090389D02*
X11008158Y-17109436D01*
X11008158Y-17109436D02*
X10998634Y-17118960D01*
X10998634Y-17118960D02*
X10979586Y-17128484D01*
X10979586Y-17128484D02*
X10960539Y-17128484D01*
X10960539Y-17128484D02*
X10941491Y-17118960D01*
X10941491Y-17118960D02*
X10931967Y-17109436D01*
X10931967Y-17109436D02*
X10922444Y-17090389D01*
X10922444Y-17090389D02*
X10912920Y-17052293D01*
X10912920Y-17052293D02*
X10912920Y-17004674D01*
X10912920Y-17004674D02*
X10922444Y-16966579D01*
X10922444Y-16966579D02*
X10931967Y-16947531D01*
X10931967Y-16947531D02*
X10941491Y-16938008D01*
X10941491Y-16938008D02*
X10960539Y-16928484D01*
X11112920Y-17128484D02*
X11112920Y-16995150D01*
X11112920Y-17014198D02*
X11122444Y-17004674D01*
X11122444Y-17004674D02*
X11141491Y-16995150D01*
X11141491Y-16995150D02*
X11170063Y-16995150D01*
X11170063Y-16995150D02*
X11189110Y-17004674D01*
X11189110Y-17004674D02*
X11198634Y-17023722D01*
X11198634Y-17023722D02*
X11198634Y-17128484D01*
X11198634Y-17023722D02*
X11208158Y-17004674D01*
X11208158Y-17004674D02*
X11227205Y-16995150D01*
X11227205Y-16995150D02*
X11255777Y-16995150D01*
X11255777Y-16995150D02*
X11274824Y-17004674D01*
X11274824Y-17004674D02*
X11284348Y-17023722D01*
X11284348Y-17023722D02*
X11284348Y-17128484D01*
X11379586Y-17128484D02*
X11379586Y-16995150D01*
X11379586Y-17014198D02*
X11389110Y-17004674D01*
X11389110Y-17004674D02*
X11408158Y-16995150D01*
X11408158Y-16995150D02*
X11436729Y-16995150D01*
X11436729Y-16995150D02*
X11455777Y-17004674D01*
X11455777Y-17004674D02*
X11465301Y-17023722D01*
X11465301Y-17023722D02*
X11465301Y-17128484D01*
X11465301Y-17023722D02*
X11474824Y-17004674D01*
X11474824Y-17004674D02*
X11493872Y-16995150D01*
X11493872Y-16995150D02*
X11522443Y-16995150D01*
X11522443Y-16995150D02*
X11541491Y-17004674D01*
X11541491Y-17004674D02*
X11551015Y-17023722D01*
X11551015Y-17023722D02*
X11551015Y-17128484D01*
X11941491Y-16918960D02*
X11770063Y-17176103D01*
X12198634Y-16928484D02*
X12217682Y-16928484D01*
X12217682Y-16928484D02*
X12236729Y-16938008D01*
X12236729Y-16938008D02*
X12246253Y-16947531D01*
X12246253Y-16947531D02*
X12255777Y-16966579D01*
X12255777Y-16966579D02*
X12265301Y-17004674D01*
X12265301Y-17004674D02*
X12265301Y-17052293D01*
X12265301Y-17052293D02*
X12255777Y-17090389D01*
X12255777Y-17090389D02*
X12246253Y-17109436D01*
X12246253Y-17109436D02*
X12236729Y-17118960D01*
X12236729Y-17118960D02*
X12217682Y-17128484D01*
X12217682Y-17128484D02*
X12198634Y-17128484D01*
X12198634Y-17128484D02*
X12179586Y-17118960D01*
X12179586Y-17118960D02*
X12170063Y-17109436D01*
X12170063Y-17109436D02*
X12160539Y-17090389D01*
X12160539Y-17090389D02*
X12151015Y-17052293D01*
X12151015Y-17052293D02*
X12151015Y-17004674D01*
X12151015Y-17004674D02*
X12160539Y-16966579D01*
X12160539Y-16966579D02*
X12170063Y-16947531D01*
X12170063Y-16947531D02*
X12179586Y-16938008D01*
X12179586Y-16938008D02*
X12198634Y-16928484D01*
X12351015Y-17109436D02*
X12360539Y-17118960D01*
X12360539Y-17118960D02*
X12351015Y-17128484D01*
X12351015Y-17128484D02*
X12341491Y-17118960D01*
X12341491Y-17118960D02*
X12351015Y-17109436D01*
X12351015Y-17109436D02*
X12351015Y-17128484D01*
X12484348Y-16928484D02*
X12503396Y-16928484D01*
X12503396Y-16928484D02*
X12522444Y-16938008D01*
X12522444Y-16938008D02*
X12531967Y-16947531D01*
X12531967Y-16947531D02*
X12541491Y-16966579D01*
X12541491Y-16966579D02*
X12551015Y-17004674D01*
X12551015Y-17004674D02*
X12551015Y-17052293D01*
X12551015Y-17052293D02*
X12541491Y-17090389D01*
X12541491Y-17090389D02*
X12531967Y-17109436D01*
X12531967Y-17109436D02*
X12522444Y-17118960D01*
X12522444Y-17118960D02*
X12503396Y-17128484D01*
X12503396Y-17128484D02*
X12484348Y-17128484D01*
X12484348Y-17128484D02*
X12465301Y-17118960D01*
X12465301Y-17118960D02*
X12455777Y-17109436D01*
X12455777Y-17109436D02*
X12446253Y-17090389D01*
X12446253Y-17090389D02*
X12436729Y-17052293D01*
X12436729Y-17052293D02*
X12436729Y-17004674D01*
X12436729Y-17004674D02*
X12446253Y-16966579D01*
X12446253Y-16966579D02*
X12455777Y-16947531D01*
X12455777Y-16947531D02*
X12465301Y-16938008D01*
X12465301Y-16938008D02*
X12484348Y-16928484D01*
X12617682Y-16928484D02*
X12741491Y-16928484D01*
X12741491Y-16928484D02*
X12674825Y-17004674D01*
X12674825Y-17004674D02*
X12703396Y-17004674D01*
X12703396Y-17004674D02*
X12722444Y-17014198D01*
X12722444Y-17014198D02*
X12731967Y-17023722D01*
X12731967Y-17023722D02*
X12741491Y-17042770D01*
X12741491Y-17042770D02*
X12741491Y-17090389D01*
X12741491Y-17090389D02*
X12731967Y-17109436D01*
X12731967Y-17109436D02*
X12722444Y-17118960D01*
X12722444Y-17118960D02*
X12703396Y-17128484D01*
X12703396Y-17128484D02*
X12646253Y-17128484D01*
X12646253Y-17128484D02*
X12627206Y-17118960D01*
X12627206Y-17118960D02*
X12617682Y-17109436D01*
X12836729Y-17128484D02*
X12874825Y-17128484D01*
X12874825Y-17128484D02*
X12893872Y-17118960D01*
X12893872Y-17118960D02*
X12903396Y-17109436D01*
X12903396Y-17109436D02*
X12922444Y-17080865D01*
X12922444Y-17080865D02*
X12931967Y-17042770D01*
X12931967Y-17042770D02*
X12931967Y-16966579D01*
X12931967Y-16966579D02*
X12922444Y-16947531D01*
X12922444Y-16947531D02*
X12912920Y-16938008D01*
X12912920Y-16938008D02*
X12893872Y-16928484D01*
X12893872Y-16928484D02*
X12855777Y-16928484D01*
X12855777Y-16928484D02*
X12836729Y-16938008D01*
X12836729Y-16938008D02*
X12827206Y-16947531D01*
X12827206Y-16947531D02*
X12817682Y-16966579D01*
X12817682Y-16966579D02*
X12817682Y-17014198D01*
X12817682Y-17014198D02*
X12827206Y-17033246D01*
X12827206Y-17033246D02*
X12836729Y-17042770D01*
X12836729Y-17042770D02*
X12855777Y-17052293D01*
X12855777Y-17052293D02*
X12893872Y-17052293D01*
X12893872Y-17052293D02*
X12912920Y-17042770D01*
X12912920Y-17042770D02*
X12922444Y-17033246D01*
X12922444Y-17033246D02*
X12931967Y-17014198D01*
X13103396Y-16995150D02*
X13103396Y-17128484D01*
X13055777Y-16918960D02*
X13008158Y-17061817D01*
X13008158Y-17061817D02*
X13131967Y-17061817D01*
X13198634Y-16928484D02*
X13198634Y-16966579D01*
X13274825Y-16928484D02*
X13274825Y-16966579D01*
X13570063Y-17204674D02*
X13560539Y-17195150D01*
X13560539Y-17195150D02*
X13541491Y-17166579D01*
X13541491Y-17166579D02*
X13531968Y-17147531D01*
X13531968Y-17147531D02*
X13522444Y-17118960D01*
X13522444Y-17118960D02*
X13512920Y-17071341D01*
X13512920Y-17071341D02*
X13512920Y-17033246D01*
X13512920Y-17033246D02*
X13522444Y-16985627D01*
X13522444Y-16985627D02*
X13531968Y-16957055D01*
X13531968Y-16957055D02*
X13541491Y-16938008D01*
X13541491Y-16938008D02*
X13560539Y-16909436D01*
X13560539Y-16909436D02*
X13570063Y-16899912D01*
X13731968Y-16995150D02*
X13731968Y-17128484D01*
X13684348Y-16918960D02*
X13636729Y-17061817D01*
X13636729Y-17061817D02*
X13760539Y-17061817D01*
X13989110Y-17128484D02*
X13989110Y-16928484D01*
X14074825Y-17128484D02*
X14074825Y-17023722D01*
X14074825Y-17023722D02*
X14065301Y-17004674D01*
X14065301Y-17004674D02*
X14046253Y-16995150D01*
X14046253Y-16995150D02*
X14017682Y-16995150D01*
X14017682Y-16995150D02*
X13998634Y-17004674D01*
X13998634Y-17004674D02*
X13989110Y-17014198D01*
X14198634Y-17128484D02*
X14179587Y-17118960D01*
X14179587Y-17118960D02*
X14170063Y-17109436D01*
X14170063Y-17109436D02*
X14160539Y-17090389D01*
X14160539Y-17090389D02*
X14160539Y-17033246D01*
X14160539Y-17033246D02*
X14170063Y-17014198D01*
X14170063Y-17014198D02*
X14179587Y-17004674D01*
X14179587Y-17004674D02*
X14198634Y-16995150D01*
X14198634Y-16995150D02*
X14227206Y-16995150D01*
X14227206Y-16995150D02*
X14246253Y-17004674D01*
X14246253Y-17004674D02*
X14255777Y-17014198D01*
X14255777Y-17014198D02*
X14265301Y-17033246D01*
X14265301Y-17033246D02*
X14265301Y-17090389D01*
X14265301Y-17090389D02*
X14255777Y-17109436D01*
X14255777Y-17109436D02*
X14246253Y-17118960D01*
X14246253Y-17118960D02*
X14227206Y-17128484D01*
X14227206Y-17128484D02*
X14198634Y-17128484D01*
X14379587Y-17128484D02*
X14360539Y-17118960D01*
X14360539Y-17118960D02*
X14351015Y-17099912D01*
X14351015Y-17099912D02*
X14351015Y-16928484D01*
X14531968Y-17118960D02*
X14512920Y-17128484D01*
X14512920Y-17128484D02*
X14474825Y-17128484D01*
X14474825Y-17128484D02*
X14455777Y-17118960D01*
X14455777Y-17118960D02*
X14446253Y-17099912D01*
X14446253Y-17099912D02*
X14446253Y-17023722D01*
X14446253Y-17023722D02*
X14455777Y-17004674D01*
X14455777Y-17004674D02*
X14474825Y-16995150D01*
X14474825Y-16995150D02*
X14512920Y-16995150D01*
X14512920Y-16995150D02*
X14531968Y-17004674D01*
X14531968Y-17004674D02*
X14541491Y-17023722D01*
X14541491Y-17023722D02*
X14541491Y-17042770D01*
X14541491Y-17042770D02*
X14446253Y-17061817D01*
X14617682Y-17118960D02*
X14636730Y-17128484D01*
X14636730Y-17128484D02*
X14674825Y-17128484D01*
X14674825Y-17128484D02*
X14693872Y-17118960D01*
X14693872Y-17118960D02*
X14703396Y-17099912D01*
X14703396Y-17099912D02*
X14703396Y-17090389D01*
X14703396Y-17090389D02*
X14693872Y-17071341D01*
X14693872Y-17071341D02*
X14674825Y-17061817D01*
X14674825Y-17061817D02*
X14646253Y-17061817D01*
X14646253Y-17061817D02*
X14627206Y-17052293D01*
X14627206Y-17052293D02*
X14617682Y-17033246D01*
X14617682Y-17033246D02*
X14617682Y-17023722D01*
X14617682Y-17023722D02*
X14627206Y-17004674D01*
X14627206Y-17004674D02*
X14646253Y-16995150D01*
X14646253Y-16995150D02*
X14674825Y-16995150D01*
X14674825Y-16995150D02*
X14693872Y-17004674D01*
X14941492Y-17052293D02*
X15093873Y-17052293D01*
X15017682Y-17128484D02*
X15017682Y-16976103D01*
X15322444Y-16928484D02*
X15446253Y-16928484D01*
X15446253Y-16928484D02*
X15379587Y-17004674D01*
X15379587Y-17004674D02*
X15408158Y-17004674D01*
X15408158Y-17004674D02*
X15427206Y-17014198D01*
X15427206Y-17014198D02*
X15436730Y-17023722D01*
X15436730Y-17023722D02*
X15446253Y-17042770D01*
X15446253Y-17042770D02*
X15446253Y-17090389D01*
X15446253Y-17090389D02*
X15436730Y-17109436D01*
X15436730Y-17109436D02*
X15427206Y-17118960D01*
X15427206Y-17118960D02*
X15408158Y-17128484D01*
X15408158Y-17128484D02*
X15351015Y-17128484D01*
X15351015Y-17128484D02*
X15331968Y-17118960D01*
X15331968Y-17118960D02*
X15322444Y-17109436D01*
X15674825Y-17118960D02*
X15693873Y-17128484D01*
X15693873Y-17128484D02*
X15731968Y-17128484D01*
X15731968Y-17128484D02*
X15751015Y-17118960D01*
X15751015Y-17118960D02*
X15760539Y-17099912D01*
X15760539Y-17099912D02*
X15760539Y-17090389D01*
X15760539Y-17090389D02*
X15751015Y-17071341D01*
X15751015Y-17071341D02*
X15731968Y-17061817D01*
X15731968Y-17061817D02*
X15703396Y-17061817D01*
X15703396Y-17061817D02*
X15684349Y-17052293D01*
X15684349Y-17052293D02*
X15674825Y-17033246D01*
X15674825Y-17033246D02*
X15674825Y-17023722D01*
X15674825Y-17023722D02*
X15684349Y-17004674D01*
X15684349Y-17004674D02*
X15703396Y-16995150D01*
X15703396Y-16995150D02*
X15731968Y-16995150D01*
X15731968Y-16995150D02*
X15751015Y-17004674D01*
X15874825Y-17128484D02*
X15855777Y-17118960D01*
X15855777Y-17118960D02*
X15846254Y-17099912D01*
X15846254Y-17099912D02*
X15846254Y-16928484D01*
X15979587Y-17128484D02*
X15960539Y-17118960D01*
X15960539Y-17118960D02*
X15951015Y-17109436D01*
X15951015Y-17109436D02*
X15941492Y-17090389D01*
X15941492Y-17090389D02*
X15941492Y-17033246D01*
X15941492Y-17033246D02*
X15951015Y-17014198D01*
X15951015Y-17014198D02*
X15960539Y-17004674D01*
X15960539Y-17004674D02*
X15979587Y-16995150D01*
X15979587Y-16995150D02*
X16008158Y-16995150D01*
X16008158Y-16995150D02*
X16027206Y-17004674D01*
X16027206Y-17004674D02*
X16036730Y-17014198D01*
X16036730Y-17014198D02*
X16046254Y-17033246D01*
X16046254Y-17033246D02*
X16046254Y-17090389D01*
X16046254Y-17090389D02*
X16036730Y-17109436D01*
X16036730Y-17109436D02*
X16027206Y-17118960D01*
X16027206Y-17118960D02*
X16008158Y-17128484D01*
X16008158Y-17128484D02*
X15979587Y-17128484D01*
X16103396Y-16995150D02*
X16179587Y-16995150D01*
X16131968Y-16928484D02*
X16131968Y-17099912D01*
X16131968Y-17099912D02*
X16141492Y-17118960D01*
X16141492Y-17118960D02*
X16160539Y-17128484D01*
X16160539Y-17128484D02*
X16179587Y-17128484D01*
X16236730Y-17118960D02*
X16255777Y-17128484D01*
X16255777Y-17128484D02*
X16293873Y-17128484D01*
X16293873Y-17128484D02*
X16312920Y-17118960D01*
X16312920Y-17118960D02*
X16322444Y-17099912D01*
X16322444Y-17099912D02*
X16322444Y-17090389D01*
X16322444Y-17090389D02*
X16312920Y-17071341D01*
X16312920Y-17071341D02*
X16293873Y-17061817D01*
X16293873Y-17061817D02*
X16265301Y-17061817D01*
X16265301Y-17061817D02*
X16246254Y-17052293D01*
X16246254Y-17052293D02*
X16236730Y-17033246D01*
X16236730Y-17033246D02*
X16236730Y-17023722D01*
X16236730Y-17023722D02*
X16246254Y-17004674D01*
X16246254Y-17004674D02*
X16265301Y-16995150D01*
X16265301Y-16995150D02*
X16293873Y-16995150D01*
X16293873Y-16995150D02*
X16312920Y-17004674D01*
X16389111Y-17204674D02*
X16398635Y-17195150D01*
X16398635Y-17195150D02*
X16417682Y-17166579D01*
X16417682Y-17166579D02*
X16427206Y-17147531D01*
X16427206Y-17147531D02*
X16436730Y-17118960D01*
X16436730Y-17118960D02*
X16446254Y-17071341D01*
X16446254Y-17071341D02*
X16446254Y-17033246D01*
X16446254Y-17033246D02*
X16436730Y-16985627D01*
X16436730Y-16985627D02*
X16427206Y-16957055D01*
X16427206Y-16957055D02*
X16417682Y-16938008D01*
X16417682Y-16938008D02*
X16398635Y-16909436D01*
X16398635Y-16909436D02*
X16389111Y-16899912D01*
X9895000Y-17401000D02*
X9995000Y-17301000D01*
X9895000Y-17201000D01*
X9795000Y-17301000D01*
X9895000Y-17401000D01*
X10246253Y-17211531D02*
X10255777Y-17202008D01*
X10255777Y-17202008D02*
X10274824Y-17192484D01*
X10274824Y-17192484D02*
X10322444Y-17192484D01*
X10322444Y-17192484D02*
X10341491Y-17202008D01*
X10341491Y-17202008D02*
X10351015Y-17211531D01*
X10351015Y-17211531D02*
X10360539Y-17230579D01*
X10360539Y-17230579D02*
X10360539Y-17249627D01*
X10360539Y-17249627D02*
X10351015Y-17278198D01*
X10351015Y-17278198D02*
X10236729Y-17392484D01*
X10236729Y-17392484D02*
X10360539Y-17392484D01*
X10446253Y-17373436D02*
X10455777Y-17382960D01*
X10455777Y-17382960D02*
X10446253Y-17392484D01*
X10446253Y-17392484D02*
X10436729Y-17382960D01*
X10436729Y-17382960D02*
X10446253Y-17373436D01*
X10446253Y-17373436D02*
X10446253Y-17392484D01*
X10579586Y-17192484D02*
X10598634Y-17192484D01*
X10598634Y-17192484D02*
X10617682Y-17202008D01*
X10617682Y-17202008D02*
X10627205Y-17211531D01*
X10627205Y-17211531D02*
X10636729Y-17230579D01*
X10636729Y-17230579D02*
X10646253Y-17268674D01*
X10646253Y-17268674D02*
X10646253Y-17316293D01*
X10646253Y-17316293D02*
X10636729Y-17354389D01*
X10636729Y-17354389D02*
X10627205Y-17373436D01*
X10627205Y-17373436D02*
X10617682Y-17382960D01*
X10617682Y-17382960D02*
X10598634Y-17392484D01*
X10598634Y-17392484D02*
X10579586Y-17392484D01*
X10579586Y-17392484D02*
X10560539Y-17382960D01*
X10560539Y-17382960D02*
X10551015Y-17373436D01*
X10551015Y-17373436D02*
X10541491Y-17354389D01*
X10541491Y-17354389D02*
X10531967Y-17316293D01*
X10531967Y-17316293D02*
X10531967Y-17268674D01*
X10531967Y-17268674D02*
X10541491Y-17230579D01*
X10541491Y-17230579D02*
X10551015Y-17211531D01*
X10551015Y-17211531D02*
X10560539Y-17202008D01*
X10560539Y-17202008D02*
X10579586Y-17192484D01*
X10760539Y-17278198D02*
X10741491Y-17268674D01*
X10741491Y-17268674D02*
X10731967Y-17259150D01*
X10731967Y-17259150D02*
X10722444Y-17240103D01*
X10722444Y-17240103D02*
X10722444Y-17230579D01*
X10722444Y-17230579D02*
X10731967Y-17211531D01*
X10731967Y-17211531D02*
X10741491Y-17202008D01*
X10741491Y-17202008D02*
X10760539Y-17192484D01*
X10760539Y-17192484D02*
X10798634Y-17192484D01*
X10798634Y-17192484D02*
X10817682Y-17202008D01*
X10817682Y-17202008D02*
X10827205Y-17211531D01*
X10827205Y-17211531D02*
X10836729Y-17230579D01*
X10836729Y-17230579D02*
X10836729Y-17240103D01*
X10836729Y-17240103D02*
X10827205Y-17259150D01*
X10827205Y-17259150D02*
X10817682Y-17268674D01*
X10817682Y-17268674D02*
X10798634Y-17278198D01*
X10798634Y-17278198D02*
X10760539Y-17278198D01*
X10760539Y-17278198D02*
X10741491Y-17287722D01*
X10741491Y-17287722D02*
X10731967Y-17297246D01*
X10731967Y-17297246D02*
X10722444Y-17316293D01*
X10722444Y-17316293D02*
X10722444Y-17354389D01*
X10722444Y-17354389D02*
X10731967Y-17373436D01*
X10731967Y-17373436D02*
X10741491Y-17382960D01*
X10741491Y-17382960D02*
X10760539Y-17392484D01*
X10760539Y-17392484D02*
X10798634Y-17392484D01*
X10798634Y-17392484D02*
X10817682Y-17382960D01*
X10817682Y-17382960D02*
X10827205Y-17373436D01*
X10827205Y-17373436D02*
X10836729Y-17354389D01*
X10836729Y-17354389D02*
X10836729Y-17316293D01*
X10836729Y-17316293D02*
X10827205Y-17297246D01*
X10827205Y-17297246D02*
X10817682Y-17287722D01*
X10817682Y-17287722D02*
X10798634Y-17278198D01*
X10903396Y-17192484D02*
X11027205Y-17192484D01*
X11027205Y-17192484D02*
X10960539Y-17268674D01*
X10960539Y-17268674D02*
X10989110Y-17268674D01*
X10989110Y-17268674D02*
X11008158Y-17278198D01*
X11008158Y-17278198D02*
X11017682Y-17287722D01*
X11017682Y-17287722D02*
X11027205Y-17306770D01*
X11027205Y-17306770D02*
X11027205Y-17354389D01*
X11027205Y-17354389D02*
X11017682Y-17373436D01*
X11017682Y-17373436D02*
X11008158Y-17382960D01*
X11008158Y-17382960D02*
X10989110Y-17392484D01*
X10989110Y-17392484D02*
X10931967Y-17392484D01*
X10931967Y-17392484D02*
X10912920Y-17382960D01*
X10912920Y-17382960D02*
X10903396Y-17373436D01*
X11112920Y-17392484D02*
X11112920Y-17259150D01*
X11112920Y-17278198D02*
X11122444Y-17268674D01*
X11122444Y-17268674D02*
X11141491Y-17259150D01*
X11141491Y-17259150D02*
X11170063Y-17259150D01*
X11170063Y-17259150D02*
X11189110Y-17268674D01*
X11189110Y-17268674D02*
X11198634Y-17287722D01*
X11198634Y-17287722D02*
X11198634Y-17392484D01*
X11198634Y-17287722D02*
X11208158Y-17268674D01*
X11208158Y-17268674D02*
X11227205Y-17259150D01*
X11227205Y-17259150D02*
X11255777Y-17259150D01*
X11255777Y-17259150D02*
X11274824Y-17268674D01*
X11274824Y-17268674D02*
X11284348Y-17287722D01*
X11284348Y-17287722D02*
X11284348Y-17392484D01*
X11379586Y-17392484D02*
X11379586Y-17259150D01*
X11379586Y-17278198D02*
X11389110Y-17268674D01*
X11389110Y-17268674D02*
X11408158Y-17259150D01*
X11408158Y-17259150D02*
X11436729Y-17259150D01*
X11436729Y-17259150D02*
X11455777Y-17268674D01*
X11455777Y-17268674D02*
X11465301Y-17287722D01*
X11465301Y-17287722D02*
X11465301Y-17392484D01*
X11465301Y-17287722D02*
X11474824Y-17268674D01*
X11474824Y-17268674D02*
X11493872Y-17259150D01*
X11493872Y-17259150D02*
X11522443Y-17259150D01*
X11522443Y-17259150D02*
X11541491Y-17268674D01*
X11541491Y-17268674D02*
X11551015Y-17287722D01*
X11551015Y-17287722D02*
X11551015Y-17392484D01*
X11941491Y-17182960D02*
X11770063Y-17440103D01*
X12198634Y-17192484D02*
X12217682Y-17192484D01*
X12217682Y-17192484D02*
X12236729Y-17202008D01*
X12236729Y-17202008D02*
X12246253Y-17211531D01*
X12246253Y-17211531D02*
X12255777Y-17230579D01*
X12255777Y-17230579D02*
X12265301Y-17268674D01*
X12265301Y-17268674D02*
X12265301Y-17316293D01*
X12265301Y-17316293D02*
X12255777Y-17354389D01*
X12255777Y-17354389D02*
X12246253Y-17373436D01*
X12246253Y-17373436D02*
X12236729Y-17382960D01*
X12236729Y-17382960D02*
X12217682Y-17392484D01*
X12217682Y-17392484D02*
X12198634Y-17392484D01*
X12198634Y-17392484D02*
X12179586Y-17382960D01*
X12179586Y-17382960D02*
X12170063Y-17373436D01*
X12170063Y-17373436D02*
X12160539Y-17354389D01*
X12160539Y-17354389D02*
X12151015Y-17316293D01*
X12151015Y-17316293D02*
X12151015Y-17268674D01*
X12151015Y-17268674D02*
X12160539Y-17230579D01*
X12160539Y-17230579D02*
X12170063Y-17211531D01*
X12170063Y-17211531D02*
X12179586Y-17202008D01*
X12179586Y-17202008D02*
X12198634Y-17192484D01*
X12351015Y-17373436D02*
X12360539Y-17382960D01*
X12360539Y-17382960D02*
X12351015Y-17392484D01*
X12351015Y-17392484D02*
X12341491Y-17382960D01*
X12341491Y-17382960D02*
X12351015Y-17373436D01*
X12351015Y-17373436D02*
X12351015Y-17392484D01*
X12484348Y-17192484D02*
X12503396Y-17192484D01*
X12503396Y-17192484D02*
X12522444Y-17202008D01*
X12522444Y-17202008D02*
X12531967Y-17211531D01*
X12531967Y-17211531D02*
X12541491Y-17230579D01*
X12541491Y-17230579D02*
X12551015Y-17268674D01*
X12551015Y-17268674D02*
X12551015Y-17316293D01*
X12551015Y-17316293D02*
X12541491Y-17354389D01*
X12541491Y-17354389D02*
X12531967Y-17373436D01*
X12531967Y-17373436D02*
X12522444Y-17382960D01*
X12522444Y-17382960D02*
X12503396Y-17392484D01*
X12503396Y-17392484D02*
X12484348Y-17392484D01*
X12484348Y-17392484D02*
X12465301Y-17382960D01*
X12465301Y-17382960D02*
X12455777Y-17373436D01*
X12455777Y-17373436D02*
X12446253Y-17354389D01*
X12446253Y-17354389D02*
X12436729Y-17316293D01*
X12436729Y-17316293D02*
X12436729Y-17268674D01*
X12436729Y-17268674D02*
X12446253Y-17230579D01*
X12446253Y-17230579D02*
X12455777Y-17211531D01*
X12455777Y-17211531D02*
X12465301Y-17202008D01*
X12465301Y-17202008D02*
X12484348Y-17192484D01*
X12665301Y-17278198D02*
X12646253Y-17268674D01*
X12646253Y-17268674D02*
X12636729Y-17259150D01*
X12636729Y-17259150D02*
X12627206Y-17240103D01*
X12627206Y-17240103D02*
X12627206Y-17230579D01*
X12627206Y-17230579D02*
X12636729Y-17211531D01*
X12636729Y-17211531D02*
X12646253Y-17202008D01*
X12646253Y-17202008D02*
X12665301Y-17192484D01*
X12665301Y-17192484D02*
X12703396Y-17192484D01*
X12703396Y-17192484D02*
X12722444Y-17202008D01*
X12722444Y-17202008D02*
X12731967Y-17211531D01*
X12731967Y-17211531D02*
X12741491Y-17230579D01*
X12741491Y-17230579D02*
X12741491Y-17240103D01*
X12741491Y-17240103D02*
X12731967Y-17259150D01*
X12731967Y-17259150D02*
X12722444Y-17268674D01*
X12722444Y-17268674D02*
X12703396Y-17278198D01*
X12703396Y-17278198D02*
X12665301Y-17278198D01*
X12665301Y-17278198D02*
X12646253Y-17287722D01*
X12646253Y-17287722D02*
X12636729Y-17297246D01*
X12636729Y-17297246D02*
X12627206Y-17316293D01*
X12627206Y-17316293D02*
X12627206Y-17354389D01*
X12627206Y-17354389D02*
X12636729Y-17373436D01*
X12636729Y-17373436D02*
X12646253Y-17382960D01*
X12646253Y-17382960D02*
X12665301Y-17392484D01*
X12665301Y-17392484D02*
X12703396Y-17392484D01*
X12703396Y-17392484D02*
X12722444Y-17382960D01*
X12722444Y-17382960D02*
X12731967Y-17373436D01*
X12731967Y-17373436D02*
X12741491Y-17354389D01*
X12741491Y-17354389D02*
X12741491Y-17316293D01*
X12741491Y-17316293D02*
X12731967Y-17297246D01*
X12731967Y-17297246D02*
X12722444Y-17287722D01*
X12722444Y-17287722D02*
X12703396Y-17278198D01*
X12817682Y-17211531D02*
X12827206Y-17202008D01*
X12827206Y-17202008D02*
X12846253Y-17192484D01*
X12846253Y-17192484D02*
X12893872Y-17192484D01*
X12893872Y-17192484D02*
X12912920Y-17202008D01*
X12912920Y-17202008D02*
X12922444Y-17211531D01*
X12922444Y-17211531D02*
X12931967Y-17230579D01*
X12931967Y-17230579D02*
X12931967Y-17249627D01*
X12931967Y-17249627D02*
X12922444Y-17278198D01*
X12922444Y-17278198D02*
X12808158Y-17392484D01*
X12808158Y-17392484D02*
X12931967Y-17392484D01*
X13055777Y-17192484D02*
X13074825Y-17192484D01*
X13074825Y-17192484D02*
X13093872Y-17202008D01*
X13093872Y-17202008D02*
X13103396Y-17211531D01*
X13103396Y-17211531D02*
X13112920Y-17230579D01*
X13112920Y-17230579D02*
X13122444Y-17268674D01*
X13122444Y-17268674D02*
X13122444Y-17316293D01*
X13122444Y-17316293D02*
X13112920Y-17354389D01*
X13112920Y-17354389D02*
X13103396Y-17373436D01*
X13103396Y-17373436D02*
X13093872Y-17382960D01*
X13093872Y-17382960D02*
X13074825Y-17392484D01*
X13074825Y-17392484D02*
X13055777Y-17392484D01*
X13055777Y-17392484D02*
X13036729Y-17382960D01*
X13036729Y-17382960D02*
X13027206Y-17373436D01*
X13027206Y-17373436D02*
X13017682Y-17354389D01*
X13017682Y-17354389D02*
X13008158Y-17316293D01*
X13008158Y-17316293D02*
X13008158Y-17268674D01*
X13008158Y-17268674D02*
X13017682Y-17230579D01*
X13017682Y-17230579D02*
X13027206Y-17211531D01*
X13027206Y-17211531D02*
X13036729Y-17202008D01*
X13036729Y-17202008D02*
X13055777Y-17192484D01*
X13198634Y-17192484D02*
X13198634Y-17230579D01*
X13274825Y-17192484D02*
X13274825Y-17230579D01*
X13570063Y-17468674D02*
X13560539Y-17459150D01*
X13560539Y-17459150D02*
X13541491Y-17430579D01*
X13541491Y-17430579D02*
X13531968Y-17411531D01*
X13531968Y-17411531D02*
X13522444Y-17382960D01*
X13522444Y-17382960D02*
X13512920Y-17335341D01*
X13512920Y-17335341D02*
X13512920Y-17297246D01*
X13512920Y-17297246D02*
X13522444Y-17249627D01*
X13522444Y-17249627D02*
X13531968Y-17221055D01*
X13531968Y-17221055D02*
X13541491Y-17202008D01*
X13541491Y-17202008D02*
X13560539Y-17173436D01*
X13560539Y-17173436D02*
X13570063Y-17163912D01*
X13674825Y-17278198D02*
X13655777Y-17268674D01*
X13655777Y-17268674D02*
X13646253Y-17259150D01*
X13646253Y-17259150D02*
X13636729Y-17240103D01*
X13636729Y-17240103D02*
X13636729Y-17230579D01*
X13636729Y-17230579D02*
X13646253Y-17211531D01*
X13646253Y-17211531D02*
X13655777Y-17202008D01*
X13655777Y-17202008D02*
X13674825Y-17192484D01*
X13674825Y-17192484D02*
X13712920Y-17192484D01*
X13712920Y-17192484D02*
X13731968Y-17202008D01*
X13731968Y-17202008D02*
X13741491Y-17211531D01*
X13741491Y-17211531D02*
X13751015Y-17230579D01*
X13751015Y-17230579D02*
X13751015Y-17240103D01*
X13751015Y-17240103D02*
X13741491Y-17259150D01*
X13741491Y-17259150D02*
X13731968Y-17268674D01*
X13731968Y-17268674D02*
X13712920Y-17278198D01*
X13712920Y-17278198D02*
X13674825Y-17278198D01*
X13674825Y-17278198D02*
X13655777Y-17287722D01*
X13655777Y-17287722D02*
X13646253Y-17297246D01*
X13646253Y-17297246D02*
X13636729Y-17316293D01*
X13636729Y-17316293D02*
X13636729Y-17354389D01*
X13636729Y-17354389D02*
X13646253Y-17373436D01*
X13646253Y-17373436D02*
X13655777Y-17382960D01*
X13655777Y-17382960D02*
X13674825Y-17392484D01*
X13674825Y-17392484D02*
X13712920Y-17392484D01*
X13712920Y-17392484D02*
X13731968Y-17382960D01*
X13731968Y-17382960D02*
X13741491Y-17373436D01*
X13741491Y-17373436D02*
X13751015Y-17354389D01*
X13751015Y-17354389D02*
X13751015Y-17316293D01*
X13751015Y-17316293D02*
X13741491Y-17297246D01*
X13741491Y-17297246D02*
X13731968Y-17287722D01*
X13731968Y-17287722D02*
X13712920Y-17278198D01*
X13989110Y-17392484D02*
X13989110Y-17192484D01*
X14074825Y-17392484D02*
X14074825Y-17287722D01*
X14074825Y-17287722D02*
X14065301Y-17268674D01*
X14065301Y-17268674D02*
X14046253Y-17259150D01*
X14046253Y-17259150D02*
X14017682Y-17259150D01*
X14017682Y-17259150D02*
X13998634Y-17268674D01*
X13998634Y-17268674D02*
X13989110Y-17278198D01*
X14198634Y-17392484D02*
X14179587Y-17382960D01*
X14179587Y-17382960D02*
X14170063Y-17373436D01*
X14170063Y-17373436D02*
X14160539Y-17354389D01*
X14160539Y-17354389D02*
X14160539Y-17297246D01*
X14160539Y-17297246D02*
X14170063Y-17278198D01*
X14170063Y-17278198D02*
X14179587Y-17268674D01*
X14179587Y-17268674D02*
X14198634Y-17259150D01*
X14198634Y-17259150D02*
X14227206Y-17259150D01*
X14227206Y-17259150D02*
X14246253Y-17268674D01*
X14246253Y-17268674D02*
X14255777Y-17278198D01*
X14255777Y-17278198D02*
X14265301Y-17297246D01*
X14265301Y-17297246D02*
X14265301Y-17354389D01*
X14265301Y-17354389D02*
X14255777Y-17373436D01*
X14255777Y-17373436D02*
X14246253Y-17382960D01*
X14246253Y-17382960D02*
X14227206Y-17392484D01*
X14227206Y-17392484D02*
X14198634Y-17392484D01*
X14379587Y-17392484D02*
X14360539Y-17382960D01*
X14360539Y-17382960D02*
X14351015Y-17363912D01*
X14351015Y-17363912D02*
X14351015Y-17192484D01*
X14531968Y-17382960D02*
X14512920Y-17392484D01*
X14512920Y-17392484D02*
X14474825Y-17392484D01*
X14474825Y-17392484D02*
X14455777Y-17382960D01*
X14455777Y-17382960D02*
X14446253Y-17363912D01*
X14446253Y-17363912D02*
X14446253Y-17287722D01*
X14446253Y-17287722D02*
X14455777Y-17268674D01*
X14455777Y-17268674D02*
X14474825Y-17259150D01*
X14474825Y-17259150D02*
X14512920Y-17259150D01*
X14512920Y-17259150D02*
X14531968Y-17268674D01*
X14531968Y-17268674D02*
X14541491Y-17287722D01*
X14541491Y-17287722D02*
X14541491Y-17306770D01*
X14541491Y-17306770D02*
X14446253Y-17325817D01*
X14617682Y-17382960D02*
X14636730Y-17392484D01*
X14636730Y-17392484D02*
X14674825Y-17392484D01*
X14674825Y-17392484D02*
X14693872Y-17382960D01*
X14693872Y-17382960D02*
X14703396Y-17363912D01*
X14703396Y-17363912D02*
X14703396Y-17354389D01*
X14703396Y-17354389D02*
X14693872Y-17335341D01*
X14693872Y-17335341D02*
X14674825Y-17325817D01*
X14674825Y-17325817D02*
X14646253Y-17325817D01*
X14646253Y-17325817D02*
X14627206Y-17316293D01*
X14627206Y-17316293D02*
X14617682Y-17297246D01*
X14617682Y-17297246D02*
X14617682Y-17287722D01*
X14617682Y-17287722D02*
X14627206Y-17268674D01*
X14627206Y-17268674D02*
X14646253Y-17259150D01*
X14646253Y-17259150D02*
X14674825Y-17259150D01*
X14674825Y-17259150D02*
X14693872Y-17268674D01*
X14770063Y-17468674D02*
X14779587Y-17459150D01*
X14779587Y-17459150D02*
X14798634Y-17430579D01*
X14798634Y-17430579D02*
X14808158Y-17411531D01*
X14808158Y-17411531D02*
X14817682Y-17382960D01*
X14817682Y-17382960D02*
X14827206Y-17335341D01*
X14827206Y-17335341D02*
X14827206Y-17297246D01*
X14827206Y-17297246D02*
X14817682Y-17249627D01*
X14817682Y-17249627D02*
X14808158Y-17221055D01*
X14808158Y-17221055D02*
X14798634Y-17202008D01*
X14798634Y-17202008D02*
X14779587Y-17173436D01*
X14779587Y-17173436D02*
X14770063Y-17163912D01*
X9795000Y-17521000D02*
X9995000Y-17721000D01*
X9995000Y-17521000D02*
X9795000Y-17721000D01*
X9995000Y-17621000D02*
G75*
G02*
X9795000Y-17621000I-100000J0D01*
G01*
X9795000Y-17621000D02*
G75*
G02*
X9995000Y-17621000I100000J0D01*
G01*
X10246253Y-17531531D02*
X10255777Y-17522008D01*
X10255777Y-17522008D02*
X10274824Y-17512484D01*
X10274824Y-17512484D02*
X10322444Y-17512484D01*
X10322444Y-17512484D02*
X10341491Y-17522008D01*
X10341491Y-17522008D02*
X10351015Y-17531531D01*
X10351015Y-17531531D02*
X10360539Y-17550579D01*
X10360539Y-17550579D02*
X10360539Y-17569627D01*
X10360539Y-17569627D02*
X10351015Y-17598198D01*
X10351015Y-17598198D02*
X10236729Y-17712484D01*
X10236729Y-17712484D02*
X10360539Y-17712484D01*
X10446253Y-17693436D02*
X10455777Y-17702960D01*
X10455777Y-17702960D02*
X10446253Y-17712484D01*
X10446253Y-17712484D02*
X10436729Y-17702960D01*
X10436729Y-17702960D02*
X10446253Y-17693436D01*
X10446253Y-17693436D02*
X10446253Y-17712484D01*
X10531967Y-17531531D02*
X10541491Y-17522008D01*
X10541491Y-17522008D02*
X10560539Y-17512484D01*
X10560539Y-17512484D02*
X10608158Y-17512484D01*
X10608158Y-17512484D02*
X10627205Y-17522008D01*
X10627205Y-17522008D02*
X10636729Y-17531531D01*
X10636729Y-17531531D02*
X10646253Y-17550579D01*
X10646253Y-17550579D02*
X10646253Y-17569627D01*
X10646253Y-17569627D02*
X10636729Y-17598198D01*
X10636729Y-17598198D02*
X10522444Y-17712484D01*
X10522444Y-17712484D02*
X10646253Y-17712484D01*
X10760539Y-17598198D02*
X10741491Y-17588674D01*
X10741491Y-17588674D02*
X10731967Y-17579150D01*
X10731967Y-17579150D02*
X10722444Y-17560103D01*
X10722444Y-17560103D02*
X10722444Y-17550579D01*
X10722444Y-17550579D02*
X10731967Y-17531531D01*
X10731967Y-17531531D02*
X10741491Y-17522008D01*
X10741491Y-17522008D02*
X10760539Y-17512484D01*
X10760539Y-17512484D02*
X10798634Y-17512484D01*
X10798634Y-17512484D02*
X10817682Y-17522008D01*
X10817682Y-17522008D02*
X10827205Y-17531531D01*
X10827205Y-17531531D02*
X10836729Y-17550579D01*
X10836729Y-17550579D02*
X10836729Y-17560103D01*
X10836729Y-17560103D02*
X10827205Y-17579150D01*
X10827205Y-17579150D02*
X10817682Y-17588674D01*
X10817682Y-17588674D02*
X10798634Y-17598198D01*
X10798634Y-17598198D02*
X10760539Y-17598198D01*
X10760539Y-17598198D02*
X10741491Y-17607722D01*
X10741491Y-17607722D02*
X10731967Y-17617246D01*
X10731967Y-17617246D02*
X10722444Y-17636293D01*
X10722444Y-17636293D02*
X10722444Y-17674389D01*
X10722444Y-17674389D02*
X10731967Y-17693436D01*
X10731967Y-17693436D02*
X10741491Y-17702960D01*
X10741491Y-17702960D02*
X10760539Y-17712484D01*
X10760539Y-17712484D02*
X10798634Y-17712484D01*
X10798634Y-17712484D02*
X10817682Y-17702960D01*
X10817682Y-17702960D02*
X10827205Y-17693436D01*
X10827205Y-17693436D02*
X10836729Y-17674389D01*
X10836729Y-17674389D02*
X10836729Y-17636293D01*
X10836729Y-17636293D02*
X10827205Y-17617246D01*
X10827205Y-17617246D02*
X10817682Y-17607722D01*
X10817682Y-17607722D02*
X10798634Y-17598198D01*
X11008158Y-17512484D02*
X10970063Y-17512484D01*
X10970063Y-17512484D02*
X10951015Y-17522008D01*
X10951015Y-17522008D02*
X10941491Y-17531531D01*
X10941491Y-17531531D02*
X10922444Y-17560103D01*
X10922444Y-17560103D02*
X10912920Y-17598198D01*
X10912920Y-17598198D02*
X10912920Y-17674389D01*
X10912920Y-17674389D02*
X10922444Y-17693436D01*
X10922444Y-17693436D02*
X10931967Y-17702960D01*
X10931967Y-17702960D02*
X10951015Y-17712484D01*
X10951015Y-17712484D02*
X10989110Y-17712484D01*
X10989110Y-17712484D02*
X11008158Y-17702960D01*
X11008158Y-17702960D02*
X11017682Y-17693436D01*
X11017682Y-17693436D02*
X11027205Y-17674389D01*
X11027205Y-17674389D02*
X11027205Y-17626770D01*
X11027205Y-17626770D02*
X11017682Y-17607722D01*
X11017682Y-17607722D02*
X11008158Y-17598198D01*
X11008158Y-17598198D02*
X10989110Y-17588674D01*
X10989110Y-17588674D02*
X10951015Y-17588674D01*
X10951015Y-17588674D02*
X10931967Y-17598198D01*
X10931967Y-17598198D02*
X10922444Y-17607722D01*
X10922444Y-17607722D02*
X10912920Y-17626770D01*
X11112920Y-17712484D02*
X11112920Y-17579150D01*
X11112920Y-17598198D02*
X11122444Y-17588674D01*
X11122444Y-17588674D02*
X11141491Y-17579150D01*
X11141491Y-17579150D02*
X11170063Y-17579150D01*
X11170063Y-17579150D02*
X11189110Y-17588674D01*
X11189110Y-17588674D02*
X11198634Y-17607722D01*
X11198634Y-17607722D02*
X11198634Y-17712484D01*
X11198634Y-17607722D02*
X11208158Y-17588674D01*
X11208158Y-17588674D02*
X11227205Y-17579150D01*
X11227205Y-17579150D02*
X11255777Y-17579150D01*
X11255777Y-17579150D02*
X11274824Y-17588674D01*
X11274824Y-17588674D02*
X11284348Y-17607722D01*
X11284348Y-17607722D02*
X11284348Y-17712484D01*
X11379586Y-17712484D02*
X11379586Y-17579150D01*
X11379586Y-17598198D02*
X11389110Y-17588674D01*
X11389110Y-17588674D02*
X11408158Y-17579150D01*
X11408158Y-17579150D02*
X11436729Y-17579150D01*
X11436729Y-17579150D02*
X11455777Y-17588674D01*
X11455777Y-17588674D02*
X11465301Y-17607722D01*
X11465301Y-17607722D02*
X11465301Y-17712484D01*
X11465301Y-17607722D02*
X11474824Y-17588674D01*
X11474824Y-17588674D02*
X11493872Y-17579150D01*
X11493872Y-17579150D02*
X11522443Y-17579150D01*
X11522443Y-17579150D02*
X11541491Y-17588674D01*
X11541491Y-17588674D02*
X11551015Y-17607722D01*
X11551015Y-17607722D02*
X11551015Y-17712484D01*
X11941491Y-17502960D02*
X11770063Y-17760103D01*
X12198634Y-17512484D02*
X12217682Y-17512484D01*
X12217682Y-17512484D02*
X12236729Y-17522008D01*
X12236729Y-17522008D02*
X12246253Y-17531531D01*
X12246253Y-17531531D02*
X12255777Y-17550579D01*
X12255777Y-17550579D02*
X12265301Y-17588674D01*
X12265301Y-17588674D02*
X12265301Y-17636293D01*
X12265301Y-17636293D02*
X12255777Y-17674389D01*
X12255777Y-17674389D02*
X12246253Y-17693436D01*
X12246253Y-17693436D02*
X12236729Y-17702960D01*
X12236729Y-17702960D02*
X12217682Y-17712484D01*
X12217682Y-17712484D02*
X12198634Y-17712484D01*
X12198634Y-17712484D02*
X12179586Y-17702960D01*
X12179586Y-17702960D02*
X12170063Y-17693436D01*
X12170063Y-17693436D02*
X12160539Y-17674389D01*
X12160539Y-17674389D02*
X12151015Y-17636293D01*
X12151015Y-17636293D02*
X12151015Y-17588674D01*
X12151015Y-17588674D02*
X12160539Y-17550579D01*
X12160539Y-17550579D02*
X12170063Y-17531531D01*
X12170063Y-17531531D02*
X12179586Y-17522008D01*
X12179586Y-17522008D02*
X12198634Y-17512484D01*
X12351015Y-17693436D02*
X12360539Y-17702960D01*
X12360539Y-17702960D02*
X12351015Y-17712484D01*
X12351015Y-17712484D02*
X12341491Y-17702960D01*
X12341491Y-17702960D02*
X12351015Y-17693436D01*
X12351015Y-17693436D02*
X12351015Y-17712484D01*
X12484348Y-17512484D02*
X12503396Y-17512484D01*
X12503396Y-17512484D02*
X12522444Y-17522008D01*
X12522444Y-17522008D02*
X12531967Y-17531531D01*
X12531967Y-17531531D02*
X12541491Y-17550579D01*
X12541491Y-17550579D02*
X12551015Y-17588674D01*
X12551015Y-17588674D02*
X12551015Y-17636293D01*
X12551015Y-17636293D02*
X12541491Y-17674389D01*
X12541491Y-17674389D02*
X12531967Y-17693436D01*
X12531967Y-17693436D02*
X12522444Y-17702960D01*
X12522444Y-17702960D02*
X12503396Y-17712484D01*
X12503396Y-17712484D02*
X12484348Y-17712484D01*
X12484348Y-17712484D02*
X12465301Y-17702960D01*
X12465301Y-17702960D02*
X12455777Y-17693436D01*
X12455777Y-17693436D02*
X12446253Y-17674389D01*
X12446253Y-17674389D02*
X12436729Y-17636293D01*
X12436729Y-17636293D02*
X12436729Y-17588674D01*
X12436729Y-17588674D02*
X12446253Y-17550579D01*
X12446253Y-17550579D02*
X12455777Y-17531531D01*
X12455777Y-17531531D02*
X12465301Y-17522008D01*
X12465301Y-17522008D02*
X12484348Y-17512484D01*
X12646253Y-17712484D02*
X12684348Y-17712484D01*
X12684348Y-17712484D02*
X12703396Y-17702960D01*
X12703396Y-17702960D02*
X12712920Y-17693436D01*
X12712920Y-17693436D02*
X12731967Y-17664865D01*
X12731967Y-17664865D02*
X12741491Y-17626770D01*
X12741491Y-17626770D02*
X12741491Y-17550579D01*
X12741491Y-17550579D02*
X12731967Y-17531531D01*
X12731967Y-17531531D02*
X12722444Y-17522008D01*
X12722444Y-17522008D02*
X12703396Y-17512484D01*
X12703396Y-17512484D02*
X12665301Y-17512484D01*
X12665301Y-17512484D02*
X12646253Y-17522008D01*
X12646253Y-17522008D02*
X12636729Y-17531531D01*
X12636729Y-17531531D02*
X12627206Y-17550579D01*
X12627206Y-17550579D02*
X12627206Y-17598198D01*
X12627206Y-17598198D02*
X12636729Y-17617246D01*
X12636729Y-17617246D02*
X12646253Y-17626770D01*
X12646253Y-17626770D02*
X12665301Y-17636293D01*
X12665301Y-17636293D02*
X12703396Y-17636293D01*
X12703396Y-17636293D02*
X12722444Y-17626770D01*
X12722444Y-17626770D02*
X12731967Y-17617246D01*
X12731967Y-17617246D02*
X12741491Y-17598198D01*
X12865301Y-17512484D02*
X12884348Y-17512484D01*
X12884348Y-17512484D02*
X12903396Y-17522008D01*
X12903396Y-17522008D02*
X12912920Y-17531531D01*
X12912920Y-17531531D02*
X12922444Y-17550579D01*
X12922444Y-17550579D02*
X12931967Y-17588674D01*
X12931967Y-17588674D02*
X12931967Y-17636293D01*
X12931967Y-17636293D02*
X12922444Y-17674389D01*
X12922444Y-17674389D02*
X12912920Y-17693436D01*
X12912920Y-17693436D02*
X12903396Y-17702960D01*
X12903396Y-17702960D02*
X12884348Y-17712484D01*
X12884348Y-17712484D02*
X12865301Y-17712484D01*
X12865301Y-17712484D02*
X12846253Y-17702960D01*
X12846253Y-17702960D02*
X12836729Y-17693436D01*
X12836729Y-17693436D02*
X12827206Y-17674389D01*
X12827206Y-17674389D02*
X12817682Y-17636293D01*
X12817682Y-17636293D02*
X12817682Y-17588674D01*
X12817682Y-17588674D02*
X12827206Y-17550579D01*
X12827206Y-17550579D02*
X12836729Y-17531531D01*
X12836729Y-17531531D02*
X12846253Y-17522008D01*
X12846253Y-17522008D02*
X12865301Y-17512484D01*
X13055777Y-17512484D02*
X13074825Y-17512484D01*
X13074825Y-17512484D02*
X13093872Y-17522008D01*
X13093872Y-17522008D02*
X13103396Y-17531531D01*
X13103396Y-17531531D02*
X13112920Y-17550579D01*
X13112920Y-17550579D02*
X13122444Y-17588674D01*
X13122444Y-17588674D02*
X13122444Y-17636293D01*
X13122444Y-17636293D02*
X13112920Y-17674389D01*
X13112920Y-17674389D02*
X13103396Y-17693436D01*
X13103396Y-17693436D02*
X13093872Y-17702960D01*
X13093872Y-17702960D02*
X13074825Y-17712484D01*
X13074825Y-17712484D02*
X13055777Y-17712484D01*
X13055777Y-17712484D02*
X13036729Y-17702960D01*
X13036729Y-17702960D02*
X13027206Y-17693436D01*
X13027206Y-17693436D02*
X13017682Y-17674389D01*
X13017682Y-17674389D02*
X13008158Y-17636293D01*
X13008158Y-17636293D02*
X13008158Y-17588674D01*
X13008158Y-17588674D02*
X13017682Y-17550579D01*
X13017682Y-17550579D02*
X13027206Y-17531531D01*
X13027206Y-17531531D02*
X13036729Y-17522008D01*
X13036729Y-17522008D02*
X13055777Y-17512484D01*
X13198634Y-17512484D02*
X13198634Y-17550579D01*
X13274825Y-17512484D02*
X13274825Y-17550579D01*
X13570063Y-17788674D02*
X13560539Y-17779150D01*
X13560539Y-17779150D02*
X13541491Y-17750579D01*
X13541491Y-17750579D02*
X13531968Y-17731531D01*
X13531968Y-17731531D02*
X13522444Y-17702960D01*
X13522444Y-17702960D02*
X13512920Y-17655341D01*
X13512920Y-17655341D02*
X13512920Y-17617246D01*
X13512920Y-17617246D02*
X13522444Y-17569627D01*
X13522444Y-17569627D02*
X13531968Y-17541055D01*
X13531968Y-17541055D02*
X13541491Y-17522008D01*
X13541491Y-17522008D02*
X13560539Y-17493436D01*
X13560539Y-17493436D02*
X13570063Y-17483912D01*
X13731968Y-17579150D02*
X13731968Y-17712484D01*
X13684348Y-17502960D02*
X13636729Y-17645817D01*
X13636729Y-17645817D02*
X13760539Y-17645817D01*
X13989110Y-17712484D02*
X13989110Y-17512484D01*
X14074825Y-17712484D02*
X14074825Y-17607722D01*
X14074825Y-17607722D02*
X14065301Y-17588674D01*
X14065301Y-17588674D02*
X14046253Y-17579150D01*
X14046253Y-17579150D02*
X14017682Y-17579150D01*
X14017682Y-17579150D02*
X13998634Y-17588674D01*
X13998634Y-17588674D02*
X13989110Y-17598198D01*
X14198634Y-17712484D02*
X14179587Y-17702960D01*
X14179587Y-17702960D02*
X14170063Y-17693436D01*
X14170063Y-17693436D02*
X14160539Y-17674389D01*
X14160539Y-17674389D02*
X14160539Y-17617246D01*
X14160539Y-17617246D02*
X14170063Y-17598198D01*
X14170063Y-17598198D02*
X14179587Y-17588674D01*
X14179587Y-17588674D02*
X14198634Y-17579150D01*
X14198634Y-17579150D02*
X14227206Y-17579150D01*
X14227206Y-17579150D02*
X14246253Y-17588674D01*
X14246253Y-17588674D02*
X14255777Y-17598198D01*
X14255777Y-17598198D02*
X14265301Y-17617246D01*
X14265301Y-17617246D02*
X14265301Y-17674389D01*
X14265301Y-17674389D02*
X14255777Y-17693436D01*
X14255777Y-17693436D02*
X14246253Y-17702960D01*
X14246253Y-17702960D02*
X14227206Y-17712484D01*
X14227206Y-17712484D02*
X14198634Y-17712484D01*
X14379587Y-17712484D02*
X14360539Y-17702960D01*
X14360539Y-17702960D02*
X14351015Y-17683912D01*
X14351015Y-17683912D02*
X14351015Y-17512484D01*
X14531968Y-17702960D02*
X14512920Y-17712484D01*
X14512920Y-17712484D02*
X14474825Y-17712484D01*
X14474825Y-17712484D02*
X14455777Y-17702960D01*
X14455777Y-17702960D02*
X14446253Y-17683912D01*
X14446253Y-17683912D02*
X14446253Y-17607722D01*
X14446253Y-17607722D02*
X14455777Y-17588674D01*
X14455777Y-17588674D02*
X14474825Y-17579150D01*
X14474825Y-17579150D02*
X14512920Y-17579150D01*
X14512920Y-17579150D02*
X14531968Y-17588674D01*
X14531968Y-17588674D02*
X14541491Y-17607722D01*
X14541491Y-17607722D02*
X14541491Y-17626770D01*
X14541491Y-17626770D02*
X14446253Y-17645817D01*
X14617682Y-17702960D02*
X14636730Y-17712484D01*
X14636730Y-17712484D02*
X14674825Y-17712484D01*
X14674825Y-17712484D02*
X14693872Y-17702960D01*
X14693872Y-17702960D02*
X14703396Y-17683912D01*
X14703396Y-17683912D02*
X14703396Y-17674389D01*
X14703396Y-17674389D02*
X14693872Y-17655341D01*
X14693872Y-17655341D02*
X14674825Y-17645817D01*
X14674825Y-17645817D02*
X14646253Y-17645817D01*
X14646253Y-17645817D02*
X14627206Y-17636293D01*
X14627206Y-17636293D02*
X14617682Y-17617246D01*
X14617682Y-17617246D02*
X14617682Y-17607722D01*
X14617682Y-17607722D02*
X14627206Y-17588674D01*
X14627206Y-17588674D02*
X14646253Y-17579150D01*
X14646253Y-17579150D02*
X14674825Y-17579150D01*
X14674825Y-17579150D02*
X14693872Y-17588674D01*
X14770063Y-17788674D02*
X14779587Y-17779150D01*
X14779587Y-17779150D02*
X14798634Y-17750579D01*
X14798634Y-17750579D02*
X14808158Y-17731531D01*
X14808158Y-17731531D02*
X14817682Y-17702960D01*
X14817682Y-17702960D02*
X14827206Y-17655341D01*
X14827206Y-17655341D02*
X14827206Y-17617246D01*
X14827206Y-17617246D02*
X14817682Y-17569627D01*
X14817682Y-17569627D02*
X14808158Y-17541055D01*
X14808158Y-17541055D02*
X14798634Y-17522008D01*
X14798634Y-17522008D02*
X14779587Y-17493436D01*
X14779587Y-17493436D02*
X14770063Y-17483912D01*
X9795000Y-17841000D02*
X9995000Y-18041000D01*
X9995000Y-17841000D02*
X9795000Y-18041000D01*
X9895000Y-17841000D02*
X9895000Y-18041000D01*
X9795000Y-17941000D02*
X9995000Y-17941000D01*
X10236729Y-17832484D02*
X10360539Y-17832484D01*
X10360539Y-17832484D02*
X10293872Y-17908674D01*
X10293872Y-17908674D02*
X10322444Y-17908674D01*
X10322444Y-17908674D02*
X10341491Y-17918198D01*
X10341491Y-17918198D02*
X10351015Y-17927722D01*
X10351015Y-17927722D02*
X10360539Y-17946770D01*
X10360539Y-17946770D02*
X10360539Y-17994389D01*
X10360539Y-17994389D02*
X10351015Y-18013436D01*
X10351015Y-18013436D02*
X10341491Y-18022960D01*
X10341491Y-18022960D02*
X10322444Y-18032484D01*
X10322444Y-18032484D02*
X10265301Y-18032484D01*
X10265301Y-18032484D02*
X10246253Y-18022960D01*
X10246253Y-18022960D02*
X10236729Y-18013436D01*
X10446253Y-18013436D02*
X10455777Y-18022960D01*
X10455777Y-18022960D02*
X10446253Y-18032484D01*
X10446253Y-18032484D02*
X10436729Y-18022960D01*
X10436729Y-18022960D02*
X10446253Y-18013436D01*
X10446253Y-18013436D02*
X10446253Y-18032484D01*
X10531967Y-17851531D02*
X10541491Y-17842008D01*
X10541491Y-17842008D02*
X10560539Y-17832484D01*
X10560539Y-17832484D02*
X10608158Y-17832484D01*
X10608158Y-17832484D02*
X10627205Y-17842008D01*
X10627205Y-17842008D02*
X10636729Y-17851531D01*
X10636729Y-17851531D02*
X10646253Y-17870579D01*
X10646253Y-17870579D02*
X10646253Y-17889627D01*
X10646253Y-17889627D02*
X10636729Y-17918198D01*
X10636729Y-17918198D02*
X10522444Y-18032484D01*
X10522444Y-18032484D02*
X10646253Y-18032484D01*
X10770063Y-17832484D02*
X10789110Y-17832484D01*
X10789110Y-17832484D02*
X10808158Y-17842008D01*
X10808158Y-17842008D02*
X10817682Y-17851531D01*
X10817682Y-17851531D02*
X10827205Y-17870579D01*
X10827205Y-17870579D02*
X10836729Y-17908674D01*
X10836729Y-17908674D02*
X10836729Y-17956293D01*
X10836729Y-17956293D02*
X10827205Y-17994389D01*
X10827205Y-17994389D02*
X10817682Y-18013436D01*
X10817682Y-18013436D02*
X10808158Y-18022960D01*
X10808158Y-18022960D02*
X10789110Y-18032484D01*
X10789110Y-18032484D02*
X10770063Y-18032484D01*
X10770063Y-18032484D02*
X10751015Y-18022960D01*
X10751015Y-18022960D02*
X10741491Y-18013436D01*
X10741491Y-18013436D02*
X10731967Y-17994389D01*
X10731967Y-17994389D02*
X10722444Y-17956293D01*
X10722444Y-17956293D02*
X10722444Y-17908674D01*
X10722444Y-17908674D02*
X10731967Y-17870579D01*
X10731967Y-17870579D02*
X10741491Y-17851531D01*
X10741491Y-17851531D02*
X10751015Y-17842008D01*
X10751015Y-17842008D02*
X10770063Y-17832484D01*
X10960539Y-17832484D02*
X10979586Y-17832484D01*
X10979586Y-17832484D02*
X10998634Y-17842008D01*
X10998634Y-17842008D02*
X11008158Y-17851531D01*
X11008158Y-17851531D02*
X11017682Y-17870579D01*
X11017682Y-17870579D02*
X11027205Y-17908674D01*
X11027205Y-17908674D02*
X11027205Y-17956293D01*
X11027205Y-17956293D02*
X11017682Y-17994389D01*
X11017682Y-17994389D02*
X11008158Y-18013436D01*
X11008158Y-18013436D02*
X10998634Y-18022960D01*
X10998634Y-18022960D02*
X10979586Y-18032484D01*
X10979586Y-18032484D02*
X10960539Y-18032484D01*
X10960539Y-18032484D02*
X10941491Y-18022960D01*
X10941491Y-18022960D02*
X10931967Y-18013436D01*
X10931967Y-18013436D02*
X10922444Y-17994389D01*
X10922444Y-17994389D02*
X10912920Y-17956293D01*
X10912920Y-17956293D02*
X10912920Y-17908674D01*
X10912920Y-17908674D02*
X10922444Y-17870579D01*
X10922444Y-17870579D02*
X10931967Y-17851531D01*
X10931967Y-17851531D02*
X10941491Y-17842008D01*
X10941491Y-17842008D02*
X10960539Y-17832484D01*
X11112920Y-18032484D02*
X11112920Y-17899150D01*
X11112920Y-17918198D02*
X11122444Y-17908674D01*
X11122444Y-17908674D02*
X11141491Y-17899150D01*
X11141491Y-17899150D02*
X11170063Y-17899150D01*
X11170063Y-17899150D02*
X11189110Y-17908674D01*
X11189110Y-17908674D02*
X11198634Y-17927722D01*
X11198634Y-17927722D02*
X11198634Y-18032484D01*
X11198634Y-17927722D02*
X11208158Y-17908674D01*
X11208158Y-17908674D02*
X11227205Y-17899150D01*
X11227205Y-17899150D02*
X11255777Y-17899150D01*
X11255777Y-17899150D02*
X11274824Y-17908674D01*
X11274824Y-17908674D02*
X11284348Y-17927722D01*
X11284348Y-17927722D02*
X11284348Y-18032484D01*
X11379586Y-18032484D02*
X11379586Y-17899150D01*
X11379586Y-17918198D02*
X11389110Y-17908674D01*
X11389110Y-17908674D02*
X11408158Y-17899150D01*
X11408158Y-17899150D02*
X11436729Y-17899150D01*
X11436729Y-17899150D02*
X11455777Y-17908674D01*
X11455777Y-17908674D02*
X11465301Y-17927722D01*
X11465301Y-17927722D02*
X11465301Y-18032484D01*
X11465301Y-17927722D02*
X11474824Y-17908674D01*
X11474824Y-17908674D02*
X11493872Y-17899150D01*
X11493872Y-17899150D02*
X11522443Y-17899150D01*
X11522443Y-17899150D02*
X11541491Y-17908674D01*
X11541491Y-17908674D02*
X11551015Y-17927722D01*
X11551015Y-17927722D02*
X11551015Y-18032484D01*
X11941491Y-17822960D02*
X11770063Y-18080103D01*
X12198634Y-17832484D02*
X12217682Y-17832484D01*
X12217682Y-17832484D02*
X12236729Y-17842008D01*
X12236729Y-17842008D02*
X12246253Y-17851531D01*
X12246253Y-17851531D02*
X12255777Y-17870579D01*
X12255777Y-17870579D02*
X12265301Y-17908674D01*
X12265301Y-17908674D02*
X12265301Y-17956293D01*
X12265301Y-17956293D02*
X12255777Y-17994389D01*
X12255777Y-17994389D02*
X12246253Y-18013436D01*
X12246253Y-18013436D02*
X12236729Y-18022960D01*
X12236729Y-18022960D02*
X12217682Y-18032484D01*
X12217682Y-18032484D02*
X12198634Y-18032484D01*
X12198634Y-18032484D02*
X12179586Y-18022960D01*
X12179586Y-18022960D02*
X12170063Y-18013436D01*
X12170063Y-18013436D02*
X12160539Y-17994389D01*
X12160539Y-17994389D02*
X12151015Y-17956293D01*
X12151015Y-17956293D02*
X12151015Y-17908674D01*
X12151015Y-17908674D02*
X12160539Y-17870579D01*
X12160539Y-17870579D02*
X12170063Y-17851531D01*
X12170063Y-17851531D02*
X12179586Y-17842008D01*
X12179586Y-17842008D02*
X12198634Y-17832484D01*
X12351015Y-18013436D02*
X12360539Y-18022960D01*
X12360539Y-18022960D02*
X12351015Y-18032484D01*
X12351015Y-18032484D02*
X12341491Y-18022960D01*
X12341491Y-18022960D02*
X12351015Y-18013436D01*
X12351015Y-18013436D02*
X12351015Y-18032484D01*
X12551015Y-18032484D02*
X12436729Y-18032484D01*
X12493872Y-18032484D02*
X12493872Y-17832484D01*
X12493872Y-17832484D02*
X12474825Y-17861055D01*
X12474825Y-17861055D02*
X12455777Y-17880103D01*
X12455777Y-17880103D02*
X12436729Y-17889627D01*
X12627206Y-17851531D02*
X12636729Y-17842008D01*
X12636729Y-17842008D02*
X12655777Y-17832484D01*
X12655777Y-17832484D02*
X12703396Y-17832484D01*
X12703396Y-17832484D02*
X12722444Y-17842008D01*
X12722444Y-17842008D02*
X12731967Y-17851531D01*
X12731967Y-17851531D02*
X12741491Y-17870579D01*
X12741491Y-17870579D02*
X12741491Y-17889627D01*
X12741491Y-17889627D02*
X12731967Y-17918198D01*
X12731967Y-17918198D02*
X12617682Y-18032484D01*
X12617682Y-18032484D02*
X12741491Y-18032484D01*
X12912920Y-17832484D02*
X12874825Y-17832484D01*
X12874825Y-17832484D02*
X12855777Y-17842008D01*
X12855777Y-17842008D02*
X12846253Y-17851531D01*
X12846253Y-17851531D02*
X12827206Y-17880103D01*
X12827206Y-17880103D02*
X12817682Y-17918198D01*
X12817682Y-17918198D02*
X12817682Y-17994389D01*
X12817682Y-17994389D02*
X12827206Y-18013436D01*
X12827206Y-18013436D02*
X12836729Y-18022960D01*
X12836729Y-18022960D02*
X12855777Y-18032484D01*
X12855777Y-18032484D02*
X12893872Y-18032484D01*
X12893872Y-18032484D02*
X12912920Y-18022960D01*
X12912920Y-18022960D02*
X12922444Y-18013436D01*
X12922444Y-18013436D02*
X12931967Y-17994389D01*
X12931967Y-17994389D02*
X12931967Y-17946770D01*
X12931967Y-17946770D02*
X12922444Y-17927722D01*
X12922444Y-17927722D02*
X12912920Y-17918198D01*
X12912920Y-17918198D02*
X12893872Y-17908674D01*
X12893872Y-17908674D02*
X12855777Y-17908674D01*
X12855777Y-17908674D02*
X12836729Y-17918198D01*
X12836729Y-17918198D02*
X12827206Y-17927722D01*
X12827206Y-17927722D02*
X12817682Y-17946770D01*
X13055777Y-17832484D02*
X13074825Y-17832484D01*
X13074825Y-17832484D02*
X13093872Y-17842008D01*
X13093872Y-17842008D02*
X13103396Y-17851531D01*
X13103396Y-17851531D02*
X13112920Y-17870579D01*
X13112920Y-17870579D02*
X13122444Y-17908674D01*
X13122444Y-17908674D02*
X13122444Y-17956293D01*
X13122444Y-17956293D02*
X13112920Y-17994389D01*
X13112920Y-17994389D02*
X13103396Y-18013436D01*
X13103396Y-18013436D02*
X13093872Y-18022960D01*
X13093872Y-18022960D02*
X13074825Y-18032484D01*
X13074825Y-18032484D02*
X13055777Y-18032484D01*
X13055777Y-18032484D02*
X13036729Y-18022960D01*
X13036729Y-18022960D02*
X13027206Y-18013436D01*
X13027206Y-18013436D02*
X13017682Y-17994389D01*
X13017682Y-17994389D02*
X13008158Y-17956293D01*
X13008158Y-17956293D02*
X13008158Y-17908674D01*
X13008158Y-17908674D02*
X13017682Y-17870579D01*
X13017682Y-17870579D02*
X13027206Y-17851531D01*
X13027206Y-17851531D02*
X13036729Y-17842008D01*
X13036729Y-17842008D02*
X13055777Y-17832484D01*
X13198634Y-17832484D02*
X13198634Y-17870579D01*
X13274825Y-17832484D02*
X13274825Y-17870579D01*
X13570063Y-18108674D02*
X13560539Y-18099150D01*
X13560539Y-18099150D02*
X13541491Y-18070579D01*
X13541491Y-18070579D02*
X13531968Y-18051531D01*
X13531968Y-18051531D02*
X13522444Y-18022960D01*
X13522444Y-18022960D02*
X13512920Y-17975341D01*
X13512920Y-17975341D02*
X13512920Y-17937246D01*
X13512920Y-17937246D02*
X13522444Y-17889627D01*
X13522444Y-17889627D02*
X13531968Y-17861055D01*
X13531968Y-17861055D02*
X13541491Y-17842008D01*
X13541491Y-17842008D02*
X13560539Y-17813436D01*
X13560539Y-17813436D02*
X13570063Y-17803912D01*
X13741491Y-17832484D02*
X13646253Y-17832484D01*
X13646253Y-17832484D02*
X13636729Y-17927722D01*
X13636729Y-17927722D02*
X13646253Y-17918198D01*
X13646253Y-17918198D02*
X13665301Y-17908674D01*
X13665301Y-17908674D02*
X13712920Y-17908674D01*
X13712920Y-17908674D02*
X13731968Y-17918198D01*
X13731968Y-17918198D02*
X13741491Y-17927722D01*
X13741491Y-17927722D02*
X13751015Y-17946770D01*
X13751015Y-17946770D02*
X13751015Y-17994389D01*
X13751015Y-17994389D02*
X13741491Y-18013436D01*
X13741491Y-18013436D02*
X13731968Y-18022960D01*
X13731968Y-18022960D02*
X13712920Y-18032484D01*
X13712920Y-18032484D02*
X13665301Y-18032484D01*
X13665301Y-18032484D02*
X13646253Y-18022960D01*
X13646253Y-18022960D02*
X13636729Y-18013436D01*
X13989110Y-18032484D02*
X13989110Y-17832484D01*
X14074825Y-18032484D02*
X14074825Y-17927722D01*
X14074825Y-17927722D02*
X14065301Y-17908674D01*
X14065301Y-17908674D02*
X14046253Y-17899150D01*
X14046253Y-17899150D02*
X14017682Y-17899150D01*
X14017682Y-17899150D02*
X13998634Y-17908674D01*
X13998634Y-17908674D02*
X13989110Y-17918198D01*
X14198634Y-18032484D02*
X14179587Y-18022960D01*
X14179587Y-18022960D02*
X14170063Y-18013436D01*
X14170063Y-18013436D02*
X14160539Y-17994389D01*
X14160539Y-17994389D02*
X14160539Y-17937246D01*
X14160539Y-17937246D02*
X14170063Y-17918198D01*
X14170063Y-17918198D02*
X14179587Y-17908674D01*
X14179587Y-17908674D02*
X14198634Y-17899150D01*
X14198634Y-17899150D02*
X14227206Y-17899150D01*
X14227206Y-17899150D02*
X14246253Y-17908674D01*
X14246253Y-17908674D02*
X14255777Y-17918198D01*
X14255777Y-17918198D02*
X14265301Y-17937246D01*
X14265301Y-17937246D02*
X14265301Y-17994389D01*
X14265301Y-17994389D02*
X14255777Y-18013436D01*
X14255777Y-18013436D02*
X14246253Y-18022960D01*
X14246253Y-18022960D02*
X14227206Y-18032484D01*
X14227206Y-18032484D02*
X14198634Y-18032484D01*
X14379587Y-18032484D02*
X14360539Y-18022960D01*
X14360539Y-18022960D02*
X14351015Y-18003912D01*
X14351015Y-18003912D02*
X14351015Y-17832484D01*
X14531968Y-18022960D02*
X14512920Y-18032484D01*
X14512920Y-18032484D02*
X14474825Y-18032484D01*
X14474825Y-18032484D02*
X14455777Y-18022960D01*
X14455777Y-18022960D02*
X14446253Y-18003912D01*
X14446253Y-18003912D02*
X14446253Y-17927722D01*
X14446253Y-17927722D02*
X14455777Y-17908674D01*
X14455777Y-17908674D02*
X14474825Y-17899150D01*
X14474825Y-17899150D02*
X14512920Y-17899150D01*
X14512920Y-17899150D02*
X14531968Y-17908674D01*
X14531968Y-17908674D02*
X14541491Y-17927722D01*
X14541491Y-17927722D02*
X14541491Y-17946770D01*
X14541491Y-17946770D02*
X14446253Y-17965817D01*
X14617682Y-18022960D02*
X14636730Y-18032484D01*
X14636730Y-18032484D02*
X14674825Y-18032484D01*
X14674825Y-18032484D02*
X14693872Y-18022960D01*
X14693872Y-18022960D02*
X14703396Y-18003912D01*
X14703396Y-18003912D02*
X14703396Y-17994389D01*
X14703396Y-17994389D02*
X14693872Y-17975341D01*
X14693872Y-17975341D02*
X14674825Y-17965817D01*
X14674825Y-17965817D02*
X14646253Y-17965817D01*
X14646253Y-17965817D02*
X14627206Y-17956293D01*
X14627206Y-17956293D02*
X14617682Y-17937246D01*
X14617682Y-17937246D02*
X14617682Y-17927722D01*
X14617682Y-17927722D02*
X14627206Y-17908674D01*
X14627206Y-17908674D02*
X14646253Y-17899150D01*
X14646253Y-17899150D02*
X14674825Y-17899150D01*
X14674825Y-17899150D02*
X14693872Y-17908674D01*
X14770063Y-18108674D02*
X14779587Y-18099150D01*
X14779587Y-18099150D02*
X14798634Y-18070579D01*
X14798634Y-18070579D02*
X14808158Y-18051531D01*
X14808158Y-18051531D02*
X14817682Y-18022960D01*
X14817682Y-18022960D02*
X14827206Y-17975341D01*
X14827206Y-17975341D02*
X14827206Y-17937246D01*
X14827206Y-17937246D02*
X14817682Y-17889627D01*
X14817682Y-17889627D02*
X14808158Y-17861055D01*
X14808158Y-17861055D02*
X14798634Y-17842008D01*
X14798634Y-17842008D02*
X14779587Y-17813436D01*
X14779587Y-17813436D02*
X14770063Y-17803912D01*
X9795000Y-18161000D02*
X9995000Y-18361000D01*
X9995000Y-18161000D02*
X9795000Y-18361000D01*
X9965711Y-18331711D02*
X9965711Y-18190289D01*
X9824289Y-18190289D01*
X9824289Y-18331711D01*
X9965711Y-18331711D01*
X10341491Y-18219150D02*
X10341491Y-18352484D01*
X10293872Y-18142960D02*
X10246253Y-18285817D01*
X10246253Y-18285817D02*
X10370063Y-18285817D01*
X10446253Y-18333436D02*
X10455777Y-18342960D01*
X10455777Y-18342960D02*
X10446253Y-18352484D01*
X10446253Y-18352484D02*
X10436729Y-18342960D01*
X10436729Y-18342960D02*
X10446253Y-18333436D01*
X10446253Y-18333436D02*
X10446253Y-18352484D01*
X10522444Y-18152484D02*
X10646253Y-18152484D01*
X10646253Y-18152484D02*
X10579586Y-18228674D01*
X10579586Y-18228674D02*
X10608158Y-18228674D01*
X10608158Y-18228674D02*
X10627205Y-18238198D01*
X10627205Y-18238198D02*
X10636729Y-18247722D01*
X10636729Y-18247722D02*
X10646253Y-18266770D01*
X10646253Y-18266770D02*
X10646253Y-18314389D01*
X10646253Y-18314389D02*
X10636729Y-18333436D01*
X10636729Y-18333436D02*
X10627205Y-18342960D01*
X10627205Y-18342960D02*
X10608158Y-18352484D01*
X10608158Y-18352484D02*
X10551015Y-18352484D01*
X10551015Y-18352484D02*
X10531967Y-18342960D01*
X10531967Y-18342960D02*
X10522444Y-18333436D01*
X10770063Y-18152484D02*
X10789110Y-18152484D01*
X10789110Y-18152484D02*
X10808158Y-18162008D01*
X10808158Y-18162008D02*
X10817682Y-18171531D01*
X10817682Y-18171531D02*
X10827205Y-18190579D01*
X10827205Y-18190579D02*
X10836729Y-18228674D01*
X10836729Y-18228674D02*
X10836729Y-18276293D01*
X10836729Y-18276293D02*
X10827205Y-18314389D01*
X10827205Y-18314389D02*
X10817682Y-18333436D01*
X10817682Y-18333436D02*
X10808158Y-18342960D01*
X10808158Y-18342960D02*
X10789110Y-18352484D01*
X10789110Y-18352484D02*
X10770063Y-18352484D01*
X10770063Y-18352484D02*
X10751015Y-18342960D01*
X10751015Y-18342960D02*
X10741491Y-18333436D01*
X10741491Y-18333436D02*
X10731967Y-18314389D01*
X10731967Y-18314389D02*
X10722444Y-18276293D01*
X10722444Y-18276293D02*
X10722444Y-18228674D01*
X10722444Y-18228674D02*
X10731967Y-18190579D01*
X10731967Y-18190579D02*
X10741491Y-18171531D01*
X10741491Y-18171531D02*
X10751015Y-18162008D01*
X10751015Y-18162008D02*
X10770063Y-18152484D01*
X10960539Y-18152484D02*
X10979586Y-18152484D01*
X10979586Y-18152484D02*
X10998634Y-18162008D01*
X10998634Y-18162008D02*
X11008158Y-18171531D01*
X11008158Y-18171531D02*
X11017682Y-18190579D01*
X11017682Y-18190579D02*
X11027205Y-18228674D01*
X11027205Y-18228674D02*
X11027205Y-18276293D01*
X11027205Y-18276293D02*
X11017682Y-18314389D01*
X11017682Y-18314389D02*
X11008158Y-18333436D01*
X11008158Y-18333436D02*
X10998634Y-18342960D01*
X10998634Y-18342960D02*
X10979586Y-18352484D01*
X10979586Y-18352484D02*
X10960539Y-18352484D01*
X10960539Y-18352484D02*
X10941491Y-18342960D01*
X10941491Y-18342960D02*
X10931967Y-18333436D01*
X10931967Y-18333436D02*
X10922444Y-18314389D01*
X10922444Y-18314389D02*
X10912920Y-18276293D01*
X10912920Y-18276293D02*
X10912920Y-18228674D01*
X10912920Y-18228674D02*
X10922444Y-18190579D01*
X10922444Y-18190579D02*
X10931967Y-18171531D01*
X10931967Y-18171531D02*
X10941491Y-18162008D01*
X10941491Y-18162008D02*
X10960539Y-18152484D01*
X11112920Y-18352484D02*
X11112920Y-18219150D01*
X11112920Y-18238198D02*
X11122444Y-18228674D01*
X11122444Y-18228674D02*
X11141491Y-18219150D01*
X11141491Y-18219150D02*
X11170063Y-18219150D01*
X11170063Y-18219150D02*
X11189110Y-18228674D01*
X11189110Y-18228674D02*
X11198634Y-18247722D01*
X11198634Y-18247722D02*
X11198634Y-18352484D01*
X11198634Y-18247722D02*
X11208158Y-18228674D01*
X11208158Y-18228674D02*
X11227205Y-18219150D01*
X11227205Y-18219150D02*
X11255777Y-18219150D01*
X11255777Y-18219150D02*
X11274824Y-18228674D01*
X11274824Y-18228674D02*
X11284348Y-18247722D01*
X11284348Y-18247722D02*
X11284348Y-18352484D01*
X11379586Y-18352484D02*
X11379586Y-18219150D01*
X11379586Y-18238198D02*
X11389110Y-18228674D01*
X11389110Y-18228674D02*
X11408158Y-18219150D01*
X11408158Y-18219150D02*
X11436729Y-18219150D01*
X11436729Y-18219150D02*
X11455777Y-18228674D01*
X11455777Y-18228674D02*
X11465301Y-18247722D01*
X11465301Y-18247722D02*
X11465301Y-18352484D01*
X11465301Y-18247722D02*
X11474824Y-18228674D01*
X11474824Y-18228674D02*
X11493872Y-18219150D01*
X11493872Y-18219150D02*
X11522443Y-18219150D01*
X11522443Y-18219150D02*
X11541491Y-18228674D01*
X11541491Y-18228674D02*
X11551015Y-18247722D01*
X11551015Y-18247722D02*
X11551015Y-18352484D01*
X11941491Y-18142960D02*
X11770063Y-18400103D01*
X12198634Y-18152484D02*
X12217682Y-18152484D01*
X12217682Y-18152484D02*
X12236729Y-18162008D01*
X12236729Y-18162008D02*
X12246253Y-18171531D01*
X12246253Y-18171531D02*
X12255777Y-18190579D01*
X12255777Y-18190579D02*
X12265301Y-18228674D01*
X12265301Y-18228674D02*
X12265301Y-18276293D01*
X12265301Y-18276293D02*
X12255777Y-18314389D01*
X12255777Y-18314389D02*
X12246253Y-18333436D01*
X12246253Y-18333436D02*
X12236729Y-18342960D01*
X12236729Y-18342960D02*
X12217682Y-18352484D01*
X12217682Y-18352484D02*
X12198634Y-18352484D01*
X12198634Y-18352484D02*
X12179586Y-18342960D01*
X12179586Y-18342960D02*
X12170063Y-18333436D01*
X12170063Y-18333436D02*
X12160539Y-18314389D01*
X12160539Y-18314389D02*
X12151015Y-18276293D01*
X12151015Y-18276293D02*
X12151015Y-18228674D01*
X12151015Y-18228674D02*
X12160539Y-18190579D01*
X12160539Y-18190579D02*
X12170063Y-18171531D01*
X12170063Y-18171531D02*
X12179586Y-18162008D01*
X12179586Y-18162008D02*
X12198634Y-18152484D01*
X12351015Y-18333436D02*
X12360539Y-18342960D01*
X12360539Y-18342960D02*
X12351015Y-18352484D01*
X12351015Y-18352484D02*
X12341491Y-18342960D01*
X12341491Y-18342960D02*
X12351015Y-18333436D01*
X12351015Y-18333436D02*
X12351015Y-18352484D01*
X12551015Y-18352484D02*
X12436729Y-18352484D01*
X12493872Y-18352484D02*
X12493872Y-18152484D01*
X12493872Y-18152484D02*
X12474825Y-18181055D01*
X12474825Y-18181055D02*
X12455777Y-18200103D01*
X12455777Y-18200103D02*
X12436729Y-18209627D01*
X12722444Y-18152484D02*
X12684348Y-18152484D01*
X12684348Y-18152484D02*
X12665301Y-18162008D01*
X12665301Y-18162008D02*
X12655777Y-18171531D01*
X12655777Y-18171531D02*
X12636729Y-18200103D01*
X12636729Y-18200103D02*
X12627206Y-18238198D01*
X12627206Y-18238198D02*
X12627206Y-18314389D01*
X12627206Y-18314389D02*
X12636729Y-18333436D01*
X12636729Y-18333436D02*
X12646253Y-18342960D01*
X12646253Y-18342960D02*
X12665301Y-18352484D01*
X12665301Y-18352484D02*
X12703396Y-18352484D01*
X12703396Y-18352484D02*
X12722444Y-18342960D01*
X12722444Y-18342960D02*
X12731967Y-18333436D01*
X12731967Y-18333436D02*
X12741491Y-18314389D01*
X12741491Y-18314389D02*
X12741491Y-18266770D01*
X12741491Y-18266770D02*
X12731967Y-18247722D01*
X12731967Y-18247722D02*
X12722444Y-18238198D01*
X12722444Y-18238198D02*
X12703396Y-18228674D01*
X12703396Y-18228674D02*
X12665301Y-18228674D01*
X12665301Y-18228674D02*
X12646253Y-18238198D01*
X12646253Y-18238198D02*
X12636729Y-18247722D01*
X12636729Y-18247722D02*
X12627206Y-18266770D01*
X12836729Y-18352484D02*
X12874825Y-18352484D01*
X12874825Y-18352484D02*
X12893872Y-18342960D01*
X12893872Y-18342960D02*
X12903396Y-18333436D01*
X12903396Y-18333436D02*
X12922444Y-18304865D01*
X12922444Y-18304865D02*
X12931967Y-18266770D01*
X12931967Y-18266770D02*
X12931967Y-18190579D01*
X12931967Y-18190579D02*
X12922444Y-18171531D01*
X12922444Y-18171531D02*
X12912920Y-18162008D01*
X12912920Y-18162008D02*
X12893872Y-18152484D01*
X12893872Y-18152484D02*
X12855777Y-18152484D01*
X12855777Y-18152484D02*
X12836729Y-18162008D01*
X12836729Y-18162008D02*
X12827206Y-18171531D01*
X12827206Y-18171531D02*
X12817682Y-18190579D01*
X12817682Y-18190579D02*
X12817682Y-18238198D01*
X12817682Y-18238198D02*
X12827206Y-18257246D01*
X12827206Y-18257246D02*
X12836729Y-18266770D01*
X12836729Y-18266770D02*
X12855777Y-18276293D01*
X12855777Y-18276293D02*
X12893872Y-18276293D01*
X12893872Y-18276293D02*
X12912920Y-18266770D01*
X12912920Y-18266770D02*
X12922444Y-18257246D01*
X12922444Y-18257246D02*
X12931967Y-18238198D01*
X12998634Y-18152484D02*
X13122444Y-18152484D01*
X13122444Y-18152484D02*
X13055777Y-18228674D01*
X13055777Y-18228674D02*
X13084348Y-18228674D01*
X13084348Y-18228674D02*
X13103396Y-18238198D01*
X13103396Y-18238198D02*
X13112920Y-18247722D01*
X13112920Y-18247722D02*
X13122444Y-18266770D01*
X13122444Y-18266770D02*
X13122444Y-18314389D01*
X13122444Y-18314389D02*
X13112920Y-18333436D01*
X13112920Y-18333436D02*
X13103396Y-18342960D01*
X13103396Y-18342960D02*
X13084348Y-18352484D01*
X13084348Y-18352484D02*
X13027206Y-18352484D01*
X13027206Y-18352484D02*
X13008158Y-18342960D01*
X13008158Y-18342960D02*
X12998634Y-18333436D01*
X13198634Y-18152484D02*
X13198634Y-18190579D01*
X13274825Y-18152484D02*
X13274825Y-18190579D01*
X13570063Y-18428674D02*
X13560539Y-18419150D01*
X13560539Y-18419150D02*
X13541491Y-18390579D01*
X13541491Y-18390579D02*
X13531968Y-18371531D01*
X13531968Y-18371531D02*
X13522444Y-18342960D01*
X13522444Y-18342960D02*
X13512920Y-18295341D01*
X13512920Y-18295341D02*
X13512920Y-18257246D01*
X13512920Y-18257246D02*
X13522444Y-18209627D01*
X13522444Y-18209627D02*
X13531968Y-18181055D01*
X13531968Y-18181055D02*
X13541491Y-18162008D01*
X13541491Y-18162008D02*
X13560539Y-18133436D01*
X13560539Y-18133436D02*
X13570063Y-18123912D01*
X13751015Y-18352484D02*
X13636729Y-18352484D01*
X13693872Y-18352484D02*
X13693872Y-18152484D01*
X13693872Y-18152484D02*
X13674825Y-18181055D01*
X13674825Y-18181055D02*
X13655777Y-18200103D01*
X13655777Y-18200103D02*
X13636729Y-18209627D01*
X13989110Y-18352484D02*
X13989110Y-18152484D01*
X14074825Y-18352484D02*
X14074825Y-18247722D01*
X14074825Y-18247722D02*
X14065301Y-18228674D01*
X14065301Y-18228674D02*
X14046253Y-18219150D01*
X14046253Y-18219150D02*
X14017682Y-18219150D01*
X14017682Y-18219150D02*
X13998634Y-18228674D01*
X13998634Y-18228674D02*
X13989110Y-18238198D01*
X14198634Y-18352484D02*
X14179587Y-18342960D01*
X14179587Y-18342960D02*
X14170063Y-18333436D01*
X14170063Y-18333436D02*
X14160539Y-18314389D01*
X14160539Y-18314389D02*
X14160539Y-18257246D01*
X14160539Y-18257246D02*
X14170063Y-18238198D01*
X14170063Y-18238198D02*
X14179587Y-18228674D01*
X14179587Y-18228674D02*
X14198634Y-18219150D01*
X14198634Y-18219150D02*
X14227206Y-18219150D01*
X14227206Y-18219150D02*
X14246253Y-18228674D01*
X14246253Y-18228674D02*
X14255777Y-18238198D01*
X14255777Y-18238198D02*
X14265301Y-18257246D01*
X14265301Y-18257246D02*
X14265301Y-18314389D01*
X14265301Y-18314389D02*
X14255777Y-18333436D01*
X14255777Y-18333436D02*
X14246253Y-18342960D01*
X14246253Y-18342960D02*
X14227206Y-18352484D01*
X14227206Y-18352484D02*
X14198634Y-18352484D01*
X14379587Y-18352484D02*
X14360539Y-18342960D01*
X14360539Y-18342960D02*
X14351015Y-18323912D01*
X14351015Y-18323912D02*
X14351015Y-18152484D01*
X14531968Y-18342960D02*
X14512920Y-18352484D01*
X14512920Y-18352484D02*
X14474825Y-18352484D01*
X14474825Y-18352484D02*
X14455777Y-18342960D01*
X14455777Y-18342960D02*
X14446253Y-18323912D01*
X14446253Y-18323912D02*
X14446253Y-18247722D01*
X14446253Y-18247722D02*
X14455777Y-18228674D01*
X14455777Y-18228674D02*
X14474825Y-18219150D01*
X14474825Y-18219150D02*
X14512920Y-18219150D01*
X14512920Y-18219150D02*
X14531968Y-18228674D01*
X14531968Y-18228674D02*
X14541491Y-18247722D01*
X14541491Y-18247722D02*
X14541491Y-18266770D01*
X14541491Y-18266770D02*
X14446253Y-18285817D01*
X14608158Y-18428674D02*
X14617682Y-18419150D01*
X14617682Y-18419150D02*
X14636730Y-18390579D01*
X14636730Y-18390579D02*
X14646253Y-18371531D01*
X14646253Y-18371531D02*
X14655777Y-18342960D01*
X14655777Y-18342960D02*
X14665301Y-18295341D01*
X14665301Y-18295341D02*
X14665301Y-18257246D01*
X14665301Y-18257246D02*
X14655777Y-18209627D01*
X14655777Y-18209627D02*
X14646253Y-18181055D01*
X14646253Y-18181055D02*
X14636730Y-18162008D01*
X14636730Y-18162008D02*
X14617682Y-18133436D01*
X14617682Y-18133436D02*
X14608158Y-18123912D01*
M02*
