%TF.GenerationSoftware,KiCad,Pcbnew,8.0.3-8.0.3-0~ubuntu22.04.1*%
%TF.CreationDate,2024-07-07T23:08:22+03:00*%
%TF.ProjectId,riaa-preamp,72696161-2d70-4726-9561-6d702e6b6963,rev?*%
%TF.SameCoordinates,Original*%
%TF.FileFunction,Drillmap*%
%TF.FilePolarity,Positive*%
%FSLAX45Y45*%
G04 Gerber Fmt 4.5, Leading zero omitted, Abs format (unit mm)*
G04 Created by KiCad (PCBNEW 8.0.3-8.0.3-0~ubuntu22.04.1) date 2024-07-07 23:08:22*
%MOMM*%
%LPD*%
G01*
G04 APERTURE LIST*
%ADD10C,0.100000*%
%ADD11C,0.200000*%
%ADD12C,0.198120*%
%ADD13C,0.208280*%
G04 APERTURE END LIST*
D10*
X10000000Y-10000000D02*
X19600000Y-10000000D01*
X19600000Y-15600000D01*
X10000000Y-15600000D01*
X10000000Y-10000000D01*
D11*
D12*
X14029110Y-10381920D02*
X14227230Y-10580040D01*
X14227230Y-10381920D02*
X14029110Y-10580040D01*
X14029110Y-14986940D02*
X14227230Y-15185060D01*
X14227230Y-14986940D02*
X14029110Y-15185060D01*
X14778410Y-10381920D02*
X14976530Y-10580040D01*
X14976530Y-10381920D02*
X14778410Y-10580040D01*
X14778410Y-14986940D02*
X14976530Y-15185060D01*
X14976530Y-14986940D02*
X14778410Y-15185060D01*
X17578760Y-10381920D02*
X17776880Y-10580040D01*
X17776880Y-10381920D02*
X17578760Y-10580040D01*
X17578760Y-14986940D02*
X17776880Y-15185060D01*
X17776880Y-14986940D02*
X17578760Y-15185060D01*
X18328060Y-10381920D02*
X18526180Y-10580040D01*
X18526180Y-10381920D02*
X18328060Y-10580040D01*
X18328060Y-14986940D02*
X18526180Y-15185060D01*
X18526180Y-14986940D02*
X18328060Y-15185060D01*
D13*
X14606960Y-11131220D02*
G75*
G02*
X14398680Y-11131220I-104140J0D01*
G01*
X14398680Y-11131220D02*
G75*
G02*
X14606960Y-11131220I104140J0D01*
G01*
X14606960Y-14435760D02*
G75*
G02*
X14398680Y-14435760I-104140J0D01*
G01*
X14398680Y-14435760D02*
G75*
G02*
X14606960Y-14435760I104140J0D01*
G01*
X18156610Y-11131220D02*
G75*
G02*
X17948330Y-11131220I-104140J0D01*
G01*
X17948330Y-11131220D02*
G75*
G02*
X18156610Y-11131220I104140J0D01*
G01*
X18156610Y-14435760D02*
G75*
G02*
X17948330Y-14435760I-104140J0D01*
G01*
X17948330Y-14435760D02*
G75*
G02*
X18156610Y-14435760I104140J0D01*
G01*
D11*
X10255777Y-15916484D02*
X10255777Y-15716484D01*
X10255777Y-15716484D02*
X10303396Y-15716484D01*
X10303396Y-15716484D02*
X10331967Y-15726008D01*
X10331967Y-15726008D02*
X10351015Y-15745055D01*
X10351015Y-15745055D02*
X10360539Y-15764103D01*
X10360539Y-15764103D02*
X10370063Y-15802198D01*
X10370063Y-15802198D02*
X10370063Y-15830769D01*
X10370063Y-15830769D02*
X10360539Y-15868865D01*
X10360539Y-15868865D02*
X10351015Y-15887912D01*
X10351015Y-15887912D02*
X10331967Y-15906960D01*
X10331967Y-15906960D02*
X10303396Y-15916484D01*
X10303396Y-15916484D02*
X10255777Y-15916484D01*
X10455777Y-15916484D02*
X10455777Y-15783150D01*
X10455777Y-15821246D02*
X10465301Y-15802198D01*
X10465301Y-15802198D02*
X10474824Y-15792674D01*
X10474824Y-15792674D02*
X10493872Y-15783150D01*
X10493872Y-15783150D02*
X10512920Y-15783150D01*
X10579586Y-15916484D02*
X10579586Y-15783150D01*
X10579586Y-15716484D02*
X10570063Y-15726008D01*
X10570063Y-15726008D02*
X10579586Y-15735531D01*
X10579586Y-15735531D02*
X10589110Y-15726008D01*
X10589110Y-15726008D02*
X10579586Y-15716484D01*
X10579586Y-15716484D02*
X10579586Y-15735531D01*
X10703396Y-15916484D02*
X10684348Y-15906960D01*
X10684348Y-15906960D02*
X10674824Y-15887912D01*
X10674824Y-15887912D02*
X10674824Y-15716484D01*
X10808158Y-15916484D02*
X10789110Y-15906960D01*
X10789110Y-15906960D02*
X10779586Y-15887912D01*
X10779586Y-15887912D02*
X10779586Y-15716484D01*
X11036729Y-15916484D02*
X11036729Y-15716484D01*
X11036729Y-15716484D02*
X11103396Y-15859341D01*
X11103396Y-15859341D02*
X11170063Y-15716484D01*
X11170063Y-15716484D02*
X11170063Y-15916484D01*
X11351015Y-15916484D02*
X11351015Y-15811722D01*
X11351015Y-15811722D02*
X11341491Y-15792674D01*
X11341491Y-15792674D02*
X11322443Y-15783150D01*
X11322443Y-15783150D02*
X11284348Y-15783150D01*
X11284348Y-15783150D02*
X11265301Y-15792674D01*
X11351015Y-15906960D02*
X11331967Y-15916484D01*
X11331967Y-15916484D02*
X11284348Y-15916484D01*
X11284348Y-15916484D02*
X11265301Y-15906960D01*
X11265301Y-15906960D02*
X11255777Y-15887912D01*
X11255777Y-15887912D02*
X11255777Y-15868865D01*
X11255777Y-15868865D02*
X11265301Y-15849817D01*
X11265301Y-15849817D02*
X11284348Y-15840293D01*
X11284348Y-15840293D02*
X11331967Y-15840293D01*
X11331967Y-15840293D02*
X11351015Y-15830769D01*
X11446253Y-15783150D02*
X11446253Y-15983150D01*
X11446253Y-15792674D02*
X11465301Y-15783150D01*
X11465301Y-15783150D02*
X11503396Y-15783150D01*
X11503396Y-15783150D02*
X11522443Y-15792674D01*
X11522443Y-15792674D02*
X11531967Y-15802198D01*
X11531967Y-15802198D02*
X11541491Y-15821246D01*
X11541491Y-15821246D02*
X11541491Y-15878388D01*
X11541491Y-15878388D02*
X11531967Y-15897436D01*
X11531967Y-15897436D02*
X11522443Y-15906960D01*
X11522443Y-15906960D02*
X11503396Y-15916484D01*
X11503396Y-15916484D02*
X11465301Y-15916484D01*
X11465301Y-15916484D02*
X11446253Y-15906960D01*
X11627205Y-15897436D02*
X11636729Y-15906960D01*
X11636729Y-15906960D02*
X11627205Y-15916484D01*
X11627205Y-15916484D02*
X11617682Y-15906960D01*
X11617682Y-15906960D02*
X11627205Y-15897436D01*
X11627205Y-15897436D02*
X11627205Y-15916484D01*
X11627205Y-15792674D02*
X11636729Y-15802198D01*
X11636729Y-15802198D02*
X11627205Y-15811722D01*
X11627205Y-15811722D02*
X11617682Y-15802198D01*
X11617682Y-15802198D02*
X11627205Y-15792674D01*
X11627205Y-15792674D02*
X11627205Y-15811722D01*
D12*
X9796880Y-16145940D02*
X9995000Y-16344060D01*
X9995000Y-16145940D02*
X9796880Y-16344060D01*
D11*
X10360539Y-16336484D02*
X10246253Y-16336484D01*
X10303396Y-16336484D02*
X10303396Y-16136484D01*
X10303396Y-16136484D02*
X10284348Y-16165055D01*
X10284348Y-16165055D02*
X10265301Y-16184103D01*
X10265301Y-16184103D02*
X10246253Y-16193627D01*
X10446253Y-16317436D02*
X10455777Y-16326960D01*
X10455777Y-16326960D02*
X10446253Y-16336484D01*
X10446253Y-16336484D02*
X10436729Y-16326960D01*
X10436729Y-16326960D02*
X10446253Y-16317436D01*
X10446253Y-16317436D02*
X10446253Y-16336484D01*
X10551015Y-16336484D02*
X10589110Y-16336484D01*
X10589110Y-16336484D02*
X10608158Y-16326960D01*
X10608158Y-16326960D02*
X10617682Y-16317436D01*
X10617682Y-16317436D02*
X10636729Y-16288865D01*
X10636729Y-16288865D02*
X10646253Y-16250769D01*
X10646253Y-16250769D02*
X10646253Y-16174579D01*
X10646253Y-16174579D02*
X10636729Y-16155531D01*
X10636729Y-16155531D02*
X10627205Y-16146008D01*
X10627205Y-16146008D02*
X10608158Y-16136484D01*
X10608158Y-16136484D02*
X10570063Y-16136484D01*
X10570063Y-16136484D02*
X10551015Y-16146008D01*
X10551015Y-16146008D02*
X10541491Y-16155531D01*
X10541491Y-16155531D02*
X10531967Y-16174579D01*
X10531967Y-16174579D02*
X10531967Y-16222198D01*
X10531967Y-16222198D02*
X10541491Y-16241246D01*
X10541491Y-16241246D02*
X10551015Y-16250769D01*
X10551015Y-16250769D02*
X10570063Y-16260293D01*
X10570063Y-16260293D02*
X10608158Y-16260293D01*
X10608158Y-16260293D02*
X10627205Y-16250769D01*
X10627205Y-16250769D02*
X10636729Y-16241246D01*
X10636729Y-16241246D02*
X10646253Y-16222198D01*
X10760539Y-16222198D02*
X10741491Y-16212674D01*
X10741491Y-16212674D02*
X10731967Y-16203150D01*
X10731967Y-16203150D02*
X10722444Y-16184103D01*
X10722444Y-16184103D02*
X10722444Y-16174579D01*
X10722444Y-16174579D02*
X10731967Y-16155531D01*
X10731967Y-16155531D02*
X10741491Y-16146008D01*
X10741491Y-16146008D02*
X10760539Y-16136484D01*
X10760539Y-16136484D02*
X10798634Y-16136484D01*
X10798634Y-16136484D02*
X10817682Y-16146008D01*
X10817682Y-16146008D02*
X10827205Y-16155531D01*
X10827205Y-16155531D02*
X10836729Y-16174579D01*
X10836729Y-16174579D02*
X10836729Y-16184103D01*
X10836729Y-16184103D02*
X10827205Y-16203150D01*
X10827205Y-16203150D02*
X10817682Y-16212674D01*
X10817682Y-16212674D02*
X10798634Y-16222198D01*
X10798634Y-16222198D02*
X10760539Y-16222198D01*
X10760539Y-16222198D02*
X10741491Y-16231722D01*
X10741491Y-16231722D02*
X10731967Y-16241246D01*
X10731967Y-16241246D02*
X10722444Y-16260293D01*
X10722444Y-16260293D02*
X10722444Y-16298388D01*
X10722444Y-16298388D02*
X10731967Y-16317436D01*
X10731967Y-16317436D02*
X10741491Y-16326960D01*
X10741491Y-16326960D02*
X10760539Y-16336484D01*
X10760539Y-16336484D02*
X10798634Y-16336484D01*
X10798634Y-16336484D02*
X10817682Y-16326960D01*
X10817682Y-16326960D02*
X10827205Y-16317436D01*
X10827205Y-16317436D02*
X10836729Y-16298388D01*
X10836729Y-16298388D02*
X10836729Y-16260293D01*
X10836729Y-16260293D02*
X10827205Y-16241246D01*
X10827205Y-16241246D02*
X10817682Y-16231722D01*
X10817682Y-16231722D02*
X10798634Y-16222198D01*
X11027205Y-16336484D02*
X10912920Y-16336484D01*
X10970063Y-16336484D02*
X10970063Y-16136484D01*
X10970063Y-16136484D02*
X10951015Y-16165055D01*
X10951015Y-16165055D02*
X10931967Y-16184103D01*
X10931967Y-16184103D02*
X10912920Y-16193627D01*
X11112920Y-16336484D02*
X11112920Y-16203150D01*
X11112920Y-16222198D02*
X11122444Y-16212674D01*
X11122444Y-16212674D02*
X11141491Y-16203150D01*
X11141491Y-16203150D02*
X11170063Y-16203150D01*
X11170063Y-16203150D02*
X11189110Y-16212674D01*
X11189110Y-16212674D02*
X11198634Y-16231722D01*
X11198634Y-16231722D02*
X11198634Y-16336484D01*
X11198634Y-16231722D02*
X11208158Y-16212674D01*
X11208158Y-16212674D02*
X11227205Y-16203150D01*
X11227205Y-16203150D02*
X11255777Y-16203150D01*
X11255777Y-16203150D02*
X11274824Y-16212674D01*
X11274824Y-16212674D02*
X11284348Y-16231722D01*
X11284348Y-16231722D02*
X11284348Y-16336484D01*
X11379586Y-16336484D02*
X11379586Y-16203150D01*
X11379586Y-16222198D02*
X11389110Y-16212674D01*
X11389110Y-16212674D02*
X11408158Y-16203150D01*
X11408158Y-16203150D02*
X11436729Y-16203150D01*
X11436729Y-16203150D02*
X11455777Y-16212674D01*
X11455777Y-16212674D02*
X11465301Y-16231722D01*
X11465301Y-16231722D02*
X11465301Y-16336484D01*
X11465301Y-16231722D02*
X11474824Y-16212674D01*
X11474824Y-16212674D02*
X11493872Y-16203150D01*
X11493872Y-16203150D02*
X11522443Y-16203150D01*
X11522443Y-16203150D02*
X11541491Y-16212674D01*
X11541491Y-16212674D02*
X11551015Y-16231722D01*
X11551015Y-16231722D02*
X11551015Y-16336484D01*
X11941491Y-16126960D02*
X11770063Y-16384103D01*
X12198634Y-16136484D02*
X12217682Y-16136484D01*
X12217682Y-16136484D02*
X12236729Y-16146008D01*
X12236729Y-16146008D02*
X12246253Y-16155531D01*
X12246253Y-16155531D02*
X12255777Y-16174579D01*
X12255777Y-16174579D02*
X12265301Y-16212674D01*
X12265301Y-16212674D02*
X12265301Y-16260293D01*
X12265301Y-16260293D02*
X12255777Y-16298388D01*
X12255777Y-16298388D02*
X12246253Y-16317436D01*
X12246253Y-16317436D02*
X12236729Y-16326960D01*
X12236729Y-16326960D02*
X12217682Y-16336484D01*
X12217682Y-16336484D02*
X12198634Y-16336484D01*
X12198634Y-16336484D02*
X12179586Y-16326960D01*
X12179586Y-16326960D02*
X12170063Y-16317436D01*
X12170063Y-16317436D02*
X12160539Y-16298388D01*
X12160539Y-16298388D02*
X12151015Y-16260293D01*
X12151015Y-16260293D02*
X12151015Y-16212674D01*
X12151015Y-16212674D02*
X12160539Y-16174579D01*
X12160539Y-16174579D02*
X12170063Y-16155531D01*
X12170063Y-16155531D02*
X12179586Y-16146008D01*
X12179586Y-16146008D02*
X12198634Y-16136484D01*
X12351015Y-16317436D02*
X12360539Y-16326960D01*
X12360539Y-16326960D02*
X12351015Y-16336484D01*
X12351015Y-16336484D02*
X12341491Y-16326960D01*
X12341491Y-16326960D02*
X12351015Y-16317436D01*
X12351015Y-16317436D02*
X12351015Y-16336484D01*
X12484348Y-16136484D02*
X12503396Y-16136484D01*
X12503396Y-16136484D02*
X12522444Y-16146008D01*
X12522444Y-16146008D02*
X12531967Y-16155531D01*
X12531967Y-16155531D02*
X12541491Y-16174579D01*
X12541491Y-16174579D02*
X12551015Y-16212674D01*
X12551015Y-16212674D02*
X12551015Y-16260293D01*
X12551015Y-16260293D02*
X12541491Y-16298388D01*
X12541491Y-16298388D02*
X12531967Y-16317436D01*
X12531967Y-16317436D02*
X12522444Y-16326960D01*
X12522444Y-16326960D02*
X12503396Y-16336484D01*
X12503396Y-16336484D02*
X12484348Y-16336484D01*
X12484348Y-16336484D02*
X12465301Y-16326960D01*
X12465301Y-16326960D02*
X12455777Y-16317436D01*
X12455777Y-16317436D02*
X12446253Y-16298388D01*
X12446253Y-16298388D02*
X12436729Y-16260293D01*
X12436729Y-16260293D02*
X12436729Y-16212674D01*
X12436729Y-16212674D02*
X12446253Y-16174579D01*
X12446253Y-16174579D02*
X12455777Y-16155531D01*
X12455777Y-16155531D02*
X12465301Y-16146008D01*
X12465301Y-16146008D02*
X12484348Y-16136484D01*
X12617682Y-16136484D02*
X12751015Y-16136484D01*
X12751015Y-16136484D02*
X12665301Y-16336484D01*
X12855777Y-16222198D02*
X12836729Y-16212674D01*
X12836729Y-16212674D02*
X12827206Y-16203150D01*
X12827206Y-16203150D02*
X12817682Y-16184103D01*
X12817682Y-16184103D02*
X12817682Y-16174579D01*
X12817682Y-16174579D02*
X12827206Y-16155531D01*
X12827206Y-16155531D02*
X12836729Y-16146008D01*
X12836729Y-16146008D02*
X12855777Y-16136484D01*
X12855777Y-16136484D02*
X12893872Y-16136484D01*
X12893872Y-16136484D02*
X12912920Y-16146008D01*
X12912920Y-16146008D02*
X12922444Y-16155531D01*
X12922444Y-16155531D02*
X12931967Y-16174579D01*
X12931967Y-16174579D02*
X12931967Y-16184103D01*
X12931967Y-16184103D02*
X12922444Y-16203150D01*
X12922444Y-16203150D02*
X12912920Y-16212674D01*
X12912920Y-16212674D02*
X12893872Y-16222198D01*
X12893872Y-16222198D02*
X12855777Y-16222198D01*
X12855777Y-16222198D02*
X12836729Y-16231722D01*
X12836729Y-16231722D02*
X12827206Y-16241246D01*
X12827206Y-16241246D02*
X12817682Y-16260293D01*
X12817682Y-16260293D02*
X12817682Y-16298388D01*
X12817682Y-16298388D02*
X12827206Y-16317436D01*
X12827206Y-16317436D02*
X12836729Y-16326960D01*
X12836729Y-16326960D02*
X12855777Y-16336484D01*
X12855777Y-16336484D02*
X12893872Y-16336484D01*
X12893872Y-16336484D02*
X12912920Y-16326960D01*
X12912920Y-16326960D02*
X12922444Y-16317436D01*
X12922444Y-16317436D02*
X12931967Y-16298388D01*
X12931967Y-16298388D02*
X12931967Y-16260293D01*
X12931967Y-16260293D02*
X12922444Y-16241246D01*
X12922444Y-16241246D02*
X12912920Y-16231722D01*
X12912920Y-16231722D02*
X12893872Y-16222198D01*
X13055777Y-16136484D02*
X13074825Y-16136484D01*
X13074825Y-16136484D02*
X13093872Y-16146008D01*
X13093872Y-16146008D02*
X13103396Y-16155531D01*
X13103396Y-16155531D02*
X13112920Y-16174579D01*
X13112920Y-16174579D02*
X13122444Y-16212674D01*
X13122444Y-16212674D02*
X13122444Y-16260293D01*
X13122444Y-16260293D02*
X13112920Y-16298388D01*
X13112920Y-16298388D02*
X13103396Y-16317436D01*
X13103396Y-16317436D02*
X13093872Y-16326960D01*
X13093872Y-16326960D02*
X13074825Y-16336484D01*
X13074825Y-16336484D02*
X13055777Y-16336484D01*
X13055777Y-16336484D02*
X13036729Y-16326960D01*
X13036729Y-16326960D02*
X13027206Y-16317436D01*
X13027206Y-16317436D02*
X13017682Y-16298388D01*
X13017682Y-16298388D02*
X13008158Y-16260293D01*
X13008158Y-16260293D02*
X13008158Y-16212674D01*
X13008158Y-16212674D02*
X13017682Y-16174579D01*
X13017682Y-16174579D02*
X13027206Y-16155531D01*
X13027206Y-16155531D02*
X13036729Y-16146008D01*
X13036729Y-16146008D02*
X13055777Y-16136484D01*
X13198634Y-16136484D02*
X13198634Y-16174579D01*
X13274825Y-16136484D02*
X13274825Y-16174579D01*
X13570063Y-16412674D02*
X13560539Y-16403150D01*
X13560539Y-16403150D02*
X13541491Y-16374579D01*
X13541491Y-16374579D02*
X13531968Y-16355531D01*
X13531968Y-16355531D02*
X13522444Y-16326960D01*
X13522444Y-16326960D02*
X13512920Y-16279341D01*
X13512920Y-16279341D02*
X13512920Y-16241246D01*
X13512920Y-16241246D02*
X13522444Y-16193627D01*
X13522444Y-16193627D02*
X13531968Y-16165055D01*
X13531968Y-16165055D02*
X13541491Y-16146008D01*
X13541491Y-16146008D02*
X13560539Y-16117436D01*
X13560539Y-16117436D02*
X13570063Y-16107912D01*
X13674825Y-16222198D02*
X13655777Y-16212674D01*
X13655777Y-16212674D02*
X13646253Y-16203150D01*
X13646253Y-16203150D02*
X13636729Y-16184103D01*
X13636729Y-16184103D02*
X13636729Y-16174579D01*
X13636729Y-16174579D02*
X13646253Y-16155531D01*
X13646253Y-16155531D02*
X13655777Y-16146008D01*
X13655777Y-16146008D02*
X13674825Y-16136484D01*
X13674825Y-16136484D02*
X13712920Y-16136484D01*
X13712920Y-16136484D02*
X13731968Y-16146008D01*
X13731968Y-16146008D02*
X13741491Y-16155531D01*
X13741491Y-16155531D02*
X13751015Y-16174579D01*
X13751015Y-16174579D02*
X13751015Y-16184103D01*
X13751015Y-16184103D02*
X13741491Y-16203150D01*
X13741491Y-16203150D02*
X13731968Y-16212674D01*
X13731968Y-16212674D02*
X13712920Y-16222198D01*
X13712920Y-16222198D02*
X13674825Y-16222198D01*
X13674825Y-16222198D02*
X13655777Y-16231722D01*
X13655777Y-16231722D02*
X13646253Y-16241246D01*
X13646253Y-16241246D02*
X13636729Y-16260293D01*
X13636729Y-16260293D02*
X13636729Y-16298388D01*
X13636729Y-16298388D02*
X13646253Y-16317436D01*
X13646253Y-16317436D02*
X13655777Y-16326960D01*
X13655777Y-16326960D02*
X13674825Y-16336484D01*
X13674825Y-16336484D02*
X13712920Y-16336484D01*
X13712920Y-16336484D02*
X13731968Y-16326960D01*
X13731968Y-16326960D02*
X13741491Y-16317436D01*
X13741491Y-16317436D02*
X13751015Y-16298388D01*
X13751015Y-16298388D02*
X13751015Y-16260293D01*
X13751015Y-16260293D02*
X13741491Y-16241246D01*
X13741491Y-16241246D02*
X13731968Y-16231722D01*
X13731968Y-16231722D02*
X13712920Y-16222198D01*
X13989110Y-16336484D02*
X13989110Y-16136484D01*
X14074825Y-16336484D02*
X14074825Y-16231722D01*
X14074825Y-16231722D02*
X14065301Y-16212674D01*
X14065301Y-16212674D02*
X14046253Y-16203150D01*
X14046253Y-16203150D02*
X14017682Y-16203150D01*
X14017682Y-16203150D02*
X13998634Y-16212674D01*
X13998634Y-16212674D02*
X13989110Y-16222198D01*
X14198634Y-16336484D02*
X14179587Y-16326960D01*
X14179587Y-16326960D02*
X14170063Y-16317436D01*
X14170063Y-16317436D02*
X14160539Y-16298388D01*
X14160539Y-16298388D02*
X14160539Y-16241246D01*
X14160539Y-16241246D02*
X14170063Y-16222198D01*
X14170063Y-16222198D02*
X14179587Y-16212674D01*
X14179587Y-16212674D02*
X14198634Y-16203150D01*
X14198634Y-16203150D02*
X14227206Y-16203150D01*
X14227206Y-16203150D02*
X14246253Y-16212674D01*
X14246253Y-16212674D02*
X14255777Y-16222198D01*
X14255777Y-16222198D02*
X14265301Y-16241246D01*
X14265301Y-16241246D02*
X14265301Y-16298388D01*
X14265301Y-16298388D02*
X14255777Y-16317436D01*
X14255777Y-16317436D02*
X14246253Y-16326960D01*
X14246253Y-16326960D02*
X14227206Y-16336484D01*
X14227206Y-16336484D02*
X14198634Y-16336484D01*
X14379587Y-16336484D02*
X14360539Y-16326960D01*
X14360539Y-16326960D02*
X14351015Y-16307912D01*
X14351015Y-16307912D02*
X14351015Y-16136484D01*
X14531968Y-16326960D02*
X14512920Y-16336484D01*
X14512920Y-16336484D02*
X14474825Y-16336484D01*
X14474825Y-16336484D02*
X14455777Y-16326960D01*
X14455777Y-16326960D02*
X14446253Y-16307912D01*
X14446253Y-16307912D02*
X14446253Y-16231722D01*
X14446253Y-16231722D02*
X14455777Y-16212674D01*
X14455777Y-16212674D02*
X14474825Y-16203150D01*
X14474825Y-16203150D02*
X14512920Y-16203150D01*
X14512920Y-16203150D02*
X14531968Y-16212674D01*
X14531968Y-16212674D02*
X14541491Y-16231722D01*
X14541491Y-16231722D02*
X14541491Y-16250769D01*
X14541491Y-16250769D02*
X14446253Y-16269817D01*
X14617682Y-16326960D02*
X14636730Y-16336484D01*
X14636730Y-16336484D02*
X14674825Y-16336484D01*
X14674825Y-16336484D02*
X14693872Y-16326960D01*
X14693872Y-16326960D02*
X14703396Y-16307912D01*
X14703396Y-16307912D02*
X14703396Y-16298388D01*
X14703396Y-16298388D02*
X14693872Y-16279341D01*
X14693872Y-16279341D02*
X14674825Y-16269817D01*
X14674825Y-16269817D02*
X14646253Y-16269817D01*
X14646253Y-16269817D02*
X14627206Y-16260293D01*
X14627206Y-16260293D02*
X14617682Y-16241246D01*
X14617682Y-16241246D02*
X14617682Y-16231722D01*
X14617682Y-16231722D02*
X14627206Y-16212674D01*
X14627206Y-16212674D02*
X14646253Y-16203150D01*
X14646253Y-16203150D02*
X14674825Y-16203150D01*
X14674825Y-16203150D02*
X14693872Y-16212674D01*
X14770063Y-16412674D02*
X14779587Y-16403150D01*
X14779587Y-16403150D02*
X14798634Y-16374579D01*
X14798634Y-16374579D02*
X14808158Y-16355531D01*
X14808158Y-16355531D02*
X14817682Y-16326960D01*
X14817682Y-16326960D02*
X14827206Y-16279341D01*
X14827206Y-16279341D02*
X14827206Y-16241246D01*
X14827206Y-16241246D02*
X14817682Y-16193627D01*
X14817682Y-16193627D02*
X14808158Y-16165055D01*
X14808158Y-16165055D02*
X14798634Y-16146008D01*
X14798634Y-16146008D02*
X14779587Y-16117436D01*
X14779587Y-16117436D02*
X14770063Y-16107912D01*
X15131968Y-16412674D02*
X15122444Y-16403150D01*
X15122444Y-16403150D02*
X15103396Y-16374579D01*
X15103396Y-16374579D02*
X15093872Y-16355531D01*
X15093872Y-16355531D02*
X15084349Y-16326960D01*
X15084349Y-16326960D02*
X15074825Y-16279341D01*
X15074825Y-16279341D02*
X15074825Y-16241246D01*
X15074825Y-16241246D02*
X15084349Y-16193627D01*
X15084349Y-16193627D02*
X15093872Y-16165055D01*
X15093872Y-16165055D02*
X15103396Y-16146008D01*
X15103396Y-16146008D02*
X15122444Y-16117436D01*
X15122444Y-16117436D02*
X15131968Y-16107912D01*
X15208158Y-16203150D02*
X15208158Y-16336484D01*
X15208158Y-16222198D02*
X15217682Y-16212674D01*
X15217682Y-16212674D02*
X15236730Y-16203150D01*
X15236730Y-16203150D02*
X15265301Y-16203150D01*
X15265301Y-16203150D02*
X15284349Y-16212674D01*
X15284349Y-16212674D02*
X15293872Y-16231722D01*
X15293872Y-16231722D02*
X15293872Y-16336484D01*
X15417682Y-16336484D02*
X15398634Y-16326960D01*
X15398634Y-16326960D02*
X15389111Y-16317436D01*
X15389111Y-16317436D02*
X15379587Y-16298388D01*
X15379587Y-16298388D02*
X15379587Y-16241246D01*
X15379587Y-16241246D02*
X15389111Y-16222198D01*
X15389111Y-16222198D02*
X15398634Y-16212674D01*
X15398634Y-16212674D02*
X15417682Y-16203150D01*
X15417682Y-16203150D02*
X15446253Y-16203150D01*
X15446253Y-16203150D02*
X15465301Y-16212674D01*
X15465301Y-16212674D02*
X15474825Y-16222198D01*
X15474825Y-16222198D02*
X15484349Y-16241246D01*
X15484349Y-16241246D02*
X15484349Y-16298388D01*
X15484349Y-16298388D02*
X15474825Y-16317436D01*
X15474825Y-16317436D02*
X15465301Y-16326960D01*
X15465301Y-16326960D02*
X15446253Y-16336484D01*
X15446253Y-16336484D02*
X15417682Y-16336484D01*
X15541492Y-16203150D02*
X15617682Y-16203150D01*
X15570063Y-16136484D02*
X15570063Y-16307912D01*
X15570063Y-16307912D02*
X15579587Y-16326960D01*
X15579587Y-16326960D02*
X15598634Y-16336484D01*
X15598634Y-16336484D02*
X15617682Y-16336484D01*
X15836730Y-16203150D02*
X15836730Y-16403150D01*
X15836730Y-16212674D02*
X15855777Y-16203150D01*
X15855777Y-16203150D02*
X15893873Y-16203150D01*
X15893873Y-16203150D02*
X15912920Y-16212674D01*
X15912920Y-16212674D02*
X15922444Y-16222198D01*
X15922444Y-16222198D02*
X15931968Y-16241246D01*
X15931968Y-16241246D02*
X15931968Y-16298388D01*
X15931968Y-16298388D02*
X15922444Y-16317436D01*
X15922444Y-16317436D02*
X15912920Y-16326960D01*
X15912920Y-16326960D02*
X15893873Y-16336484D01*
X15893873Y-16336484D02*
X15855777Y-16336484D01*
X15855777Y-16336484D02*
X15836730Y-16326960D01*
X16046253Y-16336484D02*
X16027206Y-16326960D01*
X16027206Y-16326960D02*
X16017682Y-16307912D01*
X16017682Y-16307912D02*
X16017682Y-16136484D01*
X16208158Y-16336484D02*
X16208158Y-16231722D01*
X16208158Y-16231722D02*
X16198634Y-16212674D01*
X16198634Y-16212674D02*
X16179587Y-16203150D01*
X16179587Y-16203150D02*
X16141492Y-16203150D01*
X16141492Y-16203150D02*
X16122444Y-16212674D01*
X16208158Y-16326960D02*
X16189111Y-16336484D01*
X16189111Y-16336484D02*
X16141492Y-16336484D01*
X16141492Y-16336484D02*
X16122444Y-16326960D01*
X16122444Y-16326960D02*
X16112920Y-16307912D01*
X16112920Y-16307912D02*
X16112920Y-16288865D01*
X16112920Y-16288865D02*
X16122444Y-16269817D01*
X16122444Y-16269817D02*
X16141492Y-16260293D01*
X16141492Y-16260293D02*
X16189111Y-16260293D01*
X16189111Y-16260293D02*
X16208158Y-16250769D01*
X16274825Y-16203150D02*
X16351015Y-16203150D01*
X16303396Y-16136484D02*
X16303396Y-16307912D01*
X16303396Y-16307912D02*
X16312920Y-16326960D01*
X16312920Y-16326960D02*
X16331968Y-16336484D01*
X16331968Y-16336484D02*
X16351015Y-16336484D01*
X16493873Y-16326960D02*
X16474825Y-16336484D01*
X16474825Y-16336484D02*
X16436730Y-16336484D01*
X16436730Y-16336484D02*
X16417682Y-16326960D01*
X16417682Y-16326960D02*
X16408158Y-16307912D01*
X16408158Y-16307912D02*
X16408158Y-16231722D01*
X16408158Y-16231722D02*
X16417682Y-16212674D01*
X16417682Y-16212674D02*
X16436730Y-16203150D01*
X16436730Y-16203150D02*
X16474825Y-16203150D01*
X16474825Y-16203150D02*
X16493873Y-16212674D01*
X16493873Y-16212674D02*
X16503396Y-16231722D01*
X16503396Y-16231722D02*
X16503396Y-16250769D01*
X16503396Y-16250769D02*
X16408158Y-16269817D01*
X16674825Y-16336484D02*
X16674825Y-16136484D01*
X16674825Y-16326960D02*
X16655777Y-16336484D01*
X16655777Y-16336484D02*
X16617682Y-16336484D01*
X16617682Y-16336484D02*
X16598634Y-16326960D01*
X16598634Y-16326960D02*
X16589111Y-16317436D01*
X16589111Y-16317436D02*
X16579587Y-16298388D01*
X16579587Y-16298388D02*
X16579587Y-16241246D01*
X16579587Y-16241246D02*
X16589111Y-16222198D01*
X16589111Y-16222198D02*
X16598634Y-16212674D01*
X16598634Y-16212674D02*
X16617682Y-16203150D01*
X16617682Y-16203150D02*
X16655777Y-16203150D01*
X16655777Y-16203150D02*
X16674825Y-16212674D01*
X16751015Y-16412674D02*
X16760539Y-16403150D01*
X16760539Y-16403150D02*
X16779587Y-16374579D01*
X16779587Y-16374579D02*
X16789111Y-16355531D01*
X16789111Y-16355531D02*
X16798635Y-16326960D01*
X16798635Y-16326960D02*
X16808158Y-16279341D01*
X16808158Y-16279341D02*
X16808158Y-16241246D01*
X16808158Y-16241246D02*
X16798635Y-16193627D01*
X16798635Y-16193627D02*
X16789111Y-16165055D01*
X16789111Y-16165055D02*
X16779587Y-16146008D01*
X16779587Y-16146008D02*
X16760539Y-16117436D01*
X16760539Y-16117436D02*
X16751015Y-16107912D01*
X9995000Y-16563120D02*
G75*
G02*
X9795000Y-16563120I-100000J0D01*
G01*
X9795000Y-16563120D02*
G75*
G02*
X9995000Y-16563120I100000J0D01*
G01*
X10246253Y-16473651D02*
X10255777Y-16464128D01*
X10255777Y-16464128D02*
X10274824Y-16454604D01*
X10274824Y-16454604D02*
X10322444Y-16454604D01*
X10322444Y-16454604D02*
X10341491Y-16464128D01*
X10341491Y-16464128D02*
X10351015Y-16473651D01*
X10351015Y-16473651D02*
X10360539Y-16492699D01*
X10360539Y-16492699D02*
X10360539Y-16511747D01*
X10360539Y-16511747D02*
X10351015Y-16540318D01*
X10351015Y-16540318D02*
X10236729Y-16654604D01*
X10236729Y-16654604D02*
X10360539Y-16654604D01*
X10446253Y-16635556D02*
X10455777Y-16645080D01*
X10455777Y-16645080D02*
X10446253Y-16654604D01*
X10446253Y-16654604D02*
X10436729Y-16645080D01*
X10436729Y-16645080D02*
X10446253Y-16635556D01*
X10446253Y-16635556D02*
X10446253Y-16654604D01*
X10579586Y-16454604D02*
X10598634Y-16454604D01*
X10598634Y-16454604D02*
X10617682Y-16464128D01*
X10617682Y-16464128D02*
X10627205Y-16473651D01*
X10627205Y-16473651D02*
X10636729Y-16492699D01*
X10636729Y-16492699D02*
X10646253Y-16530794D01*
X10646253Y-16530794D02*
X10646253Y-16578413D01*
X10646253Y-16578413D02*
X10636729Y-16616508D01*
X10636729Y-16616508D02*
X10627205Y-16635556D01*
X10627205Y-16635556D02*
X10617682Y-16645080D01*
X10617682Y-16645080D02*
X10598634Y-16654604D01*
X10598634Y-16654604D02*
X10579586Y-16654604D01*
X10579586Y-16654604D02*
X10560539Y-16645080D01*
X10560539Y-16645080D02*
X10551015Y-16635556D01*
X10551015Y-16635556D02*
X10541491Y-16616508D01*
X10541491Y-16616508D02*
X10531967Y-16578413D01*
X10531967Y-16578413D02*
X10531967Y-16530794D01*
X10531967Y-16530794D02*
X10541491Y-16492699D01*
X10541491Y-16492699D02*
X10551015Y-16473651D01*
X10551015Y-16473651D02*
X10560539Y-16464128D01*
X10560539Y-16464128D02*
X10579586Y-16454604D01*
X10760539Y-16540318D02*
X10741491Y-16530794D01*
X10741491Y-16530794D02*
X10731967Y-16521270D01*
X10731967Y-16521270D02*
X10722444Y-16502223D01*
X10722444Y-16502223D02*
X10722444Y-16492699D01*
X10722444Y-16492699D02*
X10731967Y-16473651D01*
X10731967Y-16473651D02*
X10741491Y-16464128D01*
X10741491Y-16464128D02*
X10760539Y-16454604D01*
X10760539Y-16454604D02*
X10798634Y-16454604D01*
X10798634Y-16454604D02*
X10817682Y-16464128D01*
X10817682Y-16464128D02*
X10827205Y-16473651D01*
X10827205Y-16473651D02*
X10836729Y-16492699D01*
X10836729Y-16492699D02*
X10836729Y-16502223D01*
X10836729Y-16502223D02*
X10827205Y-16521270D01*
X10827205Y-16521270D02*
X10817682Y-16530794D01*
X10817682Y-16530794D02*
X10798634Y-16540318D01*
X10798634Y-16540318D02*
X10760539Y-16540318D01*
X10760539Y-16540318D02*
X10741491Y-16549842D01*
X10741491Y-16549842D02*
X10731967Y-16559366D01*
X10731967Y-16559366D02*
X10722444Y-16578413D01*
X10722444Y-16578413D02*
X10722444Y-16616508D01*
X10722444Y-16616508D02*
X10731967Y-16635556D01*
X10731967Y-16635556D02*
X10741491Y-16645080D01*
X10741491Y-16645080D02*
X10760539Y-16654604D01*
X10760539Y-16654604D02*
X10798634Y-16654604D01*
X10798634Y-16654604D02*
X10817682Y-16645080D01*
X10817682Y-16645080D02*
X10827205Y-16635556D01*
X10827205Y-16635556D02*
X10836729Y-16616508D01*
X10836729Y-16616508D02*
X10836729Y-16578413D01*
X10836729Y-16578413D02*
X10827205Y-16559366D01*
X10827205Y-16559366D02*
X10817682Y-16549842D01*
X10817682Y-16549842D02*
X10798634Y-16540318D01*
X10903396Y-16454604D02*
X11027205Y-16454604D01*
X11027205Y-16454604D02*
X10960539Y-16530794D01*
X10960539Y-16530794D02*
X10989110Y-16530794D01*
X10989110Y-16530794D02*
X11008158Y-16540318D01*
X11008158Y-16540318D02*
X11017682Y-16549842D01*
X11017682Y-16549842D02*
X11027205Y-16568889D01*
X11027205Y-16568889D02*
X11027205Y-16616508D01*
X11027205Y-16616508D02*
X11017682Y-16635556D01*
X11017682Y-16635556D02*
X11008158Y-16645080D01*
X11008158Y-16645080D02*
X10989110Y-16654604D01*
X10989110Y-16654604D02*
X10931967Y-16654604D01*
X10931967Y-16654604D02*
X10912920Y-16645080D01*
X10912920Y-16645080D02*
X10903396Y-16635556D01*
X11112920Y-16654604D02*
X11112920Y-16521270D01*
X11112920Y-16540318D02*
X11122444Y-16530794D01*
X11122444Y-16530794D02*
X11141491Y-16521270D01*
X11141491Y-16521270D02*
X11170063Y-16521270D01*
X11170063Y-16521270D02*
X11189110Y-16530794D01*
X11189110Y-16530794D02*
X11198634Y-16549842D01*
X11198634Y-16549842D02*
X11198634Y-16654604D01*
X11198634Y-16549842D02*
X11208158Y-16530794D01*
X11208158Y-16530794D02*
X11227205Y-16521270D01*
X11227205Y-16521270D02*
X11255777Y-16521270D01*
X11255777Y-16521270D02*
X11274824Y-16530794D01*
X11274824Y-16530794D02*
X11284348Y-16549842D01*
X11284348Y-16549842D02*
X11284348Y-16654604D01*
X11379586Y-16654604D02*
X11379586Y-16521270D01*
X11379586Y-16540318D02*
X11389110Y-16530794D01*
X11389110Y-16530794D02*
X11408158Y-16521270D01*
X11408158Y-16521270D02*
X11436729Y-16521270D01*
X11436729Y-16521270D02*
X11455777Y-16530794D01*
X11455777Y-16530794D02*
X11465301Y-16549842D01*
X11465301Y-16549842D02*
X11465301Y-16654604D01*
X11465301Y-16549842D02*
X11474824Y-16530794D01*
X11474824Y-16530794D02*
X11493872Y-16521270D01*
X11493872Y-16521270D02*
X11522443Y-16521270D01*
X11522443Y-16521270D02*
X11541491Y-16530794D01*
X11541491Y-16530794D02*
X11551015Y-16549842D01*
X11551015Y-16549842D02*
X11551015Y-16654604D01*
X11941491Y-16445080D02*
X11770063Y-16702223D01*
X12198634Y-16454604D02*
X12217682Y-16454604D01*
X12217682Y-16454604D02*
X12236729Y-16464128D01*
X12236729Y-16464128D02*
X12246253Y-16473651D01*
X12246253Y-16473651D02*
X12255777Y-16492699D01*
X12255777Y-16492699D02*
X12265301Y-16530794D01*
X12265301Y-16530794D02*
X12265301Y-16578413D01*
X12265301Y-16578413D02*
X12255777Y-16616508D01*
X12255777Y-16616508D02*
X12246253Y-16635556D01*
X12246253Y-16635556D02*
X12236729Y-16645080D01*
X12236729Y-16645080D02*
X12217682Y-16654604D01*
X12217682Y-16654604D02*
X12198634Y-16654604D01*
X12198634Y-16654604D02*
X12179586Y-16645080D01*
X12179586Y-16645080D02*
X12170063Y-16635556D01*
X12170063Y-16635556D02*
X12160539Y-16616508D01*
X12160539Y-16616508D02*
X12151015Y-16578413D01*
X12151015Y-16578413D02*
X12151015Y-16530794D01*
X12151015Y-16530794D02*
X12160539Y-16492699D01*
X12160539Y-16492699D02*
X12170063Y-16473651D01*
X12170063Y-16473651D02*
X12179586Y-16464128D01*
X12179586Y-16464128D02*
X12198634Y-16454604D01*
X12351015Y-16635556D02*
X12360539Y-16645080D01*
X12360539Y-16645080D02*
X12351015Y-16654604D01*
X12351015Y-16654604D02*
X12341491Y-16645080D01*
X12341491Y-16645080D02*
X12351015Y-16635556D01*
X12351015Y-16635556D02*
X12351015Y-16654604D01*
X12484348Y-16454604D02*
X12503396Y-16454604D01*
X12503396Y-16454604D02*
X12522444Y-16464128D01*
X12522444Y-16464128D02*
X12531967Y-16473651D01*
X12531967Y-16473651D02*
X12541491Y-16492699D01*
X12541491Y-16492699D02*
X12551015Y-16530794D01*
X12551015Y-16530794D02*
X12551015Y-16578413D01*
X12551015Y-16578413D02*
X12541491Y-16616508D01*
X12541491Y-16616508D02*
X12531967Y-16635556D01*
X12531967Y-16635556D02*
X12522444Y-16645080D01*
X12522444Y-16645080D02*
X12503396Y-16654604D01*
X12503396Y-16654604D02*
X12484348Y-16654604D01*
X12484348Y-16654604D02*
X12465301Y-16645080D01*
X12465301Y-16645080D02*
X12455777Y-16635556D01*
X12455777Y-16635556D02*
X12446253Y-16616508D01*
X12446253Y-16616508D02*
X12436729Y-16578413D01*
X12436729Y-16578413D02*
X12436729Y-16530794D01*
X12436729Y-16530794D02*
X12446253Y-16492699D01*
X12446253Y-16492699D02*
X12455777Y-16473651D01*
X12455777Y-16473651D02*
X12465301Y-16464128D01*
X12465301Y-16464128D02*
X12484348Y-16454604D01*
X12665301Y-16540318D02*
X12646253Y-16530794D01*
X12646253Y-16530794D02*
X12636729Y-16521270D01*
X12636729Y-16521270D02*
X12627206Y-16502223D01*
X12627206Y-16502223D02*
X12627206Y-16492699D01*
X12627206Y-16492699D02*
X12636729Y-16473651D01*
X12636729Y-16473651D02*
X12646253Y-16464128D01*
X12646253Y-16464128D02*
X12665301Y-16454604D01*
X12665301Y-16454604D02*
X12703396Y-16454604D01*
X12703396Y-16454604D02*
X12722444Y-16464128D01*
X12722444Y-16464128D02*
X12731967Y-16473651D01*
X12731967Y-16473651D02*
X12741491Y-16492699D01*
X12741491Y-16492699D02*
X12741491Y-16502223D01*
X12741491Y-16502223D02*
X12731967Y-16521270D01*
X12731967Y-16521270D02*
X12722444Y-16530794D01*
X12722444Y-16530794D02*
X12703396Y-16540318D01*
X12703396Y-16540318D02*
X12665301Y-16540318D01*
X12665301Y-16540318D02*
X12646253Y-16549842D01*
X12646253Y-16549842D02*
X12636729Y-16559366D01*
X12636729Y-16559366D02*
X12627206Y-16578413D01*
X12627206Y-16578413D02*
X12627206Y-16616508D01*
X12627206Y-16616508D02*
X12636729Y-16635556D01*
X12636729Y-16635556D02*
X12646253Y-16645080D01*
X12646253Y-16645080D02*
X12665301Y-16654604D01*
X12665301Y-16654604D02*
X12703396Y-16654604D01*
X12703396Y-16654604D02*
X12722444Y-16645080D01*
X12722444Y-16645080D02*
X12731967Y-16635556D01*
X12731967Y-16635556D02*
X12741491Y-16616508D01*
X12741491Y-16616508D02*
X12741491Y-16578413D01*
X12741491Y-16578413D02*
X12731967Y-16559366D01*
X12731967Y-16559366D02*
X12722444Y-16549842D01*
X12722444Y-16549842D02*
X12703396Y-16540318D01*
X12817682Y-16473651D02*
X12827206Y-16464128D01*
X12827206Y-16464128D02*
X12846253Y-16454604D01*
X12846253Y-16454604D02*
X12893872Y-16454604D01*
X12893872Y-16454604D02*
X12912920Y-16464128D01*
X12912920Y-16464128D02*
X12922444Y-16473651D01*
X12922444Y-16473651D02*
X12931967Y-16492699D01*
X12931967Y-16492699D02*
X12931967Y-16511747D01*
X12931967Y-16511747D02*
X12922444Y-16540318D01*
X12922444Y-16540318D02*
X12808158Y-16654604D01*
X12808158Y-16654604D02*
X12931967Y-16654604D01*
X13055777Y-16454604D02*
X13074825Y-16454604D01*
X13074825Y-16454604D02*
X13093872Y-16464128D01*
X13093872Y-16464128D02*
X13103396Y-16473651D01*
X13103396Y-16473651D02*
X13112920Y-16492699D01*
X13112920Y-16492699D02*
X13122444Y-16530794D01*
X13122444Y-16530794D02*
X13122444Y-16578413D01*
X13122444Y-16578413D02*
X13112920Y-16616508D01*
X13112920Y-16616508D02*
X13103396Y-16635556D01*
X13103396Y-16635556D02*
X13093872Y-16645080D01*
X13093872Y-16645080D02*
X13074825Y-16654604D01*
X13074825Y-16654604D02*
X13055777Y-16654604D01*
X13055777Y-16654604D02*
X13036729Y-16645080D01*
X13036729Y-16645080D02*
X13027206Y-16635556D01*
X13027206Y-16635556D02*
X13017682Y-16616508D01*
X13017682Y-16616508D02*
X13008158Y-16578413D01*
X13008158Y-16578413D02*
X13008158Y-16530794D01*
X13008158Y-16530794D02*
X13017682Y-16492699D01*
X13017682Y-16492699D02*
X13027206Y-16473651D01*
X13027206Y-16473651D02*
X13036729Y-16464128D01*
X13036729Y-16464128D02*
X13055777Y-16454604D01*
X13198634Y-16454604D02*
X13198634Y-16492699D01*
X13274825Y-16454604D02*
X13274825Y-16492699D01*
X13570063Y-16730794D02*
X13560539Y-16721270D01*
X13560539Y-16721270D02*
X13541491Y-16692699D01*
X13541491Y-16692699D02*
X13531968Y-16673651D01*
X13531968Y-16673651D02*
X13522444Y-16645080D01*
X13522444Y-16645080D02*
X13512920Y-16597461D01*
X13512920Y-16597461D02*
X13512920Y-16559366D01*
X13512920Y-16559366D02*
X13522444Y-16511747D01*
X13522444Y-16511747D02*
X13531968Y-16483175D01*
X13531968Y-16483175D02*
X13541491Y-16464128D01*
X13541491Y-16464128D02*
X13560539Y-16435556D01*
X13560539Y-16435556D02*
X13570063Y-16426032D01*
X13731968Y-16521270D02*
X13731968Y-16654604D01*
X13684348Y-16445080D02*
X13636729Y-16587937D01*
X13636729Y-16587937D02*
X13760539Y-16587937D01*
X13989110Y-16654604D02*
X13989110Y-16454604D01*
X14074825Y-16654604D02*
X14074825Y-16549842D01*
X14074825Y-16549842D02*
X14065301Y-16530794D01*
X14065301Y-16530794D02*
X14046253Y-16521270D01*
X14046253Y-16521270D02*
X14017682Y-16521270D01*
X14017682Y-16521270D02*
X13998634Y-16530794D01*
X13998634Y-16530794D02*
X13989110Y-16540318D01*
X14198634Y-16654604D02*
X14179587Y-16645080D01*
X14179587Y-16645080D02*
X14170063Y-16635556D01*
X14170063Y-16635556D02*
X14160539Y-16616508D01*
X14160539Y-16616508D02*
X14160539Y-16559366D01*
X14160539Y-16559366D02*
X14170063Y-16540318D01*
X14170063Y-16540318D02*
X14179587Y-16530794D01*
X14179587Y-16530794D02*
X14198634Y-16521270D01*
X14198634Y-16521270D02*
X14227206Y-16521270D01*
X14227206Y-16521270D02*
X14246253Y-16530794D01*
X14246253Y-16530794D02*
X14255777Y-16540318D01*
X14255777Y-16540318D02*
X14265301Y-16559366D01*
X14265301Y-16559366D02*
X14265301Y-16616508D01*
X14265301Y-16616508D02*
X14255777Y-16635556D01*
X14255777Y-16635556D02*
X14246253Y-16645080D01*
X14246253Y-16645080D02*
X14227206Y-16654604D01*
X14227206Y-16654604D02*
X14198634Y-16654604D01*
X14379587Y-16654604D02*
X14360539Y-16645080D01*
X14360539Y-16645080D02*
X14351015Y-16626032D01*
X14351015Y-16626032D02*
X14351015Y-16454604D01*
X14531968Y-16645080D02*
X14512920Y-16654604D01*
X14512920Y-16654604D02*
X14474825Y-16654604D01*
X14474825Y-16654604D02*
X14455777Y-16645080D01*
X14455777Y-16645080D02*
X14446253Y-16626032D01*
X14446253Y-16626032D02*
X14446253Y-16549842D01*
X14446253Y-16549842D02*
X14455777Y-16530794D01*
X14455777Y-16530794D02*
X14474825Y-16521270D01*
X14474825Y-16521270D02*
X14512920Y-16521270D01*
X14512920Y-16521270D02*
X14531968Y-16530794D01*
X14531968Y-16530794D02*
X14541491Y-16549842D01*
X14541491Y-16549842D02*
X14541491Y-16568889D01*
X14541491Y-16568889D02*
X14446253Y-16587937D01*
X14617682Y-16645080D02*
X14636730Y-16654604D01*
X14636730Y-16654604D02*
X14674825Y-16654604D01*
X14674825Y-16654604D02*
X14693872Y-16645080D01*
X14693872Y-16645080D02*
X14703396Y-16626032D01*
X14703396Y-16626032D02*
X14703396Y-16616508D01*
X14703396Y-16616508D02*
X14693872Y-16597461D01*
X14693872Y-16597461D02*
X14674825Y-16587937D01*
X14674825Y-16587937D02*
X14646253Y-16587937D01*
X14646253Y-16587937D02*
X14627206Y-16578413D01*
X14627206Y-16578413D02*
X14617682Y-16559366D01*
X14617682Y-16559366D02*
X14617682Y-16549842D01*
X14617682Y-16549842D02*
X14627206Y-16530794D01*
X14627206Y-16530794D02*
X14646253Y-16521270D01*
X14646253Y-16521270D02*
X14674825Y-16521270D01*
X14674825Y-16521270D02*
X14693872Y-16530794D01*
X14770063Y-16730794D02*
X14779587Y-16721270D01*
X14779587Y-16721270D02*
X14798634Y-16692699D01*
X14798634Y-16692699D02*
X14808158Y-16673651D01*
X14808158Y-16673651D02*
X14817682Y-16645080D01*
X14817682Y-16645080D02*
X14827206Y-16597461D01*
X14827206Y-16597461D02*
X14827206Y-16559366D01*
X14827206Y-16559366D02*
X14817682Y-16511747D01*
X14817682Y-16511747D02*
X14808158Y-16483175D01*
X14808158Y-16483175D02*
X14798634Y-16464128D01*
X14798634Y-16464128D02*
X14779587Y-16435556D01*
X14779587Y-16435556D02*
X14770063Y-16426032D01*
X15131968Y-16730794D02*
X15122444Y-16721270D01*
X15122444Y-16721270D02*
X15103396Y-16692699D01*
X15103396Y-16692699D02*
X15093872Y-16673651D01*
X15093872Y-16673651D02*
X15084349Y-16645080D01*
X15084349Y-16645080D02*
X15074825Y-16597461D01*
X15074825Y-16597461D02*
X15074825Y-16559366D01*
X15074825Y-16559366D02*
X15084349Y-16511747D01*
X15084349Y-16511747D02*
X15093872Y-16483175D01*
X15093872Y-16483175D02*
X15103396Y-16464128D01*
X15103396Y-16464128D02*
X15122444Y-16435556D01*
X15122444Y-16435556D02*
X15131968Y-16426032D01*
X15208158Y-16521270D02*
X15208158Y-16654604D01*
X15208158Y-16540318D02*
X15217682Y-16530794D01*
X15217682Y-16530794D02*
X15236730Y-16521270D01*
X15236730Y-16521270D02*
X15265301Y-16521270D01*
X15265301Y-16521270D02*
X15284349Y-16530794D01*
X15284349Y-16530794D02*
X15293872Y-16549842D01*
X15293872Y-16549842D02*
X15293872Y-16654604D01*
X15417682Y-16654604D02*
X15398634Y-16645080D01*
X15398634Y-16645080D02*
X15389111Y-16635556D01*
X15389111Y-16635556D02*
X15379587Y-16616508D01*
X15379587Y-16616508D02*
X15379587Y-16559366D01*
X15379587Y-16559366D02*
X15389111Y-16540318D01*
X15389111Y-16540318D02*
X15398634Y-16530794D01*
X15398634Y-16530794D02*
X15417682Y-16521270D01*
X15417682Y-16521270D02*
X15446253Y-16521270D01*
X15446253Y-16521270D02*
X15465301Y-16530794D01*
X15465301Y-16530794D02*
X15474825Y-16540318D01*
X15474825Y-16540318D02*
X15484349Y-16559366D01*
X15484349Y-16559366D02*
X15484349Y-16616508D01*
X15484349Y-16616508D02*
X15474825Y-16635556D01*
X15474825Y-16635556D02*
X15465301Y-16645080D01*
X15465301Y-16645080D02*
X15446253Y-16654604D01*
X15446253Y-16654604D02*
X15417682Y-16654604D01*
X15541492Y-16521270D02*
X15617682Y-16521270D01*
X15570063Y-16454604D02*
X15570063Y-16626032D01*
X15570063Y-16626032D02*
X15579587Y-16645080D01*
X15579587Y-16645080D02*
X15598634Y-16654604D01*
X15598634Y-16654604D02*
X15617682Y-16654604D01*
X15836730Y-16521270D02*
X15836730Y-16721270D01*
X15836730Y-16530794D02*
X15855777Y-16521270D01*
X15855777Y-16521270D02*
X15893873Y-16521270D01*
X15893873Y-16521270D02*
X15912920Y-16530794D01*
X15912920Y-16530794D02*
X15922444Y-16540318D01*
X15922444Y-16540318D02*
X15931968Y-16559366D01*
X15931968Y-16559366D02*
X15931968Y-16616508D01*
X15931968Y-16616508D02*
X15922444Y-16635556D01*
X15922444Y-16635556D02*
X15912920Y-16645080D01*
X15912920Y-16645080D02*
X15893873Y-16654604D01*
X15893873Y-16654604D02*
X15855777Y-16654604D01*
X15855777Y-16654604D02*
X15836730Y-16645080D01*
X16046253Y-16654604D02*
X16027206Y-16645080D01*
X16027206Y-16645080D02*
X16017682Y-16626032D01*
X16017682Y-16626032D02*
X16017682Y-16454604D01*
X16208158Y-16654604D02*
X16208158Y-16549842D01*
X16208158Y-16549842D02*
X16198634Y-16530794D01*
X16198634Y-16530794D02*
X16179587Y-16521270D01*
X16179587Y-16521270D02*
X16141492Y-16521270D01*
X16141492Y-16521270D02*
X16122444Y-16530794D01*
X16208158Y-16645080D02*
X16189111Y-16654604D01*
X16189111Y-16654604D02*
X16141492Y-16654604D01*
X16141492Y-16654604D02*
X16122444Y-16645080D01*
X16122444Y-16645080D02*
X16112920Y-16626032D01*
X16112920Y-16626032D02*
X16112920Y-16606985D01*
X16112920Y-16606985D02*
X16122444Y-16587937D01*
X16122444Y-16587937D02*
X16141492Y-16578413D01*
X16141492Y-16578413D02*
X16189111Y-16578413D01*
X16189111Y-16578413D02*
X16208158Y-16568889D01*
X16274825Y-16521270D02*
X16351015Y-16521270D01*
X16303396Y-16454604D02*
X16303396Y-16626032D01*
X16303396Y-16626032D02*
X16312920Y-16645080D01*
X16312920Y-16645080D02*
X16331968Y-16654604D01*
X16331968Y-16654604D02*
X16351015Y-16654604D01*
X16493873Y-16645080D02*
X16474825Y-16654604D01*
X16474825Y-16654604D02*
X16436730Y-16654604D01*
X16436730Y-16654604D02*
X16417682Y-16645080D01*
X16417682Y-16645080D02*
X16408158Y-16626032D01*
X16408158Y-16626032D02*
X16408158Y-16549842D01*
X16408158Y-16549842D02*
X16417682Y-16530794D01*
X16417682Y-16530794D02*
X16436730Y-16521270D01*
X16436730Y-16521270D02*
X16474825Y-16521270D01*
X16474825Y-16521270D02*
X16493873Y-16530794D01*
X16493873Y-16530794D02*
X16503396Y-16549842D01*
X16503396Y-16549842D02*
X16503396Y-16568889D01*
X16503396Y-16568889D02*
X16408158Y-16587937D01*
X16674825Y-16654604D02*
X16674825Y-16454604D01*
X16674825Y-16645080D02*
X16655777Y-16654604D01*
X16655777Y-16654604D02*
X16617682Y-16654604D01*
X16617682Y-16654604D02*
X16598634Y-16645080D01*
X16598634Y-16645080D02*
X16589111Y-16635556D01*
X16589111Y-16635556D02*
X16579587Y-16616508D01*
X16579587Y-16616508D02*
X16579587Y-16559366D01*
X16579587Y-16559366D02*
X16589111Y-16540318D01*
X16589111Y-16540318D02*
X16598634Y-16530794D01*
X16598634Y-16530794D02*
X16617682Y-16521270D01*
X16617682Y-16521270D02*
X16655777Y-16521270D01*
X16655777Y-16521270D02*
X16674825Y-16530794D01*
X16751015Y-16730794D02*
X16760539Y-16721270D01*
X16760539Y-16721270D02*
X16779587Y-16692699D01*
X16779587Y-16692699D02*
X16789111Y-16673651D01*
X16789111Y-16673651D02*
X16798635Y-16645080D01*
X16798635Y-16645080D02*
X16808158Y-16597461D01*
X16808158Y-16597461D02*
X16808158Y-16559366D01*
X16808158Y-16559366D02*
X16798635Y-16511747D01*
X16798635Y-16511747D02*
X16789111Y-16483175D01*
X16789111Y-16483175D02*
X16779587Y-16464128D01*
X16779587Y-16464128D02*
X16760539Y-16435556D01*
X16760539Y-16435556D02*
X16751015Y-16426032D01*
M02*
