G04 #@! TF.GenerationSoftware,KiCad,Pcbnew,8.0.3-8.0.3-0~ubuntu22.04.1*
G04 #@! TF.CreationDate,2024-07-07T23:08:19+03:00*
G04 #@! TF.ProjectId,riaa-preamp,72696161-2d70-4726-9561-6d702e6b6963,rev?*
G04 #@! TF.SameCoordinates,Original*
G04 #@! TF.FileFunction,Legend,Top*
G04 #@! TF.FilePolarity,Positive*
%FSLAX46Y46*%
G04 Gerber Fmt 4.6, Leading zero omitted, Abs format (unit mm)*
G04 Created by KiCad (PCBNEW 8.0.3-8.0.3-0~ubuntu22.04.1) date 2024-07-07 23:08:19*
%MOMM*%
%LPD*%
G01*
G04 APERTURE LIST*
G04 Aperture macros list*
%AMRoundRect*
0 Rectangle with rounded corners*
0 $1 Rounding radius*
0 $2 $3 $4 $5 $6 $7 $8 $9 X,Y pos of 4 corners*
0 Add a 4 corners polygon primitive as box body*
4,1,4,$2,$3,$4,$5,$6,$7,$8,$9,$2,$3,0*
0 Add four circle primitives for the rounded corners*
1,1,$1+$1,$2,$3*
1,1,$1+$1,$4,$5*
1,1,$1+$1,$6,$7*
1,1,$1+$1,$8,$9*
0 Add four rect primitives between the rounded corners*
20,1,$1+$1,$2,$3,$4,$5,0*
20,1,$1+$1,$4,$5,$6,$7,0*
20,1,$1+$1,$6,$7,$8,$9,0*
20,1,$1+$1,$8,$9,$2,$3,0*%
%AMFreePoly0*
4,1,9,3.862500,-0.866500,0.737500,-0.866500,0.737500,-0.450000,-0.737500,-0.450000,-0.737500,0.450000,0.737500,0.450000,0.737500,0.866500,3.862500,0.866500,3.862500,-0.866500,3.862500,-0.866500,$1*%
G04 Aperture macros list end*
%ADD10C,0.500000*%
%ADD11C,0.250000*%
%ADD12C,0.400000*%
%ADD13C,0.150000*%
%ADD14C,0.152400*%
%ADD15C,0.254000*%
%ADD16C,0.120000*%
%ADD17C,1.981200*%
%ADD18C,2.082800*%
%ADD19C,2.590800*%
%ADD20C,2.794000*%
%ADD21RoundRect,0.250000X0.450000X-0.350000X0.450000X0.350000X-0.450000X0.350000X-0.450000X-0.350000X0*%
%ADD22C,0.800000*%
%ADD23C,6.400000*%
%ADD24RoundRect,0.250000X0.350000X0.450000X-0.350000X0.450000X-0.350000X-0.450000X0.350000X-0.450000X0*%
%ADD25RoundRect,0.150000X-0.825000X-0.150000X0.825000X-0.150000X0.825000X0.150000X-0.825000X0.150000X0*%
%ADD26RoundRect,0.225000X0.225000X-0.425000X0.225000X0.425000X-0.225000X0.425000X-0.225000X-0.425000X0*%
%ADD27FreePoly0,90.000000*%
%ADD28RoundRect,0.250000X0.412500X1.100000X-0.412500X1.100000X-0.412500X-1.100000X0.412500X-1.100000X0*%
%ADD29RoundRect,0.250000X0.412500X0.650000X-0.412500X0.650000X-0.412500X-0.650000X0.412500X-0.650000X0*%
%ADD30RoundRect,0.250000X-0.450000X0.350000X-0.450000X-0.350000X0.450000X-0.350000X0.450000X0.350000X0*%
%ADD31R,3.500000X3.500000*%
%ADD32RoundRect,0.750000X-0.750000X-1.000000X0.750000X-1.000000X0.750000X1.000000X-0.750000X1.000000X0*%
%ADD33RoundRect,0.875000X-0.875000X-0.875000X0.875000X-0.875000X0.875000X0.875000X-0.875000X0.875000X0*%
%ADD34RoundRect,0.250000X-0.350000X-0.450000X0.350000X-0.450000X0.350000X0.450000X-0.350000X0.450000X0*%
%ADD35R,2.200000X1.500000*%
%ADD36RoundRect,0.250000X0.650000X-0.412500X0.650000X0.412500X-0.650000X0.412500X-0.650000X-0.412500X0*%
%ADD37RoundRect,0.250000X-0.650000X0.412500X-0.650000X-0.412500X0.650000X-0.412500X0.650000X0.412500X0*%
%ADD38RoundRect,0.250000X-1.100000X0.412500X-1.100000X-0.412500X1.100000X-0.412500X1.100000X0.412500X0*%
%ADD39RoundRect,0.250000X-0.412500X-0.650000X0.412500X-0.650000X0.412500X0.650000X-0.412500X0.650000X0*%
%ADD40RoundRect,0.250000X-0.650000X1.000000X-0.650000X-1.000000X0.650000X-1.000000X0.650000X1.000000X0*%
%ADD41R,2.000000X2.000000*%
%ADD42C,2.000000*%
%ADD43C,0.900000*%
%ADD44C,8.600000*%
G04 APERTURE END LIST*
D10*
X183214185Y-118778047D02*
X183214185Y-116278047D01*
X184404661Y-118778047D02*
X184404661Y-116278047D01*
X184404661Y-116278047D02*
X185833232Y-118778047D01*
X185833232Y-118778047D02*
X185833232Y-116278047D01*
X183690375Y-136598047D02*
X184166566Y-136598047D01*
X184166566Y-136598047D02*
X184404661Y-136717095D01*
X184404661Y-136717095D02*
X184642756Y-136955190D01*
X184642756Y-136955190D02*
X184761804Y-137431380D01*
X184761804Y-137431380D02*
X184761804Y-138264714D01*
X184761804Y-138264714D02*
X184642756Y-138740904D01*
X184642756Y-138740904D02*
X184404661Y-138979000D01*
X184404661Y-138979000D02*
X184166566Y-139098047D01*
X184166566Y-139098047D02*
X183690375Y-139098047D01*
X183690375Y-139098047D02*
X183452280Y-138979000D01*
X183452280Y-138979000D02*
X183214185Y-138740904D01*
X183214185Y-138740904D02*
X183095137Y-138264714D01*
X183095137Y-138264714D02*
X183095137Y-137431380D01*
X183095137Y-137431380D02*
X183214185Y-136955190D01*
X183214185Y-136955190D02*
X183452280Y-136717095D01*
X183452280Y-136717095D02*
X183690375Y-136598047D01*
X185833233Y-136598047D02*
X185833233Y-138621857D01*
X185833233Y-138621857D02*
X185952280Y-138859952D01*
X185952280Y-138859952D02*
X186071328Y-138979000D01*
X186071328Y-138979000D02*
X186309423Y-139098047D01*
X186309423Y-139098047D02*
X186785614Y-139098047D01*
X186785614Y-139098047D02*
X187023709Y-138979000D01*
X187023709Y-138979000D02*
X187142756Y-138859952D01*
X187142756Y-138859952D02*
X187261804Y-138621857D01*
X187261804Y-138621857D02*
X187261804Y-136598047D01*
X188095138Y-136598047D02*
X189523709Y-136598047D01*
X188809423Y-139098047D02*
X188809423Y-136598047D01*
X125886025Y-152928481D02*
X124457453Y-153928481D01*
X125886025Y-154642767D02*
X122886025Y-154642767D01*
X122886025Y-154642767D02*
X122886025Y-153499910D01*
X122886025Y-153499910D02*
X123028882Y-153214195D01*
X123028882Y-153214195D02*
X123171739Y-153071338D01*
X123171739Y-153071338D02*
X123457453Y-152928481D01*
X123457453Y-152928481D02*
X123886025Y-152928481D01*
X123886025Y-152928481D02*
X124171739Y-153071338D01*
X124171739Y-153071338D02*
X124314596Y-153214195D01*
X124314596Y-153214195D02*
X124457453Y-153499910D01*
X124457453Y-153499910D02*
X124457453Y-154642767D01*
X125886025Y-151642767D02*
X122886025Y-151642767D01*
X125028882Y-150357053D02*
X125028882Y-148928482D01*
X125886025Y-150642767D02*
X122886025Y-149642767D01*
X122886025Y-149642767D02*
X125886025Y-148642767D01*
X125028882Y-147785624D02*
X125028882Y-146357053D01*
X125886025Y-148071338D02*
X122886025Y-147071338D01*
X122886025Y-147071338D02*
X125886025Y-146071338D01*
X123886025Y-142785624D02*
X126886025Y-142785624D01*
X124028882Y-142785624D02*
X123886025Y-142499910D01*
X123886025Y-142499910D02*
X123886025Y-141928481D01*
X123886025Y-141928481D02*
X124028882Y-141642767D01*
X124028882Y-141642767D02*
X124171739Y-141499910D01*
X124171739Y-141499910D02*
X124457453Y-141357052D01*
X124457453Y-141357052D02*
X125314596Y-141357052D01*
X125314596Y-141357052D02*
X125600310Y-141499910D01*
X125600310Y-141499910D02*
X125743168Y-141642767D01*
X125743168Y-141642767D02*
X125886025Y-141928481D01*
X125886025Y-141928481D02*
X125886025Y-142499910D01*
X125886025Y-142499910D02*
X125743168Y-142785624D01*
X125886025Y-140071338D02*
X122886025Y-140071338D01*
X125886025Y-138785624D02*
X124314596Y-138785624D01*
X124314596Y-138785624D02*
X124028882Y-138928481D01*
X124028882Y-138928481D02*
X123886025Y-139214195D01*
X123886025Y-139214195D02*
X123886025Y-139642766D01*
X123886025Y-139642766D02*
X124028882Y-139928481D01*
X124028882Y-139928481D02*
X124171739Y-140071338D01*
X125886025Y-136928480D02*
X125743168Y-137214195D01*
X125743168Y-137214195D02*
X125600310Y-137357052D01*
X125600310Y-137357052D02*
X125314596Y-137499909D01*
X125314596Y-137499909D02*
X124457453Y-137499909D01*
X124457453Y-137499909D02*
X124171739Y-137357052D01*
X124171739Y-137357052D02*
X124028882Y-137214195D01*
X124028882Y-137214195D02*
X123886025Y-136928480D01*
X123886025Y-136928480D02*
X123886025Y-136499909D01*
X123886025Y-136499909D02*
X124028882Y-136214195D01*
X124028882Y-136214195D02*
X124171739Y-136071338D01*
X124171739Y-136071338D02*
X124457453Y-135928480D01*
X124457453Y-135928480D02*
X125314596Y-135928480D01*
X125314596Y-135928480D02*
X125600310Y-136071338D01*
X125600310Y-136071338D02*
X125743168Y-136214195D01*
X125743168Y-136214195D02*
X125886025Y-136499909D01*
X125886025Y-136499909D02*
X125886025Y-136928480D01*
X123886025Y-134642766D02*
X125886025Y-134642766D01*
X124171739Y-134642766D02*
X124028882Y-134499909D01*
X124028882Y-134499909D02*
X123886025Y-134214194D01*
X123886025Y-134214194D02*
X123886025Y-133785623D01*
X123886025Y-133785623D02*
X124028882Y-133499909D01*
X124028882Y-133499909D02*
X124314596Y-133357052D01*
X124314596Y-133357052D02*
X125886025Y-133357052D01*
X125886025Y-131499908D02*
X125743168Y-131785623D01*
X125743168Y-131785623D02*
X125600310Y-131928480D01*
X125600310Y-131928480D02*
X125314596Y-132071337D01*
X125314596Y-132071337D02*
X124457453Y-132071337D01*
X124457453Y-132071337D02*
X124171739Y-131928480D01*
X124171739Y-131928480D02*
X124028882Y-131785623D01*
X124028882Y-131785623D02*
X123886025Y-131499908D01*
X123886025Y-131499908D02*
X123886025Y-131071337D01*
X123886025Y-131071337D02*
X124028882Y-130785623D01*
X124028882Y-130785623D02*
X124171739Y-130642766D01*
X124171739Y-130642766D02*
X124457453Y-130499908D01*
X124457453Y-130499908D02*
X125314596Y-130499908D01*
X125314596Y-130499908D02*
X125600310Y-130642766D01*
X125600310Y-130642766D02*
X125743168Y-130785623D01*
X125743168Y-130785623D02*
X125886025Y-131071337D01*
X125886025Y-131071337D02*
X125886025Y-131499908D01*
X128715857Y-154642767D02*
X131715857Y-154642767D01*
X128858714Y-154642767D02*
X128715857Y-154357053D01*
X128715857Y-154357053D02*
X128715857Y-153785624D01*
X128715857Y-153785624D02*
X128858714Y-153499910D01*
X128858714Y-153499910D02*
X129001571Y-153357053D01*
X129001571Y-153357053D02*
X129287285Y-153214195D01*
X129287285Y-153214195D02*
X130144428Y-153214195D01*
X130144428Y-153214195D02*
X130430142Y-153357053D01*
X130430142Y-153357053D02*
X130573000Y-153499910D01*
X130573000Y-153499910D02*
X130715857Y-153785624D01*
X130715857Y-153785624D02*
X130715857Y-154357053D01*
X130715857Y-154357053D02*
X130573000Y-154642767D01*
X130715857Y-151928481D02*
X128715857Y-151928481D01*
X129287285Y-151928481D02*
X129001571Y-151785624D01*
X129001571Y-151785624D02*
X128858714Y-151642767D01*
X128858714Y-151642767D02*
X128715857Y-151357052D01*
X128715857Y-151357052D02*
X128715857Y-151071338D01*
X130573000Y-148928481D02*
X130715857Y-149214195D01*
X130715857Y-149214195D02*
X130715857Y-149785624D01*
X130715857Y-149785624D02*
X130573000Y-150071338D01*
X130573000Y-150071338D02*
X130287285Y-150214195D01*
X130287285Y-150214195D02*
X129144428Y-150214195D01*
X129144428Y-150214195D02*
X128858714Y-150071338D01*
X128858714Y-150071338D02*
X128715857Y-149785624D01*
X128715857Y-149785624D02*
X128715857Y-149214195D01*
X128715857Y-149214195D02*
X128858714Y-148928481D01*
X128858714Y-148928481D02*
X129144428Y-148785624D01*
X129144428Y-148785624D02*
X129430142Y-148785624D01*
X129430142Y-148785624D02*
X129715857Y-150214195D01*
X130715857Y-146214195D02*
X129144428Y-146214195D01*
X129144428Y-146214195D02*
X128858714Y-146357052D01*
X128858714Y-146357052D02*
X128715857Y-146642766D01*
X128715857Y-146642766D02*
X128715857Y-147214195D01*
X128715857Y-147214195D02*
X128858714Y-147499909D01*
X130573000Y-146214195D02*
X130715857Y-146499909D01*
X130715857Y-146499909D02*
X130715857Y-147214195D01*
X130715857Y-147214195D02*
X130573000Y-147499909D01*
X130573000Y-147499909D02*
X130287285Y-147642766D01*
X130287285Y-147642766D02*
X130001571Y-147642766D01*
X130001571Y-147642766D02*
X129715857Y-147499909D01*
X129715857Y-147499909D02*
X129573000Y-147214195D01*
X129573000Y-147214195D02*
X129573000Y-146499909D01*
X129573000Y-146499909D02*
X129430142Y-146214195D01*
X130715857Y-144785623D02*
X128715857Y-144785623D01*
X129001571Y-144785623D02*
X128858714Y-144642766D01*
X128858714Y-144642766D02*
X128715857Y-144357051D01*
X128715857Y-144357051D02*
X128715857Y-143928480D01*
X128715857Y-143928480D02*
X128858714Y-143642766D01*
X128858714Y-143642766D02*
X129144428Y-143499909D01*
X129144428Y-143499909D02*
X130715857Y-143499909D01*
X129144428Y-143499909D02*
X128858714Y-143357051D01*
X128858714Y-143357051D02*
X128715857Y-143071337D01*
X128715857Y-143071337D02*
X128715857Y-142642766D01*
X128715857Y-142642766D02*
X128858714Y-142357051D01*
X128858714Y-142357051D02*
X129144428Y-142214194D01*
X129144428Y-142214194D02*
X130715857Y-142214194D01*
X128715857Y-140785623D02*
X131715857Y-140785623D01*
X128858714Y-140785623D02*
X128715857Y-140499909D01*
X128715857Y-140499909D02*
X128715857Y-139928480D01*
X128715857Y-139928480D02*
X128858714Y-139642766D01*
X128858714Y-139642766D02*
X129001571Y-139499909D01*
X129001571Y-139499909D02*
X129287285Y-139357051D01*
X129287285Y-139357051D02*
X130144428Y-139357051D01*
X130144428Y-139357051D02*
X130430142Y-139499909D01*
X130430142Y-139499909D02*
X130573000Y-139642766D01*
X130573000Y-139642766D02*
X130715857Y-139928480D01*
X130715857Y-139928480D02*
X130715857Y-140499909D01*
X130715857Y-140499909D02*
X130573000Y-140785623D01*
X130715857Y-137642765D02*
X130573000Y-137928480D01*
X130573000Y-137928480D02*
X130287285Y-138071337D01*
X130287285Y-138071337D02*
X127715857Y-138071337D01*
X130715857Y-136499908D02*
X128715857Y-136499908D01*
X127715857Y-136499908D02*
X127858714Y-136642765D01*
X127858714Y-136642765D02*
X128001571Y-136499908D01*
X128001571Y-136499908D02*
X127858714Y-136357051D01*
X127858714Y-136357051D02*
X127715857Y-136499908D01*
X127715857Y-136499908D02*
X128001571Y-136499908D01*
X128715857Y-135499908D02*
X128715857Y-134357051D01*
X130715857Y-135071337D02*
X128144428Y-135071337D01*
X128144428Y-135071337D02*
X127858714Y-134928480D01*
X127858714Y-134928480D02*
X127715857Y-134642765D01*
X127715857Y-134642765D02*
X127715857Y-134357051D01*
X130715857Y-133357051D02*
X128715857Y-133357051D01*
X127715857Y-133357051D02*
X127858714Y-133499908D01*
X127858714Y-133499908D02*
X128001571Y-133357051D01*
X128001571Y-133357051D02*
X127858714Y-133214194D01*
X127858714Y-133214194D02*
X127715857Y-133357051D01*
X127715857Y-133357051D02*
X128001571Y-133357051D01*
X130573000Y-130785623D02*
X130715857Y-131071337D01*
X130715857Y-131071337D02*
X130715857Y-131642766D01*
X130715857Y-131642766D02*
X130573000Y-131928480D01*
X130573000Y-131928480D02*
X130287285Y-132071337D01*
X130287285Y-132071337D02*
X129144428Y-132071337D01*
X129144428Y-132071337D02*
X128858714Y-131928480D01*
X128858714Y-131928480D02*
X128715857Y-131642766D01*
X128715857Y-131642766D02*
X128715857Y-131071337D01*
X128715857Y-131071337D02*
X128858714Y-130785623D01*
X128858714Y-130785623D02*
X129144428Y-130642766D01*
X129144428Y-130642766D02*
X129430142Y-130642766D01*
X129430142Y-130642766D02*
X129715857Y-132071337D01*
X130715857Y-129357051D02*
X128715857Y-129357051D01*
X129287285Y-129357051D02*
X129001571Y-129214194D01*
X129001571Y-129214194D02*
X128858714Y-129071337D01*
X128858714Y-129071337D02*
X128715857Y-128785622D01*
X128715857Y-128785622D02*
X128715857Y-128499908D01*
D11*
X108262615Y-103419428D02*
X108262615Y-101919428D01*
X108262615Y-101919428D02*
X108619758Y-101919428D01*
X108619758Y-101919428D02*
X108834044Y-101990857D01*
X108834044Y-101990857D02*
X108976901Y-102133714D01*
X108976901Y-102133714D02*
X109048330Y-102276571D01*
X109048330Y-102276571D02*
X109119758Y-102562285D01*
X109119758Y-102562285D02*
X109119758Y-102776571D01*
X109119758Y-102776571D02*
X109048330Y-103062285D01*
X109048330Y-103062285D02*
X108976901Y-103205142D01*
X108976901Y-103205142D02*
X108834044Y-103348000D01*
X108834044Y-103348000D02*
X108619758Y-103419428D01*
X108619758Y-103419428D02*
X108262615Y-103419428D01*
X110619758Y-103276571D02*
X110548330Y-103348000D01*
X110548330Y-103348000D02*
X110334044Y-103419428D01*
X110334044Y-103419428D02*
X110191187Y-103419428D01*
X110191187Y-103419428D02*
X109976901Y-103348000D01*
X109976901Y-103348000D02*
X109834044Y-103205142D01*
X109834044Y-103205142D02*
X109762615Y-103062285D01*
X109762615Y-103062285D02*
X109691187Y-102776571D01*
X109691187Y-102776571D02*
X109691187Y-102562285D01*
X109691187Y-102562285D02*
X109762615Y-102276571D01*
X109762615Y-102276571D02*
X109834044Y-102133714D01*
X109834044Y-102133714D02*
X109976901Y-101990857D01*
X109976901Y-101990857D02*
X110191187Y-101919428D01*
X110191187Y-101919428D02*
X110334044Y-101919428D01*
X110334044Y-101919428D02*
X110548330Y-101990857D01*
X110548330Y-101990857D02*
X110619758Y-102062285D01*
X112334044Y-102062285D02*
X112405472Y-101990857D01*
X112405472Y-101990857D02*
X112548330Y-101919428D01*
X112548330Y-101919428D02*
X112905472Y-101919428D01*
X112905472Y-101919428D02*
X113048330Y-101990857D01*
X113048330Y-101990857D02*
X113119758Y-102062285D01*
X113119758Y-102062285D02*
X113191187Y-102205142D01*
X113191187Y-102205142D02*
X113191187Y-102348000D01*
X113191187Y-102348000D02*
X113119758Y-102562285D01*
X113119758Y-102562285D02*
X112262615Y-103419428D01*
X112262615Y-103419428D02*
X113191187Y-103419428D01*
X114476901Y-102419428D02*
X114476901Y-103419428D01*
X114119758Y-101848000D02*
X113762615Y-102919428D01*
X113762615Y-102919428D02*
X114691186Y-102919428D01*
X115048329Y-101919428D02*
X115548329Y-103419428D01*
X115548329Y-103419428D02*
X116048329Y-101919428D01*
D10*
X130442168Y-120749624D02*
X130585025Y-120463910D01*
X130585025Y-120463910D02*
X130585025Y-119892481D01*
X130585025Y-119892481D02*
X130442168Y-119606767D01*
X130442168Y-119606767D02*
X130156453Y-119463910D01*
X130156453Y-119463910D02*
X130013596Y-119463910D01*
X130013596Y-119463910D02*
X129727882Y-119606767D01*
X129727882Y-119606767D02*
X129585025Y-119892481D01*
X129585025Y-119892481D02*
X129585025Y-120321053D01*
X129585025Y-120321053D02*
X129442168Y-120606767D01*
X129442168Y-120606767D02*
X129156453Y-120749624D01*
X129156453Y-120749624D02*
X129013596Y-120749624D01*
X129013596Y-120749624D02*
X128727882Y-120606767D01*
X128727882Y-120606767D02*
X128585025Y-120321053D01*
X128585025Y-120321053D02*
X128585025Y-119892481D01*
X128585025Y-119892481D02*
X128727882Y-119606767D01*
X128585025Y-118178196D02*
X131156453Y-118178196D01*
X131156453Y-118178196D02*
X131442168Y-118321053D01*
X131442168Y-118321053D02*
X131585025Y-118606767D01*
X131585025Y-118606767D02*
X131585025Y-118749624D01*
X127585025Y-118178196D02*
X127727882Y-118321053D01*
X127727882Y-118321053D02*
X127870739Y-118178196D01*
X127870739Y-118178196D02*
X127727882Y-118035339D01*
X127727882Y-118035339D02*
X127585025Y-118178196D01*
X127585025Y-118178196D02*
X127870739Y-118178196D01*
X130585025Y-116749625D02*
X128585025Y-116749625D01*
X128870739Y-116749625D02*
X128727882Y-116606768D01*
X128727882Y-116606768D02*
X128585025Y-116321053D01*
X128585025Y-116321053D02*
X128585025Y-115892482D01*
X128585025Y-115892482D02*
X128727882Y-115606768D01*
X128727882Y-115606768D02*
X129013596Y-115463911D01*
X129013596Y-115463911D02*
X130585025Y-115463911D01*
X129013596Y-115463911D02*
X128727882Y-115321053D01*
X128727882Y-115321053D02*
X128585025Y-115035339D01*
X128585025Y-115035339D02*
X128585025Y-114606768D01*
X128585025Y-114606768D02*
X128727882Y-114321053D01*
X128727882Y-114321053D02*
X129013596Y-114178196D01*
X129013596Y-114178196D02*
X130585025Y-114178196D01*
X132700571Y-120749624D02*
X132557714Y-120606767D01*
X132557714Y-120606767D02*
X132414857Y-120321053D01*
X132414857Y-120321053D02*
X132414857Y-119606767D01*
X132414857Y-119606767D02*
X132557714Y-119321053D01*
X132557714Y-119321053D02*
X132700571Y-119178195D01*
X132700571Y-119178195D02*
X132986285Y-119035338D01*
X132986285Y-119035338D02*
X133272000Y-119035338D01*
X133272000Y-119035338D02*
X133700571Y-119178195D01*
X133700571Y-119178195D02*
X135414857Y-120892481D01*
X135414857Y-120892481D02*
X135414857Y-119035338D01*
X132414857Y-117178195D02*
X132414857Y-116892481D01*
X132414857Y-116892481D02*
X132557714Y-116606767D01*
X132557714Y-116606767D02*
X132700571Y-116463910D01*
X132700571Y-116463910D02*
X132986285Y-116321052D01*
X132986285Y-116321052D02*
X133557714Y-116178195D01*
X133557714Y-116178195D02*
X134272000Y-116178195D01*
X134272000Y-116178195D02*
X134843428Y-116321052D01*
X134843428Y-116321052D02*
X135129142Y-116463910D01*
X135129142Y-116463910D02*
X135272000Y-116606767D01*
X135272000Y-116606767D02*
X135414857Y-116892481D01*
X135414857Y-116892481D02*
X135414857Y-117178195D01*
X135414857Y-117178195D02*
X135272000Y-117463910D01*
X135272000Y-117463910D02*
X135129142Y-117606767D01*
X135129142Y-117606767D02*
X134843428Y-117749624D01*
X134843428Y-117749624D02*
X134272000Y-117892481D01*
X134272000Y-117892481D02*
X133557714Y-117892481D01*
X133557714Y-117892481D02*
X132986285Y-117749624D01*
X132986285Y-117749624D02*
X132700571Y-117606767D01*
X132700571Y-117606767D02*
X132557714Y-117463910D01*
X132557714Y-117463910D02*
X132414857Y-117178195D01*
X132700571Y-115035338D02*
X132557714Y-114892481D01*
X132557714Y-114892481D02*
X132414857Y-114606767D01*
X132414857Y-114606767D02*
X132414857Y-113892481D01*
X132414857Y-113892481D02*
X132557714Y-113606767D01*
X132557714Y-113606767D02*
X132700571Y-113463909D01*
X132700571Y-113463909D02*
X132986285Y-113321052D01*
X132986285Y-113321052D02*
X133272000Y-113321052D01*
X133272000Y-113321052D02*
X133700571Y-113463909D01*
X133700571Y-113463909D02*
X135414857Y-115178195D01*
X135414857Y-115178195D02*
X135414857Y-113321052D01*
X133414857Y-110749624D02*
X135414857Y-110749624D01*
X132272000Y-111463909D02*
X134414857Y-112178195D01*
X134414857Y-112178195D02*
X134414857Y-110321052D01*
X132272000Y-107035338D02*
X136129142Y-109606766D01*
X132414857Y-105463909D02*
X132414857Y-105178195D01*
X132414857Y-105178195D02*
X132557714Y-104892481D01*
X132557714Y-104892481D02*
X132700571Y-104749624D01*
X132700571Y-104749624D02*
X132986285Y-104606766D01*
X132986285Y-104606766D02*
X133557714Y-104463909D01*
X133557714Y-104463909D02*
X134272000Y-104463909D01*
X134272000Y-104463909D02*
X134843428Y-104606766D01*
X134843428Y-104606766D02*
X135129142Y-104749624D01*
X135129142Y-104749624D02*
X135272000Y-104892481D01*
X135272000Y-104892481D02*
X135414857Y-105178195D01*
X135414857Y-105178195D02*
X135414857Y-105463909D01*
X135414857Y-105463909D02*
X135272000Y-105749624D01*
X135272000Y-105749624D02*
X135129142Y-105892481D01*
X135129142Y-105892481D02*
X134843428Y-106035338D01*
X134843428Y-106035338D02*
X134272000Y-106178195D01*
X134272000Y-106178195D02*
X133557714Y-106178195D01*
X133557714Y-106178195D02*
X132986285Y-106035338D01*
X132986285Y-106035338D02*
X132700571Y-105892481D01*
X132700571Y-105892481D02*
X132557714Y-105749624D01*
X132557714Y-105749624D02*
X132414857Y-105463909D01*
X132414857Y-103463909D02*
X132414857Y-101463909D01*
X132414857Y-101463909D02*
X135414857Y-102749623D01*
X140034185Y-118778047D02*
X140034185Y-116278047D01*
X141224661Y-118778047D02*
X141224661Y-116278047D01*
X141224661Y-116278047D02*
X142653232Y-118778047D01*
X142653232Y-118778047D02*
X142653232Y-116278047D01*
X143030476Y-129322243D02*
X142935238Y-129512719D01*
X142935238Y-129512719D02*
X142935238Y-129798433D01*
X142935238Y-129798433D02*
X143030476Y-130084148D01*
X143030476Y-130084148D02*
X143220952Y-130274624D01*
X143220952Y-130274624D02*
X143411428Y-130369862D01*
X143411428Y-130369862D02*
X143792380Y-130465100D01*
X143792380Y-130465100D02*
X144078095Y-130465100D01*
X144078095Y-130465100D02*
X144459047Y-130369862D01*
X144459047Y-130369862D02*
X144649523Y-130274624D01*
X144649523Y-130274624D02*
X144840000Y-130084148D01*
X144840000Y-130084148D02*
X144935238Y-129798433D01*
X144935238Y-129798433D02*
X144935238Y-129607957D01*
X144935238Y-129607957D02*
X144840000Y-129322243D01*
X144840000Y-129322243D02*
X144744761Y-129227005D01*
X144744761Y-129227005D02*
X144078095Y-129227005D01*
X144078095Y-129227005D02*
X144078095Y-129607957D01*
X144935238Y-128369862D02*
X142935238Y-128369862D01*
X142935238Y-128369862D02*
X144935238Y-127227005D01*
X144935238Y-127227005D02*
X142935238Y-127227005D01*
X144935238Y-126274624D02*
X142935238Y-126274624D01*
X142935238Y-126274624D02*
X142935238Y-125798434D01*
X142935238Y-125798434D02*
X143030476Y-125512719D01*
X143030476Y-125512719D02*
X143220952Y-125322243D01*
X143220952Y-125322243D02*
X143411428Y-125227005D01*
X143411428Y-125227005D02*
X143792380Y-125131767D01*
X143792380Y-125131767D02*
X144078095Y-125131767D01*
X144078095Y-125131767D02*
X144459047Y-125227005D01*
X144459047Y-125227005D02*
X144649523Y-125322243D01*
X144649523Y-125322243D02*
X144840000Y-125512719D01*
X144840000Y-125512719D02*
X144935238Y-125798434D01*
X144935238Y-125798434D02*
X144935238Y-126274624D01*
X139041804Y-149196857D02*
X137613232Y-149196857D01*
X137613232Y-149196857D02*
X137613232Y-146196857D01*
X153011804Y-103476857D02*
X151583232Y-103476857D01*
X151583232Y-103476857D02*
X151583232Y-100476857D01*
X140510375Y-135328047D02*
X140986566Y-135328047D01*
X140986566Y-135328047D02*
X141224661Y-135447095D01*
X141224661Y-135447095D02*
X141462756Y-135685190D01*
X141462756Y-135685190D02*
X141581804Y-136161380D01*
X141581804Y-136161380D02*
X141581804Y-136994714D01*
X141581804Y-136994714D02*
X141462756Y-137470904D01*
X141462756Y-137470904D02*
X141224661Y-137709000D01*
X141224661Y-137709000D02*
X140986566Y-137828047D01*
X140986566Y-137828047D02*
X140510375Y-137828047D01*
X140510375Y-137828047D02*
X140272280Y-137709000D01*
X140272280Y-137709000D02*
X140034185Y-137470904D01*
X140034185Y-137470904D02*
X139915137Y-136994714D01*
X139915137Y-136994714D02*
X139915137Y-136161380D01*
X139915137Y-136161380D02*
X140034185Y-135685190D01*
X140034185Y-135685190D02*
X140272280Y-135447095D01*
X140272280Y-135447095D02*
X140510375Y-135328047D01*
X142653233Y-135328047D02*
X142653233Y-137351857D01*
X142653233Y-137351857D02*
X142772280Y-137589952D01*
X142772280Y-137589952D02*
X142891328Y-137709000D01*
X142891328Y-137709000D02*
X143129423Y-137828047D01*
X143129423Y-137828047D02*
X143605614Y-137828047D01*
X143605614Y-137828047D02*
X143843709Y-137709000D01*
X143843709Y-137709000D02*
X143962756Y-137589952D01*
X143962756Y-137589952D02*
X144081804Y-137351857D01*
X144081804Y-137351857D02*
X144081804Y-135328047D01*
X144915138Y-135328047D02*
X146343709Y-135328047D01*
X145629423Y-137828047D02*
X145629423Y-135328047D01*
X173617518Y-103476857D02*
X172617518Y-102048285D01*
X171903232Y-103476857D02*
X171903232Y-100476857D01*
X171903232Y-100476857D02*
X173046089Y-100476857D01*
X173046089Y-100476857D02*
X173331804Y-100619714D01*
X173331804Y-100619714D02*
X173474661Y-100762571D01*
X173474661Y-100762571D02*
X173617518Y-101048285D01*
X173617518Y-101048285D02*
X173617518Y-101476857D01*
X173617518Y-101476857D02*
X173474661Y-101762571D01*
X173474661Y-101762571D02*
X173331804Y-101905428D01*
X173331804Y-101905428D02*
X173046089Y-102048285D01*
X173046089Y-102048285D02*
X171903232Y-102048285D01*
X190127518Y-147926857D02*
X189127518Y-146498285D01*
X188413232Y-147926857D02*
X188413232Y-144926857D01*
X188413232Y-144926857D02*
X189556089Y-144926857D01*
X189556089Y-144926857D02*
X189841804Y-145069714D01*
X189841804Y-145069714D02*
X189984661Y-145212571D01*
X189984661Y-145212571D02*
X190127518Y-145498285D01*
X190127518Y-145498285D02*
X190127518Y-145926857D01*
X190127518Y-145926857D02*
X189984661Y-146212571D01*
X189984661Y-146212571D02*
X189841804Y-146355428D01*
X189841804Y-146355428D02*
X189556089Y-146498285D01*
X189556089Y-146498285D02*
X188413232Y-146498285D01*
D12*
X179369323Y-132905795D02*
X179474084Y-132604604D01*
X179474084Y-132604604D02*
X179474084Y-132080795D01*
X179474084Y-132080795D02*
X179369323Y-131858176D01*
X179369323Y-131858176D02*
X179264561Y-131740319D01*
X179264561Y-131740319D02*
X179055037Y-131609366D01*
X179055037Y-131609366D02*
X178845513Y-131583176D01*
X178845513Y-131583176D02*
X178635989Y-131661747D01*
X178635989Y-131661747D02*
X178531227Y-131753414D01*
X178531227Y-131753414D02*
X178426465Y-131949843D01*
X178426465Y-131949843D02*
X178321703Y-132355795D01*
X178321703Y-132355795D02*
X178216942Y-132552223D01*
X178216942Y-132552223D02*
X178112180Y-132643890D01*
X178112180Y-132643890D02*
X177902656Y-132722462D01*
X177902656Y-132722462D02*
X177693132Y-132696271D01*
X177693132Y-132696271D02*
X177483608Y-132565319D01*
X177483608Y-132565319D02*
X177378846Y-132447462D01*
X177378846Y-132447462D02*
X177274084Y-132224843D01*
X177274084Y-132224843D02*
X177274084Y-131701033D01*
X177274084Y-131701033D02*
X177378846Y-131399843D01*
X179474084Y-130718890D02*
X178007418Y-130535557D01*
X177274084Y-130443890D02*
X177378846Y-130561747D01*
X177378846Y-130561747D02*
X177483608Y-130470081D01*
X177483608Y-130470081D02*
X177378846Y-130352224D01*
X177378846Y-130352224D02*
X177274084Y-130443890D01*
X177274084Y-130443890D02*
X177483608Y-130470081D01*
X178007418Y-128545081D02*
X179474084Y-128728414D01*
X178007418Y-129487938D02*
X179159799Y-129631986D01*
X179159799Y-129631986D02*
X179369323Y-129553414D01*
X179369323Y-129553414D02*
X179474084Y-129356986D01*
X179474084Y-129356986D02*
X179474084Y-129042700D01*
X179474084Y-129042700D02*
X179369323Y-128820081D01*
X179369323Y-128820081D02*
X179264561Y-128702224D01*
X179474084Y-127680795D02*
X178007418Y-127497462D01*
X178426465Y-127549843D02*
X178216942Y-127418890D01*
X178216942Y-127418890D02*
X178112180Y-127301033D01*
X178112180Y-127301033D02*
X178007418Y-127078414D01*
X178007418Y-127078414D02*
X178007418Y-126868890D01*
X179474084Y-126004605D02*
X179369323Y-126201033D01*
X179369323Y-126201033D02*
X179264561Y-126292700D01*
X179264561Y-126292700D02*
X179055037Y-126371271D01*
X179055037Y-126371271D02*
X178426465Y-126292700D01*
X178426465Y-126292700D02*
X178216942Y-126161747D01*
X178216942Y-126161747D02*
X178112180Y-126043890D01*
X178112180Y-126043890D02*
X178007418Y-125821271D01*
X178007418Y-125821271D02*
X178007418Y-125506985D01*
X178007418Y-125506985D02*
X178112180Y-125310557D01*
X178112180Y-125310557D02*
X178216942Y-125218890D01*
X178216942Y-125218890D02*
X178426465Y-125140319D01*
X178426465Y-125140319D02*
X179055037Y-125218890D01*
X179055037Y-125218890D02*
X179264561Y-125349843D01*
X179264561Y-125349843D02*
X179369323Y-125467700D01*
X179369323Y-125467700D02*
X179474084Y-125690319D01*
X179474084Y-125690319D02*
X179474084Y-126004605D01*
X183015961Y-132814128D02*
X180815961Y-132539128D01*
X183015961Y-131871271D02*
X181863580Y-131727223D01*
X181863580Y-131727223D02*
X181654057Y-131805795D01*
X181654057Y-131805795D02*
X181549295Y-132002223D01*
X181549295Y-132002223D02*
X181549295Y-132316509D01*
X181549295Y-132316509D02*
X181654057Y-132539128D01*
X181654057Y-132539128D02*
X181758819Y-132656985D01*
X183015961Y-129880795D02*
X181863580Y-129736747D01*
X181863580Y-129736747D02*
X181654057Y-129815319D01*
X181654057Y-129815319D02*
X181549295Y-130011747D01*
X181549295Y-130011747D02*
X181549295Y-130430795D01*
X181549295Y-130430795D02*
X181654057Y-130653414D01*
X182911200Y-129867700D02*
X183015961Y-130090319D01*
X183015961Y-130090319D02*
X183015961Y-130614128D01*
X183015961Y-130614128D02*
X182911200Y-130810557D01*
X182911200Y-130810557D02*
X182701676Y-130889128D01*
X182701676Y-130889128D02*
X182492152Y-130862938D01*
X182492152Y-130862938D02*
X182282628Y-130731986D01*
X182282628Y-130731986D02*
X182177866Y-130509367D01*
X182177866Y-130509367D02*
X182177866Y-129985557D01*
X182177866Y-129985557D02*
X182073104Y-129762938D01*
X182911200Y-127877224D02*
X183015961Y-128099843D01*
X183015961Y-128099843D02*
X183015961Y-128518891D01*
X183015961Y-128518891D02*
X182911200Y-128715319D01*
X182911200Y-128715319D02*
X182806438Y-128806986D01*
X182806438Y-128806986D02*
X182596914Y-128885557D01*
X182596914Y-128885557D02*
X181968342Y-128806986D01*
X181968342Y-128806986D02*
X181758819Y-128676033D01*
X181758819Y-128676033D02*
X181654057Y-128558176D01*
X181654057Y-128558176D02*
X181549295Y-128335557D01*
X181549295Y-128335557D02*
X181549295Y-127916510D01*
X181549295Y-127916510D02*
X181654057Y-127720081D01*
X183015961Y-126947462D02*
X180815961Y-126672462D01*
X182177866Y-126633177D02*
X183015961Y-126109367D01*
X181549295Y-125926034D02*
X182387390Y-126868891D01*
X183015961Y-124852225D02*
X182911200Y-125048653D01*
X182911200Y-125048653D02*
X182701676Y-125127225D01*
X182701676Y-125127225D02*
X180815961Y-124891510D01*
X183015961Y-123071272D02*
X181863580Y-122927224D01*
X181863580Y-122927224D02*
X181654057Y-123005796D01*
X181654057Y-123005796D02*
X181549295Y-123202224D01*
X181549295Y-123202224D02*
X181549295Y-123621272D01*
X181549295Y-123621272D02*
X181654057Y-123843891D01*
X182911200Y-123058177D02*
X183015961Y-123280796D01*
X183015961Y-123280796D02*
X183015961Y-123804605D01*
X183015961Y-123804605D02*
X182911200Y-124001034D01*
X182911200Y-124001034D02*
X182701676Y-124079605D01*
X182701676Y-124079605D02*
X182492152Y-124053415D01*
X182492152Y-124053415D02*
X182282628Y-123922463D01*
X182282628Y-123922463D02*
X182177866Y-123699844D01*
X182177866Y-123699844D02*
X182177866Y-123176034D01*
X182177866Y-123176034D02*
X182073104Y-122953415D01*
X183015961Y-122023653D02*
X180815961Y-121748653D01*
X181654057Y-121853415D02*
X181549295Y-121630796D01*
X181549295Y-121630796D02*
X181549295Y-121211748D01*
X181549295Y-121211748D02*
X181654057Y-121015320D01*
X181654057Y-121015320D02*
X181758819Y-120923653D01*
X181758819Y-120923653D02*
X181968342Y-120845082D01*
X181968342Y-120845082D02*
X182596914Y-120923653D01*
X182596914Y-120923653D02*
X182806438Y-121054606D01*
X182806438Y-121054606D02*
X182911200Y-121172463D01*
X182911200Y-121172463D02*
X183015961Y-121395082D01*
X183015961Y-121395082D02*
X183015961Y-121814129D01*
X183015961Y-121814129D02*
X182911200Y-122010558D01*
D10*
X193068476Y-129322243D02*
X192973238Y-129512719D01*
X192973238Y-129512719D02*
X192973238Y-129798433D01*
X192973238Y-129798433D02*
X193068476Y-130084148D01*
X193068476Y-130084148D02*
X193258952Y-130274624D01*
X193258952Y-130274624D02*
X193449428Y-130369862D01*
X193449428Y-130369862D02*
X193830380Y-130465100D01*
X193830380Y-130465100D02*
X194116095Y-130465100D01*
X194116095Y-130465100D02*
X194497047Y-130369862D01*
X194497047Y-130369862D02*
X194687523Y-130274624D01*
X194687523Y-130274624D02*
X194878000Y-130084148D01*
X194878000Y-130084148D02*
X194973238Y-129798433D01*
X194973238Y-129798433D02*
X194973238Y-129607957D01*
X194973238Y-129607957D02*
X194878000Y-129322243D01*
X194878000Y-129322243D02*
X194782761Y-129227005D01*
X194782761Y-129227005D02*
X194116095Y-129227005D01*
X194116095Y-129227005D02*
X194116095Y-129607957D01*
X194973238Y-128369862D02*
X192973238Y-128369862D01*
X192973238Y-128369862D02*
X194973238Y-127227005D01*
X194973238Y-127227005D02*
X192973238Y-127227005D01*
X194973238Y-126274624D02*
X192973238Y-126274624D01*
X192973238Y-126274624D02*
X192973238Y-125798434D01*
X192973238Y-125798434D02*
X193068476Y-125512719D01*
X193068476Y-125512719D02*
X193258952Y-125322243D01*
X193258952Y-125322243D02*
X193449428Y-125227005D01*
X193449428Y-125227005D02*
X193830380Y-125131767D01*
X193830380Y-125131767D02*
X194116095Y-125131767D01*
X194116095Y-125131767D02*
X194497047Y-125227005D01*
X194497047Y-125227005D02*
X194687523Y-125322243D01*
X194687523Y-125322243D02*
X194878000Y-125512719D01*
X194878000Y-125512719D02*
X194973238Y-125798434D01*
X194973238Y-125798434D02*
X194973238Y-126274624D01*
D13*
X179845333Y-101400295D02*
X179845333Y-101971723D01*
X179845333Y-101971723D02*
X179807238Y-102086009D01*
X179807238Y-102086009D02*
X179731047Y-102162200D01*
X179731047Y-102162200D02*
X179616762Y-102200295D01*
X179616762Y-102200295D02*
X179540571Y-102200295D01*
X180683429Y-102200295D02*
X180416762Y-101819342D01*
X180226286Y-102200295D02*
X180226286Y-101400295D01*
X180226286Y-101400295D02*
X180531048Y-101400295D01*
X180531048Y-101400295D02*
X180607238Y-101438390D01*
X180607238Y-101438390D02*
X180645333Y-101476485D01*
X180645333Y-101476485D02*
X180683429Y-101552676D01*
X180683429Y-101552676D02*
X180683429Y-101666961D01*
X180683429Y-101666961D02*
X180645333Y-101743152D01*
X180645333Y-101743152D02*
X180607238Y-101781247D01*
X180607238Y-101781247D02*
X180531048Y-101819342D01*
X180531048Y-101819342D02*
X180226286Y-101819342D01*
X180988190Y-101476485D02*
X181026286Y-101438390D01*
X181026286Y-101438390D02*
X181102476Y-101400295D01*
X181102476Y-101400295D02*
X181292952Y-101400295D01*
X181292952Y-101400295D02*
X181369143Y-101438390D01*
X181369143Y-101438390D02*
X181407238Y-101476485D01*
X181407238Y-101476485D02*
X181445333Y-101552676D01*
X181445333Y-101552676D02*
X181445333Y-101628866D01*
X181445333Y-101628866D02*
X181407238Y-101743152D01*
X181407238Y-101743152D02*
X180950095Y-102200295D01*
X180950095Y-102200295D02*
X181445333Y-102200295D01*
X171222295Y-126120285D02*
X170841342Y-126386952D01*
X171222295Y-126577428D02*
X170422295Y-126577428D01*
X170422295Y-126577428D02*
X170422295Y-126272666D01*
X170422295Y-126272666D02*
X170460390Y-126196476D01*
X170460390Y-126196476D02*
X170498485Y-126158381D01*
X170498485Y-126158381D02*
X170574676Y-126120285D01*
X170574676Y-126120285D02*
X170688961Y-126120285D01*
X170688961Y-126120285D02*
X170765152Y-126158381D01*
X170765152Y-126158381D02*
X170803247Y-126196476D01*
X170803247Y-126196476D02*
X170841342Y-126272666D01*
X170841342Y-126272666D02*
X170841342Y-126577428D01*
X171222295Y-125320285D02*
X170841342Y-125586952D01*
X171222295Y-125777428D02*
X170422295Y-125777428D01*
X170422295Y-125777428D02*
X170422295Y-125472666D01*
X170422295Y-125472666D02*
X170460390Y-125396476D01*
X170460390Y-125396476D02*
X170498485Y-125358381D01*
X170498485Y-125358381D02*
X170574676Y-125320285D01*
X170574676Y-125320285D02*
X170688961Y-125320285D01*
X170688961Y-125320285D02*
X170765152Y-125358381D01*
X170765152Y-125358381D02*
X170803247Y-125396476D01*
X170803247Y-125396476D02*
X170841342Y-125472666D01*
X170841342Y-125472666D02*
X170841342Y-125777428D01*
X171222295Y-124558381D02*
X171222295Y-125015524D01*
X171222295Y-124786952D02*
X170422295Y-124786952D01*
X170422295Y-124786952D02*
X170536580Y-124863143D01*
X170536580Y-124863143D02*
X170612771Y-124939333D01*
X170612771Y-124939333D02*
X170650866Y-125015524D01*
X170422295Y-124063142D02*
X170422295Y-123986952D01*
X170422295Y-123986952D02*
X170460390Y-123910761D01*
X170460390Y-123910761D02*
X170498485Y-123872666D01*
X170498485Y-123872666D02*
X170574676Y-123834571D01*
X170574676Y-123834571D02*
X170727057Y-123796476D01*
X170727057Y-123796476D02*
X170917533Y-123796476D01*
X170917533Y-123796476D02*
X171069914Y-123834571D01*
X171069914Y-123834571D02*
X171146104Y-123872666D01*
X171146104Y-123872666D02*
X171184200Y-123910761D01*
X171184200Y-123910761D02*
X171222295Y-123986952D01*
X171222295Y-123986952D02*
X171222295Y-124063142D01*
X171222295Y-124063142D02*
X171184200Y-124139333D01*
X171184200Y-124139333D02*
X171146104Y-124177428D01*
X171146104Y-124177428D02*
X171069914Y-124215523D01*
X171069914Y-124215523D02*
X170917533Y-124253619D01*
X170917533Y-124253619D02*
X170727057Y-124253619D01*
X170727057Y-124253619D02*
X170574676Y-124215523D01*
X170574676Y-124215523D02*
X170498485Y-124177428D01*
X170498485Y-124177428D02*
X170460390Y-124139333D01*
X170460390Y-124139333D02*
X170422295Y-124063142D01*
X171222295Y-142630285D02*
X170841342Y-142896952D01*
X171222295Y-143087428D02*
X170422295Y-143087428D01*
X170422295Y-143087428D02*
X170422295Y-142782666D01*
X170422295Y-142782666D02*
X170460390Y-142706476D01*
X170460390Y-142706476D02*
X170498485Y-142668381D01*
X170498485Y-142668381D02*
X170574676Y-142630285D01*
X170574676Y-142630285D02*
X170688961Y-142630285D01*
X170688961Y-142630285D02*
X170765152Y-142668381D01*
X170765152Y-142668381D02*
X170803247Y-142706476D01*
X170803247Y-142706476D02*
X170841342Y-142782666D01*
X170841342Y-142782666D02*
X170841342Y-143087428D01*
X171222295Y-141830285D02*
X170841342Y-142096952D01*
X171222295Y-142287428D02*
X170422295Y-142287428D01*
X170422295Y-142287428D02*
X170422295Y-141982666D01*
X170422295Y-141982666D02*
X170460390Y-141906476D01*
X170460390Y-141906476D02*
X170498485Y-141868381D01*
X170498485Y-141868381D02*
X170574676Y-141830285D01*
X170574676Y-141830285D02*
X170688961Y-141830285D01*
X170688961Y-141830285D02*
X170765152Y-141868381D01*
X170765152Y-141868381D02*
X170803247Y-141906476D01*
X170803247Y-141906476D02*
X170841342Y-141982666D01*
X170841342Y-141982666D02*
X170841342Y-142287428D01*
X171222295Y-141068381D02*
X171222295Y-141525524D01*
X171222295Y-141296952D02*
X170422295Y-141296952D01*
X170422295Y-141296952D02*
X170536580Y-141373143D01*
X170536580Y-141373143D02*
X170612771Y-141449333D01*
X170612771Y-141449333D02*
X170650866Y-141525524D01*
X170422295Y-140382666D02*
X170422295Y-140535047D01*
X170422295Y-140535047D02*
X170460390Y-140611238D01*
X170460390Y-140611238D02*
X170498485Y-140649333D01*
X170498485Y-140649333D02*
X170612771Y-140725523D01*
X170612771Y-140725523D02*
X170765152Y-140763619D01*
X170765152Y-140763619D02*
X171069914Y-140763619D01*
X171069914Y-140763619D02*
X171146104Y-140725523D01*
X171146104Y-140725523D02*
X171184200Y-140687428D01*
X171184200Y-140687428D02*
X171222295Y-140611238D01*
X171222295Y-140611238D02*
X171222295Y-140458857D01*
X171222295Y-140458857D02*
X171184200Y-140382666D01*
X171184200Y-140382666D02*
X171146104Y-140344571D01*
X171146104Y-140344571D02*
X171069914Y-140306476D01*
X171069914Y-140306476D02*
X170879438Y-140306476D01*
X170879438Y-140306476D02*
X170803247Y-140344571D01*
X170803247Y-140344571D02*
X170765152Y-140382666D01*
X170765152Y-140382666D02*
X170727057Y-140458857D01*
X170727057Y-140458857D02*
X170727057Y-140611238D01*
X170727057Y-140611238D02*
X170765152Y-140687428D01*
X170765152Y-140687428D02*
X170803247Y-140725523D01*
X170803247Y-140725523D02*
X170879438Y-140763619D01*
X158649295Y-117789142D02*
X158268342Y-118055809D01*
X158649295Y-118246285D02*
X157849295Y-118246285D01*
X157849295Y-118246285D02*
X157849295Y-117941523D01*
X157849295Y-117941523D02*
X157887390Y-117865333D01*
X157887390Y-117865333D02*
X157925485Y-117827238D01*
X157925485Y-117827238D02*
X158001676Y-117789142D01*
X158001676Y-117789142D02*
X158115961Y-117789142D01*
X158115961Y-117789142D02*
X158192152Y-117827238D01*
X158192152Y-117827238D02*
X158230247Y-117865333D01*
X158230247Y-117865333D02*
X158268342Y-117941523D01*
X158268342Y-117941523D02*
X158268342Y-118246285D01*
X158649295Y-117065333D02*
X158649295Y-117446285D01*
X158649295Y-117446285D02*
X157849295Y-117446285D01*
X157849295Y-116874857D02*
X157849295Y-116379619D01*
X157849295Y-116379619D02*
X158154057Y-116646285D01*
X158154057Y-116646285D02*
X158154057Y-116532000D01*
X158154057Y-116532000D02*
X158192152Y-116455809D01*
X158192152Y-116455809D02*
X158230247Y-116417714D01*
X158230247Y-116417714D02*
X158306438Y-116379619D01*
X158306438Y-116379619D02*
X158496914Y-116379619D01*
X158496914Y-116379619D02*
X158573104Y-116417714D01*
X158573104Y-116417714D02*
X158611200Y-116455809D01*
X158611200Y-116455809D02*
X158649295Y-116532000D01*
X158649295Y-116532000D02*
X158649295Y-116760571D01*
X158649295Y-116760571D02*
X158611200Y-116836762D01*
X158611200Y-116836762D02*
X158573104Y-116874857D01*
X168802667Y-109566295D02*
X168536000Y-109185342D01*
X168345524Y-109566295D02*
X168345524Y-108766295D01*
X168345524Y-108766295D02*
X168650286Y-108766295D01*
X168650286Y-108766295D02*
X168726476Y-108804390D01*
X168726476Y-108804390D02*
X168764571Y-108842485D01*
X168764571Y-108842485D02*
X168802667Y-108918676D01*
X168802667Y-108918676D02*
X168802667Y-109032961D01*
X168802667Y-109032961D02*
X168764571Y-109109152D01*
X168764571Y-109109152D02*
X168726476Y-109147247D01*
X168726476Y-109147247D02*
X168650286Y-109185342D01*
X168650286Y-109185342D02*
X168345524Y-109185342D01*
X169602667Y-109566295D02*
X169336000Y-109185342D01*
X169145524Y-109566295D02*
X169145524Y-108766295D01*
X169145524Y-108766295D02*
X169450286Y-108766295D01*
X169450286Y-108766295D02*
X169526476Y-108804390D01*
X169526476Y-108804390D02*
X169564571Y-108842485D01*
X169564571Y-108842485D02*
X169602667Y-108918676D01*
X169602667Y-108918676D02*
X169602667Y-109032961D01*
X169602667Y-109032961D02*
X169564571Y-109109152D01*
X169564571Y-109109152D02*
X169526476Y-109147247D01*
X169526476Y-109147247D02*
X169450286Y-109185342D01*
X169450286Y-109185342D02*
X169145524Y-109185342D01*
X169907428Y-108842485D02*
X169945524Y-108804390D01*
X169945524Y-108804390D02*
X170021714Y-108766295D01*
X170021714Y-108766295D02*
X170212190Y-108766295D01*
X170212190Y-108766295D02*
X170288381Y-108804390D01*
X170288381Y-108804390D02*
X170326476Y-108842485D01*
X170326476Y-108842485D02*
X170364571Y-108918676D01*
X170364571Y-108918676D02*
X170364571Y-108994866D01*
X170364571Y-108994866D02*
X170326476Y-109109152D01*
X170326476Y-109109152D02*
X169869333Y-109566295D01*
X169869333Y-109566295D02*
X170364571Y-109566295D01*
X161698295Y-124688285D02*
X161317342Y-124954952D01*
X161698295Y-125145428D02*
X160898295Y-125145428D01*
X160898295Y-125145428D02*
X160898295Y-124840666D01*
X160898295Y-124840666D02*
X160936390Y-124764476D01*
X160936390Y-124764476D02*
X160974485Y-124726381D01*
X160974485Y-124726381D02*
X161050676Y-124688285D01*
X161050676Y-124688285D02*
X161164961Y-124688285D01*
X161164961Y-124688285D02*
X161241152Y-124726381D01*
X161241152Y-124726381D02*
X161279247Y-124764476D01*
X161279247Y-124764476D02*
X161317342Y-124840666D01*
X161317342Y-124840666D02*
X161317342Y-125145428D01*
X161698295Y-123926381D02*
X161698295Y-124383524D01*
X161698295Y-124154952D02*
X160898295Y-124154952D01*
X160898295Y-124154952D02*
X161012580Y-124231143D01*
X161012580Y-124231143D02*
X161088771Y-124307333D01*
X161088771Y-124307333D02*
X161126866Y-124383524D01*
X161241152Y-123469238D02*
X161203057Y-123545428D01*
X161203057Y-123545428D02*
X161164961Y-123583523D01*
X161164961Y-123583523D02*
X161088771Y-123621619D01*
X161088771Y-123621619D02*
X161050676Y-123621619D01*
X161050676Y-123621619D02*
X160974485Y-123583523D01*
X160974485Y-123583523D02*
X160936390Y-123545428D01*
X160936390Y-123545428D02*
X160898295Y-123469238D01*
X160898295Y-123469238D02*
X160898295Y-123316857D01*
X160898295Y-123316857D02*
X160936390Y-123240666D01*
X160936390Y-123240666D02*
X160974485Y-123202571D01*
X160974485Y-123202571D02*
X161050676Y-123164476D01*
X161050676Y-123164476D02*
X161088771Y-123164476D01*
X161088771Y-123164476D02*
X161164961Y-123202571D01*
X161164961Y-123202571D02*
X161203057Y-123240666D01*
X161203057Y-123240666D02*
X161241152Y-123316857D01*
X161241152Y-123316857D02*
X161241152Y-123469238D01*
X161241152Y-123469238D02*
X161279247Y-123545428D01*
X161279247Y-123545428D02*
X161317342Y-123583523D01*
X161317342Y-123583523D02*
X161393533Y-123621619D01*
X161393533Y-123621619D02*
X161545914Y-123621619D01*
X161545914Y-123621619D02*
X161622104Y-123583523D01*
X161622104Y-123583523D02*
X161660200Y-123545428D01*
X161660200Y-123545428D02*
X161698295Y-123469238D01*
X161698295Y-123469238D02*
X161698295Y-123316857D01*
X161698295Y-123316857D02*
X161660200Y-123240666D01*
X161660200Y-123240666D02*
X161622104Y-123202571D01*
X161622104Y-123202571D02*
X161545914Y-123164476D01*
X161545914Y-123164476D02*
X161393533Y-123164476D01*
X161393533Y-123164476D02*
X161317342Y-123202571D01*
X161317342Y-123202571D02*
X161279247Y-123240666D01*
X161279247Y-123240666D02*
X161241152Y-123316857D01*
X162122476Y-127816295D02*
X162122476Y-128463914D01*
X162122476Y-128463914D02*
X162160571Y-128540104D01*
X162160571Y-128540104D02*
X162198666Y-128578200D01*
X162198666Y-128578200D02*
X162274857Y-128616295D01*
X162274857Y-128616295D02*
X162427238Y-128616295D01*
X162427238Y-128616295D02*
X162503428Y-128578200D01*
X162503428Y-128578200D02*
X162541523Y-128540104D01*
X162541523Y-128540104D02*
X162579619Y-128463914D01*
X162579619Y-128463914D02*
X162579619Y-127816295D01*
X163341523Y-127816295D02*
X162960571Y-127816295D01*
X162960571Y-127816295D02*
X162922475Y-128197247D01*
X162922475Y-128197247D02*
X162960571Y-128159152D01*
X162960571Y-128159152D02*
X163036761Y-128121057D01*
X163036761Y-128121057D02*
X163227237Y-128121057D01*
X163227237Y-128121057D02*
X163303428Y-128159152D01*
X163303428Y-128159152D02*
X163341523Y-128197247D01*
X163341523Y-128197247D02*
X163379618Y-128273438D01*
X163379618Y-128273438D02*
X163379618Y-128463914D01*
X163379618Y-128463914D02*
X163341523Y-128540104D01*
X163341523Y-128540104D02*
X163303428Y-128578200D01*
X163303428Y-128578200D02*
X163227237Y-128616295D01*
X163227237Y-128616295D02*
X163036761Y-128616295D01*
X163036761Y-128616295D02*
X162960571Y-128578200D01*
X162960571Y-128578200D02*
X162922475Y-128540104D01*
X167412295Y-124704285D02*
X167031342Y-124970952D01*
X167412295Y-125161428D02*
X166612295Y-125161428D01*
X166612295Y-125161428D02*
X166612295Y-124856666D01*
X166612295Y-124856666D02*
X166650390Y-124780476D01*
X166650390Y-124780476D02*
X166688485Y-124742381D01*
X166688485Y-124742381D02*
X166764676Y-124704285D01*
X166764676Y-124704285D02*
X166878961Y-124704285D01*
X166878961Y-124704285D02*
X166955152Y-124742381D01*
X166955152Y-124742381D02*
X166993247Y-124780476D01*
X166993247Y-124780476D02*
X167031342Y-124856666D01*
X167031342Y-124856666D02*
X167031342Y-125161428D01*
X167412295Y-123942381D02*
X167412295Y-124399524D01*
X167412295Y-124170952D02*
X166612295Y-124170952D01*
X166612295Y-124170952D02*
X166726580Y-124247143D01*
X166726580Y-124247143D02*
X166802771Y-124323333D01*
X166802771Y-124323333D02*
X166840866Y-124399524D01*
X166612295Y-123675714D02*
X166612295Y-123142380D01*
X166612295Y-123142380D02*
X167412295Y-123485238D01*
X172873295Y-111515332D02*
X172492342Y-111781999D01*
X172873295Y-111972475D02*
X172073295Y-111972475D01*
X172073295Y-111972475D02*
X172073295Y-111667713D01*
X172073295Y-111667713D02*
X172111390Y-111591523D01*
X172111390Y-111591523D02*
X172149485Y-111553428D01*
X172149485Y-111553428D02*
X172225676Y-111515332D01*
X172225676Y-111515332D02*
X172339961Y-111515332D01*
X172339961Y-111515332D02*
X172416152Y-111553428D01*
X172416152Y-111553428D02*
X172454247Y-111591523D01*
X172454247Y-111591523D02*
X172492342Y-111667713D01*
X172492342Y-111667713D02*
X172492342Y-111972475D01*
X172873295Y-110715332D02*
X172492342Y-110981999D01*
X172873295Y-111172475D02*
X172073295Y-111172475D01*
X172073295Y-111172475D02*
X172073295Y-110867713D01*
X172073295Y-110867713D02*
X172111390Y-110791523D01*
X172111390Y-110791523D02*
X172149485Y-110753428D01*
X172149485Y-110753428D02*
X172225676Y-110715332D01*
X172225676Y-110715332D02*
X172339961Y-110715332D01*
X172339961Y-110715332D02*
X172416152Y-110753428D01*
X172416152Y-110753428D02*
X172454247Y-110791523D01*
X172454247Y-110791523D02*
X172492342Y-110867713D01*
X172492342Y-110867713D02*
X172492342Y-111172475D01*
X172073295Y-109991523D02*
X172073295Y-110372475D01*
X172073295Y-110372475D02*
X172454247Y-110410571D01*
X172454247Y-110410571D02*
X172416152Y-110372475D01*
X172416152Y-110372475D02*
X172378057Y-110296285D01*
X172378057Y-110296285D02*
X172378057Y-110105809D01*
X172378057Y-110105809D02*
X172416152Y-110029618D01*
X172416152Y-110029618D02*
X172454247Y-109991523D01*
X172454247Y-109991523D02*
X172530438Y-109953428D01*
X172530438Y-109953428D02*
X172720914Y-109953428D01*
X172720914Y-109953428D02*
X172797104Y-109991523D01*
X172797104Y-109991523D02*
X172835200Y-110029618D01*
X172835200Y-110029618D02*
X172873295Y-110105809D01*
X172873295Y-110105809D02*
X172873295Y-110296285D01*
X172873295Y-110296285D02*
X172835200Y-110372475D01*
X172835200Y-110372475D02*
X172797104Y-110410571D01*
X153442295Y-126679094D02*
X153061342Y-126945761D01*
X153442295Y-127136237D02*
X152642295Y-127136237D01*
X152642295Y-127136237D02*
X152642295Y-126831475D01*
X152642295Y-126831475D02*
X152680390Y-126755285D01*
X152680390Y-126755285D02*
X152718485Y-126717190D01*
X152718485Y-126717190D02*
X152794676Y-126679094D01*
X152794676Y-126679094D02*
X152908961Y-126679094D01*
X152908961Y-126679094D02*
X152985152Y-126717190D01*
X152985152Y-126717190D02*
X153023247Y-126755285D01*
X153023247Y-126755285D02*
X153061342Y-126831475D01*
X153061342Y-126831475D02*
X153061342Y-127136237D01*
X153442295Y-125955285D02*
X153442295Y-126336237D01*
X153442295Y-126336237D02*
X152642295Y-126336237D01*
X153442295Y-125269571D02*
X153442295Y-125726714D01*
X153442295Y-125498142D02*
X152642295Y-125498142D01*
X152642295Y-125498142D02*
X152756580Y-125574333D01*
X152756580Y-125574333D02*
X152832771Y-125650523D01*
X152832771Y-125650523D02*
X152870866Y-125726714D01*
X152642295Y-124774332D02*
X152642295Y-124698142D01*
X152642295Y-124698142D02*
X152680390Y-124621951D01*
X152680390Y-124621951D02*
X152718485Y-124583856D01*
X152718485Y-124583856D02*
X152794676Y-124545761D01*
X152794676Y-124545761D02*
X152947057Y-124507666D01*
X152947057Y-124507666D02*
X153137533Y-124507666D01*
X153137533Y-124507666D02*
X153289914Y-124545761D01*
X153289914Y-124545761D02*
X153366104Y-124583856D01*
X153366104Y-124583856D02*
X153404200Y-124621951D01*
X153404200Y-124621951D02*
X153442295Y-124698142D01*
X153442295Y-124698142D02*
X153442295Y-124774332D01*
X153442295Y-124774332D02*
X153404200Y-124850523D01*
X153404200Y-124850523D02*
X153366104Y-124888618D01*
X153366104Y-124888618D02*
X153289914Y-124926713D01*
X153289914Y-124926713D02*
X153137533Y-124964809D01*
X153137533Y-124964809D02*
X152947057Y-124964809D01*
X152947057Y-124964809D02*
X152794676Y-124926713D01*
X152794676Y-124926713D02*
X152718485Y-124888618D01*
X152718485Y-124888618D02*
X152680390Y-124850523D01*
X152680390Y-124850523D02*
X152642295Y-124774332D01*
X112383295Y-141182523D02*
X113030914Y-141182523D01*
X113030914Y-141182523D02*
X113107104Y-141144428D01*
X113107104Y-141144428D02*
X113145200Y-141106333D01*
X113145200Y-141106333D02*
X113183295Y-141030142D01*
X113183295Y-141030142D02*
X113183295Y-140877761D01*
X113183295Y-140877761D02*
X113145200Y-140801571D01*
X113145200Y-140801571D02*
X113107104Y-140763476D01*
X113107104Y-140763476D02*
X113030914Y-140725380D01*
X113030914Y-140725380D02*
X112383295Y-140725380D01*
X112459485Y-140382524D02*
X112421390Y-140344428D01*
X112421390Y-140344428D02*
X112383295Y-140268238D01*
X112383295Y-140268238D02*
X112383295Y-140077762D01*
X112383295Y-140077762D02*
X112421390Y-140001571D01*
X112421390Y-140001571D02*
X112459485Y-139963476D01*
X112459485Y-139963476D02*
X112535676Y-139925381D01*
X112535676Y-139925381D02*
X112611866Y-139925381D01*
X112611866Y-139925381D02*
X112726152Y-139963476D01*
X112726152Y-139963476D02*
X113183295Y-140420619D01*
X113183295Y-140420619D02*
X113183295Y-139925381D01*
X169622104Y-120659332D02*
X169660200Y-120697428D01*
X169660200Y-120697428D02*
X169698295Y-120811713D01*
X169698295Y-120811713D02*
X169698295Y-120887904D01*
X169698295Y-120887904D02*
X169660200Y-121002190D01*
X169660200Y-121002190D02*
X169584009Y-121078380D01*
X169584009Y-121078380D02*
X169507819Y-121116475D01*
X169507819Y-121116475D02*
X169355438Y-121154571D01*
X169355438Y-121154571D02*
X169241152Y-121154571D01*
X169241152Y-121154571D02*
X169088771Y-121116475D01*
X169088771Y-121116475D02*
X169012580Y-121078380D01*
X169012580Y-121078380D02*
X168936390Y-121002190D01*
X168936390Y-121002190D02*
X168898295Y-120887904D01*
X168898295Y-120887904D02*
X168898295Y-120811713D01*
X168898295Y-120811713D02*
X168936390Y-120697428D01*
X168936390Y-120697428D02*
X168974485Y-120659332D01*
X169698295Y-119859332D02*
X169317342Y-120125999D01*
X169698295Y-120316475D02*
X168898295Y-120316475D01*
X168898295Y-120316475D02*
X168898295Y-120011713D01*
X168898295Y-120011713D02*
X168936390Y-119935523D01*
X168936390Y-119935523D02*
X168974485Y-119897428D01*
X168974485Y-119897428D02*
X169050676Y-119859332D01*
X169050676Y-119859332D02*
X169164961Y-119859332D01*
X169164961Y-119859332D02*
X169241152Y-119897428D01*
X169241152Y-119897428D02*
X169279247Y-119935523D01*
X169279247Y-119935523D02*
X169317342Y-120011713D01*
X169317342Y-120011713D02*
X169317342Y-120316475D01*
X169164961Y-119173618D02*
X169698295Y-119173618D01*
X168860200Y-119364094D02*
X169431628Y-119554571D01*
X169431628Y-119554571D02*
X169431628Y-119059332D01*
X161709714Y-135906104D02*
X161671618Y-135944200D01*
X161671618Y-135944200D02*
X161557333Y-135982295D01*
X161557333Y-135982295D02*
X161481142Y-135982295D01*
X161481142Y-135982295D02*
X161366856Y-135944200D01*
X161366856Y-135944200D02*
X161290666Y-135868009D01*
X161290666Y-135868009D02*
X161252571Y-135791819D01*
X161252571Y-135791819D02*
X161214475Y-135639438D01*
X161214475Y-135639438D02*
X161214475Y-135525152D01*
X161214475Y-135525152D02*
X161252571Y-135372771D01*
X161252571Y-135372771D02*
X161290666Y-135296580D01*
X161290666Y-135296580D02*
X161366856Y-135220390D01*
X161366856Y-135220390D02*
X161481142Y-135182295D01*
X161481142Y-135182295D02*
X161557333Y-135182295D01*
X161557333Y-135182295D02*
X161671618Y-135220390D01*
X161671618Y-135220390D02*
X161709714Y-135258485D01*
X162471618Y-135982295D02*
X162014475Y-135982295D01*
X162243047Y-135982295D02*
X162243047Y-135182295D01*
X162243047Y-135182295D02*
X162166856Y-135296580D01*
X162166856Y-135296580D02*
X162090666Y-135372771D01*
X162090666Y-135372771D02*
X162014475Y-135410866D01*
X162966857Y-135182295D02*
X163043047Y-135182295D01*
X163043047Y-135182295D02*
X163119238Y-135220390D01*
X163119238Y-135220390D02*
X163157333Y-135258485D01*
X163157333Y-135258485D02*
X163195428Y-135334676D01*
X163195428Y-135334676D02*
X163233523Y-135487057D01*
X163233523Y-135487057D02*
X163233523Y-135677533D01*
X163233523Y-135677533D02*
X163195428Y-135829914D01*
X163195428Y-135829914D02*
X163157333Y-135906104D01*
X163157333Y-135906104D02*
X163119238Y-135944200D01*
X163119238Y-135944200D02*
X163043047Y-135982295D01*
X163043047Y-135982295D02*
X162966857Y-135982295D01*
X162966857Y-135982295D02*
X162890666Y-135944200D01*
X162890666Y-135944200D02*
X162852571Y-135906104D01*
X162852571Y-135906104D02*
X162814476Y-135829914D01*
X162814476Y-135829914D02*
X162776380Y-135677533D01*
X162776380Y-135677533D02*
X162776380Y-135487057D01*
X162776380Y-135487057D02*
X162814476Y-135334676D01*
X162814476Y-135334676D02*
X162852571Y-135258485D01*
X162852571Y-135258485D02*
X162890666Y-135220390D01*
X162890666Y-135220390D02*
X162966857Y-135182295D01*
X158776295Y-108010142D02*
X158395342Y-108276809D01*
X158776295Y-108467285D02*
X157976295Y-108467285D01*
X157976295Y-108467285D02*
X157976295Y-108162523D01*
X157976295Y-108162523D02*
X158014390Y-108086333D01*
X158014390Y-108086333D02*
X158052485Y-108048238D01*
X158052485Y-108048238D02*
X158128676Y-108010142D01*
X158128676Y-108010142D02*
X158242961Y-108010142D01*
X158242961Y-108010142D02*
X158319152Y-108048238D01*
X158319152Y-108048238D02*
X158357247Y-108086333D01*
X158357247Y-108086333D02*
X158395342Y-108162523D01*
X158395342Y-108162523D02*
X158395342Y-108467285D01*
X158776295Y-107286333D02*
X158776295Y-107667285D01*
X158776295Y-107667285D02*
X157976295Y-107667285D01*
X158776295Y-106600619D02*
X158776295Y-107057762D01*
X158776295Y-106829190D02*
X157976295Y-106829190D01*
X157976295Y-106829190D02*
X158090580Y-106905381D01*
X158090580Y-106905381D02*
X158166771Y-106981571D01*
X158166771Y-106981571D02*
X158204866Y-107057762D01*
X103410333Y-112195295D02*
X103410333Y-112766723D01*
X103410333Y-112766723D02*
X103372238Y-112881009D01*
X103372238Y-112881009D02*
X103296047Y-112957200D01*
X103296047Y-112957200D02*
X103181762Y-112995295D01*
X103181762Y-112995295D02*
X103105571Y-112995295D01*
X104210333Y-112995295D02*
X103753190Y-112995295D01*
X103981762Y-112995295D02*
X103981762Y-112195295D01*
X103981762Y-112195295D02*
X103905571Y-112309580D01*
X103905571Y-112309580D02*
X103829381Y-112385771D01*
X103829381Y-112385771D02*
X103753190Y-112423866D01*
X158153714Y-155159295D02*
X157887047Y-154778342D01*
X157696571Y-155159295D02*
X157696571Y-154359295D01*
X157696571Y-154359295D02*
X158001333Y-154359295D01*
X158001333Y-154359295D02*
X158077523Y-154397390D01*
X158077523Y-154397390D02*
X158115618Y-154435485D01*
X158115618Y-154435485D02*
X158153714Y-154511676D01*
X158153714Y-154511676D02*
X158153714Y-154625961D01*
X158153714Y-154625961D02*
X158115618Y-154702152D01*
X158115618Y-154702152D02*
X158077523Y-154740247D01*
X158077523Y-154740247D02*
X158001333Y-154778342D01*
X158001333Y-154778342D02*
X157696571Y-154778342D01*
X158458475Y-154435485D02*
X158496571Y-154397390D01*
X158496571Y-154397390D02*
X158572761Y-154359295D01*
X158572761Y-154359295D02*
X158763237Y-154359295D01*
X158763237Y-154359295D02*
X158839428Y-154397390D01*
X158839428Y-154397390D02*
X158877523Y-154435485D01*
X158877523Y-154435485D02*
X158915618Y-154511676D01*
X158915618Y-154511676D02*
X158915618Y-154587866D01*
X158915618Y-154587866D02*
X158877523Y-154702152D01*
X158877523Y-154702152D02*
X158420380Y-155159295D01*
X158420380Y-155159295D02*
X158915618Y-155159295D01*
X159220380Y-154435485D02*
X159258476Y-154397390D01*
X159258476Y-154397390D02*
X159334666Y-154359295D01*
X159334666Y-154359295D02*
X159525142Y-154359295D01*
X159525142Y-154359295D02*
X159601333Y-154397390D01*
X159601333Y-154397390D02*
X159639428Y-154435485D01*
X159639428Y-154435485D02*
X159677523Y-154511676D01*
X159677523Y-154511676D02*
X159677523Y-154587866D01*
X159677523Y-154587866D02*
X159639428Y-154702152D01*
X159639428Y-154702152D02*
X159182285Y-155159295D01*
X159182285Y-155159295D02*
X159677523Y-155159295D01*
X150064104Y-125917142D02*
X150102200Y-125955238D01*
X150102200Y-125955238D02*
X150140295Y-126069523D01*
X150140295Y-126069523D02*
X150140295Y-126145714D01*
X150140295Y-126145714D02*
X150102200Y-126260000D01*
X150102200Y-126260000D02*
X150026009Y-126336190D01*
X150026009Y-126336190D02*
X149949819Y-126374285D01*
X149949819Y-126374285D02*
X149797438Y-126412381D01*
X149797438Y-126412381D02*
X149683152Y-126412381D01*
X149683152Y-126412381D02*
X149530771Y-126374285D01*
X149530771Y-126374285D02*
X149454580Y-126336190D01*
X149454580Y-126336190D02*
X149378390Y-126260000D01*
X149378390Y-126260000D02*
X149340295Y-126145714D01*
X149340295Y-126145714D02*
X149340295Y-126069523D01*
X149340295Y-126069523D02*
X149378390Y-125955238D01*
X149378390Y-125955238D02*
X149416485Y-125917142D01*
X150140295Y-125193333D02*
X150140295Y-125574285D01*
X150140295Y-125574285D02*
X149340295Y-125574285D01*
X149340295Y-124583809D02*
X149340295Y-124736190D01*
X149340295Y-124736190D02*
X149378390Y-124812381D01*
X149378390Y-124812381D02*
X149416485Y-124850476D01*
X149416485Y-124850476D02*
X149530771Y-124926666D01*
X149530771Y-124926666D02*
X149683152Y-124964762D01*
X149683152Y-124964762D02*
X149987914Y-124964762D01*
X149987914Y-124964762D02*
X150064104Y-124926666D01*
X150064104Y-124926666D02*
X150102200Y-124888571D01*
X150102200Y-124888571D02*
X150140295Y-124812381D01*
X150140295Y-124812381D02*
X150140295Y-124660000D01*
X150140295Y-124660000D02*
X150102200Y-124583809D01*
X150102200Y-124583809D02*
X150064104Y-124545714D01*
X150064104Y-124545714D02*
X149987914Y-124507619D01*
X149987914Y-124507619D02*
X149797438Y-124507619D01*
X149797438Y-124507619D02*
X149721247Y-124545714D01*
X149721247Y-124545714D02*
X149683152Y-124583809D01*
X149683152Y-124583809D02*
X149645057Y-124660000D01*
X149645057Y-124660000D02*
X149645057Y-124812381D01*
X149645057Y-124812381D02*
X149683152Y-124888571D01*
X149683152Y-124888571D02*
X149721247Y-124926666D01*
X149721247Y-124926666D02*
X149797438Y-124964762D01*
X162090667Y-150892104D02*
X162052571Y-150930200D01*
X162052571Y-150930200D02*
X161938286Y-150968295D01*
X161938286Y-150968295D02*
X161862095Y-150968295D01*
X161862095Y-150968295D02*
X161747809Y-150930200D01*
X161747809Y-150930200D02*
X161671619Y-150854009D01*
X161671619Y-150854009D02*
X161633524Y-150777819D01*
X161633524Y-150777819D02*
X161595428Y-150625438D01*
X161595428Y-150625438D02*
X161595428Y-150511152D01*
X161595428Y-150511152D02*
X161633524Y-150358771D01*
X161633524Y-150358771D02*
X161671619Y-150282580D01*
X161671619Y-150282580D02*
X161747809Y-150206390D01*
X161747809Y-150206390D02*
X161862095Y-150168295D01*
X161862095Y-150168295D02*
X161938286Y-150168295D01*
X161938286Y-150168295D02*
X162052571Y-150206390D01*
X162052571Y-150206390D02*
X162090667Y-150244485D01*
X162471619Y-150968295D02*
X162624000Y-150968295D01*
X162624000Y-150968295D02*
X162700190Y-150930200D01*
X162700190Y-150930200D02*
X162738286Y-150892104D01*
X162738286Y-150892104D02*
X162814476Y-150777819D01*
X162814476Y-150777819D02*
X162852571Y-150625438D01*
X162852571Y-150625438D02*
X162852571Y-150320676D01*
X162852571Y-150320676D02*
X162814476Y-150244485D01*
X162814476Y-150244485D02*
X162776381Y-150206390D01*
X162776381Y-150206390D02*
X162700190Y-150168295D01*
X162700190Y-150168295D02*
X162547809Y-150168295D01*
X162547809Y-150168295D02*
X162471619Y-150206390D01*
X162471619Y-150206390D02*
X162433524Y-150244485D01*
X162433524Y-150244485D02*
X162395428Y-150320676D01*
X162395428Y-150320676D02*
X162395428Y-150511152D01*
X162395428Y-150511152D02*
X162433524Y-150587342D01*
X162433524Y-150587342D02*
X162471619Y-150625438D01*
X162471619Y-150625438D02*
X162547809Y-150663533D01*
X162547809Y-150663533D02*
X162700190Y-150663533D01*
X162700190Y-150663533D02*
X162776381Y-150625438D01*
X162776381Y-150625438D02*
X162814476Y-150587342D01*
X162814476Y-150587342D02*
X162852571Y-150511152D01*
X122424819Y-124356666D02*
X122424819Y-124832856D01*
X122424819Y-124832856D02*
X121424819Y-124832856D01*
X122424819Y-123499523D02*
X122424819Y-124070951D01*
X122424819Y-123785237D02*
X121424819Y-123785237D01*
X121424819Y-123785237D02*
X121567676Y-123880475D01*
X121567676Y-123880475D02*
X121662914Y-123975713D01*
X121662914Y-123975713D02*
X121710533Y-124070951D01*
X108496667Y-137303104D02*
X108458571Y-137341200D01*
X108458571Y-137341200D02*
X108344286Y-137379295D01*
X108344286Y-137379295D02*
X108268095Y-137379295D01*
X108268095Y-137379295D02*
X108153809Y-137341200D01*
X108153809Y-137341200D02*
X108077619Y-137265009D01*
X108077619Y-137265009D02*
X108039524Y-137188819D01*
X108039524Y-137188819D02*
X108001428Y-137036438D01*
X108001428Y-137036438D02*
X108001428Y-136922152D01*
X108001428Y-136922152D02*
X108039524Y-136769771D01*
X108039524Y-136769771D02*
X108077619Y-136693580D01*
X108077619Y-136693580D02*
X108153809Y-136617390D01*
X108153809Y-136617390D02*
X108268095Y-136579295D01*
X108268095Y-136579295D02*
X108344286Y-136579295D01*
X108344286Y-136579295D02*
X108458571Y-136617390D01*
X108458571Y-136617390D02*
X108496667Y-136655485D01*
X109220476Y-136579295D02*
X108839524Y-136579295D01*
X108839524Y-136579295D02*
X108801428Y-136960247D01*
X108801428Y-136960247D02*
X108839524Y-136922152D01*
X108839524Y-136922152D02*
X108915714Y-136884057D01*
X108915714Y-136884057D02*
X109106190Y-136884057D01*
X109106190Y-136884057D02*
X109182381Y-136922152D01*
X109182381Y-136922152D02*
X109220476Y-136960247D01*
X109220476Y-136960247D02*
X109258571Y-137036438D01*
X109258571Y-137036438D02*
X109258571Y-137226914D01*
X109258571Y-137226914D02*
X109220476Y-137303104D01*
X109220476Y-137303104D02*
X109182381Y-137341200D01*
X109182381Y-137341200D02*
X109106190Y-137379295D01*
X109106190Y-137379295D02*
X108915714Y-137379295D01*
X108915714Y-137379295D02*
X108839524Y-137341200D01*
X108839524Y-137341200D02*
X108801428Y-137303104D01*
X158903295Y-125917142D02*
X158522342Y-126183809D01*
X158903295Y-126374285D02*
X158103295Y-126374285D01*
X158103295Y-126374285D02*
X158103295Y-126069523D01*
X158103295Y-126069523D02*
X158141390Y-125993333D01*
X158141390Y-125993333D02*
X158179485Y-125955238D01*
X158179485Y-125955238D02*
X158255676Y-125917142D01*
X158255676Y-125917142D02*
X158369961Y-125917142D01*
X158369961Y-125917142D02*
X158446152Y-125955238D01*
X158446152Y-125955238D02*
X158484247Y-125993333D01*
X158484247Y-125993333D02*
X158522342Y-126069523D01*
X158522342Y-126069523D02*
X158522342Y-126374285D01*
X158903295Y-125193333D02*
X158903295Y-125574285D01*
X158903295Y-125574285D02*
X158103295Y-125574285D01*
X158903295Y-124888571D02*
X158903295Y-124736190D01*
X158903295Y-124736190D02*
X158865200Y-124660000D01*
X158865200Y-124660000D02*
X158827104Y-124621904D01*
X158827104Y-124621904D02*
X158712819Y-124545714D01*
X158712819Y-124545714D02*
X158560438Y-124507619D01*
X158560438Y-124507619D02*
X158255676Y-124507619D01*
X158255676Y-124507619D02*
X158179485Y-124545714D01*
X158179485Y-124545714D02*
X158141390Y-124583809D01*
X158141390Y-124583809D02*
X158103295Y-124660000D01*
X158103295Y-124660000D02*
X158103295Y-124812381D01*
X158103295Y-124812381D02*
X158141390Y-124888571D01*
X158141390Y-124888571D02*
X158179485Y-124926666D01*
X158179485Y-124926666D02*
X158255676Y-124964762D01*
X158255676Y-124964762D02*
X158446152Y-124964762D01*
X158446152Y-124964762D02*
X158522342Y-124926666D01*
X158522342Y-124926666D02*
X158560438Y-124888571D01*
X158560438Y-124888571D02*
X158598533Y-124812381D01*
X158598533Y-124812381D02*
X158598533Y-124660000D01*
X158598533Y-124660000D02*
X158560438Y-124583809D01*
X158560438Y-124583809D02*
X158522342Y-124545714D01*
X158522342Y-124545714D02*
X158446152Y-124507619D01*
X111036667Y-122571104D02*
X110998571Y-122609200D01*
X110998571Y-122609200D02*
X110884286Y-122647295D01*
X110884286Y-122647295D02*
X110808095Y-122647295D01*
X110808095Y-122647295D02*
X110693809Y-122609200D01*
X110693809Y-122609200D02*
X110617619Y-122533009D01*
X110617619Y-122533009D02*
X110579524Y-122456819D01*
X110579524Y-122456819D02*
X110541428Y-122304438D01*
X110541428Y-122304438D02*
X110541428Y-122190152D01*
X110541428Y-122190152D02*
X110579524Y-122037771D01*
X110579524Y-122037771D02*
X110617619Y-121961580D01*
X110617619Y-121961580D02*
X110693809Y-121885390D01*
X110693809Y-121885390D02*
X110808095Y-121847295D01*
X110808095Y-121847295D02*
X110884286Y-121847295D01*
X110884286Y-121847295D02*
X110998571Y-121885390D01*
X110998571Y-121885390D02*
X111036667Y-121923485D01*
X111341428Y-121923485D02*
X111379524Y-121885390D01*
X111379524Y-121885390D02*
X111455714Y-121847295D01*
X111455714Y-121847295D02*
X111646190Y-121847295D01*
X111646190Y-121847295D02*
X111722381Y-121885390D01*
X111722381Y-121885390D02*
X111760476Y-121923485D01*
X111760476Y-121923485D02*
X111798571Y-121999676D01*
X111798571Y-121999676D02*
X111798571Y-122075866D01*
X111798571Y-122075866D02*
X111760476Y-122190152D01*
X111760476Y-122190152D02*
X111303333Y-122647295D01*
X111303333Y-122647295D02*
X111798571Y-122647295D01*
X173882667Y-135144104D02*
X173844571Y-135182200D01*
X173844571Y-135182200D02*
X173730286Y-135220295D01*
X173730286Y-135220295D02*
X173654095Y-135220295D01*
X173654095Y-135220295D02*
X173539809Y-135182200D01*
X173539809Y-135182200D02*
X173463619Y-135106009D01*
X173463619Y-135106009D02*
X173425524Y-135029819D01*
X173425524Y-135029819D02*
X173387428Y-134877438D01*
X173387428Y-134877438D02*
X173387428Y-134763152D01*
X173387428Y-134763152D02*
X173425524Y-134610771D01*
X173425524Y-134610771D02*
X173463619Y-134534580D01*
X173463619Y-134534580D02*
X173539809Y-134458390D01*
X173539809Y-134458390D02*
X173654095Y-134420295D01*
X173654095Y-134420295D02*
X173730286Y-134420295D01*
X173730286Y-134420295D02*
X173844571Y-134458390D01*
X173844571Y-134458390D02*
X173882667Y-134496485D01*
X174682667Y-135220295D02*
X174416000Y-134839342D01*
X174225524Y-135220295D02*
X174225524Y-134420295D01*
X174225524Y-134420295D02*
X174530286Y-134420295D01*
X174530286Y-134420295D02*
X174606476Y-134458390D01*
X174606476Y-134458390D02*
X174644571Y-134496485D01*
X174644571Y-134496485D02*
X174682667Y-134572676D01*
X174682667Y-134572676D02*
X174682667Y-134686961D01*
X174682667Y-134686961D02*
X174644571Y-134763152D01*
X174644571Y-134763152D02*
X174606476Y-134801247D01*
X174606476Y-134801247D02*
X174530286Y-134839342D01*
X174530286Y-134839342D02*
X174225524Y-134839342D01*
X175368381Y-134420295D02*
X175216000Y-134420295D01*
X175216000Y-134420295D02*
X175139809Y-134458390D01*
X175139809Y-134458390D02*
X175101714Y-134496485D01*
X175101714Y-134496485D02*
X175025524Y-134610771D01*
X175025524Y-134610771D02*
X174987428Y-134763152D01*
X174987428Y-134763152D02*
X174987428Y-135067914D01*
X174987428Y-135067914D02*
X175025524Y-135144104D01*
X175025524Y-135144104D02*
X175063619Y-135182200D01*
X175063619Y-135182200D02*
X175139809Y-135220295D01*
X175139809Y-135220295D02*
X175292190Y-135220295D01*
X175292190Y-135220295D02*
X175368381Y-135182200D01*
X175368381Y-135182200D02*
X175406476Y-135144104D01*
X175406476Y-135144104D02*
X175444571Y-135067914D01*
X175444571Y-135067914D02*
X175444571Y-134877438D01*
X175444571Y-134877438D02*
X175406476Y-134801247D01*
X175406476Y-134801247D02*
X175368381Y-134763152D01*
X175368381Y-134763152D02*
X175292190Y-134725057D01*
X175292190Y-134725057D02*
X175139809Y-134725057D01*
X175139809Y-134725057D02*
X175063619Y-134763152D01*
X175063619Y-134763152D02*
X175025524Y-134801247D01*
X175025524Y-134801247D02*
X174987428Y-134877438D01*
X161709714Y-119523104D02*
X161671618Y-119561200D01*
X161671618Y-119561200D02*
X161557333Y-119599295D01*
X161557333Y-119599295D02*
X161481142Y-119599295D01*
X161481142Y-119599295D02*
X161366856Y-119561200D01*
X161366856Y-119561200D02*
X161290666Y-119485009D01*
X161290666Y-119485009D02*
X161252571Y-119408819D01*
X161252571Y-119408819D02*
X161214475Y-119256438D01*
X161214475Y-119256438D02*
X161214475Y-119142152D01*
X161214475Y-119142152D02*
X161252571Y-118989771D01*
X161252571Y-118989771D02*
X161290666Y-118913580D01*
X161290666Y-118913580D02*
X161366856Y-118837390D01*
X161366856Y-118837390D02*
X161481142Y-118799295D01*
X161481142Y-118799295D02*
X161557333Y-118799295D01*
X161557333Y-118799295D02*
X161671618Y-118837390D01*
X161671618Y-118837390D02*
X161709714Y-118875485D01*
X162471618Y-119599295D02*
X162014475Y-119599295D01*
X162243047Y-119599295D02*
X162243047Y-118799295D01*
X162243047Y-118799295D02*
X162166856Y-118913580D01*
X162166856Y-118913580D02*
X162090666Y-118989771D01*
X162090666Y-118989771D02*
X162014475Y-119027866D01*
X163233523Y-119599295D02*
X162776380Y-119599295D01*
X163004952Y-119599295D02*
X163004952Y-118799295D01*
X163004952Y-118799295D02*
X162928761Y-118913580D01*
X162928761Y-118913580D02*
X162852571Y-118989771D01*
X162852571Y-118989771D02*
X162776380Y-119027866D01*
X166904295Y-133994332D02*
X166523342Y-134260999D01*
X166904295Y-134451475D02*
X166104295Y-134451475D01*
X166104295Y-134451475D02*
X166104295Y-134146713D01*
X166104295Y-134146713D02*
X166142390Y-134070523D01*
X166142390Y-134070523D02*
X166180485Y-134032428D01*
X166180485Y-134032428D02*
X166256676Y-133994332D01*
X166256676Y-133994332D02*
X166370961Y-133994332D01*
X166370961Y-133994332D02*
X166447152Y-134032428D01*
X166447152Y-134032428D02*
X166485247Y-134070523D01*
X166485247Y-134070523D02*
X166523342Y-134146713D01*
X166523342Y-134146713D02*
X166523342Y-134451475D01*
X166904295Y-133194332D02*
X166523342Y-133460999D01*
X166904295Y-133651475D02*
X166104295Y-133651475D01*
X166104295Y-133651475D02*
X166104295Y-133346713D01*
X166104295Y-133346713D02*
X166142390Y-133270523D01*
X166142390Y-133270523D02*
X166180485Y-133232428D01*
X166180485Y-133232428D02*
X166256676Y-133194332D01*
X166256676Y-133194332D02*
X166370961Y-133194332D01*
X166370961Y-133194332D02*
X166447152Y-133232428D01*
X166447152Y-133232428D02*
X166485247Y-133270523D01*
X166485247Y-133270523D02*
X166523342Y-133346713D01*
X166523342Y-133346713D02*
X166523342Y-133651475D01*
X166447152Y-132737190D02*
X166409057Y-132813380D01*
X166409057Y-132813380D02*
X166370961Y-132851475D01*
X166370961Y-132851475D02*
X166294771Y-132889571D01*
X166294771Y-132889571D02*
X166256676Y-132889571D01*
X166256676Y-132889571D02*
X166180485Y-132851475D01*
X166180485Y-132851475D02*
X166142390Y-132813380D01*
X166142390Y-132813380D02*
X166104295Y-132737190D01*
X166104295Y-132737190D02*
X166104295Y-132584809D01*
X166104295Y-132584809D02*
X166142390Y-132508618D01*
X166142390Y-132508618D02*
X166180485Y-132470523D01*
X166180485Y-132470523D02*
X166256676Y-132432428D01*
X166256676Y-132432428D02*
X166294771Y-132432428D01*
X166294771Y-132432428D02*
X166370961Y-132470523D01*
X166370961Y-132470523D02*
X166409057Y-132508618D01*
X166409057Y-132508618D02*
X166447152Y-132584809D01*
X166447152Y-132584809D02*
X166447152Y-132737190D01*
X166447152Y-132737190D02*
X166485247Y-132813380D01*
X166485247Y-132813380D02*
X166523342Y-132851475D01*
X166523342Y-132851475D02*
X166599533Y-132889571D01*
X166599533Y-132889571D02*
X166751914Y-132889571D01*
X166751914Y-132889571D02*
X166828104Y-132851475D01*
X166828104Y-132851475D02*
X166866200Y-132813380D01*
X166866200Y-132813380D02*
X166904295Y-132737190D01*
X166904295Y-132737190D02*
X166904295Y-132584809D01*
X166904295Y-132584809D02*
X166866200Y-132508618D01*
X166866200Y-132508618D02*
X166828104Y-132470523D01*
X166828104Y-132470523D02*
X166751914Y-132432428D01*
X166751914Y-132432428D02*
X166599533Y-132432428D01*
X166599533Y-132432428D02*
X166523342Y-132470523D01*
X166523342Y-132470523D02*
X166485247Y-132508618D01*
X166485247Y-132508618D02*
X166447152Y-132584809D01*
X109724819Y-124381666D02*
X109724819Y-124857856D01*
X109724819Y-124857856D02*
X108724819Y-124857856D01*
X108820057Y-124095951D02*
X108772438Y-124048332D01*
X108772438Y-124048332D02*
X108724819Y-123953094D01*
X108724819Y-123953094D02*
X108724819Y-123714999D01*
X108724819Y-123714999D02*
X108772438Y-123619761D01*
X108772438Y-123619761D02*
X108820057Y-123572142D01*
X108820057Y-123572142D02*
X108915295Y-123524523D01*
X108915295Y-123524523D02*
X109010533Y-123524523D01*
X109010533Y-123524523D02*
X109153390Y-123572142D01*
X109153390Y-123572142D02*
X109724819Y-124143570D01*
X109724819Y-124143570D02*
X109724819Y-123524523D01*
X157252295Y-134553142D02*
X156871342Y-134819809D01*
X157252295Y-135010285D02*
X156452295Y-135010285D01*
X156452295Y-135010285D02*
X156452295Y-134705523D01*
X156452295Y-134705523D02*
X156490390Y-134629333D01*
X156490390Y-134629333D02*
X156528485Y-134591238D01*
X156528485Y-134591238D02*
X156604676Y-134553142D01*
X156604676Y-134553142D02*
X156718961Y-134553142D01*
X156718961Y-134553142D02*
X156795152Y-134591238D01*
X156795152Y-134591238D02*
X156833247Y-134629333D01*
X156833247Y-134629333D02*
X156871342Y-134705523D01*
X156871342Y-134705523D02*
X156871342Y-135010285D01*
X157252295Y-133829333D02*
X157252295Y-134210285D01*
X157252295Y-134210285D02*
X156452295Y-134210285D01*
X156795152Y-133448381D02*
X156757057Y-133524571D01*
X156757057Y-133524571D02*
X156718961Y-133562666D01*
X156718961Y-133562666D02*
X156642771Y-133600762D01*
X156642771Y-133600762D02*
X156604676Y-133600762D01*
X156604676Y-133600762D02*
X156528485Y-133562666D01*
X156528485Y-133562666D02*
X156490390Y-133524571D01*
X156490390Y-133524571D02*
X156452295Y-133448381D01*
X156452295Y-133448381D02*
X156452295Y-133296000D01*
X156452295Y-133296000D02*
X156490390Y-133219809D01*
X156490390Y-133219809D02*
X156528485Y-133181714D01*
X156528485Y-133181714D02*
X156604676Y-133143619D01*
X156604676Y-133143619D02*
X156642771Y-133143619D01*
X156642771Y-133143619D02*
X156718961Y-133181714D01*
X156718961Y-133181714D02*
X156757057Y-133219809D01*
X156757057Y-133219809D02*
X156795152Y-133296000D01*
X156795152Y-133296000D02*
X156795152Y-133448381D01*
X156795152Y-133448381D02*
X156833247Y-133524571D01*
X156833247Y-133524571D02*
X156871342Y-133562666D01*
X156871342Y-133562666D02*
X156947533Y-133600762D01*
X156947533Y-133600762D02*
X157099914Y-133600762D01*
X157099914Y-133600762D02*
X157176104Y-133562666D01*
X157176104Y-133562666D02*
X157214200Y-133524571D01*
X157214200Y-133524571D02*
X157252295Y-133448381D01*
X157252295Y-133448381D02*
X157252295Y-133296000D01*
X157252295Y-133296000D02*
X157214200Y-133219809D01*
X157214200Y-133219809D02*
X157176104Y-133181714D01*
X157176104Y-133181714D02*
X157099914Y-133143619D01*
X157099914Y-133143619D02*
X156947533Y-133143619D01*
X156947533Y-133143619D02*
X156871342Y-133181714D01*
X156871342Y-133181714D02*
X156833247Y-133219809D01*
X156833247Y-133219809D02*
X156795152Y-133296000D01*
X154966295Y-107502142D02*
X154585342Y-107768809D01*
X154966295Y-107959285D02*
X154166295Y-107959285D01*
X154166295Y-107959285D02*
X154166295Y-107654523D01*
X154166295Y-107654523D02*
X154204390Y-107578333D01*
X154204390Y-107578333D02*
X154242485Y-107540238D01*
X154242485Y-107540238D02*
X154318676Y-107502142D01*
X154318676Y-107502142D02*
X154432961Y-107502142D01*
X154432961Y-107502142D02*
X154509152Y-107540238D01*
X154509152Y-107540238D02*
X154547247Y-107578333D01*
X154547247Y-107578333D02*
X154585342Y-107654523D01*
X154585342Y-107654523D02*
X154585342Y-107959285D01*
X154966295Y-106778333D02*
X154966295Y-107159285D01*
X154966295Y-107159285D02*
X154166295Y-107159285D01*
X154166295Y-106130714D02*
X154166295Y-106511666D01*
X154166295Y-106511666D02*
X154547247Y-106549762D01*
X154547247Y-106549762D02*
X154509152Y-106511666D01*
X154509152Y-106511666D02*
X154471057Y-106435476D01*
X154471057Y-106435476D02*
X154471057Y-106245000D01*
X154471057Y-106245000D02*
X154509152Y-106168809D01*
X154509152Y-106168809D02*
X154547247Y-106130714D01*
X154547247Y-106130714D02*
X154623438Y-106092619D01*
X154623438Y-106092619D02*
X154813914Y-106092619D01*
X154813914Y-106092619D02*
X154890104Y-106130714D01*
X154890104Y-106130714D02*
X154928200Y-106168809D01*
X154928200Y-106168809D02*
X154966295Y-106245000D01*
X154966295Y-106245000D02*
X154966295Y-106435476D01*
X154966295Y-106435476D02*
X154928200Y-106511666D01*
X154928200Y-106511666D02*
X154890104Y-106549762D01*
X113576667Y-130191104D02*
X113538571Y-130229200D01*
X113538571Y-130229200D02*
X113424286Y-130267295D01*
X113424286Y-130267295D02*
X113348095Y-130267295D01*
X113348095Y-130267295D02*
X113233809Y-130229200D01*
X113233809Y-130229200D02*
X113157619Y-130153009D01*
X113157619Y-130153009D02*
X113119524Y-130076819D01*
X113119524Y-130076819D02*
X113081428Y-129924438D01*
X113081428Y-129924438D02*
X113081428Y-129810152D01*
X113081428Y-129810152D02*
X113119524Y-129657771D01*
X113119524Y-129657771D02*
X113157619Y-129581580D01*
X113157619Y-129581580D02*
X113233809Y-129505390D01*
X113233809Y-129505390D02*
X113348095Y-129467295D01*
X113348095Y-129467295D02*
X113424286Y-129467295D01*
X113424286Y-129467295D02*
X113538571Y-129505390D01*
X113538571Y-129505390D02*
X113576667Y-129543485D01*
X114262381Y-129733961D02*
X114262381Y-130267295D01*
X114071905Y-129429200D02*
X113881428Y-130000628D01*
X113881428Y-130000628D02*
X114376667Y-130000628D01*
X168936295Y-142630285D02*
X168555342Y-142896952D01*
X168936295Y-143087428D02*
X168136295Y-143087428D01*
X168136295Y-143087428D02*
X168136295Y-142782666D01*
X168136295Y-142782666D02*
X168174390Y-142706476D01*
X168174390Y-142706476D02*
X168212485Y-142668381D01*
X168212485Y-142668381D02*
X168288676Y-142630285D01*
X168288676Y-142630285D02*
X168402961Y-142630285D01*
X168402961Y-142630285D02*
X168479152Y-142668381D01*
X168479152Y-142668381D02*
X168517247Y-142706476D01*
X168517247Y-142706476D02*
X168555342Y-142782666D01*
X168555342Y-142782666D02*
X168555342Y-143087428D01*
X168936295Y-141830285D02*
X168555342Y-142096952D01*
X168936295Y-142287428D02*
X168136295Y-142287428D01*
X168136295Y-142287428D02*
X168136295Y-141982666D01*
X168136295Y-141982666D02*
X168174390Y-141906476D01*
X168174390Y-141906476D02*
X168212485Y-141868381D01*
X168212485Y-141868381D02*
X168288676Y-141830285D01*
X168288676Y-141830285D02*
X168402961Y-141830285D01*
X168402961Y-141830285D02*
X168479152Y-141868381D01*
X168479152Y-141868381D02*
X168517247Y-141906476D01*
X168517247Y-141906476D02*
X168555342Y-141982666D01*
X168555342Y-141982666D02*
X168555342Y-142287428D01*
X168936295Y-141068381D02*
X168936295Y-141525524D01*
X168936295Y-141296952D02*
X168136295Y-141296952D01*
X168136295Y-141296952D02*
X168250580Y-141373143D01*
X168250580Y-141373143D02*
X168326771Y-141449333D01*
X168326771Y-141449333D02*
X168364866Y-141525524D01*
X168136295Y-140344571D02*
X168136295Y-140725523D01*
X168136295Y-140725523D02*
X168517247Y-140763619D01*
X168517247Y-140763619D02*
X168479152Y-140725523D01*
X168479152Y-140725523D02*
X168441057Y-140649333D01*
X168441057Y-140649333D02*
X168441057Y-140458857D01*
X168441057Y-140458857D02*
X168479152Y-140382666D01*
X168479152Y-140382666D02*
X168517247Y-140344571D01*
X168517247Y-140344571D02*
X168593438Y-140306476D01*
X168593438Y-140306476D02*
X168783914Y-140306476D01*
X168783914Y-140306476D02*
X168860104Y-140344571D01*
X168860104Y-140344571D02*
X168898200Y-140382666D01*
X168898200Y-140382666D02*
X168936295Y-140458857D01*
X168936295Y-140458857D02*
X168936295Y-140649333D01*
X168936295Y-140649333D02*
X168898200Y-140725523D01*
X168898200Y-140725523D02*
X168860104Y-140763619D01*
X104051667Y-146066104D02*
X104013571Y-146104200D01*
X104013571Y-146104200D02*
X103899286Y-146142295D01*
X103899286Y-146142295D02*
X103823095Y-146142295D01*
X103823095Y-146142295D02*
X103708809Y-146104200D01*
X103708809Y-146104200D02*
X103632619Y-146028009D01*
X103632619Y-146028009D02*
X103594524Y-145951819D01*
X103594524Y-145951819D02*
X103556428Y-145799438D01*
X103556428Y-145799438D02*
X103556428Y-145685152D01*
X103556428Y-145685152D02*
X103594524Y-145532771D01*
X103594524Y-145532771D02*
X103632619Y-145456580D01*
X103632619Y-145456580D02*
X103708809Y-145380390D01*
X103708809Y-145380390D02*
X103823095Y-145342295D01*
X103823095Y-145342295D02*
X103899286Y-145342295D01*
X103899286Y-145342295D02*
X104013571Y-145380390D01*
X104013571Y-145380390D02*
X104051667Y-145418485D01*
X104508809Y-145685152D02*
X104432619Y-145647057D01*
X104432619Y-145647057D02*
X104394524Y-145608961D01*
X104394524Y-145608961D02*
X104356428Y-145532771D01*
X104356428Y-145532771D02*
X104356428Y-145494676D01*
X104356428Y-145494676D02*
X104394524Y-145418485D01*
X104394524Y-145418485D02*
X104432619Y-145380390D01*
X104432619Y-145380390D02*
X104508809Y-145342295D01*
X104508809Y-145342295D02*
X104661190Y-145342295D01*
X104661190Y-145342295D02*
X104737381Y-145380390D01*
X104737381Y-145380390D02*
X104775476Y-145418485D01*
X104775476Y-145418485D02*
X104813571Y-145494676D01*
X104813571Y-145494676D02*
X104813571Y-145532771D01*
X104813571Y-145532771D02*
X104775476Y-145608961D01*
X104775476Y-145608961D02*
X104737381Y-145647057D01*
X104737381Y-145647057D02*
X104661190Y-145685152D01*
X104661190Y-145685152D02*
X104508809Y-145685152D01*
X104508809Y-145685152D02*
X104432619Y-145723247D01*
X104432619Y-145723247D02*
X104394524Y-145761342D01*
X104394524Y-145761342D02*
X104356428Y-145837533D01*
X104356428Y-145837533D02*
X104356428Y-145989914D01*
X104356428Y-145989914D02*
X104394524Y-146066104D01*
X104394524Y-146066104D02*
X104432619Y-146104200D01*
X104432619Y-146104200D02*
X104508809Y-146142295D01*
X104508809Y-146142295D02*
X104661190Y-146142295D01*
X104661190Y-146142295D02*
X104737381Y-146104200D01*
X104737381Y-146104200D02*
X104775476Y-146066104D01*
X104775476Y-146066104D02*
X104813571Y-145989914D01*
X104813571Y-145989914D02*
X104813571Y-145837533D01*
X104813571Y-145837533D02*
X104775476Y-145761342D01*
X104775476Y-145761342D02*
X104737381Y-145723247D01*
X104737381Y-145723247D02*
X104661190Y-145685152D01*
X118199524Y-115789295D02*
X118199524Y-114989295D01*
X118199524Y-114989295D02*
X118390000Y-114989295D01*
X118390000Y-114989295D02*
X118504286Y-115027390D01*
X118504286Y-115027390D02*
X118580476Y-115103580D01*
X118580476Y-115103580D02*
X118618571Y-115179771D01*
X118618571Y-115179771D02*
X118656667Y-115332152D01*
X118656667Y-115332152D02*
X118656667Y-115446438D01*
X118656667Y-115446438D02*
X118618571Y-115598819D01*
X118618571Y-115598819D02*
X118580476Y-115675009D01*
X118580476Y-115675009D02*
X118504286Y-115751200D01*
X118504286Y-115751200D02*
X118390000Y-115789295D01*
X118390000Y-115789295D02*
X118199524Y-115789295D01*
X119418571Y-115789295D02*
X118961428Y-115789295D01*
X119190000Y-115789295D02*
X119190000Y-114989295D01*
X119190000Y-114989295D02*
X119113809Y-115103580D01*
X119113809Y-115103580D02*
X119037619Y-115179771D01*
X119037619Y-115179771D02*
X118961428Y-115217866D01*
X179972333Y-153216295D02*
X179972333Y-153787723D01*
X179972333Y-153787723D02*
X179934238Y-153902009D01*
X179934238Y-153902009D02*
X179858047Y-153978200D01*
X179858047Y-153978200D02*
X179743762Y-154016295D01*
X179743762Y-154016295D02*
X179667571Y-154016295D01*
X180810429Y-154016295D02*
X180543762Y-153635342D01*
X180353286Y-154016295D02*
X180353286Y-153216295D01*
X180353286Y-153216295D02*
X180658048Y-153216295D01*
X180658048Y-153216295D02*
X180734238Y-153254390D01*
X180734238Y-153254390D02*
X180772333Y-153292485D01*
X180772333Y-153292485D02*
X180810429Y-153368676D01*
X180810429Y-153368676D02*
X180810429Y-153482961D01*
X180810429Y-153482961D02*
X180772333Y-153559152D01*
X180772333Y-153559152D02*
X180734238Y-153597247D01*
X180734238Y-153597247D02*
X180658048Y-153635342D01*
X180658048Y-153635342D02*
X180353286Y-153635342D01*
X181077095Y-153216295D02*
X181572333Y-153216295D01*
X181572333Y-153216295D02*
X181305667Y-153521057D01*
X181305667Y-153521057D02*
X181419952Y-153521057D01*
X181419952Y-153521057D02*
X181496143Y-153559152D01*
X181496143Y-153559152D02*
X181534238Y-153597247D01*
X181534238Y-153597247D02*
X181572333Y-153673438D01*
X181572333Y-153673438D02*
X181572333Y-153863914D01*
X181572333Y-153863914D02*
X181534238Y-153940104D01*
X181534238Y-153940104D02*
X181496143Y-153978200D01*
X181496143Y-153978200D02*
X181419952Y-154016295D01*
X181419952Y-154016295D02*
X181191381Y-154016295D01*
X181191381Y-154016295D02*
X181115190Y-153978200D01*
X181115190Y-153978200D02*
X181077095Y-153940104D01*
X114116476Y-133785295D02*
X114116476Y-134432914D01*
X114116476Y-134432914D02*
X114154571Y-134509104D01*
X114154571Y-134509104D02*
X114192666Y-134547200D01*
X114192666Y-134547200D02*
X114268857Y-134585295D01*
X114268857Y-134585295D02*
X114421238Y-134585295D01*
X114421238Y-134585295D02*
X114497428Y-134547200D01*
X114497428Y-134547200D02*
X114535523Y-134509104D01*
X114535523Y-134509104D02*
X114573619Y-134432914D01*
X114573619Y-134432914D02*
X114573619Y-133785295D01*
X115373618Y-134585295D02*
X114916475Y-134585295D01*
X115145047Y-134585295D02*
X115145047Y-133785295D01*
X115145047Y-133785295D02*
X115068856Y-133899580D01*
X115068856Y-133899580D02*
X114992666Y-133975771D01*
X114992666Y-133975771D02*
X114916475Y-134013866D01*
X156051905Y-151730295D02*
X155785238Y-151349342D01*
X155594762Y-151730295D02*
X155594762Y-150930295D01*
X155594762Y-150930295D02*
X155899524Y-150930295D01*
X155899524Y-150930295D02*
X155975714Y-150968390D01*
X155975714Y-150968390D02*
X156013809Y-151006485D01*
X156013809Y-151006485D02*
X156051905Y-151082676D01*
X156051905Y-151082676D02*
X156051905Y-151196961D01*
X156051905Y-151196961D02*
X156013809Y-151273152D01*
X156013809Y-151273152D02*
X155975714Y-151311247D01*
X155975714Y-151311247D02*
X155899524Y-151349342D01*
X155899524Y-151349342D02*
X155594762Y-151349342D01*
X156775714Y-151730295D02*
X156394762Y-151730295D01*
X156394762Y-151730295D02*
X156394762Y-150930295D01*
X157461428Y-151730295D02*
X157004285Y-151730295D01*
X157232857Y-151730295D02*
X157232857Y-150930295D01*
X157232857Y-150930295D02*
X157156666Y-151044580D01*
X157156666Y-151044580D02*
X157080476Y-151120771D01*
X157080476Y-151120771D02*
X157004285Y-151158866D01*
X157728095Y-150930295D02*
X158223333Y-150930295D01*
X158223333Y-150930295D02*
X157956667Y-151235057D01*
X157956667Y-151235057D02*
X158070952Y-151235057D01*
X158070952Y-151235057D02*
X158147143Y-151273152D01*
X158147143Y-151273152D02*
X158185238Y-151311247D01*
X158185238Y-151311247D02*
X158223333Y-151387438D01*
X158223333Y-151387438D02*
X158223333Y-151577914D01*
X158223333Y-151577914D02*
X158185238Y-151654104D01*
X158185238Y-151654104D02*
X158147143Y-151692200D01*
X158147143Y-151692200D02*
X158070952Y-151730295D01*
X158070952Y-151730295D02*
X157842381Y-151730295D01*
X157842381Y-151730295D02*
X157766190Y-151692200D01*
X157766190Y-151692200D02*
X157728095Y-151654104D01*
X168802667Y-104232295D02*
X168536000Y-103851342D01*
X168345524Y-104232295D02*
X168345524Y-103432295D01*
X168345524Y-103432295D02*
X168650286Y-103432295D01*
X168650286Y-103432295D02*
X168726476Y-103470390D01*
X168726476Y-103470390D02*
X168764571Y-103508485D01*
X168764571Y-103508485D02*
X168802667Y-103584676D01*
X168802667Y-103584676D02*
X168802667Y-103698961D01*
X168802667Y-103698961D02*
X168764571Y-103775152D01*
X168764571Y-103775152D02*
X168726476Y-103813247D01*
X168726476Y-103813247D02*
X168650286Y-103851342D01*
X168650286Y-103851342D02*
X168345524Y-103851342D01*
X169602667Y-104232295D02*
X169336000Y-103851342D01*
X169145524Y-104232295D02*
X169145524Y-103432295D01*
X169145524Y-103432295D02*
X169450286Y-103432295D01*
X169450286Y-103432295D02*
X169526476Y-103470390D01*
X169526476Y-103470390D02*
X169564571Y-103508485D01*
X169564571Y-103508485D02*
X169602667Y-103584676D01*
X169602667Y-103584676D02*
X169602667Y-103698961D01*
X169602667Y-103698961D02*
X169564571Y-103775152D01*
X169564571Y-103775152D02*
X169526476Y-103813247D01*
X169526476Y-103813247D02*
X169450286Y-103851342D01*
X169450286Y-103851342D02*
X169145524Y-103851342D01*
X170364571Y-104232295D02*
X169907428Y-104232295D01*
X170136000Y-104232295D02*
X170136000Y-103432295D01*
X170136000Y-103432295D02*
X170059809Y-103546580D01*
X170059809Y-103546580D02*
X169983619Y-103622771D01*
X169983619Y-103622771D02*
X169907428Y-103660866D01*
X168802667Y-138319104D02*
X168764571Y-138357200D01*
X168764571Y-138357200D02*
X168650286Y-138395295D01*
X168650286Y-138395295D02*
X168574095Y-138395295D01*
X168574095Y-138395295D02*
X168459809Y-138357200D01*
X168459809Y-138357200D02*
X168383619Y-138281009D01*
X168383619Y-138281009D02*
X168345524Y-138204819D01*
X168345524Y-138204819D02*
X168307428Y-138052438D01*
X168307428Y-138052438D02*
X168307428Y-137938152D01*
X168307428Y-137938152D02*
X168345524Y-137785771D01*
X168345524Y-137785771D02*
X168383619Y-137709580D01*
X168383619Y-137709580D02*
X168459809Y-137633390D01*
X168459809Y-137633390D02*
X168574095Y-137595295D01*
X168574095Y-137595295D02*
X168650286Y-137595295D01*
X168650286Y-137595295D02*
X168764571Y-137633390D01*
X168764571Y-137633390D02*
X168802667Y-137671485D01*
X169602667Y-138395295D02*
X169336000Y-138014342D01*
X169145524Y-138395295D02*
X169145524Y-137595295D01*
X169145524Y-137595295D02*
X169450286Y-137595295D01*
X169450286Y-137595295D02*
X169526476Y-137633390D01*
X169526476Y-137633390D02*
X169564571Y-137671485D01*
X169564571Y-137671485D02*
X169602667Y-137747676D01*
X169602667Y-137747676D02*
X169602667Y-137861961D01*
X169602667Y-137861961D02*
X169564571Y-137938152D01*
X169564571Y-137938152D02*
X169526476Y-137976247D01*
X169526476Y-137976247D02*
X169450286Y-138014342D01*
X169450286Y-138014342D02*
X169145524Y-138014342D01*
X170326476Y-137595295D02*
X169945524Y-137595295D01*
X169945524Y-137595295D02*
X169907428Y-137976247D01*
X169907428Y-137976247D02*
X169945524Y-137938152D01*
X169945524Y-137938152D02*
X170021714Y-137900057D01*
X170021714Y-137900057D02*
X170212190Y-137900057D01*
X170212190Y-137900057D02*
X170288381Y-137938152D01*
X170288381Y-137938152D02*
X170326476Y-137976247D01*
X170326476Y-137976247D02*
X170364571Y-138052438D01*
X170364571Y-138052438D02*
X170364571Y-138242914D01*
X170364571Y-138242914D02*
X170326476Y-138319104D01*
X170326476Y-138319104D02*
X170288381Y-138357200D01*
X170288381Y-138357200D02*
X170212190Y-138395295D01*
X170212190Y-138395295D02*
X170021714Y-138395295D01*
X170021714Y-138395295D02*
X169945524Y-138357200D01*
X169945524Y-138357200D02*
X169907428Y-138319104D01*
X123609714Y-107331104D02*
X123571618Y-107369200D01*
X123571618Y-107369200D02*
X123457333Y-107407295D01*
X123457333Y-107407295D02*
X123381142Y-107407295D01*
X123381142Y-107407295D02*
X123266856Y-107369200D01*
X123266856Y-107369200D02*
X123190666Y-107293009D01*
X123190666Y-107293009D02*
X123152571Y-107216819D01*
X123152571Y-107216819D02*
X123114475Y-107064438D01*
X123114475Y-107064438D02*
X123114475Y-106950152D01*
X123114475Y-106950152D02*
X123152571Y-106797771D01*
X123152571Y-106797771D02*
X123190666Y-106721580D01*
X123190666Y-106721580D02*
X123266856Y-106645390D01*
X123266856Y-106645390D02*
X123381142Y-106607295D01*
X123381142Y-106607295D02*
X123457333Y-106607295D01*
X123457333Y-106607295D02*
X123571618Y-106645390D01*
X123571618Y-106645390D02*
X123609714Y-106683485D01*
X124371618Y-107407295D02*
X123914475Y-107407295D01*
X124143047Y-107407295D02*
X124143047Y-106607295D01*
X124143047Y-106607295D02*
X124066856Y-106721580D01*
X124066856Y-106721580D02*
X123990666Y-106797771D01*
X123990666Y-106797771D02*
X123914475Y-106835866D01*
X124676380Y-106683485D02*
X124714476Y-106645390D01*
X124714476Y-106645390D02*
X124790666Y-106607295D01*
X124790666Y-106607295D02*
X124981142Y-106607295D01*
X124981142Y-106607295D02*
X125057333Y-106645390D01*
X125057333Y-106645390D02*
X125095428Y-106683485D01*
X125095428Y-106683485D02*
X125133523Y-106759676D01*
X125133523Y-106759676D02*
X125133523Y-106835866D01*
X125133523Y-106835866D02*
X125095428Y-106950152D01*
X125095428Y-106950152D02*
X124638285Y-107407295D01*
X124638285Y-107407295D02*
X125133523Y-107407295D01*
X104686667Y-130953104D02*
X104648571Y-130991200D01*
X104648571Y-130991200D02*
X104534286Y-131029295D01*
X104534286Y-131029295D02*
X104458095Y-131029295D01*
X104458095Y-131029295D02*
X104343809Y-130991200D01*
X104343809Y-130991200D02*
X104267619Y-130915009D01*
X104267619Y-130915009D02*
X104229524Y-130838819D01*
X104229524Y-130838819D02*
X104191428Y-130686438D01*
X104191428Y-130686438D02*
X104191428Y-130572152D01*
X104191428Y-130572152D02*
X104229524Y-130419771D01*
X104229524Y-130419771D02*
X104267619Y-130343580D01*
X104267619Y-130343580D02*
X104343809Y-130267390D01*
X104343809Y-130267390D02*
X104458095Y-130229295D01*
X104458095Y-130229295D02*
X104534286Y-130229295D01*
X104534286Y-130229295D02*
X104648571Y-130267390D01*
X104648571Y-130267390D02*
X104686667Y-130305485D01*
X105372381Y-130229295D02*
X105220000Y-130229295D01*
X105220000Y-130229295D02*
X105143809Y-130267390D01*
X105143809Y-130267390D02*
X105105714Y-130305485D01*
X105105714Y-130305485D02*
X105029524Y-130419771D01*
X105029524Y-130419771D02*
X104991428Y-130572152D01*
X104991428Y-130572152D02*
X104991428Y-130876914D01*
X104991428Y-130876914D02*
X105029524Y-130953104D01*
X105029524Y-130953104D02*
X105067619Y-130991200D01*
X105067619Y-130991200D02*
X105143809Y-131029295D01*
X105143809Y-131029295D02*
X105296190Y-131029295D01*
X105296190Y-131029295D02*
X105372381Y-130991200D01*
X105372381Y-130991200D02*
X105410476Y-130953104D01*
X105410476Y-130953104D02*
X105448571Y-130876914D01*
X105448571Y-130876914D02*
X105448571Y-130686438D01*
X105448571Y-130686438D02*
X105410476Y-130610247D01*
X105410476Y-130610247D02*
X105372381Y-130572152D01*
X105372381Y-130572152D02*
X105296190Y-130534057D01*
X105296190Y-130534057D02*
X105143809Y-130534057D01*
X105143809Y-130534057D02*
X105067619Y-130572152D01*
X105067619Y-130572152D02*
X105029524Y-130610247D01*
X105029524Y-130610247D02*
X104991428Y-130686438D01*
X163106714Y-155159295D02*
X162840047Y-154778342D01*
X162649571Y-155159295D02*
X162649571Y-154359295D01*
X162649571Y-154359295D02*
X162954333Y-154359295D01*
X162954333Y-154359295D02*
X163030523Y-154397390D01*
X163030523Y-154397390D02*
X163068618Y-154435485D01*
X163068618Y-154435485D02*
X163106714Y-154511676D01*
X163106714Y-154511676D02*
X163106714Y-154625961D01*
X163106714Y-154625961D02*
X163068618Y-154702152D01*
X163068618Y-154702152D02*
X163030523Y-154740247D01*
X163030523Y-154740247D02*
X162954333Y-154778342D01*
X162954333Y-154778342D02*
X162649571Y-154778342D01*
X163411475Y-154435485D02*
X163449571Y-154397390D01*
X163449571Y-154397390D02*
X163525761Y-154359295D01*
X163525761Y-154359295D02*
X163716237Y-154359295D01*
X163716237Y-154359295D02*
X163792428Y-154397390D01*
X163792428Y-154397390D02*
X163830523Y-154435485D01*
X163830523Y-154435485D02*
X163868618Y-154511676D01*
X163868618Y-154511676D02*
X163868618Y-154587866D01*
X163868618Y-154587866D02*
X163830523Y-154702152D01*
X163830523Y-154702152D02*
X163373380Y-155159295D01*
X163373380Y-155159295D02*
X163868618Y-155159295D01*
X164630523Y-155159295D02*
X164173380Y-155159295D01*
X164401952Y-155159295D02*
X164401952Y-154359295D01*
X164401952Y-154359295D02*
X164325761Y-154473580D01*
X164325761Y-154473580D02*
X164249571Y-154549771D01*
X164249571Y-154549771D02*
X164173380Y-154587866D01*
X147854295Y-133537094D02*
X147473342Y-133803761D01*
X147854295Y-133994237D02*
X147054295Y-133994237D01*
X147054295Y-133994237D02*
X147054295Y-133689475D01*
X147054295Y-133689475D02*
X147092390Y-133613285D01*
X147092390Y-133613285D02*
X147130485Y-133575190D01*
X147130485Y-133575190D02*
X147206676Y-133537094D01*
X147206676Y-133537094D02*
X147320961Y-133537094D01*
X147320961Y-133537094D02*
X147397152Y-133575190D01*
X147397152Y-133575190D02*
X147435247Y-133613285D01*
X147435247Y-133613285D02*
X147473342Y-133689475D01*
X147473342Y-133689475D02*
X147473342Y-133994237D01*
X147854295Y-132813285D02*
X147854295Y-133194237D01*
X147854295Y-133194237D02*
X147054295Y-133194237D01*
X147854295Y-132127571D02*
X147854295Y-132584714D01*
X147854295Y-132356142D02*
X147054295Y-132356142D01*
X147054295Y-132356142D02*
X147168580Y-132432333D01*
X147168580Y-132432333D02*
X147244771Y-132508523D01*
X147244771Y-132508523D02*
X147282866Y-132584714D01*
X147130485Y-131822809D02*
X147092390Y-131784713D01*
X147092390Y-131784713D02*
X147054295Y-131708523D01*
X147054295Y-131708523D02*
X147054295Y-131518047D01*
X147054295Y-131518047D02*
X147092390Y-131441856D01*
X147092390Y-131441856D02*
X147130485Y-131403761D01*
X147130485Y-131403761D02*
X147206676Y-131365666D01*
X147206676Y-131365666D02*
X147282866Y-131365666D01*
X147282866Y-131365666D02*
X147397152Y-131403761D01*
X147397152Y-131403761D02*
X147854295Y-131860904D01*
X147854295Y-131860904D02*
X147854295Y-131365666D01*
X167412295Y-111642332D02*
X167031342Y-111908999D01*
X167412295Y-112099475D02*
X166612295Y-112099475D01*
X166612295Y-112099475D02*
X166612295Y-111794713D01*
X166612295Y-111794713D02*
X166650390Y-111718523D01*
X166650390Y-111718523D02*
X166688485Y-111680428D01*
X166688485Y-111680428D02*
X166764676Y-111642332D01*
X166764676Y-111642332D02*
X166878961Y-111642332D01*
X166878961Y-111642332D02*
X166955152Y-111680428D01*
X166955152Y-111680428D02*
X166993247Y-111718523D01*
X166993247Y-111718523D02*
X167031342Y-111794713D01*
X167031342Y-111794713D02*
X167031342Y-112099475D01*
X167412295Y-110842332D02*
X167031342Y-111108999D01*
X167412295Y-111299475D02*
X166612295Y-111299475D01*
X166612295Y-111299475D02*
X166612295Y-110994713D01*
X166612295Y-110994713D02*
X166650390Y-110918523D01*
X166650390Y-110918523D02*
X166688485Y-110880428D01*
X166688485Y-110880428D02*
X166764676Y-110842332D01*
X166764676Y-110842332D02*
X166878961Y-110842332D01*
X166878961Y-110842332D02*
X166955152Y-110880428D01*
X166955152Y-110880428D02*
X166993247Y-110918523D01*
X166993247Y-110918523D02*
X167031342Y-110994713D01*
X167031342Y-110994713D02*
X167031342Y-111299475D01*
X166878961Y-110156618D02*
X167412295Y-110156618D01*
X166574200Y-110347094D02*
X167145628Y-110537571D01*
X167145628Y-110537571D02*
X167145628Y-110042332D01*
X155220295Y-147634094D02*
X154839342Y-147900761D01*
X155220295Y-148091237D02*
X154420295Y-148091237D01*
X154420295Y-148091237D02*
X154420295Y-147786475D01*
X154420295Y-147786475D02*
X154458390Y-147710285D01*
X154458390Y-147710285D02*
X154496485Y-147672190D01*
X154496485Y-147672190D02*
X154572676Y-147634094D01*
X154572676Y-147634094D02*
X154686961Y-147634094D01*
X154686961Y-147634094D02*
X154763152Y-147672190D01*
X154763152Y-147672190D02*
X154801247Y-147710285D01*
X154801247Y-147710285D02*
X154839342Y-147786475D01*
X154839342Y-147786475D02*
X154839342Y-148091237D01*
X155220295Y-146910285D02*
X155220295Y-147291237D01*
X155220295Y-147291237D02*
X154420295Y-147291237D01*
X155220295Y-146224571D02*
X155220295Y-146681714D01*
X155220295Y-146453142D02*
X154420295Y-146453142D01*
X154420295Y-146453142D02*
X154534580Y-146529333D01*
X154534580Y-146529333D02*
X154610771Y-146605523D01*
X154610771Y-146605523D02*
X154648866Y-146681714D01*
X154686961Y-145538856D02*
X155220295Y-145538856D01*
X154382200Y-145729332D02*
X154953628Y-145919809D01*
X154953628Y-145919809D02*
X154953628Y-145424570D01*
X175794295Y-118373332D02*
X175413342Y-118639999D01*
X175794295Y-118830475D02*
X174994295Y-118830475D01*
X174994295Y-118830475D02*
X174994295Y-118525713D01*
X174994295Y-118525713D02*
X175032390Y-118449523D01*
X175032390Y-118449523D02*
X175070485Y-118411428D01*
X175070485Y-118411428D02*
X175146676Y-118373332D01*
X175146676Y-118373332D02*
X175260961Y-118373332D01*
X175260961Y-118373332D02*
X175337152Y-118411428D01*
X175337152Y-118411428D02*
X175375247Y-118449523D01*
X175375247Y-118449523D02*
X175413342Y-118525713D01*
X175413342Y-118525713D02*
X175413342Y-118830475D01*
X175794295Y-117573332D02*
X175413342Y-117839999D01*
X175794295Y-118030475D02*
X174994295Y-118030475D01*
X174994295Y-118030475D02*
X174994295Y-117725713D01*
X174994295Y-117725713D02*
X175032390Y-117649523D01*
X175032390Y-117649523D02*
X175070485Y-117611428D01*
X175070485Y-117611428D02*
X175146676Y-117573332D01*
X175146676Y-117573332D02*
X175260961Y-117573332D01*
X175260961Y-117573332D02*
X175337152Y-117611428D01*
X175337152Y-117611428D02*
X175375247Y-117649523D01*
X175375247Y-117649523D02*
X175413342Y-117725713D01*
X175413342Y-117725713D02*
X175413342Y-118030475D01*
X174994295Y-117306666D02*
X174994295Y-116773332D01*
X174994295Y-116773332D02*
X175794295Y-117116190D01*
X155162857Y-119396104D02*
X155124761Y-119434200D01*
X155124761Y-119434200D02*
X155010476Y-119472295D01*
X155010476Y-119472295D02*
X154934285Y-119472295D01*
X154934285Y-119472295D02*
X154819999Y-119434200D01*
X154819999Y-119434200D02*
X154743809Y-119358009D01*
X154743809Y-119358009D02*
X154705714Y-119281819D01*
X154705714Y-119281819D02*
X154667618Y-119129438D01*
X154667618Y-119129438D02*
X154667618Y-119015152D01*
X154667618Y-119015152D02*
X154705714Y-118862771D01*
X154705714Y-118862771D02*
X154743809Y-118786580D01*
X154743809Y-118786580D02*
X154819999Y-118710390D01*
X154819999Y-118710390D02*
X154934285Y-118672295D01*
X154934285Y-118672295D02*
X155010476Y-118672295D01*
X155010476Y-118672295D02*
X155124761Y-118710390D01*
X155124761Y-118710390D02*
X155162857Y-118748485D01*
X155886666Y-119472295D02*
X155505714Y-119472295D01*
X155505714Y-119472295D02*
X155505714Y-118672295D01*
X156496190Y-118938961D02*
X156496190Y-119472295D01*
X156305714Y-118634200D02*
X156115237Y-119205628D01*
X156115237Y-119205628D02*
X156610476Y-119205628D01*
X173000295Y-115325332D02*
X172619342Y-115591999D01*
X173000295Y-115782475D02*
X172200295Y-115782475D01*
X172200295Y-115782475D02*
X172200295Y-115477713D01*
X172200295Y-115477713D02*
X172238390Y-115401523D01*
X172238390Y-115401523D02*
X172276485Y-115363428D01*
X172276485Y-115363428D02*
X172352676Y-115325332D01*
X172352676Y-115325332D02*
X172466961Y-115325332D01*
X172466961Y-115325332D02*
X172543152Y-115363428D01*
X172543152Y-115363428D02*
X172581247Y-115401523D01*
X172581247Y-115401523D02*
X172619342Y-115477713D01*
X172619342Y-115477713D02*
X172619342Y-115782475D01*
X173000295Y-114525332D02*
X172619342Y-114791999D01*
X173000295Y-114982475D02*
X172200295Y-114982475D01*
X172200295Y-114982475D02*
X172200295Y-114677713D01*
X172200295Y-114677713D02*
X172238390Y-114601523D01*
X172238390Y-114601523D02*
X172276485Y-114563428D01*
X172276485Y-114563428D02*
X172352676Y-114525332D01*
X172352676Y-114525332D02*
X172466961Y-114525332D01*
X172466961Y-114525332D02*
X172543152Y-114563428D01*
X172543152Y-114563428D02*
X172581247Y-114601523D01*
X172581247Y-114601523D02*
X172619342Y-114677713D01*
X172619342Y-114677713D02*
X172619342Y-114982475D01*
X172200295Y-113839618D02*
X172200295Y-113991999D01*
X172200295Y-113991999D02*
X172238390Y-114068190D01*
X172238390Y-114068190D02*
X172276485Y-114106285D01*
X172276485Y-114106285D02*
X172390771Y-114182475D01*
X172390771Y-114182475D02*
X172543152Y-114220571D01*
X172543152Y-114220571D02*
X172847914Y-114220571D01*
X172847914Y-114220571D02*
X172924104Y-114182475D01*
X172924104Y-114182475D02*
X172962200Y-114144380D01*
X172962200Y-114144380D02*
X173000295Y-114068190D01*
X173000295Y-114068190D02*
X173000295Y-113915809D01*
X173000295Y-113915809D02*
X172962200Y-113839618D01*
X172962200Y-113839618D02*
X172924104Y-113801523D01*
X172924104Y-113801523D02*
X172847914Y-113763428D01*
X172847914Y-113763428D02*
X172657438Y-113763428D01*
X172657438Y-113763428D02*
X172581247Y-113801523D01*
X172581247Y-113801523D02*
X172543152Y-113839618D01*
X172543152Y-113839618D02*
X172505057Y-113915809D01*
X172505057Y-113915809D02*
X172505057Y-114068190D01*
X172505057Y-114068190D02*
X172543152Y-114144380D01*
X172543152Y-114144380D02*
X172581247Y-114182475D01*
X172581247Y-114182475D02*
X172657438Y-114220571D01*
X154966295Y-139887094D02*
X154585342Y-140153761D01*
X154966295Y-140344237D02*
X154166295Y-140344237D01*
X154166295Y-140344237D02*
X154166295Y-140039475D01*
X154166295Y-140039475D02*
X154204390Y-139963285D01*
X154204390Y-139963285D02*
X154242485Y-139925190D01*
X154242485Y-139925190D02*
X154318676Y-139887094D01*
X154318676Y-139887094D02*
X154432961Y-139887094D01*
X154432961Y-139887094D02*
X154509152Y-139925190D01*
X154509152Y-139925190D02*
X154547247Y-139963285D01*
X154547247Y-139963285D02*
X154585342Y-140039475D01*
X154585342Y-140039475D02*
X154585342Y-140344237D01*
X154966295Y-139163285D02*
X154966295Y-139544237D01*
X154966295Y-139544237D02*
X154166295Y-139544237D01*
X154966295Y-138477571D02*
X154966295Y-138934714D01*
X154966295Y-138706142D02*
X154166295Y-138706142D01*
X154166295Y-138706142D02*
X154280580Y-138782333D01*
X154280580Y-138782333D02*
X154356771Y-138858523D01*
X154356771Y-138858523D02*
X154394866Y-138934714D01*
X154166295Y-137791856D02*
X154166295Y-137944237D01*
X154166295Y-137944237D02*
X154204390Y-138020428D01*
X154204390Y-138020428D02*
X154242485Y-138058523D01*
X154242485Y-138058523D02*
X154356771Y-138134713D01*
X154356771Y-138134713D02*
X154509152Y-138172809D01*
X154509152Y-138172809D02*
X154813914Y-138172809D01*
X154813914Y-138172809D02*
X154890104Y-138134713D01*
X154890104Y-138134713D02*
X154928200Y-138096618D01*
X154928200Y-138096618D02*
X154966295Y-138020428D01*
X154966295Y-138020428D02*
X154966295Y-137868047D01*
X154966295Y-137868047D02*
X154928200Y-137791856D01*
X154928200Y-137791856D02*
X154890104Y-137753761D01*
X154890104Y-137753761D02*
X154813914Y-137715666D01*
X154813914Y-137715666D02*
X154623438Y-137715666D01*
X154623438Y-137715666D02*
X154547247Y-137753761D01*
X154547247Y-137753761D02*
X154509152Y-137791856D01*
X154509152Y-137791856D02*
X154471057Y-137868047D01*
X154471057Y-137868047D02*
X154471057Y-138020428D01*
X154471057Y-138020428D02*
X154509152Y-138096618D01*
X154509152Y-138096618D02*
X154547247Y-138134713D01*
X154547247Y-138134713D02*
X154623438Y-138172809D01*
X166904295Y-117357332D02*
X166523342Y-117623999D01*
X166904295Y-117814475D02*
X166104295Y-117814475D01*
X166104295Y-117814475D02*
X166104295Y-117509713D01*
X166104295Y-117509713D02*
X166142390Y-117433523D01*
X166142390Y-117433523D02*
X166180485Y-117395428D01*
X166180485Y-117395428D02*
X166256676Y-117357332D01*
X166256676Y-117357332D02*
X166370961Y-117357332D01*
X166370961Y-117357332D02*
X166447152Y-117395428D01*
X166447152Y-117395428D02*
X166485247Y-117433523D01*
X166485247Y-117433523D02*
X166523342Y-117509713D01*
X166523342Y-117509713D02*
X166523342Y-117814475D01*
X166904295Y-116557332D02*
X166523342Y-116823999D01*
X166904295Y-117014475D02*
X166104295Y-117014475D01*
X166104295Y-117014475D02*
X166104295Y-116709713D01*
X166104295Y-116709713D02*
X166142390Y-116633523D01*
X166142390Y-116633523D02*
X166180485Y-116595428D01*
X166180485Y-116595428D02*
X166256676Y-116557332D01*
X166256676Y-116557332D02*
X166370961Y-116557332D01*
X166370961Y-116557332D02*
X166447152Y-116595428D01*
X166447152Y-116595428D02*
X166485247Y-116633523D01*
X166485247Y-116633523D02*
X166523342Y-116709713D01*
X166523342Y-116709713D02*
X166523342Y-117014475D01*
X166104295Y-116290666D02*
X166104295Y-115795428D01*
X166104295Y-115795428D02*
X166409057Y-116062094D01*
X166409057Y-116062094D02*
X166409057Y-115947809D01*
X166409057Y-115947809D02*
X166447152Y-115871618D01*
X166447152Y-115871618D02*
X166485247Y-115833523D01*
X166485247Y-115833523D02*
X166561438Y-115795428D01*
X166561438Y-115795428D02*
X166751914Y-115795428D01*
X166751914Y-115795428D02*
X166828104Y-115833523D01*
X166828104Y-115833523D02*
X166866200Y-115871618D01*
X166866200Y-115871618D02*
X166904295Y-115947809D01*
X166904295Y-115947809D02*
X166904295Y-116176380D01*
X166904295Y-116176380D02*
X166866200Y-116252571D01*
X166866200Y-116252571D02*
X166828104Y-116290666D01*
X144361523Y-101400295D02*
X144361523Y-101971723D01*
X144361523Y-101971723D02*
X144323428Y-102086009D01*
X144323428Y-102086009D02*
X144247237Y-102162200D01*
X144247237Y-102162200D02*
X144132952Y-102200295D01*
X144132952Y-102200295D02*
X144056761Y-102200295D01*
X145123428Y-102200295D02*
X144742476Y-102200295D01*
X144742476Y-102200295D02*
X144742476Y-101400295D01*
X145351999Y-101476485D02*
X145390095Y-101438390D01*
X145390095Y-101438390D02*
X145466285Y-101400295D01*
X145466285Y-101400295D02*
X145656761Y-101400295D01*
X145656761Y-101400295D02*
X145732952Y-101438390D01*
X145732952Y-101438390D02*
X145771047Y-101476485D01*
X145771047Y-101476485D02*
X145809142Y-101552676D01*
X145809142Y-101552676D02*
X145809142Y-101628866D01*
X145809142Y-101628866D02*
X145771047Y-101743152D01*
X145771047Y-101743152D02*
X145313904Y-102200295D01*
X145313904Y-102200295D02*
X145809142Y-102200295D01*
X164237295Y-108010142D02*
X163856342Y-108276809D01*
X164237295Y-108467285D02*
X163437295Y-108467285D01*
X163437295Y-108467285D02*
X163437295Y-108162523D01*
X163437295Y-108162523D02*
X163475390Y-108086333D01*
X163475390Y-108086333D02*
X163513485Y-108048238D01*
X163513485Y-108048238D02*
X163589676Y-108010142D01*
X163589676Y-108010142D02*
X163703961Y-108010142D01*
X163703961Y-108010142D02*
X163780152Y-108048238D01*
X163780152Y-108048238D02*
X163818247Y-108086333D01*
X163818247Y-108086333D02*
X163856342Y-108162523D01*
X163856342Y-108162523D02*
X163856342Y-108467285D01*
X164237295Y-107286333D02*
X164237295Y-107667285D01*
X164237295Y-107667285D02*
X163437295Y-107667285D01*
X163513485Y-107057762D02*
X163475390Y-107019666D01*
X163475390Y-107019666D02*
X163437295Y-106943476D01*
X163437295Y-106943476D02*
X163437295Y-106753000D01*
X163437295Y-106753000D02*
X163475390Y-106676809D01*
X163475390Y-106676809D02*
X163513485Y-106638714D01*
X163513485Y-106638714D02*
X163589676Y-106600619D01*
X163589676Y-106600619D02*
X163665866Y-106600619D01*
X163665866Y-106600619D02*
X163780152Y-106638714D01*
X163780152Y-106638714D02*
X164237295Y-107095857D01*
X164237295Y-107095857D02*
X164237295Y-106600619D01*
X151461104Y-133918142D02*
X151499200Y-133956238D01*
X151499200Y-133956238D02*
X151537295Y-134070523D01*
X151537295Y-134070523D02*
X151537295Y-134146714D01*
X151537295Y-134146714D02*
X151499200Y-134261000D01*
X151499200Y-134261000D02*
X151423009Y-134337190D01*
X151423009Y-134337190D02*
X151346819Y-134375285D01*
X151346819Y-134375285D02*
X151194438Y-134413381D01*
X151194438Y-134413381D02*
X151080152Y-134413381D01*
X151080152Y-134413381D02*
X150927771Y-134375285D01*
X150927771Y-134375285D02*
X150851580Y-134337190D01*
X150851580Y-134337190D02*
X150775390Y-134261000D01*
X150775390Y-134261000D02*
X150737295Y-134146714D01*
X150737295Y-134146714D02*
X150737295Y-134070523D01*
X150737295Y-134070523D02*
X150775390Y-133956238D01*
X150775390Y-133956238D02*
X150813485Y-133918142D01*
X151537295Y-133194333D02*
X151537295Y-133575285D01*
X151537295Y-133575285D02*
X150737295Y-133575285D01*
X150737295Y-132546714D02*
X150737295Y-132927666D01*
X150737295Y-132927666D02*
X151118247Y-132965762D01*
X151118247Y-132965762D02*
X151080152Y-132927666D01*
X151080152Y-132927666D02*
X151042057Y-132851476D01*
X151042057Y-132851476D02*
X151042057Y-132661000D01*
X151042057Y-132661000D02*
X151080152Y-132584809D01*
X151080152Y-132584809D02*
X151118247Y-132546714D01*
X151118247Y-132546714D02*
X151194438Y-132508619D01*
X151194438Y-132508619D02*
X151384914Y-132508619D01*
X151384914Y-132508619D02*
X151461104Y-132546714D01*
X151461104Y-132546714D02*
X151499200Y-132584809D01*
X151499200Y-132584809D02*
X151537295Y-132661000D01*
X151537295Y-132661000D02*
X151537295Y-132851476D01*
X151537295Y-132851476D02*
X151499200Y-132927666D01*
X151499200Y-132927666D02*
X151461104Y-132965762D01*
X167285295Y-140325285D02*
X166904342Y-140591952D01*
X167285295Y-140782428D02*
X166485295Y-140782428D01*
X166485295Y-140782428D02*
X166485295Y-140477666D01*
X166485295Y-140477666D02*
X166523390Y-140401476D01*
X166523390Y-140401476D02*
X166561485Y-140363381D01*
X166561485Y-140363381D02*
X166637676Y-140325285D01*
X166637676Y-140325285D02*
X166751961Y-140325285D01*
X166751961Y-140325285D02*
X166828152Y-140363381D01*
X166828152Y-140363381D02*
X166866247Y-140401476D01*
X166866247Y-140401476D02*
X166904342Y-140477666D01*
X166904342Y-140477666D02*
X166904342Y-140782428D01*
X167285295Y-139563381D02*
X167285295Y-140020524D01*
X167285295Y-139791952D02*
X166485295Y-139791952D01*
X166485295Y-139791952D02*
X166599580Y-139868143D01*
X166599580Y-139868143D02*
X166675771Y-139944333D01*
X166675771Y-139944333D02*
X166713866Y-140020524D01*
X167285295Y-139182428D02*
X167285295Y-139030047D01*
X167285295Y-139030047D02*
X167247200Y-138953857D01*
X167247200Y-138953857D02*
X167209104Y-138915761D01*
X167209104Y-138915761D02*
X167094819Y-138839571D01*
X167094819Y-138839571D02*
X166942438Y-138801476D01*
X166942438Y-138801476D02*
X166637676Y-138801476D01*
X166637676Y-138801476D02*
X166561485Y-138839571D01*
X166561485Y-138839571D02*
X166523390Y-138877666D01*
X166523390Y-138877666D02*
X166485295Y-138953857D01*
X166485295Y-138953857D02*
X166485295Y-139106238D01*
X166485295Y-139106238D02*
X166523390Y-139182428D01*
X166523390Y-139182428D02*
X166561485Y-139220523D01*
X166561485Y-139220523D02*
X166637676Y-139258619D01*
X166637676Y-139258619D02*
X166828152Y-139258619D01*
X166828152Y-139258619D02*
X166904342Y-139220523D01*
X166904342Y-139220523D02*
X166942438Y-139182428D01*
X166942438Y-139182428D02*
X166980533Y-139106238D01*
X166980533Y-139106238D02*
X166980533Y-138953857D01*
X166980533Y-138953857D02*
X166942438Y-138877666D01*
X166942438Y-138877666D02*
X166904342Y-138839571D01*
X166904342Y-138839571D02*
X166828152Y-138801476D01*
X154966295Y-134553094D02*
X154585342Y-134819761D01*
X154966295Y-135010237D02*
X154166295Y-135010237D01*
X154166295Y-135010237D02*
X154166295Y-134705475D01*
X154166295Y-134705475D02*
X154204390Y-134629285D01*
X154204390Y-134629285D02*
X154242485Y-134591190D01*
X154242485Y-134591190D02*
X154318676Y-134553094D01*
X154318676Y-134553094D02*
X154432961Y-134553094D01*
X154432961Y-134553094D02*
X154509152Y-134591190D01*
X154509152Y-134591190D02*
X154547247Y-134629285D01*
X154547247Y-134629285D02*
X154585342Y-134705475D01*
X154585342Y-134705475D02*
X154585342Y-135010237D01*
X154966295Y-133829285D02*
X154966295Y-134210237D01*
X154966295Y-134210237D02*
X154166295Y-134210237D01*
X154966295Y-133143571D02*
X154966295Y-133600714D01*
X154966295Y-133372142D02*
X154166295Y-133372142D01*
X154166295Y-133372142D02*
X154280580Y-133448333D01*
X154280580Y-133448333D02*
X154356771Y-133524523D01*
X154356771Y-133524523D02*
X154394866Y-133600714D01*
X154966295Y-132381666D02*
X154966295Y-132838809D01*
X154966295Y-132610237D02*
X154166295Y-132610237D01*
X154166295Y-132610237D02*
X154280580Y-132686428D01*
X154280580Y-132686428D02*
X154356771Y-132762618D01*
X154356771Y-132762618D02*
X154394866Y-132838809D01*
X105398295Y-141182523D02*
X106045914Y-141182523D01*
X106045914Y-141182523D02*
X106122104Y-141144428D01*
X106122104Y-141144428D02*
X106160200Y-141106333D01*
X106160200Y-141106333D02*
X106198295Y-141030142D01*
X106198295Y-141030142D02*
X106198295Y-140877761D01*
X106198295Y-140877761D02*
X106160200Y-140801571D01*
X106160200Y-140801571D02*
X106122104Y-140763476D01*
X106122104Y-140763476D02*
X106045914Y-140725380D01*
X106045914Y-140725380D02*
X105398295Y-140725380D01*
X105398295Y-140420619D02*
X105398295Y-139925381D01*
X105398295Y-139925381D02*
X105703057Y-140192047D01*
X105703057Y-140192047D02*
X105703057Y-140077762D01*
X105703057Y-140077762D02*
X105741152Y-140001571D01*
X105741152Y-140001571D02*
X105779247Y-139963476D01*
X105779247Y-139963476D02*
X105855438Y-139925381D01*
X105855438Y-139925381D02*
X106045914Y-139925381D01*
X106045914Y-139925381D02*
X106122104Y-139963476D01*
X106122104Y-139963476D02*
X106160200Y-140001571D01*
X106160200Y-140001571D02*
X106198295Y-140077762D01*
X106198295Y-140077762D02*
X106198295Y-140306333D01*
X106198295Y-140306333D02*
X106160200Y-140382524D01*
X106160200Y-140382524D02*
X106122104Y-140420619D01*
X111290667Y-146066104D02*
X111252571Y-146104200D01*
X111252571Y-146104200D02*
X111138286Y-146142295D01*
X111138286Y-146142295D02*
X111062095Y-146142295D01*
X111062095Y-146142295D02*
X110947809Y-146104200D01*
X110947809Y-146104200D02*
X110871619Y-146028009D01*
X110871619Y-146028009D02*
X110833524Y-145951819D01*
X110833524Y-145951819D02*
X110795428Y-145799438D01*
X110795428Y-145799438D02*
X110795428Y-145685152D01*
X110795428Y-145685152D02*
X110833524Y-145532771D01*
X110833524Y-145532771D02*
X110871619Y-145456580D01*
X110871619Y-145456580D02*
X110947809Y-145380390D01*
X110947809Y-145380390D02*
X111062095Y-145342295D01*
X111062095Y-145342295D02*
X111138286Y-145342295D01*
X111138286Y-145342295D02*
X111252571Y-145380390D01*
X111252571Y-145380390D02*
X111290667Y-145418485D01*
X111557333Y-145342295D02*
X112090667Y-145342295D01*
X112090667Y-145342295D02*
X111747809Y-146142295D01*
X157252295Y-107502142D02*
X156871342Y-107768809D01*
X157252295Y-107959285D02*
X156452295Y-107959285D01*
X156452295Y-107959285D02*
X156452295Y-107654523D01*
X156452295Y-107654523D02*
X156490390Y-107578333D01*
X156490390Y-107578333D02*
X156528485Y-107540238D01*
X156528485Y-107540238D02*
X156604676Y-107502142D01*
X156604676Y-107502142D02*
X156718961Y-107502142D01*
X156718961Y-107502142D02*
X156795152Y-107540238D01*
X156795152Y-107540238D02*
X156833247Y-107578333D01*
X156833247Y-107578333D02*
X156871342Y-107654523D01*
X156871342Y-107654523D02*
X156871342Y-107959285D01*
X157252295Y-106778333D02*
X157252295Y-107159285D01*
X157252295Y-107159285D02*
X156452295Y-107159285D01*
X156718961Y-106168809D02*
X157252295Y-106168809D01*
X156414200Y-106359285D02*
X156985628Y-106549762D01*
X156985628Y-106549762D02*
X156985628Y-106054523D01*
X153696295Y-117916142D02*
X153315342Y-118182809D01*
X153696295Y-118373285D02*
X152896295Y-118373285D01*
X152896295Y-118373285D02*
X152896295Y-118068523D01*
X152896295Y-118068523D02*
X152934390Y-117992333D01*
X152934390Y-117992333D02*
X152972485Y-117954238D01*
X152972485Y-117954238D02*
X153048676Y-117916142D01*
X153048676Y-117916142D02*
X153162961Y-117916142D01*
X153162961Y-117916142D02*
X153239152Y-117954238D01*
X153239152Y-117954238D02*
X153277247Y-117992333D01*
X153277247Y-117992333D02*
X153315342Y-118068523D01*
X153315342Y-118068523D02*
X153315342Y-118373285D01*
X153696295Y-117192333D02*
X153696295Y-117573285D01*
X153696295Y-117573285D02*
X152896295Y-117573285D01*
X152896295Y-116582809D02*
X152896295Y-116735190D01*
X152896295Y-116735190D02*
X152934390Y-116811381D01*
X152934390Y-116811381D02*
X152972485Y-116849476D01*
X152972485Y-116849476D02*
X153086771Y-116925666D01*
X153086771Y-116925666D02*
X153239152Y-116963762D01*
X153239152Y-116963762D02*
X153543914Y-116963762D01*
X153543914Y-116963762D02*
X153620104Y-116925666D01*
X153620104Y-116925666D02*
X153658200Y-116887571D01*
X153658200Y-116887571D02*
X153696295Y-116811381D01*
X153696295Y-116811381D02*
X153696295Y-116659000D01*
X153696295Y-116659000D02*
X153658200Y-116582809D01*
X153658200Y-116582809D02*
X153620104Y-116544714D01*
X153620104Y-116544714D02*
X153543914Y-116506619D01*
X153543914Y-116506619D02*
X153353438Y-116506619D01*
X153353438Y-116506619D02*
X153277247Y-116544714D01*
X153277247Y-116544714D02*
X153239152Y-116582809D01*
X153239152Y-116582809D02*
X153201057Y-116659000D01*
X153201057Y-116659000D02*
X153201057Y-116811381D01*
X153201057Y-116811381D02*
X153239152Y-116887571D01*
X153239152Y-116887571D02*
X153277247Y-116925666D01*
X153277247Y-116925666D02*
X153353438Y-116963762D01*
X175159295Y-140090285D02*
X174778342Y-140356952D01*
X175159295Y-140547428D02*
X174359295Y-140547428D01*
X174359295Y-140547428D02*
X174359295Y-140242666D01*
X174359295Y-140242666D02*
X174397390Y-140166476D01*
X174397390Y-140166476D02*
X174435485Y-140128381D01*
X174435485Y-140128381D02*
X174511676Y-140090285D01*
X174511676Y-140090285D02*
X174625961Y-140090285D01*
X174625961Y-140090285D02*
X174702152Y-140128381D01*
X174702152Y-140128381D02*
X174740247Y-140166476D01*
X174740247Y-140166476D02*
X174778342Y-140242666D01*
X174778342Y-140242666D02*
X174778342Y-140547428D01*
X175159295Y-139290285D02*
X174778342Y-139556952D01*
X175159295Y-139747428D02*
X174359295Y-139747428D01*
X174359295Y-139747428D02*
X174359295Y-139442666D01*
X174359295Y-139442666D02*
X174397390Y-139366476D01*
X174397390Y-139366476D02*
X174435485Y-139328381D01*
X174435485Y-139328381D02*
X174511676Y-139290285D01*
X174511676Y-139290285D02*
X174625961Y-139290285D01*
X174625961Y-139290285D02*
X174702152Y-139328381D01*
X174702152Y-139328381D02*
X174740247Y-139366476D01*
X174740247Y-139366476D02*
X174778342Y-139442666D01*
X174778342Y-139442666D02*
X174778342Y-139747428D01*
X175159295Y-138528381D02*
X175159295Y-138985524D01*
X175159295Y-138756952D02*
X174359295Y-138756952D01*
X174359295Y-138756952D02*
X174473580Y-138833143D01*
X174473580Y-138833143D02*
X174549771Y-138909333D01*
X174549771Y-138909333D02*
X174587866Y-138985524D01*
X174435485Y-138223619D02*
X174397390Y-138185523D01*
X174397390Y-138185523D02*
X174359295Y-138109333D01*
X174359295Y-138109333D02*
X174359295Y-137918857D01*
X174359295Y-137918857D02*
X174397390Y-137842666D01*
X174397390Y-137842666D02*
X174435485Y-137804571D01*
X174435485Y-137804571D02*
X174511676Y-137766476D01*
X174511676Y-137766476D02*
X174587866Y-137766476D01*
X174587866Y-137766476D02*
X174702152Y-137804571D01*
X174702152Y-137804571D02*
X175159295Y-138261714D01*
X175159295Y-138261714D02*
X175159295Y-137766476D01*
X172873295Y-131708285D02*
X172492342Y-131974952D01*
X172873295Y-132165428D02*
X172073295Y-132165428D01*
X172073295Y-132165428D02*
X172073295Y-131860666D01*
X172073295Y-131860666D02*
X172111390Y-131784476D01*
X172111390Y-131784476D02*
X172149485Y-131746381D01*
X172149485Y-131746381D02*
X172225676Y-131708285D01*
X172225676Y-131708285D02*
X172339961Y-131708285D01*
X172339961Y-131708285D02*
X172416152Y-131746381D01*
X172416152Y-131746381D02*
X172454247Y-131784476D01*
X172454247Y-131784476D02*
X172492342Y-131860666D01*
X172492342Y-131860666D02*
X172492342Y-132165428D01*
X172873295Y-130908285D02*
X172492342Y-131174952D01*
X172873295Y-131365428D02*
X172073295Y-131365428D01*
X172073295Y-131365428D02*
X172073295Y-131060666D01*
X172073295Y-131060666D02*
X172111390Y-130984476D01*
X172111390Y-130984476D02*
X172149485Y-130946381D01*
X172149485Y-130946381D02*
X172225676Y-130908285D01*
X172225676Y-130908285D02*
X172339961Y-130908285D01*
X172339961Y-130908285D02*
X172416152Y-130946381D01*
X172416152Y-130946381D02*
X172454247Y-130984476D01*
X172454247Y-130984476D02*
X172492342Y-131060666D01*
X172492342Y-131060666D02*
X172492342Y-131365428D01*
X172873295Y-130146381D02*
X172873295Y-130603524D01*
X172873295Y-130374952D02*
X172073295Y-130374952D01*
X172073295Y-130374952D02*
X172187580Y-130451143D01*
X172187580Y-130451143D02*
X172263771Y-130527333D01*
X172263771Y-130527333D02*
X172301866Y-130603524D01*
X172873295Y-129384476D02*
X172873295Y-129841619D01*
X172873295Y-129613047D02*
X172073295Y-129613047D01*
X172073295Y-129613047D02*
X172187580Y-129689238D01*
X172187580Y-129689238D02*
X172263771Y-129765428D01*
X172263771Y-129765428D02*
X172301866Y-129841619D01*
X110782667Y-106061104D02*
X110744571Y-106099200D01*
X110744571Y-106099200D02*
X110630286Y-106137295D01*
X110630286Y-106137295D02*
X110554095Y-106137295D01*
X110554095Y-106137295D02*
X110439809Y-106099200D01*
X110439809Y-106099200D02*
X110363619Y-106023009D01*
X110363619Y-106023009D02*
X110325524Y-105946819D01*
X110325524Y-105946819D02*
X110287428Y-105794438D01*
X110287428Y-105794438D02*
X110287428Y-105680152D01*
X110287428Y-105680152D02*
X110325524Y-105527771D01*
X110325524Y-105527771D02*
X110363619Y-105451580D01*
X110363619Y-105451580D02*
X110439809Y-105375390D01*
X110439809Y-105375390D02*
X110554095Y-105337295D01*
X110554095Y-105337295D02*
X110630286Y-105337295D01*
X110630286Y-105337295D02*
X110744571Y-105375390D01*
X110744571Y-105375390D02*
X110782667Y-105413485D01*
X111544571Y-106137295D02*
X111087428Y-106137295D01*
X111316000Y-106137295D02*
X111316000Y-105337295D01*
X111316000Y-105337295D02*
X111239809Y-105451580D01*
X111239809Y-105451580D02*
X111163619Y-105527771D01*
X111163619Y-105527771D02*
X111087428Y-105565866D01*
X161698295Y-140325285D02*
X161317342Y-140591952D01*
X161698295Y-140782428D02*
X160898295Y-140782428D01*
X160898295Y-140782428D02*
X160898295Y-140477666D01*
X160898295Y-140477666D02*
X160936390Y-140401476D01*
X160936390Y-140401476D02*
X160974485Y-140363381D01*
X160974485Y-140363381D02*
X161050676Y-140325285D01*
X161050676Y-140325285D02*
X161164961Y-140325285D01*
X161164961Y-140325285D02*
X161241152Y-140363381D01*
X161241152Y-140363381D02*
X161279247Y-140401476D01*
X161279247Y-140401476D02*
X161317342Y-140477666D01*
X161317342Y-140477666D02*
X161317342Y-140782428D01*
X160974485Y-140020524D02*
X160936390Y-139982428D01*
X160936390Y-139982428D02*
X160898295Y-139906238D01*
X160898295Y-139906238D02*
X160898295Y-139715762D01*
X160898295Y-139715762D02*
X160936390Y-139639571D01*
X160936390Y-139639571D02*
X160974485Y-139601476D01*
X160974485Y-139601476D02*
X161050676Y-139563381D01*
X161050676Y-139563381D02*
X161126866Y-139563381D01*
X161126866Y-139563381D02*
X161241152Y-139601476D01*
X161241152Y-139601476D02*
X161698295Y-140058619D01*
X161698295Y-140058619D02*
X161698295Y-139563381D01*
X160898295Y-139068142D02*
X160898295Y-138991952D01*
X160898295Y-138991952D02*
X160936390Y-138915761D01*
X160936390Y-138915761D02*
X160974485Y-138877666D01*
X160974485Y-138877666D02*
X161050676Y-138839571D01*
X161050676Y-138839571D02*
X161203057Y-138801476D01*
X161203057Y-138801476D02*
X161393533Y-138801476D01*
X161393533Y-138801476D02*
X161545914Y-138839571D01*
X161545914Y-138839571D02*
X161622104Y-138877666D01*
X161622104Y-138877666D02*
X161660200Y-138915761D01*
X161660200Y-138915761D02*
X161698295Y-138991952D01*
X161698295Y-138991952D02*
X161698295Y-139068142D01*
X161698295Y-139068142D02*
X161660200Y-139144333D01*
X161660200Y-139144333D02*
X161622104Y-139182428D01*
X161622104Y-139182428D02*
X161545914Y-139220523D01*
X161545914Y-139220523D02*
X161393533Y-139258619D01*
X161393533Y-139258619D02*
X161203057Y-139258619D01*
X161203057Y-139258619D02*
X161050676Y-139220523D01*
X161050676Y-139220523D02*
X160974485Y-139182428D01*
X160974485Y-139182428D02*
X160936390Y-139144333D01*
X160936390Y-139144333D02*
X160898295Y-139068142D01*
X157252295Y-139887094D02*
X156871342Y-140153761D01*
X157252295Y-140344237D02*
X156452295Y-140344237D01*
X156452295Y-140344237D02*
X156452295Y-140039475D01*
X156452295Y-140039475D02*
X156490390Y-139963285D01*
X156490390Y-139963285D02*
X156528485Y-139925190D01*
X156528485Y-139925190D02*
X156604676Y-139887094D01*
X156604676Y-139887094D02*
X156718961Y-139887094D01*
X156718961Y-139887094D02*
X156795152Y-139925190D01*
X156795152Y-139925190D02*
X156833247Y-139963285D01*
X156833247Y-139963285D02*
X156871342Y-140039475D01*
X156871342Y-140039475D02*
X156871342Y-140344237D01*
X157252295Y-139163285D02*
X157252295Y-139544237D01*
X157252295Y-139544237D02*
X156452295Y-139544237D01*
X157252295Y-138477571D02*
X157252295Y-138934714D01*
X157252295Y-138706142D02*
X156452295Y-138706142D01*
X156452295Y-138706142D02*
X156566580Y-138782333D01*
X156566580Y-138782333D02*
X156642771Y-138858523D01*
X156642771Y-138858523D02*
X156680866Y-138934714D01*
X156452295Y-137753761D02*
X156452295Y-138134713D01*
X156452295Y-138134713D02*
X156833247Y-138172809D01*
X156833247Y-138172809D02*
X156795152Y-138134713D01*
X156795152Y-138134713D02*
X156757057Y-138058523D01*
X156757057Y-138058523D02*
X156757057Y-137868047D01*
X156757057Y-137868047D02*
X156795152Y-137791856D01*
X156795152Y-137791856D02*
X156833247Y-137753761D01*
X156833247Y-137753761D02*
X156909438Y-137715666D01*
X156909438Y-137715666D02*
X157099914Y-137715666D01*
X157099914Y-137715666D02*
X157176104Y-137753761D01*
X157176104Y-137753761D02*
X157214200Y-137791856D01*
X157214200Y-137791856D02*
X157252295Y-137868047D01*
X157252295Y-137868047D02*
X157252295Y-138058523D01*
X157252295Y-138058523D02*
X157214200Y-138134713D01*
X157214200Y-138134713D02*
X157176104Y-138172809D01*
X170587295Y-150631285D02*
X170206342Y-150897952D01*
X170587295Y-151088428D02*
X169787295Y-151088428D01*
X169787295Y-151088428D02*
X169787295Y-150783666D01*
X169787295Y-150783666D02*
X169825390Y-150707476D01*
X169825390Y-150707476D02*
X169863485Y-150669381D01*
X169863485Y-150669381D02*
X169939676Y-150631285D01*
X169939676Y-150631285D02*
X170053961Y-150631285D01*
X170053961Y-150631285D02*
X170130152Y-150669381D01*
X170130152Y-150669381D02*
X170168247Y-150707476D01*
X170168247Y-150707476D02*
X170206342Y-150783666D01*
X170206342Y-150783666D02*
X170206342Y-151088428D01*
X170587295Y-149831285D02*
X170206342Y-150097952D01*
X170587295Y-150288428D02*
X169787295Y-150288428D01*
X169787295Y-150288428D02*
X169787295Y-149983666D01*
X169787295Y-149983666D02*
X169825390Y-149907476D01*
X169825390Y-149907476D02*
X169863485Y-149869381D01*
X169863485Y-149869381D02*
X169939676Y-149831285D01*
X169939676Y-149831285D02*
X170053961Y-149831285D01*
X170053961Y-149831285D02*
X170130152Y-149869381D01*
X170130152Y-149869381D02*
X170168247Y-149907476D01*
X170168247Y-149907476D02*
X170206342Y-149983666D01*
X170206342Y-149983666D02*
X170206342Y-150288428D01*
X170587295Y-149069381D02*
X170587295Y-149526524D01*
X170587295Y-149297952D02*
X169787295Y-149297952D01*
X169787295Y-149297952D02*
X169901580Y-149374143D01*
X169901580Y-149374143D02*
X169977771Y-149450333D01*
X169977771Y-149450333D02*
X170015866Y-149526524D01*
X170053961Y-148383666D02*
X170587295Y-148383666D01*
X169749200Y-148574142D02*
X170320628Y-148764619D01*
X170320628Y-148764619D02*
X170320628Y-148269380D01*
X168936295Y-126120332D02*
X168555342Y-126386999D01*
X168936295Y-126577475D02*
X168136295Y-126577475D01*
X168136295Y-126577475D02*
X168136295Y-126272713D01*
X168136295Y-126272713D02*
X168174390Y-126196523D01*
X168174390Y-126196523D02*
X168212485Y-126158428D01*
X168212485Y-126158428D02*
X168288676Y-126120332D01*
X168288676Y-126120332D02*
X168402961Y-126120332D01*
X168402961Y-126120332D02*
X168479152Y-126158428D01*
X168479152Y-126158428D02*
X168517247Y-126196523D01*
X168517247Y-126196523D02*
X168555342Y-126272713D01*
X168555342Y-126272713D02*
X168555342Y-126577475D01*
X168936295Y-125320332D02*
X168555342Y-125586999D01*
X168936295Y-125777475D02*
X168136295Y-125777475D01*
X168136295Y-125777475D02*
X168136295Y-125472713D01*
X168136295Y-125472713D02*
X168174390Y-125396523D01*
X168174390Y-125396523D02*
X168212485Y-125358428D01*
X168212485Y-125358428D02*
X168288676Y-125320332D01*
X168288676Y-125320332D02*
X168402961Y-125320332D01*
X168402961Y-125320332D02*
X168479152Y-125358428D01*
X168479152Y-125358428D02*
X168517247Y-125396523D01*
X168517247Y-125396523D02*
X168555342Y-125472713D01*
X168555342Y-125472713D02*
X168555342Y-125777475D01*
X168936295Y-124939380D02*
X168936295Y-124786999D01*
X168936295Y-124786999D02*
X168898200Y-124710809D01*
X168898200Y-124710809D02*
X168860104Y-124672713D01*
X168860104Y-124672713D02*
X168745819Y-124596523D01*
X168745819Y-124596523D02*
X168593438Y-124558428D01*
X168593438Y-124558428D02*
X168288676Y-124558428D01*
X168288676Y-124558428D02*
X168212485Y-124596523D01*
X168212485Y-124596523D02*
X168174390Y-124634618D01*
X168174390Y-124634618D02*
X168136295Y-124710809D01*
X168136295Y-124710809D02*
X168136295Y-124863190D01*
X168136295Y-124863190D02*
X168174390Y-124939380D01*
X168174390Y-124939380D02*
X168212485Y-124977475D01*
X168212485Y-124977475D02*
X168288676Y-125015571D01*
X168288676Y-125015571D02*
X168479152Y-125015571D01*
X168479152Y-125015571D02*
X168555342Y-124977475D01*
X168555342Y-124977475D02*
X168593438Y-124939380D01*
X168593438Y-124939380D02*
X168631533Y-124863190D01*
X168631533Y-124863190D02*
X168631533Y-124710809D01*
X168631533Y-124710809D02*
X168593438Y-124634618D01*
X168593438Y-124634618D02*
X168555342Y-124596523D01*
X168555342Y-124596523D02*
X168479152Y-124558428D01*
X162122476Y-111306295D02*
X162122476Y-111953914D01*
X162122476Y-111953914D02*
X162160571Y-112030104D01*
X162160571Y-112030104D02*
X162198666Y-112068200D01*
X162198666Y-112068200D02*
X162274857Y-112106295D01*
X162274857Y-112106295D02*
X162427238Y-112106295D01*
X162427238Y-112106295D02*
X162503428Y-112068200D01*
X162503428Y-112068200D02*
X162541523Y-112030104D01*
X162541523Y-112030104D02*
X162579619Y-111953914D01*
X162579619Y-111953914D02*
X162579619Y-111306295D01*
X163303428Y-111572961D02*
X163303428Y-112106295D01*
X163112952Y-111268200D02*
X162922475Y-111839628D01*
X162922475Y-111839628D02*
X163417714Y-111839628D01*
X175159295Y-143900285D02*
X174778342Y-144166952D01*
X175159295Y-144357428D02*
X174359295Y-144357428D01*
X174359295Y-144357428D02*
X174359295Y-144052666D01*
X174359295Y-144052666D02*
X174397390Y-143976476D01*
X174397390Y-143976476D02*
X174435485Y-143938381D01*
X174435485Y-143938381D02*
X174511676Y-143900285D01*
X174511676Y-143900285D02*
X174625961Y-143900285D01*
X174625961Y-143900285D02*
X174702152Y-143938381D01*
X174702152Y-143938381D02*
X174740247Y-143976476D01*
X174740247Y-143976476D02*
X174778342Y-144052666D01*
X174778342Y-144052666D02*
X174778342Y-144357428D01*
X175159295Y-143100285D02*
X174778342Y-143366952D01*
X175159295Y-143557428D02*
X174359295Y-143557428D01*
X174359295Y-143557428D02*
X174359295Y-143252666D01*
X174359295Y-143252666D02*
X174397390Y-143176476D01*
X174397390Y-143176476D02*
X174435485Y-143138381D01*
X174435485Y-143138381D02*
X174511676Y-143100285D01*
X174511676Y-143100285D02*
X174625961Y-143100285D01*
X174625961Y-143100285D02*
X174702152Y-143138381D01*
X174702152Y-143138381D02*
X174740247Y-143176476D01*
X174740247Y-143176476D02*
X174778342Y-143252666D01*
X174778342Y-143252666D02*
X174778342Y-143557428D01*
X175159295Y-142338381D02*
X175159295Y-142795524D01*
X175159295Y-142566952D02*
X174359295Y-142566952D01*
X174359295Y-142566952D02*
X174473580Y-142643143D01*
X174473580Y-142643143D02*
X174549771Y-142719333D01*
X174549771Y-142719333D02*
X174587866Y-142795524D01*
X174359295Y-142071714D02*
X174359295Y-141576476D01*
X174359295Y-141576476D02*
X174664057Y-141843142D01*
X174664057Y-141843142D02*
X174664057Y-141728857D01*
X174664057Y-141728857D02*
X174702152Y-141652666D01*
X174702152Y-141652666D02*
X174740247Y-141614571D01*
X174740247Y-141614571D02*
X174816438Y-141576476D01*
X174816438Y-141576476D02*
X175006914Y-141576476D01*
X175006914Y-141576476D02*
X175083104Y-141614571D01*
X175083104Y-141614571D02*
X175121200Y-141652666D01*
X175121200Y-141652666D02*
X175159295Y-141728857D01*
X175159295Y-141728857D02*
X175159295Y-141957428D01*
X175159295Y-141957428D02*
X175121200Y-142033619D01*
X175121200Y-142033619D02*
X175083104Y-142071714D01*
X162060476Y-144326295D02*
X162060476Y-144973914D01*
X162060476Y-144973914D02*
X162098571Y-145050104D01*
X162098571Y-145050104D02*
X162136666Y-145088200D01*
X162136666Y-145088200D02*
X162212857Y-145126295D01*
X162212857Y-145126295D02*
X162365238Y-145126295D01*
X162365238Y-145126295D02*
X162441428Y-145088200D01*
X162441428Y-145088200D02*
X162479523Y-145050104D01*
X162479523Y-145050104D02*
X162517619Y-144973914D01*
X162517619Y-144973914D02*
X162517619Y-144326295D01*
X163241428Y-144326295D02*
X163089047Y-144326295D01*
X163089047Y-144326295D02*
X163012856Y-144364390D01*
X163012856Y-144364390D02*
X162974761Y-144402485D01*
X162974761Y-144402485D02*
X162898571Y-144516771D01*
X162898571Y-144516771D02*
X162860475Y-144669152D01*
X162860475Y-144669152D02*
X162860475Y-144973914D01*
X162860475Y-144973914D02*
X162898571Y-145050104D01*
X162898571Y-145050104D02*
X162936666Y-145088200D01*
X162936666Y-145088200D02*
X163012856Y-145126295D01*
X163012856Y-145126295D02*
X163165237Y-145126295D01*
X163165237Y-145126295D02*
X163241428Y-145088200D01*
X163241428Y-145088200D02*
X163279523Y-145050104D01*
X163279523Y-145050104D02*
X163317618Y-144973914D01*
X163317618Y-144973914D02*
X163317618Y-144783438D01*
X163317618Y-144783438D02*
X163279523Y-144707247D01*
X163279523Y-144707247D02*
X163241428Y-144669152D01*
X163241428Y-144669152D02*
X163165237Y-144631057D01*
X163165237Y-144631057D02*
X163012856Y-144631057D01*
X163012856Y-144631057D02*
X162936666Y-144669152D01*
X162936666Y-144669152D02*
X162898571Y-144707247D01*
X162898571Y-144707247D02*
X162860475Y-144783438D01*
X151918295Y-117916142D02*
X151537342Y-118182809D01*
X151918295Y-118373285D02*
X151118295Y-118373285D01*
X151118295Y-118373285D02*
X151118295Y-118068523D01*
X151118295Y-118068523D02*
X151156390Y-117992333D01*
X151156390Y-117992333D02*
X151194485Y-117954238D01*
X151194485Y-117954238D02*
X151270676Y-117916142D01*
X151270676Y-117916142D02*
X151384961Y-117916142D01*
X151384961Y-117916142D02*
X151461152Y-117954238D01*
X151461152Y-117954238D02*
X151499247Y-117992333D01*
X151499247Y-117992333D02*
X151537342Y-118068523D01*
X151537342Y-118068523D02*
X151537342Y-118373285D01*
X151918295Y-117192333D02*
X151918295Y-117573285D01*
X151918295Y-117573285D02*
X151118295Y-117573285D01*
X151118295Y-117001857D02*
X151118295Y-116468523D01*
X151118295Y-116468523D02*
X151918295Y-116811381D01*
X119291667Y-130191104D02*
X119253571Y-130229200D01*
X119253571Y-130229200D02*
X119139286Y-130267295D01*
X119139286Y-130267295D02*
X119063095Y-130267295D01*
X119063095Y-130267295D02*
X118948809Y-130229200D01*
X118948809Y-130229200D02*
X118872619Y-130153009D01*
X118872619Y-130153009D02*
X118834524Y-130076819D01*
X118834524Y-130076819D02*
X118796428Y-129924438D01*
X118796428Y-129924438D02*
X118796428Y-129810152D01*
X118796428Y-129810152D02*
X118834524Y-129657771D01*
X118834524Y-129657771D02*
X118872619Y-129581580D01*
X118872619Y-129581580D02*
X118948809Y-129505390D01*
X118948809Y-129505390D02*
X119063095Y-129467295D01*
X119063095Y-129467295D02*
X119139286Y-129467295D01*
X119139286Y-129467295D02*
X119253571Y-129505390D01*
X119253571Y-129505390D02*
X119291667Y-129543485D01*
X119558333Y-129467295D02*
X120053571Y-129467295D01*
X120053571Y-129467295D02*
X119786905Y-129772057D01*
X119786905Y-129772057D02*
X119901190Y-129772057D01*
X119901190Y-129772057D02*
X119977381Y-129810152D01*
X119977381Y-129810152D02*
X120015476Y-129848247D01*
X120015476Y-129848247D02*
X120053571Y-129924438D01*
X120053571Y-129924438D02*
X120053571Y-130114914D01*
X120053571Y-130114914D02*
X120015476Y-130191104D01*
X120015476Y-130191104D02*
X119977381Y-130229200D01*
X119977381Y-130229200D02*
X119901190Y-130267295D01*
X119901190Y-130267295D02*
X119672619Y-130267295D01*
X119672619Y-130267295D02*
X119596428Y-130229200D01*
X119596428Y-130229200D02*
X119558333Y-130191104D01*
X144488523Y-153343295D02*
X144488523Y-153914723D01*
X144488523Y-153914723D02*
X144450428Y-154029009D01*
X144450428Y-154029009D02*
X144374237Y-154105200D01*
X144374237Y-154105200D02*
X144259952Y-154143295D01*
X144259952Y-154143295D02*
X144183761Y-154143295D01*
X145250428Y-154143295D02*
X144869476Y-154143295D01*
X144869476Y-154143295D02*
X144869476Y-153343295D01*
X145440904Y-153343295D02*
X145936142Y-153343295D01*
X145936142Y-153343295D02*
X145669476Y-153648057D01*
X145669476Y-153648057D02*
X145783761Y-153648057D01*
X145783761Y-153648057D02*
X145859952Y-153686152D01*
X145859952Y-153686152D02*
X145898047Y-153724247D01*
X145898047Y-153724247D02*
X145936142Y-153800438D01*
X145936142Y-153800438D02*
X145936142Y-153990914D01*
X145936142Y-153990914D02*
X145898047Y-154067104D01*
X145898047Y-154067104D02*
X145859952Y-154105200D01*
X145859952Y-154105200D02*
X145783761Y-154143295D01*
X145783761Y-154143295D02*
X145555190Y-154143295D01*
X145555190Y-154143295D02*
X145478999Y-154105200D01*
X145478999Y-154105200D02*
X145440904Y-154067104D01*
D14*
X175393900Y-100695000D02*
X175393900Y-111090222D01*
X175393900Y-114531378D02*
X175393900Y-114944400D01*
X175393900Y-114944400D02*
X178930395Y-114944400D01*
X176244800Y-91703400D02*
X176244800Y-100695000D01*
X182119005Y-114944400D02*
X185655500Y-114944400D01*
X184804600Y-91703400D02*
X176244800Y-91703400D01*
X184804600Y-100695000D02*
X184804600Y-91703400D01*
X185655500Y-100695000D02*
X175393900Y-100695000D01*
X185655500Y-114944400D02*
X185655500Y-100695000D01*
D15*
X174047700Y-104809800D02*
G75*
G02*
X173793700Y-104809800I-127000J0D01*
G01*
X173793700Y-104809800D02*
G75*
G02*
X174047700Y-104809800I127000J0D01*
G01*
D16*
X170125000Y-128989064D02*
X170125000Y-128534936D01*
X171595000Y-128989064D02*
X171595000Y-128534936D01*
X170125000Y-145499064D02*
X170125000Y-145044936D01*
X171595000Y-145499064D02*
X171595000Y-145044936D01*
X156155000Y-114511064D02*
X156155000Y-114056936D01*
X157625000Y-114511064D02*
X157625000Y-114056936D01*
X169563064Y-106945000D02*
X169108936Y-106945000D01*
X169563064Y-108415000D02*
X169108936Y-108415000D01*
X162251000Y-124401064D02*
X162251000Y-123946936D01*
X163721000Y-124401064D02*
X163721000Y-123946936D01*
X162670000Y-126710000D02*
X160720000Y-126710000D01*
X162670000Y-126710000D02*
X164620000Y-126710000D01*
X162670000Y-131830000D02*
X160720000Y-131830000D01*
X162670000Y-131830000D02*
X164620000Y-131830000D01*
X159970000Y-126805000D02*
X159730000Y-126475000D01*
X160210000Y-126475000D01*
X159970000Y-126805000D01*
G36*
X159970000Y-126805000D02*
G01*
X159730000Y-126475000D01*
X160210000Y-126475000D01*
X159970000Y-126805000D01*
G37*
X164537000Y-124401064D02*
X164537000Y-123946936D01*
X166007000Y-124401064D02*
X166007000Y-123946936D01*
X170125000Y-111971064D02*
X170125000Y-111516936D01*
X171595000Y-111971064D02*
X171595000Y-111516936D01*
X153869000Y-126449064D02*
X153869000Y-125994936D01*
X155339000Y-126449064D02*
X155339000Y-125994936D01*
X108810000Y-141920000D02*
X108810000Y-139340000D01*
X109790000Y-139340000D02*
X108810000Y-139340000D01*
X112550000Y-139340000D02*
X113530000Y-139340000D01*
X113530000Y-139340000D02*
X113530000Y-142060000D01*
X108960000Y-142470000D02*
X108630000Y-142710000D01*
X108630000Y-142230000D01*
X108960000Y-142470000D01*
G36*
X108960000Y-142470000D02*
G01*
X108630000Y-142710000D01*
X108630000Y-142230000D01*
X108960000Y-142470000D01*
G37*
X170047252Y-118766000D02*
X168624748Y-118766000D01*
X170047252Y-121486000D02*
X168624748Y-121486000D01*
X162935252Y-132932000D02*
X161512748Y-132932000D01*
X162935252Y-134752000D02*
X161512748Y-134752000D01*
X159203000Y-106436936D02*
X159203000Y-106891064D01*
X160673000Y-106436936D02*
X160673000Y-106891064D01*
X100150000Y-108160000D02*
X114850000Y-108160000D01*
X100150000Y-117360000D02*
X100150000Y-108160000D01*
X108950000Y-117360000D02*
X100150000Y-117360000D01*
X114000000Y-107960000D02*
X115050000Y-107960000D01*
X114850000Y-108160000D02*
X114850000Y-110760000D01*
X114850000Y-114660000D02*
X114850000Y-117360000D01*
X114850000Y-117360000D02*
X112950000Y-117360000D01*
X115050000Y-109010000D02*
X115050000Y-107960000D01*
X158440936Y-152284000D02*
X158895064Y-152284000D01*
X158440936Y-153754000D02*
X158895064Y-153754000D01*
X150489252Y-124100000D02*
X149066748Y-124100000D01*
X150489252Y-126820000D02*
X149066748Y-126820000D01*
X162935252Y-149696000D02*
X161512748Y-149696000D01*
X162935252Y-151516000D02*
X161512748Y-151516000D01*
X113820000Y-120490000D02*
X116120000Y-120490000D01*
X113820000Y-127890000D02*
X113820000Y-120490000D01*
X116120000Y-127890000D02*
X113820000Y-127890000D01*
X118920000Y-120490000D02*
X121220000Y-120490000D01*
X121220000Y-120490000D02*
X121220000Y-127890000D01*
X121220000Y-127890000D02*
X118920000Y-127890000D01*
X107720000Y-134426252D02*
X107720000Y-133003748D01*
X109540000Y-134426252D02*
X109540000Y-133003748D01*
X156155000Y-125994936D02*
X156155000Y-126449064D01*
X157625000Y-125994936D02*
X157625000Y-126449064D01*
X110260000Y-124748748D02*
X110260000Y-126171252D01*
X112080000Y-124748748D02*
X112080000Y-126171252D01*
X173056000Y-134146748D02*
X173056000Y-135569252D01*
X175776000Y-134146748D02*
X175776000Y-135569252D01*
X162935252Y-116422000D02*
X161512748Y-116422000D01*
X162935252Y-118242000D02*
X161512748Y-118242000D01*
X167839000Y-133069064D02*
X167839000Y-132614936D01*
X169309000Y-133069064D02*
X169309000Y-132614936D01*
X101120000Y-120515000D02*
X103420000Y-120515000D01*
X101120000Y-127915000D02*
X101120000Y-120515000D01*
X103420000Y-127915000D02*
X101120000Y-127915000D01*
X106220000Y-120515000D02*
X108520000Y-120515000D01*
X108520000Y-120515000D02*
X108520000Y-127915000D01*
X108520000Y-127915000D02*
X106220000Y-127915000D01*
X156155000Y-130529064D02*
X156155000Y-130074936D01*
X157625000Y-130529064D02*
X157625000Y-130074936D01*
X153869000Y-110447064D02*
X153869000Y-109992936D01*
X155339000Y-110447064D02*
X155339000Y-109992936D01*
X114421252Y-128995000D02*
X112998748Y-128995000D01*
X114421252Y-130815000D02*
X112998748Y-130815000D01*
X167839000Y-145044936D02*
X167839000Y-145499064D01*
X169309000Y-145044936D02*
X169309000Y-145499064D01*
X103473748Y-144870000D02*
X104896252Y-144870000D01*
X103473748Y-146690000D02*
X104896252Y-146690000D01*
X117140000Y-111917000D02*
X117140000Y-117427000D01*
X120440000Y-111917000D02*
X117140000Y-111917000D01*
X120440000Y-111917000D02*
X120440000Y-117427000D01*
D14*
X175393900Y-140725400D02*
X175393900Y-154974800D01*
X175393900Y-154974800D02*
X185655500Y-154974800D01*
X176244800Y-154974800D02*
X176244800Y-163966400D01*
X176244800Y-163966400D02*
X184804600Y-163966400D01*
X178930395Y-140725400D02*
X175393900Y-140725400D01*
X184804600Y-163966400D02*
X184804600Y-154974800D01*
X185655500Y-140725400D02*
X182119005Y-140725400D01*
X185655500Y-141138422D02*
X185655500Y-140725400D01*
X185655500Y-154974800D02*
X185655500Y-144579578D01*
D15*
X187255700Y-150860000D02*
G75*
G02*
X187001700Y-150860000I-127000J0D01*
G01*
X187001700Y-150860000D02*
G75*
G02*
X187255700Y-150860000I127000J0D01*
G01*
D16*
X114410000Y-131790000D02*
X112460000Y-131790000D01*
X114410000Y-131790000D02*
X116360000Y-131790000D01*
X114410000Y-136910000D02*
X112460000Y-136910000D01*
X114410000Y-136910000D02*
X116360000Y-136910000D01*
X111710000Y-131885000D02*
X111470000Y-131555000D01*
X111950000Y-131555000D01*
X111710000Y-131885000D01*
G36*
X111710000Y-131885000D02*
G01*
X111470000Y-131555000D01*
X111950000Y-131555000D01*
X111710000Y-131885000D01*
G37*
X157170936Y-149109000D02*
X157625064Y-149109000D01*
X157170936Y-150579000D02*
X157625064Y-150579000D01*
X169563064Y-104659000D02*
X169108936Y-104659000D01*
X169563064Y-106129000D02*
X169108936Y-106129000D01*
X170047252Y-135218000D02*
X168624748Y-135218000D01*
X170047252Y-137038000D02*
X168624748Y-137038000D01*
X116250000Y-105931677D02*
X126410000Y-105931677D01*
X116250000Y-105971677D02*
X126410000Y-105971677D01*
X116250000Y-106011677D02*
X126410000Y-106011677D01*
X116251000Y-105891677D02*
X126409000Y-105891677D01*
X116252000Y-105851677D02*
X126408000Y-105851677D01*
X116253000Y-105811677D02*
X126407000Y-105811677D01*
X116255000Y-105771677D02*
X126405000Y-105771677D01*
X116257000Y-105731677D02*
X126403000Y-105731677D01*
X116260000Y-105691677D02*
X126400000Y-105691677D01*
X116262000Y-105651677D02*
X126398000Y-105651677D01*
X116265000Y-105611677D02*
X126395000Y-105611677D01*
X116268000Y-105571677D02*
X126392000Y-105571677D01*
X116272000Y-105531677D02*
X126388000Y-105531677D01*
X116276000Y-105491677D02*
X126384000Y-105491677D01*
X116280000Y-105451677D02*
X126380000Y-105451677D01*
X116285000Y-105411677D02*
X126375000Y-105411677D01*
X116290000Y-105371677D02*
X126370000Y-105371677D01*
X116295000Y-105331677D02*
X126365000Y-105331677D01*
X116300000Y-105290677D02*
X126360000Y-105290677D01*
X116306000Y-105250677D02*
X126354000Y-105250677D01*
X116312000Y-105210677D02*
X126348000Y-105210677D01*
X116319000Y-105170677D02*
X126341000Y-105170677D01*
X116326000Y-105130677D02*
X126334000Y-105130677D01*
X116333000Y-105090677D02*
X126327000Y-105090677D01*
X116340000Y-105050677D02*
X126320000Y-105050677D01*
X116348000Y-105010677D02*
X126312000Y-105010677D01*
X116356000Y-104970677D02*
X126304000Y-104970677D01*
X116365000Y-104930677D02*
X126295000Y-104930677D01*
X116374000Y-104890677D02*
X126286000Y-104890677D01*
X116383000Y-104850677D02*
X126277000Y-104850677D01*
X116392000Y-104810677D02*
X126268000Y-104810677D01*
X116402000Y-104770677D02*
X126258000Y-104770677D01*
X116412000Y-104730677D02*
X120089000Y-104730677D01*
X116423000Y-104690677D02*
X120089000Y-104690677D01*
X116433000Y-104650677D02*
X120089000Y-104650677D01*
X116445000Y-104610677D02*
X120089000Y-104610677D01*
X116456000Y-104570677D02*
X120089000Y-104570677D01*
X116468000Y-104530677D02*
X120089000Y-104530677D01*
X116480000Y-104490677D02*
X120089000Y-104490677D01*
X116493000Y-104450677D02*
X120089000Y-104450677D01*
X116506000Y-104410677D02*
X120089000Y-104410677D01*
X116519000Y-104370677D02*
X120089000Y-104370677D01*
X116533000Y-104330677D02*
X120089000Y-104330677D01*
X116547000Y-104290677D02*
X120089000Y-104290677D01*
X116562000Y-104250677D02*
X120089000Y-104250677D01*
X116576000Y-104210677D02*
X120089000Y-104210677D01*
X116592000Y-104170677D02*
X120089000Y-104170677D01*
X116607000Y-104130677D02*
X120089000Y-104130677D01*
X116623000Y-104090677D02*
X120089000Y-104090677D01*
X116640000Y-104050677D02*
X120089000Y-104050677D01*
X116656000Y-104010677D02*
X120089000Y-104010677D01*
X116673000Y-103970677D02*
X120089000Y-103970677D01*
X116691000Y-103930677D02*
X120089000Y-103930677D01*
X116709000Y-103890677D02*
X120089000Y-103890677D01*
X116727000Y-103850677D02*
X120089000Y-103850677D01*
X116746000Y-103810677D02*
X120089000Y-103810677D01*
X116766000Y-103770677D02*
X120089000Y-103770677D01*
X116785000Y-103730677D02*
X120089000Y-103730677D01*
X116805000Y-103690677D02*
X120089000Y-103690677D01*
X116826000Y-103650677D02*
X120089000Y-103650677D01*
X116847000Y-103610677D02*
X120089000Y-103610677D01*
X116868000Y-103570677D02*
X120089000Y-103570677D01*
X116890000Y-103530677D02*
X120089000Y-103530677D01*
X116913000Y-103490677D02*
X120089000Y-103490677D01*
X116935000Y-103450677D02*
X120089000Y-103450677D01*
X116959000Y-103410677D02*
X120089000Y-103410677D01*
X116983000Y-103370677D02*
X120089000Y-103370677D01*
X117007000Y-103330677D02*
X120089000Y-103330677D01*
X117032000Y-103290677D02*
X120089000Y-103290677D01*
X117057000Y-103250677D02*
X120089000Y-103250677D01*
X117083000Y-103210677D02*
X120089000Y-103210677D01*
X117109000Y-103170677D02*
X120089000Y-103170677D01*
X117136000Y-103130677D02*
X120089000Y-103130677D01*
X117164000Y-103090677D02*
X120089000Y-103090677D01*
X117192000Y-103050677D02*
X120089000Y-103050677D01*
X117220000Y-103010677D02*
X120089000Y-103010677D01*
X117250000Y-102970677D02*
X120089000Y-102970677D01*
X117280000Y-102930677D02*
X120089000Y-102930677D01*
X117310000Y-102890677D02*
X120089000Y-102890677D01*
X117341000Y-102850677D02*
X120089000Y-102850677D01*
X117373000Y-102810677D02*
X120089000Y-102810677D01*
X117405000Y-102770677D02*
X120089000Y-102770677D01*
X117438000Y-102730677D02*
X120089000Y-102730677D01*
X117472000Y-102690677D02*
X120089000Y-102690677D01*
X117506000Y-102650677D02*
X120089000Y-102650677D01*
X117541000Y-102610677D02*
X120089000Y-102610677D01*
X117577000Y-102570677D02*
X120089000Y-102570677D01*
X117614000Y-102530677D02*
X120089000Y-102530677D01*
X117651000Y-102490677D02*
X120089000Y-102490677D01*
X117690000Y-102450677D02*
X120089000Y-102450677D01*
X117729000Y-102410677D02*
X120089000Y-102410677D01*
X117769000Y-102370677D02*
X120089000Y-102370677D01*
X117810000Y-102330677D02*
X120089000Y-102330677D01*
X117852000Y-102290677D02*
X120089000Y-102290677D01*
X117894000Y-102250677D02*
X122090000Y-102250677D01*
X117938000Y-102210677D02*
X122090000Y-102210677D01*
X117955000Y-110991323D02*
X118955000Y-110991323D01*
X117983000Y-102170677D02*
X122090000Y-102170677D01*
X118029000Y-102130677D02*
X122090000Y-102130677D01*
X118076000Y-102090677D02*
X122090000Y-102090677D01*
X118124000Y-102050677D02*
X122090000Y-102050677D01*
X118174000Y-102010677D02*
X122090000Y-102010677D01*
X118224000Y-101970677D02*
X122090000Y-101970677D01*
X118276000Y-101930677D02*
X122090000Y-101930677D01*
X118330000Y-101890677D02*
X122090000Y-101890677D01*
X118385000Y-101850677D02*
X122090000Y-101850677D01*
X118441000Y-101810677D02*
X122090000Y-101810677D01*
X118455000Y-111491323D02*
X118455000Y-110491323D01*
X118500000Y-101770677D02*
X122090000Y-101770677D01*
X118560000Y-101730677D02*
X122090000Y-101730677D01*
X118621000Y-101690677D02*
X122090000Y-101690677D01*
X118685000Y-101650677D02*
X122090000Y-101650677D01*
X118751000Y-101610677D02*
X122090000Y-101610677D01*
X118820000Y-101570677D02*
X123840000Y-101570677D01*
X118891000Y-101530677D02*
X123769000Y-101530677D01*
X118965000Y-101490677D02*
X123695000Y-101490677D01*
X119041000Y-101450677D02*
X123619000Y-101450677D01*
X119121000Y-101410677D02*
X123539000Y-101410677D01*
X119205000Y-101370677D02*
X123455000Y-101370677D01*
X119293000Y-101330677D02*
X123367000Y-101330677D01*
X119386000Y-101290677D02*
X123274000Y-101290677D01*
X119484000Y-101250677D02*
X123176000Y-101250677D01*
X119588000Y-101210677D02*
X123072000Y-101210677D01*
X119700000Y-101170677D02*
X122960000Y-101170677D01*
X119820000Y-101130677D02*
X122840000Y-101130677D01*
X119952000Y-101090677D02*
X122708000Y-101090677D01*
X120100000Y-101050677D02*
X122560000Y-101050677D01*
X120268000Y-101010677D02*
X122392000Y-101010677D01*
X120468000Y-100970677D02*
X122192000Y-100970677D01*
X120731000Y-100930677D02*
X121929000Y-100930677D01*
X122571000Y-104090677D02*
X126037000Y-104090677D01*
X122571000Y-104130677D02*
X126053000Y-104130677D01*
X122571000Y-104170677D02*
X126068000Y-104170677D01*
X122571000Y-104210677D02*
X126084000Y-104210677D01*
X122571000Y-104250677D02*
X126098000Y-104250677D01*
X122571000Y-104290677D02*
X126113000Y-104290677D01*
X122571000Y-104330677D02*
X126127000Y-104330677D01*
X122571000Y-104370677D02*
X126141000Y-104370677D01*
X122571000Y-104410677D02*
X126154000Y-104410677D01*
X122571000Y-104450677D02*
X126167000Y-104450677D01*
X122571000Y-104490677D02*
X126180000Y-104490677D01*
X122571000Y-104530677D02*
X126192000Y-104530677D01*
X122571000Y-104570677D02*
X126204000Y-104570677D01*
X122571000Y-104610677D02*
X126215000Y-104610677D01*
X122571000Y-104650677D02*
X126227000Y-104650677D01*
X122571000Y-104690677D02*
X126237000Y-104690677D01*
X122571000Y-104730677D02*
X126248000Y-104730677D01*
X124570000Y-102090677D02*
X124584000Y-102090677D01*
X124570000Y-102130677D02*
X124631000Y-102130677D01*
X124570000Y-102170677D02*
X124677000Y-102170677D01*
X124570000Y-102210677D02*
X124722000Y-102210677D01*
X124570000Y-102250677D02*
X124766000Y-102250677D01*
X124570000Y-102290677D02*
X124808000Y-102290677D01*
X124570000Y-102330677D02*
X124850000Y-102330677D01*
X124570000Y-102370677D02*
X124891000Y-102370677D01*
X124570000Y-102410677D02*
X124931000Y-102410677D01*
X124570000Y-102450677D02*
X124970000Y-102450677D01*
X124570000Y-102490677D02*
X125009000Y-102490677D01*
X124570000Y-102530677D02*
X125046000Y-102530677D01*
X124570000Y-102570677D02*
X125083000Y-102570677D01*
X124570000Y-102610677D02*
X125119000Y-102610677D01*
X124570000Y-102650677D02*
X125154000Y-102650677D01*
X124570000Y-102690677D02*
X125188000Y-102690677D01*
X124570000Y-102730677D02*
X125222000Y-102730677D01*
X124570000Y-102770677D02*
X125255000Y-102770677D01*
X124570000Y-102810677D02*
X125287000Y-102810677D01*
X124570000Y-102850677D02*
X125319000Y-102850677D01*
X124570000Y-102890677D02*
X125350000Y-102890677D01*
X124570000Y-102930677D02*
X125380000Y-102930677D01*
X124570000Y-102970677D02*
X125410000Y-102970677D01*
X124570000Y-103010677D02*
X125440000Y-103010677D01*
X124570000Y-103050677D02*
X125468000Y-103050677D01*
X124570000Y-103090677D02*
X125496000Y-103090677D01*
X124570000Y-103130677D02*
X125524000Y-103130677D01*
X124570000Y-103170677D02*
X125551000Y-103170677D01*
X124570000Y-103210677D02*
X125577000Y-103210677D01*
X124570000Y-103250677D02*
X125603000Y-103250677D01*
X124570000Y-103290677D02*
X125628000Y-103290677D01*
X124570000Y-103330677D02*
X125653000Y-103330677D01*
X124570000Y-103370677D02*
X125677000Y-103370677D01*
X124570000Y-103410677D02*
X125701000Y-103410677D01*
X124570000Y-103450677D02*
X125725000Y-103450677D01*
X124570000Y-103490677D02*
X125747000Y-103490677D01*
X124570000Y-103530677D02*
X125770000Y-103530677D01*
X124570000Y-103570677D02*
X125792000Y-103570677D01*
X124570000Y-103610677D02*
X125813000Y-103610677D01*
X124570000Y-103650677D02*
X125834000Y-103650677D01*
X124570000Y-103690677D02*
X125855000Y-103690677D01*
X124570000Y-103730677D02*
X125875000Y-103730677D01*
X124570000Y-103770677D02*
X125894000Y-103770677D01*
X124570000Y-103810677D02*
X125914000Y-103810677D01*
X124570000Y-103850677D02*
X125933000Y-103850677D01*
X124570000Y-103890677D02*
X125951000Y-103890677D01*
X124570000Y-103930677D02*
X125969000Y-103930677D01*
X124570000Y-103970677D02*
X125987000Y-103970677D01*
X124570000Y-104010677D02*
X126004000Y-104010677D01*
X124570000Y-104050677D02*
X126020000Y-104050677D01*
X118070000Y-109959689D02*
G75*
G02*
X119616902Y-110836580I3260000J3948012D01*
G01*
X103910000Y-134426252D02*
X103910000Y-133003748D01*
X105730000Y-134426252D02*
X105730000Y-133003748D01*
X164991064Y-152284000D02*
X164536936Y-152284000D01*
X164991064Y-153754000D02*
X164536936Y-153754000D01*
X147138000Y-129497064D02*
X147138000Y-129042936D01*
X148608000Y-129497064D02*
X148608000Y-129042936D01*
X167839000Y-111516936D02*
X167839000Y-111971064D01*
X169309000Y-111516936D02*
X169309000Y-111971064D01*
X156155000Y-146785064D02*
X156155000Y-146330936D01*
X157625000Y-146785064D02*
X157625000Y-146330936D01*
X172919000Y-118067064D02*
X172919000Y-117612936D01*
X174389000Y-118067064D02*
X174389000Y-117612936D01*
X154260000Y-118398748D02*
X154260000Y-119821252D01*
X156980000Y-118398748D02*
X156980000Y-119821252D01*
X170125000Y-116035064D02*
X170125000Y-115580936D01*
X171595000Y-116035064D02*
X171595000Y-115580936D01*
X153869000Y-142705064D02*
X153869000Y-142250936D01*
X155339000Y-142705064D02*
X155339000Y-142250936D01*
X167839000Y-116035064D02*
X167839000Y-115580936D01*
X169309000Y-116035064D02*
X169309000Y-115580936D01*
D14*
X139897400Y-100695000D02*
X139897400Y-111090222D01*
X139897400Y-114531378D02*
X139897400Y-114944400D01*
X139897400Y-114944400D02*
X143433895Y-114944400D01*
X140748300Y-91703400D02*
X140748300Y-100695000D01*
X146622505Y-114944400D02*
X150159000Y-114944400D01*
X149308100Y-91703400D02*
X140748300Y-91703400D01*
X149308100Y-100695000D02*
X149308100Y-91703400D01*
X150159000Y-100695000D02*
X139897400Y-100695000D01*
X150159000Y-114944400D02*
X150159000Y-100695000D01*
D15*
X138551200Y-104809800D02*
G75*
G02*
X138297200Y-104809800I-127000J0D01*
G01*
X138297200Y-104809800D02*
G75*
G02*
X138551200Y-104809800I127000J0D01*
G01*
D16*
X161489000Y-106436936D02*
X161489000Y-106891064D01*
X162959000Y-106436936D02*
X162959000Y-106891064D01*
X150138000Y-130489252D02*
X150138000Y-129066748D01*
X151958000Y-130489252D02*
X151958000Y-129066748D01*
X164537000Y-140911064D02*
X164537000Y-140456936D01*
X166007000Y-140911064D02*
X166007000Y-140456936D01*
X153869000Y-130513064D02*
X153869000Y-130058936D01*
X155339000Y-130513064D02*
X155339000Y-130058936D01*
X101825000Y-141920000D02*
X101825000Y-139340000D01*
X102805000Y-139340000D02*
X101825000Y-139340000D01*
X105565000Y-139340000D02*
X106545000Y-139340000D01*
X106545000Y-139340000D02*
X106545000Y-142060000D01*
X101975000Y-142470000D02*
X101645000Y-142710000D01*
X101645000Y-142230000D01*
X101975000Y-142470000D01*
G36*
X101975000Y-142470000D02*
G01*
X101645000Y-142710000D01*
X101645000Y-142230000D01*
X101975000Y-142470000D01*
G37*
X110751248Y-144870000D02*
X112173752Y-144870000D01*
X110751248Y-146690000D02*
X112173752Y-146690000D01*
X156155000Y-109992936D02*
X156155000Y-110447064D01*
X157625000Y-109992936D02*
X157625000Y-110447064D01*
X153869000Y-114511064D02*
X153869000Y-114056936D01*
X155339000Y-114511064D02*
X155339000Y-114056936D01*
X172411000Y-139911064D02*
X172411000Y-139456936D01*
X173881000Y-139911064D02*
X173881000Y-139456936D01*
X170125000Y-133053064D02*
X170125000Y-132598936D01*
X171595000Y-133053064D02*
X171595000Y-132598936D01*
X111588752Y-104865000D02*
X110166248Y-104865000D01*
X111588752Y-106685000D02*
X110166248Y-106685000D01*
X162251000Y-140911064D02*
X162251000Y-140456936D01*
X163721000Y-140911064D02*
X163721000Y-140456936D01*
X156155000Y-142250936D02*
X156155000Y-142705064D01*
X157625000Y-142250936D02*
X157625000Y-142705064D01*
X167839000Y-149563064D02*
X167839000Y-149108936D01*
X169309000Y-149563064D02*
X169309000Y-149108936D01*
X167839000Y-128534936D02*
X167839000Y-128989064D01*
X169309000Y-128534936D02*
X169309000Y-128989064D01*
X162670000Y-110200000D02*
X160720000Y-110200000D01*
X162670000Y-110200000D02*
X164620000Y-110200000D01*
X162670000Y-115320000D02*
X160720000Y-115320000D01*
X162670000Y-115320000D02*
X164620000Y-115320000D01*
X159970000Y-110295000D02*
X159730000Y-109965000D01*
X160210000Y-109965000D01*
X159970000Y-110295000D01*
G36*
X159970000Y-110295000D02*
G01*
X159730000Y-109965000D01*
X160210000Y-109965000D01*
X159970000Y-110295000D01*
G37*
X172411000Y-143991064D02*
X172411000Y-143536936D01*
X173881000Y-143991064D02*
X173881000Y-143536936D01*
X162670000Y-143220000D02*
X160720000Y-143220000D01*
X162670000Y-143220000D02*
X164620000Y-143220000D01*
X162670000Y-148340000D02*
X160720000Y-148340000D01*
X162670000Y-148340000D02*
X164620000Y-148340000D01*
X159970000Y-143315000D02*
X159730000Y-142985000D01*
X160210000Y-142985000D01*
X159970000Y-143315000D01*
G36*
X159970000Y-143315000D02*
G01*
X159730000Y-142985000D01*
X160210000Y-142985000D01*
X159970000Y-143315000D01*
G37*
X151583000Y-114511064D02*
X151583000Y-114056936D01*
X153053000Y-114511064D02*
X153053000Y-114056936D01*
X120136252Y-128995000D02*
X118713748Y-128995000D01*
X120136252Y-130815000D02*
X118713748Y-130815000D01*
D14*
X139897400Y-140725400D02*
X139897400Y-154974800D01*
X139897400Y-154974800D02*
X150159000Y-154974800D01*
X140748300Y-154974800D02*
X140748300Y-163966400D01*
X140748300Y-163966400D02*
X149308100Y-163966400D01*
X143433895Y-140725400D02*
X139897400Y-140725400D01*
X149308100Y-163966400D02*
X149308100Y-154974800D01*
X150159000Y-140725400D02*
X146622505Y-140725400D01*
X150159000Y-141138422D02*
X150159000Y-140725400D01*
X150159000Y-154974800D02*
X150159000Y-144579578D01*
D15*
X151759200Y-150860000D02*
G75*
G02*
X151505200Y-150860000I-127000J0D01*
G01*
X151505200Y-150860000D02*
G75*
G02*
X151759200Y-150860000I127000J0D01*
G01*
%LPC*%
D17*
X184271200Y-104809800D03*
X176778200Y-104809800D03*
D18*
X180524700Y-111312200D03*
D19*
X180524700Y-104809800D03*
X180524700Y-114614200D03*
D20*
X175216100Y-112810800D03*
D21*
X170860000Y-129762000D03*
X170860000Y-127762000D03*
X170860000Y-146272000D03*
X170860000Y-144272000D03*
D22*
X186621000Y-128000000D03*
X187323944Y-126302944D03*
X187323944Y-129697056D03*
X189021000Y-125600000D03*
D23*
X189021000Y-128000000D03*
D22*
X189021000Y-130400000D03*
X190718056Y-126302944D03*
X190718056Y-129697056D03*
X191421000Y-128000000D03*
D21*
X156890000Y-115284000D03*
X156890000Y-113284000D03*
D24*
X170336000Y-107680000D03*
X168336000Y-107680000D03*
D21*
X162986000Y-125174000D03*
X162986000Y-123174000D03*
D25*
X160195000Y-127365000D03*
X160195000Y-128635000D03*
X160195000Y-129905000D03*
X160195000Y-131175000D03*
X165145000Y-131175000D03*
X165145000Y-129905000D03*
X165145000Y-128635000D03*
X165145000Y-127365000D03*
D21*
X165272000Y-125174000D03*
X165272000Y-123174000D03*
X170860000Y-112744000D03*
X170860000Y-110744000D03*
X154604000Y-127222000D03*
X154604000Y-125222000D03*
D26*
X109670000Y-142650000D03*
D27*
X111170000Y-142562500D03*
D26*
X112670000Y-142650000D03*
D22*
X190100000Y-103500000D03*
X190802944Y-101802944D03*
X190802944Y-105197056D03*
X192500000Y-101100000D03*
D23*
X192500000Y-103500000D03*
D22*
X192500000Y-105900000D03*
X194197056Y-101802944D03*
X194197056Y-105197056D03*
X194900000Y-103500000D03*
D28*
X170898500Y-120126000D03*
X167773500Y-120126000D03*
D29*
X163786500Y-133842000D03*
X160661500Y-133842000D03*
D30*
X159938000Y-105664000D03*
X159938000Y-107664000D03*
D31*
X113950000Y-112760000D03*
D32*
X107950000Y-112760000D03*
D33*
X110950000Y-117460000D03*
D34*
X157668000Y-153019000D03*
X159668000Y-153019000D03*
D28*
X151340500Y-125460000D03*
X148215500Y-125460000D03*
D29*
X163786500Y-150606000D03*
X160661500Y-150606000D03*
D35*
X117520000Y-120990000D03*
X117520000Y-127390000D03*
D36*
X108630000Y-135277500D03*
X108630000Y-132152500D03*
D30*
X156890000Y-125222000D03*
X156890000Y-127222000D03*
D37*
X111170000Y-123897500D03*
X111170000Y-127022500D03*
D38*
X174416000Y-133295500D03*
X174416000Y-136420500D03*
D29*
X163786500Y-117332000D03*
X160661500Y-117332000D03*
D21*
X168574000Y-133842000D03*
X168574000Y-131842000D03*
D35*
X104820000Y-121015000D03*
X104820000Y-127415000D03*
D21*
X156890000Y-131302000D03*
X156890000Y-129302000D03*
X154604000Y-111220000D03*
X154604000Y-109220000D03*
D29*
X115272500Y-129905000D03*
X112147500Y-129905000D03*
D22*
X101100000Y-152500000D03*
X101802944Y-150802944D03*
X101802944Y-154197056D03*
X103500000Y-150100000D03*
D23*
X103500000Y-152500000D03*
D22*
X103500000Y-154900000D03*
X105197056Y-150802944D03*
X105197056Y-154197056D03*
X105900000Y-152500000D03*
D30*
X168574000Y-144272000D03*
X168574000Y-146272000D03*
D39*
X102622500Y-145780000D03*
X105747500Y-145780000D03*
D40*
X118790000Y-113427000D03*
X118790000Y-117427000D03*
D17*
X176778200Y-150860000D03*
X184271200Y-150860000D03*
D18*
X180524700Y-144357600D03*
D19*
X180524700Y-150860000D03*
X180524700Y-141055600D03*
D20*
X185833300Y-142859000D03*
D25*
X111935000Y-132445000D03*
X111935000Y-133715000D03*
X111935000Y-134985000D03*
X111935000Y-136255000D03*
X116885000Y-136255000D03*
X116885000Y-134985000D03*
X116885000Y-133715000D03*
X116885000Y-132445000D03*
D34*
X156398000Y-149844000D03*
X158398000Y-149844000D03*
D24*
X170336000Y-105394000D03*
X168336000Y-105394000D03*
D29*
X170898500Y-136128000D03*
X167773500Y-136128000D03*
D41*
X119330000Y-109183821D03*
X121330000Y-108511677D03*
D42*
X121330000Y-103511677D03*
X123330000Y-102839533D03*
D36*
X104820000Y-135277500D03*
X104820000Y-132152500D03*
D24*
X165764000Y-153019000D03*
X163764000Y-153019000D03*
D21*
X147873000Y-130270000D03*
X147873000Y-128270000D03*
D30*
X168574000Y-110744000D03*
X168574000Y-112744000D03*
D21*
X156890000Y-147558000D03*
X156890000Y-145558000D03*
X173654000Y-118840000D03*
X173654000Y-116840000D03*
D22*
X190100000Y-152500000D03*
X190802944Y-150802944D03*
X190802944Y-154197056D03*
X192500000Y-150100000D03*
D23*
X192500000Y-152500000D03*
D22*
X192500000Y-154900000D03*
X194197056Y-150802944D03*
X194197056Y-154197056D03*
X194900000Y-152500000D03*
D38*
X155620000Y-117547500D03*
X155620000Y-120672500D03*
D21*
X170860000Y-116808000D03*
X170860000Y-114808000D03*
X154604000Y-143478000D03*
X154604000Y-141478000D03*
X168574000Y-116808000D03*
X168574000Y-114808000D03*
D17*
X148774700Y-104809800D03*
X141281700Y-104809800D03*
D18*
X145028200Y-111312200D03*
D19*
X145028200Y-104809800D03*
X145028200Y-114614200D03*
D20*
X139719600Y-112810800D03*
D30*
X162224000Y-105664000D03*
X162224000Y-107664000D03*
D36*
X151048000Y-131340500D03*
X151048000Y-128215500D03*
D21*
X165272000Y-141684000D03*
X165272000Y-139684000D03*
X154604000Y-131286000D03*
X154604000Y-129286000D03*
D26*
X102685000Y-142650000D03*
D27*
X104185000Y-142562500D03*
D26*
X105685000Y-142650000D03*
D39*
X109900000Y-145780000D03*
X113025000Y-145780000D03*
D22*
X101100000Y-103500000D03*
X101802944Y-101802944D03*
X101802944Y-105197056D03*
X103500000Y-101100000D03*
D23*
X103500000Y-103500000D03*
D22*
X103500000Y-105900000D03*
X105197056Y-101802944D03*
X105197056Y-105197056D03*
X105900000Y-103500000D03*
D30*
X156890000Y-109220000D03*
X156890000Y-111220000D03*
D21*
X154604000Y-115284000D03*
X154604000Y-113284000D03*
X173146000Y-140684000D03*
X173146000Y-138684000D03*
X170860000Y-133826000D03*
X170860000Y-131826000D03*
D29*
X112440000Y-105775000D03*
X109315000Y-105775000D03*
D21*
X162986000Y-141684000D03*
X162986000Y-139684000D03*
D30*
X156890000Y-141478000D03*
X156890000Y-143478000D03*
D21*
X168574000Y-150336000D03*
X168574000Y-148336000D03*
D30*
X168574000Y-127762000D03*
X168574000Y-129762000D03*
D25*
X160195000Y-110855000D03*
X160195000Y-112125000D03*
X160195000Y-113395000D03*
X160195000Y-114665000D03*
X165145000Y-114665000D03*
X165145000Y-113395000D03*
X165145000Y-112125000D03*
X165145000Y-110855000D03*
D21*
X173146000Y-144764000D03*
X173146000Y-142764000D03*
D43*
X134742000Y-127953944D03*
X135686581Y-125673525D03*
X135686581Y-130234363D03*
X137967000Y-124728944D03*
D44*
X137967000Y-127953944D03*
D43*
X137967000Y-131178944D03*
X140247419Y-125673525D03*
X140247419Y-130234363D03*
X141192000Y-127953944D03*
D25*
X160195000Y-143875000D03*
X160195000Y-145145000D03*
X160195000Y-146415000D03*
X160195000Y-147685000D03*
X165145000Y-147685000D03*
X165145000Y-146415000D03*
X165145000Y-145145000D03*
X165145000Y-143875000D03*
D21*
X152318000Y-115284000D03*
X152318000Y-113284000D03*
D29*
X120987500Y-129905000D03*
X117862500Y-129905000D03*
D17*
X141281700Y-150860000D03*
X148774700Y-150860000D03*
D18*
X145028200Y-144357600D03*
D19*
X145028200Y-150860000D03*
X145028200Y-141055600D03*
D20*
X150336800Y-142859000D03*
%LPD*%
M02*
