M48
; DRILL file {KiCad 8.0.3-8.0.3-0~ubuntu22.04.1} date 2024-07-07T23:08:22+0300
; FORMAT={-:-/ absolute / metric / decimal}
; #@! TF.CreationDate,2024-07-07T23:08:22+03:00
; #@! TF.GenerationSoftware,Kicad,Pcbnew,8.0.3-8.0.3-0~ubuntu22.04.1
; #@! TF.FileFunction,Plated,1,4,PTH
FMAT,2
METRIC
; #@! TA.AperFunction,Plated,PTH,ViaDrill
T1C0.300
; #@! TA.AperFunction,Plated,PTH,ComponentDrill
T2C0.500
; #@! TA.AperFunction,Plated,PTH,ComponentDrill
T3C0.600
; #@! TA.AperFunction,Plated,PTH,ComponentDrill
T4C1.000
; #@! TA.AperFunction,Plated,PTH,ComponentDrill
T5C2.083
; #@! TA.AperFunction,Plated,PTH,ComponentDrill
T6C2.286
; #@! TA.AperFunction,Plated,PTH,ComponentDrill
T7C3.200
; #@! TA.AperFunction,Plated,PTH,ComponentDrill
T8C4.300
%
G90
G05
T1
X101.264Y-145.78
X101.346Y-142.65
X102.661Y-141.208
X102.661Y-144.002
X102.661Y-147.431
X103.169Y-135.239
X104.058Y-145.78
X104.82Y-133.969
X104.82Y-136.763
X106.471Y-135.239
X106.598Y-144.129
X106.915Y-132.127
X108.63Y-130.794
X108.63Y-133.461
X109.9Y-147.685
X110.027Y-132.191
X111.678Y-145.78
X111.932Y-131.429
X114.472Y-145.78
X148.254Y-131.556
X149.397Y-128.254
X151.048Y-129.778
X152.318Y-116.443
X152.572Y-128.254
X153.588Y-120.634
X154.604Y-144.764
X155.112Y-149.844
X155.62Y-122.158
X155.62Y-147.558
X155.747Y-118.983
X156.001Y-153.019
X156.382Y-151.368
X156.89Y-132.572
X157.652Y-120.672
X158.16Y-115.3
X158.287Y-131.302
X158.398Y-146.415
X158.414Y-129.905
X158.668Y-105.648
X160.573Y-119.11
X160.7Y-135.62
X161.335Y-147.177
X161.462Y-113.395
X161.843Y-131.175
X162.224Y-103.997
X162.224Y-108.696
X162.732Y-112.76
X162.986Y-122.158
X162.986Y-126.222
X162.986Y-129.016
X162.986Y-138.414
X162.986Y-147.05
X163.494Y-105.648
X163.748Y-119.11
X163.748Y-135.62
X163.875Y-142.605
X164.891Y-117.078
X164.891Y-133.588
X164.891Y-150.606
X165.082Y-154.352
X165.145Y-110.093
X165.272Y-122.158
X165.272Y-126.476
X165.272Y-138.414
X166.288Y-136.128
X166.415Y-120.126
X166.669Y-143.875
X166.796Y-147.685
X166.923Y-114.665
X166.923Y-131.175
X166.923Y-133.715
X167.177Y-107.68
X167.304Y-116.824
X167.304Y-150.352
X167.773Y-137.779
X167.812Y-122.158
X168.574Y-118.094
X168.574Y-151.876
X169.336Y-120.126
X169.336Y-136.128
X169.844Y-150.352
X170.352Y-109.204
X170.479Y-142.605
X170.86Y-147.558
X171.495Y-105.394
X171.495Y-107.68
X171.749Y-142.732
X172.326Y-116.628
X172.384Y-132.826
X173.146Y-146.034
X173.654Y-119.999
X174.289Y-144.764
T2
X101.1Y-103.5
X101.1Y-152.5
X101.803Y-101.803
X101.803Y-105.197
X101.803Y-150.803
X101.803Y-154.197
X103.5Y-101.1
X103.5Y-105.9
X103.5Y-150.1
X103.5Y-154.9
X105.197Y-101.803
X105.197Y-105.197
X105.197Y-150.803
X105.197Y-154.197
X105.9Y-103.5
X105.9Y-152.5
X186.621Y-128.0
X187.324Y-126.303
X187.324Y-129.697
X189.021Y-125.6
X189.021Y-130.4
X190.1Y-103.5
X190.1Y-152.5
X190.718Y-126.303
X190.718Y-129.697
X190.803Y-101.803
X190.803Y-105.197
X190.803Y-150.803
X190.803Y-154.197
X191.421Y-128.0
X192.5Y-101.1
X192.5Y-105.9
X192.5Y-150.1
X192.5Y-154.9
X194.197Y-101.803
X194.197Y-105.197
X194.197Y-150.803
X194.197Y-154.197
X194.9Y-103.5
X194.9Y-152.5
T3
X134.742Y-127.954
X135.687Y-125.674
X135.687Y-130.234
X137.967Y-124.729
X137.967Y-131.179
X140.247Y-125.674
X140.247Y-130.234
X141.192Y-127.954
T4
X119.33Y-109.184
X121.33Y-103.512
X121.33Y-108.512
X123.33Y-102.84
T5
X145.028Y-104.81
X145.028Y-114.614
X145.028Y-141.056
X145.028Y-150.86
X180.525Y-104.81
X180.525Y-114.614
X180.525Y-141.056
X180.525Y-150.86
T6
X139.72Y-112.811
X150.337Y-142.859
X175.216Y-112.811
X185.833Y-142.859
T7
X103.5Y-103.5
X103.5Y-152.5
X189.021Y-128.0
X192.5Y-103.5
X192.5Y-152.5
T8
X137.967Y-127.954
T4
X107.95Y-111.76G85X107.95Y-113.76
G05
X109.95Y-117.46G85X111.95Y-117.46
G05
X113.95Y-111.76G85X113.95Y-113.76
G05
M30
