G04 #@! TF.GenerationSoftware,KiCad,Pcbnew,8.0.3-8.0.3-0~ubuntu22.04.1*
G04 #@! TF.CreationDate,2024-07-07T23:08:19+03:00*
G04 #@! TF.ProjectId,riaa-preamp,72696161-2d70-4726-9561-6d702e6b6963,rev?*
G04 #@! TF.SameCoordinates,Original*
G04 #@! TF.FileFunction,Paste,Top*
G04 #@! TF.FilePolarity,Positive*
%FSLAX46Y46*%
G04 Gerber Fmt 4.6, Leading zero omitted, Abs format (unit mm)*
G04 Created by KiCad (PCBNEW 8.0.3-8.0.3-0~ubuntu22.04.1) date 2024-07-07 23:08:19*
%MOMM*%
%LPD*%
G01*
G04 APERTURE LIST*
G04 Aperture macros list*
%AMRoundRect*
0 Rectangle with rounded corners*
0 $1 Rounding radius*
0 $2 $3 $4 $5 $6 $7 $8 $9 X,Y pos of 4 corners*
0 Add a 4 corners polygon primitive as box body*
4,1,4,$2,$3,$4,$5,$6,$7,$8,$9,$2,$3,0*
0 Add four circle primitives for the rounded corners*
1,1,$1+$1,$2,$3*
1,1,$1+$1,$4,$5*
1,1,$1+$1,$6,$7*
1,1,$1+$1,$8,$9*
0 Add four rect primitives between the rounded corners*
20,1,$1+$1,$2,$3,$4,$5,0*
20,1,$1+$1,$4,$5,$6,$7,0*
20,1,$1+$1,$6,$7,$8,$9,0*
20,1,$1+$1,$8,$9,$2,$3,0*%
%AMFreePoly0*
4,1,9,3.862500,-0.866500,0.737500,-0.866500,0.737500,-0.450000,-0.737500,-0.450000,-0.737500,0.450000,0.737500,0.450000,0.737500,0.866500,3.862500,0.866500,3.862500,-0.866500,3.862500,-0.866500,$1*%
G04 Aperture macros list end*
%ADD10RoundRect,0.250000X0.450000X-0.350000X0.450000X0.350000X-0.450000X0.350000X-0.450000X-0.350000X0*%
%ADD11RoundRect,0.250000X0.350000X0.450000X-0.350000X0.450000X-0.350000X-0.450000X0.350000X-0.450000X0*%
%ADD12RoundRect,0.150000X-0.825000X-0.150000X0.825000X-0.150000X0.825000X0.150000X-0.825000X0.150000X0*%
%ADD13RoundRect,0.225000X0.225000X-0.425000X0.225000X0.425000X-0.225000X0.425000X-0.225000X-0.425000X0*%
%ADD14FreePoly0,90.000000*%
%ADD15RoundRect,0.250000X0.412500X1.100000X-0.412500X1.100000X-0.412500X-1.100000X0.412500X-1.100000X0*%
%ADD16RoundRect,0.250000X0.412500X0.650000X-0.412500X0.650000X-0.412500X-0.650000X0.412500X-0.650000X0*%
%ADD17RoundRect,0.250000X-0.450000X0.350000X-0.450000X-0.350000X0.450000X-0.350000X0.450000X0.350000X0*%
%ADD18RoundRect,0.250000X-0.350000X-0.450000X0.350000X-0.450000X0.350000X0.450000X-0.350000X0.450000X0*%
%ADD19R,2.200000X1.500000*%
%ADD20RoundRect,0.250000X0.650000X-0.412500X0.650000X0.412500X-0.650000X0.412500X-0.650000X-0.412500X0*%
%ADD21RoundRect,0.250000X-0.650000X0.412500X-0.650000X-0.412500X0.650000X-0.412500X0.650000X0.412500X0*%
%ADD22RoundRect,0.250000X-1.100000X0.412500X-1.100000X-0.412500X1.100000X-0.412500X1.100000X0.412500X0*%
%ADD23RoundRect,0.250000X-0.412500X-0.650000X0.412500X-0.650000X0.412500X0.650000X-0.412500X0.650000X0*%
%ADD24RoundRect,0.250000X-0.650000X1.000000X-0.650000X-1.000000X0.650000X-1.000000X0.650000X1.000000X0*%
G04 APERTURE END LIST*
D10*
X170860000Y-129762000D03*
X170860000Y-127762000D03*
X170860000Y-146272000D03*
X170860000Y-144272000D03*
X156890000Y-115284000D03*
X156890000Y-113284000D03*
D11*
X170336000Y-107680000D03*
X168336000Y-107680000D03*
D10*
X162986000Y-125174000D03*
X162986000Y-123174000D03*
D12*
X160195000Y-127365000D03*
X160195000Y-128635000D03*
X160195000Y-129905000D03*
X160195000Y-131175000D03*
X165145000Y-131175000D03*
X165145000Y-129905000D03*
X165145000Y-128635000D03*
X165145000Y-127365000D03*
D10*
X165272000Y-125174000D03*
X165272000Y-123174000D03*
X170860000Y-112744000D03*
X170860000Y-110744000D03*
X154604000Y-127222000D03*
X154604000Y-125222000D03*
D13*
X109670000Y-142650000D03*
D14*
X111170000Y-142562500D03*
D13*
X112670000Y-142650000D03*
D15*
X170898500Y-120126000D03*
X167773500Y-120126000D03*
D16*
X163786500Y-133842000D03*
X160661500Y-133842000D03*
D17*
X159938000Y-105664000D03*
X159938000Y-107664000D03*
D18*
X157668000Y-153019000D03*
X159668000Y-153019000D03*
D15*
X151340500Y-125460000D03*
X148215500Y-125460000D03*
D16*
X163786500Y-150606000D03*
X160661500Y-150606000D03*
D19*
X117520000Y-120990000D03*
X117520000Y-127390000D03*
D20*
X108630000Y-135277500D03*
X108630000Y-132152500D03*
D17*
X156890000Y-125222000D03*
X156890000Y-127222000D03*
D21*
X111170000Y-123897500D03*
X111170000Y-127022500D03*
D22*
X174416000Y-133295500D03*
X174416000Y-136420500D03*
D16*
X163786500Y-117332000D03*
X160661500Y-117332000D03*
D10*
X168574000Y-133842000D03*
X168574000Y-131842000D03*
D19*
X104820000Y-121015000D03*
X104820000Y-127415000D03*
D10*
X156890000Y-131302000D03*
X156890000Y-129302000D03*
X154604000Y-111220000D03*
X154604000Y-109220000D03*
D16*
X115272500Y-129905000D03*
X112147500Y-129905000D03*
D17*
X168574000Y-144272000D03*
X168574000Y-146272000D03*
D23*
X102622500Y-145780000D03*
X105747500Y-145780000D03*
D24*
X118790000Y-113427000D03*
X118790000Y-117427000D03*
D12*
X111935000Y-132445000D03*
X111935000Y-133715000D03*
X111935000Y-134985000D03*
X111935000Y-136255000D03*
X116885000Y-136255000D03*
X116885000Y-134985000D03*
X116885000Y-133715000D03*
X116885000Y-132445000D03*
D18*
X156398000Y-149844000D03*
X158398000Y-149844000D03*
D11*
X170336000Y-105394000D03*
X168336000Y-105394000D03*
D16*
X170898500Y-136128000D03*
X167773500Y-136128000D03*
D20*
X104820000Y-135277500D03*
X104820000Y-132152500D03*
D11*
X165764000Y-153019000D03*
X163764000Y-153019000D03*
D10*
X147873000Y-130270000D03*
X147873000Y-128270000D03*
D17*
X168574000Y-110744000D03*
X168574000Y-112744000D03*
D10*
X156890000Y-147558000D03*
X156890000Y-145558000D03*
X173654000Y-118840000D03*
X173654000Y-116840000D03*
D22*
X155620000Y-117547500D03*
X155620000Y-120672500D03*
D10*
X170860000Y-116808000D03*
X170860000Y-114808000D03*
X154604000Y-143478000D03*
X154604000Y-141478000D03*
X168574000Y-116808000D03*
X168574000Y-114808000D03*
D17*
X162224000Y-105664000D03*
X162224000Y-107664000D03*
D20*
X151048000Y-131340500D03*
X151048000Y-128215500D03*
D10*
X165272000Y-141684000D03*
X165272000Y-139684000D03*
X154604000Y-131286000D03*
X154604000Y-129286000D03*
D13*
X102685000Y-142650000D03*
D14*
X104185000Y-142562500D03*
D13*
X105685000Y-142650000D03*
D23*
X109900000Y-145780000D03*
X113025000Y-145780000D03*
D17*
X156890000Y-109220000D03*
X156890000Y-111220000D03*
D10*
X154604000Y-115284000D03*
X154604000Y-113284000D03*
X173146000Y-140684000D03*
X173146000Y-138684000D03*
X170860000Y-133826000D03*
X170860000Y-131826000D03*
D16*
X112440000Y-105775000D03*
X109315000Y-105775000D03*
D10*
X162986000Y-141684000D03*
X162986000Y-139684000D03*
D17*
X156890000Y-141478000D03*
X156890000Y-143478000D03*
D10*
X168574000Y-150336000D03*
X168574000Y-148336000D03*
D17*
X168574000Y-127762000D03*
X168574000Y-129762000D03*
D12*
X160195000Y-110855000D03*
X160195000Y-112125000D03*
X160195000Y-113395000D03*
X160195000Y-114665000D03*
X165145000Y-114665000D03*
X165145000Y-113395000D03*
X165145000Y-112125000D03*
X165145000Y-110855000D03*
D10*
X173146000Y-144764000D03*
X173146000Y-142764000D03*
D12*
X160195000Y-143875000D03*
X160195000Y-145145000D03*
X160195000Y-146415000D03*
X160195000Y-147685000D03*
X165145000Y-147685000D03*
X165145000Y-146415000D03*
X165145000Y-145145000D03*
X165145000Y-143875000D03*
D10*
X152318000Y-115284000D03*
X152318000Y-113284000D03*
D16*
X120987500Y-129905000D03*
X117862500Y-129905000D03*
M02*
