G04 #@! TF.FileFunction,Copper,L2,Bot,Signal*
%FSLAX46Y46*%
G04 Gerber Fmt 4.6, Leading zero omitted, Abs format (unit mm)*
G04 Created by KiCad (PCBNEW 4.0.7-e2-6376~58~ubuntu16.04.1) date Sun Apr  8 20:27:37 2018*
%MOMM*%
%LPD*%
G01*
G04 APERTURE LIST*
%ADD10C,0.500000*%
%ADD11C,0.150000*%
%ADD12C,2.350000*%
%ADD13C,1.600000*%
%ADD14O,1.600000X1.600000*%
%ADD15C,2.400000*%
%ADD16R,2.400000X2.400000*%
%ADD17C,1.400000*%
%ADD18R,3.000000X2.000000*%
%ADD19O,3.000000X2.000000*%
%ADD20R,1.800000X1.800000*%
%ADD21O,1.800000X1.800000*%
%ADD22C,6.400000*%
%ADD23C,0.800000*%
%ADD24R,2.200000X2.200000*%
%ADD25O,2.200000X2.200000*%
%ADD26O,2.400000X2.400000*%
%ADD27C,1.440000*%
%ADD28R,2.000000X2.000000*%
%ADD29C,2.000000*%
%ADD30C,0.750000*%
%ADD31C,1.500000*%
%ADD32C,0.254000*%
G04 APERTURE END LIST*
D10*
D11*
X50000000Y-50000000D02*
X50000000Y-100000000D01*
X100000000Y-50000000D02*
X100000000Y-100000000D01*
X50000000Y-100000000D02*
X100000000Y-100000000D01*
X50000000Y-50000000D02*
X100000000Y-50000000D01*
D12*
X92780000Y-66030000D03*
X92780000Y-60950000D03*
X92780000Y-76270000D03*
X92780000Y-81350000D03*
X90240000Y-63490000D03*
X95320000Y-63490000D03*
X90240000Y-78810000D03*
X95320000Y-78810000D03*
D13*
X81985000Y-63570000D03*
D14*
X74365000Y-63570000D03*
D15*
X76750000Y-54745000D03*
D16*
X73250000Y-54745000D03*
D15*
X75000000Y-95255000D03*
D16*
X78500000Y-95255000D03*
D15*
X71500000Y-95255000D03*
D17*
X59760000Y-63570000D03*
X58490000Y-64840000D03*
X58490000Y-62300000D03*
D13*
X66745000Y-71190000D03*
D14*
X59125000Y-71190000D03*
D13*
X71190000Y-63570000D03*
D14*
X63570000Y-63570000D03*
D13*
X78175000Y-60395000D03*
D14*
X70555000Y-60395000D03*
D18*
X71190000Y-68650000D03*
D19*
X78810000Y-76270000D03*
X71190000Y-71190000D03*
X78810000Y-73730000D03*
X71190000Y-73730000D03*
X78810000Y-71190000D03*
X71190000Y-76270000D03*
X78810000Y-68650000D03*
D20*
X83890000Y-53410000D03*
D21*
X86430000Y-53410000D03*
X88970000Y-53410000D03*
D20*
X61030000Y-53410000D03*
D21*
X63570000Y-53410000D03*
X66110000Y-53410000D03*
D22*
X53410000Y-53410000D03*
D23*
X55810000Y-53410000D03*
X55107056Y-55107056D03*
X53410000Y-55810000D03*
X51712944Y-55107056D03*
X51010000Y-53410000D03*
X51712944Y-51712944D03*
X53410000Y-51010000D03*
X55107056Y-51712944D03*
D22*
X96590000Y-53410000D03*
D23*
X98990000Y-53410000D03*
X98287056Y-55107056D03*
X96590000Y-55810000D03*
X94892944Y-55107056D03*
X94190000Y-53410000D03*
X94892944Y-51712944D03*
X96590000Y-51010000D03*
X98287056Y-51712944D03*
D22*
X53410000Y-96590000D03*
D23*
X55810000Y-96590000D03*
X55107056Y-98287056D03*
X53410000Y-98990000D03*
X51712944Y-98287056D03*
X51010000Y-96590000D03*
X51712944Y-94892944D03*
X53410000Y-94190000D03*
X55107056Y-94892944D03*
D22*
X96590000Y-96590000D03*
D23*
X98990000Y-96590000D03*
X98287056Y-98287056D03*
X96590000Y-98990000D03*
X94892944Y-98287056D03*
X94190000Y-96590000D03*
X94892944Y-94892944D03*
X96590000Y-94190000D03*
X98287056Y-94892944D03*
D24*
X86430000Y-76270000D03*
D25*
X86430000Y-86430000D03*
D24*
X63570000Y-86430000D03*
D25*
X63570000Y-76270000D03*
D16*
X82620000Y-81350000D03*
D26*
X67380000Y-81350000D03*
D27*
X57220000Y-81350000D03*
X57220000Y-78810000D03*
X57220000Y-76270000D03*
D28*
X86430000Y-96590000D03*
D29*
X86430000Y-91590000D03*
D28*
X63570000Y-91510000D03*
D29*
X63570000Y-96510000D03*
D13*
X77540000Y-86430000D03*
X82540000Y-86430000D03*
X67380000Y-86430000D03*
X72380000Y-86430000D03*
D30*
X59760000Y-63570000D02*
X63570000Y-63570000D01*
X71190000Y-63570000D02*
X71190000Y-68650000D01*
D31*
X90240000Y-63490000D02*
X92780000Y-60950000D01*
X95320000Y-63490000D02*
X92780000Y-60950000D01*
X92780000Y-66030000D02*
X95320000Y-63490000D01*
X90240000Y-63490000D02*
X92780000Y-66030000D01*
X76750000Y-54745000D02*
X76970000Y-54745000D01*
X86510000Y-59760000D02*
X90240000Y-63490000D01*
X81985000Y-59760000D02*
X86510000Y-59760000D01*
X76970000Y-54745000D02*
X81985000Y-59760000D01*
X92780000Y-81350000D02*
X90240000Y-78810000D01*
X92780000Y-81350000D02*
X95320000Y-78810000D01*
X92780000Y-76270000D02*
X95320000Y-78810000D01*
X90240000Y-78810000D02*
X92780000Y-76270000D01*
D30*
X71190000Y-73730000D02*
X70174000Y-73730000D01*
X57220000Y-76270000D02*
X57220000Y-73095000D01*
X57220000Y-73095000D02*
X59125000Y-71190000D01*
X57220000Y-76270000D02*
X57220000Y-75635000D01*
X78810000Y-73730000D02*
X78810000Y-71190000D01*
X83890000Y-53410000D02*
X78810000Y-53410000D01*
X70555000Y-53537000D02*
X70555000Y-60395000D01*
X71444000Y-52648000D02*
X70555000Y-53537000D01*
X78048000Y-52648000D02*
X71444000Y-52648000D01*
X78810000Y-53410000D02*
X78048000Y-52648000D01*
X70555000Y-60395000D02*
X70555000Y-60395000D01*
X70555000Y-60395000D02*
X64205000Y-60395000D01*
X64205000Y-60395000D02*
X61030000Y-57220000D01*
X58490000Y-64840000D02*
X56585000Y-62935000D01*
X56585000Y-62935000D02*
X56585000Y-61665000D01*
X56585000Y-61665000D02*
X61030000Y-57220000D01*
X61030000Y-57220000D02*
X61030000Y-53410000D01*
X66745000Y-71190000D02*
X71190000Y-71190000D01*
X71190000Y-71190000D02*
X74365000Y-71190000D01*
X78810000Y-76270000D02*
X76270000Y-76270000D01*
X76270000Y-76270000D02*
X74365000Y-74365000D01*
X74365000Y-74365000D02*
X74365000Y-71190000D01*
X74365000Y-71190000D02*
X74365000Y-63570000D01*
D10*
X74365000Y-63570000D02*
X74295000Y-63640000D01*
D32*
G36*
X93340741Y-51234811D02*
X92755667Y-52643825D01*
X92754336Y-54169482D01*
X93336950Y-55579515D01*
X94414811Y-56659259D01*
X95823825Y-57244333D01*
X97349482Y-57245664D01*
X98759515Y-56663050D01*
X99290000Y-56133490D01*
X99290000Y-93866469D01*
X98765189Y-93340741D01*
X97356175Y-92755667D01*
X95830518Y-92754336D01*
X94420485Y-93336950D01*
X93340741Y-94414811D01*
X92755667Y-95823825D01*
X92754336Y-97349482D01*
X93336950Y-98759515D01*
X93866510Y-99290000D01*
X56133531Y-99290000D01*
X56659259Y-98765189D01*
X57244333Y-97356175D01*
X57244788Y-96833795D01*
X61934716Y-96833795D01*
X62183106Y-97434943D01*
X62642637Y-97895278D01*
X63243352Y-98144716D01*
X63893795Y-98145284D01*
X64494943Y-97896894D01*
X64955278Y-97437363D01*
X65204716Y-96836648D01*
X65205284Y-96186205D01*
X64970673Y-95618403D01*
X69664682Y-95618403D01*
X69943455Y-96293086D01*
X70459199Y-96809730D01*
X71133395Y-97089681D01*
X71863403Y-97090318D01*
X72538086Y-96811545D01*
X72797908Y-96552175D01*
X73882430Y-96552175D01*
X74005565Y-96839788D01*
X74687734Y-97099707D01*
X75417443Y-97078786D01*
X75994435Y-96839788D01*
X76117570Y-96552175D01*
X75000000Y-95434605D01*
X73882430Y-96552175D01*
X72797908Y-96552175D01*
X73054730Y-96295801D01*
X73244808Y-95838043D01*
X73415212Y-96249435D01*
X73702825Y-96372570D01*
X74820395Y-95255000D01*
X75179605Y-95255000D01*
X76297175Y-96372570D01*
X76584788Y-96249435D01*
X76652560Y-96071564D01*
X76652560Y-96455000D01*
X76696838Y-96690317D01*
X76835910Y-96906441D01*
X77048110Y-97051431D01*
X77300000Y-97102440D01*
X79700000Y-97102440D01*
X79935317Y-97058162D01*
X80151441Y-96919090D01*
X80296431Y-96706890D01*
X80347440Y-96455000D01*
X80347440Y-95590000D01*
X84782560Y-95590000D01*
X84782560Y-97590000D01*
X84826838Y-97825317D01*
X84965910Y-98041441D01*
X85178110Y-98186431D01*
X85430000Y-98237440D01*
X87430000Y-98237440D01*
X87665317Y-98193162D01*
X87881441Y-98054090D01*
X88026431Y-97841890D01*
X88077440Y-97590000D01*
X88077440Y-95590000D01*
X88033162Y-95354683D01*
X87894090Y-95138559D01*
X87681890Y-94993569D01*
X87430000Y-94942560D01*
X85430000Y-94942560D01*
X85194683Y-94986838D01*
X84978559Y-95125910D01*
X84833569Y-95338110D01*
X84782560Y-95590000D01*
X80347440Y-95590000D01*
X80347440Y-94055000D01*
X80303162Y-93819683D01*
X80164090Y-93603559D01*
X79951890Y-93458569D01*
X79700000Y-93407560D01*
X77300000Y-93407560D01*
X77064683Y-93451838D01*
X76848559Y-93590910D01*
X76703569Y-93803110D01*
X76652560Y-94055000D01*
X76652560Y-94424181D01*
X76584788Y-94260565D01*
X76297175Y-94137430D01*
X75179605Y-95255000D01*
X74820395Y-95255000D01*
X73702825Y-94137430D01*
X73415212Y-94260565D01*
X73251796Y-94689458D01*
X73056545Y-94216914D01*
X72797908Y-93957825D01*
X73882430Y-93957825D01*
X75000000Y-95075395D01*
X76117570Y-93957825D01*
X75994435Y-93670212D01*
X75312266Y-93410293D01*
X74582557Y-93431214D01*
X74005565Y-93670212D01*
X73882430Y-93957825D01*
X72797908Y-93957825D01*
X72540801Y-93700270D01*
X71866605Y-93420319D01*
X71136597Y-93419682D01*
X70461914Y-93698455D01*
X69945270Y-94214199D01*
X69665319Y-94888395D01*
X69664682Y-95618403D01*
X64970673Y-95618403D01*
X64956894Y-95585057D01*
X64497363Y-95124722D01*
X63896648Y-94875284D01*
X63246205Y-94874716D01*
X62645057Y-95123106D01*
X62184722Y-95582637D01*
X61935284Y-96183352D01*
X61934716Y-96833795D01*
X57244788Y-96833795D01*
X57245664Y-95830518D01*
X56663050Y-94420485D01*
X55585189Y-93340741D01*
X54176175Y-92755667D01*
X52650518Y-92754336D01*
X51240485Y-93336950D01*
X50710000Y-93866510D01*
X50710000Y-91795750D01*
X61935000Y-91795750D01*
X61935000Y-92636309D01*
X62031673Y-92869698D01*
X62210301Y-93048327D01*
X62443690Y-93145000D01*
X63284250Y-93145000D01*
X63443000Y-92986250D01*
X63443000Y-91637000D01*
X63697000Y-91637000D01*
X63697000Y-92986250D01*
X63855750Y-93145000D01*
X64696310Y-93145000D01*
X64929699Y-93048327D01*
X65108327Y-92869698D01*
X65161000Y-92742532D01*
X85457073Y-92742532D01*
X85555736Y-93009387D01*
X86165461Y-93235908D01*
X86815460Y-93211856D01*
X87304264Y-93009387D01*
X87402927Y-92742532D01*
X86430000Y-91769605D01*
X85457073Y-92742532D01*
X65161000Y-92742532D01*
X65205000Y-92636309D01*
X65205000Y-91795750D01*
X65046250Y-91637000D01*
X63697000Y-91637000D01*
X63443000Y-91637000D01*
X62093750Y-91637000D01*
X61935000Y-91795750D01*
X50710000Y-91795750D01*
X50710000Y-90383691D01*
X61935000Y-90383691D01*
X61935000Y-91224250D01*
X62093750Y-91383000D01*
X63443000Y-91383000D01*
X63443000Y-90033750D01*
X63697000Y-90033750D01*
X63697000Y-91383000D01*
X65046250Y-91383000D01*
X65103789Y-91325461D01*
X84784092Y-91325461D01*
X84808144Y-91975460D01*
X85010613Y-92464264D01*
X85277468Y-92562927D01*
X86250395Y-91590000D01*
X86609605Y-91590000D01*
X87582532Y-92562927D01*
X87849387Y-92464264D01*
X88075908Y-91854539D01*
X88051856Y-91204540D01*
X87849387Y-90715736D01*
X87582532Y-90617073D01*
X86609605Y-91590000D01*
X86250395Y-91590000D01*
X85277468Y-90617073D01*
X85010613Y-90715736D01*
X84784092Y-91325461D01*
X65103789Y-91325461D01*
X65205000Y-91224250D01*
X65205000Y-90437468D01*
X85457073Y-90437468D01*
X86430000Y-91410395D01*
X87402927Y-90437468D01*
X87304264Y-90170613D01*
X86694539Y-89944092D01*
X86044540Y-89968144D01*
X85555736Y-90170613D01*
X85457073Y-90437468D01*
X65205000Y-90437468D01*
X65205000Y-90383691D01*
X65108327Y-90150302D01*
X64929699Y-89971673D01*
X64696310Y-89875000D01*
X63855750Y-89875000D01*
X63697000Y-90033750D01*
X63443000Y-90033750D01*
X63284250Y-89875000D01*
X62443690Y-89875000D01*
X62210301Y-89971673D01*
X62031673Y-90150302D01*
X61935000Y-90383691D01*
X50710000Y-90383691D01*
X50710000Y-86715750D01*
X61835000Y-86715750D01*
X61835000Y-87656309D01*
X61931673Y-87889698D01*
X62110301Y-88068327D01*
X62343690Y-88165000D01*
X63284250Y-88165000D01*
X63443000Y-88006250D01*
X63443000Y-86557000D01*
X63697000Y-86557000D01*
X63697000Y-88006250D01*
X63855750Y-88165000D01*
X64796310Y-88165000D01*
X65029699Y-88068327D01*
X65208327Y-87889698D01*
X65305000Y-87656309D01*
X65305000Y-87437745D01*
X66551861Y-87437745D01*
X66625995Y-87683864D01*
X67163223Y-87876965D01*
X67733454Y-87849778D01*
X68134005Y-87683864D01*
X68208139Y-87437745D01*
X67380000Y-86609605D01*
X66551861Y-87437745D01*
X65305000Y-87437745D01*
X65305000Y-86715750D01*
X65146250Y-86557000D01*
X63697000Y-86557000D01*
X63443000Y-86557000D01*
X61993750Y-86557000D01*
X61835000Y-86715750D01*
X50710000Y-86715750D01*
X50710000Y-85203691D01*
X61835000Y-85203691D01*
X61835000Y-86144250D01*
X61993750Y-86303000D01*
X63443000Y-86303000D01*
X63443000Y-84853750D01*
X63697000Y-84853750D01*
X63697000Y-86303000D01*
X65146250Y-86303000D01*
X65236027Y-86213223D01*
X65933035Y-86213223D01*
X65960222Y-86783454D01*
X66126136Y-87184005D01*
X66372255Y-87258139D01*
X67200395Y-86430000D01*
X67559605Y-86430000D01*
X68387745Y-87258139D01*
X68633864Y-87184005D01*
X68802735Y-86714187D01*
X70944752Y-86714187D01*
X71162757Y-87241800D01*
X71566077Y-87645824D01*
X72093309Y-87864750D01*
X72664187Y-87865248D01*
X73191800Y-87647243D01*
X73595824Y-87243923D01*
X73814750Y-86716691D01*
X73814752Y-86714187D01*
X76104752Y-86714187D01*
X76322757Y-87241800D01*
X76726077Y-87645824D01*
X77253309Y-87864750D01*
X77824187Y-87865248D01*
X78351800Y-87647243D01*
X78561663Y-87437745D01*
X81711861Y-87437745D01*
X81785995Y-87683864D01*
X82323223Y-87876965D01*
X82893454Y-87849778D01*
X83294005Y-87683864D01*
X83368139Y-87437745D01*
X82540000Y-86609605D01*
X81711861Y-87437745D01*
X78561663Y-87437745D01*
X78755824Y-87243923D01*
X78974750Y-86716691D01*
X78975189Y-86213223D01*
X81093035Y-86213223D01*
X81120222Y-86783454D01*
X81286136Y-87184005D01*
X81532255Y-87258139D01*
X82360395Y-86430000D01*
X82719605Y-86430000D01*
X83547745Y-87258139D01*
X83793864Y-87184005D01*
X83922500Y-86826123D01*
X84740817Y-86826123D01*
X85020988Y-87442392D01*
X85515668Y-87904534D01*
X86033878Y-88119175D01*
X86303000Y-88001125D01*
X86303000Y-86557000D01*
X86557000Y-86557000D01*
X86557000Y-88001125D01*
X86826122Y-88119175D01*
X87344332Y-87904534D01*
X87839012Y-87442392D01*
X88119183Y-86826123D01*
X88001604Y-86557000D01*
X86557000Y-86557000D01*
X86303000Y-86557000D01*
X84858396Y-86557000D01*
X84740817Y-86826123D01*
X83922500Y-86826123D01*
X83986965Y-86646777D01*
X83959778Y-86076546D01*
X83942104Y-86033877D01*
X84740817Y-86033877D01*
X84858396Y-86303000D01*
X86303000Y-86303000D01*
X86303000Y-84858875D01*
X86557000Y-84858875D01*
X86557000Y-86303000D01*
X88001604Y-86303000D01*
X88119183Y-86033877D01*
X87839012Y-85417608D01*
X87344332Y-84955466D01*
X86826122Y-84740825D01*
X86557000Y-84858875D01*
X86303000Y-84858875D01*
X86033878Y-84740825D01*
X85515668Y-84955466D01*
X85020988Y-85417608D01*
X84740817Y-86033877D01*
X83942104Y-86033877D01*
X83793864Y-85675995D01*
X83547745Y-85601861D01*
X82719605Y-86430000D01*
X82360395Y-86430000D01*
X81532255Y-85601861D01*
X81286136Y-85675995D01*
X81093035Y-86213223D01*
X78975189Y-86213223D01*
X78975248Y-86145813D01*
X78757243Y-85618200D01*
X78561640Y-85422255D01*
X81711861Y-85422255D01*
X82540000Y-86250395D01*
X83368139Y-85422255D01*
X83294005Y-85176136D01*
X82756777Y-84983035D01*
X82186546Y-85010222D01*
X81785995Y-85176136D01*
X81711861Y-85422255D01*
X78561640Y-85422255D01*
X78353923Y-85214176D01*
X77826691Y-84995250D01*
X77255813Y-84994752D01*
X76728200Y-85212757D01*
X76324176Y-85616077D01*
X76105250Y-86143309D01*
X76104752Y-86714187D01*
X73814752Y-86714187D01*
X73815248Y-86145813D01*
X73597243Y-85618200D01*
X73193923Y-85214176D01*
X72666691Y-84995250D01*
X72095813Y-84994752D01*
X71568200Y-85212757D01*
X71164176Y-85616077D01*
X70945250Y-86143309D01*
X70944752Y-86714187D01*
X68802735Y-86714187D01*
X68826965Y-86646777D01*
X68799778Y-86076546D01*
X68633864Y-85675995D01*
X68387745Y-85601861D01*
X67559605Y-86430000D01*
X67200395Y-86430000D01*
X66372255Y-85601861D01*
X66126136Y-85675995D01*
X65933035Y-86213223D01*
X65236027Y-86213223D01*
X65305000Y-86144250D01*
X65305000Y-85422255D01*
X66551861Y-85422255D01*
X67380000Y-86250395D01*
X68208139Y-85422255D01*
X68134005Y-85176136D01*
X67596777Y-84983035D01*
X67026546Y-85010222D01*
X66625995Y-85176136D01*
X66551861Y-85422255D01*
X65305000Y-85422255D01*
X65305000Y-85203691D01*
X65208327Y-84970302D01*
X65029699Y-84791673D01*
X64796310Y-84695000D01*
X63855750Y-84695000D01*
X63697000Y-84853750D01*
X63443000Y-84853750D01*
X63284250Y-84695000D01*
X62343690Y-84695000D01*
X62110301Y-84791673D01*
X61931673Y-84970302D01*
X61835000Y-85203691D01*
X50710000Y-85203691D01*
X50710000Y-76538344D01*
X55864765Y-76538344D01*
X56070617Y-77036543D01*
X56451452Y-77418043D01*
X56745264Y-77540045D01*
X56453457Y-77660617D01*
X56071957Y-78041452D01*
X55865236Y-78539291D01*
X55864765Y-79078344D01*
X56070617Y-79576543D01*
X56451452Y-79958043D01*
X56745264Y-80080045D01*
X56453457Y-80200617D01*
X56071957Y-80581452D01*
X55865236Y-81079291D01*
X55864765Y-81618344D01*
X56070617Y-82116543D01*
X56451452Y-82498043D01*
X56949291Y-82704764D01*
X57488344Y-82705235D01*
X57986543Y-82499383D01*
X58368043Y-82118548D01*
X58574764Y-81620709D01*
X58575000Y-81350000D01*
X65509050Y-81350000D01*
X65648731Y-82052224D01*
X66046509Y-82647541D01*
X66641826Y-83045319D01*
X67344050Y-83185000D01*
X67415950Y-83185000D01*
X68118174Y-83045319D01*
X68713491Y-82647541D01*
X69111269Y-82052224D01*
X69250950Y-81350000D01*
X69111269Y-80647776D01*
X68778666Y-80150000D01*
X80772560Y-80150000D01*
X80772560Y-82550000D01*
X80816838Y-82785317D01*
X80955910Y-83001441D01*
X81168110Y-83146431D01*
X81420000Y-83197440D01*
X83820000Y-83197440D01*
X84055317Y-83153162D01*
X84271441Y-83014090D01*
X84416431Y-82801890D01*
X84467440Y-82550000D01*
X84467440Y-80150000D01*
X84423162Y-79914683D01*
X84284090Y-79698559D01*
X84071890Y-79553569D01*
X83820000Y-79502560D01*
X81420000Y-79502560D01*
X81184683Y-79546838D01*
X80968559Y-79685910D01*
X80823569Y-79898110D01*
X80772560Y-80150000D01*
X68778666Y-80150000D01*
X68713491Y-80052459D01*
X68118174Y-79654681D01*
X67415950Y-79515000D01*
X67344050Y-79515000D01*
X66641826Y-79654681D01*
X66046509Y-80052459D01*
X65648731Y-80647776D01*
X65509050Y-81350000D01*
X58575000Y-81350000D01*
X58575235Y-81081656D01*
X58369383Y-80583457D01*
X57988548Y-80201957D01*
X57694736Y-80079955D01*
X57986543Y-79959383D01*
X58368043Y-79578548D01*
X58538329Y-79168452D01*
X88429686Y-79168452D01*
X88704662Y-79833943D01*
X89213379Y-80343549D01*
X89878389Y-80619685D01*
X90091185Y-80619871D01*
X90969869Y-81498555D01*
X90969686Y-81708452D01*
X91244662Y-82373943D01*
X91753379Y-82883549D01*
X92418389Y-83159685D01*
X93138452Y-83160314D01*
X93803943Y-82885338D01*
X94313549Y-82376621D01*
X94589685Y-81711611D01*
X94589871Y-81498815D01*
X95468555Y-80620131D01*
X95678452Y-80620314D01*
X96343943Y-80345338D01*
X96853549Y-79836621D01*
X97129685Y-79171611D01*
X97130314Y-78451548D01*
X96855338Y-77786057D01*
X96346621Y-77276451D01*
X95681611Y-77000315D01*
X95468815Y-77000129D01*
X94590131Y-76121445D01*
X94590314Y-75911548D01*
X94315338Y-75246057D01*
X93806621Y-74736451D01*
X93141611Y-74460315D01*
X92421548Y-74459686D01*
X91756057Y-74734662D01*
X91246451Y-75243379D01*
X90970315Y-75908389D01*
X90970129Y-76121185D01*
X90091445Y-76999869D01*
X89881548Y-76999686D01*
X89216057Y-77274662D01*
X88706451Y-77783379D01*
X88430315Y-78448389D01*
X88429686Y-79168452D01*
X58538329Y-79168452D01*
X58574764Y-79080709D01*
X58575235Y-78541656D01*
X58369383Y-78043457D01*
X57988548Y-77661957D01*
X57694736Y-77539955D01*
X57986543Y-77419383D01*
X58368043Y-77038548D01*
X58574764Y-76540709D01*
X58575030Y-76236009D01*
X61835000Y-76236009D01*
X61835000Y-76303991D01*
X61967069Y-76967947D01*
X62343170Y-77530821D01*
X62906044Y-77906922D01*
X63570000Y-78038991D01*
X64233956Y-77906922D01*
X64796830Y-77530821D01*
X65172931Y-76967947D01*
X65305000Y-76303991D01*
X65305000Y-76270000D01*
X69013173Y-76270000D01*
X69137630Y-76895687D01*
X69492053Y-77426120D01*
X70022486Y-77780543D01*
X70648173Y-77905000D01*
X71731827Y-77905000D01*
X72357514Y-77780543D01*
X72887947Y-77426120D01*
X73242370Y-76895687D01*
X73366827Y-76270000D01*
X73242370Y-75644313D01*
X72887947Y-75113880D01*
X72695611Y-74985366D01*
X72935922Y-74796317D01*
X73249144Y-74238355D01*
X73280124Y-74110434D01*
X73160777Y-73857000D01*
X71317000Y-73857000D01*
X71317000Y-73877000D01*
X71063000Y-73877000D01*
X71063000Y-73857000D01*
X69219223Y-73857000D01*
X69099876Y-74110434D01*
X69130856Y-74238355D01*
X69444078Y-74796317D01*
X69684389Y-74985366D01*
X69492053Y-75113880D01*
X69137630Y-75644313D01*
X69013173Y-76270000D01*
X65305000Y-76270000D01*
X65305000Y-76236009D01*
X65172931Y-75572053D01*
X64796830Y-75009179D01*
X64233956Y-74633078D01*
X63570000Y-74501009D01*
X62906044Y-74633078D01*
X62343170Y-75009179D01*
X61967069Y-75572053D01*
X61835000Y-76236009D01*
X58575030Y-76236009D01*
X58575235Y-76001656D01*
X58369383Y-75503457D01*
X58230000Y-75363831D01*
X58230000Y-73513356D01*
X59118356Y-72625000D01*
X59153113Y-72625000D01*
X59702264Y-72515767D01*
X60167811Y-72204698D01*
X60478880Y-71739151D01*
X60531584Y-71474187D01*
X65309752Y-71474187D01*
X65527757Y-72001800D01*
X65931077Y-72405824D01*
X66458309Y-72624750D01*
X67029187Y-72625248D01*
X67556800Y-72407243D01*
X67764405Y-72200000D01*
X69394419Y-72200000D01*
X69492053Y-72346120D01*
X69684389Y-72474634D01*
X69444078Y-72663683D01*
X69130856Y-73221645D01*
X69099876Y-73349566D01*
X69219223Y-73603000D01*
X71063000Y-73603000D01*
X71063000Y-73583000D01*
X71317000Y-73583000D01*
X71317000Y-73603000D01*
X73160777Y-73603000D01*
X73280124Y-73349566D01*
X73249144Y-73221645D01*
X72935922Y-72663683D01*
X72695611Y-72474634D01*
X72887947Y-72346120D01*
X72985581Y-72200000D01*
X73355000Y-72200000D01*
X73355000Y-74365000D01*
X73431882Y-74751510D01*
X73650822Y-75079178D01*
X75555822Y-76984178D01*
X75883490Y-77203118D01*
X76270000Y-77280000D01*
X77014419Y-77280000D01*
X77112053Y-77426120D01*
X77642486Y-77780543D01*
X78268173Y-77905000D01*
X79351827Y-77905000D01*
X79977514Y-77780543D01*
X80507947Y-77426120D01*
X80862370Y-76895687D01*
X80986827Y-76270000D01*
X80862370Y-75644313D01*
X80545446Y-75170000D01*
X84682560Y-75170000D01*
X84682560Y-77370000D01*
X84726838Y-77605317D01*
X84865910Y-77821441D01*
X85078110Y-77966431D01*
X85330000Y-78017440D01*
X87530000Y-78017440D01*
X87765317Y-77973162D01*
X87981441Y-77834090D01*
X88126431Y-77621890D01*
X88177440Y-77370000D01*
X88177440Y-75170000D01*
X88133162Y-74934683D01*
X87994090Y-74718559D01*
X87781890Y-74573569D01*
X87530000Y-74522560D01*
X85330000Y-74522560D01*
X85094683Y-74566838D01*
X84878559Y-74705910D01*
X84733569Y-74918110D01*
X84682560Y-75170000D01*
X80545446Y-75170000D01*
X80507947Y-75113880D01*
X80337513Y-75000000D01*
X80507947Y-74886120D01*
X80862370Y-74355687D01*
X80986827Y-73730000D01*
X80862370Y-73104313D01*
X80507947Y-72573880D01*
X80337513Y-72460000D01*
X80507947Y-72346120D01*
X80862370Y-71815687D01*
X80986827Y-71190000D01*
X80862370Y-70564313D01*
X80507947Y-70033880D01*
X80337513Y-69920000D01*
X80507947Y-69806120D01*
X80862370Y-69275687D01*
X80986827Y-68650000D01*
X80862370Y-68024313D01*
X80507947Y-67493880D01*
X79977514Y-67139457D01*
X79351827Y-67015000D01*
X78268173Y-67015000D01*
X77642486Y-67139457D01*
X77112053Y-67493880D01*
X76757630Y-68024313D01*
X76633173Y-68650000D01*
X76757630Y-69275687D01*
X77112053Y-69806120D01*
X77282487Y-69920000D01*
X77112053Y-70033880D01*
X76757630Y-70564313D01*
X76633173Y-71190000D01*
X76757630Y-71815687D01*
X77112053Y-72346120D01*
X77282487Y-72460000D01*
X77112053Y-72573880D01*
X76757630Y-73104313D01*
X76633173Y-73730000D01*
X76757630Y-74355687D01*
X77112053Y-74886120D01*
X77282487Y-75000000D01*
X77112053Y-75113880D01*
X77014419Y-75260000D01*
X76688356Y-75260000D01*
X75375000Y-73946644D01*
X75375000Y-64606622D01*
X75407811Y-64584698D01*
X75718880Y-64119151D01*
X75771584Y-63854187D01*
X80549752Y-63854187D01*
X80767757Y-64381800D01*
X81171077Y-64785824D01*
X81698309Y-65004750D01*
X82269187Y-65005248D01*
X82796800Y-64787243D01*
X83200824Y-64383923D01*
X83419750Y-63856691D01*
X83420248Y-63285813D01*
X83202243Y-62758200D01*
X82798923Y-62354176D01*
X82271691Y-62135250D01*
X81700813Y-62134752D01*
X81173200Y-62352757D01*
X80769176Y-62756077D01*
X80550250Y-63283309D01*
X80549752Y-63854187D01*
X75771584Y-63854187D01*
X75828113Y-63570000D01*
X75718880Y-63020849D01*
X75407811Y-62555302D01*
X74942264Y-62244233D01*
X74393113Y-62135000D01*
X74336887Y-62135000D01*
X73787736Y-62244233D01*
X73322189Y-62555302D01*
X73011120Y-63020849D01*
X72901887Y-63570000D01*
X73011120Y-64119151D01*
X73322189Y-64584698D01*
X73355000Y-64606622D01*
X73355000Y-70180000D01*
X73039014Y-70180000D01*
X73141441Y-70114090D01*
X73286431Y-69901890D01*
X73337440Y-69650000D01*
X73337440Y-67650000D01*
X73293162Y-67414683D01*
X73154090Y-67198559D01*
X72941890Y-67053569D01*
X72690000Y-67002560D01*
X72200000Y-67002560D01*
X72200000Y-64589388D01*
X72405824Y-64383923D01*
X72624750Y-63856691D01*
X72625248Y-63285813D01*
X72407243Y-62758200D01*
X72003923Y-62354176D01*
X71476691Y-62135250D01*
X70905813Y-62134752D01*
X70378200Y-62352757D01*
X69974176Y-62756077D01*
X69755250Y-63283309D01*
X69754752Y-63854187D01*
X69972757Y-64381800D01*
X70180000Y-64589405D01*
X70180000Y-67002560D01*
X69690000Y-67002560D01*
X69454683Y-67046838D01*
X69238559Y-67185910D01*
X69093569Y-67398110D01*
X69042560Y-67650000D01*
X69042560Y-69650000D01*
X69086838Y-69885317D01*
X69225910Y-70101441D01*
X69340885Y-70180000D01*
X67764388Y-70180000D01*
X67558923Y-69974176D01*
X67031691Y-69755250D01*
X66460813Y-69754752D01*
X65933200Y-69972757D01*
X65529176Y-70376077D01*
X65310250Y-70903309D01*
X65309752Y-71474187D01*
X60531584Y-71474187D01*
X60588113Y-71190000D01*
X60478880Y-70640849D01*
X60167811Y-70175302D01*
X59702264Y-69864233D01*
X59153113Y-69755000D01*
X59096887Y-69755000D01*
X58547736Y-69864233D01*
X58082189Y-70175302D01*
X57771120Y-70640849D01*
X57661887Y-71190000D01*
X57667654Y-71218990D01*
X56505822Y-72380822D01*
X56286882Y-72708490D01*
X56210000Y-73095000D01*
X56210000Y-75363650D01*
X56071957Y-75501452D01*
X55865236Y-75999291D01*
X55864765Y-76538344D01*
X50710000Y-76538344D01*
X50710000Y-61665000D01*
X55575000Y-61665000D01*
X55575000Y-62935000D01*
X55651882Y-63321510D01*
X55870822Y-63649178D01*
X57154918Y-64933274D01*
X57154769Y-65104383D01*
X57357582Y-65595229D01*
X57732796Y-65971098D01*
X58223287Y-66174768D01*
X58754383Y-66175231D01*
X59245229Y-65972418D01*
X59621098Y-65597204D01*
X59824768Y-65106713D01*
X59824944Y-64905057D01*
X60024383Y-64905231D01*
X60515229Y-64702418D01*
X60637861Y-64580000D01*
X62524050Y-64580000D01*
X62527189Y-64584698D01*
X62992736Y-64895767D01*
X63541887Y-65005000D01*
X63598113Y-65005000D01*
X64147264Y-64895767D01*
X64612811Y-64584698D01*
X64923880Y-64119151D01*
X65033113Y-63570000D01*
X64923880Y-63020849D01*
X64612811Y-62555302D01*
X64147264Y-62244233D01*
X63598113Y-62135000D01*
X63541887Y-62135000D01*
X62992736Y-62244233D01*
X62527189Y-62555302D01*
X62524050Y-62560000D01*
X60638091Y-62560000D01*
X60517204Y-62438902D01*
X60026713Y-62235232D01*
X59825057Y-62235056D01*
X59825231Y-62035617D01*
X59622418Y-61544771D01*
X59247204Y-61168902D01*
X58756713Y-60965232D01*
X58713162Y-60965194D01*
X61030000Y-58648356D01*
X63490822Y-61109178D01*
X63818490Y-61328118D01*
X64205000Y-61405000D01*
X69509050Y-61405000D01*
X69512189Y-61409698D01*
X69977736Y-61720767D01*
X70526887Y-61830000D01*
X70583113Y-61830000D01*
X71132264Y-61720767D01*
X71597811Y-61409698D01*
X71908880Y-60944151D01*
X71961584Y-60679187D01*
X76739752Y-60679187D01*
X76957757Y-61206800D01*
X77361077Y-61610824D01*
X77888309Y-61829750D01*
X78459187Y-61830248D01*
X78986800Y-61612243D01*
X79390824Y-61208923D01*
X79609750Y-60681691D01*
X79610248Y-60110813D01*
X79392243Y-59583200D01*
X78988923Y-59179176D01*
X78461691Y-58960250D01*
X77890813Y-58959752D01*
X77363200Y-59177757D01*
X76959176Y-59581077D01*
X76740250Y-60108309D01*
X76739752Y-60679187D01*
X71961584Y-60679187D01*
X72018113Y-60395000D01*
X71908880Y-59845849D01*
X71597811Y-59380302D01*
X71565000Y-59358378D01*
X71565000Y-56363946D01*
X71585910Y-56396441D01*
X71798110Y-56541431D01*
X72050000Y-56592440D01*
X74450000Y-56592440D01*
X74685317Y-56548162D01*
X74901441Y-56409090D01*
X75046431Y-56196890D01*
X75097440Y-55945000D01*
X75097440Y-55550712D01*
X75193455Y-55783086D01*
X75709199Y-56299730D01*
X76383395Y-56579681D01*
X76846399Y-56580085D01*
X81005657Y-60739343D01*
X81454983Y-61039573D01*
X81985000Y-61145000D01*
X85936314Y-61145000D01*
X88429869Y-63638555D01*
X88429686Y-63848452D01*
X88704662Y-64513943D01*
X89213379Y-65023549D01*
X89878389Y-65299685D01*
X90091185Y-65299871D01*
X90969869Y-66178555D01*
X90969686Y-66388452D01*
X91244662Y-67053943D01*
X91753379Y-67563549D01*
X92418389Y-67839685D01*
X93138452Y-67840314D01*
X93803943Y-67565338D01*
X94313549Y-67056621D01*
X94589685Y-66391611D01*
X94589871Y-66178815D01*
X95468555Y-65300131D01*
X95678452Y-65300314D01*
X96343943Y-65025338D01*
X96853549Y-64516621D01*
X97129685Y-63851611D01*
X97130314Y-63131548D01*
X96855338Y-62466057D01*
X96346621Y-61956451D01*
X95681611Y-61680315D01*
X95468815Y-61680129D01*
X94590131Y-60801445D01*
X94590314Y-60591548D01*
X94315338Y-59926057D01*
X93806621Y-59416451D01*
X93141611Y-59140315D01*
X92421548Y-59139686D01*
X91756057Y-59414662D01*
X91246451Y-59923379D01*
X90970315Y-60588389D01*
X90970129Y-60801185D01*
X90240000Y-61531314D01*
X87489343Y-58780657D01*
X87040017Y-58480427D01*
X86510000Y-58375000D01*
X82558686Y-58375000D01*
X78585301Y-54401615D01*
X78585318Y-54381597D01*
X78582487Y-54374745D01*
X78810000Y-54420000D01*
X82363258Y-54420000D01*
X82386838Y-54545317D01*
X82525910Y-54761441D01*
X82738110Y-54906431D01*
X82990000Y-54957440D01*
X84790000Y-54957440D01*
X85025317Y-54913162D01*
X85241441Y-54774090D01*
X85386431Y-54561890D01*
X85389719Y-54545656D01*
X85812509Y-54828155D01*
X86399928Y-54945000D01*
X86460072Y-54945000D01*
X87047491Y-54828155D01*
X87545481Y-54495409D01*
X87704501Y-54257418D01*
X88062424Y-54647966D01*
X88605258Y-54901046D01*
X88843000Y-54780997D01*
X88843000Y-53537000D01*
X89097000Y-53537000D01*
X89097000Y-54780997D01*
X89334742Y-54901046D01*
X89877576Y-54647966D01*
X90282240Y-54206417D01*
X90461036Y-53774740D01*
X90340378Y-53537000D01*
X89097000Y-53537000D01*
X88843000Y-53537000D01*
X88823000Y-53537000D01*
X88823000Y-53283000D01*
X88843000Y-53283000D01*
X88843000Y-52039003D01*
X89097000Y-52039003D01*
X89097000Y-53283000D01*
X90340378Y-53283000D01*
X90461036Y-53045260D01*
X90282240Y-52613583D01*
X89877576Y-52172034D01*
X89334742Y-51918954D01*
X89097000Y-52039003D01*
X88843000Y-52039003D01*
X88605258Y-51918954D01*
X88062424Y-52172034D01*
X87704501Y-52562582D01*
X87545481Y-52324591D01*
X87047491Y-51991845D01*
X86460072Y-51875000D01*
X86399928Y-51875000D01*
X85812509Y-51991845D01*
X85391974Y-52272837D01*
X85254090Y-52058559D01*
X85041890Y-51913569D01*
X84790000Y-51862560D01*
X82990000Y-51862560D01*
X82754683Y-51906838D01*
X82538559Y-52045910D01*
X82393569Y-52258110D01*
X82364836Y-52400000D01*
X79228356Y-52400000D01*
X78762178Y-51933822D01*
X78434510Y-51714882D01*
X78048000Y-51638000D01*
X71444000Y-51638000D01*
X71057490Y-51714882D01*
X70729822Y-51933822D01*
X69840822Y-52822822D01*
X69621882Y-53150490D01*
X69545000Y-53537000D01*
X69545000Y-59358378D01*
X69512189Y-59380302D01*
X69509050Y-59385000D01*
X64623356Y-59385000D01*
X62040000Y-56801644D01*
X62040000Y-54936742D01*
X62165317Y-54913162D01*
X62381441Y-54774090D01*
X62526431Y-54561890D01*
X62529719Y-54545656D01*
X62952509Y-54828155D01*
X63539928Y-54945000D01*
X63600072Y-54945000D01*
X64187491Y-54828155D01*
X64685481Y-54495409D01*
X64844501Y-54257418D01*
X65202424Y-54647966D01*
X65745258Y-54901046D01*
X65983000Y-54780997D01*
X65983000Y-53537000D01*
X66237000Y-53537000D01*
X66237000Y-54780997D01*
X66474742Y-54901046D01*
X67017576Y-54647966D01*
X67422240Y-54206417D01*
X67601036Y-53774740D01*
X67480378Y-53537000D01*
X66237000Y-53537000D01*
X65983000Y-53537000D01*
X65963000Y-53537000D01*
X65963000Y-53283000D01*
X65983000Y-53283000D01*
X65983000Y-52039003D01*
X66237000Y-52039003D01*
X66237000Y-53283000D01*
X67480378Y-53283000D01*
X67601036Y-53045260D01*
X67422240Y-52613583D01*
X67017576Y-52172034D01*
X66474742Y-51918954D01*
X66237000Y-52039003D01*
X65983000Y-52039003D01*
X65745258Y-51918954D01*
X65202424Y-52172034D01*
X64844501Y-52562582D01*
X64685481Y-52324591D01*
X64187491Y-51991845D01*
X63600072Y-51875000D01*
X63539928Y-51875000D01*
X62952509Y-51991845D01*
X62531974Y-52272837D01*
X62394090Y-52058559D01*
X62181890Y-51913569D01*
X61930000Y-51862560D01*
X60130000Y-51862560D01*
X59894683Y-51906838D01*
X59678559Y-52045910D01*
X59533569Y-52258110D01*
X59482560Y-52510000D01*
X59482560Y-54310000D01*
X59526838Y-54545317D01*
X59665910Y-54761441D01*
X59878110Y-54906431D01*
X60020000Y-54935164D01*
X60020000Y-56801644D01*
X55870822Y-60950822D01*
X55651882Y-61278490D01*
X55575000Y-61665000D01*
X50710000Y-61665000D01*
X50710000Y-56133531D01*
X51234811Y-56659259D01*
X52643825Y-57244333D01*
X54169482Y-57245664D01*
X55579515Y-56663050D01*
X56659259Y-55585189D01*
X57244333Y-54176175D01*
X57245664Y-52650518D01*
X56663050Y-51240485D01*
X56133490Y-50710000D01*
X93866469Y-50710000D01*
X93340741Y-51234811D01*
X93340741Y-51234811D01*
G37*
X93340741Y-51234811D02*
X92755667Y-52643825D01*
X92754336Y-54169482D01*
X93336950Y-55579515D01*
X94414811Y-56659259D01*
X95823825Y-57244333D01*
X97349482Y-57245664D01*
X98759515Y-56663050D01*
X99290000Y-56133490D01*
X99290000Y-93866469D01*
X98765189Y-93340741D01*
X97356175Y-92755667D01*
X95830518Y-92754336D01*
X94420485Y-93336950D01*
X93340741Y-94414811D01*
X92755667Y-95823825D01*
X92754336Y-97349482D01*
X93336950Y-98759515D01*
X93866510Y-99290000D01*
X56133531Y-99290000D01*
X56659259Y-98765189D01*
X57244333Y-97356175D01*
X57244788Y-96833795D01*
X61934716Y-96833795D01*
X62183106Y-97434943D01*
X62642637Y-97895278D01*
X63243352Y-98144716D01*
X63893795Y-98145284D01*
X64494943Y-97896894D01*
X64955278Y-97437363D01*
X65204716Y-96836648D01*
X65205284Y-96186205D01*
X64970673Y-95618403D01*
X69664682Y-95618403D01*
X69943455Y-96293086D01*
X70459199Y-96809730D01*
X71133395Y-97089681D01*
X71863403Y-97090318D01*
X72538086Y-96811545D01*
X72797908Y-96552175D01*
X73882430Y-96552175D01*
X74005565Y-96839788D01*
X74687734Y-97099707D01*
X75417443Y-97078786D01*
X75994435Y-96839788D01*
X76117570Y-96552175D01*
X75000000Y-95434605D01*
X73882430Y-96552175D01*
X72797908Y-96552175D01*
X73054730Y-96295801D01*
X73244808Y-95838043D01*
X73415212Y-96249435D01*
X73702825Y-96372570D01*
X74820395Y-95255000D01*
X75179605Y-95255000D01*
X76297175Y-96372570D01*
X76584788Y-96249435D01*
X76652560Y-96071564D01*
X76652560Y-96455000D01*
X76696838Y-96690317D01*
X76835910Y-96906441D01*
X77048110Y-97051431D01*
X77300000Y-97102440D01*
X79700000Y-97102440D01*
X79935317Y-97058162D01*
X80151441Y-96919090D01*
X80296431Y-96706890D01*
X80347440Y-96455000D01*
X80347440Y-95590000D01*
X84782560Y-95590000D01*
X84782560Y-97590000D01*
X84826838Y-97825317D01*
X84965910Y-98041441D01*
X85178110Y-98186431D01*
X85430000Y-98237440D01*
X87430000Y-98237440D01*
X87665317Y-98193162D01*
X87881441Y-98054090D01*
X88026431Y-97841890D01*
X88077440Y-97590000D01*
X88077440Y-95590000D01*
X88033162Y-95354683D01*
X87894090Y-95138559D01*
X87681890Y-94993569D01*
X87430000Y-94942560D01*
X85430000Y-94942560D01*
X85194683Y-94986838D01*
X84978559Y-95125910D01*
X84833569Y-95338110D01*
X84782560Y-95590000D01*
X80347440Y-95590000D01*
X80347440Y-94055000D01*
X80303162Y-93819683D01*
X80164090Y-93603559D01*
X79951890Y-93458569D01*
X79700000Y-93407560D01*
X77300000Y-93407560D01*
X77064683Y-93451838D01*
X76848559Y-93590910D01*
X76703569Y-93803110D01*
X76652560Y-94055000D01*
X76652560Y-94424181D01*
X76584788Y-94260565D01*
X76297175Y-94137430D01*
X75179605Y-95255000D01*
X74820395Y-95255000D01*
X73702825Y-94137430D01*
X73415212Y-94260565D01*
X73251796Y-94689458D01*
X73056545Y-94216914D01*
X72797908Y-93957825D01*
X73882430Y-93957825D01*
X75000000Y-95075395D01*
X76117570Y-93957825D01*
X75994435Y-93670212D01*
X75312266Y-93410293D01*
X74582557Y-93431214D01*
X74005565Y-93670212D01*
X73882430Y-93957825D01*
X72797908Y-93957825D01*
X72540801Y-93700270D01*
X71866605Y-93420319D01*
X71136597Y-93419682D01*
X70461914Y-93698455D01*
X69945270Y-94214199D01*
X69665319Y-94888395D01*
X69664682Y-95618403D01*
X64970673Y-95618403D01*
X64956894Y-95585057D01*
X64497363Y-95124722D01*
X63896648Y-94875284D01*
X63246205Y-94874716D01*
X62645057Y-95123106D01*
X62184722Y-95582637D01*
X61935284Y-96183352D01*
X61934716Y-96833795D01*
X57244788Y-96833795D01*
X57245664Y-95830518D01*
X56663050Y-94420485D01*
X55585189Y-93340741D01*
X54176175Y-92755667D01*
X52650518Y-92754336D01*
X51240485Y-93336950D01*
X50710000Y-93866510D01*
X50710000Y-91795750D01*
X61935000Y-91795750D01*
X61935000Y-92636309D01*
X62031673Y-92869698D01*
X62210301Y-93048327D01*
X62443690Y-93145000D01*
X63284250Y-93145000D01*
X63443000Y-92986250D01*
X63443000Y-91637000D01*
X63697000Y-91637000D01*
X63697000Y-92986250D01*
X63855750Y-93145000D01*
X64696310Y-93145000D01*
X64929699Y-93048327D01*
X65108327Y-92869698D01*
X65161000Y-92742532D01*
X85457073Y-92742532D01*
X85555736Y-93009387D01*
X86165461Y-93235908D01*
X86815460Y-93211856D01*
X87304264Y-93009387D01*
X87402927Y-92742532D01*
X86430000Y-91769605D01*
X85457073Y-92742532D01*
X65161000Y-92742532D01*
X65205000Y-92636309D01*
X65205000Y-91795750D01*
X65046250Y-91637000D01*
X63697000Y-91637000D01*
X63443000Y-91637000D01*
X62093750Y-91637000D01*
X61935000Y-91795750D01*
X50710000Y-91795750D01*
X50710000Y-90383691D01*
X61935000Y-90383691D01*
X61935000Y-91224250D01*
X62093750Y-91383000D01*
X63443000Y-91383000D01*
X63443000Y-90033750D01*
X63697000Y-90033750D01*
X63697000Y-91383000D01*
X65046250Y-91383000D01*
X65103789Y-91325461D01*
X84784092Y-91325461D01*
X84808144Y-91975460D01*
X85010613Y-92464264D01*
X85277468Y-92562927D01*
X86250395Y-91590000D01*
X86609605Y-91590000D01*
X87582532Y-92562927D01*
X87849387Y-92464264D01*
X88075908Y-91854539D01*
X88051856Y-91204540D01*
X87849387Y-90715736D01*
X87582532Y-90617073D01*
X86609605Y-91590000D01*
X86250395Y-91590000D01*
X85277468Y-90617073D01*
X85010613Y-90715736D01*
X84784092Y-91325461D01*
X65103789Y-91325461D01*
X65205000Y-91224250D01*
X65205000Y-90437468D01*
X85457073Y-90437468D01*
X86430000Y-91410395D01*
X87402927Y-90437468D01*
X87304264Y-90170613D01*
X86694539Y-89944092D01*
X86044540Y-89968144D01*
X85555736Y-90170613D01*
X85457073Y-90437468D01*
X65205000Y-90437468D01*
X65205000Y-90383691D01*
X65108327Y-90150302D01*
X64929699Y-89971673D01*
X64696310Y-89875000D01*
X63855750Y-89875000D01*
X63697000Y-90033750D01*
X63443000Y-90033750D01*
X63284250Y-89875000D01*
X62443690Y-89875000D01*
X62210301Y-89971673D01*
X62031673Y-90150302D01*
X61935000Y-90383691D01*
X50710000Y-90383691D01*
X50710000Y-86715750D01*
X61835000Y-86715750D01*
X61835000Y-87656309D01*
X61931673Y-87889698D01*
X62110301Y-88068327D01*
X62343690Y-88165000D01*
X63284250Y-88165000D01*
X63443000Y-88006250D01*
X63443000Y-86557000D01*
X63697000Y-86557000D01*
X63697000Y-88006250D01*
X63855750Y-88165000D01*
X64796310Y-88165000D01*
X65029699Y-88068327D01*
X65208327Y-87889698D01*
X65305000Y-87656309D01*
X65305000Y-87437745D01*
X66551861Y-87437745D01*
X66625995Y-87683864D01*
X67163223Y-87876965D01*
X67733454Y-87849778D01*
X68134005Y-87683864D01*
X68208139Y-87437745D01*
X67380000Y-86609605D01*
X66551861Y-87437745D01*
X65305000Y-87437745D01*
X65305000Y-86715750D01*
X65146250Y-86557000D01*
X63697000Y-86557000D01*
X63443000Y-86557000D01*
X61993750Y-86557000D01*
X61835000Y-86715750D01*
X50710000Y-86715750D01*
X50710000Y-85203691D01*
X61835000Y-85203691D01*
X61835000Y-86144250D01*
X61993750Y-86303000D01*
X63443000Y-86303000D01*
X63443000Y-84853750D01*
X63697000Y-84853750D01*
X63697000Y-86303000D01*
X65146250Y-86303000D01*
X65236027Y-86213223D01*
X65933035Y-86213223D01*
X65960222Y-86783454D01*
X66126136Y-87184005D01*
X66372255Y-87258139D01*
X67200395Y-86430000D01*
X67559605Y-86430000D01*
X68387745Y-87258139D01*
X68633864Y-87184005D01*
X68802735Y-86714187D01*
X70944752Y-86714187D01*
X71162757Y-87241800D01*
X71566077Y-87645824D01*
X72093309Y-87864750D01*
X72664187Y-87865248D01*
X73191800Y-87647243D01*
X73595824Y-87243923D01*
X73814750Y-86716691D01*
X73814752Y-86714187D01*
X76104752Y-86714187D01*
X76322757Y-87241800D01*
X76726077Y-87645824D01*
X77253309Y-87864750D01*
X77824187Y-87865248D01*
X78351800Y-87647243D01*
X78561663Y-87437745D01*
X81711861Y-87437745D01*
X81785995Y-87683864D01*
X82323223Y-87876965D01*
X82893454Y-87849778D01*
X83294005Y-87683864D01*
X83368139Y-87437745D01*
X82540000Y-86609605D01*
X81711861Y-87437745D01*
X78561663Y-87437745D01*
X78755824Y-87243923D01*
X78974750Y-86716691D01*
X78975189Y-86213223D01*
X81093035Y-86213223D01*
X81120222Y-86783454D01*
X81286136Y-87184005D01*
X81532255Y-87258139D01*
X82360395Y-86430000D01*
X82719605Y-86430000D01*
X83547745Y-87258139D01*
X83793864Y-87184005D01*
X83922500Y-86826123D01*
X84740817Y-86826123D01*
X85020988Y-87442392D01*
X85515668Y-87904534D01*
X86033878Y-88119175D01*
X86303000Y-88001125D01*
X86303000Y-86557000D01*
X86557000Y-86557000D01*
X86557000Y-88001125D01*
X86826122Y-88119175D01*
X87344332Y-87904534D01*
X87839012Y-87442392D01*
X88119183Y-86826123D01*
X88001604Y-86557000D01*
X86557000Y-86557000D01*
X86303000Y-86557000D01*
X84858396Y-86557000D01*
X84740817Y-86826123D01*
X83922500Y-86826123D01*
X83986965Y-86646777D01*
X83959778Y-86076546D01*
X83942104Y-86033877D01*
X84740817Y-86033877D01*
X84858396Y-86303000D01*
X86303000Y-86303000D01*
X86303000Y-84858875D01*
X86557000Y-84858875D01*
X86557000Y-86303000D01*
X88001604Y-86303000D01*
X88119183Y-86033877D01*
X87839012Y-85417608D01*
X87344332Y-84955466D01*
X86826122Y-84740825D01*
X86557000Y-84858875D01*
X86303000Y-84858875D01*
X86033878Y-84740825D01*
X85515668Y-84955466D01*
X85020988Y-85417608D01*
X84740817Y-86033877D01*
X83942104Y-86033877D01*
X83793864Y-85675995D01*
X83547745Y-85601861D01*
X82719605Y-86430000D01*
X82360395Y-86430000D01*
X81532255Y-85601861D01*
X81286136Y-85675995D01*
X81093035Y-86213223D01*
X78975189Y-86213223D01*
X78975248Y-86145813D01*
X78757243Y-85618200D01*
X78561640Y-85422255D01*
X81711861Y-85422255D01*
X82540000Y-86250395D01*
X83368139Y-85422255D01*
X83294005Y-85176136D01*
X82756777Y-84983035D01*
X82186546Y-85010222D01*
X81785995Y-85176136D01*
X81711861Y-85422255D01*
X78561640Y-85422255D01*
X78353923Y-85214176D01*
X77826691Y-84995250D01*
X77255813Y-84994752D01*
X76728200Y-85212757D01*
X76324176Y-85616077D01*
X76105250Y-86143309D01*
X76104752Y-86714187D01*
X73814752Y-86714187D01*
X73815248Y-86145813D01*
X73597243Y-85618200D01*
X73193923Y-85214176D01*
X72666691Y-84995250D01*
X72095813Y-84994752D01*
X71568200Y-85212757D01*
X71164176Y-85616077D01*
X70945250Y-86143309D01*
X70944752Y-86714187D01*
X68802735Y-86714187D01*
X68826965Y-86646777D01*
X68799778Y-86076546D01*
X68633864Y-85675995D01*
X68387745Y-85601861D01*
X67559605Y-86430000D01*
X67200395Y-86430000D01*
X66372255Y-85601861D01*
X66126136Y-85675995D01*
X65933035Y-86213223D01*
X65236027Y-86213223D01*
X65305000Y-86144250D01*
X65305000Y-85422255D01*
X66551861Y-85422255D01*
X67380000Y-86250395D01*
X68208139Y-85422255D01*
X68134005Y-85176136D01*
X67596777Y-84983035D01*
X67026546Y-85010222D01*
X66625995Y-85176136D01*
X66551861Y-85422255D01*
X65305000Y-85422255D01*
X65305000Y-85203691D01*
X65208327Y-84970302D01*
X65029699Y-84791673D01*
X64796310Y-84695000D01*
X63855750Y-84695000D01*
X63697000Y-84853750D01*
X63443000Y-84853750D01*
X63284250Y-84695000D01*
X62343690Y-84695000D01*
X62110301Y-84791673D01*
X61931673Y-84970302D01*
X61835000Y-85203691D01*
X50710000Y-85203691D01*
X50710000Y-76538344D01*
X55864765Y-76538344D01*
X56070617Y-77036543D01*
X56451452Y-77418043D01*
X56745264Y-77540045D01*
X56453457Y-77660617D01*
X56071957Y-78041452D01*
X55865236Y-78539291D01*
X55864765Y-79078344D01*
X56070617Y-79576543D01*
X56451452Y-79958043D01*
X56745264Y-80080045D01*
X56453457Y-80200617D01*
X56071957Y-80581452D01*
X55865236Y-81079291D01*
X55864765Y-81618344D01*
X56070617Y-82116543D01*
X56451452Y-82498043D01*
X56949291Y-82704764D01*
X57488344Y-82705235D01*
X57986543Y-82499383D01*
X58368043Y-82118548D01*
X58574764Y-81620709D01*
X58575000Y-81350000D01*
X65509050Y-81350000D01*
X65648731Y-82052224D01*
X66046509Y-82647541D01*
X66641826Y-83045319D01*
X67344050Y-83185000D01*
X67415950Y-83185000D01*
X68118174Y-83045319D01*
X68713491Y-82647541D01*
X69111269Y-82052224D01*
X69250950Y-81350000D01*
X69111269Y-80647776D01*
X68778666Y-80150000D01*
X80772560Y-80150000D01*
X80772560Y-82550000D01*
X80816838Y-82785317D01*
X80955910Y-83001441D01*
X81168110Y-83146431D01*
X81420000Y-83197440D01*
X83820000Y-83197440D01*
X84055317Y-83153162D01*
X84271441Y-83014090D01*
X84416431Y-82801890D01*
X84467440Y-82550000D01*
X84467440Y-80150000D01*
X84423162Y-79914683D01*
X84284090Y-79698559D01*
X84071890Y-79553569D01*
X83820000Y-79502560D01*
X81420000Y-79502560D01*
X81184683Y-79546838D01*
X80968559Y-79685910D01*
X80823569Y-79898110D01*
X80772560Y-80150000D01*
X68778666Y-80150000D01*
X68713491Y-80052459D01*
X68118174Y-79654681D01*
X67415950Y-79515000D01*
X67344050Y-79515000D01*
X66641826Y-79654681D01*
X66046509Y-80052459D01*
X65648731Y-80647776D01*
X65509050Y-81350000D01*
X58575000Y-81350000D01*
X58575235Y-81081656D01*
X58369383Y-80583457D01*
X57988548Y-80201957D01*
X57694736Y-80079955D01*
X57986543Y-79959383D01*
X58368043Y-79578548D01*
X58538329Y-79168452D01*
X88429686Y-79168452D01*
X88704662Y-79833943D01*
X89213379Y-80343549D01*
X89878389Y-80619685D01*
X90091185Y-80619871D01*
X90969869Y-81498555D01*
X90969686Y-81708452D01*
X91244662Y-82373943D01*
X91753379Y-82883549D01*
X92418389Y-83159685D01*
X93138452Y-83160314D01*
X93803943Y-82885338D01*
X94313549Y-82376621D01*
X94589685Y-81711611D01*
X94589871Y-81498815D01*
X95468555Y-80620131D01*
X95678452Y-80620314D01*
X96343943Y-80345338D01*
X96853549Y-79836621D01*
X97129685Y-79171611D01*
X97130314Y-78451548D01*
X96855338Y-77786057D01*
X96346621Y-77276451D01*
X95681611Y-77000315D01*
X95468815Y-77000129D01*
X94590131Y-76121445D01*
X94590314Y-75911548D01*
X94315338Y-75246057D01*
X93806621Y-74736451D01*
X93141611Y-74460315D01*
X92421548Y-74459686D01*
X91756057Y-74734662D01*
X91246451Y-75243379D01*
X90970315Y-75908389D01*
X90970129Y-76121185D01*
X90091445Y-76999869D01*
X89881548Y-76999686D01*
X89216057Y-77274662D01*
X88706451Y-77783379D01*
X88430315Y-78448389D01*
X88429686Y-79168452D01*
X58538329Y-79168452D01*
X58574764Y-79080709D01*
X58575235Y-78541656D01*
X58369383Y-78043457D01*
X57988548Y-77661957D01*
X57694736Y-77539955D01*
X57986543Y-77419383D01*
X58368043Y-77038548D01*
X58574764Y-76540709D01*
X58575030Y-76236009D01*
X61835000Y-76236009D01*
X61835000Y-76303991D01*
X61967069Y-76967947D01*
X62343170Y-77530821D01*
X62906044Y-77906922D01*
X63570000Y-78038991D01*
X64233956Y-77906922D01*
X64796830Y-77530821D01*
X65172931Y-76967947D01*
X65305000Y-76303991D01*
X65305000Y-76270000D01*
X69013173Y-76270000D01*
X69137630Y-76895687D01*
X69492053Y-77426120D01*
X70022486Y-77780543D01*
X70648173Y-77905000D01*
X71731827Y-77905000D01*
X72357514Y-77780543D01*
X72887947Y-77426120D01*
X73242370Y-76895687D01*
X73366827Y-76270000D01*
X73242370Y-75644313D01*
X72887947Y-75113880D01*
X72695611Y-74985366D01*
X72935922Y-74796317D01*
X73249144Y-74238355D01*
X73280124Y-74110434D01*
X73160777Y-73857000D01*
X71317000Y-73857000D01*
X71317000Y-73877000D01*
X71063000Y-73877000D01*
X71063000Y-73857000D01*
X69219223Y-73857000D01*
X69099876Y-74110434D01*
X69130856Y-74238355D01*
X69444078Y-74796317D01*
X69684389Y-74985366D01*
X69492053Y-75113880D01*
X69137630Y-75644313D01*
X69013173Y-76270000D01*
X65305000Y-76270000D01*
X65305000Y-76236009D01*
X65172931Y-75572053D01*
X64796830Y-75009179D01*
X64233956Y-74633078D01*
X63570000Y-74501009D01*
X62906044Y-74633078D01*
X62343170Y-75009179D01*
X61967069Y-75572053D01*
X61835000Y-76236009D01*
X58575030Y-76236009D01*
X58575235Y-76001656D01*
X58369383Y-75503457D01*
X58230000Y-75363831D01*
X58230000Y-73513356D01*
X59118356Y-72625000D01*
X59153113Y-72625000D01*
X59702264Y-72515767D01*
X60167811Y-72204698D01*
X60478880Y-71739151D01*
X60531584Y-71474187D01*
X65309752Y-71474187D01*
X65527757Y-72001800D01*
X65931077Y-72405824D01*
X66458309Y-72624750D01*
X67029187Y-72625248D01*
X67556800Y-72407243D01*
X67764405Y-72200000D01*
X69394419Y-72200000D01*
X69492053Y-72346120D01*
X69684389Y-72474634D01*
X69444078Y-72663683D01*
X69130856Y-73221645D01*
X69099876Y-73349566D01*
X69219223Y-73603000D01*
X71063000Y-73603000D01*
X71063000Y-73583000D01*
X71317000Y-73583000D01*
X71317000Y-73603000D01*
X73160777Y-73603000D01*
X73280124Y-73349566D01*
X73249144Y-73221645D01*
X72935922Y-72663683D01*
X72695611Y-72474634D01*
X72887947Y-72346120D01*
X72985581Y-72200000D01*
X73355000Y-72200000D01*
X73355000Y-74365000D01*
X73431882Y-74751510D01*
X73650822Y-75079178D01*
X75555822Y-76984178D01*
X75883490Y-77203118D01*
X76270000Y-77280000D01*
X77014419Y-77280000D01*
X77112053Y-77426120D01*
X77642486Y-77780543D01*
X78268173Y-77905000D01*
X79351827Y-77905000D01*
X79977514Y-77780543D01*
X80507947Y-77426120D01*
X80862370Y-76895687D01*
X80986827Y-76270000D01*
X80862370Y-75644313D01*
X80545446Y-75170000D01*
X84682560Y-75170000D01*
X84682560Y-77370000D01*
X84726838Y-77605317D01*
X84865910Y-77821441D01*
X85078110Y-77966431D01*
X85330000Y-78017440D01*
X87530000Y-78017440D01*
X87765317Y-77973162D01*
X87981441Y-77834090D01*
X88126431Y-77621890D01*
X88177440Y-77370000D01*
X88177440Y-75170000D01*
X88133162Y-74934683D01*
X87994090Y-74718559D01*
X87781890Y-74573569D01*
X87530000Y-74522560D01*
X85330000Y-74522560D01*
X85094683Y-74566838D01*
X84878559Y-74705910D01*
X84733569Y-74918110D01*
X84682560Y-75170000D01*
X80545446Y-75170000D01*
X80507947Y-75113880D01*
X80337513Y-75000000D01*
X80507947Y-74886120D01*
X80862370Y-74355687D01*
X80986827Y-73730000D01*
X80862370Y-73104313D01*
X80507947Y-72573880D01*
X80337513Y-72460000D01*
X80507947Y-72346120D01*
X80862370Y-71815687D01*
X80986827Y-71190000D01*
X80862370Y-70564313D01*
X80507947Y-70033880D01*
X80337513Y-69920000D01*
X80507947Y-69806120D01*
X80862370Y-69275687D01*
X80986827Y-68650000D01*
X80862370Y-68024313D01*
X80507947Y-67493880D01*
X79977514Y-67139457D01*
X79351827Y-67015000D01*
X78268173Y-67015000D01*
X77642486Y-67139457D01*
X77112053Y-67493880D01*
X76757630Y-68024313D01*
X76633173Y-68650000D01*
X76757630Y-69275687D01*
X77112053Y-69806120D01*
X77282487Y-69920000D01*
X77112053Y-70033880D01*
X76757630Y-70564313D01*
X76633173Y-71190000D01*
X76757630Y-71815687D01*
X77112053Y-72346120D01*
X77282487Y-72460000D01*
X77112053Y-72573880D01*
X76757630Y-73104313D01*
X76633173Y-73730000D01*
X76757630Y-74355687D01*
X77112053Y-74886120D01*
X77282487Y-75000000D01*
X77112053Y-75113880D01*
X77014419Y-75260000D01*
X76688356Y-75260000D01*
X75375000Y-73946644D01*
X75375000Y-64606622D01*
X75407811Y-64584698D01*
X75718880Y-64119151D01*
X75771584Y-63854187D01*
X80549752Y-63854187D01*
X80767757Y-64381800D01*
X81171077Y-64785824D01*
X81698309Y-65004750D01*
X82269187Y-65005248D01*
X82796800Y-64787243D01*
X83200824Y-64383923D01*
X83419750Y-63856691D01*
X83420248Y-63285813D01*
X83202243Y-62758200D01*
X82798923Y-62354176D01*
X82271691Y-62135250D01*
X81700813Y-62134752D01*
X81173200Y-62352757D01*
X80769176Y-62756077D01*
X80550250Y-63283309D01*
X80549752Y-63854187D01*
X75771584Y-63854187D01*
X75828113Y-63570000D01*
X75718880Y-63020849D01*
X75407811Y-62555302D01*
X74942264Y-62244233D01*
X74393113Y-62135000D01*
X74336887Y-62135000D01*
X73787736Y-62244233D01*
X73322189Y-62555302D01*
X73011120Y-63020849D01*
X72901887Y-63570000D01*
X73011120Y-64119151D01*
X73322189Y-64584698D01*
X73355000Y-64606622D01*
X73355000Y-70180000D01*
X73039014Y-70180000D01*
X73141441Y-70114090D01*
X73286431Y-69901890D01*
X73337440Y-69650000D01*
X73337440Y-67650000D01*
X73293162Y-67414683D01*
X73154090Y-67198559D01*
X72941890Y-67053569D01*
X72690000Y-67002560D01*
X72200000Y-67002560D01*
X72200000Y-64589388D01*
X72405824Y-64383923D01*
X72624750Y-63856691D01*
X72625248Y-63285813D01*
X72407243Y-62758200D01*
X72003923Y-62354176D01*
X71476691Y-62135250D01*
X70905813Y-62134752D01*
X70378200Y-62352757D01*
X69974176Y-62756077D01*
X69755250Y-63283309D01*
X69754752Y-63854187D01*
X69972757Y-64381800D01*
X70180000Y-64589405D01*
X70180000Y-67002560D01*
X69690000Y-67002560D01*
X69454683Y-67046838D01*
X69238559Y-67185910D01*
X69093569Y-67398110D01*
X69042560Y-67650000D01*
X69042560Y-69650000D01*
X69086838Y-69885317D01*
X69225910Y-70101441D01*
X69340885Y-70180000D01*
X67764388Y-70180000D01*
X67558923Y-69974176D01*
X67031691Y-69755250D01*
X66460813Y-69754752D01*
X65933200Y-69972757D01*
X65529176Y-70376077D01*
X65310250Y-70903309D01*
X65309752Y-71474187D01*
X60531584Y-71474187D01*
X60588113Y-71190000D01*
X60478880Y-70640849D01*
X60167811Y-70175302D01*
X59702264Y-69864233D01*
X59153113Y-69755000D01*
X59096887Y-69755000D01*
X58547736Y-69864233D01*
X58082189Y-70175302D01*
X57771120Y-70640849D01*
X57661887Y-71190000D01*
X57667654Y-71218990D01*
X56505822Y-72380822D01*
X56286882Y-72708490D01*
X56210000Y-73095000D01*
X56210000Y-75363650D01*
X56071957Y-75501452D01*
X55865236Y-75999291D01*
X55864765Y-76538344D01*
X50710000Y-76538344D01*
X50710000Y-61665000D01*
X55575000Y-61665000D01*
X55575000Y-62935000D01*
X55651882Y-63321510D01*
X55870822Y-63649178D01*
X57154918Y-64933274D01*
X57154769Y-65104383D01*
X57357582Y-65595229D01*
X57732796Y-65971098D01*
X58223287Y-66174768D01*
X58754383Y-66175231D01*
X59245229Y-65972418D01*
X59621098Y-65597204D01*
X59824768Y-65106713D01*
X59824944Y-64905057D01*
X60024383Y-64905231D01*
X60515229Y-64702418D01*
X60637861Y-64580000D01*
X62524050Y-64580000D01*
X62527189Y-64584698D01*
X62992736Y-64895767D01*
X63541887Y-65005000D01*
X63598113Y-65005000D01*
X64147264Y-64895767D01*
X64612811Y-64584698D01*
X64923880Y-64119151D01*
X65033113Y-63570000D01*
X64923880Y-63020849D01*
X64612811Y-62555302D01*
X64147264Y-62244233D01*
X63598113Y-62135000D01*
X63541887Y-62135000D01*
X62992736Y-62244233D01*
X62527189Y-62555302D01*
X62524050Y-62560000D01*
X60638091Y-62560000D01*
X60517204Y-62438902D01*
X60026713Y-62235232D01*
X59825057Y-62235056D01*
X59825231Y-62035617D01*
X59622418Y-61544771D01*
X59247204Y-61168902D01*
X58756713Y-60965232D01*
X58713162Y-60965194D01*
X61030000Y-58648356D01*
X63490822Y-61109178D01*
X63818490Y-61328118D01*
X64205000Y-61405000D01*
X69509050Y-61405000D01*
X69512189Y-61409698D01*
X69977736Y-61720767D01*
X70526887Y-61830000D01*
X70583113Y-61830000D01*
X71132264Y-61720767D01*
X71597811Y-61409698D01*
X71908880Y-60944151D01*
X71961584Y-60679187D01*
X76739752Y-60679187D01*
X76957757Y-61206800D01*
X77361077Y-61610824D01*
X77888309Y-61829750D01*
X78459187Y-61830248D01*
X78986800Y-61612243D01*
X79390824Y-61208923D01*
X79609750Y-60681691D01*
X79610248Y-60110813D01*
X79392243Y-59583200D01*
X78988923Y-59179176D01*
X78461691Y-58960250D01*
X77890813Y-58959752D01*
X77363200Y-59177757D01*
X76959176Y-59581077D01*
X76740250Y-60108309D01*
X76739752Y-60679187D01*
X71961584Y-60679187D01*
X72018113Y-60395000D01*
X71908880Y-59845849D01*
X71597811Y-59380302D01*
X71565000Y-59358378D01*
X71565000Y-56363946D01*
X71585910Y-56396441D01*
X71798110Y-56541431D01*
X72050000Y-56592440D01*
X74450000Y-56592440D01*
X74685317Y-56548162D01*
X74901441Y-56409090D01*
X75046431Y-56196890D01*
X75097440Y-55945000D01*
X75097440Y-55550712D01*
X75193455Y-55783086D01*
X75709199Y-56299730D01*
X76383395Y-56579681D01*
X76846399Y-56580085D01*
X81005657Y-60739343D01*
X81454983Y-61039573D01*
X81985000Y-61145000D01*
X85936314Y-61145000D01*
X88429869Y-63638555D01*
X88429686Y-63848452D01*
X88704662Y-64513943D01*
X89213379Y-65023549D01*
X89878389Y-65299685D01*
X90091185Y-65299871D01*
X90969869Y-66178555D01*
X90969686Y-66388452D01*
X91244662Y-67053943D01*
X91753379Y-67563549D01*
X92418389Y-67839685D01*
X93138452Y-67840314D01*
X93803943Y-67565338D01*
X94313549Y-67056621D01*
X94589685Y-66391611D01*
X94589871Y-66178815D01*
X95468555Y-65300131D01*
X95678452Y-65300314D01*
X96343943Y-65025338D01*
X96853549Y-64516621D01*
X97129685Y-63851611D01*
X97130314Y-63131548D01*
X96855338Y-62466057D01*
X96346621Y-61956451D01*
X95681611Y-61680315D01*
X95468815Y-61680129D01*
X94590131Y-60801445D01*
X94590314Y-60591548D01*
X94315338Y-59926057D01*
X93806621Y-59416451D01*
X93141611Y-59140315D01*
X92421548Y-59139686D01*
X91756057Y-59414662D01*
X91246451Y-59923379D01*
X90970315Y-60588389D01*
X90970129Y-60801185D01*
X90240000Y-61531314D01*
X87489343Y-58780657D01*
X87040017Y-58480427D01*
X86510000Y-58375000D01*
X82558686Y-58375000D01*
X78585301Y-54401615D01*
X78585318Y-54381597D01*
X78582487Y-54374745D01*
X78810000Y-54420000D01*
X82363258Y-54420000D01*
X82386838Y-54545317D01*
X82525910Y-54761441D01*
X82738110Y-54906431D01*
X82990000Y-54957440D01*
X84790000Y-54957440D01*
X85025317Y-54913162D01*
X85241441Y-54774090D01*
X85386431Y-54561890D01*
X85389719Y-54545656D01*
X85812509Y-54828155D01*
X86399928Y-54945000D01*
X86460072Y-54945000D01*
X87047491Y-54828155D01*
X87545481Y-54495409D01*
X87704501Y-54257418D01*
X88062424Y-54647966D01*
X88605258Y-54901046D01*
X88843000Y-54780997D01*
X88843000Y-53537000D01*
X89097000Y-53537000D01*
X89097000Y-54780997D01*
X89334742Y-54901046D01*
X89877576Y-54647966D01*
X90282240Y-54206417D01*
X90461036Y-53774740D01*
X90340378Y-53537000D01*
X89097000Y-53537000D01*
X88843000Y-53537000D01*
X88823000Y-53537000D01*
X88823000Y-53283000D01*
X88843000Y-53283000D01*
X88843000Y-52039003D01*
X89097000Y-52039003D01*
X89097000Y-53283000D01*
X90340378Y-53283000D01*
X90461036Y-53045260D01*
X90282240Y-52613583D01*
X89877576Y-52172034D01*
X89334742Y-51918954D01*
X89097000Y-52039003D01*
X88843000Y-52039003D01*
X88605258Y-51918954D01*
X88062424Y-52172034D01*
X87704501Y-52562582D01*
X87545481Y-52324591D01*
X87047491Y-51991845D01*
X86460072Y-51875000D01*
X86399928Y-51875000D01*
X85812509Y-51991845D01*
X85391974Y-52272837D01*
X85254090Y-52058559D01*
X85041890Y-51913569D01*
X84790000Y-51862560D01*
X82990000Y-51862560D01*
X82754683Y-51906838D01*
X82538559Y-52045910D01*
X82393569Y-52258110D01*
X82364836Y-52400000D01*
X79228356Y-52400000D01*
X78762178Y-51933822D01*
X78434510Y-51714882D01*
X78048000Y-51638000D01*
X71444000Y-51638000D01*
X71057490Y-51714882D01*
X70729822Y-51933822D01*
X69840822Y-52822822D01*
X69621882Y-53150490D01*
X69545000Y-53537000D01*
X69545000Y-59358378D01*
X69512189Y-59380302D01*
X69509050Y-59385000D01*
X64623356Y-59385000D01*
X62040000Y-56801644D01*
X62040000Y-54936742D01*
X62165317Y-54913162D01*
X62381441Y-54774090D01*
X62526431Y-54561890D01*
X62529719Y-54545656D01*
X62952509Y-54828155D01*
X63539928Y-54945000D01*
X63600072Y-54945000D01*
X64187491Y-54828155D01*
X64685481Y-54495409D01*
X64844501Y-54257418D01*
X65202424Y-54647966D01*
X65745258Y-54901046D01*
X65983000Y-54780997D01*
X65983000Y-53537000D01*
X66237000Y-53537000D01*
X66237000Y-54780997D01*
X66474742Y-54901046D01*
X67017576Y-54647966D01*
X67422240Y-54206417D01*
X67601036Y-53774740D01*
X67480378Y-53537000D01*
X66237000Y-53537000D01*
X65983000Y-53537000D01*
X65963000Y-53537000D01*
X65963000Y-53283000D01*
X65983000Y-53283000D01*
X65983000Y-52039003D01*
X66237000Y-52039003D01*
X66237000Y-53283000D01*
X67480378Y-53283000D01*
X67601036Y-53045260D01*
X67422240Y-52613583D01*
X67017576Y-52172034D01*
X66474742Y-51918954D01*
X66237000Y-52039003D01*
X65983000Y-52039003D01*
X65745258Y-51918954D01*
X65202424Y-52172034D01*
X64844501Y-52562582D01*
X64685481Y-52324591D01*
X64187491Y-51991845D01*
X63600072Y-51875000D01*
X63539928Y-51875000D01*
X62952509Y-51991845D01*
X62531974Y-52272837D01*
X62394090Y-52058559D01*
X62181890Y-51913569D01*
X61930000Y-51862560D01*
X60130000Y-51862560D01*
X59894683Y-51906838D01*
X59678559Y-52045910D01*
X59533569Y-52258110D01*
X59482560Y-52510000D01*
X59482560Y-54310000D01*
X59526838Y-54545317D01*
X59665910Y-54761441D01*
X59878110Y-54906431D01*
X60020000Y-54935164D01*
X60020000Y-56801644D01*
X55870822Y-60950822D01*
X55651882Y-61278490D01*
X55575000Y-61665000D01*
X50710000Y-61665000D01*
X50710000Y-56133531D01*
X51234811Y-56659259D01*
X52643825Y-57244333D01*
X54169482Y-57245664D01*
X55579515Y-56663050D01*
X56659259Y-55585189D01*
X57244333Y-54176175D01*
X57245664Y-52650518D01*
X56663050Y-51240485D01*
X56133490Y-50710000D01*
X93866469Y-50710000D01*
X93340741Y-51234811D01*
M02*
