G04 #@! TF.FileFunction,Legend,Top*
%FSLAX46Y46*%
G04 Gerber Fmt 4.6, Leading zero omitted, Abs format (unit mm)*
G04 Created by KiCad (PCBNEW 4.0.7-e2-6376~58~ubuntu16.04.1) date Sun Apr  8 20:27:37 2018*
%MOMM*%
%LPD*%
G01*
G04 APERTURE LIST*
%ADD10C,0.500000*%
%ADD11C,0.300000*%
%ADD12C,0.200000*%
%ADD13C,0.150000*%
%ADD14C,0.120000*%
%ADD15C,0.381000*%
%ADD16C,2.750000*%
%ADD17C,2.000000*%
%ADD18O,2.000000X2.000000*%
%ADD19C,2.800000*%
%ADD20R,2.800000X2.800000*%
%ADD21C,1.800000*%
%ADD22R,3.400000X2.400000*%
%ADD23O,3.400000X2.400000*%
%ADD24R,2.200000X2.200000*%
%ADD25O,2.200000X2.200000*%
%ADD26C,6.800000*%
%ADD27C,1.200000*%
%ADD28R,2.600000X2.600000*%
%ADD29O,2.600000X2.600000*%
%ADD30O,2.800000X2.800000*%
%ADD31C,1.840000*%
%ADD32R,2.400000X2.400000*%
%ADD33C,2.400000*%
G04 APERTURE END LIST*
D10*
D11*
X70047143Y-89819286D02*
X72332857Y-89819286D01*
D12*
X74542857Y-75758571D02*
X74542857Y-76330000D01*
X73342857Y-76330000D01*
X74542857Y-75358571D02*
X73342857Y-75358571D01*
X74200000Y-74958571D01*
X73342857Y-74558571D01*
X74542857Y-74558571D01*
X73342857Y-74101427D02*
X73342857Y-73358570D01*
X73800000Y-73758570D01*
X73800000Y-73587142D01*
X73857143Y-73472856D01*
X73914286Y-73415713D01*
X74028571Y-73358570D01*
X74314286Y-73358570D01*
X74428571Y-73415713D01*
X74485714Y-73472856D01*
X74542857Y-73587142D01*
X74542857Y-73929999D01*
X74485714Y-74044285D01*
X74428571Y-74101427D01*
X73342857Y-72272856D02*
X73342857Y-72844285D01*
X73914286Y-72901428D01*
X73857143Y-72844285D01*
X73800000Y-72729999D01*
X73800000Y-72444285D01*
X73857143Y-72329999D01*
X73914286Y-72272856D01*
X74028571Y-72215713D01*
X74314286Y-72215713D01*
X74428571Y-72272856D01*
X74485714Y-72329999D01*
X74542857Y-72444285D01*
X74542857Y-72729999D01*
X74485714Y-72844285D01*
X74428571Y-72901428D01*
X73857143Y-71529999D02*
X73800000Y-71644285D01*
X73742857Y-71701428D01*
X73628571Y-71758571D01*
X73571429Y-71758571D01*
X73457143Y-71701428D01*
X73400000Y-71644285D01*
X73342857Y-71529999D01*
X73342857Y-71301428D01*
X73400000Y-71187142D01*
X73457143Y-71129999D01*
X73571429Y-71072856D01*
X73628571Y-71072856D01*
X73742857Y-71129999D01*
X73800000Y-71187142D01*
X73857143Y-71301428D01*
X73857143Y-71529999D01*
X73914286Y-71644285D01*
X73971429Y-71701428D01*
X74085714Y-71758571D01*
X74314286Y-71758571D01*
X74428571Y-71701428D01*
X74485714Y-71644285D01*
X74542857Y-71529999D01*
X74542857Y-71301428D01*
X74485714Y-71187142D01*
X74428571Y-71129999D01*
X74314286Y-71072856D01*
X74085714Y-71072856D01*
X73971429Y-71129999D01*
X73914286Y-71187142D01*
X73857143Y-71301428D01*
X76542857Y-77301428D02*
X76485714Y-77415714D01*
X76428571Y-77472857D01*
X76314286Y-77530000D01*
X75971429Y-77530000D01*
X75857143Y-77472857D01*
X75800000Y-77415714D01*
X75742857Y-77301428D01*
X75742857Y-77130000D01*
X75800000Y-77015714D01*
X75857143Y-76958571D01*
X75971429Y-76901428D01*
X76314286Y-76901428D01*
X76428571Y-76958571D01*
X76485714Y-77015714D01*
X76542857Y-77130000D01*
X76542857Y-77301428D01*
X76542857Y-76387143D02*
X75742857Y-76387143D01*
X75971429Y-76387143D02*
X75857143Y-76330000D01*
X75800000Y-76272857D01*
X75742857Y-76158571D01*
X75742857Y-76044286D01*
X75342857Y-74901428D02*
X75342857Y-74215714D01*
X76542857Y-74558571D02*
X75342857Y-74558571D01*
X76542857Y-73244285D02*
X76542857Y-73815714D01*
X75342857Y-73815714D01*
X75342857Y-72615713D02*
X75342857Y-72501428D01*
X75400000Y-72387142D01*
X75457143Y-72329999D01*
X75571429Y-72272856D01*
X75800000Y-72215713D01*
X76085714Y-72215713D01*
X76314286Y-72272856D01*
X76428571Y-72329999D01*
X76485714Y-72387142D01*
X76542857Y-72501428D01*
X76542857Y-72615713D01*
X76485714Y-72729999D01*
X76428571Y-72787142D01*
X76314286Y-72844285D01*
X76085714Y-72901428D01*
X75800000Y-72901428D01*
X75571429Y-72844285D01*
X75457143Y-72787142D01*
X75400000Y-72729999D01*
X75342857Y-72615713D01*
X75342857Y-71815713D02*
X75342857Y-71015713D01*
X76542857Y-71529999D01*
X75457143Y-70615714D02*
X75400000Y-70558571D01*
X75342857Y-70444285D01*
X75342857Y-70158571D01*
X75400000Y-70044285D01*
X75457143Y-69987142D01*
X75571429Y-69929999D01*
X75685714Y-69929999D01*
X75857143Y-69987142D01*
X76542857Y-70672856D01*
X76542857Y-69929999D01*
D11*
X52813571Y-70875714D02*
X51313571Y-70875714D01*
X51313571Y-70518571D01*
X51385000Y-70304286D01*
X51527857Y-70161428D01*
X51670714Y-70090000D01*
X51956429Y-70018571D01*
X52170714Y-70018571D01*
X52456429Y-70090000D01*
X52599286Y-70161428D01*
X52742143Y-70304286D01*
X52813571Y-70518571D01*
X52813571Y-70875714D01*
X51813571Y-68732857D02*
X52813571Y-68732857D01*
X51813571Y-69375714D02*
X52599286Y-69375714D01*
X52742143Y-69304286D01*
X52813571Y-69161428D01*
X52813571Y-68947143D01*
X52742143Y-68804286D01*
X52670714Y-68732857D01*
X52813571Y-67375714D02*
X52027857Y-67375714D01*
X51885000Y-67447143D01*
X51813571Y-67590000D01*
X51813571Y-67875714D01*
X51885000Y-68018571D01*
X52742143Y-67375714D02*
X52813571Y-67518571D01*
X52813571Y-67875714D01*
X52742143Y-68018571D01*
X52599286Y-68090000D01*
X52456429Y-68090000D01*
X52313571Y-68018571D01*
X52242143Y-67875714D01*
X52242143Y-67518571D01*
X52170714Y-67375714D01*
X52813571Y-66447142D02*
X52742143Y-66590000D01*
X52599286Y-66661428D01*
X51313571Y-66661428D01*
X52813571Y-64732857D02*
X51313571Y-64732857D01*
X51313571Y-64161429D01*
X51385000Y-64018571D01*
X51456429Y-63947143D01*
X51599286Y-63875714D01*
X51813571Y-63875714D01*
X51956429Y-63947143D01*
X52027857Y-64018571D01*
X52099286Y-64161429D01*
X52099286Y-64732857D01*
X52813571Y-63018571D02*
X52742143Y-63161429D01*
X52670714Y-63232857D01*
X52527857Y-63304286D01*
X52099286Y-63304286D01*
X51956429Y-63232857D01*
X51885000Y-63161429D01*
X51813571Y-63018571D01*
X51813571Y-62804286D01*
X51885000Y-62661429D01*
X51956429Y-62590000D01*
X52099286Y-62518571D01*
X52527857Y-62518571D01*
X52670714Y-62590000D01*
X52742143Y-62661429D01*
X52813571Y-62804286D01*
X52813571Y-63018571D01*
X51813571Y-62018571D02*
X52813571Y-61732857D01*
X52099286Y-61447143D01*
X52813571Y-61161428D01*
X51813571Y-60875714D01*
X52742143Y-59732857D02*
X52813571Y-59875714D01*
X52813571Y-60161428D01*
X52742143Y-60304285D01*
X52599286Y-60375714D01*
X52027857Y-60375714D01*
X51885000Y-60304285D01*
X51813571Y-60161428D01*
X51813571Y-59875714D01*
X51885000Y-59732857D01*
X52027857Y-59661428D01*
X52170714Y-59661428D01*
X52313571Y-60375714D01*
X52813571Y-59018571D02*
X51813571Y-59018571D01*
X52099286Y-59018571D02*
X51956429Y-58947143D01*
X51885000Y-58875714D01*
X51813571Y-58732857D01*
X51813571Y-58590000D01*
X55363571Y-68268571D02*
X53863571Y-68268571D01*
X54435000Y-68268571D02*
X54363571Y-68125714D01*
X54363571Y-67840000D01*
X54435000Y-67697143D01*
X54506429Y-67625714D01*
X54649286Y-67554285D01*
X55077857Y-67554285D01*
X55220714Y-67625714D01*
X55292143Y-67697143D01*
X55363571Y-67840000D01*
X55363571Y-68125714D01*
X55292143Y-68268571D01*
X54363571Y-67054285D02*
X55363571Y-66697142D01*
X54363571Y-66340000D02*
X55363571Y-66697142D01*
X55720714Y-66840000D01*
X55792143Y-66911428D01*
X55863571Y-67054285D01*
X55292143Y-64697143D02*
X55363571Y-64554286D01*
X55363571Y-64268571D01*
X55292143Y-64125714D01*
X55149286Y-64054286D01*
X55077857Y-64054286D01*
X54935000Y-64125714D01*
X54863571Y-64268571D01*
X54863571Y-64482857D01*
X54792143Y-64625714D01*
X54649286Y-64697143D01*
X54577857Y-64697143D01*
X54435000Y-64625714D01*
X54363571Y-64482857D01*
X54363571Y-64268571D01*
X54435000Y-64125714D01*
X54363571Y-63411428D02*
X55649286Y-63411428D01*
X55792143Y-63482857D01*
X55863571Y-63625714D01*
X55863571Y-63697142D01*
X53863571Y-63411428D02*
X53935000Y-63482857D01*
X54006429Y-63411428D01*
X53935000Y-63340000D01*
X53863571Y-63411428D01*
X54006429Y-63411428D01*
X55363571Y-62697142D02*
X54363571Y-62697142D01*
X54506429Y-62697142D02*
X54435000Y-62625714D01*
X54363571Y-62482856D01*
X54363571Y-62268571D01*
X54435000Y-62125714D01*
X54577857Y-62054285D01*
X55363571Y-62054285D01*
X54577857Y-62054285D02*
X54435000Y-61982856D01*
X54363571Y-61839999D01*
X54363571Y-61625714D01*
X54435000Y-61482856D01*
X54577857Y-61411428D01*
X55363571Y-61411428D01*
X75785714Y-88105000D02*
X75500000Y-87962143D01*
X75071429Y-87962143D01*
X74642857Y-88105000D01*
X74357143Y-88390714D01*
X74214286Y-88676429D01*
X74071429Y-89247857D01*
X74071429Y-89676429D01*
X74214286Y-90247857D01*
X74357143Y-90533571D01*
X74642857Y-90819286D01*
X75071429Y-90962143D01*
X75357143Y-90962143D01*
X75785714Y-90819286D01*
X75928571Y-90676429D01*
X75928571Y-89676429D01*
X75357143Y-89676429D01*
X78302143Y-89819286D02*
X80587857Y-89819286D01*
X79445000Y-90962143D02*
X79445000Y-88676429D01*
X78937143Y-57434286D02*
X81222857Y-57434286D01*
X80080000Y-58577143D02*
X80080000Y-56291429D01*
X70134286Y-58362857D02*
X70134286Y-56077143D01*
D13*
X50000000Y-50000000D02*
X50000000Y-100000000D01*
X100000000Y-50000000D02*
X100000000Y-100000000D01*
X50000000Y-100000000D02*
X100000000Y-100000000D01*
X50000000Y-50000000D02*
X100000000Y-50000000D01*
D14*
X92780000Y-74400000D02*
X92780000Y-67900000D01*
X96210000Y-74490000D02*
X96210000Y-77410000D01*
X96210000Y-84020000D02*
X96210000Y-80210000D01*
X95320000Y-83250000D02*
X95320000Y-80460000D01*
X95320000Y-74490000D02*
X95320000Y-77160000D01*
X89350000Y-84020000D02*
X89350000Y-80210000D01*
X90240000Y-83250000D02*
X90240000Y-80460000D01*
X89350000Y-74490000D02*
X89350000Y-77410000D01*
X90240000Y-74490000D02*
X90240000Y-77160000D01*
X89350000Y-67940000D02*
X89350000Y-64890000D01*
X90240000Y-67940000D02*
X90240000Y-65140000D01*
X95320000Y-67940000D02*
X95320000Y-65140000D01*
X96210000Y-67940000D02*
X96210000Y-64890000D01*
X96210000Y-58280000D02*
X96210000Y-62090000D01*
X95320000Y-59170000D02*
X95320000Y-61840000D01*
X89350000Y-58280000D02*
X89350000Y-62090000D01*
X90240000Y-59170000D02*
X90240000Y-61840000D01*
X89350000Y-58280000D02*
X96210000Y-58280000D01*
X96210000Y-67940000D02*
X95320000Y-67940000D01*
X89350000Y-67940000D02*
X90240000Y-67940000D01*
X89350000Y-84020000D02*
X96210000Y-84020000D01*
X96210000Y-74490000D02*
X95320000Y-74490000D01*
X89350000Y-74490000D02*
X90370000Y-74490000D01*
X95320000Y-65440000D02*
X95320000Y-77120000D01*
X90240000Y-76990000D02*
X90240000Y-65440000D01*
X92780000Y-74490000D02*
X90240000Y-74490000D01*
X90240000Y-83260000D02*
X95320000Y-83260000D01*
X95320000Y-74490000D02*
X92780000Y-74490000D01*
X92780000Y-67940000D02*
X90240000Y-67940000D01*
X90240000Y-59180000D02*
X95320000Y-59180000D01*
X95320000Y-67940000D02*
X92780000Y-67940000D01*
X81385000Y-64550000D02*
X81385000Y-64880000D01*
X81385000Y-64880000D02*
X74965000Y-64880000D01*
X74965000Y-64880000D02*
X74965000Y-64550000D01*
X81385000Y-62590000D02*
X81385000Y-62260000D01*
X81385000Y-62260000D02*
X74965000Y-62260000D01*
X74965000Y-62260000D02*
X74965000Y-62590000D01*
D15*
X75000000Y-50645000D02*
X75000000Y-50245000D01*
X78500000Y-51745000D02*
X71500000Y-51745000D01*
X78500000Y-50645000D02*
X71500000Y-50645000D01*
X78500000Y-57845000D02*
X78500000Y-50245000D01*
X71500000Y-50245000D02*
X71500000Y-57845000D01*
X71500000Y-57845000D02*
X78500000Y-57845000D01*
X73200000Y-99355000D02*
X73200000Y-99755000D01*
X76800000Y-99355000D02*
X76800000Y-99755000D01*
X69700000Y-98255000D02*
X80300000Y-98255000D01*
X69700000Y-99355000D02*
X80300000Y-99355000D01*
X69700000Y-92155000D02*
X69700000Y-99755000D01*
X80300000Y-99755000D02*
X80300000Y-92155000D01*
X80300000Y-92155000D02*
X69700000Y-92155000D01*
D14*
X56640000Y-61770000D02*
X56640000Y-65370000D01*
X56651522Y-61731522D02*
G75*
G02X61090000Y-63570000I1838478J-1838478D01*
G01*
X56651522Y-65408478D02*
G75*
G03X61090000Y-63570000I1838478J1838478D01*
G01*
X66145000Y-72170000D02*
X66145000Y-72500000D01*
X66145000Y-72500000D02*
X59725000Y-72500000D01*
X59725000Y-72500000D02*
X59725000Y-72170000D01*
X66145000Y-70210000D02*
X66145000Y-69880000D01*
X66145000Y-69880000D02*
X59725000Y-69880000D01*
X59725000Y-69880000D02*
X59725000Y-70210000D01*
X70590000Y-64550000D02*
X70590000Y-64880000D01*
X70590000Y-64880000D02*
X64170000Y-64880000D01*
X64170000Y-64880000D02*
X64170000Y-64550000D01*
X70590000Y-62590000D02*
X70590000Y-62260000D01*
X70590000Y-62260000D02*
X64170000Y-62260000D01*
X64170000Y-62260000D02*
X64170000Y-62590000D01*
X77575000Y-61375000D02*
X77575000Y-61705000D01*
X77575000Y-61705000D02*
X71155000Y-61705000D01*
X71155000Y-61705000D02*
X71155000Y-61375000D01*
X77575000Y-59415000D02*
X77575000Y-59085000D01*
X77575000Y-59085000D02*
X71155000Y-59085000D01*
X71155000Y-59085000D02*
X71155000Y-59415000D01*
X76000000Y-67320000D02*
G75*
G02X74000000Y-67320000I-1000000J0D01*
G01*
X74000000Y-67320000D02*
X72350000Y-67320000D01*
X72350000Y-67320000D02*
X72350000Y-77600000D01*
X72350000Y-77600000D02*
X77650000Y-77600000D01*
X77650000Y-77600000D02*
X77650000Y-67320000D01*
X77650000Y-67320000D02*
X76000000Y-67320000D01*
X69860000Y-67260000D02*
X69860000Y-77660000D01*
X69860000Y-77660000D02*
X80140000Y-77660000D01*
X80140000Y-77660000D02*
X80140000Y-67260000D01*
X80140000Y-67260000D02*
X69860000Y-67260000D01*
X81310000Y-50790000D02*
X91550000Y-50790000D01*
X81310000Y-55431000D02*
X91550000Y-55431000D01*
X81310000Y-50790000D02*
X81310000Y-55431000D01*
X91550000Y-50790000D02*
X91550000Y-55431000D01*
X81310000Y-52300000D02*
X91550000Y-52300000D01*
X84580000Y-50790000D02*
X84580000Y-52300000D01*
X88281000Y-50790000D02*
X88281000Y-52300000D01*
X58450000Y-50790000D02*
X68690000Y-50790000D01*
X58450000Y-55431000D02*
X68690000Y-55431000D01*
X58450000Y-50790000D02*
X58450000Y-55431000D01*
X68690000Y-50790000D02*
X68690000Y-55431000D01*
X58450000Y-52300000D02*
X68690000Y-52300000D01*
X61720000Y-50790000D02*
X61720000Y-52300000D01*
X65421000Y-50790000D02*
X65421000Y-52300000D01*
X87840000Y-78690000D02*
X85020000Y-78690000D01*
X85020000Y-78690000D02*
X85020000Y-84010000D01*
X85020000Y-84010000D02*
X87840000Y-84010000D01*
X87840000Y-84010000D02*
X87840000Y-78690000D01*
X86430000Y-77550000D02*
X86430000Y-78690000D01*
X86430000Y-85150000D02*
X86430000Y-84010000D01*
X87840000Y-79530000D02*
X85020000Y-79530000D01*
X62160000Y-84010000D02*
X64980000Y-84010000D01*
X64980000Y-84010000D02*
X64980000Y-78690000D01*
X64980000Y-78690000D02*
X62160000Y-78690000D01*
X62160000Y-78690000D02*
X62160000Y-84010000D01*
X63570000Y-85150000D02*
X63570000Y-84010000D01*
X63570000Y-77550000D02*
X63570000Y-78690000D01*
X62160000Y-83170000D02*
X64980000Y-83170000D01*
X79820000Y-84075000D02*
X79820000Y-78625000D01*
X79820000Y-78625000D02*
X70180000Y-78625000D01*
X70180000Y-78625000D02*
X70180000Y-84075000D01*
X70180000Y-84075000D02*
X79820000Y-84075000D01*
X81240000Y-81350000D02*
X79820000Y-81350000D01*
X68760000Y-81350000D02*
X70180000Y-81350000D01*
X78332000Y-84075000D02*
X78332000Y-78625000D01*
X54810000Y-75450000D02*
X56609000Y-75450000D01*
X57831000Y-75450000D02*
X59630000Y-75450000D01*
X54810000Y-82170000D02*
X56609000Y-82170000D01*
X57831000Y-82170000D02*
X59630000Y-82170000D01*
X59630000Y-75450000D02*
X59630000Y-82170000D01*
X54810000Y-75450000D02*
X54810000Y-82170000D01*
X85046736Y-89191563D02*
G75*
G03X85050000Y-98989357I1383264J-4898437D01*
G01*
X87813264Y-89191563D02*
G75*
G02X87810000Y-98989357I-1383264J-4898437D01*
G01*
X87813264Y-89191563D02*
G75*
G03X85050000Y-89190643I-1383264J-4898437D01*
G01*
X81380000Y-94090000D02*
X91480000Y-94090000D01*
X81380000Y-94050000D02*
X91480000Y-94050000D01*
X81380000Y-94010000D02*
X91480000Y-94010000D01*
X81381000Y-93970000D02*
X91479000Y-93970000D01*
X81382000Y-93930000D02*
X91478000Y-93930000D01*
X81383000Y-93890000D02*
X91477000Y-93890000D01*
X81385000Y-93850000D02*
X91475000Y-93850000D01*
X81387000Y-93810000D02*
X91473000Y-93810000D01*
X81390000Y-93770000D02*
X91470000Y-93770000D01*
X81392000Y-93730000D02*
X91468000Y-93730000D01*
X81395000Y-93690000D02*
X91465000Y-93690000D01*
X81399000Y-93650000D02*
X91461000Y-93650000D01*
X81402000Y-93610000D02*
X91458000Y-93610000D01*
X81406000Y-93570000D02*
X91454000Y-93570000D01*
X81410000Y-93530000D02*
X91450000Y-93530000D01*
X81415000Y-93490000D02*
X91445000Y-93490000D01*
X81420000Y-93450000D02*
X91440000Y-93450000D01*
X81425000Y-93410000D02*
X91435000Y-93410000D01*
X81431000Y-93369000D02*
X91429000Y-93369000D01*
X81437000Y-93329000D02*
X91423000Y-93329000D01*
X81443000Y-93289000D02*
X91417000Y-93289000D01*
X81449000Y-93249000D02*
X91411000Y-93249000D01*
X81456000Y-93209000D02*
X91404000Y-93209000D01*
X81463000Y-93169000D02*
X91397000Y-93169000D01*
X81471000Y-93129000D02*
X91389000Y-93129000D01*
X81479000Y-93089000D02*
X91381000Y-93089000D01*
X81487000Y-93049000D02*
X91373000Y-93049000D01*
X81495000Y-93009000D02*
X91365000Y-93009000D01*
X81504000Y-92969000D02*
X91356000Y-92969000D01*
X81513000Y-92929000D02*
X91347000Y-92929000D01*
X81523000Y-92889000D02*
X91337000Y-92889000D01*
X81533000Y-92849000D02*
X91327000Y-92849000D01*
X81543000Y-92809000D02*
X91317000Y-92809000D01*
X81554000Y-92769000D02*
X85249000Y-92769000D01*
X87611000Y-92769000D02*
X91306000Y-92769000D01*
X81565000Y-92729000D02*
X85249000Y-92729000D01*
X87611000Y-92729000D02*
X91295000Y-92729000D01*
X81576000Y-92689000D02*
X85249000Y-92689000D01*
X87611000Y-92689000D02*
X91284000Y-92689000D01*
X81587000Y-92649000D02*
X85249000Y-92649000D01*
X87611000Y-92649000D02*
X91273000Y-92649000D01*
X81599000Y-92609000D02*
X85249000Y-92609000D01*
X87611000Y-92609000D02*
X91261000Y-92609000D01*
X81612000Y-92569000D02*
X85249000Y-92569000D01*
X87611000Y-92569000D02*
X91248000Y-92569000D01*
X81624000Y-92529000D02*
X85249000Y-92529000D01*
X87611000Y-92529000D02*
X91236000Y-92529000D01*
X81638000Y-92489000D02*
X85249000Y-92489000D01*
X87611000Y-92489000D02*
X91222000Y-92489000D01*
X81651000Y-92449000D02*
X85249000Y-92449000D01*
X87611000Y-92449000D02*
X91209000Y-92449000D01*
X81665000Y-92409000D02*
X85249000Y-92409000D01*
X87611000Y-92409000D02*
X91195000Y-92409000D01*
X81679000Y-92369000D02*
X85249000Y-92369000D01*
X87611000Y-92369000D02*
X91181000Y-92369000D01*
X81693000Y-92329000D02*
X85249000Y-92329000D01*
X87611000Y-92329000D02*
X91167000Y-92329000D01*
X81708000Y-92289000D02*
X85249000Y-92289000D01*
X87611000Y-92289000D02*
X91152000Y-92289000D01*
X81724000Y-92249000D02*
X85249000Y-92249000D01*
X87611000Y-92249000D02*
X91136000Y-92249000D01*
X81739000Y-92209000D02*
X85249000Y-92209000D01*
X87611000Y-92209000D02*
X91121000Y-92209000D01*
X81756000Y-92169000D02*
X85249000Y-92169000D01*
X87611000Y-92169000D02*
X91104000Y-92169000D01*
X81772000Y-92129000D02*
X85249000Y-92129000D01*
X87611000Y-92129000D02*
X91088000Y-92129000D01*
X81789000Y-92089000D02*
X85249000Y-92089000D01*
X87611000Y-92089000D02*
X91071000Y-92089000D01*
X81806000Y-92049000D02*
X85249000Y-92049000D01*
X87611000Y-92049000D02*
X91054000Y-92049000D01*
X81824000Y-92009000D02*
X85249000Y-92009000D01*
X87611000Y-92009000D02*
X91036000Y-92009000D01*
X81842000Y-91969000D02*
X85249000Y-91969000D01*
X87611000Y-91969000D02*
X91018000Y-91969000D01*
X81861000Y-91929000D02*
X85249000Y-91929000D01*
X87611000Y-91929000D02*
X90999000Y-91929000D01*
X81880000Y-91889000D02*
X85249000Y-91889000D01*
X87611000Y-91889000D02*
X90980000Y-91889000D01*
X81899000Y-91849000D02*
X85249000Y-91849000D01*
X87611000Y-91849000D02*
X90961000Y-91849000D01*
X81919000Y-91809000D02*
X85249000Y-91809000D01*
X87611000Y-91809000D02*
X90941000Y-91809000D01*
X81939000Y-91769000D02*
X85249000Y-91769000D01*
X87611000Y-91769000D02*
X90921000Y-91769000D01*
X81960000Y-91729000D02*
X85249000Y-91729000D01*
X87611000Y-91729000D02*
X90900000Y-91729000D01*
X81981000Y-91689000D02*
X85249000Y-91689000D01*
X87611000Y-91689000D02*
X90879000Y-91689000D01*
X82002000Y-91649000D02*
X85249000Y-91649000D01*
X87611000Y-91649000D02*
X90858000Y-91649000D01*
X82025000Y-91609000D02*
X85249000Y-91609000D01*
X87611000Y-91609000D02*
X90835000Y-91609000D01*
X82047000Y-91569000D02*
X85249000Y-91569000D01*
X87611000Y-91569000D02*
X90813000Y-91569000D01*
X82070000Y-91529000D02*
X85249000Y-91529000D01*
X87611000Y-91529000D02*
X90790000Y-91529000D01*
X82094000Y-91489000D02*
X85249000Y-91489000D01*
X87611000Y-91489000D02*
X90766000Y-91489000D01*
X82118000Y-91449000D02*
X85249000Y-91449000D01*
X87611000Y-91449000D02*
X90742000Y-91449000D01*
X82142000Y-91409000D02*
X85249000Y-91409000D01*
X87611000Y-91409000D02*
X90718000Y-91409000D01*
X82167000Y-91369000D02*
X85249000Y-91369000D01*
X87611000Y-91369000D02*
X90693000Y-91369000D01*
X82193000Y-91329000D02*
X85249000Y-91329000D01*
X87611000Y-91329000D02*
X90667000Y-91329000D01*
X82219000Y-91289000D02*
X85249000Y-91289000D01*
X87611000Y-91289000D02*
X90641000Y-91289000D01*
X82245000Y-91249000D02*
X85249000Y-91249000D01*
X87611000Y-91249000D02*
X90615000Y-91249000D01*
X82273000Y-91209000D02*
X85249000Y-91209000D01*
X87611000Y-91209000D02*
X90587000Y-91209000D01*
X82300000Y-91169000D02*
X85249000Y-91169000D01*
X87611000Y-91169000D02*
X90560000Y-91169000D01*
X82329000Y-91129000D02*
X85249000Y-91129000D01*
X87611000Y-91129000D02*
X90531000Y-91129000D01*
X82358000Y-91089000D02*
X85249000Y-91089000D01*
X87611000Y-91089000D02*
X90502000Y-91089000D01*
X82387000Y-91049000D02*
X85249000Y-91049000D01*
X87611000Y-91049000D02*
X90473000Y-91049000D01*
X82417000Y-91009000D02*
X85249000Y-91009000D01*
X87611000Y-91009000D02*
X90443000Y-91009000D01*
X82448000Y-90969000D02*
X85249000Y-90969000D01*
X87611000Y-90969000D02*
X90412000Y-90969000D01*
X82479000Y-90929000D02*
X85249000Y-90929000D01*
X87611000Y-90929000D02*
X90381000Y-90929000D01*
X82511000Y-90889000D02*
X85249000Y-90889000D01*
X87611000Y-90889000D02*
X90349000Y-90889000D01*
X82544000Y-90849000D02*
X85249000Y-90849000D01*
X87611000Y-90849000D02*
X90316000Y-90849000D01*
X82577000Y-90809000D02*
X85249000Y-90809000D01*
X87611000Y-90809000D02*
X90283000Y-90809000D01*
X82611000Y-90769000D02*
X85249000Y-90769000D01*
X87611000Y-90769000D02*
X90249000Y-90769000D01*
X82646000Y-90729000D02*
X85249000Y-90729000D01*
X87611000Y-90729000D02*
X90214000Y-90729000D01*
X82682000Y-90689000D02*
X85249000Y-90689000D01*
X87611000Y-90689000D02*
X90178000Y-90689000D01*
X82718000Y-90649000D02*
X85249000Y-90649000D01*
X87611000Y-90649000D02*
X90142000Y-90649000D01*
X82755000Y-90609000D02*
X85249000Y-90609000D01*
X87611000Y-90609000D02*
X90105000Y-90609000D01*
X82793000Y-90569000D02*
X85249000Y-90569000D01*
X87611000Y-90569000D02*
X90067000Y-90569000D01*
X82832000Y-90529000D02*
X85249000Y-90529000D01*
X87611000Y-90529000D02*
X90028000Y-90529000D01*
X82871000Y-90489000D02*
X85249000Y-90489000D01*
X87611000Y-90489000D02*
X89989000Y-90489000D01*
X82912000Y-90449000D02*
X85249000Y-90449000D01*
X87611000Y-90449000D02*
X89948000Y-90449000D01*
X82953000Y-90409000D02*
X89907000Y-90409000D01*
X82995000Y-90369000D02*
X89865000Y-90369000D01*
X83039000Y-90329000D02*
X89821000Y-90329000D01*
X83083000Y-90289000D02*
X89777000Y-90289000D01*
X83128000Y-90249000D02*
X89732000Y-90249000D01*
X83175000Y-90209000D02*
X89685000Y-90209000D01*
X83223000Y-90169000D02*
X89637000Y-90169000D01*
X83272000Y-90129000D02*
X89588000Y-90129000D01*
X83322000Y-90089000D02*
X89538000Y-90089000D01*
X83373000Y-90049000D02*
X89487000Y-90049000D01*
X83426000Y-90009000D02*
X89434000Y-90009000D01*
X83481000Y-89969000D02*
X89379000Y-89969000D01*
X83536000Y-89929000D02*
X89324000Y-89929000D01*
X83594000Y-89889000D02*
X89266000Y-89889000D01*
X83653000Y-89849000D02*
X89207000Y-89849000D01*
X83715000Y-89809000D02*
X89145000Y-89809000D01*
X83778000Y-89769000D02*
X89082000Y-89769000D01*
X83843000Y-89729000D02*
X89017000Y-89729000D01*
X83911000Y-89689000D02*
X88949000Y-89689000D01*
X83981000Y-89649000D02*
X88879000Y-89649000D01*
X84053000Y-89609000D02*
X88807000Y-89609000D01*
X84129000Y-89569000D02*
X88731000Y-89569000D01*
X84208000Y-89529000D02*
X88652000Y-89529000D01*
X84290000Y-89489000D02*
X88570000Y-89489000D01*
X84377000Y-89449000D02*
X88483000Y-89449000D01*
X84468000Y-89409000D02*
X88392000Y-89409000D01*
X84564000Y-89369000D02*
X88296000Y-89369000D01*
X84667000Y-89329000D02*
X88193000Y-89329000D01*
X84776000Y-89289000D02*
X88084000Y-89289000D01*
X84894000Y-89249000D02*
X87966000Y-89249000D01*
X85023000Y-89209000D02*
X87837000Y-89209000D01*
X85165000Y-89169000D02*
X87695000Y-89169000D01*
X85326000Y-89129000D02*
X87534000Y-89129000D01*
X85517000Y-89089000D02*
X87343000Y-89089000D01*
X85758000Y-89049000D02*
X87102000Y-89049000D01*
X86151000Y-89009000D02*
X86709000Y-89009000D01*
X86430000Y-99290000D02*
X86430000Y-97790000D01*
X85680000Y-98540000D02*
X87180000Y-98540000D01*
X64953264Y-98908437D02*
G75*
G03X64950000Y-89110643I-1383264J4898437D01*
G01*
X62186736Y-98908437D02*
G75*
G02X62190000Y-89110643I1383264J4898437D01*
G01*
X62186736Y-98908437D02*
G75*
G03X64950000Y-98909357I1383264J4898437D01*
G01*
X68620000Y-94010000D02*
X58520000Y-94010000D01*
X68620000Y-94050000D02*
X58520000Y-94050000D01*
X68620000Y-94090000D02*
X58520000Y-94090000D01*
X68619000Y-94130000D02*
X58521000Y-94130000D01*
X68618000Y-94170000D02*
X58522000Y-94170000D01*
X68617000Y-94210000D02*
X58523000Y-94210000D01*
X68615000Y-94250000D02*
X58525000Y-94250000D01*
X68613000Y-94290000D02*
X58527000Y-94290000D01*
X68610000Y-94330000D02*
X58530000Y-94330000D01*
X68608000Y-94370000D02*
X58532000Y-94370000D01*
X68605000Y-94410000D02*
X58535000Y-94410000D01*
X68601000Y-94450000D02*
X58539000Y-94450000D01*
X68598000Y-94490000D02*
X58542000Y-94490000D01*
X68594000Y-94530000D02*
X58546000Y-94530000D01*
X68590000Y-94570000D02*
X58550000Y-94570000D01*
X68585000Y-94610000D02*
X58555000Y-94610000D01*
X68580000Y-94650000D02*
X58560000Y-94650000D01*
X68575000Y-94690000D02*
X58565000Y-94690000D01*
X68569000Y-94731000D02*
X58571000Y-94731000D01*
X68563000Y-94771000D02*
X58577000Y-94771000D01*
X68557000Y-94811000D02*
X58583000Y-94811000D01*
X68551000Y-94851000D02*
X58589000Y-94851000D01*
X68544000Y-94891000D02*
X58596000Y-94891000D01*
X68537000Y-94931000D02*
X58603000Y-94931000D01*
X68529000Y-94971000D02*
X58611000Y-94971000D01*
X68521000Y-95011000D02*
X58619000Y-95011000D01*
X68513000Y-95051000D02*
X58627000Y-95051000D01*
X68505000Y-95091000D02*
X58635000Y-95091000D01*
X68496000Y-95131000D02*
X58644000Y-95131000D01*
X68487000Y-95171000D02*
X58653000Y-95171000D01*
X68477000Y-95211000D02*
X58663000Y-95211000D01*
X68467000Y-95251000D02*
X58673000Y-95251000D01*
X68457000Y-95291000D02*
X58683000Y-95291000D01*
X68446000Y-95331000D02*
X64751000Y-95331000D01*
X62389000Y-95331000D02*
X58694000Y-95331000D01*
X68435000Y-95371000D02*
X64751000Y-95371000D01*
X62389000Y-95371000D02*
X58705000Y-95371000D01*
X68424000Y-95411000D02*
X64751000Y-95411000D01*
X62389000Y-95411000D02*
X58716000Y-95411000D01*
X68413000Y-95451000D02*
X64751000Y-95451000D01*
X62389000Y-95451000D02*
X58727000Y-95451000D01*
X68401000Y-95491000D02*
X64751000Y-95491000D01*
X62389000Y-95491000D02*
X58739000Y-95491000D01*
X68388000Y-95531000D02*
X64751000Y-95531000D01*
X62389000Y-95531000D02*
X58752000Y-95531000D01*
X68376000Y-95571000D02*
X64751000Y-95571000D01*
X62389000Y-95571000D02*
X58764000Y-95571000D01*
X68362000Y-95611000D02*
X64751000Y-95611000D01*
X62389000Y-95611000D02*
X58778000Y-95611000D01*
X68349000Y-95651000D02*
X64751000Y-95651000D01*
X62389000Y-95651000D02*
X58791000Y-95651000D01*
X68335000Y-95691000D02*
X64751000Y-95691000D01*
X62389000Y-95691000D02*
X58805000Y-95691000D01*
X68321000Y-95731000D02*
X64751000Y-95731000D01*
X62389000Y-95731000D02*
X58819000Y-95731000D01*
X68307000Y-95771000D02*
X64751000Y-95771000D01*
X62389000Y-95771000D02*
X58833000Y-95771000D01*
X68292000Y-95811000D02*
X64751000Y-95811000D01*
X62389000Y-95811000D02*
X58848000Y-95811000D01*
X68276000Y-95851000D02*
X64751000Y-95851000D01*
X62389000Y-95851000D02*
X58864000Y-95851000D01*
X68261000Y-95891000D02*
X64751000Y-95891000D01*
X62389000Y-95891000D02*
X58879000Y-95891000D01*
X68244000Y-95931000D02*
X64751000Y-95931000D01*
X62389000Y-95931000D02*
X58896000Y-95931000D01*
X68228000Y-95971000D02*
X64751000Y-95971000D01*
X62389000Y-95971000D02*
X58912000Y-95971000D01*
X68211000Y-96011000D02*
X64751000Y-96011000D01*
X62389000Y-96011000D02*
X58929000Y-96011000D01*
X68194000Y-96051000D02*
X64751000Y-96051000D01*
X62389000Y-96051000D02*
X58946000Y-96051000D01*
X68176000Y-96091000D02*
X64751000Y-96091000D01*
X62389000Y-96091000D02*
X58964000Y-96091000D01*
X68158000Y-96131000D02*
X64751000Y-96131000D01*
X62389000Y-96131000D02*
X58982000Y-96131000D01*
X68139000Y-96171000D02*
X64751000Y-96171000D01*
X62389000Y-96171000D02*
X59001000Y-96171000D01*
X68120000Y-96211000D02*
X64751000Y-96211000D01*
X62389000Y-96211000D02*
X59020000Y-96211000D01*
X68101000Y-96251000D02*
X64751000Y-96251000D01*
X62389000Y-96251000D02*
X59039000Y-96251000D01*
X68081000Y-96291000D02*
X64751000Y-96291000D01*
X62389000Y-96291000D02*
X59059000Y-96291000D01*
X68061000Y-96331000D02*
X64751000Y-96331000D01*
X62389000Y-96331000D02*
X59079000Y-96331000D01*
X68040000Y-96371000D02*
X64751000Y-96371000D01*
X62389000Y-96371000D02*
X59100000Y-96371000D01*
X68019000Y-96411000D02*
X64751000Y-96411000D01*
X62389000Y-96411000D02*
X59121000Y-96411000D01*
X67998000Y-96451000D02*
X64751000Y-96451000D01*
X62389000Y-96451000D02*
X59142000Y-96451000D01*
X67975000Y-96491000D02*
X64751000Y-96491000D01*
X62389000Y-96491000D02*
X59165000Y-96491000D01*
X67953000Y-96531000D02*
X64751000Y-96531000D01*
X62389000Y-96531000D02*
X59187000Y-96531000D01*
X67930000Y-96571000D02*
X64751000Y-96571000D01*
X62389000Y-96571000D02*
X59210000Y-96571000D01*
X67906000Y-96611000D02*
X64751000Y-96611000D01*
X62389000Y-96611000D02*
X59234000Y-96611000D01*
X67882000Y-96651000D02*
X64751000Y-96651000D01*
X62389000Y-96651000D02*
X59258000Y-96651000D01*
X67858000Y-96691000D02*
X64751000Y-96691000D01*
X62389000Y-96691000D02*
X59282000Y-96691000D01*
X67833000Y-96731000D02*
X64751000Y-96731000D01*
X62389000Y-96731000D02*
X59307000Y-96731000D01*
X67807000Y-96771000D02*
X64751000Y-96771000D01*
X62389000Y-96771000D02*
X59333000Y-96771000D01*
X67781000Y-96811000D02*
X64751000Y-96811000D01*
X62389000Y-96811000D02*
X59359000Y-96811000D01*
X67755000Y-96851000D02*
X64751000Y-96851000D01*
X62389000Y-96851000D02*
X59385000Y-96851000D01*
X67727000Y-96891000D02*
X64751000Y-96891000D01*
X62389000Y-96891000D02*
X59413000Y-96891000D01*
X67700000Y-96931000D02*
X64751000Y-96931000D01*
X62389000Y-96931000D02*
X59440000Y-96931000D01*
X67671000Y-96971000D02*
X64751000Y-96971000D01*
X62389000Y-96971000D02*
X59469000Y-96971000D01*
X67642000Y-97011000D02*
X64751000Y-97011000D01*
X62389000Y-97011000D02*
X59498000Y-97011000D01*
X67613000Y-97051000D02*
X64751000Y-97051000D01*
X62389000Y-97051000D02*
X59527000Y-97051000D01*
X67583000Y-97091000D02*
X64751000Y-97091000D01*
X62389000Y-97091000D02*
X59557000Y-97091000D01*
X67552000Y-97131000D02*
X64751000Y-97131000D01*
X62389000Y-97131000D02*
X59588000Y-97131000D01*
X67521000Y-97171000D02*
X64751000Y-97171000D01*
X62389000Y-97171000D02*
X59619000Y-97171000D01*
X67489000Y-97211000D02*
X64751000Y-97211000D01*
X62389000Y-97211000D02*
X59651000Y-97211000D01*
X67456000Y-97251000D02*
X64751000Y-97251000D01*
X62389000Y-97251000D02*
X59684000Y-97251000D01*
X67423000Y-97291000D02*
X64751000Y-97291000D01*
X62389000Y-97291000D02*
X59717000Y-97291000D01*
X67389000Y-97331000D02*
X64751000Y-97331000D01*
X62389000Y-97331000D02*
X59751000Y-97331000D01*
X67354000Y-97371000D02*
X64751000Y-97371000D01*
X62389000Y-97371000D02*
X59786000Y-97371000D01*
X67318000Y-97411000D02*
X64751000Y-97411000D01*
X62389000Y-97411000D02*
X59822000Y-97411000D01*
X67282000Y-97451000D02*
X64751000Y-97451000D01*
X62389000Y-97451000D02*
X59858000Y-97451000D01*
X67245000Y-97491000D02*
X64751000Y-97491000D01*
X62389000Y-97491000D02*
X59895000Y-97491000D01*
X67207000Y-97531000D02*
X64751000Y-97531000D01*
X62389000Y-97531000D02*
X59933000Y-97531000D01*
X67168000Y-97571000D02*
X64751000Y-97571000D01*
X62389000Y-97571000D02*
X59972000Y-97571000D01*
X67129000Y-97611000D02*
X64751000Y-97611000D01*
X62389000Y-97611000D02*
X60011000Y-97611000D01*
X67088000Y-97651000D02*
X64751000Y-97651000D01*
X62389000Y-97651000D02*
X60052000Y-97651000D01*
X67047000Y-97691000D02*
X60093000Y-97691000D01*
X67005000Y-97731000D02*
X60135000Y-97731000D01*
X66961000Y-97771000D02*
X60179000Y-97771000D01*
X66917000Y-97811000D02*
X60223000Y-97811000D01*
X66872000Y-97851000D02*
X60268000Y-97851000D01*
X66825000Y-97891000D02*
X60315000Y-97891000D01*
X66777000Y-97931000D02*
X60363000Y-97931000D01*
X66728000Y-97971000D02*
X60412000Y-97971000D01*
X66678000Y-98011000D02*
X60462000Y-98011000D01*
X66627000Y-98051000D02*
X60513000Y-98051000D01*
X66574000Y-98091000D02*
X60566000Y-98091000D01*
X66519000Y-98131000D02*
X60621000Y-98131000D01*
X66464000Y-98171000D02*
X60676000Y-98171000D01*
X66406000Y-98211000D02*
X60734000Y-98211000D01*
X66347000Y-98251000D02*
X60793000Y-98251000D01*
X66285000Y-98291000D02*
X60855000Y-98291000D01*
X66222000Y-98331000D02*
X60918000Y-98331000D01*
X66157000Y-98371000D02*
X60983000Y-98371000D01*
X66089000Y-98411000D02*
X61051000Y-98411000D01*
X66019000Y-98451000D02*
X61121000Y-98451000D01*
X65947000Y-98491000D02*
X61193000Y-98491000D01*
X65871000Y-98531000D02*
X61269000Y-98531000D01*
X65792000Y-98571000D02*
X61348000Y-98571000D01*
X65710000Y-98611000D02*
X61430000Y-98611000D01*
X65623000Y-98651000D02*
X61517000Y-98651000D01*
X65532000Y-98691000D02*
X61608000Y-98691000D01*
X65436000Y-98731000D02*
X61704000Y-98731000D01*
X65333000Y-98771000D02*
X61807000Y-98771000D01*
X65224000Y-98811000D02*
X61916000Y-98811000D01*
X65106000Y-98851000D02*
X62034000Y-98851000D01*
X64977000Y-98891000D02*
X62163000Y-98891000D01*
X64835000Y-98931000D02*
X62305000Y-98931000D01*
X64674000Y-98971000D02*
X62466000Y-98971000D01*
X64483000Y-99011000D02*
X62657000Y-99011000D01*
X64242000Y-99051000D02*
X62898000Y-99051000D01*
X63849000Y-99091000D02*
X63291000Y-99091000D01*
X63570000Y-88810000D02*
X63570000Y-90310000D01*
X64320000Y-89560000D02*
X62820000Y-89560000D01*
X77480000Y-85120000D02*
X82600000Y-85120000D01*
X77480000Y-87740000D02*
X82600000Y-87740000D01*
X77480000Y-85120000D02*
X77480000Y-85434000D01*
X77480000Y-87426000D02*
X77480000Y-87740000D01*
X82600000Y-85120000D02*
X82600000Y-85434000D01*
X82600000Y-87426000D02*
X82600000Y-87740000D01*
X67320000Y-85120000D02*
X72440000Y-85120000D01*
X67320000Y-87740000D02*
X72440000Y-87740000D01*
X67320000Y-85120000D02*
X67320000Y-85434000D01*
X67320000Y-87426000D02*
X67320000Y-87740000D01*
X72440000Y-85120000D02*
X72440000Y-85434000D01*
X72440000Y-87426000D02*
X72440000Y-87740000D01*
D13*
X93908571Y-71707333D02*
X93908571Y-72040667D01*
X94432381Y-72040667D02*
X93432381Y-72040667D01*
X93432381Y-71564476D01*
X94432381Y-70659714D02*
X94432381Y-71231143D01*
X94432381Y-70945429D02*
X93432381Y-70945429D01*
X93575238Y-71040667D01*
X93670476Y-71135905D01*
X93718095Y-71231143D01*
X88606381Y-72310476D02*
X88606381Y-71739047D01*
X89606381Y-72024762D02*
X88606381Y-72024762D01*
X88701619Y-71453333D02*
X88654000Y-71405714D01*
X88606381Y-71310476D01*
X88606381Y-71072380D01*
X88654000Y-70977142D01*
X88701619Y-70929523D01*
X88796857Y-70881904D01*
X88892095Y-70881904D01*
X89034952Y-70929523D01*
X89606381Y-71500952D01*
X89606381Y-70881904D01*
X89320667Y-70500952D02*
X89320667Y-70024761D01*
X89606381Y-70596190D02*
X88606381Y-70262857D01*
X89606381Y-69929523D01*
X78008334Y-64022381D02*
X77675000Y-63546190D01*
X77436905Y-64022381D02*
X77436905Y-63022381D01*
X77817858Y-63022381D01*
X77913096Y-63070000D01*
X77960715Y-63117619D01*
X78008334Y-63212857D01*
X78008334Y-63355714D01*
X77960715Y-63450952D01*
X77913096Y-63498571D01*
X77817858Y-63546190D01*
X77436905Y-63546190D01*
X78960715Y-64022381D02*
X78389286Y-64022381D01*
X78675000Y-64022381D02*
X78675000Y-63022381D01*
X78579762Y-63165238D01*
X78484524Y-63260476D01*
X78389286Y-63308095D01*
X59037619Y-59855238D02*
X58990000Y-59950476D01*
X58894762Y-60045714D01*
X58751905Y-60188571D01*
X58704286Y-60283810D01*
X58704286Y-60379048D01*
X58942381Y-60331429D02*
X58894762Y-60426667D01*
X58799524Y-60521905D01*
X58609048Y-60569524D01*
X58275714Y-60569524D01*
X58085238Y-60521905D01*
X57990000Y-60426667D01*
X57942381Y-60331429D01*
X57942381Y-60140952D01*
X57990000Y-60045714D01*
X58085238Y-59950476D01*
X58275714Y-59902857D01*
X58609048Y-59902857D01*
X58799524Y-59950476D01*
X58894762Y-60045714D01*
X58942381Y-60140952D01*
X58942381Y-60331429D01*
X58942381Y-58950476D02*
X58942381Y-59521905D01*
X58942381Y-59236191D02*
X57942381Y-59236191D01*
X58085238Y-59331429D01*
X58180476Y-59426667D01*
X58228095Y-59521905D01*
X62768334Y-71642381D02*
X62435000Y-71166190D01*
X62196905Y-71642381D02*
X62196905Y-70642381D01*
X62577858Y-70642381D01*
X62673096Y-70690000D01*
X62720715Y-70737619D01*
X62768334Y-70832857D01*
X62768334Y-70975714D01*
X62720715Y-71070952D01*
X62673096Y-71118571D01*
X62577858Y-71166190D01*
X62196905Y-71166190D01*
X63149286Y-70737619D02*
X63196905Y-70690000D01*
X63292143Y-70642381D01*
X63530239Y-70642381D01*
X63625477Y-70690000D01*
X63673096Y-70737619D01*
X63720715Y-70832857D01*
X63720715Y-70928095D01*
X63673096Y-71070952D01*
X63101667Y-71642381D01*
X63720715Y-71642381D01*
X67213334Y-64022381D02*
X66880000Y-63546190D01*
X66641905Y-64022381D02*
X66641905Y-63022381D01*
X67022858Y-63022381D01*
X67118096Y-63070000D01*
X67165715Y-63117619D01*
X67213334Y-63212857D01*
X67213334Y-63355714D01*
X67165715Y-63450952D01*
X67118096Y-63498571D01*
X67022858Y-63546190D01*
X66641905Y-63546190D01*
X67546667Y-63022381D02*
X68165715Y-63022381D01*
X67832381Y-63403333D01*
X67975239Y-63403333D01*
X68070477Y-63450952D01*
X68118096Y-63498571D01*
X68165715Y-63593810D01*
X68165715Y-63831905D01*
X68118096Y-63927143D01*
X68070477Y-63974762D01*
X67975239Y-64022381D01*
X67689524Y-64022381D01*
X67594286Y-63974762D01*
X67546667Y-63927143D01*
X74198334Y-60847381D02*
X73865000Y-60371190D01*
X73626905Y-60847381D02*
X73626905Y-59847381D01*
X74007858Y-59847381D01*
X74103096Y-59895000D01*
X74150715Y-59942619D01*
X74198334Y-60037857D01*
X74198334Y-60180714D01*
X74150715Y-60275952D01*
X74103096Y-60323571D01*
X74007858Y-60371190D01*
X73626905Y-60371190D01*
X75055477Y-60180714D02*
X75055477Y-60847381D01*
X74817381Y-59799762D02*
X74579286Y-60514048D01*
X75198334Y-60514048D01*
X72968095Y-68102381D02*
X72968095Y-68911905D01*
X73015714Y-69007143D01*
X73063333Y-69054762D01*
X73158571Y-69102381D01*
X73349048Y-69102381D01*
X73444286Y-69054762D01*
X73491905Y-69007143D01*
X73539524Y-68911905D01*
X73539524Y-68102381D01*
X74539524Y-69102381D02*
X73968095Y-69102381D01*
X74253809Y-69102381D02*
X74253809Y-68102381D01*
X74158571Y-68245238D01*
X74063333Y-68340476D01*
X73968095Y-68388095D01*
X86587619Y-56107381D02*
X87159048Y-56107381D01*
X86873333Y-57107381D02*
X86873333Y-56107381D01*
X87492381Y-57107381D02*
X87492381Y-56107381D01*
X87968571Y-57107381D02*
X87968571Y-56107381D01*
X88349524Y-56107381D01*
X88444762Y-56155000D01*
X88492381Y-56202619D01*
X88540000Y-56297857D01*
X88540000Y-56440714D01*
X88492381Y-56535952D01*
X88444762Y-56583571D01*
X88349524Y-56631190D01*
X87968571Y-56631190D01*
X89492381Y-57107381D02*
X88920952Y-57107381D01*
X89206666Y-57107381D02*
X89206666Y-56107381D01*
X89111428Y-56250238D01*
X89016190Y-56345476D01*
X88920952Y-56393095D01*
X89873333Y-56202619D02*
X89920952Y-56155000D01*
X90016190Y-56107381D01*
X90254286Y-56107381D01*
X90349524Y-56155000D01*
X90397143Y-56202619D01*
X90444762Y-56297857D01*
X90444762Y-56393095D01*
X90397143Y-56535952D01*
X89825714Y-57107381D01*
X90444762Y-57107381D01*
X90825714Y-56202619D02*
X90873333Y-56155000D01*
X90968571Y-56107381D01*
X91206667Y-56107381D01*
X91301905Y-56155000D01*
X91349524Y-56202619D01*
X91397143Y-56297857D01*
X91397143Y-56393095D01*
X91349524Y-56535952D01*
X90778095Y-57107381D01*
X91397143Y-57107381D01*
X58647619Y-56107381D02*
X59219048Y-56107381D01*
X58933333Y-57107381D02*
X58933333Y-56107381D01*
X59552381Y-57107381D02*
X59552381Y-56107381D01*
X60028571Y-57107381D02*
X60028571Y-56107381D01*
X60409524Y-56107381D01*
X60504762Y-56155000D01*
X60552381Y-56202619D01*
X60600000Y-56297857D01*
X60600000Y-56440714D01*
X60552381Y-56535952D01*
X60504762Y-56583571D01*
X60409524Y-56631190D01*
X60028571Y-56631190D01*
X61552381Y-57107381D02*
X60980952Y-57107381D01*
X61266666Y-57107381D02*
X61266666Y-56107381D01*
X61171428Y-56250238D01*
X61076190Y-56345476D01*
X60980952Y-56393095D01*
X61933333Y-56202619D02*
X61980952Y-56155000D01*
X62076190Y-56107381D01*
X62314286Y-56107381D01*
X62409524Y-56155000D01*
X62457143Y-56202619D01*
X62504762Y-56297857D01*
X62504762Y-56393095D01*
X62457143Y-56535952D01*
X61885714Y-57107381D01*
X62504762Y-57107381D01*
X62838095Y-56107381D02*
X63504762Y-56107381D01*
X63076190Y-57107381D01*
X86882381Y-82088095D02*
X85882381Y-82088095D01*
X85882381Y-81850000D01*
X85930000Y-81707142D01*
X86025238Y-81611904D01*
X86120476Y-81564285D01*
X86310952Y-81516666D01*
X86453810Y-81516666D01*
X86644286Y-81564285D01*
X86739524Y-81611904D01*
X86834762Y-81707142D01*
X86882381Y-81850000D01*
X86882381Y-82088095D01*
X86882381Y-80564285D02*
X86882381Y-81135714D01*
X86882381Y-80850000D02*
X85882381Y-80850000D01*
X86025238Y-80945238D01*
X86120476Y-81040476D01*
X86168095Y-81135714D01*
X64022381Y-82088095D02*
X63022381Y-82088095D01*
X63022381Y-81850000D01*
X63070000Y-81707142D01*
X63165238Y-81611904D01*
X63260476Y-81564285D01*
X63450952Y-81516666D01*
X63593810Y-81516666D01*
X63784286Y-81564285D01*
X63879524Y-81611904D01*
X63974762Y-81707142D01*
X64022381Y-81850000D01*
X64022381Y-82088095D01*
X63117619Y-81135714D02*
X63070000Y-81088095D01*
X63022381Y-80992857D01*
X63022381Y-80754761D01*
X63070000Y-80659523D01*
X63117619Y-80611904D01*
X63212857Y-80564285D01*
X63308095Y-80564285D01*
X63450952Y-80611904D01*
X64022381Y-81183333D01*
X64022381Y-80564285D01*
X76166905Y-83072381D02*
X76166905Y-82072381D01*
X76405000Y-82072381D01*
X76547858Y-82120000D01*
X76643096Y-82215238D01*
X76690715Y-82310476D01*
X76738334Y-82500952D01*
X76738334Y-82643810D01*
X76690715Y-82834286D01*
X76643096Y-82929524D01*
X76547858Y-83024762D01*
X76405000Y-83072381D01*
X76166905Y-83072381D01*
X77071667Y-82072381D02*
X77690715Y-82072381D01*
X77357381Y-82453333D01*
X77500239Y-82453333D01*
X77595477Y-82500952D01*
X77643096Y-82548571D01*
X77690715Y-82643810D01*
X77690715Y-82881905D01*
X77643096Y-82977143D01*
X77595477Y-83024762D01*
X77500239Y-83072381D01*
X77214524Y-83072381D01*
X77119286Y-83024762D01*
X77071667Y-82977143D01*
X72857143Y-80532381D02*
X72285714Y-80532381D01*
X72571428Y-80532381D02*
X72571428Y-79532381D01*
X72476190Y-79675238D01*
X72380952Y-79770476D01*
X72285714Y-79818095D01*
X73285714Y-80532381D02*
X73285714Y-79532381D01*
X73857143Y-80532381D01*
X73857143Y-79532381D01*
X74809524Y-79532381D02*
X74333333Y-79532381D01*
X74285714Y-80008571D01*
X74333333Y-79960952D01*
X74428571Y-79913333D01*
X74666667Y-79913333D01*
X74761905Y-79960952D01*
X74809524Y-80008571D01*
X74857143Y-80103810D01*
X74857143Y-80341905D01*
X74809524Y-80437143D01*
X74761905Y-80484762D01*
X74666667Y-80532381D01*
X74428571Y-80532381D01*
X74333333Y-80484762D01*
X74285714Y-80437143D01*
X75428571Y-79960952D02*
X75333333Y-79913333D01*
X75285714Y-79865714D01*
X75238095Y-79770476D01*
X75238095Y-79722857D01*
X75285714Y-79627619D01*
X75333333Y-79580000D01*
X75428571Y-79532381D01*
X75619048Y-79532381D01*
X75714286Y-79580000D01*
X75761905Y-79627619D01*
X75809524Y-79722857D01*
X75809524Y-79770476D01*
X75761905Y-79865714D01*
X75714286Y-79913333D01*
X75619048Y-79960952D01*
X75428571Y-79960952D01*
X75333333Y-80008571D01*
X75285714Y-80056190D01*
X75238095Y-80151429D01*
X75238095Y-80341905D01*
X75285714Y-80437143D01*
X75333333Y-80484762D01*
X75428571Y-80532381D01*
X75619048Y-80532381D01*
X75714286Y-80484762D01*
X75761905Y-80437143D01*
X75809524Y-80341905D01*
X75809524Y-80151429D01*
X75761905Y-80056190D01*
X75714286Y-80008571D01*
X75619048Y-79960952D01*
X76190476Y-79627619D02*
X76238095Y-79580000D01*
X76333333Y-79532381D01*
X76571429Y-79532381D01*
X76666667Y-79580000D01*
X76714286Y-79627619D01*
X76761905Y-79722857D01*
X76761905Y-79818095D01*
X76714286Y-79960952D01*
X76142857Y-80532381D01*
X76761905Y-80532381D01*
X77142857Y-79627619D02*
X77190476Y-79580000D01*
X77285714Y-79532381D01*
X77523810Y-79532381D01*
X77619048Y-79580000D01*
X77666667Y-79627619D01*
X77714286Y-79722857D01*
X77714286Y-79818095D01*
X77666667Y-79960952D01*
X77095238Y-80532381D01*
X77714286Y-80532381D01*
X56624762Y-74712381D02*
X56291428Y-74236190D01*
X56053333Y-74712381D02*
X56053333Y-73712381D01*
X56434286Y-73712381D01*
X56529524Y-73760000D01*
X56577143Y-73807619D01*
X56624762Y-73902857D01*
X56624762Y-74045714D01*
X56577143Y-74140952D01*
X56529524Y-74188571D01*
X56434286Y-74236190D01*
X56053333Y-74236190D01*
X56910476Y-73712381D02*
X57243809Y-74712381D01*
X57577143Y-73712381D01*
X58434286Y-74712381D02*
X57862857Y-74712381D01*
X58148571Y-74712381D02*
X58148571Y-73712381D01*
X58053333Y-73855238D01*
X57958095Y-73950476D01*
X57862857Y-73998095D01*
X83682143Y-96191666D02*
X83729762Y-96239285D01*
X83777381Y-96382142D01*
X83777381Y-96477380D01*
X83729762Y-96620238D01*
X83634524Y-96715476D01*
X83539286Y-96763095D01*
X83348810Y-96810714D01*
X83205952Y-96810714D01*
X83015476Y-96763095D01*
X82920238Y-96715476D01*
X82825000Y-96620238D01*
X82777381Y-96477380D01*
X82777381Y-96382142D01*
X82825000Y-96239285D01*
X82872619Y-96191666D01*
X83777381Y-95239285D02*
X83777381Y-95810714D01*
X83777381Y-95525000D02*
X82777381Y-95525000D01*
X82920238Y-95620238D01*
X83015476Y-95715476D01*
X83063095Y-95810714D01*
X67102143Y-92946666D02*
X67149762Y-92994285D01*
X67197381Y-93137142D01*
X67197381Y-93232380D01*
X67149762Y-93375238D01*
X67054524Y-93470476D01*
X66959286Y-93518095D01*
X66768810Y-93565714D01*
X66625952Y-93565714D01*
X66435476Y-93518095D01*
X66340238Y-93470476D01*
X66245000Y-93375238D01*
X66197381Y-93232380D01*
X66197381Y-93137142D01*
X66245000Y-92994285D01*
X66292619Y-92946666D01*
X66292619Y-92565714D02*
X66245000Y-92518095D01*
X66197381Y-92422857D01*
X66197381Y-92184761D01*
X66245000Y-92089523D01*
X66292619Y-92041904D01*
X66387857Y-91994285D01*
X66483095Y-91994285D01*
X66625952Y-92041904D01*
X67197381Y-92613333D01*
X67197381Y-91994285D01*
X79983334Y-86857143D02*
X79935715Y-86904762D01*
X79792858Y-86952381D01*
X79697620Y-86952381D01*
X79554762Y-86904762D01*
X79459524Y-86809524D01*
X79411905Y-86714286D01*
X79364286Y-86523810D01*
X79364286Y-86380952D01*
X79411905Y-86190476D01*
X79459524Y-86095238D01*
X79554762Y-86000000D01*
X79697620Y-85952381D01*
X79792858Y-85952381D01*
X79935715Y-86000000D01*
X79983334Y-86047619D01*
X80316667Y-85952381D02*
X80935715Y-85952381D01*
X80602381Y-86333333D01*
X80745239Y-86333333D01*
X80840477Y-86380952D01*
X80888096Y-86428571D01*
X80935715Y-86523810D01*
X80935715Y-86761905D01*
X80888096Y-86857143D01*
X80840477Y-86904762D01*
X80745239Y-86952381D01*
X80459524Y-86952381D01*
X80364286Y-86904762D01*
X80316667Y-86857143D01*
X69823334Y-86857143D02*
X69775715Y-86904762D01*
X69632858Y-86952381D01*
X69537620Y-86952381D01*
X69394762Y-86904762D01*
X69299524Y-86809524D01*
X69251905Y-86714286D01*
X69204286Y-86523810D01*
X69204286Y-86380952D01*
X69251905Y-86190476D01*
X69299524Y-86095238D01*
X69394762Y-86000000D01*
X69537620Y-85952381D01*
X69632858Y-85952381D01*
X69775715Y-86000000D01*
X69823334Y-86047619D01*
X70680477Y-86285714D02*
X70680477Y-86952381D01*
X70442381Y-85904762D02*
X70204286Y-86619048D01*
X70823334Y-86619048D01*
%LPC*%
D16*
X92780000Y-66030000D03*
X92780000Y-60950000D03*
X92780000Y-76270000D03*
X92780000Y-81350000D03*
X90240000Y-63490000D03*
X95320000Y-63490000D03*
X90240000Y-78810000D03*
X95320000Y-78810000D03*
D17*
X81985000Y-63570000D03*
D18*
X74365000Y-63570000D03*
D19*
X76750000Y-54745000D03*
D20*
X73250000Y-54745000D03*
D19*
X75000000Y-95255000D03*
D20*
X78500000Y-95255000D03*
D19*
X71500000Y-95255000D03*
D21*
X59760000Y-63570000D03*
X58490000Y-64840000D03*
X58490000Y-62300000D03*
D17*
X66745000Y-71190000D03*
D18*
X59125000Y-71190000D03*
D17*
X71190000Y-63570000D03*
D18*
X63570000Y-63570000D03*
D17*
X78175000Y-60395000D03*
D18*
X70555000Y-60395000D03*
D22*
X71190000Y-68650000D03*
D23*
X78810000Y-76270000D03*
X71190000Y-71190000D03*
X78810000Y-73730000D03*
X71190000Y-73730000D03*
X78810000Y-71190000D03*
X71190000Y-76270000D03*
X78810000Y-68650000D03*
D24*
X83890000Y-53410000D03*
D25*
X86430000Y-53410000D03*
X88970000Y-53410000D03*
D24*
X61030000Y-53410000D03*
D25*
X63570000Y-53410000D03*
X66110000Y-53410000D03*
D26*
X53410000Y-53410000D03*
D27*
X55810000Y-53410000D03*
X55107056Y-55107056D03*
X53410000Y-55810000D03*
X51712944Y-55107056D03*
X51010000Y-53410000D03*
X51712944Y-51712944D03*
X53410000Y-51010000D03*
X55107056Y-51712944D03*
D26*
X96590000Y-53410000D03*
D27*
X98990000Y-53410000D03*
X98287056Y-55107056D03*
X96590000Y-55810000D03*
X94892944Y-55107056D03*
X94190000Y-53410000D03*
X94892944Y-51712944D03*
X96590000Y-51010000D03*
X98287056Y-51712944D03*
D26*
X53410000Y-96590000D03*
D27*
X55810000Y-96590000D03*
X55107056Y-98287056D03*
X53410000Y-98990000D03*
X51712944Y-98287056D03*
X51010000Y-96590000D03*
X51712944Y-94892944D03*
X53410000Y-94190000D03*
X55107056Y-94892944D03*
D26*
X96590000Y-96590000D03*
D27*
X98990000Y-96590000D03*
X98287056Y-98287056D03*
X96590000Y-98990000D03*
X94892944Y-98287056D03*
X94190000Y-96590000D03*
X94892944Y-94892944D03*
X96590000Y-94190000D03*
X98287056Y-94892944D03*
D28*
X86430000Y-76270000D03*
D29*
X86430000Y-86430000D03*
D28*
X63570000Y-86430000D03*
D29*
X63570000Y-76270000D03*
D20*
X82620000Y-81350000D03*
D30*
X67380000Y-81350000D03*
D31*
X57220000Y-81350000D03*
X57220000Y-78810000D03*
X57220000Y-76270000D03*
D32*
X86430000Y-96590000D03*
D33*
X86430000Y-91590000D03*
D32*
X63570000Y-91510000D03*
D33*
X63570000Y-96510000D03*
D17*
X77540000Y-86430000D03*
X82540000Y-86430000D03*
X67380000Y-86430000D03*
X72380000Y-86430000D03*
M02*
