M48
;DRILL file {KiCad 4.0.7-e2-6376~58~ubuntu16.04.1} date Sun Apr  8 15:34:52 2018
;FORMAT={2:4/ absolute / inch / suppress leading zeros}
FMAT,2
INCH,TZ
T1C0.020
T2C0.024
T3C0.031
T4C0.039
T5C0.043
T6C0.047
T7C0.053
T8C0.126
%
G90
G05
M72
T1
X20083Y-21028
X20083Y-38028
X20359Y-20359
X20359Y-21696
X20359Y-37359
X20359Y-38696
X21028Y-20083
X21028Y-21972
X21028Y-37083
X21028Y-38972
X21696Y-20359
X21696Y-21696
X21696Y-37359
X21696Y-38696
X21972Y-21028
X21972Y-38028
X37083Y-21028
X37083Y-38028
X37359Y-20359
X37359Y-21696
X37359Y-37359
X37359Y-38696
X38028Y-20083
X38028Y-21972
X38028Y-37083
X38028Y-38972
X38696Y-20359
X38696Y-21696
X38696Y-37359
X38696Y-38696
X38972Y-21028
X38972Y-38028
T2
X29000Y-23000
X29500Y-23500
X30000Y-23000
T3
X26500Y-23000
X26500Y-26000
X26500Y-34000
X28469Y-34000
X28500Y-25500
X28500Y-26500
X28500Y-27500
X28500Y-28500
X30500Y-34000
X31500Y-25500
X31500Y-26500
X31500Y-27500
X31500Y-28500
X32469Y-34000
X33528Y-24028
X33528Y-27028
X34000Y-32500
X34000Y-34000
X35528Y-24028
X35528Y-27028
X37000Y-32500
X37000Y-34000
X37028Y-24028
X37028Y-27028
T4
X24000Y-21000
X24500Y-36622
X24500Y-38000
X25000Y-21000
X26000Y-21000
X33000Y-21000
X34000Y-21000
X34500Y-36500
X34500Y-37878
X35000Y-21000
T5
X26500Y-27000
X26500Y-31000
X33500Y-29000
X37500Y-29000
T6
X21252Y-33839
X21252Y-35217
X28000Y-31000
X28150Y-37803
X29528Y-37803
X30906Y-37803
X34000Y-31000
T7
X22500Y-24500
X22500Y-30531
X23500Y-23500
X23500Y-25500
X23500Y-29531
X23500Y-31531
X24500Y-24500
X24500Y-30531
T8
X21028Y-21028
X21028Y-38028
X38028Y-21028
X38028Y-38028
T0
M30
