G04 #@! TF.FileFunction,Copper,L1,Top,Signal*
%FSLAX46Y46*%
G04 Gerber Fmt 4.6, Leading zero omitted, Abs format (unit mm)*
G04 Created by KiCad (PCBNEW 4.0.7-e2-6376~58~ubuntu16.04.1) date Sun Apr  8 20:27:37 2018*
%MOMM*%
%LPD*%
G01*
G04 APERTURE LIST*
%ADD10C,0.500000*%
%ADD11C,0.150000*%
%ADD12C,2.350000*%
%ADD13C,1.600000*%
%ADD14O,1.600000X1.600000*%
%ADD15C,2.400000*%
%ADD16R,2.400000X2.400000*%
%ADD17C,1.400000*%
%ADD18R,3.000000X2.000000*%
%ADD19O,3.000000X2.000000*%
%ADD20R,1.800000X1.800000*%
%ADD21O,1.800000X1.800000*%
%ADD22C,6.400000*%
%ADD23C,0.800000*%
%ADD24R,2.200000X2.200000*%
%ADD25O,2.200000X2.200000*%
%ADD26O,2.400000X2.400000*%
%ADD27C,1.440000*%
%ADD28R,2.000000X2.000000*%
%ADD29C,2.000000*%
%ADD30C,1.500000*%
%ADD31C,0.750000*%
%ADD32C,0.254000*%
G04 APERTURE END LIST*
D10*
D11*
X50000000Y-50000000D02*
X50000000Y-100000000D01*
X100000000Y-50000000D02*
X100000000Y-100000000D01*
X50000000Y-100000000D02*
X100000000Y-100000000D01*
X50000000Y-50000000D02*
X100000000Y-50000000D01*
D12*
X92780000Y-66030000D03*
X92780000Y-60950000D03*
X92780000Y-76270000D03*
X92780000Y-81350000D03*
X90240000Y-63490000D03*
X95320000Y-63490000D03*
X90240000Y-78810000D03*
X95320000Y-78810000D03*
D13*
X81985000Y-63570000D03*
D14*
X74365000Y-63570000D03*
D15*
X76750000Y-54745000D03*
D16*
X73250000Y-54745000D03*
D15*
X75000000Y-95255000D03*
D16*
X78500000Y-95255000D03*
D15*
X71500000Y-95255000D03*
D17*
X59760000Y-63570000D03*
X58490000Y-64840000D03*
X58490000Y-62300000D03*
D13*
X66745000Y-71190000D03*
D14*
X59125000Y-71190000D03*
D13*
X71190000Y-63570000D03*
D14*
X63570000Y-63570000D03*
D13*
X78175000Y-60395000D03*
D14*
X70555000Y-60395000D03*
D18*
X71190000Y-68650000D03*
D19*
X78810000Y-76270000D03*
X71190000Y-71190000D03*
X78810000Y-73730000D03*
X71190000Y-73730000D03*
X78810000Y-71190000D03*
X71190000Y-76270000D03*
X78810000Y-68650000D03*
D20*
X83890000Y-53410000D03*
D21*
X86430000Y-53410000D03*
X88970000Y-53410000D03*
D20*
X61030000Y-53410000D03*
D21*
X63570000Y-53410000D03*
X66110000Y-53410000D03*
D22*
X53410000Y-53410000D03*
D23*
X55810000Y-53410000D03*
X55107056Y-55107056D03*
X53410000Y-55810000D03*
X51712944Y-55107056D03*
X51010000Y-53410000D03*
X51712944Y-51712944D03*
X53410000Y-51010000D03*
X55107056Y-51712944D03*
D22*
X96590000Y-53410000D03*
D23*
X98990000Y-53410000D03*
X98287056Y-55107056D03*
X96590000Y-55810000D03*
X94892944Y-55107056D03*
X94190000Y-53410000D03*
X94892944Y-51712944D03*
X96590000Y-51010000D03*
X98287056Y-51712944D03*
D22*
X53410000Y-96590000D03*
D23*
X55810000Y-96590000D03*
X55107056Y-98287056D03*
X53410000Y-98990000D03*
X51712944Y-98287056D03*
X51010000Y-96590000D03*
X51712944Y-94892944D03*
X53410000Y-94190000D03*
X55107056Y-94892944D03*
D22*
X96590000Y-96590000D03*
D23*
X98990000Y-96590000D03*
X98287056Y-98287056D03*
X96590000Y-98990000D03*
X94892944Y-98287056D03*
X94190000Y-96590000D03*
X94892944Y-94892944D03*
X96590000Y-94190000D03*
X98287056Y-94892944D03*
D24*
X86430000Y-76270000D03*
D25*
X86430000Y-86430000D03*
D24*
X63570000Y-86430000D03*
D25*
X63570000Y-76270000D03*
D16*
X82620000Y-81350000D03*
D26*
X67380000Y-81350000D03*
D27*
X57220000Y-81350000D03*
X57220000Y-78810000D03*
X57220000Y-76270000D03*
D28*
X86430000Y-96590000D03*
D29*
X86430000Y-91590000D03*
D28*
X63570000Y-91510000D03*
D29*
X63570000Y-96510000D03*
D13*
X77540000Y-86430000D03*
X82540000Y-86430000D03*
X67380000Y-86430000D03*
X72380000Y-86430000D03*
D30*
X78175000Y-60395000D02*
X78175000Y-60395000D01*
D31*
X71190000Y-73730000D02*
X70555000Y-73730000D01*
D30*
X72460000Y-86350000D02*
X72380000Y-86430000D01*
D32*
G36*
X93340741Y-51234811D02*
X92755667Y-52643825D01*
X92754336Y-54169482D01*
X93336950Y-55579515D01*
X94414811Y-56659259D01*
X95823825Y-57244333D01*
X97349482Y-57245664D01*
X98759515Y-56663050D01*
X99290000Y-56133490D01*
X99290000Y-93866469D01*
X98765189Y-93340741D01*
X97356175Y-92755667D01*
X95830518Y-92754336D01*
X94420485Y-93336950D01*
X93340741Y-94414811D01*
X92755667Y-95823825D01*
X92754336Y-97349482D01*
X93336950Y-98759515D01*
X93866510Y-99290000D01*
X75762000Y-99290000D01*
X75762000Y-96925621D01*
X76038086Y-96811545D01*
X76554730Y-96295801D01*
X76665000Y-96030242D01*
X76665000Y-96581310D01*
X76761673Y-96814699D01*
X76940302Y-96993327D01*
X77173691Y-97090000D01*
X78214250Y-97090000D01*
X78373000Y-96931250D01*
X78373000Y-95382000D01*
X78627000Y-95382000D01*
X78627000Y-96931250D01*
X78785750Y-97090000D01*
X79826309Y-97090000D01*
X80059698Y-96993327D01*
X80177275Y-96875750D01*
X84795000Y-96875750D01*
X84795000Y-97716309D01*
X84891673Y-97949698D01*
X85070301Y-98128327D01*
X85303690Y-98225000D01*
X86144250Y-98225000D01*
X86303000Y-98066250D01*
X86303000Y-96717000D01*
X86557000Y-96717000D01*
X86557000Y-98066250D01*
X86715750Y-98225000D01*
X87556310Y-98225000D01*
X87789699Y-98128327D01*
X87968327Y-97949698D01*
X88065000Y-97716309D01*
X88065000Y-96875750D01*
X87906250Y-96717000D01*
X86557000Y-96717000D01*
X86303000Y-96717000D01*
X84953750Y-96717000D01*
X84795000Y-96875750D01*
X80177275Y-96875750D01*
X80238327Y-96814699D01*
X80335000Y-96581310D01*
X80335000Y-95540750D01*
X80257941Y-95463691D01*
X84795000Y-95463691D01*
X84795000Y-96304250D01*
X84953750Y-96463000D01*
X86303000Y-96463000D01*
X86303000Y-95113750D01*
X86557000Y-95113750D01*
X86557000Y-96463000D01*
X87906250Y-96463000D01*
X88065000Y-96304250D01*
X88065000Y-95463691D01*
X87968327Y-95230302D01*
X87789699Y-95051673D01*
X87556310Y-94955000D01*
X86715750Y-94955000D01*
X86557000Y-95113750D01*
X86303000Y-95113750D01*
X86144250Y-94955000D01*
X85303690Y-94955000D01*
X85070301Y-95051673D01*
X84891673Y-95230302D01*
X84795000Y-95463691D01*
X80257941Y-95463691D01*
X80176250Y-95382000D01*
X78627000Y-95382000D01*
X78373000Y-95382000D01*
X78353000Y-95382000D01*
X78353000Y-95128000D01*
X78373000Y-95128000D01*
X78373000Y-93578750D01*
X78627000Y-93578750D01*
X78627000Y-95128000D01*
X80176250Y-95128000D01*
X80335000Y-94969250D01*
X80335000Y-93928690D01*
X80238327Y-93695301D01*
X80059698Y-93516673D01*
X79826309Y-93420000D01*
X78785750Y-93420000D01*
X78627000Y-93578750D01*
X78373000Y-93578750D01*
X78214250Y-93420000D01*
X77173691Y-93420000D01*
X76940302Y-93516673D01*
X76761673Y-93695301D01*
X76665000Y-93928690D01*
X76665000Y-94479395D01*
X76556545Y-94216914D01*
X76040801Y-93700270D01*
X75762000Y-93584502D01*
X75762000Y-91913795D01*
X84794716Y-91913795D01*
X85043106Y-92514943D01*
X85502637Y-92975278D01*
X86103352Y-93224716D01*
X86753795Y-93225284D01*
X87354943Y-92976894D01*
X87815278Y-92517363D01*
X88064716Y-91916648D01*
X88065284Y-91266205D01*
X87816894Y-90665057D01*
X87357363Y-90204722D01*
X86756648Y-89955284D01*
X86106205Y-89954716D01*
X85505057Y-90203106D01*
X85044722Y-90662637D01*
X84795284Y-91263352D01*
X84794716Y-91913795D01*
X75762000Y-91913795D01*
X75762000Y-87437745D01*
X76711861Y-87437745D01*
X76785995Y-87683864D01*
X77323223Y-87876965D01*
X77893454Y-87849778D01*
X78294005Y-87683864D01*
X78368139Y-87437745D01*
X77540000Y-86609605D01*
X76711861Y-87437745D01*
X75762000Y-87437745D01*
X75762000Y-86213223D01*
X76093035Y-86213223D01*
X76120222Y-86783454D01*
X76286136Y-87184005D01*
X76532255Y-87258139D01*
X77360395Y-86430000D01*
X77719605Y-86430000D01*
X78547745Y-87258139D01*
X78793864Y-87184005D01*
X78962735Y-86714187D01*
X81104752Y-86714187D01*
X81322757Y-87241800D01*
X81726077Y-87645824D01*
X82253309Y-87864750D01*
X82824187Y-87865248D01*
X83351800Y-87647243D01*
X83755824Y-87243923D01*
X83974750Y-86716691D01*
X83975029Y-86396009D01*
X84695000Y-86396009D01*
X84695000Y-86463991D01*
X84827069Y-87127947D01*
X85203170Y-87690821D01*
X85766044Y-88066922D01*
X86430000Y-88198991D01*
X87093956Y-88066922D01*
X87656830Y-87690821D01*
X88032931Y-87127947D01*
X88165000Y-86463991D01*
X88165000Y-86396009D01*
X88032931Y-85732053D01*
X87656830Y-85169179D01*
X87093956Y-84793078D01*
X86430000Y-84661009D01*
X85766044Y-84793078D01*
X85203170Y-85169179D01*
X84827069Y-85732053D01*
X84695000Y-86396009D01*
X83975029Y-86396009D01*
X83975248Y-86145813D01*
X83757243Y-85618200D01*
X83353923Y-85214176D01*
X82826691Y-84995250D01*
X82255813Y-84994752D01*
X81728200Y-85212757D01*
X81324176Y-85616077D01*
X81105250Y-86143309D01*
X81104752Y-86714187D01*
X78962735Y-86714187D01*
X78986965Y-86646777D01*
X78959778Y-86076546D01*
X78793864Y-85675995D01*
X78547745Y-85601861D01*
X77719605Y-86430000D01*
X77360395Y-86430000D01*
X76532255Y-85601861D01*
X76286136Y-85675995D01*
X76093035Y-86213223D01*
X75762000Y-86213223D01*
X75762000Y-85422255D01*
X76711861Y-85422255D01*
X77540000Y-86250395D01*
X78368139Y-85422255D01*
X78294005Y-85176136D01*
X77756777Y-84983035D01*
X77186546Y-85010222D01*
X76785995Y-85176136D01*
X76711861Y-85422255D01*
X75762000Y-85422255D01*
X75762000Y-81635750D01*
X80785000Y-81635750D01*
X80785000Y-82676310D01*
X80881673Y-82909699D01*
X81060302Y-83088327D01*
X81293691Y-83185000D01*
X82334250Y-83185000D01*
X82493000Y-83026250D01*
X82493000Y-81477000D01*
X82747000Y-81477000D01*
X82747000Y-83026250D01*
X82905750Y-83185000D01*
X83946309Y-83185000D01*
X84179698Y-83088327D01*
X84358327Y-82909699D01*
X84455000Y-82676310D01*
X84455000Y-82629101D01*
X91680504Y-82629101D01*
X91800583Y-82914118D01*
X92473698Y-83169864D01*
X93193445Y-83148552D01*
X93759417Y-82914118D01*
X93879496Y-82629101D01*
X92780000Y-81529605D01*
X91680504Y-82629101D01*
X84455000Y-82629101D01*
X84455000Y-81635750D01*
X84296250Y-81477000D01*
X82747000Y-81477000D01*
X82493000Y-81477000D01*
X80943750Y-81477000D01*
X80785000Y-81635750D01*
X75762000Y-81635750D01*
X75762000Y-80023690D01*
X80785000Y-80023690D01*
X80785000Y-81064250D01*
X80943750Y-81223000D01*
X82493000Y-81223000D01*
X82493000Y-79673750D01*
X82747000Y-79673750D01*
X82747000Y-81223000D01*
X84296250Y-81223000D01*
X84455000Y-81064250D01*
X84455000Y-80089101D01*
X89140504Y-80089101D01*
X89260583Y-80374118D01*
X89933698Y-80629864D01*
X90653445Y-80608552D01*
X91213628Y-80376516D01*
X90960136Y-81043698D01*
X90981448Y-81763445D01*
X91215882Y-82329417D01*
X91500899Y-82449496D01*
X92600395Y-81350000D01*
X92959605Y-81350000D01*
X94059101Y-82449496D01*
X94344118Y-82329417D01*
X94599864Y-81656302D01*
X94578552Y-80936555D01*
X94346516Y-80376372D01*
X95013698Y-80629864D01*
X95733445Y-80608552D01*
X96299417Y-80374118D01*
X96419496Y-80089101D01*
X95320000Y-78989605D01*
X94220504Y-80089101D01*
X94338009Y-80368009D01*
X94059101Y-80250504D01*
X92959605Y-81350000D01*
X92600395Y-81350000D01*
X91500899Y-80250504D01*
X91221991Y-80368009D01*
X91339496Y-80089101D01*
X90240000Y-78989605D01*
X89140504Y-80089101D01*
X84455000Y-80089101D01*
X84455000Y-80023690D01*
X84358327Y-79790301D01*
X84179698Y-79611673D01*
X83946309Y-79515000D01*
X82905750Y-79515000D01*
X82747000Y-79673750D01*
X82493000Y-79673750D01*
X82334250Y-79515000D01*
X81293691Y-79515000D01*
X81060302Y-79611673D01*
X80881673Y-79790301D01*
X80785000Y-80023690D01*
X75762000Y-80023690D01*
X75762000Y-78503698D01*
X88420136Y-78503698D01*
X88441448Y-79223445D01*
X88675882Y-79789417D01*
X88960899Y-79909496D01*
X90060395Y-78810000D01*
X90419605Y-78810000D01*
X91519101Y-79909496D01*
X91798009Y-79791991D01*
X91680504Y-80070899D01*
X92780000Y-81170395D01*
X93879496Y-80070899D01*
X93761991Y-79791991D01*
X94040899Y-79909496D01*
X95140395Y-78810000D01*
X95499605Y-78810000D01*
X96599101Y-79909496D01*
X96884118Y-79789417D01*
X97139864Y-79116302D01*
X97118552Y-78396555D01*
X96884118Y-77830583D01*
X96599101Y-77710504D01*
X95499605Y-78810000D01*
X95140395Y-78810000D01*
X94040899Y-77710504D01*
X93761991Y-77828009D01*
X93879496Y-77549101D01*
X92780000Y-76449605D01*
X91680504Y-77549101D01*
X91798009Y-77828009D01*
X91519101Y-77710504D01*
X90419605Y-78810000D01*
X90060395Y-78810000D01*
X88960899Y-77710504D01*
X88675882Y-77830583D01*
X88420136Y-78503698D01*
X75762000Y-78503698D01*
X75762000Y-71190000D01*
X76633173Y-71190000D01*
X76757630Y-71815687D01*
X77112053Y-72346120D01*
X77282487Y-72460000D01*
X77112053Y-72573880D01*
X76757630Y-73104313D01*
X76633173Y-73730000D01*
X76757630Y-74355687D01*
X77112053Y-74886120D01*
X77282487Y-75000000D01*
X77112053Y-75113880D01*
X76757630Y-75644313D01*
X76633173Y-76270000D01*
X76757630Y-76895687D01*
X77112053Y-77426120D01*
X77642486Y-77780543D01*
X78268173Y-77905000D01*
X79351827Y-77905000D01*
X79977514Y-77780543D01*
X80507947Y-77426120D01*
X80862370Y-76895687D01*
X80929987Y-76555750D01*
X84695000Y-76555750D01*
X84695000Y-77496309D01*
X84791673Y-77729698D01*
X84970301Y-77908327D01*
X85203690Y-78005000D01*
X86144250Y-78005000D01*
X86303000Y-77846250D01*
X86303000Y-76397000D01*
X86557000Y-76397000D01*
X86557000Y-77846250D01*
X86715750Y-78005000D01*
X87656310Y-78005000D01*
X87889699Y-77908327D01*
X88068327Y-77729698D01*
X88150672Y-77530899D01*
X89140504Y-77530899D01*
X90240000Y-78630395D01*
X91339496Y-77530899D01*
X91221991Y-77251991D01*
X91500899Y-77369496D01*
X92600395Y-76270000D01*
X92959605Y-76270000D01*
X94059101Y-77369496D01*
X94338009Y-77251991D01*
X94220504Y-77530899D01*
X95320000Y-78630395D01*
X96419496Y-77530899D01*
X96299417Y-77245882D01*
X95626302Y-76990136D01*
X94906555Y-77011448D01*
X94346372Y-77243484D01*
X94599864Y-76576302D01*
X94578552Y-75856555D01*
X94344118Y-75290583D01*
X94059101Y-75170504D01*
X92959605Y-76270000D01*
X92600395Y-76270000D01*
X91500899Y-75170504D01*
X91215882Y-75290583D01*
X90960136Y-75963698D01*
X90981448Y-76683445D01*
X91213484Y-77243628D01*
X90546302Y-76990136D01*
X89826555Y-77011448D01*
X89260583Y-77245882D01*
X89140504Y-77530899D01*
X88150672Y-77530899D01*
X88165000Y-77496309D01*
X88165000Y-76555750D01*
X88006250Y-76397000D01*
X86557000Y-76397000D01*
X86303000Y-76397000D01*
X84853750Y-76397000D01*
X84695000Y-76555750D01*
X80929987Y-76555750D01*
X80986827Y-76270000D01*
X80862370Y-75644313D01*
X80507947Y-75113880D01*
X80402902Y-75043691D01*
X84695000Y-75043691D01*
X84695000Y-75984250D01*
X84853750Y-76143000D01*
X86303000Y-76143000D01*
X86303000Y-74693750D01*
X86557000Y-74693750D01*
X86557000Y-76143000D01*
X88006250Y-76143000D01*
X88165000Y-75984250D01*
X88165000Y-75043691D01*
X88143133Y-74990899D01*
X91680504Y-74990899D01*
X92780000Y-76090395D01*
X93879496Y-74990899D01*
X93759417Y-74705882D01*
X93086302Y-74450136D01*
X92366555Y-74471448D01*
X91800583Y-74705882D01*
X91680504Y-74990899D01*
X88143133Y-74990899D01*
X88068327Y-74810302D01*
X87889699Y-74631673D01*
X87656310Y-74535000D01*
X86715750Y-74535000D01*
X86557000Y-74693750D01*
X86303000Y-74693750D01*
X86144250Y-74535000D01*
X85203690Y-74535000D01*
X84970301Y-74631673D01*
X84791673Y-74810302D01*
X84695000Y-75043691D01*
X80402902Y-75043691D01*
X80337513Y-75000000D01*
X80507947Y-74886120D01*
X80862370Y-74355687D01*
X80986827Y-73730000D01*
X80862370Y-73104313D01*
X80507947Y-72573880D01*
X80337513Y-72460000D01*
X80507947Y-72346120D01*
X80862370Y-71815687D01*
X80986827Y-71190000D01*
X80862370Y-70564313D01*
X80507947Y-70033880D01*
X80315611Y-69905366D01*
X80555922Y-69716317D01*
X80869144Y-69158355D01*
X80900124Y-69030434D01*
X80780777Y-68777000D01*
X78937000Y-68777000D01*
X78937000Y-68797000D01*
X78683000Y-68797000D01*
X78683000Y-68777000D01*
X76839223Y-68777000D01*
X76719876Y-69030434D01*
X76750856Y-69158355D01*
X77064078Y-69716317D01*
X77304389Y-69905366D01*
X77112053Y-70033880D01*
X76757630Y-70564313D01*
X76633173Y-71190000D01*
X75762000Y-71190000D01*
X75762000Y-68269566D01*
X76719876Y-68269566D01*
X76839223Y-68523000D01*
X78683000Y-68523000D01*
X78683000Y-67015000D01*
X78937000Y-67015000D01*
X78937000Y-68523000D01*
X80780777Y-68523000D01*
X80900124Y-68269566D01*
X80869144Y-68141645D01*
X80555922Y-67583683D01*
X80053020Y-67188058D01*
X79437000Y-67015000D01*
X78937000Y-67015000D01*
X78683000Y-67015000D01*
X78183000Y-67015000D01*
X77566980Y-67188058D01*
X77064078Y-67583683D01*
X76750856Y-68141645D01*
X76719876Y-68269566D01*
X75762000Y-68269566D01*
X75762000Y-64577745D01*
X81156861Y-64577745D01*
X81230995Y-64823864D01*
X81768223Y-65016965D01*
X82338454Y-64989778D01*
X82739005Y-64823864D01*
X82813139Y-64577745D01*
X81985000Y-63749605D01*
X81156861Y-64577745D01*
X75762000Y-64577745D01*
X75762000Y-63902372D01*
X75828113Y-63570000D01*
X75784994Y-63353223D01*
X80538035Y-63353223D01*
X80565222Y-63923454D01*
X80731136Y-64324005D01*
X80977255Y-64398139D01*
X81805395Y-63570000D01*
X82164605Y-63570000D01*
X82992745Y-64398139D01*
X83238864Y-64324005D01*
X83409796Y-63848452D01*
X88429686Y-63848452D01*
X88704662Y-64513943D01*
X89213379Y-65023549D01*
X89878389Y-65299685D01*
X90598452Y-65300314D01*
X91231822Y-65038610D01*
X90970315Y-65668389D01*
X90969686Y-66388452D01*
X91244662Y-67053943D01*
X91753379Y-67563549D01*
X92418389Y-67839685D01*
X93138452Y-67840314D01*
X93803943Y-67565338D01*
X94313549Y-67056621D01*
X94589685Y-66391611D01*
X94590314Y-65671548D01*
X94328610Y-65038178D01*
X94958389Y-65299685D01*
X95678452Y-65300314D01*
X96343943Y-65025338D01*
X96853549Y-64516621D01*
X97129685Y-63851611D01*
X97130314Y-63131548D01*
X96855338Y-62466057D01*
X96346621Y-61956451D01*
X95681611Y-61680315D01*
X94961548Y-61679686D01*
X94328178Y-61941390D01*
X94589685Y-61311611D01*
X94590314Y-60591548D01*
X94315338Y-59926057D01*
X93806621Y-59416451D01*
X93141611Y-59140315D01*
X92421548Y-59139686D01*
X91756057Y-59414662D01*
X91246451Y-59923379D01*
X90970315Y-60588389D01*
X90969686Y-61308452D01*
X91231390Y-61941822D01*
X90601611Y-61680315D01*
X89881548Y-61679686D01*
X89216057Y-61954662D01*
X88706451Y-62463379D01*
X88430315Y-63128389D01*
X88429686Y-63848452D01*
X83409796Y-63848452D01*
X83431965Y-63786777D01*
X83404778Y-63216546D01*
X83238864Y-62815995D01*
X82992745Y-62741861D01*
X82164605Y-63570000D01*
X81805395Y-63570000D01*
X80977255Y-62741861D01*
X80731136Y-62815995D01*
X80538035Y-63353223D01*
X75784994Y-63353223D01*
X75762000Y-63237628D01*
X75762000Y-62562255D01*
X81156861Y-62562255D01*
X81985000Y-63390395D01*
X82813139Y-62562255D01*
X82739005Y-62316136D01*
X82201777Y-62123035D01*
X81631546Y-62150222D01*
X81230995Y-62316136D01*
X81156861Y-62562255D01*
X75762000Y-62562255D01*
X75762000Y-61402745D01*
X77346861Y-61402745D01*
X77420995Y-61648864D01*
X77958223Y-61841965D01*
X78528454Y-61814778D01*
X78929005Y-61648864D01*
X79003139Y-61402745D01*
X78175000Y-60574605D01*
X77346861Y-61402745D01*
X75762000Y-61402745D01*
X75762000Y-60178223D01*
X76728035Y-60178223D01*
X76755222Y-60748454D01*
X76921136Y-61149005D01*
X77167255Y-61223139D01*
X77995395Y-60395000D01*
X78354605Y-60395000D01*
X79182745Y-61223139D01*
X79428864Y-61149005D01*
X79621965Y-60611777D01*
X79594778Y-60041546D01*
X79428864Y-59640995D01*
X79182745Y-59566861D01*
X78354605Y-60395000D01*
X77995395Y-60395000D01*
X77167255Y-59566861D01*
X76921136Y-59640995D01*
X76728035Y-60178223D01*
X75762000Y-60178223D01*
X75762000Y-59387255D01*
X77346861Y-59387255D01*
X78175000Y-60215395D01*
X79003139Y-59387255D01*
X78929005Y-59141136D01*
X78391777Y-58948035D01*
X77821546Y-58975222D01*
X77420995Y-59141136D01*
X77346861Y-59387255D01*
X75762000Y-59387255D01*
X75762000Y-56321655D01*
X76383395Y-56579681D01*
X77113403Y-56580318D01*
X77788086Y-56301545D01*
X78304730Y-55785801D01*
X78584681Y-55111605D01*
X78585318Y-54381597D01*
X78306545Y-53706914D01*
X77790801Y-53190270D01*
X77116605Y-52910319D01*
X76386597Y-52909682D01*
X75762000Y-53167760D01*
X75762000Y-52510000D01*
X82342560Y-52510000D01*
X82342560Y-54310000D01*
X82386838Y-54545317D01*
X82525910Y-54761441D01*
X82738110Y-54906431D01*
X82990000Y-54957440D01*
X84790000Y-54957440D01*
X85025317Y-54913162D01*
X85241441Y-54774090D01*
X85386431Y-54561890D01*
X85396766Y-54510854D01*
X85522424Y-54647966D01*
X86065258Y-54901046D01*
X86303000Y-54780997D01*
X86303000Y-53537000D01*
X86283000Y-53537000D01*
X86283000Y-53283000D01*
X86303000Y-53283000D01*
X86303000Y-52039003D01*
X86557000Y-52039003D01*
X86557000Y-53283000D01*
X86577000Y-53283000D01*
X86577000Y-53537000D01*
X86557000Y-53537000D01*
X86557000Y-54780997D01*
X86794742Y-54901046D01*
X87337576Y-54647966D01*
X87695499Y-54257418D01*
X87854519Y-54495409D01*
X88352509Y-54828155D01*
X88939928Y-54945000D01*
X89000072Y-54945000D01*
X89587491Y-54828155D01*
X90085481Y-54495409D01*
X90418227Y-53997419D01*
X90535072Y-53410000D01*
X90418227Y-52822581D01*
X90085481Y-52324591D01*
X89587491Y-51991845D01*
X89000072Y-51875000D01*
X88939928Y-51875000D01*
X88352509Y-51991845D01*
X87854519Y-52324591D01*
X87695499Y-52562582D01*
X87337576Y-52172034D01*
X86794742Y-51918954D01*
X86557000Y-52039003D01*
X86303000Y-52039003D01*
X86065258Y-51918954D01*
X85522424Y-52172034D01*
X85399156Y-52306538D01*
X85393162Y-52274683D01*
X85254090Y-52058559D01*
X85041890Y-51913569D01*
X84790000Y-51862560D01*
X82990000Y-51862560D01*
X82754683Y-51906838D01*
X82538559Y-52045910D01*
X82393569Y-52258110D01*
X82342560Y-52510000D01*
X75762000Y-52510000D01*
X75762000Y-50710000D01*
X93866469Y-50710000D01*
X93340741Y-51234811D01*
X93340741Y-51234811D01*
G37*
X93340741Y-51234811D02*
X92755667Y-52643825D01*
X92754336Y-54169482D01*
X93336950Y-55579515D01*
X94414811Y-56659259D01*
X95823825Y-57244333D01*
X97349482Y-57245664D01*
X98759515Y-56663050D01*
X99290000Y-56133490D01*
X99290000Y-93866469D01*
X98765189Y-93340741D01*
X97356175Y-92755667D01*
X95830518Y-92754336D01*
X94420485Y-93336950D01*
X93340741Y-94414811D01*
X92755667Y-95823825D01*
X92754336Y-97349482D01*
X93336950Y-98759515D01*
X93866510Y-99290000D01*
X75762000Y-99290000D01*
X75762000Y-96925621D01*
X76038086Y-96811545D01*
X76554730Y-96295801D01*
X76665000Y-96030242D01*
X76665000Y-96581310D01*
X76761673Y-96814699D01*
X76940302Y-96993327D01*
X77173691Y-97090000D01*
X78214250Y-97090000D01*
X78373000Y-96931250D01*
X78373000Y-95382000D01*
X78627000Y-95382000D01*
X78627000Y-96931250D01*
X78785750Y-97090000D01*
X79826309Y-97090000D01*
X80059698Y-96993327D01*
X80177275Y-96875750D01*
X84795000Y-96875750D01*
X84795000Y-97716309D01*
X84891673Y-97949698D01*
X85070301Y-98128327D01*
X85303690Y-98225000D01*
X86144250Y-98225000D01*
X86303000Y-98066250D01*
X86303000Y-96717000D01*
X86557000Y-96717000D01*
X86557000Y-98066250D01*
X86715750Y-98225000D01*
X87556310Y-98225000D01*
X87789699Y-98128327D01*
X87968327Y-97949698D01*
X88065000Y-97716309D01*
X88065000Y-96875750D01*
X87906250Y-96717000D01*
X86557000Y-96717000D01*
X86303000Y-96717000D01*
X84953750Y-96717000D01*
X84795000Y-96875750D01*
X80177275Y-96875750D01*
X80238327Y-96814699D01*
X80335000Y-96581310D01*
X80335000Y-95540750D01*
X80257941Y-95463691D01*
X84795000Y-95463691D01*
X84795000Y-96304250D01*
X84953750Y-96463000D01*
X86303000Y-96463000D01*
X86303000Y-95113750D01*
X86557000Y-95113750D01*
X86557000Y-96463000D01*
X87906250Y-96463000D01*
X88065000Y-96304250D01*
X88065000Y-95463691D01*
X87968327Y-95230302D01*
X87789699Y-95051673D01*
X87556310Y-94955000D01*
X86715750Y-94955000D01*
X86557000Y-95113750D01*
X86303000Y-95113750D01*
X86144250Y-94955000D01*
X85303690Y-94955000D01*
X85070301Y-95051673D01*
X84891673Y-95230302D01*
X84795000Y-95463691D01*
X80257941Y-95463691D01*
X80176250Y-95382000D01*
X78627000Y-95382000D01*
X78373000Y-95382000D01*
X78353000Y-95382000D01*
X78353000Y-95128000D01*
X78373000Y-95128000D01*
X78373000Y-93578750D01*
X78627000Y-93578750D01*
X78627000Y-95128000D01*
X80176250Y-95128000D01*
X80335000Y-94969250D01*
X80335000Y-93928690D01*
X80238327Y-93695301D01*
X80059698Y-93516673D01*
X79826309Y-93420000D01*
X78785750Y-93420000D01*
X78627000Y-93578750D01*
X78373000Y-93578750D01*
X78214250Y-93420000D01*
X77173691Y-93420000D01*
X76940302Y-93516673D01*
X76761673Y-93695301D01*
X76665000Y-93928690D01*
X76665000Y-94479395D01*
X76556545Y-94216914D01*
X76040801Y-93700270D01*
X75762000Y-93584502D01*
X75762000Y-91913795D01*
X84794716Y-91913795D01*
X85043106Y-92514943D01*
X85502637Y-92975278D01*
X86103352Y-93224716D01*
X86753795Y-93225284D01*
X87354943Y-92976894D01*
X87815278Y-92517363D01*
X88064716Y-91916648D01*
X88065284Y-91266205D01*
X87816894Y-90665057D01*
X87357363Y-90204722D01*
X86756648Y-89955284D01*
X86106205Y-89954716D01*
X85505057Y-90203106D01*
X85044722Y-90662637D01*
X84795284Y-91263352D01*
X84794716Y-91913795D01*
X75762000Y-91913795D01*
X75762000Y-87437745D01*
X76711861Y-87437745D01*
X76785995Y-87683864D01*
X77323223Y-87876965D01*
X77893454Y-87849778D01*
X78294005Y-87683864D01*
X78368139Y-87437745D01*
X77540000Y-86609605D01*
X76711861Y-87437745D01*
X75762000Y-87437745D01*
X75762000Y-86213223D01*
X76093035Y-86213223D01*
X76120222Y-86783454D01*
X76286136Y-87184005D01*
X76532255Y-87258139D01*
X77360395Y-86430000D01*
X77719605Y-86430000D01*
X78547745Y-87258139D01*
X78793864Y-87184005D01*
X78962735Y-86714187D01*
X81104752Y-86714187D01*
X81322757Y-87241800D01*
X81726077Y-87645824D01*
X82253309Y-87864750D01*
X82824187Y-87865248D01*
X83351800Y-87647243D01*
X83755824Y-87243923D01*
X83974750Y-86716691D01*
X83975029Y-86396009D01*
X84695000Y-86396009D01*
X84695000Y-86463991D01*
X84827069Y-87127947D01*
X85203170Y-87690821D01*
X85766044Y-88066922D01*
X86430000Y-88198991D01*
X87093956Y-88066922D01*
X87656830Y-87690821D01*
X88032931Y-87127947D01*
X88165000Y-86463991D01*
X88165000Y-86396009D01*
X88032931Y-85732053D01*
X87656830Y-85169179D01*
X87093956Y-84793078D01*
X86430000Y-84661009D01*
X85766044Y-84793078D01*
X85203170Y-85169179D01*
X84827069Y-85732053D01*
X84695000Y-86396009D01*
X83975029Y-86396009D01*
X83975248Y-86145813D01*
X83757243Y-85618200D01*
X83353923Y-85214176D01*
X82826691Y-84995250D01*
X82255813Y-84994752D01*
X81728200Y-85212757D01*
X81324176Y-85616077D01*
X81105250Y-86143309D01*
X81104752Y-86714187D01*
X78962735Y-86714187D01*
X78986965Y-86646777D01*
X78959778Y-86076546D01*
X78793864Y-85675995D01*
X78547745Y-85601861D01*
X77719605Y-86430000D01*
X77360395Y-86430000D01*
X76532255Y-85601861D01*
X76286136Y-85675995D01*
X76093035Y-86213223D01*
X75762000Y-86213223D01*
X75762000Y-85422255D01*
X76711861Y-85422255D01*
X77540000Y-86250395D01*
X78368139Y-85422255D01*
X78294005Y-85176136D01*
X77756777Y-84983035D01*
X77186546Y-85010222D01*
X76785995Y-85176136D01*
X76711861Y-85422255D01*
X75762000Y-85422255D01*
X75762000Y-81635750D01*
X80785000Y-81635750D01*
X80785000Y-82676310D01*
X80881673Y-82909699D01*
X81060302Y-83088327D01*
X81293691Y-83185000D01*
X82334250Y-83185000D01*
X82493000Y-83026250D01*
X82493000Y-81477000D01*
X82747000Y-81477000D01*
X82747000Y-83026250D01*
X82905750Y-83185000D01*
X83946309Y-83185000D01*
X84179698Y-83088327D01*
X84358327Y-82909699D01*
X84455000Y-82676310D01*
X84455000Y-82629101D01*
X91680504Y-82629101D01*
X91800583Y-82914118D01*
X92473698Y-83169864D01*
X93193445Y-83148552D01*
X93759417Y-82914118D01*
X93879496Y-82629101D01*
X92780000Y-81529605D01*
X91680504Y-82629101D01*
X84455000Y-82629101D01*
X84455000Y-81635750D01*
X84296250Y-81477000D01*
X82747000Y-81477000D01*
X82493000Y-81477000D01*
X80943750Y-81477000D01*
X80785000Y-81635750D01*
X75762000Y-81635750D01*
X75762000Y-80023690D01*
X80785000Y-80023690D01*
X80785000Y-81064250D01*
X80943750Y-81223000D01*
X82493000Y-81223000D01*
X82493000Y-79673750D01*
X82747000Y-79673750D01*
X82747000Y-81223000D01*
X84296250Y-81223000D01*
X84455000Y-81064250D01*
X84455000Y-80089101D01*
X89140504Y-80089101D01*
X89260583Y-80374118D01*
X89933698Y-80629864D01*
X90653445Y-80608552D01*
X91213628Y-80376516D01*
X90960136Y-81043698D01*
X90981448Y-81763445D01*
X91215882Y-82329417D01*
X91500899Y-82449496D01*
X92600395Y-81350000D01*
X92959605Y-81350000D01*
X94059101Y-82449496D01*
X94344118Y-82329417D01*
X94599864Y-81656302D01*
X94578552Y-80936555D01*
X94346516Y-80376372D01*
X95013698Y-80629864D01*
X95733445Y-80608552D01*
X96299417Y-80374118D01*
X96419496Y-80089101D01*
X95320000Y-78989605D01*
X94220504Y-80089101D01*
X94338009Y-80368009D01*
X94059101Y-80250504D01*
X92959605Y-81350000D01*
X92600395Y-81350000D01*
X91500899Y-80250504D01*
X91221991Y-80368009D01*
X91339496Y-80089101D01*
X90240000Y-78989605D01*
X89140504Y-80089101D01*
X84455000Y-80089101D01*
X84455000Y-80023690D01*
X84358327Y-79790301D01*
X84179698Y-79611673D01*
X83946309Y-79515000D01*
X82905750Y-79515000D01*
X82747000Y-79673750D01*
X82493000Y-79673750D01*
X82334250Y-79515000D01*
X81293691Y-79515000D01*
X81060302Y-79611673D01*
X80881673Y-79790301D01*
X80785000Y-80023690D01*
X75762000Y-80023690D01*
X75762000Y-78503698D01*
X88420136Y-78503698D01*
X88441448Y-79223445D01*
X88675882Y-79789417D01*
X88960899Y-79909496D01*
X90060395Y-78810000D01*
X90419605Y-78810000D01*
X91519101Y-79909496D01*
X91798009Y-79791991D01*
X91680504Y-80070899D01*
X92780000Y-81170395D01*
X93879496Y-80070899D01*
X93761991Y-79791991D01*
X94040899Y-79909496D01*
X95140395Y-78810000D01*
X95499605Y-78810000D01*
X96599101Y-79909496D01*
X96884118Y-79789417D01*
X97139864Y-79116302D01*
X97118552Y-78396555D01*
X96884118Y-77830583D01*
X96599101Y-77710504D01*
X95499605Y-78810000D01*
X95140395Y-78810000D01*
X94040899Y-77710504D01*
X93761991Y-77828009D01*
X93879496Y-77549101D01*
X92780000Y-76449605D01*
X91680504Y-77549101D01*
X91798009Y-77828009D01*
X91519101Y-77710504D01*
X90419605Y-78810000D01*
X90060395Y-78810000D01*
X88960899Y-77710504D01*
X88675882Y-77830583D01*
X88420136Y-78503698D01*
X75762000Y-78503698D01*
X75762000Y-71190000D01*
X76633173Y-71190000D01*
X76757630Y-71815687D01*
X77112053Y-72346120D01*
X77282487Y-72460000D01*
X77112053Y-72573880D01*
X76757630Y-73104313D01*
X76633173Y-73730000D01*
X76757630Y-74355687D01*
X77112053Y-74886120D01*
X77282487Y-75000000D01*
X77112053Y-75113880D01*
X76757630Y-75644313D01*
X76633173Y-76270000D01*
X76757630Y-76895687D01*
X77112053Y-77426120D01*
X77642486Y-77780543D01*
X78268173Y-77905000D01*
X79351827Y-77905000D01*
X79977514Y-77780543D01*
X80507947Y-77426120D01*
X80862370Y-76895687D01*
X80929987Y-76555750D01*
X84695000Y-76555750D01*
X84695000Y-77496309D01*
X84791673Y-77729698D01*
X84970301Y-77908327D01*
X85203690Y-78005000D01*
X86144250Y-78005000D01*
X86303000Y-77846250D01*
X86303000Y-76397000D01*
X86557000Y-76397000D01*
X86557000Y-77846250D01*
X86715750Y-78005000D01*
X87656310Y-78005000D01*
X87889699Y-77908327D01*
X88068327Y-77729698D01*
X88150672Y-77530899D01*
X89140504Y-77530899D01*
X90240000Y-78630395D01*
X91339496Y-77530899D01*
X91221991Y-77251991D01*
X91500899Y-77369496D01*
X92600395Y-76270000D01*
X92959605Y-76270000D01*
X94059101Y-77369496D01*
X94338009Y-77251991D01*
X94220504Y-77530899D01*
X95320000Y-78630395D01*
X96419496Y-77530899D01*
X96299417Y-77245882D01*
X95626302Y-76990136D01*
X94906555Y-77011448D01*
X94346372Y-77243484D01*
X94599864Y-76576302D01*
X94578552Y-75856555D01*
X94344118Y-75290583D01*
X94059101Y-75170504D01*
X92959605Y-76270000D01*
X92600395Y-76270000D01*
X91500899Y-75170504D01*
X91215882Y-75290583D01*
X90960136Y-75963698D01*
X90981448Y-76683445D01*
X91213484Y-77243628D01*
X90546302Y-76990136D01*
X89826555Y-77011448D01*
X89260583Y-77245882D01*
X89140504Y-77530899D01*
X88150672Y-77530899D01*
X88165000Y-77496309D01*
X88165000Y-76555750D01*
X88006250Y-76397000D01*
X86557000Y-76397000D01*
X86303000Y-76397000D01*
X84853750Y-76397000D01*
X84695000Y-76555750D01*
X80929987Y-76555750D01*
X80986827Y-76270000D01*
X80862370Y-75644313D01*
X80507947Y-75113880D01*
X80402902Y-75043691D01*
X84695000Y-75043691D01*
X84695000Y-75984250D01*
X84853750Y-76143000D01*
X86303000Y-76143000D01*
X86303000Y-74693750D01*
X86557000Y-74693750D01*
X86557000Y-76143000D01*
X88006250Y-76143000D01*
X88165000Y-75984250D01*
X88165000Y-75043691D01*
X88143133Y-74990899D01*
X91680504Y-74990899D01*
X92780000Y-76090395D01*
X93879496Y-74990899D01*
X93759417Y-74705882D01*
X93086302Y-74450136D01*
X92366555Y-74471448D01*
X91800583Y-74705882D01*
X91680504Y-74990899D01*
X88143133Y-74990899D01*
X88068327Y-74810302D01*
X87889699Y-74631673D01*
X87656310Y-74535000D01*
X86715750Y-74535000D01*
X86557000Y-74693750D01*
X86303000Y-74693750D01*
X86144250Y-74535000D01*
X85203690Y-74535000D01*
X84970301Y-74631673D01*
X84791673Y-74810302D01*
X84695000Y-75043691D01*
X80402902Y-75043691D01*
X80337513Y-75000000D01*
X80507947Y-74886120D01*
X80862370Y-74355687D01*
X80986827Y-73730000D01*
X80862370Y-73104313D01*
X80507947Y-72573880D01*
X80337513Y-72460000D01*
X80507947Y-72346120D01*
X80862370Y-71815687D01*
X80986827Y-71190000D01*
X80862370Y-70564313D01*
X80507947Y-70033880D01*
X80315611Y-69905366D01*
X80555922Y-69716317D01*
X80869144Y-69158355D01*
X80900124Y-69030434D01*
X80780777Y-68777000D01*
X78937000Y-68777000D01*
X78937000Y-68797000D01*
X78683000Y-68797000D01*
X78683000Y-68777000D01*
X76839223Y-68777000D01*
X76719876Y-69030434D01*
X76750856Y-69158355D01*
X77064078Y-69716317D01*
X77304389Y-69905366D01*
X77112053Y-70033880D01*
X76757630Y-70564313D01*
X76633173Y-71190000D01*
X75762000Y-71190000D01*
X75762000Y-68269566D01*
X76719876Y-68269566D01*
X76839223Y-68523000D01*
X78683000Y-68523000D01*
X78683000Y-67015000D01*
X78937000Y-67015000D01*
X78937000Y-68523000D01*
X80780777Y-68523000D01*
X80900124Y-68269566D01*
X80869144Y-68141645D01*
X80555922Y-67583683D01*
X80053020Y-67188058D01*
X79437000Y-67015000D01*
X78937000Y-67015000D01*
X78683000Y-67015000D01*
X78183000Y-67015000D01*
X77566980Y-67188058D01*
X77064078Y-67583683D01*
X76750856Y-68141645D01*
X76719876Y-68269566D01*
X75762000Y-68269566D01*
X75762000Y-64577745D01*
X81156861Y-64577745D01*
X81230995Y-64823864D01*
X81768223Y-65016965D01*
X82338454Y-64989778D01*
X82739005Y-64823864D01*
X82813139Y-64577745D01*
X81985000Y-63749605D01*
X81156861Y-64577745D01*
X75762000Y-64577745D01*
X75762000Y-63902372D01*
X75828113Y-63570000D01*
X75784994Y-63353223D01*
X80538035Y-63353223D01*
X80565222Y-63923454D01*
X80731136Y-64324005D01*
X80977255Y-64398139D01*
X81805395Y-63570000D01*
X82164605Y-63570000D01*
X82992745Y-64398139D01*
X83238864Y-64324005D01*
X83409796Y-63848452D01*
X88429686Y-63848452D01*
X88704662Y-64513943D01*
X89213379Y-65023549D01*
X89878389Y-65299685D01*
X90598452Y-65300314D01*
X91231822Y-65038610D01*
X90970315Y-65668389D01*
X90969686Y-66388452D01*
X91244662Y-67053943D01*
X91753379Y-67563549D01*
X92418389Y-67839685D01*
X93138452Y-67840314D01*
X93803943Y-67565338D01*
X94313549Y-67056621D01*
X94589685Y-66391611D01*
X94590314Y-65671548D01*
X94328610Y-65038178D01*
X94958389Y-65299685D01*
X95678452Y-65300314D01*
X96343943Y-65025338D01*
X96853549Y-64516621D01*
X97129685Y-63851611D01*
X97130314Y-63131548D01*
X96855338Y-62466057D01*
X96346621Y-61956451D01*
X95681611Y-61680315D01*
X94961548Y-61679686D01*
X94328178Y-61941390D01*
X94589685Y-61311611D01*
X94590314Y-60591548D01*
X94315338Y-59926057D01*
X93806621Y-59416451D01*
X93141611Y-59140315D01*
X92421548Y-59139686D01*
X91756057Y-59414662D01*
X91246451Y-59923379D01*
X90970315Y-60588389D01*
X90969686Y-61308452D01*
X91231390Y-61941822D01*
X90601611Y-61680315D01*
X89881548Y-61679686D01*
X89216057Y-61954662D01*
X88706451Y-62463379D01*
X88430315Y-63128389D01*
X88429686Y-63848452D01*
X83409796Y-63848452D01*
X83431965Y-63786777D01*
X83404778Y-63216546D01*
X83238864Y-62815995D01*
X82992745Y-62741861D01*
X82164605Y-63570000D01*
X81805395Y-63570000D01*
X80977255Y-62741861D01*
X80731136Y-62815995D01*
X80538035Y-63353223D01*
X75784994Y-63353223D01*
X75762000Y-63237628D01*
X75762000Y-62562255D01*
X81156861Y-62562255D01*
X81985000Y-63390395D01*
X82813139Y-62562255D01*
X82739005Y-62316136D01*
X82201777Y-62123035D01*
X81631546Y-62150222D01*
X81230995Y-62316136D01*
X81156861Y-62562255D01*
X75762000Y-62562255D01*
X75762000Y-61402745D01*
X77346861Y-61402745D01*
X77420995Y-61648864D01*
X77958223Y-61841965D01*
X78528454Y-61814778D01*
X78929005Y-61648864D01*
X79003139Y-61402745D01*
X78175000Y-60574605D01*
X77346861Y-61402745D01*
X75762000Y-61402745D01*
X75762000Y-60178223D01*
X76728035Y-60178223D01*
X76755222Y-60748454D01*
X76921136Y-61149005D01*
X77167255Y-61223139D01*
X77995395Y-60395000D01*
X78354605Y-60395000D01*
X79182745Y-61223139D01*
X79428864Y-61149005D01*
X79621965Y-60611777D01*
X79594778Y-60041546D01*
X79428864Y-59640995D01*
X79182745Y-59566861D01*
X78354605Y-60395000D01*
X77995395Y-60395000D01*
X77167255Y-59566861D01*
X76921136Y-59640995D01*
X76728035Y-60178223D01*
X75762000Y-60178223D01*
X75762000Y-59387255D01*
X77346861Y-59387255D01*
X78175000Y-60215395D01*
X79003139Y-59387255D01*
X78929005Y-59141136D01*
X78391777Y-58948035D01*
X77821546Y-58975222D01*
X77420995Y-59141136D01*
X77346861Y-59387255D01*
X75762000Y-59387255D01*
X75762000Y-56321655D01*
X76383395Y-56579681D01*
X77113403Y-56580318D01*
X77788086Y-56301545D01*
X78304730Y-55785801D01*
X78584681Y-55111605D01*
X78585318Y-54381597D01*
X78306545Y-53706914D01*
X77790801Y-53190270D01*
X77116605Y-52910319D01*
X76386597Y-52909682D01*
X75762000Y-53167760D01*
X75762000Y-52510000D01*
X82342560Y-52510000D01*
X82342560Y-54310000D01*
X82386838Y-54545317D01*
X82525910Y-54761441D01*
X82738110Y-54906431D01*
X82990000Y-54957440D01*
X84790000Y-54957440D01*
X85025317Y-54913162D01*
X85241441Y-54774090D01*
X85386431Y-54561890D01*
X85396766Y-54510854D01*
X85522424Y-54647966D01*
X86065258Y-54901046D01*
X86303000Y-54780997D01*
X86303000Y-53537000D01*
X86283000Y-53537000D01*
X86283000Y-53283000D01*
X86303000Y-53283000D01*
X86303000Y-52039003D01*
X86557000Y-52039003D01*
X86557000Y-53283000D01*
X86577000Y-53283000D01*
X86577000Y-53537000D01*
X86557000Y-53537000D01*
X86557000Y-54780997D01*
X86794742Y-54901046D01*
X87337576Y-54647966D01*
X87695499Y-54257418D01*
X87854519Y-54495409D01*
X88352509Y-54828155D01*
X88939928Y-54945000D01*
X89000072Y-54945000D01*
X89587491Y-54828155D01*
X90085481Y-54495409D01*
X90418227Y-53997419D01*
X90535072Y-53410000D01*
X90418227Y-52822581D01*
X90085481Y-52324591D01*
X89587491Y-51991845D01*
X89000072Y-51875000D01*
X88939928Y-51875000D01*
X88352509Y-51991845D01*
X87854519Y-52324591D01*
X87695499Y-52562582D01*
X87337576Y-52172034D01*
X86794742Y-51918954D01*
X86557000Y-52039003D01*
X86303000Y-52039003D01*
X86065258Y-51918954D01*
X85522424Y-52172034D01*
X85399156Y-52306538D01*
X85393162Y-52274683D01*
X85254090Y-52058559D01*
X85041890Y-51913569D01*
X84790000Y-51862560D01*
X82990000Y-51862560D01*
X82754683Y-51906838D01*
X82538559Y-52045910D01*
X82393569Y-52258110D01*
X82342560Y-52510000D01*
X75762000Y-52510000D01*
X75762000Y-50710000D01*
X93866469Y-50710000D01*
X93340741Y-51234811D01*
G36*
X74238000Y-52910000D02*
X73535750Y-52910000D01*
X73377000Y-53068750D01*
X73377000Y-54618000D01*
X73397000Y-54618000D01*
X73397000Y-54872000D01*
X73377000Y-54872000D01*
X73377000Y-56421250D01*
X73535750Y-56580000D01*
X74238000Y-56580000D01*
X74238000Y-62154670D01*
X73787736Y-62244233D01*
X73322189Y-62555302D01*
X73011120Y-63020849D01*
X72901887Y-63570000D01*
X73011120Y-64119151D01*
X73322189Y-64584698D01*
X73787736Y-64895767D01*
X74238000Y-64985330D01*
X74238000Y-93584379D01*
X73961914Y-93698455D01*
X73445270Y-94214199D01*
X73255192Y-94671957D01*
X73084788Y-94260565D01*
X72797175Y-94137430D01*
X71679605Y-95255000D01*
X72797175Y-96372570D01*
X73084788Y-96249435D01*
X73248204Y-95820542D01*
X73443455Y-96293086D01*
X73959199Y-96809730D01*
X74238000Y-96925498D01*
X74238000Y-99290000D01*
X56133531Y-99290000D01*
X56659259Y-98765189D01*
X57117122Y-97662532D01*
X62597073Y-97662532D01*
X62695736Y-97929387D01*
X63305461Y-98155908D01*
X63955460Y-98131856D01*
X64444264Y-97929387D01*
X64542927Y-97662532D01*
X63570000Y-96689605D01*
X62597073Y-97662532D01*
X57117122Y-97662532D01*
X57244333Y-97356175D01*
X57245301Y-96245461D01*
X61924092Y-96245461D01*
X61948144Y-96895460D01*
X62150613Y-97384264D01*
X62417468Y-97482927D01*
X63390395Y-96510000D01*
X63749605Y-96510000D01*
X64722532Y-97482927D01*
X64989387Y-97384264D01*
X65215908Y-96774539D01*
X65207680Y-96552175D01*
X70382430Y-96552175D01*
X70505565Y-96839788D01*
X71187734Y-97099707D01*
X71917443Y-97078786D01*
X72494435Y-96839788D01*
X72617570Y-96552175D01*
X71500000Y-95434605D01*
X70382430Y-96552175D01*
X65207680Y-96552175D01*
X65191856Y-96124540D01*
X64989387Y-95635736D01*
X64722532Y-95537073D01*
X63749605Y-96510000D01*
X63390395Y-96510000D01*
X62417468Y-95537073D01*
X62150613Y-95635736D01*
X61924092Y-96245461D01*
X57245301Y-96245461D01*
X57245664Y-95830518D01*
X57050204Y-95357468D01*
X62597073Y-95357468D01*
X63570000Y-96330395D01*
X64542927Y-95357468D01*
X64444264Y-95090613D01*
X64046220Y-94942734D01*
X69655293Y-94942734D01*
X69676214Y-95672443D01*
X69915212Y-96249435D01*
X70202825Y-96372570D01*
X71320395Y-95255000D01*
X70202825Y-94137430D01*
X69915212Y-94260565D01*
X69655293Y-94942734D01*
X64046220Y-94942734D01*
X63834539Y-94864092D01*
X63184540Y-94888144D01*
X62695736Y-95090613D01*
X62597073Y-95357468D01*
X57050204Y-95357468D01*
X56663050Y-94420485D01*
X56201197Y-93957825D01*
X70382430Y-93957825D01*
X71500000Y-95075395D01*
X72617570Y-93957825D01*
X72494435Y-93670212D01*
X71812266Y-93410293D01*
X71082557Y-93431214D01*
X70505565Y-93670212D01*
X70382430Y-93957825D01*
X56201197Y-93957825D01*
X55585189Y-93340741D01*
X54176175Y-92755667D01*
X52650518Y-92754336D01*
X51240485Y-93336950D01*
X50710000Y-93866510D01*
X50710000Y-90510000D01*
X61922560Y-90510000D01*
X61922560Y-92510000D01*
X61966838Y-92745317D01*
X62105910Y-92961441D01*
X62318110Y-93106431D01*
X62570000Y-93157440D01*
X64570000Y-93157440D01*
X64805317Y-93113162D01*
X65021441Y-92974090D01*
X65166431Y-92761890D01*
X65217440Y-92510000D01*
X65217440Y-90510000D01*
X65173162Y-90274683D01*
X65034090Y-90058559D01*
X64821890Y-89913569D01*
X64570000Y-89862560D01*
X62570000Y-89862560D01*
X62334683Y-89906838D01*
X62118559Y-90045910D01*
X61973569Y-90258110D01*
X61922560Y-90510000D01*
X50710000Y-90510000D01*
X50710000Y-85330000D01*
X61822560Y-85330000D01*
X61822560Y-87530000D01*
X61866838Y-87765317D01*
X62005910Y-87981441D01*
X62218110Y-88126431D01*
X62470000Y-88177440D01*
X64670000Y-88177440D01*
X64905317Y-88133162D01*
X65121441Y-87994090D01*
X65266431Y-87781890D01*
X65317440Y-87530000D01*
X65317440Y-86714187D01*
X65944752Y-86714187D01*
X66162757Y-87241800D01*
X66566077Y-87645824D01*
X67093309Y-87864750D01*
X67664187Y-87865248D01*
X68191800Y-87647243D01*
X68401663Y-87437745D01*
X71551861Y-87437745D01*
X71625995Y-87683864D01*
X72163223Y-87876965D01*
X72733454Y-87849778D01*
X73134005Y-87683864D01*
X73208139Y-87437745D01*
X72380000Y-86609605D01*
X71551861Y-87437745D01*
X68401663Y-87437745D01*
X68595824Y-87243923D01*
X68814750Y-86716691D01*
X68815189Y-86213223D01*
X70933035Y-86213223D01*
X70960222Y-86783454D01*
X71126136Y-87184005D01*
X71372255Y-87258139D01*
X72200395Y-86430000D01*
X72559605Y-86430000D01*
X73387745Y-87258139D01*
X73633864Y-87184005D01*
X73826965Y-86646777D01*
X73799778Y-86076546D01*
X73633864Y-85675995D01*
X73387745Y-85601861D01*
X72559605Y-86430000D01*
X72200395Y-86430000D01*
X71372255Y-85601861D01*
X71126136Y-85675995D01*
X70933035Y-86213223D01*
X68815189Y-86213223D01*
X68815248Y-86145813D01*
X68597243Y-85618200D01*
X68401640Y-85422255D01*
X71551861Y-85422255D01*
X72380000Y-86250395D01*
X73208139Y-85422255D01*
X73134005Y-85176136D01*
X72596777Y-84983035D01*
X72026546Y-85010222D01*
X71625995Y-85176136D01*
X71551861Y-85422255D01*
X68401640Y-85422255D01*
X68193923Y-85214176D01*
X67666691Y-84995250D01*
X67095813Y-84994752D01*
X66568200Y-85212757D01*
X66164176Y-85616077D01*
X65945250Y-86143309D01*
X65944752Y-86714187D01*
X65317440Y-86714187D01*
X65317440Y-85330000D01*
X65273162Y-85094683D01*
X65134090Y-84878559D01*
X64921890Y-84733569D01*
X64670000Y-84682560D01*
X62470000Y-84682560D01*
X62234683Y-84726838D01*
X62018559Y-84865910D01*
X61873569Y-85078110D01*
X61822560Y-85330000D01*
X50710000Y-85330000D01*
X50710000Y-82299774D01*
X56449831Y-82299774D01*
X56514131Y-82537611D01*
X57022342Y-82717333D01*
X57560644Y-82688892D01*
X57925869Y-82537611D01*
X57990169Y-82299774D01*
X57220000Y-81529605D01*
X56449831Y-82299774D01*
X50710000Y-82299774D01*
X50710000Y-81152342D01*
X55852667Y-81152342D01*
X55881108Y-81690644D01*
X56032389Y-82055869D01*
X56270226Y-82120169D01*
X57040395Y-81350000D01*
X57399605Y-81350000D01*
X58169774Y-82120169D01*
X58407611Y-82055869D01*
X58511602Y-81761805D01*
X65591805Y-81761805D01*
X65824358Y-82323258D01*
X66315224Y-82844492D01*
X66968193Y-83138203D01*
X67253000Y-83021858D01*
X67253000Y-81477000D01*
X67507000Y-81477000D01*
X67507000Y-83021858D01*
X67791807Y-83138203D01*
X68444776Y-82844492D01*
X68935642Y-82323258D01*
X69168195Y-81761805D01*
X69051432Y-81477000D01*
X67507000Y-81477000D01*
X67253000Y-81477000D01*
X65708568Y-81477000D01*
X65591805Y-81761805D01*
X58511602Y-81761805D01*
X58587333Y-81547658D01*
X58558892Y-81009356D01*
X58529417Y-80938195D01*
X65591805Y-80938195D01*
X65708568Y-81223000D01*
X67253000Y-81223000D01*
X67253000Y-79678142D01*
X67507000Y-79678142D01*
X67507000Y-81223000D01*
X69051432Y-81223000D01*
X69168195Y-80938195D01*
X68935642Y-80376742D01*
X68444776Y-79855508D01*
X67791807Y-79561797D01*
X67507000Y-79678142D01*
X67253000Y-79678142D01*
X66968193Y-79561797D01*
X66315224Y-79855508D01*
X65824358Y-80376742D01*
X65591805Y-80938195D01*
X58529417Y-80938195D01*
X58407611Y-80644131D01*
X58169774Y-80579831D01*
X57399605Y-81350000D01*
X57040395Y-81350000D01*
X56270226Y-80579831D01*
X56032389Y-80644131D01*
X55852667Y-81152342D01*
X50710000Y-81152342D01*
X50710000Y-79759774D01*
X56449831Y-79759774D01*
X56514131Y-79997611D01*
X56728728Y-80073500D01*
X56514131Y-80162389D01*
X56449831Y-80400226D01*
X57220000Y-81170395D01*
X57990169Y-80400226D01*
X57925869Y-80162389D01*
X57711272Y-80086500D01*
X57925869Y-79997611D01*
X57990169Y-79759774D01*
X57220000Y-78989605D01*
X56449831Y-79759774D01*
X50710000Y-79759774D01*
X50710000Y-78612342D01*
X55852667Y-78612342D01*
X55881108Y-79150644D01*
X56032389Y-79515869D01*
X56270226Y-79580169D01*
X57040395Y-78810000D01*
X57399605Y-78810000D01*
X58169774Y-79580169D01*
X58407611Y-79515869D01*
X58587333Y-79007658D01*
X58558892Y-78469356D01*
X58407611Y-78104131D01*
X58169774Y-78039831D01*
X57399605Y-78810000D01*
X57040395Y-78810000D01*
X56270226Y-78039831D01*
X56032389Y-78104131D01*
X55852667Y-78612342D01*
X50710000Y-78612342D01*
X50710000Y-76538344D01*
X55864765Y-76538344D01*
X56070617Y-77036543D01*
X56451452Y-77418043D01*
X56729116Y-77533339D01*
X56514131Y-77622389D01*
X56449831Y-77860226D01*
X57220000Y-78630395D01*
X57990169Y-77860226D01*
X57925869Y-77622389D01*
X57693828Y-77540331D01*
X57986543Y-77419383D01*
X58368043Y-77038548D01*
X58522687Y-76666123D01*
X61880817Y-76666123D01*
X62160988Y-77282392D01*
X62655668Y-77744534D01*
X63173878Y-77959175D01*
X63443000Y-77841125D01*
X63443000Y-76397000D01*
X63697000Y-76397000D01*
X63697000Y-77841125D01*
X63966122Y-77959175D01*
X64484332Y-77744534D01*
X64979012Y-77282392D01*
X65259183Y-76666123D01*
X65252329Y-76650434D01*
X69099876Y-76650434D01*
X69130856Y-76778355D01*
X69444078Y-77336317D01*
X69946980Y-77731942D01*
X70563000Y-77905000D01*
X71063000Y-77905000D01*
X71063000Y-76397000D01*
X71317000Y-76397000D01*
X71317000Y-77905000D01*
X71817000Y-77905000D01*
X72433020Y-77731942D01*
X72935922Y-77336317D01*
X73249144Y-76778355D01*
X73280124Y-76650434D01*
X73160777Y-76397000D01*
X71317000Y-76397000D01*
X71063000Y-76397000D01*
X69219223Y-76397000D01*
X69099876Y-76650434D01*
X65252329Y-76650434D01*
X65141604Y-76397000D01*
X63697000Y-76397000D01*
X63443000Y-76397000D01*
X61998396Y-76397000D01*
X61880817Y-76666123D01*
X58522687Y-76666123D01*
X58574764Y-76540709D01*
X58575235Y-76001656D01*
X58522438Y-75873877D01*
X61880817Y-75873877D01*
X61998396Y-76143000D01*
X63443000Y-76143000D01*
X63443000Y-74698875D01*
X63697000Y-74698875D01*
X63697000Y-76143000D01*
X65141604Y-76143000D01*
X65259183Y-75873877D01*
X64979012Y-75257608D01*
X64484332Y-74795466D01*
X63966122Y-74580825D01*
X63697000Y-74698875D01*
X63443000Y-74698875D01*
X63173878Y-74580825D01*
X62655668Y-74795466D01*
X62160988Y-75257608D01*
X61880817Y-75873877D01*
X58522438Y-75873877D01*
X58369383Y-75503457D01*
X57988548Y-75121957D01*
X57490709Y-74915236D01*
X56951656Y-74914765D01*
X56453457Y-75120617D01*
X56071957Y-75501452D01*
X55865236Y-75999291D01*
X55864765Y-76538344D01*
X50710000Y-76538344D01*
X50710000Y-71190000D01*
X57661887Y-71190000D01*
X57771120Y-71739151D01*
X58082189Y-72204698D01*
X58547736Y-72515767D01*
X59096887Y-72625000D01*
X59153113Y-72625000D01*
X59702264Y-72515767D01*
X60167811Y-72204698D01*
X60478880Y-71739151D01*
X60531584Y-71474187D01*
X65309752Y-71474187D01*
X65527757Y-72001800D01*
X65931077Y-72405824D01*
X66458309Y-72624750D01*
X67029187Y-72625248D01*
X67556800Y-72407243D01*
X67960824Y-72003923D01*
X68179750Y-71476691D01*
X68180000Y-71190000D01*
X69013173Y-71190000D01*
X69137630Y-71815687D01*
X69492053Y-72346120D01*
X69662487Y-72460000D01*
X69492053Y-72573880D01*
X69137630Y-73104313D01*
X69013173Y-73730000D01*
X69137630Y-74355687D01*
X69492053Y-74886120D01*
X69684389Y-75014634D01*
X69444078Y-75203683D01*
X69130856Y-75761645D01*
X69099876Y-75889566D01*
X69219223Y-76143000D01*
X71063000Y-76143000D01*
X71063000Y-76123000D01*
X71317000Y-76123000D01*
X71317000Y-76143000D01*
X73160777Y-76143000D01*
X73280124Y-75889566D01*
X73249144Y-75761645D01*
X72935922Y-75203683D01*
X72695611Y-75014634D01*
X72887947Y-74886120D01*
X73242370Y-74355687D01*
X73366827Y-73730000D01*
X73242370Y-73104313D01*
X72887947Y-72573880D01*
X72717513Y-72460000D01*
X72887947Y-72346120D01*
X73242370Y-71815687D01*
X73366827Y-71190000D01*
X73242370Y-70564313D01*
X73001647Y-70204045D01*
X73141441Y-70114090D01*
X73286431Y-69901890D01*
X73337440Y-69650000D01*
X73337440Y-67650000D01*
X73293162Y-67414683D01*
X73154090Y-67198559D01*
X72941890Y-67053569D01*
X72690000Y-67002560D01*
X69690000Y-67002560D01*
X69454683Y-67046838D01*
X69238559Y-67185910D01*
X69093569Y-67398110D01*
X69042560Y-67650000D01*
X69042560Y-69650000D01*
X69086838Y-69885317D01*
X69225910Y-70101441D01*
X69377639Y-70205113D01*
X69137630Y-70564313D01*
X69013173Y-71190000D01*
X68180000Y-71190000D01*
X68180248Y-70905813D01*
X67962243Y-70378200D01*
X67558923Y-69974176D01*
X67031691Y-69755250D01*
X66460813Y-69754752D01*
X65933200Y-69972757D01*
X65529176Y-70376077D01*
X65310250Y-70903309D01*
X65309752Y-71474187D01*
X60531584Y-71474187D01*
X60588113Y-71190000D01*
X60478880Y-70640849D01*
X60167811Y-70175302D01*
X59702264Y-69864233D01*
X59153113Y-69755000D01*
X59096887Y-69755000D01*
X58547736Y-69864233D01*
X58082189Y-70175302D01*
X57771120Y-70640849D01*
X57661887Y-71190000D01*
X50710000Y-71190000D01*
X50710000Y-65104383D01*
X57154769Y-65104383D01*
X57357582Y-65595229D01*
X57732796Y-65971098D01*
X58223287Y-66174768D01*
X58754383Y-66175231D01*
X59245229Y-65972418D01*
X59621098Y-65597204D01*
X59824768Y-65106713D01*
X59824944Y-64905057D01*
X60024383Y-64905231D01*
X60515229Y-64702418D01*
X60891098Y-64327204D01*
X61094768Y-63836713D01*
X61095000Y-63570000D01*
X62106887Y-63570000D01*
X62216120Y-64119151D01*
X62527189Y-64584698D01*
X62992736Y-64895767D01*
X63541887Y-65005000D01*
X63598113Y-65005000D01*
X64147264Y-64895767D01*
X64612811Y-64584698D01*
X64923880Y-64119151D01*
X64976584Y-63854187D01*
X69754752Y-63854187D01*
X69972757Y-64381800D01*
X70376077Y-64785824D01*
X70903309Y-65004750D01*
X71474187Y-65005248D01*
X72001800Y-64787243D01*
X72405824Y-64383923D01*
X72624750Y-63856691D01*
X72625248Y-63285813D01*
X72407243Y-62758200D01*
X72003923Y-62354176D01*
X71476691Y-62135250D01*
X70905813Y-62134752D01*
X70378200Y-62352757D01*
X69974176Y-62756077D01*
X69755250Y-63283309D01*
X69754752Y-63854187D01*
X64976584Y-63854187D01*
X65033113Y-63570000D01*
X64923880Y-63020849D01*
X64612811Y-62555302D01*
X64147264Y-62244233D01*
X63598113Y-62135000D01*
X63541887Y-62135000D01*
X62992736Y-62244233D01*
X62527189Y-62555302D01*
X62216120Y-63020849D01*
X62106887Y-63570000D01*
X61095000Y-63570000D01*
X61095231Y-63305617D01*
X60892418Y-62814771D01*
X60517204Y-62438902D01*
X60026713Y-62235232D01*
X59823439Y-62235055D01*
X59808664Y-61962560D01*
X59661042Y-61606169D01*
X59425275Y-61544331D01*
X58669605Y-62300000D01*
X58683748Y-62314143D01*
X58504143Y-62493748D01*
X58490000Y-62479605D01*
X57734331Y-63235275D01*
X57796169Y-63471042D01*
X58072111Y-63568196D01*
X57734771Y-63707582D01*
X57358902Y-64082796D01*
X57155232Y-64573287D01*
X57154769Y-65104383D01*
X50710000Y-65104383D01*
X50710000Y-62107122D01*
X57142581Y-62107122D01*
X57171336Y-62637440D01*
X57318958Y-62993831D01*
X57554725Y-63055669D01*
X58310395Y-62300000D01*
X57554725Y-61544331D01*
X57318958Y-61606169D01*
X57142581Y-62107122D01*
X50710000Y-62107122D01*
X50710000Y-61364725D01*
X57734331Y-61364725D01*
X58490000Y-62120395D01*
X59245669Y-61364725D01*
X59183831Y-61128958D01*
X58682878Y-60952581D01*
X58152560Y-60981336D01*
X57796169Y-61128958D01*
X57734331Y-61364725D01*
X50710000Y-61364725D01*
X50710000Y-60395000D01*
X69091887Y-60395000D01*
X69201120Y-60944151D01*
X69512189Y-61409698D01*
X69977736Y-61720767D01*
X70526887Y-61830000D01*
X70583113Y-61830000D01*
X71132264Y-61720767D01*
X71597811Y-61409698D01*
X71908880Y-60944151D01*
X72018113Y-60395000D01*
X71908880Y-59845849D01*
X71597811Y-59380302D01*
X71132264Y-59069233D01*
X70583113Y-58960000D01*
X70526887Y-58960000D01*
X69977736Y-59069233D01*
X69512189Y-59380302D01*
X69201120Y-59845849D01*
X69091887Y-60395000D01*
X50710000Y-60395000D01*
X50710000Y-56133531D01*
X51234811Y-56659259D01*
X52643825Y-57244333D01*
X54169482Y-57245664D01*
X55579515Y-56663050D01*
X56659259Y-55585189D01*
X56889482Y-55030750D01*
X71415000Y-55030750D01*
X71415000Y-56071310D01*
X71511673Y-56304699D01*
X71690302Y-56483327D01*
X71923691Y-56580000D01*
X72964250Y-56580000D01*
X73123000Y-56421250D01*
X73123000Y-54872000D01*
X71573750Y-54872000D01*
X71415000Y-55030750D01*
X56889482Y-55030750D01*
X57244333Y-54176175D01*
X57245664Y-52650518D01*
X57187604Y-52510000D01*
X59482560Y-52510000D01*
X59482560Y-54310000D01*
X59526838Y-54545317D01*
X59665910Y-54761441D01*
X59878110Y-54906431D01*
X60130000Y-54957440D01*
X61930000Y-54957440D01*
X62165317Y-54913162D01*
X62381441Y-54774090D01*
X62526431Y-54561890D01*
X62536766Y-54510854D01*
X62662424Y-54647966D01*
X63205258Y-54901046D01*
X63443000Y-54780997D01*
X63443000Y-53537000D01*
X63423000Y-53537000D01*
X63423000Y-53283000D01*
X63443000Y-53283000D01*
X63443000Y-52039003D01*
X63697000Y-52039003D01*
X63697000Y-53283000D01*
X63717000Y-53283000D01*
X63717000Y-53537000D01*
X63697000Y-53537000D01*
X63697000Y-54780997D01*
X63934742Y-54901046D01*
X64477576Y-54647966D01*
X64835499Y-54257418D01*
X64994519Y-54495409D01*
X65492509Y-54828155D01*
X66079928Y-54945000D01*
X66140072Y-54945000D01*
X66727491Y-54828155D01*
X67225481Y-54495409D01*
X67558227Y-53997419D01*
X67673343Y-53418690D01*
X71415000Y-53418690D01*
X71415000Y-54459250D01*
X71573750Y-54618000D01*
X73123000Y-54618000D01*
X73123000Y-53068750D01*
X72964250Y-52910000D01*
X71923691Y-52910000D01*
X71690302Y-53006673D01*
X71511673Y-53185301D01*
X71415000Y-53418690D01*
X67673343Y-53418690D01*
X67675072Y-53410000D01*
X67558227Y-52822581D01*
X67225481Y-52324591D01*
X66727491Y-51991845D01*
X66140072Y-51875000D01*
X66079928Y-51875000D01*
X65492509Y-51991845D01*
X64994519Y-52324591D01*
X64835499Y-52562582D01*
X64477576Y-52172034D01*
X63934742Y-51918954D01*
X63697000Y-52039003D01*
X63443000Y-52039003D01*
X63205258Y-51918954D01*
X62662424Y-52172034D01*
X62539156Y-52306538D01*
X62533162Y-52274683D01*
X62394090Y-52058559D01*
X62181890Y-51913569D01*
X61930000Y-51862560D01*
X60130000Y-51862560D01*
X59894683Y-51906838D01*
X59678559Y-52045910D01*
X59533569Y-52258110D01*
X59482560Y-52510000D01*
X57187604Y-52510000D01*
X56663050Y-51240485D01*
X56133490Y-50710000D01*
X74238000Y-50710000D01*
X74238000Y-52910000D01*
X74238000Y-52910000D01*
G37*
X74238000Y-52910000D02*
X73535750Y-52910000D01*
X73377000Y-53068750D01*
X73377000Y-54618000D01*
X73397000Y-54618000D01*
X73397000Y-54872000D01*
X73377000Y-54872000D01*
X73377000Y-56421250D01*
X73535750Y-56580000D01*
X74238000Y-56580000D01*
X74238000Y-62154670D01*
X73787736Y-62244233D01*
X73322189Y-62555302D01*
X73011120Y-63020849D01*
X72901887Y-63570000D01*
X73011120Y-64119151D01*
X73322189Y-64584698D01*
X73787736Y-64895767D01*
X74238000Y-64985330D01*
X74238000Y-93584379D01*
X73961914Y-93698455D01*
X73445270Y-94214199D01*
X73255192Y-94671957D01*
X73084788Y-94260565D01*
X72797175Y-94137430D01*
X71679605Y-95255000D01*
X72797175Y-96372570D01*
X73084788Y-96249435D01*
X73248204Y-95820542D01*
X73443455Y-96293086D01*
X73959199Y-96809730D01*
X74238000Y-96925498D01*
X74238000Y-99290000D01*
X56133531Y-99290000D01*
X56659259Y-98765189D01*
X57117122Y-97662532D01*
X62597073Y-97662532D01*
X62695736Y-97929387D01*
X63305461Y-98155908D01*
X63955460Y-98131856D01*
X64444264Y-97929387D01*
X64542927Y-97662532D01*
X63570000Y-96689605D01*
X62597073Y-97662532D01*
X57117122Y-97662532D01*
X57244333Y-97356175D01*
X57245301Y-96245461D01*
X61924092Y-96245461D01*
X61948144Y-96895460D01*
X62150613Y-97384264D01*
X62417468Y-97482927D01*
X63390395Y-96510000D01*
X63749605Y-96510000D01*
X64722532Y-97482927D01*
X64989387Y-97384264D01*
X65215908Y-96774539D01*
X65207680Y-96552175D01*
X70382430Y-96552175D01*
X70505565Y-96839788D01*
X71187734Y-97099707D01*
X71917443Y-97078786D01*
X72494435Y-96839788D01*
X72617570Y-96552175D01*
X71500000Y-95434605D01*
X70382430Y-96552175D01*
X65207680Y-96552175D01*
X65191856Y-96124540D01*
X64989387Y-95635736D01*
X64722532Y-95537073D01*
X63749605Y-96510000D01*
X63390395Y-96510000D01*
X62417468Y-95537073D01*
X62150613Y-95635736D01*
X61924092Y-96245461D01*
X57245301Y-96245461D01*
X57245664Y-95830518D01*
X57050204Y-95357468D01*
X62597073Y-95357468D01*
X63570000Y-96330395D01*
X64542927Y-95357468D01*
X64444264Y-95090613D01*
X64046220Y-94942734D01*
X69655293Y-94942734D01*
X69676214Y-95672443D01*
X69915212Y-96249435D01*
X70202825Y-96372570D01*
X71320395Y-95255000D01*
X70202825Y-94137430D01*
X69915212Y-94260565D01*
X69655293Y-94942734D01*
X64046220Y-94942734D01*
X63834539Y-94864092D01*
X63184540Y-94888144D01*
X62695736Y-95090613D01*
X62597073Y-95357468D01*
X57050204Y-95357468D01*
X56663050Y-94420485D01*
X56201197Y-93957825D01*
X70382430Y-93957825D01*
X71500000Y-95075395D01*
X72617570Y-93957825D01*
X72494435Y-93670212D01*
X71812266Y-93410293D01*
X71082557Y-93431214D01*
X70505565Y-93670212D01*
X70382430Y-93957825D01*
X56201197Y-93957825D01*
X55585189Y-93340741D01*
X54176175Y-92755667D01*
X52650518Y-92754336D01*
X51240485Y-93336950D01*
X50710000Y-93866510D01*
X50710000Y-90510000D01*
X61922560Y-90510000D01*
X61922560Y-92510000D01*
X61966838Y-92745317D01*
X62105910Y-92961441D01*
X62318110Y-93106431D01*
X62570000Y-93157440D01*
X64570000Y-93157440D01*
X64805317Y-93113162D01*
X65021441Y-92974090D01*
X65166431Y-92761890D01*
X65217440Y-92510000D01*
X65217440Y-90510000D01*
X65173162Y-90274683D01*
X65034090Y-90058559D01*
X64821890Y-89913569D01*
X64570000Y-89862560D01*
X62570000Y-89862560D01*
X62334683Y-89906838D01*
X62118559Y-90045910D01*
X61973569Y-90258110D01*
X61922560Y-90510000D01*
X50710000Y-90510000D01*
X50710000Y-85330000D01*
X61822560Y-85330000D01*
X61822560Y-87530000D01*
X61866838Y-87765317D01*
X62005910Y-87981441D01*
X62218110Y-88126431D01*
X62470000Y-88177440D01*
X64670000Y-88177440D01*
X64905317Y-88133162D01*
X65121441Y-87994090D01*
X65266431Y-87781890D01*
X65317440Y-87530000D01*
X65317440Y-86714187D01*
X65944752Y-86714187D01*
X66162757Y-87241800D01*
X66566077Y-87645824D01*
X67093309Y-87864750D01*
X67664187Y-87865248D01*
X68191800Y-87647243D01*
X68401663Y-87437745D01*
X71551861Y-87437745D01*
X71625995Y-87683864D01*
X72163223Y-87876965D01*
X72733454Y-87849778D01*
X73134005Y-87683864D01*
X73208139Y-87437745D01*
X72380000Y-86609605D01*
X71551861Y-87437745D01*
X68401663Y-87437745D01*
X68595824Y-87243923D01*
X68814750Y-86716691D01*
X68815189Y-86213223D01*
X70933035Y-86213223D01*
X70960222Y-86783454D01*
X71126136Y-87184005D01*
X71372255Y-87258139D01*
X72200395Y-86430000D01*
X72559605Y-86430000D01*
X73387745Y-87258139D01*
X73633864Y-87184005D01*
X73826965Y-86646777D01*
X73799778Y-86076546D01*
X73633864Y-85675995D01*
X73387745Y-85601861D01*
X72559605Y-86430000D01*
X72200395Y-86430000D01*
X71372255Y-85601861D01*
X71126136Y-85675995D01*
X70933035Y-86213223D01*
X68815189Y-86213223D01*
X68815248Y-86145813D01*
X68597243Y-85618200D01*
X68401640Y-85422255D01*
X71551861Y-85422255D01*
X72380000Y-86250395D01*
X73208139Y-85422255D01*
X73134005Y-85176136D01*
X72596777Y-84983035D01*
X72026546Y-85010222D01*
X71625995Y-85176136D01*
X71551861Y-85422255D01*
X68401640Y-85422255D01*
X68193923Y-85214176D01*
X67666691Y-84995250D01*
X67095813Y-84994752D01*
X66568200Y-85212757D01*
X66164176Y-85616077D01*
X65945250Y-86143309D01*
X65944752Y-86714187D01*
X65317440Y-86714187D01*
X65317440Y-85330000D01*
X65273162Y-85094683D01*
X65134090Y-84878559D01*
X64921890Y-84733569D01*
X64670000Y-84682560D01*
X62470000Y-84682560D01*
X62234683Y-84726838D01*
X62018559Y-84865910D01*
X61873569Y-85078110D01*
X61822560Y-85330000D01*
X50710000Y-85330000D01*
X50710000Y-82299774D01*
X56449831Y-82299774D01*
X56514131Y-82537611D01*
X57022342Y-82717333D01*
X57560644Y-82688892D01*
X57925869Y-82537611D01*
X57990169Y-82299774D01*
X57220000Y-81529605D01*
X56449831Y-82299774D01*
X50710000Y-82299774D01*
X50710000Y-81152342D01*
X55852667Y-81152342D01*
X55881108Y-81690644D01*
X56032389Y-82055869D01*
X56270226Y-82120169D01*
X57040395Y-81350000D01*
X57399605Y-81350000D01*
X58169774Y-82120169D01*
X58407611Y-82055869D01*
X58511602Y-81761805D01*
X65591805Y-81761805D01*
X65824358Y-82323258D01*
X66315224Y-82844492D01*
X66968193Y-83138203D01*
X67253000Y-83021858D01*
X67253000Y-81477000D01*
X67507000Y-81477000D01*
X67507000Y-83021858D01*
X67791807Y-83138203D01*
X68444776Y-82844492D01*
X68935642Y-82323258D01*
X69168195Y-81761805D01*
X69051432Y-81477000D01*
X67507000Y-81477000D01*
X67253000Y-81477000D01*
X65708568Y-81477000D01*
X65591805Y-81761805D01*
X58511602Y-81761805D01*
X58587333Y-81547658D01*
X58558892Y-81009356D01*
X58529417Y-80938195D01*
X65591805Y-80938195D01*
X65708568Y-81223000D01*
X67253000Y-81223000D01*
X67253000Y-79678142D01*
X67507000Y-79678142D01*
X67507000Y-81223000D01*
X69051432Y-81223000D01*
X69168195Y-80938195D01*
X68935642Y-80376742D01*
X68444776Y-79855508D01*
X67791807Y-79561797D01*
X67507000Y-79678142D01*
X67253000Y-79678142D01*
X66968193Y-79561797D01*
X66315224Y-79855508D01*
X65824358Y-80376742D01*
X65591805Y-80938195D01*
X58529417Y-80938195D01*
X58407611Y-80644131D01*
X58169774Y-80579831D01*
X57399605Y-81350000D01*
X57040395Y-81350000D01*
X56270226Y-80579831D01*
X56032389Y-80644131D01*
X55852667Y-81152342D01*
X50710000Y-81152342D01*
X50710000Y-79759774D01*
X56449831Y-79759774D01*
X56514131Y-79997611D01*
X56728728Y-80073500D01*
X56514131Y-80162389D01*
X56449831Y-80400226D01*
X57220000Y-81170395D01*
X57990169Y-80400226D01*
X57925869Y-80162389D01*
X57711272Y-80086500D01*
X57925869Y-79997611D01*
X57990169Y-79759774D01*
X57220000Y-78989605D01*
X56449831Y-79759774D01*
X50710000Y-79759774D01*
X50710000Y-78612342D01*
X55852667Y-78612342D01*
X55881108Y-79150644D01*
X56032389Y-79515869D01*
X56270226Y-79580169D01*
X57040395Y-78810000D01*
X57399605Y-78810000D01*
X58169774Y-79580169D01*
X58407611Y-79515869D01*
X58587333Y-79007658D01*
X58558892Y-78469356D01*
X58407611Y-78104131D01*
X58169774Y-78039831D01*
X57399605Y-78810000D01*
X57040395Y-78810000D01*
X56270226Y-78039831D01*
X56032389Y-78104131D01*
X55852667Y-78612342D01*
X50710000Y-78612342D01*
X50710000Y-76538344D01*
X55864765Y-76538344D01*
X56070617Y-77036543D01*
X56451452Y-77418043D01*
X56729116Y-77533339D01*
X56514131Y-77622389D01*
X56449831Y-77860226D01*
X57220000Y-78630395D01*
X57990169Y-77860226D01*
X57925869Y-77622389D01*
X57693828Y-77540331D01*
X57986543Y-77419383D01*
X58368043Y-77038548D01*
X58522687Y-76666123D01*
X61880817Y-76666123D01*
X62160988Y-77282392D01*
X62655668Y-77744534D01*
X63173878Y-77959175D01*
X63443000Y-77841125D01*
X63443000Y-76397000D01*
X63697000Y-76397000D01*
X63697000Y-77841125D01*
X63966122Y-77959175D01*
X64484332Y-77744534D01*
X64979012Y-77282392D01*
X65259183Y-76666123D01*
X65252329Y-76650434D01*
X69099876Y-76650434D01*
X69130856Y-76778355D01*
X69444078Y-77336317D01*
X69946980Y-77731942D01*
X70563000Y-77905000D01*
X71063000Y-77905000D01*
X71063000Y-76397000D01*
X71317000Y-76397000D01*
X71317000Y-77905000D01*
X71817000Y-77905000D01*
X72433020Y-77731942D01*
X72935922Y-77336317D01*
X73249144Y-76778355D01*
X73280124Y-76650434D01*
X73160777Y-76397000D01*
X71317000Y-76397000D01*
X71063000Y-76397000D01*
X69219223Y-76397000D01*
X69099876Y-76650434D01*
X65252329Y-76650434D01*
X65141604Y-76397000D01*
X63697000Y-76397000D01*
X63443000Y-76397000D01*
X61998396Y-76397000D01*
X61880817Y-76666123D01*
X58522687Y-76666123D01*
X58574764Y-76540709D01*
X58575235Y-76001656D01*
X58522438Y-75873877D01*
X61880817Y-75873877D01*
X61998396Y-76143000D01*
X63443000Y-76143000D01*
X63443000Y-74698875D01*
X63697000Y-74698875D01*
X63697000Y-76143000D01*
X65141604Y-76143000D01*
X65259183Y-75873877D01*
X64979012Y-75257608D01*
X64484332Y-74795466D01*
X63966122Y-74580825D01*
X63697000Y-74698875D01*
X63443000Y-74698875D01*
X63173878Y-74580825D01*
X62655668Y-74795466D01*
X62160988Y-75257608D01*
X61880817Y-75873877D01*
X58522438Y-75873877D01*
X58369383Y-75503457D01*
X57988548Y-75121957D01*
X57490709Y-74915236D01*
X56951656Y-74914765D01*
X56453457Y-75120617D01*
X56071957Y-75501452D01*
X55865236Y-75999291D01*
X55864765Y-76538344D01*
X50710000Y-76538344D01*
X50710000Y-71190000D01*
X57661887Y-71190000D01*
X57771120Y-71739151D01*
X58082189Y-72204698D01*
X58547736Y-72515767D01*
X59096887Y-72625000D01*
X59153113Y-72625000D01*
X59702264Y-72515767D01*
X60167811Y-72204698D01*
X60478880Y-71739151D01*
X60531584Y-71474187D01*
X65309752Y-71474187D01*
X65527757Y-72001800D01*
X65931077Y-72405824D01*
X66458309Y-72624750D01*
X67029187Y-72625248D01*
X67556800Y-72407243D01*
X67960824Y-72003923D01*
X68179750Y-71476691D01*
X68180000Y-71190000D01*
X69013173Y-71190000D01*
X69137630Y-71815687D01*
X69492053Y-72346120D01*
X69662487Y-72460000D01*
X69492053Y-72573880D01*
X69137630Y-73104313D01*
X69013173Y-73730000D01*
X69137630Y-74355687D01*
X69492053Y-74886120D01*
X69684389Y-75014634D01*
X69444078Y-75203683D01*
X69130856Y-75761645D01*
X69099876Y-75889566D01*
X69219223Y-76143000D01*
X71063000Y-76143000D01*
X71063000Y-76123000D01*
X71317000Y-76123000D01*
X71317000Y-76143000D01*
X73160777Y-76143000D01*
X73280124Y-75889566D01*
X73249144Y-75761645D01*
X72935922Y-75203683D01*
X72695611Y-75014634D01*
X72887947Y-74886120D01*
X73242370Y-74355687D01*
X73366827Y-73730000D01*
X73242370Y-73104313D01*
X72887947Y-72573880D01*
X72717513Y-72460000D01*
X72887947Y-72346120D01*
X73242370Y-71815687D01*
X73366827Y-71190000D01*
X73242370Y-70564313D01*
X73001647Y-70204045D01*
X73141441Y-70114090D01*
X73286431Y-69901890D01*
X73337440Y-69650000D01*
X73337440Y-67650000D01*
X73293162Y-67414683D01*
X73154090Y-67198559D01*
X72941890Y-67053569D01*
X72690000Y-67002560D01*
X69690000Y-67002560D01*
X69454683Y-67046838D01*
X69238559Y-67185910D01*
X69093569Y-67398110D01*
X69042560Y-67650000D01*
X69042560Y-69650000D01*
X69086838Y-69885317D01*
X69225910Y-70101441D01*
X69377639Y-70205113D01*
X69137630Y-70564313D01*
X69013173Y-71190000D01*
X68180000Y-71190000D01*
X68180248Y-70905813D01*
X67962243Y-70378200D01*
X67558923Y-69974176D01*
X67031691Y-69755250D01*
X66460813Y-69754752D01*
X65933200Y-69972757D01*
X65529176Y-70376077D01*
X65310250Y-70903309D01*
X65309752Y-71474187D01*
X60531584Y-71474187D01*
X60588113Y-71190000D01*
X60478880Y-70640849D01*
X60167811Y-70175302D01*
X59702264Y-69864233D01*
X59153113Y-69755000D01*
X59096887Y-69755000D01*
X58547736Y-69864233D01*
X58082189Y-70175302D01*
X57771120Y-70640849D01*
X57661887Y-71190000D01*
X50710000Y-71190000D01*
X50710000Y-65104383D01*
X57154769Y-65104383D01*
X57357582Y-65595229D01*
X57732796Y-65971098D01*
X58223287Y-66174768D01*
X58754383Y-66175231D01*
X59245229Y-65972418D01*
X59621098Y-65597204D01*
X59824768Y-65106713D01*
X59824944Y-64905057D01*
X60024383Y-64905231D01*
X60515229Y-64702418D01*
X60891098Y-64327204D01*
X61094768Y-63836713D01*
X61095000Y-63570000D01*
X62106887Y-63570000D01*
X62216120Y-64119151D01*
X62527189Y-64584698D01*
X62992736Y-64895767D01*
X63541887Y-65005000D01*
X63598113Y-65005000D01*
X64147264Y-64895767D01*
X64612811Y-64584698D01*
X64923880Y-64119151D01*
X64976584Y-63854187D01*
X69754752Y-63854187D01*
X69972757Y-64381800D01*
X70376077Y-64785824D01*
X70903309Y-65004750D01*
X71474187Y-65005248D01*
X72001800Y-64787243D01*
X72405824Y-64383923D01*
X72624750Y-63856691D01*
X72625248Y-63285813D01*
X72407243Y-62758200D01*
X72003923Y-62354176D01*
X71476691Y-62135250D01*
X70905813Y-62134752D01*
X70378200Y-62352757D01*
X69974176Y-62756077D01*
X69755250Y-63283309D01*
X69754752Y-63854187D01*
X64976584Y-63854187D01*
X65033113Y-63570000D01*
X64923880Y-63020849D01*
X64612811Y-62555302D01*
X64147264Y-62244233D01*
X63598113Y-62135000D01*
X63541887Y-62135000D01*
X62992736Y-62244233D01*
X62527189Y-62555302D01*
X62216120Y-63020849D01*
X62106887Y-63570000D01*
X61095000Y-63570000D01*
X61095231Y-63305617D01*
X60892418Y-62814771D01*
X60517204Y-62438902D01*
X60026713Y-62235232D01*
X59823439Y-62235055D01*
X59808664Y-61962560D01*
X59661042Y-61606169D01*
X59425275Y-61544331D01*
X58669605Y-62300000D01*
X58683748Y-62314143D01*
X58504143Y-62493748D01*
X58490000Y-62479605D01*
X57734331Y-63235275D01*
X57796169Y-63471042D01*
X58072111Y-63568196D01*
X57734771Y-63707582D01*
X57358902Y-64082796D01*
X57155232Y-64573287D01*
X57154769Y-65104383D01*
X50710000Y-65104383D01*
X50710000Y-62107122D01*
X57142581Y-62107122D01*
X57171336Y-62637440D01*
X57318958Y-62993831D01*
X57554725Y-63055669D01*
X58310395Y-62300000D01*
X57554725Y-61544331D01*
X57318958Y-61606169D01*
X57142581Y-62107122D01*
X50710000Y-62107122D01*
X50710000Y-61364725D01*
X57734331Y-61364725D01*
X58490000Y-62120395D01*
X59245669Y-61364725D01*
X59183831Y-61128958D01*
X58682878Y-60952581D01*
X58152560Y-60981336D01*
X57796169Y-61128958D01*
X57734331Y-61364725D01*
X50710000Y-61364725D01*
X50710000Y-60395000D01*
X69091887Y-60395000D01*
X69201120Y-60944151D01*
X69512189Y-61409698D01*
X69977736Y-61720767D01*
X70526887Y-61830000D01*
X70583113Y-61830000D01*
X71132264Y-61720767D01*
X71597811Y-61409698D01*
X71908880Y-60944151D01*
X72018113Y-60395000D01*
X71908880Y-59845849D01*
X71597811Y-59380302D01*
X71132264Y-59069233D01*
X70583113Y-58960000D01*
X70526887Y-58960000D01*
X69977736Y-59069233D01*
X69512189Y-59380302D01*
X69201120Y-59845849D01*
X69091887Y-60395000D01*
X50710000Y-60395000D01*
X50710000Y-56133531D01*
X51234811Y-56659259D01*
X52643825Y-57244333D01*
X54169482Y-57245664D01*
X55579515Y-56663050D01*
X56659259Y-55585189D01*
X56889482Y-55030750D01*
X71415000Y-55030750D01*
X71415000Y-56071310D01*
X71511673Y-56304699D01*
X71690302Y-56483327D01*
X71923691Y-56580000D01*
X72964250Y-56580000D01*
X73123000Y-56421250D01*
X73123000Y-54872000D01*
X71573750Y-54872000D01*
X71415000Y-55030750D01*
X56889482Y-55030750D01*
X57244333Y-54176175D01*
X57245664Y-52650518D01*
X57187604Y-52510000D01*
X59482560Y-52510000D01*
X59482560Y-54310000D01*
X59526838Y-54545317D01*
X59665910Y-54761441D01*
X59878110Y-54906431D01*
X60130000Y-54957440D01*
X61930000Y-54957440D01*
X62165317Y-54913162D01*
X62381441Y-54774090D01*
X62526431Y-54561890D01*
X62536766Y-54510854D01*
X62662424Y-54647966D01*
X63205258Y-54901046D01*
X63443000Y-54780997D01*
X63443000Y-53537000D01*
X63423000Y-53537000D01*
X63423000Y-53283000D01*
X63443000Y-53283000D01*
X63443000Y-52039003D01*
X63697000Y-52039003D01*
X63697000Y-53283000D01*
X63717000Y-53283000D01*
X63717000Y-53537000D01*
X63697000Y-53537000D01*
X63697000Y-54780997D01*
X63934742Y-54901046D01*
X64477576Y-54647966D01*
X64835499Y-54257418D01*
X64994519Y-54495409D01*
X65492509Y-54828155D01*
X66079928Y-54945000D01*
X66140072Y-54945000D01*
X66727491Y-54828155D01*
X67225481Y-54495409D01*
X67558227Y-53997419D01*
X67673343Y-53418690D01*
X71415000Y-53418690D01*
X71415000Y-54459250D01*
X71573750Y-54618000D01*
X73123000Y-54618000D01*
X73123000Y-53068750D01*
X72964250Y-52910000D01*
X71923691Y-52910000D01*
X71690302Y-53006673D01*
X71511673Y-53185301D01*
X71415000Y-53418690D01*
X67673343Y-53418690D01*
X67675072Y-53410000D01*
X67558227Y-52822581D01*
X67225481Y-52324591D01*
X66727491Y-51991845D01*
X66140072Y-51875000D01*
X66079928Y-51875000D01*
X65492509Y-51991845D01*
X64994519Y-52324591D01*
X64835499Y-52562582D01*
X64477576Y-52172034D01*
X63934742Y-51918954D01*
X63697000Y-52039003D01*
X63443000Y-52039003D01*
X63205258Y-51918954D01*
X62662424Y-52172034D01*
X62539156Y-52306538D01*
X62533162Y-52274683D01*
X62394090Y-52058559D01*
X62181890Y-51913569D01*
X61930000Y-51862560D01*
X60130000Y-51862560D01*
X59894683Y-51906838D01*
X59678559Y-52045910D01*
X59533569Y-52258110D01*
X59482560Y-52510000D01*
X57187604Y-52510000D01*
X56663050Y-51240485D01*
X56133490Y-50710000D01*
X74238000Y-50710000D01*
X74238000Y-52910000D01*
M02*
