G04 #@! TF.FileFunction,Soldermask,Bot*
%FSLAX46Y46*%
G04 Gerber Fmt 4.6, Leading zero omitted, Abs format (unit mm)*
G04 Created by KiCad (PCBNEW 4.0.7-e2-6376~58~ubuntu16.04.1) date Sun Apr  8 15:35:44 2018*
%MOMM*%
%LPD*%
G01*
G04 APERTURE LIST*
%ADD10C,0.500000*%
%ADD11C,0.150000*%
%ADD12C,2.000000*%
%ADD13O,2.000000X2.000000*%
%ADD14R,2.400000X2.400000*%
%ADD15C,2.400000*%
%ADD16C,2.800000*%
%ADD17R,2.800000X2.800000*%
%ADD18C,1.800000*%
%ADD19R,3.400000X2.400000*%
%ADD20O,3.400000X2.400000*%
%ADD21R,2.200000X2.200000*%
%ADD22O,2.200000X2.200000*%
%ADD23C,6.800000*%
%ADD24C,1.200000*%
%ADD25R,2.600000X2.600000*%
%ADD26O,2.600000X2.600000*%
%ADD27O,2.800000X2.800000*%
%ADD28C,2.750000*%
G04 APERTURE END LIST*
D10*
D11*
X50000000Y-50000000D02*
X50000000Y-100000000D01*
X100000000Y-50000000D02*
X100000000Y-100000000D01*
X50000000Y-100000000D02*
X100000000Y-100000000D01*
X50000000Y-50000000D02*
X100000000Y-50000000D01*
D12*
X90240000Y-68650000D03*
D13*
X90240000Y-61030000D03*
D14*
X62230000Y-96520000D03*
D15*
X62230000Y-93020000D03*
D14*
X87630000Y-92710000D03*
D15*
X87630000Y-96210000D03*
D12*
X67310000Y-86360000D03*
X72310000Y-86360000D03*
X77470000Y-86360000D03*
X82470000Y-86360000D03*
D16*
X53980000Y-89450000D03*
D17*
X53980000Y-85950000D03*
D16*
X75000000Y-96020000D03*
D17*
X71500000Y-96020000D03*
D16*
X78500000Y-96020000D03*
D18*
X74930000Y-59690000D03*
X73660000Y-58420000D03*
X76200000Y-58420000D03*
D12*
X67310000Y-58420000D03*
D13*
X67310000Y-66040000D03*
D12*
X94050000Y-68650000D03*
D13*
X94050000Y-61030000D03*
D12*
X85160000Y-68650000D03*
D13*
X85160000Y-61030000D03*
D19*
X72390000Y-64770000D03*
D20*
X80010000Y-72390000D03*
X72390000Y-67310000D03*
X80010000Y-69850000D03*
X72390000Y-69850000D03*
X80010000Y-67310000D03*
X72390000Y-72390000D03*
X80010000Y-64770000D03*
D21*
X60960000Y-53340000D03*
D22*
X63500000Y-53340000D03*
X66040000Y-53340000D03*
D21*
X83820000Y-53340000D03*
D22*
X86360000Y-53340000D03*
X88900000Y-53340000D03*
D23*
X53410000Y-53410000D03*
D24*
X55810000Y-53410000D03*
X55107056Y-55107056D03*
X53410000Y-55810000D03*
X51712944Y-55107056D03*
X51010000Y-53410000D03*
X51712944Y-51712944D03*
X53410000Y-51010000D03*
X55107056Y-51712944D03*
D23*
X96590000Y-53410000D03*
D24*
X98990000Y-53410000D03*
X98287056Y-55107056D03*
X96590000Y-55810000D03*
X94892944Y-55107056D03*
X94190000Y-53410000D03*
X94892944Y-51712944D03*
X96590000Y-51010000D03*
X98287056Y-51712944D03*
D23*
X53410000Y-96590000D03*
D24*
X55810000Y-96590000D03*
X55107056Y-98287056D03*
X53410000Y-98990000D03*
X51712944Y-98287056D03*
X51010000Y-96590000D03*
X51712944Y-94892944D03*
X53410000Y-94190000D03*
X55107056Y-94892944D03*
D23*
X96590000Y-96590000D03*
D24*
X98990000Y-96590000D03*
X98287056Y-98287056D03*
X96590000Y-98990000D03*
X94892944Y-98287056D03*
X94190000Y-96590000D03*
X94892944Y-94892944D03*
X96590000Y-94190000D03*
X98287056Y-94892944D03*
D25*
X85090000Y-73660000D03*
D26*
X95250000Y-73660000D03*
D25*
X67310000Y-78740000D03*
D26*
X67310000Y-68580000D03*
D17*
X71120000Y-78740000D03*
D27*
X86360000Y-78740000D03*
D28*
X59690000Y-75010000D03*
X59690000Y-80090000D03*
X59690000Y-64770000D03*
X59690000Y-59690000D03*
X62230000Y-77550000D03*
X57150000Y-77550000D03*
X62230000Y-62230000D03*
X57150000Y-62230000D03*
D12*
X86360000Y-82550000D03*
D13*
X93980000Y-82550000D03*
D12*
X93980000Y-86360000D03*
D13*
X86360000Y-86360000D03*
M02*
