M48
;DRILL file {KiCad 4.0.7-e2-6376~58~ubuntu16.04.1} date Sun Apr  8 20:27:57 2018
;FORMAT={2:4/ absolute / inch / suppress leading zeros}
FMAT,2
INCH,TZ
T1C0.020
T2C0.024
T3C0.031
T4C0.039
T5C0.043
T6C0.047
T7C0.053
T8C0.126
%
G90
G05
M72
T1
X20083Y-21028
X20083Y-38028
X20359Y-20359
X20359Y-21696
X20359Y-37359
X20359Y-38696
X21028Y-20083
X21028Y-21972
X21028Y-37083
X21028Y-38972
X21696Y-20359
X21696Y-21696
X21696Y-37359
X21696Y-38696
X21972Y-21028
X21972Y-38028
X37083Y-21028
X37083Y-38028
X37359Y-20359
X37359Y-21696
X37359Y-37359
X37359Y-38696
X38028Y-20083
X38028Y-21972
X38028Y-37083
X38028Y-38972
X38696Y-20359
X38696Y-21696
X38696Y-37359
X38696Y-38696
X38972Y-21028
X38972Y-38028
T2
X23028Y-24528
X23028Y-25528
X23528Y-25028
T3
X22528Y-30028
X22528Y-31028
X22528Y-32028
X23278Y-28028
X25028Y-25028
X26278Y-28028
X26528Y-34028
X27778Y-23778
X28028Y-25028
X28028Y-27028
X28028Y-28028
X28028Y-29028
X28028Y-30028
X28496Y-34028
X29278Y-25028
X30528Y-34028
X30778Y-23778
X31028Y-27028
X31028Y-28028
X31028Y-29028
X31028Y-30028
X32278Y-25028
X32496Y-34028
T4
X24028Y-21028
X25028Y-21028
X25028Y-36028
X25028Y-37996
X26028Y-21028
X33028Y-21028
X34028Y-21028
X34028Y-36059
X34028Y-38028
X35028Y-21028
T5
X25028Y-30028
X25028Y-34028
X34028Y-30028
X34028Y-34028
T6
X26528Y-32028
X28150Y-37502
X28839Y-21553
X29528Y-37502
X30217Y-21553
X30906Y-37502
X32528Y-32028
T7
X35528Y-24996
X35528Y-31028
X36528Y-23996
X36528Y-25996
X36528Y-30028
X36528Y-32028
X37528Y-24996
X37528Y-31028
T8
X21028Y-21028
X21028Y-38028
X38028Y-21028
X38028Y-38028
T0
M30
