G04 #@! TF.FileFunction,Copper,L2,Bot,Signal*
%FSLAX46Y46*%
G04 Gerber Fmt 4.6, Leading zero omitted, Abs format (unit mm)*
G04 Created by KiCad (PCBNEW 4.0.7-e2-6376~58~ubuntu16.04.1) date Sun Apr  8 15:35:44 2018*
%MOMM*%
%LPD*%
G01*
G04 APERTURE LIST*
%ADD10C,0.500000*%
%ADD11C,0.150000*%
%ADD12C,1.600000*%
%ADD13O,1.600000X1.600000*%
%ADD14R,2.000000X2.000000*%
%ADD15C,2.000000*%
%ADD16C,2.400000*%
%ADD17R,2.400000X2.400000*%
%ADD18C,1.400000*%
%ADD19R,3.000000X2.000000*%
%ADD20O,3.000000X2.000000*%
%ADD21R,1.800000X1.800000*%
%ADD22O,1.800000X1.800000*%
%ADD23C,6.400000*%
%ADD24C,0.800000*%
%ADD25R,2.200000X2.200000*%
%ADD26O,2.200000X2.200000*%
%ADD27O,2.400000X2.400000*%
%ADD28C,2.350000*%
%ADD29C,0.750000*%
%ADD30C,1.500000*%
%ADD31C,0.254000*%
G04 APERTURE END LIST*
D10*
D11*
X50000000Y-50000000D02*
X50000000Y-100000000D01*
X100000000Y-50000000D02*
X100000000Y-100000000D01*
X50000000Y-100000000D02*
X100000000Y-100000000D01*
X50000000Y-50000000D02*
X100000000Y-50000000D01*
D12*
X90240000Y-68650000D03*
D13*
X90240000Y-61030000D03*
D14*
X62230000Y-96520000D03*
D15*
X62230000Y-93020000D03*
D14*
X87630000Y-92710000D03*
D15*
X87630000Y-96210000D03*
D12*
X67310000Y-86360000D03*
X72310000Y-86360000D03*
X77470000Y-86360000D03*
X82470000Y-86360000D03*
D16*
X53980000Y-89450000D03*
D17*
X53980000Y-85950000D03*
D16*
X75000000Y-96020000D03*
D17*
X71500000Y-96020000D03*
D16*
X78500000Y-96020000D03*
D18*
X74930000Y-59690000D03*
X73660000Y-58420000D03*
X76200000Y-58420000D03*
D12*
X67310000Y-58420000D03*
D13*
X67310000Y-66040000D03*
D12*
X94050000Y-68650000D03*
D13*
X94050000Y-61030000D03*
D12*
X85160000Y-68650000D03*
D13*
X85160000Y-61030000D03*
D19*
X72390000Y-64770000D03*
D20*
X80010000Y-72390000D03*
X72390000Y-67310000D03*
X80010000Y-69850000D03*
X72390000Y-69850000D03*
X80010000Y-67310000D03*
X72390000Y-72390000D03*
X80010000Y-64770000D03*
D21*
X60960000Y-53340000D03*
D22*
X63500000Y-53340000D03*
X66040000Y-53340000D03*
D21*
X83820000Y-53340000D03*
D22*
X86360000Y-53340000D03*
X88900000Y-53340000D03*
D23*
X53410000Y-53410000D03*
D24*
X55810000Y-53410000D03*
X55107056Y-55107056D03*
X53410000Y-55810000D03*
X51712944Y-55107056D03*
X51010000Y-53410000D03*
X51712944Y-51712944D03*
X53410000Y-51010000D03*
X55107056Y-51712944D03*
D23*
X96590000Y-53410000D03*
D24*
X98990000Y-53410000D03*
X98287056Y-55107056D03*
X96590000Y-55810000D03*
X94892944Y-55107056D03*
X94190000Y-53410000D03*
X94892944Y-51712944D03*
X96590000Y-51010000D03*
X98287056Y-51712944D03*
D23*
X53410000Y-96590000D03*
D24*
X55810000Y-96590000D03*
X55107056Y-98287056D03*
X53410000Y-98990000D03*
X51712944Y-98287056D03*
X51010000Y-96590000D03*
X51712944Y-94892944D03*
X53410000Y-94190000D03*
X55107056Y-94892944D03*
D23*
X96590000Y-96590000D03*
D24*
X98990000Y-96590000D03*
X98287056Y-98287056D03*
X96590000Y-98990000D03*
X94892944Y-98287056D03*
X94190000Y-96590000D03*
X94892944Y-94892944D03*
X96590000Y-94190000D03*
X98287056Y-94892944D03*
D25*
X85090000Y-73660000D03*
D26*
X95250000Y-73660000D03*
D25*
X67310000Y-78740000D03*
D26*
X67310000Y-68580000D03*
D17*
X71120000Y-78740000D03*
D27*
X86360000Y-78740000D03*
D28*
X59690000Y-75010000D03*
X59690000Y-80090000D03*
X59690000Y-64770000D03*
X59690000Y-59690000D03*
X62230000Y-77550000D03*
X57150000Y-77550000D03*
X62230000Y-62230000D03*
X57150000Y-62230000D03*
D12*
X86360000Y-82550000D03*
D13*
X93980000Y-82550000D03*
D12*
X93980000Y-86360000D03*
D13*
X86360000Y-86360000D03*
D29*
X94050000Y-61030000D02*
X94050000Y-60395000D01*
X94050000Y-60395000D02*
X92780000Y-59125000D01*
X92780000Y-59125000D02*
X84525000Y-59125000D01*
X84525000Y-59125000D02*
X82620000Y-61030000D01*
X82620000Y-61030000D02*
X76270000Y-61030000D01*
X76270000Y-61030000D02*
X74930000Y-59690000D01*
X83820000Y-53340000D02*
X78740000Y-53340000D01*
X78740000Y-53340000D02*
X73660000Y-58420000D01*
X60960000Y-53340000D02*
X60960000Y-54864000D01*
X60960000Y-54864000D02*
X62865000Y-56769000D01*
X62865000Y-56769000D02*
X72009000Y-56769000D01*
X72009000Y-56769000D02*
X73660000Y-58420000D01*
X72390000Y-69850000D02*
X71374000Y-69850000D01*
X71374000Y-69850000D02*
X69666000Y-68142000D01*
X69666000Y-60776000D02*
X67310000Y-58420000D01*
X69666000Y-68142000D02*
X69666000Y-60776000D01*
X90240000Y-61030000D02*
X88716000Y-62554000D01*
X77540000Y-63316000D02*
X77540000Y-69850000D01*
X78302000Y-62554000D02*
X77540000Y-63316000D01*
X88716000Y-62554000D02*
X78302000Y-62554000D01*
D10*
X90240000Y-61030000D02*
X90170000Y-60960000D01*
D29*
X80010000Y-69850000D02*
X78175000Y-69850000D01*
X78105000Y-69850000D02*
X77540000Y-69850000D01*
D10*
X78175000Y-69850000D02*
X78105000Y-69850000D01*
D29*
X77540000Y-69850000D02*
X77470000Y-69850000D01*
X77470000Y-69850000D02*
X72390000Y-69850000D01*
X94050000Y-68650000D02*
X92272000Y-66872000D01*
X83452000Y-67310000D02*
X80010000Y-67310000D01*
X83890000Y-66872000D02*
X83452000Y-67310000D01*
X92272000Y-66872000D02*
X83890000Y-66872000D01*
X72390000Y-67310000D02*
X72390000Y-64770000D01*
D30*
X57150000Y-77550000D02*
X59690000Y-75010000D01*
X62230000Y-77550000D02*
X59690000Y-75010000D01*
X59690000Y-80090000D02*
X62230000Y-77550000D01*
X59690000Y-80090000D02*
X57150000Y-77550000D01*
X86360000Y-82550000D02*
X83820000Y-82550000D01*
X83820000Y-82550000D02*
X80010000Y-78740000D01*
X59690000Y-64770000D02*
X57150000Y-62230000D01*
X57150000Y-62230000D02*
X59690000Y-59690000D01*
X62230000Y-62230000D02*
X59690000Y-59690000D01*
X59690000Y-64770000D02*
X62230000Y-62230000D01*
D29*
X85160000Y-68650000D02*
X90240000Y-68650000D01*
D30*
X85090000Y-73660000D02*
X80010000Y-78740000D01*
X80010000Y-78740000D02*
X71120000Y-78740000D01*
X67310000Y-68580000D02*
X67310000Y-66040000D01*
X67310000Y-68580000D02*
X67310000Y-70612000D01*
X69088000Y-72390000D02*
X72390000Y-72390000D01*
X67310000Y-70612000D02*
X69088000Y-72390000D01*
X53980000Y-85950000D02*
X62780000Y-85950000D01*
X66110000Y-82620000D02*
X76270000Y-82620000D01*
X62780000Y-85950000D02*
X66110000Y-82620000D01*
D31*
G36*
X69793000Y-55759000D02*
X63283356Y-55759000D01*
X62260942Y-54736586D01*
X62311441Y-54704090D01*
X62456431Y-54491890D01*
X62466766Y-54440854D01*
X62592424Y-54577966D01*
X63135258Y-54831046D01*
X63373000Y-54710997D01*
X63373000Y-53467000D01*
X63353000Y-53467000D01*
X63353000Y-53213000D01*
X63373000Y-53213000D01*
X63373000Y-51969003D01*
X63627000Y-51969003D01*
X63627000Y-53213000D01*
X63647000Y-53213000D01*
X63647000Y-53467000D01*
X63627000Y-53467000D01*
X63627000Y-54710997D01*
X63864742Y-54831046D01*
X64407576Y-54577966D01*
X64765499Y-54187418D01*
X64924519Y-54425409D01*
X65422509Y-54758155D01*
X66009928Y-54875000D01*
X66070072Y-54875000D01*
X66657491Y-54758155D01*
X67155481Y-54425409D01*
X67488227Y-53927419D01*
X67605072Y-53340000D01*
X67488227Y-52752581D01*
X67155481Y-52254591D01*
X66657491Y-51921845D01*
X66070072Y-51805000D01*
X66009928Y-51805000D01*
X65422509Y-51921845D01*
X64924519Y-52254591D01*
X64765499Y-52492582D01*
X64407576Y-52102034D01*
X63864742Y-51848954D01*
X63627000Y-51969003D01*
X63373000Y-51969003D01*
X63135258Y-51848954D01*
X62592424Y-52102034D01*
X62469156Y-52236538D01*
X62463162Y-52204683D01*
X62324090Y-51988559D01*
X62111890Y-51843569D01*
X61860000Y-51792560D01*
X60060000Y-51792560D01*
X59824683Y-51836838D01*
X59608559Y-51975910D01*
X59463569Y-52188110D01*
X59412560Y-52440000D01*
X59412560Y-54240000D01*
X59456838Y-54475317D01*
X59595910Y-54691441D01*
X59808110Y-54836431D01*
X59950241Y-54865213D01*
X60026882Y-55250510D01*
X60245822Y-55578178D01*
X62150822Y-57483178D01*
X62478490Y-57702118D01*
X62865000Y-57779000D01*
X66022372Y-57779000D01*
X65875250Y-58133309D01*
X65874752Y-58704187D01*
X66092757Y-59231800D01*
X66496077Y-59635824D01*
X67023309Y-59854750D01*
X67316650Y-59855006D01*
X68656000Y-61194356D01*
X68656000Y-65564454D01*
X68635767Y-65462736D01*
X68324698Y-64997189D01*
X67859151Y-64686120D01*
X67310000Y-64576887D01*
X66760849Y-64686120D01*
X66295302Y-64997189D01*
X65984233Y-65462736D01*
X65875000Y-66011887D01*
X65875000Y-66068113D01*
X65925000Y-66319480D01*
X65925000Y-67555897D01*
X65707069Y-67882053D01*
X65575000Y-68546009D01*
X65575000Y-68613991D01*
X65707069Y-69277947D01*
X65925000Y-69604103D01*
X65925000Y-70612000D01*
X66030427Y-71142017D01*
X66259601Y-71485000D01*
X66330657Y-71591343D01*
X68108657Y-73369343D01*
X68557984Y-73669574D01*
X69088000Y-73775000D01*
X70547394Y-73775000D01*
X71862197Y-75089803D01*
X71902590Y-75116994D01*
X71952000Y-75127000D01*
X73857000Y-75127000D01*
X73857000Y-81235000D01*
X66110000Y-81235000D01*
X65579983Y-81340427D01*
X65156261Y-81623549D01*
X65130657Y-81640657D01*
X62206314Y-84565000D01*
X55792630Y-84565000D01*
X55783162Y-84514683D01*
X55644090Y-84298559D01*
X55431890Y-84153569D01*
X55180000Y-84102560D01*
X52780000Y-84102560D01*
X52544683Y-84146838D01*
X52328559Y-84285910D01*
X52183569Y-84498110D01*
X52132560Y-84750000D01*
X52132560Y-87150000D01*
X52176838Y-87385317D01*
X52315910Y-87601441D01*
X52528110Y-87746431D01*
X52780000Y-87797440D01*
X53174288Y-87797440D01*
X52941914Y-87893455D01*
X52425270Y-88409199D01*
X52145319Y-89083395D01*
X52144682Y-89813403D01*
X52423455Y-90488086D01*
X52939199Y-91004730D01*
X53613395Y-91284681D01*
X54343403Y-91285318D01*
X55018086Y-91006545D01*
X55534730Y-90490801D01*
X55814681Y-89816605D01*
X55815318Y-89086597D01*
X55536545Y-88411914D01*
X55020801Y-87895270D01*
X54785201Y-87797440D01*
X55180000Y-87797440D01*
X55415317Y-87753162D01*
X55631441Y-87614090D01*
X55776431Y-87401890D01*
X55783345Y-87367745D01*
X66481861Y-87367745D01*
X66555995Y-87613864D01*
X67093223Y-87806965D01*
X67663454Y-87779778D01*
X68064005Y-87613864D01*
X68138139Y-87367745D01*
X67310000Y-86539605D01*
X66481861Y-87367745D01*
X55783345Y-87367745D01*
X55789977Y-87335000D01*
X62780000Y-87335000D01*
X63310017Y-87229573D01*
X63759343Y-86929343D01*
X64545463Y-86143223D01*
X65863035Y-86143223D01*
X65890222Y-86713454D01*
X66056136Y-87114005D01*
X66302255Y-87188139D01*
X67130395Y-86360000D01*
X67489605Y-86360000D01*
X68317745Y-87188139D01*
X68563864Y-87114005D01*
X68732735Y-86644187D01*
X70874752Y-86644187D01*
X71092757Y-87171800D01*
X71496077Y-87575824D01*
X72023309Y-87794750D01*
X72594187Y-87795248D01*
X73121800Y-87577243D01*
X73525824Y-87173923D01*
X73744750Y-86646691D01*
X73745248Y-86075813D01*
X73527243Y-85548200D01*
X73123923Y-85144176D01*
X72596691Y-84925250D01*
X72025813Y-84924752D01*
X71498200Y-85142757D01*
X71094176Y-85546077D01*
X70875250Y-86073309D01*
X70874752Y-86644187D01*
X68732735Y-86644187D01*
X68756965Y-86576777D01*
X68729778Y-86006546D01*
X68563864Y-85605995D01*
X68317745Y-85531861D01*
X67489605Y-86360000D01*
X67130395Y-86360000D01*
X66302255Y-85531861D01*
X66056136Y-85605995D01*
X65863035Y-86143223D01*
X64545463Y-86143223D01*
X65336431Y-85352255D01*
X66481861Y-85352255D01*
X67310000Y-86180395D01*
X68138139Y-85352255D01*
X68064005Y-85106136D01*
X67526777Y-84913035D01*
X66956546Y-84940222D01*
X66555995Y-85106136D01*
X66481861Y-85352255D01*
X65336431Y-85352255D01*
X66683686Y-84005000D01*
X73857000Y-84005000D01*
X73857000Y-94568186D01*
X73445270Y-94979199D01*
X73335000Y-95244758D01*
X73335000Y-94693690D01*
X73238327Y-94460301D01*
X73059698Y-94281673D01*
X72826309Y-94185000D01*
X71785750Y-94185000D01*
X71627000Y-94343750D01*
X71627000Y-95893000D01*
X71647000Y-95893000D01*
X71647000Y-96147000D01*
X71627000Y-96147000D01*
X71627000Y-97696250D01*
X71785750Y-97855000D01*
X72826309Y-97855000D01*
X73059698Y-97758327D01*
X73238327Y-97579699D01*
X73335000Y-97346310D01*
X73335000Y-96795605D01*
X73443455Y-97058086D01*
X73857000Y-97472353D01*
X73857000Y-99290000D01*
X56133531Y-99290000D01*
X56659259Y-98765189D01*
X57244333Y-97356175D01*
X57244813Y-96805750D01*
X60595000Y-96805750D01*
X60595000Y-97646309D01*
X60691673Y-97879698D01*
X60870301Y-98058327D01*
X61103690Y-98155000D01*
X61944250Y-98155000D01*
X62103000Y-97996250D01*
X62103000Y-96647000D01*
X62357000Y-96647000D01*
X62357000Y-97996250D01*
X62515750Y-98155000D01*
X63356310Y-98155000D01*
X63589699Y-98058327D01*
X63768327Y-97879698D01*
X63865000Y-97646309D01*
X63865000Y-96805750D01*
X63706250Y-96647000D01*
X62357000Y-96647000D01*
X62103000Y-96647000D01*
X60753750Y-96647000D01*
X60595000Y-96805750D01*
X57244813Y-96805750D01*
X57245664Y-95830518D01*
X57065171Y-95393691D01*
X60595000Y-95393691D01*
X60595000Y-96234250D01*
X60753750Y-96393000D01*
X62103000Y-96393000D01*
X62103000Y-95043750D01*
X62357000Y-95043750D01*
X62357000Y-96393000D01*
X63706250Y-96393000D01*
X63793500Y-96305750D01*
X69665000Y-96305750D01*
X69665000Y-97346310D01*
X69761673Y-97579699D01*
X69940302Y-97758327D01*
X70173691Y-97855000D01*
X71214250Y-97855000D01*
X71373000Y-97696250D01*
X71373000Y-96147000D01*
X69823750Y-96147000D01*
X69665000Y-96305750D01*
X63793500Y-96305750D01*
X63865000Y-96234250D01*
X63865000Y-95393691D01*
X63768327Y-95160302D01*
X63589699Y-94981673D01*
X63356310Y-94885000D01*
X62515750Y-94885000D01*
X62357000Y-95043750D01*
X62103000Y-95043750D01*
X61944250Y-94885000D01*
X61103690Y-94885000D01*
X60870301Y-94981673D01*
X60691673Y-95160302D01*
X60595000Y-95393691D01*
X57065171Y-95393691D01*
X56775937Y-94693690D01*
X69665000Y-94693690D01*
X69665000Y-95734250D01*
X69823750Y-95893000D01*
X71373000Y-95893000D01*
X71373000Y-94343750D01*
X71214250Y-94185000D01*
X70173691Y-94185000D01*
X69940302Y-94281673D01*
X69761673Y-94460301D01*
X69665000Y-94693690D01*
X56775937Y-94693690D01*
X56663050Y-94420485D01*
X55588238Y-93343795D01*
X60594716Y-93343795D01*
X60843106Y-93944943D01*
X61302637Y-94405278D01*
X61903352Y-94654716D01*
X62553795Y-94655284D01*
X63154943Y-94406894D01*
X63615278Y-93947363D01*
X63864716Y-93346648D01*
X63865284Y-92696205D01*
X63616894Y-92095057D01*
X63157363Y-91634722D01*
X62556648Y-91385284D01*
X61906205Y-91384716D01*
X61305057Y-91633106D01*
X60844722Y-92092637D01*
X60595284Y-92693352D01*
X60594716Y-93343795D01*
X55588238Y-93343795D01*
X55585189Y-93340741D01*
X54176175Y-92755667D01*
X52650518Y-92754336D01*
X51240485Y-93336950D01*
X50710000Y-93866510D01*
X50710000Y-77908452D01*
X55339686Y-77908452D01*
X55614662Y-78573943D01*
X56123379Y-79083549D01*
X56788389Y-79359685D01*
X57001185Y-79359871D01*
X57879869Y-80238555D01*
X57879686Y-80448452D01*
X58154662Y-81113943D01*
X58663379Y-81623549D01*
X59328389Y-81899685D01*
X60048452Y-81900314D01*
X60713943Y-81625338D01*
X61223549Y-81116621D01*
X61499685Y-80451611D01*
X61499871Y-80238815D01*
X62378555Y-79360131D01*
X62588452Y-79360314D01*
X63253943Y-79085338D01*
X63763549Y-78576621D01*
X64039685Y-77911611D01*
X64039922Y-77640000D01*
X65562560Y-77640000D01*
X65562560Y-79840000D01*
X65606838Y-80075317D01*
X65745910Y-80291441D01*
X65958110Y-80436431D01*
X66210000Y-80487440D01*
X68410000Y-80487440D01*
X68645317Y-80443162D01*
X68861441Y-80304090D01*
X69006431Y-80091890D01*
X69057440Y-79840000D01*
X69057440Y-79025750D01*
X69285000Y-79025750D01*
X69285000Y-80066310D01*
X69381673Y-80299699D01*
X69560302Y-80478327D01*
X69793691Y-80575000D01*
X70834250Y-80575000D01*
X70993000Y-80416250D01*
X70993000Y-78867000D01*
X71247000Y-78867000D01*
X71247000Y-80416250D01*
X71405750Y-80575000D01*
X72446309Y-80575000D01*
X72679698Y-80478327D01*
X72858327Y-80299699D01*
X72955000Y-80066310D01*
X72955000Y-79025750D01*
X72796250Y-78867000D01*
X71247000Y-78867000D01*
X70993000Y-78867000D01*
X69443750Y-78867000D01*
X69285000Y-79025750D01*
X69057440Y-79025750D01*
X69057440Y-77640000D01*
X69014857Y-77413690D01*
X69285000Y-77413690D01*
X69285000Y-78454250D01*
X69443750Y-78613000D01*
X70993000Y-78613000D01*
X70993000Y-77063750D01*
X71247000Y-77063750D01*
X71247000Y-78613000D01*
X72796250Y-78613000D01*
X72955000Y-78454250D01*
X72955000Y-77413690D01*
X72858327Y-77180301D01*
X72679698Y-77001673D01*
X72446309Y-76905000D01*
X71405750Y-76905000D01*
X71247000Y-77063750D01*
X70993000Y-77063750D01*
X70834250Y-76905000D01*
X69793691Y-76905000D01*
X69560302Y-77001673D01*
X69381673Y-77180301D01*
X69285000Y-77413690D01*
X69014857Y-77413690D01*
X69013162Y-77404683D01*
X68874090Y-77188559D01*
X68661890Y-77043569D01*
X68410000Y-76992560D01*
X66210000Y-76992560D01*
X65974683Y-77036838D01*
X65758559Y-77175910D01*
X65613569Y-77388110D01*
X65562560Y-77640000D01*
X64039922Y-77640000D01*
X64040314Y-77191548D01*
X63765338Y-76526057D01*
X63256621Y-76016451D01*
X62591611Y-75740315D01*
X62378815Y-75740129D01*
X61500131Y-74861445D01*
X61500314Y-74651548D01*
X61225338Y-73986057D01*
X60716621Y-73476451D01*
X60051611Y-73200315D01*
X59331548Y-73199686D01*
X58666057Y-73474662D01*
X58156451Y-73983379D01*
X57880315Y-74648389D01*
X57880129Y-74861185D01*
X57001445Y-75739869D01*
X56791548Y-75739686D01*
X56126057Y-76014662D01*
X55616451Y-76523379D01*
X55340315Y-77188389D01*
X55339686Y-77908452D01*
X50710000Y-77908452D01*
X50710000Y-66049101D01*
X58590504Y-66049101D01*
X58710583Y-66334118D01*
X59383698Y-66589864D01*
X60103445Y-66568552D01*
X60669417Y-66334118D01*
X60789496Y-66049101D01*
X59690000Y-64949605D01*
X58590504Y-66049101D01*
X50710000Y-66049101D01*
X50710000Y-63509101D01*
X56050504Y-63509101D01*
X56170583Y-63794118D01*
X56843698Y-64049864D01*
X57563445Y-64028552D01*
X58123628Y-63796516D01*
X57870136Y-64463698D01*
X57891448Y-65183445D01*
X58125882Y-65749417D01*
X58410899Y-65869496D01*
X59510395Y-64770000D01*
X59869605Y-64770000D01*
X60969101Y-65869496D01*
X61254118Y-65749417D01*
X61509864Y-65076302D01*
X61488552Y-64356555D01*
X61256516Y-63796372D01*
X61923698Y-64049864D01*
X62643445Y-64028552D01*
X63209417Y-63794118D01*
X63329496Y-63509101D01*
X62230000Y-62409605D01*
X61130504Y-63509101D01*
X61248009Y-63788009D01*
X60969101Y-63670504D01*
X59869605Y-64770000D01*
X59510395Y-64770000D01*
X58410899Y-63670504D01*
X58131991Y-63788009D01*
X58249496Y-63509101D01*
X57150000Y-62409605D01*
X56050504Y-63509101D01*
X50710000Y-63509101D01*
X50710000Y-61923698D01*
X55330136Y-61923698D01*
X55351448Y-62643445D01*
X55585882Y-63209417D01*
X55870899Y-63329496D01*
X56970395Y-62230000D01*
X57329605Y-62230000D01*
X58429101Y-63329496D01*
X58708009Y-63211991D01*
X58590504Y-63490899D01*
X59690000Y-64590395D01*
X60789496Y-63490899D01*
X60671991Y-63211991D01*
X60950899Y-63329496D01*
X62050395Y-62230000D01*
X62409605Y-62230000D01*
X63509101Y-63329496D01*
X63794118Y-63209417D01*
X64049864Y-62536302D01*
X64028552Y-61816555D01*
X63794118Y-61250583D01*
X63509101Y-61130504D01*
X62409605Y-62230000D01*
X62050395Y-62230000D01*
X60950899Y-61130504D01*
X60671991Y-61248009D01*
X60789496Y-60969101D01*
X59690000Y-59869605D01*
X58590504Y-60969101D01*
X58708009Y-61248009D01*
X58429101Y-61130504D01*
X57329605Y-62230000D01*
X56970395Y-62230000D01*
X55870899Y-61130504D01*
X55585882Y-61250583D01*
X55330136Y-61923698D01*
X50710000Y-61923698D01*
X50710000Y-60950899D01*
X56050504Y-60950899D01*
X57150000Y-62050395D01*
X58249496Y-60950899D01*
X58131991Y-60671991D01*
X58410899Y-60789496D01*
X59510395Y-59690000D01*
X59869605Y-59690000D01*
X60969101Y-60789496D01*
X61248009Y-60671991D01*
X61130504Y-60950899D01*
X62230000Y-62050395D01*
X63329496Y-60950899D01*
X63209417Y-60665882D01*
X62536302Y-60410136D01*
X61816555Y-60431448D01*
X61256372Y-60663484D01*
X61509864Y-59996302D01*
X61488552Y-59276555D01*
X61254118Y-58710583D01*
X60969101Y-58590504D01*
X59869605Y-59690000D01*
X59510395Y-59690000D01*
X58410899Y-58590504D01*
X58125882Y-58710583D01*
X57870136Y-59383698D01*
X57891448Y-60103445D01*
X58123484Y-60663628D01*
X57456302Y-60410136D01*
X56736555Y-60431448D01*
X56170583Y-60665882D01*
X56050504Y-60950899D01*
X50710000Y-60950899D01*
X50710000Y-58410899D01*
X58590504Y-58410899D01*
X59690000Y-59510395D01*
X60789496Y-58410899D01*
X60669417Y-58125882D01*
X59996302Y-57870136D01*
X59276555Y-57891448D01*
X58710583Y-58125882D01*
X58590504Y-58410899D01*
X50710000Y-58410899D01*
X50710000Y-56133531D01*
X51234811Y-56659259D01*
X52643825Y-57244333D01*
X54169482Y-57245664D01*
X55579515Y-56663050D01*
X56659259Y-55585189D01*
X57244333Y-54176175D01*
X57245664Y-52650518D01*
X56663050Y-51240485D01*
X56133490Y-50710000D01*
X69793000Y-50710000D01*
X69793000Y-55759000D01*
X69793000Y-55759000D01*
G37*
X69793000Y-55759000D02*
X63283356Y-55759000D01*
X62260942Y-54736586D01*
X62311441Y-54704090D01*
X62456431Y-54491890D01*
X62466766Y-54440854D01*
X62592424Y-54577966D01*
X63135258Y-54831046D01*
X63373000Y-54710997D01*
X63373000Y-53467000D01*
X63353000Y-53467000D01*
X63353000Y-53213000D01*
X63373000Y-53213000D01*
X63373000Y-51969003D01*
X63627000Y-51969003D01*
X63627000Y-53213000D01*
X63647000Y-53213000D01*
X63647000Y-53467000D01*
X63627000Y-53467000D01*
X63627000Y-54710997D01*
X63864742Y-54831046D01*
X64407576Y-54577966D01*
X64765499Y-54187418D01*
X64924519Y-54425409D01*
X65422509Y-54758155D01*
X66009928Y-54875000D01*
X66070072Y-54875000D01*
X66657491Y-54758155D01*
X67155481Y-54425409D01*
X67488227Y-53927419D01*
X67605072Y-53340000D01*
X67488227Y-52752581D01*
X67155481Y-52254591D01*
X66657491Y-51921845D01*
X66070072Y-51805000D01*
X66009928Y-51805000D01*
X65422509Y-51921845D01*
X64924519Y-52254591D01*
X64765499Y-52492582D01*
X64407576Y-52102034D01*
X63864742Y-51848954D01*
X63627000Y-51969003D01*
X63373000Y-51969003D01*
X63135258Y-51848954D01*
X62592424Y-52102034D01*
X62469156Y-52236538D01*
X62463162Y-52204683D01*
X62324090Y-51988559D01*
X62111890Y-51843569D01*
X61860000Y-51792560D01*
X60060000Y-51792560D01*
X59824683Y-51836838D01*
X59608559Y-51975910D01*
X59463569Y-52188110D01*
X59412560Y-52440000D01*
X59412560Y-54240000D01*
X59456838Y-54475317D01*
X59595910Y-54691441D01*
X59808110Y-54836431D01*
X59950241Y-54865213D01*
X60026882Y-55250510D01*
X60245822Y-55578178D01*
X62150822Y-57483178D01*
X62478490Y-57702118D01*
X62865000Y-57779000D01*
X66022372Y-57779000D01*
X65875250Y-58133309D01*
X65874752Y-58704187D01*
X66092757Y-59231800D01*
X66496077Y-59635824D01*
X67023309Y-59854750D01*
X67316650Y-59855006D01*
X68656000Y-61194356D01*
X68656000Y-65564454D01*
X68635767Y-65462736D01*
X68324698Y-64997189D01*
X67859151Y-64686120D01*
X67310000Y-64576887D01*
X66760849Y-64686120D01*
X66295302Y-64997189D01*
X65984233Y-65462736D01*
X65875000Y-66011887D01*
X65875000Y-66068113D01*
X65925000Y-66319480D01*
X65925000Y-67555897D01*
X65707069Y-67882053D01*
X65575000Y-68546009D01*
X65575000Y-68613991D01*
X65707069Y-69277947D01*
X65925000Y-69604103D01*
X65925000Y-70612000D01*
X66030427Y-71142017D01*
X66259601Y-71485000D01*
X66330657Y-71591343D01*
X68108657Y-73369343D01*
X68557984Y-73669574D01*
X69088000Y-73775000D01*
X70547394Y-73775000D01*
X71862197Y-75089803D01*
X71902590Y-75116994D01*
X71952000Y-75127000D01*
X73857000Y-75127000D01*
X73857000Y-81235000D01*
X66110000Y-81235000D01*
X65579983Y-81340427D01*
X65156261Y-81623549D01*
X65130657Y-81640657D01*
X62206314Y-84565000D01*
X55792630Y-84565000D01*
X55783162Y-84514683D01*
X55644090Y-84298559D01*
X55431890Y-84153569D01*
X55180000Y-84102560D01*
X52780000Y-84102560D01*
X52544683Y-84146838D01*
X52328559Y-84285910D01*
X52183569Y-84498110D01*
X52132560Y-84750000D01*
X52132560Y-87150000D01*
X52176838Y-87385317D01*
X52315910Y-87601441D01*
X52528110Y-87746431D01*
X52780000Y-87797440D01*
X53174288Y-87797440D01*
X52941914Y-87893455D01*
X52425270Y-88409199D01*
X52145319Y-89083395D01*
X52144682Y-89813403D01*
X52423455Y-90488086D01*
X52939199Y-91004730D01*
X53613395Y-91284681D01*
X54343403Y-91285318D01*
X55018086Y-91006545D01*
X55534730Y-90490801D01*
X55814681Y-89816605D01*
X55815318Y-89086597D01*
X55536545Y-88411914D01*
X55020801Y-87895270D01*
X54785201Y-87797440D01*
X55180000Y-87797440D01*
X55415317Y-87753162D01*
X55631441Y-87614090D01*
X55776431Y-87401890D01*
X55783345Y-87367745D01*
X66481861Y-87367745D01*
X66555995Y-87613864D01*
X67093223Y-87806965D01*
X67663454Y-87779778D01*
X68064005Y-87613864D01*
X68138139Y-87367745D01*
X67310000Y-86539605D01*
X66481861Y-87367745D01*
X55783345Y-87367745D01*
X55789977Y-87335000D01*
X62780000Y-87335000D01*
X63310017Y-87229573D01*
X63759343Y-86929343D01*
X64545463Y-86143223D01*
X65863035Y-86143223D01*
X65890222Y-86713454D01*
X66056136Y-87114005D01*
X66302255Y-87188139D01*
X67130395Y-86360000D01*
X67489605Y-86360000D01*
X68317745Y-87188139D01*
X68563864Y-87114005D01*
X68732735Y-86644187D01*
X70874752Y-86644187D01*
X71092757Y-87171800D01*
X71496077Y-87575824D01*
X72023309Y-87794750D01*
X72594187Y-87795248D01*
X73121800Y-87577243D01*
X73525824Y-87173923D01*
X73744750Y-86646691D01*
X73745248Y-86075813D01*
X73527243Y-85548200D01*
X73123923Y-85144176D01*
X72596691Y-84925250D01*
X72025813Y-84924752D01*
X71498200Y-85142757D01*
X71094176Y-85546077D01*
X70875250Y-86073309D01*
X70874752Y-86644187D01*
X68732735Y-86644187D01*
X68756965Y-86576777D01*
X68729778Y-86006546D01*
X68563864Y-85605995D01*
X68317745Y-85531861D01*
X67489605Y-86360000D01*
X67130395Y-86360000D01*
X66302255Y-85531861D01*
X66056136Y-85605995D01*
X65863035Y-86143223D01*
X64545463Y-86143223D01*
X65336431Y-85352255D01*
X66481861Y-85352255D01*
X67310000Y-86180395D01*
X68138139Y-85352255D01*
X68064005Y-85106136D01*
X67526777Y-84913035D01*
X66956546Y-84940222D01*
X66555995Y-85106136D01*
X66481861Y-85352255D01*
X65336431Y-85352255D01*
X66683686Y-84005000D01*
X73857000Y-84005000D01*
X73857000Y-94568186D01*
X73445270Y-94979199D01*
X73335000Y-95244758D01*
X73335000Y-94693690D01*
X73238327Y-94460301D01*
X73059698Y-94281673D01*
X72826309Y-94185000D01*
X71785750Y-94185000D01*
X71627000Y-94343750D01*
X71627000Y-95893000D01*
X71647000Y-95893000D01*
X71647000Y-96147000D01*
X71627000Y-96147000D01*
X71627000Y-97696250D01*
X71785750Y-97855000D01*
X72826309Y-97855000D01*
X73059698Y-97758327D01*
X73238327Y-97579699D01*
X73335000Y-97346310D01*
X73335000Y-96795605D01*
X73443455Y-97058086D01*
X73857000Y-97472353D01*
X73857000Y-99290000D01*
X56133531Y-99290000D01*
X56659259Y-98765189D01*
X57244333Y-97356175D01*
X57244813Y-96805750D01*
X60595000Y-96805750D01*
X60595000Y-97646309D01*
X60691673Y-97879698D01*
X60870301Y-98058327D01*
X61103690Y-98155000D01*
X61944250Y-98155000D01*
X62103000Y-97996250D01*
X62103000Y-96647000D01*
X62357000Y-96647000D01*
X62357000Y-97996250D01*
X62515750Y-98155000D01*
X63356310Y-98155000D01*
X63589699Y-98058327D01*
X63768327Y-97879698D01*
X63865000Y-97646309D01*
X63865000Y-96805750D01*
X63706250Y-96647000D01*
X62357000Y-96647000D01*
X62103000Y-96647000D01*
X60753750Y-96647000D01*
X60595000Y-96805750D01*
X57244813Y-96805750D01*
X57245664Y-95830518D01*
X57065171Y-95393691D01*
X60595000Y-95393691D01*
X60595000Y-96234250D01*
X60753750Y-96393000D01*
X62103000Y-96393000D01*
X62103000Y-95043750D01*
X62357000Y-95043750D01*
X62357000Y-96393000D01*
X63706250Y-96393000D01*
X63793500Y-96305750D01*
X69665000Y-96305750D01*
X69665000Y-97346310D01*
X69761673Y-97579699D01*
X69940302Y-97758327D01*
X70173691Y-97855000D01*
X71214250Y-97855000D01*
X71373000Y-97696250D01*
X71373000Y-96147000D01*
X69823750Y-96147000D01*
X69665000Y-96305750D01*
X63793500Y-96305750D01*
X63865000Y-96234250D01*
X63865000Y-95393691D01*
X63768327Y-95160302D01*
X63589699Y-94981673D01*
X63356310Y-94885000D01*
X62515750Y-94885000D01*
X62357000Y-95043750D01*
X62103000Y-95043750D01*
X61944250Y-94885000D01*
X61103690Y-94885000D01*
X60870301Y-94981673D01*
X60691673Y-95160302D01*
X60595000Y-95393691D01*
X57065171Y-95393691D01*
X56775937Y-94693690D01*
X69665000Y-94693690D01*
X69665000Y-95734250D01*
X69823750Y-95893000D01*
X71373000Y-95893000D01*
X71373000Y-94343750D01*
X71214250Y-94185000D01*
X70173691Y-94185000D01*
X69940302Y-94281673D01*
X69761673Y-94460301D01*
X69665000Y-94693690D01*
X56775937Y-94693690D01*
X56663050Y-94420485D01*
X55588238Y-93343795D01*
X60594716Y-93343795D01*
X60843106Y-93944943D01*
X61302637Y-94405278D01*
X61903352Y-94654716D01*
X62553795Y-94655284D01*
X63154943Y-94406894D01*
X63615278Y-93947363D01*
X63864716Y-93346648D01*
X63865284Y-92696205D01*
X63616894Y-92095057D01*
X63157363Y-91634722D01*
X62556648Y-91385284D01*
X61906205Y-91384716D01*
X61305057Y-91633106D01*
X60844722Y-92092637D01*
X60595284Y-92693352D01*
X60594716Y-93343795D01*
X55588238Y-93343795D01*
X55585189Y-93340741D01*
X54176175Y-92755667D01*
X52650518Y-92754336D01*
X51240485Y-93336950D01*
X50710000Y-93866510D01*
X50710000Y-77908452D01*
X55339686Y-77908452D01*
X55614662Y-78573943D01*
X56123379Y-79083549D01*
X56788389Y-79359685D01*
X57001185Y-79359871D01*
X57879869Y-80238555D01*
X57879686Y-80448452D01*
X58154662Y-81113943D01*
X58663379Y-81623549D01*
X59328389Y-81899685D01*
X60048452Y-81900314D01*
X60713943Y-81625338D01*
X61223549Y-81116621D01*
X61499685Y-80451611D01*
X61499871Y-80238815D01*
X62378555Y-79360131D01*
X62588452Y-79360314D01*
X63253943Y-79085338D01*
X63763549Y-78576621D01*
X64039685Y-77911611D01*
X64039922Y-77640000D01*
X65562560Y-77640000D01*
X65562560Y-79840000D01*
X65606838Y-80075317D01*
X65745910Y-80291441D01*
X65958110Y-80436431D01*
X66210000Y-80487440D01*
X68410000Y-80487440D01*
X68645317Y-80443162D01*
X68861441Y-80304090D01*
X69006431Y-80091890D01*
X69057440Y-79840000D01*
X69057440Y-79025750D01*
X69285000Y-79025750D01*
X69285000Y-80066310D01*
X69381673Y-80299699D01*
X69560302Y-80478327D01*
X69793691Y-80575000D01*
X70834250Y-80575000D01*
X70993000Y-80416250D01*
X70993000Y-78867000D01*
X71247000Y-78867000D01*
X71247000Y-80416250D01*
X71405750Y-80575000D01*
X72446309Y-80575000D01*
X72679698Y-80478327D01*
X72858327Y-80299699D01*
X72955000Y-80066310D01*
X72955000Y-79025750D01*
X72796250Y-78867000D01*
X71247000Y-78867000D01*
X70993000Y-78867000D01*
X69443750Y-78867000D01*
X69285000Y-79025750D01*
X69057440Y-79025750D01*
X69057440Y-77640000D01*
X69014857Y-77413690D01*
X69285000Y-77413690D01*
X69285000Y-78454250D01*
X69443750Y-78613000D01*
X70993000Y-78613000D01*
X70993000Y-77063750D01*
X71247000Y-77063750D01*
X71247000Y-78613000D01*
X72796250Y-78613000D01*
X72955000Y-78454250D01*
X72955000Y-77413690D01*
X72858327Y-77180301D01*
X72679698Y-77001673D01*
X72446309Y-76905000D01*
X71405750Y-76905000D01*
X71247000Y-77063750D01*
X70993000Y-77063750D01*
X70834250Y-76905000D01*
X69793691Y-76905000D01*
X69560302Y-77001673D01*
X69381673Y-77180301D01*
X69285000Y-77413690D01*
X69014857Y-77413690D01*
X69013162Y-77404683D01*
X68874090Y-77188559D01*
X68661890Y-77043569D01*
X68410000Y-76992560D01*
X66210000Y-76992560D01*
X65974683Y-77036838D01*
X65758559Y-77175910D01*
X65613569Y-77388110D01*
X65562560Y-77640000D01*
X64039922Y-77640000D01*
X64040314Y-77191548D01*
X63765338Y-76526057D01*
X63256621Y-76016451D01*
X62591611Y-75740315D01*
X62378815Y-75740129D01*
X61500131Y-74861445D01*
X61500314Y-74651548D01*
X61225338Y-73986057D01*
X60716621Y-73476451D01*
X60051611Y-73200315D01*
X59331548Y-73199686D01*
X58666057Y-73474662D01*
X58156451Y-73983379D01*
X57880315Y-74648389D01*
X57880129Y-74861185D01*
X57001445Y-75739869D01*
X56791548Y-75739686D01*
X56126057Y-76014662D01*
X55616451Y-76523379D01*
X55340315Y-77188389D01*
X55339686Y-77908452D01*
X50710000Y-77908452D01*
X50710000Y-66049101D01*
X58590504Y-66049101D01*
X58710583Y-66334118D01*
X59383698Y-66589864D01*
X60103445Y-66568552D01*
X60669417Y-66334118D01*
X60789496Y-66049101D01*
X59690000Y-64949605D01*
X58590504Y-66049101D01*
X50710000Y-66049101D01*
X50710000Y-63509101D01*
X56050504Y-63509101D01*
X56170583Y-63794118D01*
X56843698Y-64049864D01*
X57563445Y-64028552D01*
X58123628Y-63796516D01*
X57870136Y-64463698D01*
X57891448Y-65183445D01*
X58125882Y-65749417D01*
X58410899Y-65869496D01*
X59510395Y-64770000D01*
X59869605Y-64770000D01*
X60969101Y-65869496D01*
X61254118Y-65749417D01*
X61509864Y-65076302D01*
X61488552Y-64356555D01*
X61256516Y-63796372D01*
X61923698Y-64049864D01*
X62643445Y-64028552D01*
X63209417Y-63794118D01*
X63329496Y-63509101D01*
X62230000Y-62409605D01*
X61130504Y-63509101D01*
X61248009Y-63788009D01*
X60969101Y-63670504D01*
X59869605Y-64770000D01*
X59510395Y-64770000D01*
X58410899Y-63670504D01*
X58131991Y-63788009D01*
X58249496Y-63509101D01*
X57150000Y-62409605D01*
X56050504Y-63509101D01*
X50710000Y-63509101D01*
X50710000Y-61923698D01*
X55330136Y-61923698D01*
X55351448Y-62643445D01*
X55585882Y-63209417D01*
X55870899Y-63329496D01*
X56970395Y-62230000D01*
X57329605Y-62230000D01*
X58429101Y-63329496D01*
X58708009Y-63211991D01*
X58590504Y-63490899D01*
X59690000Y-64590395D01*
X60789496Y-63490899D01*
X60671991Y-63211991D01*
X60950899Y-63329496D01*
X62050395Y-62230000D01*
X62409605Y-62230000D01*
X63509101Y-63329496D01*
X63794118Y-63209417D01*
X64049864Y-62536302D01*
X64028552Y-61816555D01*
X63794118Y-61250583D01*
X63509101Y-61130504D01*
X62409605Y-62230000D01*
X62050395Y-62230000D01*
X60950899Y-61130504D01*
X60671991Y-61248009D01*
X60789496Y-60969101D01*
X59690000Y-59869605D01*
X58590504Y-60969101D01*
X58708009Y-61248009D01*
X58429101Y-61130504D01*
X57329605Y-62230000D01*
X56970395Y-62230000D01*
X55870899Y-61130504D01*
X55585882Y-61250583D01*
X55330136Y-61923698D01*
X50710000Y-61923698D01*
X50710000Y-60950899D01*
X56050504Y-60950899D01*
X57150000Y-62050395D01*
X58249496Y-60950899D01*
X58131991Y-60671991D01*
X58410899Y-60789496D01*
X59510395Y-59690000D01*
X59869605Y-59690000D01*
X60969101Y-60789496D01*
X61248009Y-60671991D01*
X61130504Y-60950899D01*
X62230000Y-62050395D01*
X63329496Y-60950899D01*
X63209417Y-60665882D01*
X62536302Y-60410136D01*
X61816555Y-60431448D01*
X61256372Y-60663484D01*
X61509864Y-59996302D01*
X61488552Y-59276555D01*
X61254118Y-58710583D01*
X60969101Y-58590504D01*
X59869605Y-59690000D01*
X59510395Y-59690000D01*
X58410899Y-58590504D01*
X58125882Y-58710583D01*
X57870136Y-59383698D01*
X57891448Y-60103445D01*
X58123484Y-60663628D01*
X57456302Y-60410136D01*
X56736555Y-60431448D01*
X56170583Y-60665882D01*
X56050504Y-60950899D01*
X50710000Y-60950899D01*
X50710000Y-58410899D01*
X58590504Y-58410899D01*
X59690000Y-59510395D01*
X60789496Y-58410899D01*
X60669417Y-58125882D01*
X59996302Y-57870136D01*
X59276555Y-57891448D01*
X58710583Y-58125882D01*
X58590504Y-58410899D01*
X50710000Y-58410899D01*
X50710000Y-56133531D01*
X51234811Y-56659259D01*
X52643825Y-57244333D01*
X54169482Y-57245664D01*
X55579515Y-56663050D01*
X56659259Y-55585189D01*
X57244333Y-54176175D01*
X57245664Y-52650518D01*
X56663050Y-51240485D01*
X56133490Y-50710000D01*
X69793000Y-50710000D01*
X69793000Y-55759000D01*
G36*
X93340741Y-51234811D02*
X92755667Y-52643825D01*
X92754336Y-54169482D01*
X93336950Y-55579515D01*
X94414811Y-56659259D01*
X95823825Y-57244333D01*
X97349482Y-57245664D01*
X98759515Y-56663050D01*
X99290000Y-56133490D01*
X99290000Y-93866469D01*
X98765189Y-93340741D01*
X97356175Y-92755667D01*
X95830518Y-92754336D01*
X94420485Y-93336950D01*
X93340741Y-94414811D01*
X92755667Y-95823825D01*
X92754336Y-97349482D01*
X93336950Y-98759515D01*
X93866510Y-99290000D01*
X76143000Y-99290000D01*
X76143000Y-97471814D01*
X76297908Y-97317175D01*
X77382430Y-97317175D01*
X77505565Y-97604788D01*
X78187734Y-97864707D01*
X78917443Y-97843786D01*
X79494435Y-97604788D01*
X79598151Y-97362532D01*
X86657073Y-97362532D01*
X86755736Y-97629387D01*
X87365461Y-97855908D01*
X88015460Y-97831856D01*
X88504264Y-97629387D01*
X88602927Y-97362532D01*
X87630000Y-96389605D01*
X86657073Y-97362532D01*
X79598151Y-97362532D01*
X79617570Y-97317175D01*
X78500000Y-96199605D01*
X77382430Y-97317175D01*
X76297908Y-97317175D01*
X76554730Y-97060801D01*
X76744808Y-96603043D01*
X76915212Y-97014435D01*
X77202825Y-97137570D01*
X78320395Y-96020000D01*
X78679605Y-96020000D01*
X79797175Y-97137570D01*
X80084788Y-97014435D01*
X80344707Y-96332266D01*
X80333618Y-95945461D01*
X85984092Y-95945461D01*
X86008144Y-96595460D01*
X86210613Y-97084264D01*
X86477468Y-97182927D01*
X87450395Y-96210000D01*
X87809605Y-96210000D01*
X88782532Y-97182927D01*
X89049387Y-97084264D01*
X89275908Y-96474539D01*
X89251856Y-95824540D01*
X89049387Y-95335736D01*
X88782532Y-95237073D01*
X87809605Y-96210000D01*
X87450395Y-96210000D01*
X86477468Y-95237073D01*
X86210613Y-95335736D01*
X85984092Y-95945461D01*
X80333618Y-95945461D01*
X80323786Y-95602557D01*
X80098003Y-95057468D01*
X86657073Y-95057468D01*
X87630000Y-96030395D01*
X88602927Y-95057468D01*
X88504264Y-94790613D01*
X87894539Y-94564092D01*
X87244540Y-94588144D01*
X86755736Y-94790613D01*
X86657073Y-95057468D01*
X80098003Y-95057468D01*
X80084788Y-95025565D01*
X79797175Y-94902430D01*
X78679605Y-96020000D01*
X78320395Y-96020000D01*
X77202825Y-94902430D01*
X76915212Y-95025565D01*
X76751796Y-95454458D01*
X76556545Y-94981914D01*
X76297908Y-94722825D01*
X77382430Y-94722825D01*
X78500000Y-95840395D01*
X79617570Y-94722825D01*
X79494435Y-94435212D01*
X78812266Y-94175293D01*
X78082557Y-94196214D01*
X77505565Y-94435212D01*
X77382430Y-94722825D01*
X76297908Y-94722825D01*
X76143000Y-94567647D01*
X76143000Y-91710000D01*
X85982560Y-91710000D01*
X85982560Y-93710000D01*
X86026838Y-93945317D01*
X86165910Y-94161441D01*
X86378110Y-94306431D01*
X86630000Y-94357440D01*
X88630000Y-94357440D01*
X88865317Y-94313162D01*
X89081441Y-94174090D01*
X89226431Y-93961890D01*
X89277440Y-93710000D01*
X89277440Y-91710000D01*
X89233162Y-91474683D01*
X89094090Y-91258559D01*
X88881890Y-91113569D01*
X88630000Y-91062560D01*
X86630000Y-91062560D01*
X86394683Y-91106838D01*
X86178559Y-91245910D01*
X86033569Y-91458110D01*
X85982560Y-91710000D01*
X76143000Y-91710000D01*
X76143000Y-86906167D01*
X76252757Y-87171800D01*
X76656077Y-87575824D01*
X77183309Y-87794750D01*
X77754187Y-87795248D01*
X78281800Y-87577243D01*
X78491663Y-87367745D01*
X81641861Y-87367745D01*
X81715995Y-87613864D01*
X82253223Y-87806965D01*
X82823454Y-87779778D01*
X83224005Y-87613864D01*
X83298139Y-87367745D01*
X82470000Y-86539605D01*
X81641861Y-87367745D01*
X78491663Y-87367745D01*
X78685824Y-87173923D01*
X78904750Y-86646691D01*
X78905189Y-86143223D01*
X81023035Y-86143223D01*
X81050222Y-86713454D01*
X81216136Y-87114005D01*
X81462255Y-87188139D01*
X82290395Y-86360000D01*
X82649605Y-86360000D01*
X83477745Y-87188139D01*
X83723864Y-87114005D01*
X83869424Y-86709039D01*
X84968096Y-86709039D01*
X85128959Y-87097423D01*
X85504866Y-87512389D01*
X86010959Y-87751914D01*
X86233000Y-87630629D01*
X86233000Y-86487000D01*
X86487000Y-86487000D01*
X86487000Y-87630629D01*
X86709041Y-87751914D01*
X87215134Y-87512389D01*
X87591041Y-87097423D01*
X87751904Y-86709039D01*
X87716275Y-86644187D01*
X92544752Y-86644187D01*
X92762757Y-87171800D01*
X93166077Y-87575824D01*
X93693309Y-87794750D01*
X94264187Y-87795248D01*
X94791800Y-87577243D01*
X95195824Y-87173923D01*
X95414750Y-86646691D01*
X95415248Y-86075813D01*
X95197243Y-85548200D01*
X94793923Y-85144176D01*
X94266691Y-84925250D01*
X93695813Y-84924752D01*
X93168200Y-85142757D01*
X92764176Y-85546077D01*
X92545250Y-86073309D01*
X92544752Y-86644187D01*
X87716275Y-86644187D01*
X87629915Y-86487000D01*
X86487000Y-86487000D01*
X86233000Y-86487000D01*
X85090085Y-86487000D01*
X84968096Y-86709039D01*
X83869424Y-86709039D01*
X83916965Y-86576777D01*
X83889989Y-86010961D01*
X84968096Y-86010961D01*
X85090085Y-86233000D01*
X86233000Y-86233000D01*
X86233000Y-85089371D01*
X86487000Y-85089371D01*
X86487000Y-86233000D01*
X87629915Y-86233000D01*
X87751904Y-86010961D01*
X87591041Y-85622577D01*
X87215134Y-85207611D01*
X86709041Y-84968086D01*
X86487000Y-85089371D01*
X86233000Y-85089371D01*
X86010959Y-84968086D01*
X85504866Y-85207611D01*
X85128959Y-85622577D01*
X84968096Y-86010961D01*
X83889989Y-86010961D01*
X83889778Y-86006546D01*
X83723864Y-85605995D01*
X83477745Y-85531861D01*
X82649605Y-86360000D01*
X82290395Y-86360000D01*
X81462255Y-85531861D01*
X81216136Y-85605995D01*
X81023035Y-86143223D01*
X78905189Y-86143223D01*
X78905248Y-86075813D01*
X78687243Y-85548200D01*
X78491640Y-85352255D01*
X81641861Y-85352255D01*
X82470000Y-86180395D01*
X83298139Y-85352255D01*
X83224005Y-85106136D01*
X82686777Y-84913035D01*
X82116546Y-84940222D01*
X81715995Y-85106136D01*
X81641861Y-85352255D01*
X78491640Y-85352255D01*
X78283923Y-85144176D01*
X77756691Y-84925250D01*
X77185813Y-84924752D01*
X76658200Y-85142757D01*
X76254176Y-85546077D01*
X76143000Y-85813818D01*
X76143000Y-80125000D01*
X79436314Y-80125000D01*
X82840657Y-83529343D01*
X83289984Y-83829574D01*
X83820000Y-83935000D01*
X85953498Y-83935000D01*
X86073309Y-83984750D01*
X86644187Y-83985248D01*
X87171800Y-83767243D01*
X87575824Y-83363923D01*
X87794750Y-82836691D01*
X87795000Y-82550000D01*
X92516887Y-82550000D01*
X92626120Y-83099151D01*
X92937189Y-83564698D01*
X93402736Y-83875767D01*
X93951887Y-83985000D01*
X94008113Y-83985000D01*
X94557264Y-83875767D01*
X95022811Y-83564698D01*
X95333880Y-83099151D01*
X95443113Y-82550000D01*
X95333880Y-82000849D01*
X95022811Y-81535302D01*
X94557264Y-81224233D01*
X94008113Y-81115000D01*
X93951887Y-81115000D01*
X93402736Y-81224233D01*
X92937189Y-81535302D01*
X92626120Y-82000849D01*
X92516887Y-82550000D01*
X87795000Y-82550000D01*
X87795248Y-82265813D01*
X87577243Y-81738200D01*
X87173923Y-81334176D01*
X86646691Y-81115250D01*
X86075813Y-81114752D01*
X85954203Y-81165000D01*
X84393686Y-81165000D01*
X82380491Y-79151805D01*
X84571805Y-79151805D01*
X84804358Y-79713258D01*
X85295224Y-80234492D01*
X85948193Y-80528203D01*
X86233000Y-80411858D01*
X86233000Y-78867000D01*
X86487000Y-78867000D01*
X86487000Y-80411858D01*
X86771807Y-80528203D01*
X87424776Y-80234492D01*
X87915642Y-79713258D01*
X88148195Y-79151805D01*
X88031432Y-78867000D01*
X86487000Y-78867000D01*
X86233000Y-78867000D01*
X84688568Y-78867000D01*
X84571805Y-79151805D01*
X82380491Y-79151805D01*
X81968686Y-78740000D01*
X82380491Y-78328195D01*
X84571805Y-78328195D01*
X84688568Y-78613000D01*
X86233000Y-78613000D01*
X86233000Y-77068142D01*
X86487000Y-77068142D01*
X86487000Y-78613000D01*
X88031432Y-78613000D01*
X88148195Y-78328195D01*
X87915642Y-77766742D01*
X87424776Y-77245508D01*
X86771807Y-76951797D01*
X86487000Y-77068142D01*
X86233000Y-77068142D01*
X85948193Y-76951797D01*
X85295224Y-77245508D01*
X84804358Y-77766742D01*
X84571805Y-78328195D01*
X82380491Y-78328195D01*
X85301246Y-75407440D01*
X86190000Y-75407440D01*
X86425317Y-75363162D01*
X86641441Y-75224090D01*
X86786431Y-75011890D01*
X86837440Y-74760000D01*
X86837440Y-73660000D01*
X93481009Y-73660000D01*
X93613078Y-74323956D01*
X93989179Y-74886830D01*
X94552053Y-75262931D01*
X95216009Y-75395000D01*
X95283991Y-75395000D01*
X95947947Y-75262931D01*
X96510821Y-74886830D01*
X96886922Y-74323956D01*
X97018991Y-73660000D01*
X96886922Y-72996044D01*
X96510821Y-72433170D01*
X95947947Y-72057069D01*
X95283991Y-71925000D01*
X95216009Y-71925000D01*
X94552053Y-72057069D01*
X93989179Y-72433170D01*
X93613078Y-72996044D01*
X93481009Y-73660000D01*
X86837440Y-73660000D01*
X86837440Y-73095000D01*
X89224000Y-73095000D01*
X89271789Y-73085666D01*
X89313803Y-73057803D01*
X92871248Y-69500358D01*
X93236077Y-69865824D01*
X93763309Y-70084750D01*
X94334187Y-70085248D01*
X94861800Y-69867243D01*
X95265824Y-69463923D01*
X95484750Y-68936691D01*
X95485248Y-68365813D01*
X95267243Y-67838200D01*
X94900644Y-67470962D01*
X94901803Y-67469803D01*
X94928994Y-67429410D01*
X94939000Y-67380000D01*
X94939000Y-62156800D01*
X95064698Y-62072811D01*
X95375767Y-61607264D01*
X95485000Y-61058113D01*
X95485000Y-61001887D01*
X95375767Y-60452736D01*
X95064698Y-59987189D01*
X94891606Y-59871533D01*
X94764178Y-59680822D01*
X93494178Y-58410822D01*
X93166510Y-58191882D01*
X92780000Y-58115000D01*
X84525000Y-58115000D01*
X84138490Y-58191882D01*
X83810822Y-58410822D01*
X82201644Y-60020000D01*
X76688356Y-60020000D01*
X76413728Y-59745372D01*
X76537440Y-59738664D01*
X76893831Y-59591042D01*
X76955669Y-59355275D01*
X76200000Y-58599605D01*
X76185858Y-58613748D01*
X76143000Y-58570890D01*
X76143000Y-58420000D01*
X76379605Y-58420000D01*
X77135275Y-59175669D01*
X77371042Y-59113831D01*
X77547419Y-58612878D01*
X77518664Y-58082560D01*
X77371042Y-57726169D01*
X77135275Y-57664331D01*
X76379605Y-58420000D01*
X76143000Y-58420000D01*
X76143000Y-58269110D01*
X76185858Y-58226253D01*
X76200000Y-58240395D01*
X76955669Y-57484725D01*
X76893831Y-57248958D01*
X76424605Y-57083751D01*
X79158356Y-54350000D01*
X82293258Y-54350000D01*
X82316838Y-54475317D01*
X82455910Y-54691441D01*
X82668110Y-54836431D01*
X82920000Y-54887440D01*
X84720000Y-54887440D01*
X84955317Y-54843162D01*
X85171441Y-54704090D01*
X85316431Y-54491890D01*
X85326766Y-54440854D01*
X85452424Y-54577966D01*
X85995258Y-54831046D01*
X86233000Y-54710997D01*
X86233000Y-53467000D01*
X86213000Y-53467000D01*
X86213000Y-53213000D01*
X86233000Y-53213000D01*
X86233000Y-51969003D01*
X86487000Y-51969003D01*
X86487000Y-53213000D01*
X86507000Y-53213000D01*
X86507000Y-53467000D01*
X86487000Y-53467000D01*
X86487000Y-54710997D01*
X86724742Y-54831046D01*
X87267576Y-54577966D01*
X87625499Y-54187418D01*
X87784519Y-54425409D01*
X88282509Y-54758155D01*
X88869928Y-54875000D01*
X88930072Y-54875000D01*
X89517491Y-54758155D01*
X90015481Y-54425409D01*
X90348227Y-53927419D01*
X90465072Y-53340000D01*
X90348227Y-52752581D01*
X90015481Y-52254591D01*
X89517491Y-51921845D01*
X88930072Y-51805000D01*
X88869928Y-51805000D01*
X88282509Y-51921845D01*
X87784519Y-52254591D01*
X87625499Y-52492582D01*
X87267576Y-52102034D01*
X86724742Y-51848954D01*
X86487000Y-51969003D01*
X86233000Y-51969003D01*
X85995258Y-51848954D01*
X85452424Y-52102034D01*
X85329156Y-52236538D01*
X85323162Y-52204683D01*
X85184090Y-51988559D01*
X84971890Y-51843569D01*
X84720000Y-51792560D01*
X82920000Y-51792560D01*
X82684683Y-51836838D01*
X82468559Y-51975910D01*
X82323569Y-52188110D01*
X82294836Y-52330000D01*
X78740000Y-52330000D01*
X78353490Y-52406882D01*
X78025822Y-52625822D01*
X76143000Y-54508644D01*
X76143000Y-50710000D01*
X93866469Y-50710000D01*
X93340741Y-51234811D01*
X93340741Y-51234811D01*
G37*
X93340741Y-51234811D02*
X92755667Y-52643825D01*
X92754336Y-54169482D01*
X93336950Y-55579515D01*
X94414811Y-56659259D01*
X95823825Y-57244333D01*
X97349482Y-57245664D01*
X98759515Y-56663050D01*
X99290000Y-56133490D01*
X99290000Y-93866469D01*
X98765189Y-93340741D01*
X97356175Y-92755667D01*
X95830518Y-92754336D01*
X94420485Y-93336950D01*
X93340741Y-94414811D01*
X92755667Y-95823825D01*
X92754336Y-97349482D01*
X93336950Y-98759515D01*
X93866510Y-99290000D01*
X76143000Y-99290000D01*
X76143000Y-97471814D01*
X76297908Y-97317175D01*
X77382430Y-97317175D01*
X77505565Y-97604788D01*
X78187734Y-97864707D01*
X78917443Y-97843786D01*
X79494435Y-97604788D01*
X79598151Y-97362532D01*
X86657073Y-97362532D01*
X86755736Y-97629387D01*
X87365461Y-97855908D01*
X88015460Y-97831856D01*
X88504264Y-97629387D01*
X88602927Y-97362532D01*
X87630000Y-96389605D01*
X86657073Y-97362532D01*
X79598151Y-97362532D01*
X79617570Y-97317175D01*
X78500000Y-96199605D01*
X77382430Y-97317175D01*
X76297908Y-97317175D01*
X76554730Y-97060801D01*
X76744808Y-96603043D01*
X76915212Y-97014435D01*
X77202825Y-97137570D01*
X78320395Y-96020000D01*
X78679605Y-96020000D01*
X79797175Y-97137570D01*
X80084788Y-97014435D01*
X80344707Y-96332266D01*
X80333618Y-95945461D01*
X85984092Y-95945461D01*
X86008144Y-96595460D01*
X86210613Y-97084264D01*
X86477468Y-97182927D01*
X87450395Y-96210000D01*
X87809605Y-96210000D01*
X88782532Y-97182927D01*
X89049387Y-97084264D01*
X89275908Y-96474539D01*
X89251856Y-95824540D01*
X89049387Y-95335736D01*
X88782532Y-95237073D01*
X87809605Y-96210000D01*
X87450395Y-96210000D01*
X86477468Y-95237073D01*
X86210613Y-95335736D01*
X85984092Y-95945461D01*
X80333618Y-95945461D01*
X80323786Y-95602557D01*
X80098003Y-95057468D01*
X86657073Y-95057468D01*
X87630000Y-96030395D01*
X88602927Y-95057468D01*
X88504264Y-94790613D01*
X87894539Y-94564092D01*
X87244540Y-94588144D01*
X86755736Y-94790613D01*
X86657073Y-95057468D01*
X80098003Y-95057468D01*
X80084788Y-95025565D01*
X79797175Y-94902430D01*
X78679605Y-96020000D01*
X78320395Y-96020000D01*
X77202825Y-94902430D01*
X76915212Y-95025565D01*
X76751796Y-95454458D01*
X76556545Y-94981914D01*
X76297908Y-94722825D01*
X77382430Y-94722825D01*
X78500000Y-95840395D01*
X79617570Y-94722825D01*
X79494435Y-94435212D01*
X78812266Y-94175293D01*
X78082557Y-94196214D01*
X77505565Y-94435212D01*
X77382430Y-94722825D01*
X76297908Y-94722825D01*
X76143000Y-94567647D01*
X76143000Y-91710000D01*
X85982560Y-91710000D01*
X85982560Y-93710000D01*
X86026838Y-93945317D01*
X86165910Y-94161441D01*
X86378110Y-94306431D01*
X86630000Y-94357440D01*
X88630000Y-94357440D01*
X88865317Y-94313162D01*
X89081441Y-94174090D01*
X89226431Y-93961890D01*
X89277440Y-93710000D01*
X89277440Y-91710000D01*
X89233162Y-91474683D01*
X89094090Y-91258559D01*
X88881890Y-91113569D01*
X88630000Y-91062560D01*
X86630000Y-91062560D01*
X86394683Y-91106838D01*
X86178559Y-91245910D01*
X86033569Y-91458110D01*
X85982560Y-91710000D01*
X76143000Y-91710000D01*
X76143000Y-86906167D01*
X76252757Y-87171800D01*
X76656077Y-87575824D01*
X77183309Y-87794750D01*
X77754187Y-87795248D01*
X78281800Y-87577243D01*
X78491663Y-87367745D01*
X81641861Y-87367745D01*
X81715995Y-87613864D01*
X82253223Y-87806965D01*
X82823454Y-87779778D01*
X83224005Y-87613864D01*
X83298139Y-87367745D01*
X82470000Y-86539605D01*
X81641861Y-87367745D01*
X78491663Y-87367745D01*
X78685824Y-87173923D01*
X78904750Y-86646691D01*
X78905189Y-86143223D01*
X81023035Y-86143223D01*
X81050222Y-86713454D01*
X81216136Y-87114005D01*
X81462255Y-87188139D01*
X82290395Y-86360000D01*
X82649605Y-86360000D01*
X83477745Y-87188139D01*
X83723864Y-87114005D01*
X83869424Y-86709039D01*
X84968096Y-86709039D01*
X85128959Y-87097423D01*
X85504866Y-87512389D01*
X86010959Y-87751914D01*
X86233000Y-87630629D01*
X86233000Y-86487000D01*
X86487000Y-86487000D01*
X86487000Y-87630629D01*
X86709041Y-87751914D01*
X87215134Y-87512389D01*
X87591041Y-87097423D01*
X87751904Y-86709039D01*
X87716275Y-86644187D01*
X92544752Y-86644187D01*
X92762757Y-87171800D01*
X93166077Y-87575824D01*
X93693309Y-87794750D01*
X94264187Y-87795248D01*
X94791800Y-87577243D01*
X95195824Y-87173923D01*
X95414750Y-86646691D01*
X95415248Y-86075813D01*
X95197243Y-85548200D01*
X94793923Y-85144176D01*
X94266691Y-84925250D01*
X93695813Y-84924752D01*
X93168200Y-85142757D01*
X92764176Y-85546077D01*
X92545250Y-86073309D01*
X92544752Y-86644187D01*
X87716275Y-86644187D01*
X87629915Y-86487000D01*
X86487000Y-86487000D01*
X86233000Y-86487000D01*
X85090085Y-86487000D01*
X84968096Y-86709039D01*
X83869424Y-86709039D01*
X83916965Y-86576777D01*
X83889989Y-86010961D01*
X84968096Y-86010961D01*
X85090085Y-86233000D01*
X86233000Y-86233000D01*
X86233000Y-85089371D01*
X86487000Y-85089371D01*
X86487000Y-86233000D01*
X87629915Y-86233000D01*
X87751904Y-86010961D01*
X87591041Y-85622577D01*
X87215134Y-85207611D01*
X86709041Y-84968086D01*
X86487000Y-85089371D01*
X86233000Y-85089371D01*
X86010959Y-84968086D01*
X85504866Y-85207611D01*
X85128959Y-85622577D01*
X84968096Y-86010961D01*
X83889989Y-86010961D01*
X83889778Y-86006546D01*
X83723864Y-85605995D01*
X83477745Y-85531861D01*
X82649605Y-86360000D01*
X82290395Y-86360000D01*
X81462255Y-85531861D01*
X81216136Y-85605995D01*
X81023035Y-86143223D01*
X78905189Y-86143223D01*
X78905248Y-86075813D01*
X78687243Y-85548200D01*
X78491640Y-85352255D01*
X81641861Y-85352255D01*
X82470000Y-86180395D01*
X83298139Y-85352255D01*
X83224005Y-85106136D01*
X82686777Y-84913035D01*
X82116546Y-84940222D01*
X81715995Y-85106136D01*
X81641861Y-85352255D01*
X78491640Y-85352255D01*
X78283923Y-85144176D01*
X77756691Y-84925250D01*
X77185813Y-84924752D01*
X76658200Y-85142757D01*
X76254176Y-85546077D01*
X76143000Y-85813818D01*
X76143000Y-80125000D01*
X79436314Y-80125000D01*
X82840657Y-83529343D01*
X83289984Y-83829574D01*
X83820000Y-83935000D01*
X85953498Y-83935000D01*
X86073309Y-83984750D01*
X86644187Y-83985248D01*
X87171800Y-83767243D01*
X87575824Y-83363923D01*
X87794750Y-82836691D01*
X87795000Y-82550000D01*
X92516887Y-82550000D01*
X92626120Y-83099151D01*
X92937189Y-83564698D01*
X93402736Y-83875767D01*
X93951887Y-83985000D01*
X94008113Y-83985000D01*
X94557264Y-83875767D01*
X95022811Y-83564698D01*
X95333880Y-83099151D01*
X95443113Y-82550000D01*
X95333880Y-82000849D01*
X95022811Y-81535302D01*
X94557264Y-81224233D01*
X94008113Y-81115000D01*
X93951887Y-81115000D01*
X93402736Y-81224233D01*
X92937189Y-81535302D01*
X92626120Y-82000849D01*
X92516887Y-82550000D01*
X87795000Y-82550000D01*
X87795248Y-82265813D01*
X87577243Y-81738200D01*
X87173923Y-81334176D01*
X86646691Y-81115250D01*
X86075813Y-81114752D01*
X85954203Y-81165000D01*
X84393686Y-81165000D01*
X82380491Y-79151805D01*
X84571805Y-79151805D01*
X84804358Y-79713258D01*
X85295224Y-80234492D01*
X85948193Y-80528203D01*
X86233000Y-80411858D01*
X86233000Y-78867000D01*
X86487000Y-78867000D01*
X86487000Y-80411858D01*
X86771807Y-80528203D01*
X87424776Y-80234492D01*
X87915642Y-79713258D01*
X88148195Y-79151805D01*
X88031432Y-78867000D01*
X86487000Y-78867000D01*
X86233000Y-78867000D01*
X84688568Y-78867000D01*
X84571805Y-79151805D01*
X82380491Y-79151805D01*
X81968686Y-78740000D01*
X82380491Y-78328195D01*
X84571805Y-78328195D01*
X84688568Y-78613000D01*
X86233000Y-78613000D01*
X86233000Y-77068142D01*
X86487000Y-77068142D01*
X86487000Y-78613000D01*
X88031432Y-78613000D01*
X88148195Y-78328195D01*
X87915642Y-77766742D01*
X87424776Y-77245508D01*
X86771807Y-76951797D01*
X86487000Y-77068142D01*
X86233000Y-77068142D01*
X85948193Y-76951797D01*
X85295224Y-77245508D01*
X84804358Y-77766742D01*
X84571805Y-78328195D01*
X82380491Y-78328195D01*
X85301246Y-75407440D01*
X86190000Y-75407440D01*
X86425317Y-75363162D01*
X86641441Y-75224090D01*
X86786431Y-75011890D01*
X86837440Y-74760000D01*
X86837440Y-73660000D01*
X93481009Y-73660000D01*
X93613078Y-74323956D01*
X93989179Y-74886830D01*
X94552053Y-75262931D01*
X95216009Y-75395000D01*
X95283991Y-75395000D01*
X95947947Y-75262931D01*
X96510821Y-74886830D01*
X96886922Y-74323956D01*
X97018991Y-73660000D01*
X96886922Y-72996044D01*
X96510821Y-72433170D01*
X95947947Y-72057069D01*
X95283991Y-71925000D01*
X95216009Y-71925000D01*
X94552053Y-72057069D01*
X93989179Y-72433170D01*
X93613078Y-72996044D01*
X93481009Y-73660000D01*
X86837440Y-73660000D01*
X86837440Y-73095000D01*
X89224000Y-73095000D01*
X89271789Y-73085666D01*
X89313803Y-73057803D01*
X92871248Y-69500358D01*
X93236077Y-69865824D01*
X93763309Y-70084750D01*
X94334187Y-70085248D01*
X94861800Y-69867243D01*
X95265824Y-69463923D01*
X95484750Y-68936691D01*
X95485248Y-68365813D01*
X95267243Y-67838200D01*
X94900644Y-67470962D01*
X94901803Y-67469803D01*
X94928994Y-67429410D01*
X94939000Y-67380000D01*
X94939000Y-62156800D01*
X95064698Y-62072811D01*
X95375767Y-61607264D01*
X95485000Y-61058113D01*
X95485000Y-61001887D01*
X95375767Y-60452736D01*
X95064698Y-59987189D01*
X94891606Y-59871533D01*
X94764178Y-59680822D01*
X93494178Y-58410822D01*
X93166510Y-58191882D01*
X92780000Y-58115000D01*
X84525000Y-58115000D01*
X84138490Y-58191882D01*
X83810822Y-58410822D01*
X82201644Y-60020000D01*
X76688356Y-60020000D01*
X76413728Y-59745372D01*
X76537440Y-59738664D01*
X76893831Y-59591042D01*
X76955669Y-59355275D01*
X76200000Y-58599605D01*
X76185858Y-58613748D01*
X76143000Y-58570890D01*
X76143000Y-58420000D01*
X76379605Y-58420000D01*
X77135275Y-59175669D01*
X77371042Y-59113831D01*
X77547419Y-58612878D01*
X77518664Y-58082560D01*
X77371042Y-57726169D01*
X77135275Y-57664331D01*
X76379605Y-58420000D01*
X76143000Y-58420000D01*
X76143000Y-58269110D01*
X76185858Y-58226253D01*
X76200000Y-58240395D01*
X76955669Y-57484725D01*
X76893831Y-57248958D01*
X76424605Y-57083751D01*
X79158356Y-54350000D01*
X82293258Y-54350000D01*
X82316838Y-54475317D01*
X82455910Y-54691441D01*
X82668110Y-54836431D01*
X82920000Y-54887440D01*
X84720000Y-54887440D01*
X84955317Y-54843162D01*
X85171441Y-54704090D01*
X85316431Y-54491890D01*
X85326766Y-54440854D01*
X85452424Y-54577966D01*
X85995258Y-54831046D01*
X86233000Y-54710997D01*
X86233000Y-53467000D01*
X86213000Y-53467000D01*
X86213000Y-53213000D01*
X86233000Y-53213000D01*
X86233000Y-51969003D01*
X86487000Y-51969003D01*
X86487000Y-53213000D01*
X86507000Y-53213000D01*
X86507000Y-53467000D01*
X86487000Y-53467000D01*
X86487000Y-54710997D01*
X86724742Y-54831046D01*
X87267576Y-54577966D01*
X87625499Y-54187418D01*
X87784519Y-54425409D01*
X88282509Y-54758155D01*
X88869928Y-54875000D01*
X88930072Y-54875000D01*
X89517491Y-54758155D01*
X90015481Y-54425409D01*
X90348227Y-53927419D01*
X90465072Y-53340000D01*
X90348227Y-52752581D01*
X90015481Y-52254591D01*
X89517491Y-51921845D01*
X88930072Y-51805000D01*
X88869928Y-51805000D01*
X88282509Y-51921845D01*
X87784519Y-52254591D01*
X87625499Y-52492582D01*
X87267576Y-52102034D01*
X86724742Y-51848954D01*
X86487000Y-51969003D01*
X86233000Y-51969003D01*
X85995258Y-51848954D01*
X85452424Y-52102034D01*
X85329156Y-52236538D01*
X85323162Y-52204683D01*
X85184090Y-51988559D01*
X84971890Y-51843569D01*
X84720000Y-51792560D01*
X82920000Y-51792560D01*
X82684683Y-51836838D01*
X82468559Y-51975910D01*
X82323569Y-52188110D01*
X82294836Y-52330000D01*
X78740000Y-52330000D01*
X78353490Y-52406882D01*
X78025822Y-52625822D01*
X76143000Y-54508644D01*
X76143000Y-50710000D01*
X93866469Y-50710000D01*
X93340741Y-51234811D01*
M02*
