G04 #@! TF.FileFunction,Soldermask,Top*
%FSLAX46Y46*%
G04 Gerber Fmt 4.6, Leading zero omitted, Abs format (unit mm)*
G04 Created by KiCad (PCBNEW 4.0.7-e2-6376~58~ubuntu16.04.1) date Sun Apr  8 20:27:37 2018*
%MOMM*%
%LPD*%
G01*
G04 APERTURE LIST*
%ADD10C,0.500000*%
%ADD11C,0.150000*%
%ADD12C,2.750000*%
%ADD13C,2.000000*%
%ADD14O,2.000000X2.000000*%
%ADD15C,2.800000*%
%ADD16R,2.800000X2.800000*%
%ADD17C,1.800000*%
%ADD18R,3.400000X2.400000*%
%ADD19O,3.400000X2.400000*%
%ADD20R,2.200000X2.200000*%
%ADD21O,2.200000X2.200000*%
%ADD22C,6.800000*%
%ADD23C,1.200000*%
%ADD24R,2.600000X2.600000*%
%ADD25O,2.600000X2.600000*%
%ADD26O,2.800000X2.800000*%
%ADD27C,1.840000*%
%ADD28R,2.400000X2.400000*%
%ADD29C,2.400000*%
G04 APERTURE END LIST*
D10*
D11*
X50000000Y-50000000D02*
X50000000Y-100000000D01*
X100000000Y-50000000D02*
X100000000Y-100000000D01*
X50000000Y-100000000D02*
X100000000Y-100000000D01*
X50000000Y-50000000D02*
X100000000Y-50000000D01*
D12*
X92780000Y-66030000D03*
X92780000Y-60950000D03*
X92780000Y-76270000D03*
X92780000Y-81350000D03*
X90240000Y-63490000D03*
X95320000Y-63490000D03*
X90240000Y-78810000D03*
X95320000Y-78810000D03*
D13*
X81985000Y-63570000D03*
D14*
X74365000Y-63570000D03*
D15*
X76750000Y-54745000D03*
D16*
X73250000Y-54745000D03*
D15*
X75000000Y-95255000D03*
D16*
X78500000Y-95255000D03*
D15*
X71500000Y-95255000D03*
D17*
X59760000Y-63570000D03*
X58490000Y-64840000D03*
X58490000Y-62300000D03*
D13*
X66745000Y-71190000D03*
D14*
X59125000Y-71190000D03*
D13*
X71190000Y-63570000D03*
D14*
X63570000Y-63570000D03*
D13*
X78175000Y-60395000D03*
D14*
X70555000Y-60395000D03*
D18*
X71190000Y-68650000D03*
D19*
X78810000Y-76270000D03*
X71190000Y-71190000D03*
X78810000Y-73730000D03*
X71190000Y-73730000D03*
X78810000Y-71190000D03*
X71190000Y-76270000D03*
X78810000Y-68650000D03*
D20*
X83890000Y-53410000D03*
D21*
X86430000Y-53410000D03*
X88970000Y-53410000D03*
D20*
X61030000Y-53410000D03*
D21*
X63570000Y-53410000D03*
X66110000Y-53410000D03*
D22*
X53410000Y-53410000D03*
D23*
X55810000Y-53410000D03*
X55107056Y-55107056D03*
X53410000Y-55810000D03*
X51712944Y-55107056D03*
X51010000Y-53410000D03*
X51712944Y-51712944D03*
X53410000Y-51010000D03*
X55107056Y-51712944D03*
D22*
X96590000Y-53410000D03*
D23*
X98990000Y-53410000D03*
X98287056Y-55107056D03*
X96590000Y-55810000D03*
X94892944Y-55107056D03*
X94190000Y-53410000D03*
X94892944Y-51712944D03*
X96590000Y-51010000D03*
X98287056Y-51712944D03*
D22*
X53410000Y-96590000D03*
D23*
X55810000Y-96590000D03*
X55107056Y-98287056D03*
X53410000Y-98990000D03*
X51712944Y-98287056D03*
X51010000Y-96590000D03*
X51712944Y-94892944D03*
X53410000Y-94190000D03*
X55107056Y-94892944D03*
D22*
X96590000Y-96590000D03*
D23*
X98990000Y-96590000D03*
X98287056Y-98287056D03*
X96590000Y-98990000D03*
X94892944Y-98287056D03*
X94190000Y-96590000D03*
X94892944Y-94892944D03*
X96590000Y-94190000D03*
X98287056Y-94892944D03*
D24*
X86430000Y-76270000D03*
D25*
X86430000Y-86430000D03*
D24*
X63570000Y-86430000D03*
D25*
X63570000Y-76270000D03*
D16*
X82620000Y-81350000D03*
D26*
X67380000Y-81350000D03*
D27*
X57220000Y-81350000D03*
X57220000Y-78810000D03*
X57220000Y-76270000D03*
D28*
X86430000Y-96590000D03*
D29*
X86430000Y-91590000D03*
D28*
X63570000Y-91510000D03*
D29*
X63570000Y-96510000D03*
D13*
X77540000Y-86430000D03*
X82540000Y-86430000D03*
X67380000Y-86430000D03*
X72380000Y-86430000D03*
M02*
