M48
; DRILL file {KiCad 6.0.11-2627ca5db0~126~ubuntu22.04.1} date Wed 26 Apr 2023 19:27:00
; FORMAT={-:-/ absolute / metric / decimal}
; #@! TF.CreationDate,2023-04-26T19:27:00+03:00
; #@! TF.GenerationSoftware,Kicad,Pcbnew,6.0.11-2627ca5db0~126~ubuntu22.04.1
; #@! TF.FileFunction,Plated,1,2,PTH
FMAT,2
METRIC
; #@! TA.AperFunction,Plated,PTH,ViaDrill
T1C0.400
; #@! TA.AperFunction,Plated,PTH,ComponentDrill
T2C0.800
; #@! TA.AperFunction,Plated,PTH,ComponentDrill
T3C1.000
; #@! TA.AperFunction,Plated,PTH,ComponentDrill
T4C1.016
; #@! TA.AperFunction,Plated,PTH,ComponentDrill
T5C3.200
%
G90
G05
T1
X54.61Y-41.275
X59.69Y-41.275
X59.69Y-43.18
X59.69Y-45.085
X65.405Y-64.135
X66.04Y-54.61
X73.152Y-69.85
T2
X58.46Y-31.75
X58.46Y-69.85
X63.46Y-31.75
X63.46Y-69.85
X75.565Y-47.03
X75.565Y-52.03
X95.25Y-34.33
X95.25Y-39.33
X95.25Y-44.49
X95.25Y-49.49
X95.25Y-55.285
X95.25Y-60.285
X95.25Y-65.445
X95.25Y-70.445
X99.06Y-36.87
X99.06Y-41.87
X99.06Y-48.26
X99.06Y-55.285
X99.06Y-60.285
X99.06Y-65.445
X99.06Y-70.445
X104.06Y-48.26
T3
X45.72Y-38.885
X45.72Y-61.745
X45.73Y-69.85
X48.26Y-38.885
X48.26Y-61.745
X48.27Y-69.85
X50.8Y-38.885
X50.8Y-61.745
X50.81Y-69.85
X53.34Y-38.885
X53.34Y-61.745
X53.35Y-69.85
X55.88Y-38.885
X55.88Y-61.745
X58.42Y-38.885
X58.42Y-61.745
X60.96Y-38.885
X60.96Y-61.745
X63.5Y-38.885
X63.5Y-61.745
X80.02Y-67.315
X80.02Y-69.855
X82.56Y-67.315
X82.56Y-69.855
X85.1Y-67.315
X85.1Y-69.855
X87.64Y-67.315
X87.64Y-69.855
X107.95Y-34.29
X107.95Y-36.83
X107.95Y-39.37
X107.95Y-41.91
X107.95Y-44.45
X107.95Y-46.99
X107.95Y-54.76
X107.95Y-57.3
X107.95Y-59.84
X107.95Y-62.38
X107.95Y-64.92
X107.95Y-67.46
T4
X80.01Y-39.37
X80.01Y-41.91
X80.01Y-44.45
X80.01Y-46.99
X80.01Y-49.53
X80.01Y-52.07
X80.01Y-54.61
X80.01Y-57.15
X80.01Y-59.69
X80.01Y-62.23
X91.44Y-39.37
X91.44Y-41.91
X91.44Y-44.45
X91.44Y-46.99
X91.44Y-49.53
X91.44Y-52.07
X91.44Y-54.61
X91.44Y-57.15
X91.44Y-59.69
X91.44Y-62.23
T5
X38.7Y-30.8
X38.7Y-70.8
X113.7Y-30.8
X113.7Y-70.8
T0
M30
