%TF.GenerationSoftware,KiCad,Pcbnew,6.0.11-2627ca5db0~126~ubuntu22.04.1*%
%TF.CreationDate,2023-04-26T19:27:01+03:00*%
%TF.ProjectId,layzspa-wifi-remote,6c61797a-7370-4612-9d77-6966692d7265,rev?*%
%TF.SameCoordinates,Original*%
%TF.FileFunction,Drillmap*%
%TF.FilePolarity,Positive*%
%FSLAX45Y45*%
G04 Gerber Fmt 4.5, Leading zero omitted, Abs format (unit mm)*
G04 Created by KiCad (PCBNEW 6.0.11-2627ca5db0~126~ubuntu22.04.1) date 2023-04-26 19:27:01*
%MOMM*%
%LPD*%
G01*
G04 APERTURE LIST*
%ADD10C,0.100000*%
%ADD11C,0.200000*%
%ADD12C,0.040000*%
%ADD13C,0.080000*%
%ADD14C,0.101600*%
%ADD15C,0.320000*%
G04 APERTURE END LIST*
D10*
X3570000Y-2780000D02*
X11670000Y-2780000D01*
X11670000Y-2780000D02*
X11670000Y-7380000D01*
X11670000Y-7380000D02*
X3570000Y-7380000D01*
X3570000Y-7380000D02*
X3570000Y-2780000D01*
D11*
D12*
X5441000Y-4107500D02*
X5481000Y-4147500D01*
X5481000Y-4107500D02*
X5441000Y-4147500D01*
X5949000Y-4107500D02*
X5989000Y-4147500D01*
X5989000Y-4107500D02*
X5949000Y-4147500D01*
X5949000Y-4298000D02*
X5989000Y-4338000D01*
X5989000Y-4298000D02*
X5949000Y-4338000D01*
X5949000Y-4488500D02*
X5989000Y-4528500D01*
X5989000Y-4488500D02*
X5949000Y-4528500D01*
X6520500Y-6393500D02*
X6560500Y-6433500D01*
X6560500Y-6393500D02*
X6520500Y-6433500D01*
X6584000Y-5441000D02*
X6624000Y-5481000D01*
X6624000Y-5441000D02*
X6584000Y-5481000D01*
X7295200Y-6965000D02*
X7335200Y-7005000D01*
X7335200Y-6965000D02*
X7295200Y-7005000D01*
D13*
X5886000Y-3175000D02*
G75*
G03*
X5886000Y-3175000I-40000J0D01*
G01*
X5886000Y-6985000D02*
G75*
G03*
X5886000Y-6985000I-40000J0D01*
G01*
X6386000Y-3175000D02*
G75*
G03*
X6386000Y-3175000I-40000J0D01*
G01*
X6386000Y-6985000D02*
G75*
G03*
X6386000Y-6985000I-40000J0D01*
G01*
X7596500Y-4703000D02*
G75*
G03*
X7596500Y-4703000I-40000J0D01*
G01*
X7596500Y-5203000D02*
G75*
G03*
X7596500Y-5203000I-40000J0D01*
G01*
X9565000Y-3433000D02*
G75*
G03*
X9565000Y-3433000I-40000J0D01*
G01*
X9565000Y-3933000D02*
G75*
G03*
X9565000Y-3933000I-40000J0D01*
G01*
X9565000Y-4449000D02*
G75*
G03*
X9565000Y-4449000I-40000J0D01*
G01*
X9565000Y-4949000D02*
G75*
G03*
X9565000Y-4949000I-40000J0D01*
G01*
X9565000Y-5528500D02*
G75*
G03*
X9565000Y-5528500I-40000J0D01*
G01*
X9565000Y-6028500D02*
G75*
G03*
X9565000Y-6028500I-40000J0D01*
G01*
X9565000Y-6544500D02*
G75*
G03*
X9565000Y-6544500I-40000J0D01*
G01*
X9565000Y-7044500D02*
G75*
G03*
X9565000Y-7044500I-40000J0D01*
G01*
X9946000Y-3687000D02*
G75*
G03*
X9946000Y-3687000I-40000J0D01*
G01*
X9946000Y-4187000D02*
G75*
G03*
X9946000Y-4187000I-40000J0D01*
G01*
X9946000Y-4826000D02*
G75*
G03*
X9946000Y-4826000I-40000J0D01*
G01*
X9946000Y-5528500D02*
G75*
G03*
X9946000Y-5528500I-40000J0D01*
G01*
X9946000Y-6028500D02*
G75*
G03*
X9946000Y-6028500I-40000J0D01*
G01*
X9946000Y-6544500D02*
G75*
G03*
X9946000Y-6544500I-40000J0D01*
G01*
X9946000Y-7044500D02*
G75*
G03*
X9946000Y-7044500I-40000J0D01*
G01*
X10446000Y-4826000D02*
G75*
G03*
X10446000Y-4826000I-40000J0D01*
G01*
D10*
X4572000Y-3838500D02*
X4572000Y-3938500D01*
X4522000Y-3888500D02*
X4622000Y-3888500D01*
X4572000Y-6124500D02*
X4572000Y-6224500D01*
X4522000Y-6174500D02*
X4622000Y-6174500D01*
X4573000Y-6935000D02*
X4573000Y-7035000D01*
X4523000Y-6985000D02*
X4623000Y-6985000D01*
X4826000Y-3838500D02*
X4826000Y-3938500D01*
X4776000Y-3888500D02*
X4876000Y-3888500D01*
X4826000Y-6124500D02*
X4826000Y-6224500D01*
X4776000Y-6174500D02*
X4876000Y-6174500D01*
X4827000Y-6935000D02*
X4827000Y-7035000D01*
X4777000Y-6985000D02*
X4877000Y-6985000D01*
X5080000Y-3838500D02*
X5080000Y-3938500D01*
X5030000Y-3888500D02*
X5130000Y-3888500D01*
X5080000Y-6124500D02*
X5080000Y-6224500D01*
X5030000Y-6174500D02*
X5130000Y-6174500D01*
X5081000Y-6935000D02*
X5081000Y-7035000D01*
X5031000Y-6985000D02*
X5131000Y-6985000D01*
X5334000Y-3838500D02*
X5334000Y-3938500D01*
X5284000Y-3888500D02*
X5384000Y-3888500D01*
X5334000Y-6124500D02*
X5334000Y-6224500D01*
X5284000Y-6174500D02*
X5384000Y-6174500D01*
X5335000Y-6935000D02*
X5335000Y-7035000D01*
X5285000Y-6985000D02*
X5385000Y-6985000D01*
X5588000Y-3838500D02*
X5588000Y-3938500D01*
X5538000Y-3888500D02*
X5638000Y-3888500D01*
X5588000Y-6124500D02*
X5588000Y-6224500D01*
X5538000Y-6174500D02*
X5638000Y-6174500D01*
X5842000Y-3838500D02*
X5842000Y-3938500D01*
X5792000Y-3888500D02*
X5892000Y-3888500D01*
X5842000Y-6124500D02*
X5842000Y-6224500D01*
X5792000Y-6174500D02*
X5892000Y-6174500D01*
X6096000Y-3838500D02*
X6096000Y-3938500D01*
X6046000Y-3888500D02*
X6146000Y-3888500D01*
X6096000Y-6124500D02*
X6096000Y-6224500D01*
X6046000Y-6174500D02*
X6146000Y-6174500D01*
X6350000Y-3838500D02*
X6350000Y-3938500D01*
X6300000Y-3888500D02*
X6400000Y-3888500D01*
X6350000Y-6124500D02*
X6350000Y-6224500D01*
X6300000Y-6174500D02*
X6400000Y-6174500D01*
X8002000Y-6681500D02*
X8002000Y-6781500D01*
X7952000Y-6731500D02*
X8052000Y-6731500D01*
X8002000Y-6935500D02*
X8002000Y-7035500D01*
X7952000Y-6985500D02*
X8052000Y-6985500D01*
X8256000Y-6681500D02*
X8256000Y-6781500D01*
X8206000Y-6731500D02*
X8306000Y-6731500D01*
X8256000Y-6935500D02*
X8256000Y-7035500D01*
X8206000Y-6985500D02*
X8306000Y-6985500D01*
X8510000Y-6681500D02*
X8510000Y-6781500D01*
X8460000Y-6731500D02*
X8560000Y-6731500D01*
X8510000Y-6935500D02*
X8510000Y-7035500D01*
X8460000Y-6985500D02*
X8560000Y-6985500D01*
X8764000Y-6681500D02*
X8764000Y-6781500D01*
X8714000Y-6731500D02*
X8814000Y-6731500D01*
X8764000Y-6935500D02*
X8764000Y-7035500D01*
X8714000Y-6985500D02*
X8814000Y-6985500D01*
X10795000Y-3379000D02*
X10795000Y-3479000D01*
X10745000Y-3429000D02*
X10845000Y-3429000D01*
X10795000Y-3633000D02*
X10795000Y-3733000D01*
X10745000Y-3683000D02*
X10845000Y-3683000D01*
X10795000Y-3887000D02*
X10795000Y-3987000D01*
X10745000Y-3937000D02*
X10845000Y-3937000D01*
X10795000Y-4141000D02*
X10795000Y-4241000D01*
X10745000Y-4191000D02*
X10845000Y-4191000D01*
X10795000Y-4395000D02*
X10795000Y-4495000D01*
X10745000Y-4445000D02*
X10845000Y-4445000D01*
X10795000Y-4649000D02*
X10795000Y-4749000D01*
X10745000Y-4699000D02*
X10845000Y-4699000D01*
X10795000Y-5426000D02*
X10795000Y-5526000D01*
X10745000Y-5476000D02*
X10845000Y-5476000D01*
X10795000Y-5680000D02*
X10795000Y-5780000D01*
X10745000Y-5730000D02*
X10845000Y-5730000D01*
X10795000Y-5934000D02*
X10795000Y-6034000D01*
X10745000Y-5984000D02*
X10845000Y-5984000D01*
X10795000Y-6188000D02*
X10795000Y-6288000D01*
X10745000Y-6238000D02*
X10845000Y-6238000D01*
X10795000Y-6442000D02*
X10795000Y-6542000D01*
X10745000Y-6492000D02*
X10845000Y-6492000D01*
X10795000Y-6696000D02*
X10795000Y-6796000D01*
X10745000Y-6746000D02*
X10845000Y-6746000D01*
D14*
X8036921Y-3972921D02*
X8036921Y-3901079D01*
X7965079Y-3901079D01*
X7965079Y-3972921D01*
X8036921Y-3972921D01*
X8036921Y-4226921D02*
X8036921Y-4155079D01*
X7965079Y-4155079D01*
X7965079Y-4226921D01*
X8036921Y-4226921D01*
X8036921Y-4480921D02*
X8036921Y-4409079D01*
X7965079Y-4409079D01*
X7965079Y-4480921D01*
X8036921Y-4480921D01*
X8036921Y-4734921D02*
X8036921Y-4663079D01*
X7965079Y-4663079D01*
X7965079Y-4734921D01*
X8036921Y-4734921D01*
X8036921Y-4988921D02*
X8036921Y-4917079D01*
X7965079Y-4917079D01*
X7965079Y-4988921D01*
X8036921Y-4988921D01*
X8036921Y-5242921D02*
X8036921Y-5171079D01*
X7965079Y-5171079D01*
X7965079Y-5242921D01*
X8036921Y-5242921D01*
X8036921Y-5496921D02*
X8036921Y-5425079D01*
X7965079Y-5425079D01*
X7965079Y-5496921D01*
X8036921Y-5496921D01*
X8036921Y-5750921D02*
X8036921Y-5679079D01*
X7965079Y-5679079D01*
X7965079Y-5750921D01*
X8036921Y-5750921D01*
X8036921Y-6004921D02*
X8036921Y-5933079D01*
X7965079Y-5933079D01*
X7965079Y-6004921D01*
X8036921Y-6004921D01*
X8036921Y-6258921D02*
X8036921Y-6187079D01*
X7965079Y-6187079D01*
X7965079Y-6258921D01*
X8036921Y-6258921D01*
X9179921Y-3972921D02*
X9179921Y-3901079D01*
X9108079Y-3901079D01*
X9108079Y-3972921D01*
X9179921Y-3972921D01*
X9179921Y-4226921D02*
X9179921Y-4155079D01*
X9108079Y-4155079D01*
X9108079Y-4226921D01*
X9179921Y-4226921D01*
X9179921Y-4480921D02*
X9179921Y-4409079D01*
X9108079Y-4409079D01*
X9108079Y-4480921D01*
X9179921Y-4480921D01*
X9179921Y-4734921D02*
X9179921Y-4663079D01*
X9108079Y-4663079D01*
X9108079Y-4734921D01*
X9179921Y-4734921D01*
X9179921Y-4988921D02*
X9179921Y-4917079D01*
X9108079Y-4917079D01*
X9108079Y-4988921D01*
X9179921Y-4988921D01*
X9179921Y-5242921D02*
X9179921Y-5171079D01*
X9108079Y-5171079D01*
X9108079Y-5242921D01*
X9179921Y-5242921D01*
X9179921Y-5496921D02*
X9179921Y-5425079D01*
X9108079Y-5425079D01*
X9108079Y-5496921D01*
X9179921Y-5496921D01*
X9179921Y-5750921D02*
X9179921Y-5679079D01*
X9108079Y-5679079D01*
X9108079Y-5750921D01*
X9179921Y-5750921D01*
X9179921Y-6004921D02*
X9179921Y-5933079D01*
X9108079Y-5933079D01*
X9108079Y-6004921D01*
X9179921Y-6004921D01*
X9179921Y-6258921D02*
X9179921Y-6187079D01*
X9108079Y-6187079D01*
X9108079Y-6258921D01*
X9179921Y-6258921D01*
D15*
X3870000Y-3240000D02*
X4030000Y-3080000D01*
X3870000Y-2920000D01*
X3710000Y-3080000D01*
X3870000Y-3240000D01*
X3870000Y-7240000D02*
X4030000Y-7080000D01*
X3870000Y-6920000D01*
X3710000Y-7080000D01*
X3870000Y-7240000D01*
X11370000Y-3240000D02*
X11530000Y-3080000D01*
X11370000Y-2920000D01*
X11210000Y-3080000D01*
X11370000Y-3240000D01*
X11370000Y-7240000D02*
X11530000Y-7080000D01*
X11370000Y-6920000D01*
X11210000Y-7080000D01*
X11370000Y-7240000D01*
D11*
X3822619Y-7695476D02*
X3822619Y-7495476D01*
X3870238Y-7495476D01*
X3898809Y-7505000D01*
X3917857Y-7524048D01*
X3927381Y-7543095D01*
X3936905Y-7581190D01*
X3936905Y-7609762D01*
X3927381Y-7647857D01*
X3917857Y-7666905D01*
X3898809Y-7685952D01*
X3870238Y-7695476D01*
X3822619Y-7695476D01*
X4022619Y-7695476D02*
X4022619Y-7562143D01*
X4022619Y-7600238D02*
X4032143Y-7581190D01*
X4041667Y-7571667D01*
X4060714Y-7562143D01*
X4079762Y-7562143D01*
X4146428Y-7695476D02*
X4146428Y-7562143D01*
X4146428Y-7495476D02*
X4136905Y-7505000D01*
X4146428Y-7514524D01*
X4155952Y-7505000D01*
X4146428Y-7495476D01*
X4146428Y-7514524D01*
X4270238Y-7695476D02*
X4251190Y-7685952D01*
X4241667Y-7666905D01*
X4241667Y-7495476D01*
X4375000Y-7695476D02*
X4355952Y-7685952D01*
X4346429Y-7666905D01*
X4346429Y-7495476D01*
X4603571Y-7695476D02*
X4603571Y-7495476D01*
X4670238Y-7638333D01*
X4736905Y-7495476D01*
X4736905Y-7695476D01*
X4917857Y-7695476D02*
X4917857Y-7590714D01*
X4908333Y-7571667D01*
X4889286Y-7562143D01*
X4851190Y-7562143D01*
X4832143Y-7571667D01*
X4917857Y-7685952D02*
X4898810Y-7695476D01*
X4851190Y-7695476D01*
X4832143Y-7685952D01*
X4822619Y-7666905D01*
X4822619Y-7647857D01*
X4832143Y-7628809D01*
X4851190Y-7619286D01*
X4898810Y-7619286D01*
X4917857Y-7609762D01*
X5013095Y-7562143D02*
X5013095Y-7762143D01*
X5013095Y-7571667D02*
X5032143Y-7562143D01*
X5070238Y-7562143D01*
X5089286Y-7571667D01*
X5098810Y-7581190D01*
X5108333Y-7600238D01*
X5108333Y-7657381D01*
X5098810Y-7676428D01*
X5089286Y-7685952D01*
X5070238Y-7695476D01*
X5032143Y-7695476D01*
X5013095Y-7685952D01*
X5194048Y-7676428D02*
X5203571Y-7685952D01*
X5194048Y-7695476D01*
X5184524Y-7685952D01*
X5194048Y-7676428D01*
X5194048Y-7695476D01*
X5194048Y-7571667D02*
X5203571Y-7581190D01*
X5194048Y-7590714D01*
X5184524Y-7581190D01*
X5194048Y-7571667D01*
X5194048Y-7590714D01*
D12*
X3525000Y-8005000D02*
X3565000Y-8045000D01*
X3565000Y-8005000D02*
X3525000Y-8045000D01*
D11*
X3860714Y-7915476D02*
X3879762Y-7915476D01*
X3898809Y-7925000D01*
X3908333Y-7934524D01*
X3917857Y-7953571D01*
X3927381Y-7991667D01*
X3927381Y-8039286D01*
X3917857Y-8077381D01*
X3908333Y-8096428D01*
X3898809Y-8105952D01*
X3879762Y-8115476D01*
X3860714Y-8115476D01*
X3841667Y-8105952D01*
X3832143Y-8096428D01*
X3822619Y-8077381D01*
X3813095Y-8039286D01*
X3813095Y-7991667D01*
X3822619Y-7953571D01*
X3832143Y-7934524D01*
X3841667Y-7925000D01*
X3860714Y-7915476D01*
X4013095Y-8096428D02*
X4022619Y-8105952D01*
X4013095Y-8115476D01*
X4003571Y-8105952D01*
X4013095Y-8096428D01*
X4013095Y-8115476D01*
X4194048Y-7982143D02*
X4194048Y-8115476D01*
X4146428Y-7905952D02*
X4098809Y-8048809D01*
X4222619Y-8048809D01*
X4336905Y-7915476D02*
X4355952Y-7915476D01*
X4375000Y-7925000D01*
X4384524Y-7934524D01*
X4394048Y-7953571D01*
X4403571Y-7991667D01*
X4403571Y-8039286D01*
X4394048Y-8077381D01*
X4384524Y-8096428D01*
X4375000Y-8105952D01*
X4355952Y-8115476D01*
X4336905Y-8115476D01*
X4317857Y-8105952D01*
X4308333Y-8096428D01*
X4298810Y-8077381D01*
X4289286Y-8039286D01*
X4289286Y-7991667D01*
X4298810Y-7953571D01*
X4308333Y-7934524D01*
X4317857Y-7925000D01*
X4336905Y-7915476D01*
X4527381Y-7915476D02*
X4546429Y-7915476D01*
X4565476Y-7925000D01*
X4575000Y-7934524D01*
X4584524Y-7953571D01*
X4594048Y-7991667D01*
X4594048Y-8039286D01*
X4584524Y-8077381D01*
X4575000Y-8096428D01*
X4565476Y-8105952D01*
X4546429Y-8115476D01*
X4527381Y-8115476D01*
X4508333Y-8105952D01*
X4498810Y-8096428D01*
X4489286Y-8077381D01*
X4479762Y-8039286D01*
X4479762Y-7991667D01*
X4489286Y-7953571D01*
X4498810Y-7934524D01*
X4508333Y-7925000D01*
X4527381Y-7915476D01*
X4679762Y-8115476D02*
X4679762Y-7982143D01*
X4679762Y-8001190D02*
X4689286Y-7991667D01*
X4708333Y-7982143D01*
X4736905Y-7982143D01*
X4755952Y-7991667D01*
X4765476Y-8010714D01*
X4765476Y-8115476D01*
X4765476Y-8010714D02*
X4775000Y-7991667D01*
X4794048Y-7982143D01*
X4822619Y-7982143D01*
X4841667Y-7991667D01*
X4851190Y-8010714D01*
X4851190Y-8115476D01*
X4946429Y-8115476D02*
X4946429Y-7982143D01*
X4946429Y-8001190D02*
X4955952Y-7991667D01*
X4975000Y-7982143D01*
X5003571Y-7982143D01*
X5022619Y-7991667D01*
X5032143Y-8010714D01*
X5032143Y-8115476D01*
X5032143Y-8010714D02*
X5041667Y-7991667D01*
X5060714Y-7982143D01*
X5089286Y-7982143D01*
X5108333Y-7991667D01*
X5117857Y-8010714D01*
X5117857Y-8115476D01*
X5508333Y-7905952D02*
X5336905Y-8163095D01*
X5765476Y-7915476D02*
X5784524Y-7915476D01*
X5803571Y-7925000D01*
X5813095Y-7934524D01*
X5822619Y-7953571D01*
X5832143Y-7991667D01*
X5832143Y-8039286D01*
X5822619Y-8077381D01*
X5813095Y-8096428D01*
X5803571Y-8105952D01*
X5784524Y-8115476D01*
X5765476Y-8115476D01*
X5746428Y-8105952D01*
X5736905Y-8096428D01*
X5727381Y-8077381D01*
X5717857Y-8039286D01*
X5717857Y-7991667D01*
X5727381Y-7953571D01*
X5736905Y-7934524D01*
X5746428Y-7925000D01*
X5765476Y-7915476D01*
X5917857Y-8096428D02*
X5927381Y-8105952D01*
X5917857Y-8115476D01*
X5908333Y-8105952D01*
X5917857Y-8096428D01*
X5917857Y-8115476D01*
X6051190Y-7915476D02*
X6070238Y-7915476D01*
X6089286Y-7925000D01*
X6098809Y-7934524D01*
X6108333Y-7953571D01*
X6117857Y-7991667D01*
X6117857Y-8039286D01*
X6108333Y-8077381D01*
X6098809Y-8096428D01*
X6089286Y-8105952D01*
X6070238Y-8115476D01*
X6051190Y-8115476D01*
X6032143Y-8105952D01*
X6022619Y-8096428D01*
X6013095Y-8077381D01*
X6003571Y-8039286D01*
X6003571Y-7991667D01*
X6013095Y-7953571D01*
X6022619Y-7934524D01*
X6032143Y-7925000D01*
X6051190Y-7915476D01*
X6308333Y-8115476D02*
X6194048Y-8115476D01*
X6251190Y-8115476D02*
X6251190Y-7915476D01*
X6232143Y-7944048D01*
X6213095Y-7963095D01*
X6194048Y-7972619D01*
X6489286Y-7915476D02*
X6394048Y-7915476D01*
X6384524Y-8010714D01*
X6394048Y-8001190D01*
X6413095Y-7991667D01*
X6460714Y-7991667D01*
X6479762Y-8001190D01*
X6489286Y-8010714D01*
X6498809Y-8029762D01*
X6498809Y-8077381D01*
X6489286Y-8096428D01*
X6479762Y-8105952D01*
X6460714Y-8115476D01*
X6413095Y-8115476D01*
X6394048Y-8105952D01*
X6384524Y-8096428D01*
X6565476Y-7915476D02*
X6698809Y-7915476D01*
X6613095Y-8115476D01*
X6765476Y-7915476D02*
X6765476Y-7953571D01*
X6841667Y-7915476D02*
X6841667Y-7953571D01*
X7136905Y-8191667D02*
X7127381Y-8182143D01*
X7108333Y-8153571D01*
X7098809Y-8134524D01*
X7089286Y-8105952D01*
X7079762Y-8058333D01*
X7079762Y-8020238D01*
X7089286Y-7972619D01*
X7098809Y-7944048D01*
X7108333Y-7925000D01*
X7127381Y-7896428D01*
X7136905Y-7886905D01*
X7194048Y-7915476D02*
X7327381Y-7915476D01*
X7241667Y-8115476D01*
X7555952Y-8115476D02*
X7555952Y-7915476D01*
X7641667Y-8115476D02*
X7641667Y-8010714D01*
X7632143Y-7991667D01*
X7613095Y-7982143D01*
X7584524Y-7982143D01*
X7565476Y-7991667D01*
X7555952Y-8001190D01*
X7765476Y-8115476D02*
X7746428Y-8105952D01*
X7736905Y-8096428D01*
X7727381Y-8077381D01*
X7727381Y-8020238D01*
X7736905Y-8001190D01*
X7746428Y-7991667D01*
X7765476Y-7982143D01*
X7794048Y-7982143D01*
X7813095Y-7991667D01*
X7822619Y-8001190D01*
X7832143Y-8020238D01*
X7832143Y-8077381D01*
X7822619Y-8096428D01*
X7813095Y-8105952D01*
X7794048Y-8115476D01*
X7765476Y-8115476D01*
X7946428Y-8115476D02*
X7927381Y-8105952D01*
X7917857Y-8086905D01*
X7917857Y-7915476D01*
X8098809Y-8105952D02*
X8079762Y-8115476D01*
X8041667Y-8115476D01*
X8022619Y-8105952D01*
X8013095Y-8086905D01*
X8013095Y-8010714D01*
X8022619Y-7991667D01*
X8041667Y-7982143D01*
X8079762Y-7982143D01*
X8098809Y-7991667D01*
X8108333Y-8010714D01*
X8108333Y-8029762D01*
X8013095Y-8048809D01*
X8184524Y-8105952D02*
X8203571Y-8115476D01*
X8241667Y-8115476D01*
X8260714Y-8105952D01*
X8270238Y-8086905D01*
X8270238Y-8077381D01*
X8260714Y-8058333D01*
X8241667Y-8048809D01*
X8213095Y-8048809D01*
X8194048Y-8039286D01*
X8184524Y-8020238D01*
X8184524Y-8010714D01*
X8194048Y-7991667D01*
X8213095Y-7982143D01*
X8241667Y-7982143D01*
X8260714Y-7991667D01*
X8336905Y-8191667D02*
X8346428Y-8182143D01*
X8365476Y-8153571D01*
X8375000Y-8134524D01*
X8384524Y-8105952D01*
X8394048Y-8058333D01*
X8394048Y-8020238D01*
X8384524Y-7972619D01*
X8375000Y-7944048D01*
X8365476Y-7925000D01*
X8346428Y-7896428D01*
X8336905Y-7886905D01*
D13*
X3565000Y-8289000D02*
G75*
G03*
X3565000Y-8289000I-40000J0D01*
G01*
D11*
X3860714Y-8179476D02*
X3879762Y-8179476D01*
X3898809Y-8189000D01*
X3908333Y-8198524D01*
X3917857Y-8217571D01*
X3927381Y-8255667D01*
X3927381Y-8303286D01*
X3917857Y-8341381D01*
X3908333Y-8360428D01*
X3898809Y-8369952D01*
X3879762Y-8379476D01*
X3860714Y-8379476D01*
X3841667Y-8369952D01*
X3832143Y-8360428D01*
X3822619Y-8341381D01*
X3813095Y-8303286D01*
X3813095Y-8255667D01*
X3822619Y-8217571D01*
X3832143Y-8198524D01*
X3841667Y-8189000D01*
X3860714Y-8179476D01*
X4013095Y-8360428D02*
X4022619Y-8369952D01*
X4013095Y-8379476D01*
X4003571Y-8369952D01*
X4013095Y-8360428D01*
X4013095Y-8379476D01*
X4136905Y-8265190D02*
X4117857Y-8255667D01*
X4108333Y-8246143D01*
X4098809Y-8227095D01*
X4098809Y-8217571D01*
X4108333Y-8198524D01*
X4117857Y-8189000D01*
X4136905Y-8179476D01*
X4175000Y-8179476D01*
X4194048Y-8189000D01*
X4203571Y-8198524D01*
X4213095Y-8217571D01*
X4213095Y-8227095D01*
X4203571Y-8246143D01*
X4194048Y-8255667D01*
X4175000Y-8265190D01*
X4136905Y-8265190D01*
X4117857Y-8274714D01*
X4108333Y-8284238D01*
X4098809Y-8303286D01*
X4098809Y-8341381D01*
X4108333Y-8360428D01*
X4117857Y-8369952D01*
X4136905Y-8379476D01*
X4175000Y-8379476D01*
X4194048Y-8369952D01*
X4203571Y-8360428D01*
X4213095Y-8341381D01*
X4213095Y-8303286D01*
X4203571Y-8284238D01*
X4194048Y-8274714D01*
X4175000Y-8265190D01*
X4336905Y-8179476D02*
X4355952Y-8179476D01*
X4375000Y-8189000D01*
X4384524Y-8198524D01*
X4394048Y-8217571D01*
X4403571Y-8255667D01*
X4403571Y-8303286D01*
X4394048Y-8341381D01*
X4384524Y-8360428D01*
X4375000Y-8369952D01*
X4355952Y-8379476D01*
X4336905Y-8379476D01*
X4317857Y-8369952D01*
X4308333Y-8360428D01*
X4298810Y-8341381D01*
X4289286Y-8303286D01*
X4289286Y-8255667D01*
X4298810Y-8217571D01*
X4308333Y-8198524D01*
X4317857Y-8189000D01*
X4336905Y-8179476D01*
X4527381Y-8179476D02*
X4546429Y-8179476D01*
X4565476Y-8189000D01*
X4575000Y-8198524D01*
X4584524Y-8217571D01*
X4594048Y-8255667D01*
X4594048Y-8303286D01*
X4584524Y-8341381D01*
X4575000Y-8360428D01*
X4565476Y-8369952D01*
X4546429Y-8379476D01*
X4527381Y-8379476D01*
X4508333Y-8369952D01*
X4498810Y-8360428D01*
X4489286Y-8341381D01*
X4479762Y-8303286D01*
X4479762Y-8255667D01*
X4489286Y-8217571D01*
X4498810Y-8198524D01*
X4508333Y-8189000D01*
X4527381Y-8179476D01*
X4679762Y-8379476D02*
X4679762Y-8246143D01*
X4679762Y-8265190D02*
X4689286Y-8255667D01*
X4708333Y-8246143D01*
X4736905Y-8246143D01*
X4755952Y-8255667D01*
X4765476Y-8274714D01*
X4765476Y-8379476D01*
X4765476Y-8274714D02*
X4775000Y-8255667D01*
X4794048Y-8246143D01*
X4822619Y-8246143D01*
X4841667Y-8255667D01*
X4851190Y-8274714D01*
X4851190Y-8379476D01*
X4946429Y-8379476D02*
X4946429Y-8246143D01*
X4946429Y-8265190D02*
X4955952Y-8255667D01*
X4975000Y-8246143D01*
X5003571Y-8246143D01*
X5022619Y-8255667D01*
X5032143Y-8274714D01*
X5032143Y-8379476D01*
X5032143Y-8274714D02*
X5041667Y-8255667D01*
X5060714Y-8246143D01*
X5089286Y-8246143D01*
X5108333Y-8255667D01*
X5117857Y-8274714D01*
X5117857Y-8379476D01*
X5508333Y-8169952D02*
X5336905Y-8427095D01*
X5765476Y-8179476D02*
X5784524Y-8179476D01*
X5803571Y-8189000D01*
X5813095Y-8198524D01*
X5822619Y-8217571D01*
X5832143Y-8255667D01*
X5832143Y-8303286D01*
X5822619Y-8341381D01*
X5813095Y-8360428D01*
X5803571Y-8369952D01*
X5784524Y-8379476D01*
X5765476Y-8379476D01*
X5746428Y-8369952D01*
X5736905Y-8360428D01*
X5727381Y-8341381D01*
X5717857Y-8303286D01*
X5717857Y-8255667D01*
X5727381Y-8217571D01*
X5736905Y-8198524D01*
X5746428Y-8189000D01*
X5765476Y-8179476D01*
X5917857Y-8360428D02*
X5927381Y-8369952D01*
X5917857Y-8379476D01*
X5908333Y-8369952D01*
X5917857Y-8360428D01*
X5917857Y-8379476D01*
X6051190Y-8179476D02*
X6070238Y-8179476D01*
X6089286Y-8189000D01*
X6098809Y-8198524D01*
X6108333Y-8217571D01*
X6117857Y-8255667D01*
X6117857Y-8303286D01*
X6108333Y-8341381D01*
X6098809Y-8360428D01*
X6089286Y-8369952D01*
X6070238Y-8379476D01*
X6051190Y-8379476D01*
X6032143Y-8369952D01*
X6022619Y-8360428D01*
X6013095Y-8341381D01*
X6003571Y-8303286D01*
X6003571Y-8255667D01*
X6013095Y-8217571D01*
X6022619Y-8198524D01*
X6032143Y-8189000D01*
X6051190Y-8179476D01*
X6184524Y-8179476D02*
X6308333Y-8179476D01*
X6241667Y-8255667D01*
X6270238Y-8255667D01*
X6289286Y-8265190D01*
X6298809Y-8274714D01*
X6308333Y-8293762D01*
X6308333Y-8341381D01*
X6298809Y-8360428D01*
X6289286Y-8369952D01*
X6270238Y-8379476D01*
X6213095Y-8379476D01*
X6194048Y-8369952D01*
X6184524Y-8360428D01*
X6498809Y-8379476D02*
X6384524Y-8379476D01*
X6441667Y-8379476D02*
X6441667Y-8179476D01*
X6422619Y-8208048D01*
X6403571Y-8227095D01*
X6384524Y-8236619D01*
X6679762Y-8179476D02*
X6584524Y-8179476D01*
X6575000Y-8274714D01*
X6584524Y-8265190D01*
X6603571Y-8255667D01*
X6651190Y-8255667D01*
X6670238Y-8265190D01*
X6679762Y-8274714D01*
X6689286Y-8293762D01*
X6689286Y-8341381D01*
X6679762Y-8360428D01*
X6670238Y-8369952D01*
X6651190Y-8379476D01*
X6603571Y-8379476D01*
X6584524Y-8369952D01*
X6575000Y-8360428D01*
X6765476Y-8179476D02*
X6765476Y-8217571D01*
X6841667Y-8179476D02*
X6841667Y-8217571D01*
X7136905Y-8455667D02*
X7127381Y-8446143D01*
X7108333Y-8417571D01*
X7098809Y-8398524D01*
X7089286Y-8369952D01*
X7079762Y-8322333D01*
X7079762Y-8284238D01*
X7089286Y-8236619D01*
X7098809Y-8208048D01*
X7108333Y-8189000D01*
X7127381Y-8160428D01*
X7136905Y-8150905D01*
X7203571Y-8198524D02*
X7213095Y-8189000D01*
X7232143Y-8179476D01*
X7279762Y-8179476D01*
X7298809Y-8189000D01*
X7308333Y-8198524D01*
X7317857Y-8217571D01*
X7317857Y-8236619D01*
X7308333Y-8265190D01*
X7194048Y-8379476D01*
X7317857Y-8379476D01*
X7394048Y-8198524D02*
X7403571Y-8189000D01*
X7422619Y-8179476D01*
X7470238Y-8179476D01*
X7489286Y-8189000D01*
X7498809Y-8198524D01*
X7508333Y-8217571D01*
X7508333Y-8236619D01*
X7498809Y-8265190D01*
X7384524Y-8379476D01*
X7508333Y-8379476D01*
X7746428Y-8379476D02*
X7746428Y-8179476D01*
X7832143Y-8379476D02*
X7832143Y-8274714D01*
X7822619Y-8255667D01*
X7803571Y-8246143D01*
X7775000Y-8246143D01*
X7755952Y-8255667D01*
X7746428Y-8265190D01*
X7955952Y-8379476D02*
X7936905Y-8369952D01*
X7927381Y-8360428D01*
X7917857Y-8341381D01*
X7917857Y-8284238D01*
X7927381Y-8265190D01*
X7936905Y-8255667D01*
X7955952Y-8246143D01*
X7984524Y-8246143D01*
X8003571Y-8255667D01*
X8013095Y-8265190D01*
X8022619Y-8284238D01*
X8022619Y-8341381D01*
X8013095Y-8360428D01*
X8003571Y-8369952D01*
X7984524Y-8379476D01*
X7955952Y-8379476D01*
X8136905Y-8379476D02*
X8117857Y-8369952D01*
X8108333Y-8350905D01*
X8108333Y-8179476D01*
X8289286Y-8369952D02*
X8270238Y-8379476D01*
X8232143Y-8379476D01*
X8213095Y-8369952D01*
X8203571Y-8350905D01*
X8203571Y-8274714D01*
X8213095Y-8255667D01*
X8232143Y-8246143D01*
X8270238Y-8246143D01*
X8289286Y-8255667D01*
X8298809Y-8274714D01*
X8298809Y-8293762D01*
X8203571Y-8312809D01*
X8375000Y-8369952D02*
X8394048Y-8379476D01*
X8432143Y-8379476D01*
X8451190Y-8369952D01*
X8460714Y-8350905D01*
X8460714Y-8341381D01*
X8451190Y-8322333D01*
X8432143Y-8312809D01*
X8403571Y-8312809D01*
X8384524Y-8303286D01*
X8375000Y-8284238D01*
X8375000Y-8274714D01*
X8384524Y-8255667D01*
X8403571Y-8246143D01*
X8432143Y-8246143D01*
X8451190Y-8255667D01*
X8527381Y-8455667D02*
X8536905Y-8446143D01*
X8555952Y-8417571D01*
X8565476Y-8398524D01*
X8575000Y-8369952D01*
X8584524Y-8322333D01*
X8584524Y-8284238D01*
X8575000Y-8236619D01*
X8565476Y-8208048D01*
X8555952Y-8189000D01*
X8536905Y-8160428D01*
X8527381Y-8150905D01*
D10*
X3515000Y-8503000D02*
X3515000Y-8603000D01*
X3465000Y-8553000D02*
X3565000Y-8553000D01*
D11*
X3927381Y-8643476D02*
X3813095Y-8643476D01*
X3870238Y-8643476D02*
X3870238Y-8443476D01*
X3851190Y-8472048D01*
X3832143Y-8491095D01*
X3813095Y-8500619D01*
X4013095Y-8624429D02*
X4022619Y-8633952D01*
X4013095Y-8643476D01*
X4003571Y-8633952D01*
X4013095Y-8624429D01*
X4013095Y-8643476D01*
X4146428Y-8443476D02*
X4165476Y-8443476D01*
X4184524Y-8453000D01*
X4194048Y-8462524D01*
X4203571Y-8481571D01*
X4213095Y-8519667D01*
X4213095Y-8567286D01*
X4203571Y-8605381D01*
X4194048Y-8624429D01*
X4184524Y-8633952D01*
X4165476Y-8643476D01*
X4146428Y-8643476D01*
X4127381Y-8633952D01*
X4117857Y-8624429D01*
X4108333Y-8605381D01*
X4098809Y-8567286D01*
X4098809Y-8519667D01*
X4108333Y-8481571D01*
X4117857Y-8462524D01*
X4127381Y-8453000D01*
X4146428Y-8443476D01*
X4336905Y-8443476D02*
X4355952Y-8443476D01*
X4375000Y-8453000D01*
X4384524Y-8462524D01*
X4394048Y-8481571D01*
X4403571Y-8519667D01*
X4403571Y-8567286D01*
X4394048Y-8605381D01*
X4384524Y-8624429D01*
X4375000Y-8633952D01*
X4355952Y-8643476D01*
X4336905Y-8643476D01*
X4317857Y-8633952D01*
X4308333Y-8624429D01*
X4298810Y-8605381D01*
X4289286Y-8567286D01*
X4289286Y-8519667D01*
X4298810Y-8481571D01*
X4308333Y-8462524D01*
X4317857Y-8453000D01*
X4336905Y-8443476D01*
X4527381Y-8443476D02*
X4546429Y-8443476D01*
X4565476Y-8453000D01*
X4575000Y-8462524D01*
X4584524Y-8481571D01*
X4594048Y-8519667D01*
X4594048Y-8567286D01*
X4584524Y-8605381D01*
X4575000Y-8624429D01*
X4565476Y-8633952D01*
X4546429Y-8643476D01*
X4527381Y-8643476D01*
X4508333Y-8633952D01*
X4498810Y-8624429D01*
X4489286Y-8605381D01*
X4479762Y-8567286D01*
X4479762Y-8519667D01*
X4489286Y-8481571D01*
X4498810Y-8462524D01*
X4508333Y-8453000D01*
X4527381Y-8443476D01*
X4679762Y-8643476D02*
X4679762Y-8510143D01*
X4679762Y-8529190D02*
X4689286Y-8519667D01*
X4708333Y-8510143D01*
X4736905Y-8510143D01*
X4755952Y-8519667D01*
X4765476Y-8538714D01*
X4765476Y-8643476D01*
X4765476Y-8538714D02*
X4775000Y-8519667D01*
X4794048Y-8510143D01*
X4822619Y-8510143D01*
X4841667Y-8519667D01*
X4851190Y-8538714D01*
X4851190Y-8643476D01*
X4946429Y-8643476D02*
X4946429Y-8510143D01*
X4946429Y-8529190D02*
X4955952Y-8519667D01*
X4975000Y-8510143D01*
X5003571Y-8510143D01*
X5022619Y-8519667D01*
X5032143Y-8538714D01*
X5032143Y-8643476D01*
X5032143Y-8538714D02*
X5041667Y-8519667D01*
X5060714Y-8510143D01*
X5089286Y-8510143D01*
X5108333Y-8519667D01*
X5117857Y-8538714D01*
X5117857Y-8643476D01*
X5508333Y-8433952D02*
X5336905Y-8691095D01*
X5765476Y-8443476D02*
X5784524Y-8443476D01*
X5803571Y-8453000D01*
X5813095Y-8462524D01*
X5822619Y-8481571D01*
X5832143Y-8519667D01*
X5832143Y-8567286D01*
X5822619Y-8605381D01*
X5813095Y-8624429D01*
X5803571Y-8633952D01*
X5784524Y-8643476D01*
X5765476Y-8643476D01*
X5746428Y-8633952D01*
X5736905Y-8624429D01*
X5727381Y-8605381D01*
X5717857Y-8567286D01*
X5717857Y-8519667D01*
X5727381Y-8481571D01*
X5736905Y-8462524D01*
X5746428Y-8453000D01*
X5765476Y-8443476D01*
X5917857Y-8624429D02*
X5927381Y-8633952D01*
X5917857Y-8643476D01*
X5908333Y-8633952D01*
X5917857Y-8624429D01*
X5917857Y-8643476D01*
X6051190Y-8443476D02*
X6070238Y-8443476D01*
X6089286Y-8453000D01*
X6098809Y-8462524D01*
X6108333Y-8481571D01*
X6117857Y-8519667D01*
X6117857Y-8567286D01*
X6108333Y-8605381D01*
X6098809Y-8624429D01*
X6089286Y-8633952D01*
X6070238Y-8643476D01*
X6051190Y-8643476D01*
X6032143Y-8633952D01*
X6022619Y-8624429D01*
X6013095Y-8605381D01*
X6003571Y-8567286D01*
X6003571Y-8519667D01*
X6013095Y-8481571D01*
X6022619Y-8462524D01*
X6032143Y-8453000D01*
X6051190Y-8443476D01*
X6184524Y-8443476D02*
X6308333Y-8443476D01*
X6241667Y-8519667D01*
X6270238Y-8519667D01*
X6289286Y-8529190D01*
X6298809Y-8538714D01*
X6308333Y-8557762D01*
X6308333Y-8605381D01*
X6298809Y-8624429D01*
X6289286Y-8633952D01*
X6270238Y-8643476D01*
X6213095Y-8643476D01*
X6194048Y-8633952D01*
X6184524Y-8624429D01*
X6403571Y-8643476D02*
X6441667Y-8643476D01*
X6460714Y-8633952D01*
X6470238Y-8624429D01*
X6489286Y-8595857D01*
X6498809Y-8557762D01*
X6498809Y-8481571D01*
X6489286Y-8462524D01*
X6479762Y-8453000D01*
X6460714Y-8443476D01*
X6422619Y-8443476D01*
X6403571Y-8453000D01*
X6394048Y-8462524D01*
X6384524Y-8481571D01*
X6384524Y-8529190D01*
X6394048Y-8548238D01*
X6403571Y-8557762D01*
X6422619Y-8567286D01*
X6460714Y-8567286D01*
X6479762Y-8557762D01*
X6489286Y-8548238D01*
X6498809Y-8529190D01*
X6670238Y-8510143D02*
X6670238Y-8643476D01*
X6622619Y-8433952D02*
X6575000Y-8576810D01*
X6698809Y-8576810D01*
X6765476Y-8443476D02*
X6765476Y-8481571D01*
X6841667Y-8443476D02*
X6841667Y-8481571D01*
X7136905Y-8719667D02*
X7127381Y-8710143D01*
X7108333Y-8681571D01*
X7098809Y-8662524D01*
X7089286Y-8633952D01*
X7079762Y-8586333D01*
X7079762Y-8548238D01*
X7089286Y-8500619D01*
X7098809Y-8472048D01*
X7108333Y-8453000D01*
X7127381Y-8424429D01*
X7136905Y-8414905D01*
X7298809Y-8510143D02*
X7298809Y-8643476D01*
X7251190Y-8433952D02*
X7203571Y-8576810D01*
X7327381Y-8576810D01*
X7441667Y-8443476D02*
X7460714Y-8443476D01*
X7479762Y-8453000D01*
X7489286Y-8462524D01*
X7498809Y-8481571D01*
X7508333Y-8519667D01*
X7508333Y-8567286D01*
X7498809Y-8605381D01*
X7489286Y-8624429D01*
X7479762Y-8633952D01*
X7460714Y-8643476D01*
X7441667Y-8643476D01*
X7422619Y-8633952D01*
X7413095Y-8624429D01*
X7403571Y-8605381D01*
X7394048Y-8567286D01*
X7394048Y-8519667D01*
X7403571Y-8481571D01*
X7413095Y-8462524D01*
X7422619Y-8453000D01*
X7441667Y-8443476D01*
X7746428Y-8643476D02*
X7746428Y-8443476D01*
X7832143Y-8643476D02*
X7832143Y-8538714D01*
X7822619Y-8519667D01*
X7803571Y-8510143D01*
X7775000Y-8510143D01*
X7755952Y-8519667D01*
X7746428Y-8529190D01*
X7955952Y-8643476D02*
X7936905Y-8633952D01*
X7927381Y-8624429D01*
X7917857Y-8605381D01*
X7917857Y-8548238D01*
X7927381Y-8529190D01*
X7936905Y-8519667D01*
X7955952Y-8510143D01*
X7984524Y-8510143D01*
X8003571Y-8519667D01*
X8013095Y-8529190D01*
X8022619Y-8548238D01*
X8022619Y-8605381D01*
X8013095Y-8624429D01*
X8003571Y-8633952D01*
X7984524Y-8643476D01*
X7955952Y-8643476D01*
X8136905Y-8643476D02*
X8117857Y-8633952D01*
X8108333Y-8614905D01*
X8108333Y-8443476D01*
X8289286Y-8633952D02*
X8270238Y-8643476D01*
X8232143Y-8643476D01*
X8213095Y-8633952D01*
X8203571Y-8614905D01*
X8203571Y-8538714D01*
X8213095Y-8519667D01*
X8232143Y-8510143D01*
X8270238Y-8510143D01*
X8289286Y-8519667D01*
X8298809Y-8538714D01*
X8298809Y-8557762D01*
X8203571Y-8576810D01*
X8375000Y-8633952D02*
X8394048Y-8643476D01*
X8432143Y-8643476D01*
X8451190Y-8633952D01*
X8460714Y-8614905D01*
X8460714Y-8605381D01*
X8451190Y-8586333D01*
X8432143Y-8576810D01*
X8403571Y-8576810D01*
X8384524Y-8567286D01*
X8375000Y-8548238D01*
X8375000Y-8538714D01*
X8384524Y-8519667D01*
X8403571Y-8510143D01*
X8432143Y-8510143D01*
X8451190Y-8519667D01*
X8527381Y-8719667D02*
X8536905Y-8710143D01*
X8555952Y-8681571D01*
X8565476Y-8662524D01*
X8575000Y-8633952D01*
X8584524Y-8586333D01*
X8584524Y-8548238D01*
X8575000Y-8500619D01*
X8565476Y-8472048D01*
X8555952Y-8453000D01*
X8536905Y-8424429D01*
X8527381Y-8414905D01*
D14*
X3550121Y-8852921D02*
X3550121Y-8781079D01*
X3478279Y-8781079D01*
X3478279Y-8852921D01*
X3550121Y-8852921D01*
D11*
X3927381Y-8907476D02*
X3813095Y-8907476D01*
X3870238Y-8907476D02*
X3870238Y-8707476D01*
X3851190Y-8736048D01*
X3832143Y-8755095D01*
X3813095Y-8764619D01*
X4013095Y-8888429D02*
X4022619Y-8897952D01*
X4013095Y-8907476D01*
X4003571Y-8897952D01*
X4013095Y-8888429D01*
X4013095Y-8907476D01*
X4146428Y-8707476D02*
X4165476Y-8707476D01*
X4184524Y-8717000D01*
X4194048Y-8726524D01*
X4203571Y-8745571D01*
X4213095Y-8783667D01*
X4213095Y-8831286D01*
X4203571Y-8869381D01*
X4194048Y-8888429D01*
X4184524Y-8897952D01*
X4165476Y-8907476D01*
X4146428Y-8907476D01*
X4127381Y-8897952D01*
X4117857Y-8888429D01*
X4108333Y-8869381D01*
X4098809Y-8831286D01*
X4098809Y-8783667D01*
X4108333Y-8745571D01*
X4117857Y-8726524D01*
X4127381Y-8717000D01*
X4146428Y-8707476D01*
X4403571Y-8907476D02*
X4289286Y-8907476D01*
X4346429Y-8907476D02*
X4346429Y-8707476D01*
X4327381Y-8736048D01*
X4308333Y-8755095D01*
X4289286Y-8764619D01*
X4575000Y-8707476D02*
X4536905Y-8707476D01*
X4517857Y-8717000D01*
X4508333Y-8726524D01*
X4489286Y-8755095D01*
X4479762Y-8793190D01*
X4479762Y-8869381D01*
X4489286Y-8888429D01*
X4498810Y-8897952D01*
X4517857Y-8907476D01*
X4555952Y-8907476D01*
X4575000Y-8897952D01*
X4584524Y-8888429D01*
X4594048Y-8869381D01*
X4594048Y-8821762D01*
X4584524Y-8802714D01*
X4575000Y-8793190D01*
X4555952Y-8783667D01*
X4517857Y-8783667D01*
X4498810Y-8793190D01*
X4489286Y-8802714D01*
X4479762Y-8821762D01*
X4679762Y-8907476D02*
X4679762Y-8774143D01*
X4679762Y-8793190D02*
X4689286Y-8783667D01*
X4708333Y-8774143D01*
X4736905Y-8774143D01*
X4755952Y-8783667D01*
X4765476Y-8802714D01*
X4765476Y-8907476D01*
X4765476Y-8802714D02*
X4775000Y-8783667D01*
X4794048Y-8774143D01*
X4822619Y-8774143D01*
X4841667Y-8783667D01*
X4851190Y-8802714D01*
X4851190Y-8907476D01*
X4946429Y-8907476D02*
X4946429Y-8774143D01*
X4946429Y-8793190D02*
X4955952Y-8783667D01*
X4975000Y-8774143D01*
X5003571Y-8774143D01*
X5022619Y-8783667D01*
X5032143Y-8802714D01*
X5032143Y-8907476D01*
X5032143Y-8802714D02*
X5041667Y-8783667D01*
X5060714Y-8774143D01*
X5089286Y-8774143D01*
X5108333Y-8783667D01*
X5117857Y-8802714D01*
X5117857Y-8907476D01*
X5508333Y-8697952D02*
X5336905Y-8955095D01*
X5765476Y-8707476D02*
X5784524Y-8707476D01*
X5803571Y-8717000D01*
X5813095Y-8726524D01*
X5822619Y-8745571D01*
X5832143Y-8783667D01*
X5832143Y-8831286D01*
X5822619Y-8869381D01*
X5813095Y-8888429D01*
X5803571Y-8897952D01*
X5784524Y-8907476D01*
X5765476Y-8907476D01*
X5746428Y-8897952D01*
X5736905Y-8888429D01*
X5727381Y-8869381D01*
X5717857Y-8831286D01*
X5717857Y-8783667D01*
X5727381Y-8745571D01*
X5736905Y-8726524D01*
X5746428Y-8717000D01*
X5765476Y-8707476D01*
X5917857Y-8888429D02*
X5927381Y-8897952D01*
X5917857Y-8907476D01*
X5908333Y-8897952D01*
X5917857Y-8888429D01*
X5917857Y-8907476D01*
X6051190Y-8707476D02*
X6070238Y-8707476D01*
X6089286Y-8717000D01*
X6098809Y-8726524D01*
X6108333Y-8745571D01*
X6117857Y-8783667D01*
X6117857Y-8831286D01*
X6108333Y-8869381D01*
X6098809Y-8888429D01*
X6089286Y-8897952D01*
X6070238Y-8907476D01*
X6051190Y-8907476D01*
X6032143Y-8897952D01*
X6022619Y-8888429D01*
X6013095Y-8869381D01*
X6003571Y-8831286D01*
X6003571Y-8783667D01*
X6013095Y-8745571D01*
X6022619Y-8726524D01*
X6032143Y-8717000D01*
X6051190Y-8707476D01*
X6289286Y-8774143D02*
X6289286Y-8907476D01*
X6241667Y-8697952D02*
X6194048Y-8840810D01*
X6317857Y-8840810D01*
X6432143Y-8707476D02*
X6451190Y-8707476D01*
X6470238Y-8717000D01*
X6479762Y-8726524D01*
X6489286Y-8745571D01*
X6498809Y-8783667D01*
X6498809Y-8831286D01*
X6489286Y-8869381D01*
X6479762Y-8888429D01*
X6470238Y-8897952D01*
X6451190Y-8907476D01*
X6432143Y-8907476D01*
X6413095Y-8897952D01*
X6403571Y-8888429D01*
X6394048Y-8869381D01*
X6384524Y-8831286D01*
X6384524Y-8783667D01*
X6394048Y-8745571D01*
X6403571Y-8726524D01*
X6413095Y-8717000D01*
X6432143Y-8707476D01*
X6622619Y-8707476D02*
X6641667Y-8707476D01*
X6660714Y-8717000D01*
X6670238Y-8726524D01*
X6679762Y-8745571D01*
X6689286Y-8783667D01*
X6689286Y-8831286D01*
X6679762Y-8869381D01*
X6670238Y-8888429D01*
X6660714Y-8897952D01*
X6641667Y-8907476D01*
X6622619Y-8907476D01*
X6603571Y-8897952D01*
X6594048Y-8888429D01*
X6584524Y-8869381D01*
X6575000Y-8831286D01*
X6575000Y-8783667D01*
X6584524Y-8745571D01*
X6594048Y-8726524D01*
X6603571Y-8717000D01*
X6622619Y-8707476D01*
X6765476Y-8707476D02*
X6765476Y-8745571D01*
X6841667Y-8707476D02*
X6841667Y-8745571D01*
X7136905Y-8983667D02*
X7127381Y-8974143D01*
X7108333Y-8945571D01*
X7098809Y-8926524D01*
X7089286Y-8897952D01*
X7079762Y-8850333D01*
X7079762Y-8812238D01*
X7089286Y-8764619D01*
X7098809Y-8736048D01*
X7108333Y-8717000D01*
X7127381Y-8688429D01*
X7136905Y-8678905D01*
X7203571Y-8726524D02*
X7213095Y-8717000D01*
X7232143Y-8707476D01*
X7279762Y-8707476D01*
X7298809Y-8717000D01*
X7308333Y-8726524D01*
X7317857Y-8745571D01*
X7317857Y-8764619D01*
X7308333Y-8793190D01*
X7194048Y-8907476D01*
X7317857Y-8907476D01*
X7441667Y-8707476D02*
X7460714Y-8707476D01*
X7479762Y-8717000D01*
X7489286Y-8726524D01*
X7498809Y-8745571D01*
X7508333Y-8783667D01*
X7508333Y-8831286D01*
X7498809Y-8869381D01*
X7489286Y-8888429D01*
X7479762Y-8897952D01*
X7460714Y-8907476D01*
X7441667Y-8907476D01*
X7422619Y-8897952D01*
X7413095Y-8888429D01*
X7403571Y-8869381D01*
X7394048Y-8831286D01*
X7394048Y-8783667D01*
X7403571Y-8745571D01*
X7413095Y-8726524D01*
X7422619Y-8717000D01*
X7441667Y-8707476D01*
X7746428Y-8907476D02*
X7746428Y-8707476D01*
X7832143Y-8907476D02*
X7832143Y-8802714D01*
X7822619Y-8783667D01*
X7803571Y-8774143D01*
X7775000Y-8774143D01*
X7755952Y-8783667D01*
X7746428Y-8793190D01*
X7955952Y-8907476D02*
X7936905Y-8897952D01*
X7927381Y-8888429D01*
X7917857Y-8869381D01*
X7917857Y-8812238D01*
X7927381Y-8793190D01*
X7936905Y-8783667D01*
X7955952Y-8774143D01*
X7984524Y-8774143D01*
X8003571Y-8783667D01*
X8013095Y-8793190D01*
X8022619Y-8812238D01*
X8022619Y-8869381D01*
X8013095Y-8888429D01*
X8003571Y-8897952D01*
X7984524Y-8907476D01*
X7955952Y-8907476D01*
X8136905Y-8907476D02*
X8117857Y-8897952D01*
X8108333Y-8878905D01*
X8108333Y-8707476D01*
X8289286Y-8897952D02*
X8270238Y-8907476D01*
X8232143Y-8907476D01*
X8213095Y-8897952D01*
X8203571Y-8878905D01*
X8203571Y-8802714D01*
X8213095Y-8783667D01*
X8232143Y-8774143D01*
X8270238Y-8774143D01*
X8289286Y-8783667D01*
X8298809Y-8802714D01*
X8298809Y-8821762D01*
X8203571Y-8840810D01*
X8375000Y-8897952D02*
X8394048Y-8907476D01*
X8432143Y-8907476D01*
X8451190Y-8897952D01*
X8460714Y-8878905D01*
X8460714Y-8869381D01*
X8451190Y-8850333D01*
X8432143Y-8840810D01*
X8403571Y-8840810D01*
X8384524Y-8831286D01*
X8375000Y-8812238D01*
X8375000Y-8802714D01*
X8384524Y-8783667D01*
X8403571Y-8774143D01*
X8432143Y-8774143D01*
X8451190Y-8783667D01*
X8527381Y-8983667D02*
X8536905Y-8974143D01*
X8555952Y-8945571D01*
X8565476Y-8926524D01*
X8575000Y-8897952D01*
X8584524Y-8850333D01*
X8584524Y-8812238D01*
X8575000Y-8764619D01*
X8565476Y-8736048D01*
X8555952Y-8717000D01*
X8536905Y-8688429D01*
X8527381Y-8678905D01*
X3465000Y-9181000D02*
X3565000Y-9081000D01*
X3465000Y-8981000D01*
X3365000Y-9081000D01*
X3465000Y-9181000D01*
X3803571Y-8971476D02*
X3927381Y-8971476D01*
X3860714Y-9047667D01*
X3889286Y-9047667D01*
X3908333Y-9057190D01*
X3917857Y-9066714D01*
X3927381Y-9085762D01*
X3927381Y-9133381D01*
X3917857Y-9152429D01*
X3908333Y-9161952D01*
X3889286Y-9171476D01*
X3832143Y-9171476D01*
X3813095Y-9161952D01*
X3803571Y-9152429D01*
X4013095Y-9152429D02*
X4022619Y-9161952D01*
X4013095Y-9171476D01*
X4003571Y-9161952D01*
X4013095Y-9152429D01*
X4013095Y-9171476D01*
X4098809Y-8990524D02*
X4108333Y-8981000D01*
X4127381Y-8971476D01*
X4175000Y-8971476D01*
X4194048Y-8981000D01*
X4203571Y-8990524D01*
X4213095Y-9009571D01*
X4213095Y-9028619D01*
X4203571Y-9057190D01*
X4089286Y-9171476D01*
X4213095Y-9171476D01*
X4336905Y-8971476D02*
X4355952Y-8971476D01*
X4375000Y-8981000D01*
X4384524Y-8990524D01*
X4394048Y-9009571D01*
X4403571Y-9047667D01*
X4403571Y-9095286D01*
X4394048Y-9133381D01*
X4384524Y-9152429D01*
X4375000Y-9161952D01*
X4355952Y-9171476D01*
X4336905Y-9171476D01*
X4317857Y-9161952D01*
X4308333Y-9152429D01*
X4298810Y-9133381D01*
X4289286Y-9095286D01*
X4289286Y-9047667D01*
X4298810Y-9009571D01*
X4308333Y-8990524D01*
X4317857Y-8981000D01*
X4336905Y-8971476D01*
X4527381Y-8971476D02*
X4546429Y-8971476D01*
X4565476Y-8981000D01*
X4575000Y-8990524D01*
X4584524Y-9009571D01*
X4594048Y-9047667D01*
X4594048Y-9095286D01*
X4584524Y-9133381D01*
X4575000Y-9152429D01*
X4565476Y-9161952D01*
X4546429Y-9171476D01*
X4527381Y-9171476D01*
X4508333Y-9161952D01*
X4498810Y-9152429D01*
X4489286Y-9133381D01*
X4479762Y-9095286D01*
X4479762Y-9047667D01*
X4489286Y-9009571D01*
X4498810Y-8990524D01*
X4508333Y-8981000D01*
X4527381Y-8971476D01*
X4679762Y-9171476D02*
X4679762Y-9038143D01*
X4679762Y-9057190D02*
X4689286Y-9047667D01*
X4708333Y-9038143D01*
X4736905Y-9038143D01*
X4755952Y-9047667D01*
X4765476Y-9066714D01*
X4765476Y-9171476D01*
X4765476Y-9066714D02*
X4775000Y-9047667D01*
X4794048Y-9038143D01*
X4822619Y-9038143D01*
X4841667Y-9047667D01*
X4851190Y-9066714D01*
X4851190Y-9171476D01*
X4946429Y-9171476D02*
X4946429Y-9038143D01*
X4946429Y-9057190D02*
X4955952Y-9047667D01*
X4975000Y-9038143D01*
X5003571Y-9038143D01*
X5022619Y-9047667D01*
X5032143Y-9066714D01*
X5032143Y-9171476D01*
X5032143Y-9066714D02*
X5041667Y-9047667D01*
X5060714Y-9038143D01*
X5089286Y-9038143D01*
X5108333Y-9047667D01*
X5117857Y-9066714D01*
X5117857Y-9171476D01*
X5508333Y-8961952D02*
X5336905Y-9219095D01*
X5765476Y-8971476D02*
X5784524Y-8971476D01*
X5803571Y-8981000D01*
X5813095Y-8990524D01*
X5822619Y-9009571D01*
X5832143Y-9047667D01*
X5832143Y-9095286D01*
X5822619Y-9133381D01*
X5813095Y-9152429D01*
X5803571Y-9161952D01*
X5784524Y-9171476D01*
X5765476Y-9171476D01*
X5746428Y-9161952D01*
X5736905Y-9152429D01*
X5727381Y-9133381D01*
X5717857Y-9095286D01*
X5717857Y-9047667D01*
X5727381Y-9009571D01*
X5736905Y-8990524D01*
X5746428Y-8981000D01*
X5765476Y-8971476D01*
X5917857Y-9152429D02*
X5927381Y-9161952D01*
X5917857Y-9171476D01*
X5908333Y-9161952D01*
X5917857Y-9152429D01*
X5917857Y-9171476D01*
X6117857Y-9171476D02*
X6003571Y-9171476D01*
X6060714Y-9171476D02*
X6060714Y-8971476D01*
X6041667Y-9000048D01*
X6022619Y-9019095D01*
X6003571Y-9028619D01*
X6194048Y-8990524D02*
X6203571Y-8981000D01*
X6222619Y-8971476D01*
X6270238Y-8971476D01*
X6289286Y-8981000D01*
X6298809Y-8990524D01*
X6308333Y-9009571D01*
X6308333Y-9028619D01*
X6298809Y-9057190D01*
X6184524Y-9171476D01*
X6308333Y-9171476D01*
X6479762Y-8971476D02*
X6441667Y-8971476D01*
X6422619Y-8981000D01*
X6413095Y-8990524D01*
X6394048Y-9019095D01*
X6384524Y-9057190D01*
X6384524Y-9133381D01*
X6394048Y-9152429D01*
X6403571Y-9161952D01*
X6422619Y-9171476D01*
X6460714Y-9171476D01*
X6479762Y-9161952D01*
X6489286Y-9152429D01*
X6498809Y-9133381D01*
X6498809Y-9085762D01*
X6489286Y-9066714D01*
X6479762Y-9057190D01*
X6460714Y-9047667D01*
X6422619Y-9047667D01*
X6403571Y-9057190D01*
X6394048Y-9066714D01*
X6384524Y-9085762D01*
X6622619Y-8971476D02*
X6641667Y-8971476D01*
X6660714Y-8981000D01*
X6670238Y-8990524D01*
X6679762Y-9009571D01*
X6689286Y-9047667D01*
X6689286Y-9095286D01*
X6679762Y-9133381D01*
X6670238Y-9152429D01*
X6660714Y-9161952D01*
X6641667Y-9171476D01*
X6622619Y-9171476D01*
X6603571Y-9161952D01*
X6594048Y-9152429D01*
X6584524Y-9133381D01*
X6575000Y-9095286D01*
X6575000Y-9047667D01*
X6584524Y-9009571D01*
X6594048Y-8990524D01*
X6603571Y-8981000D01*
X6622619Y-8971476D01*
X6765476Y-8971476D02*
X6765476Y-9009571D01*
X6841667Y-8971476D02*
X6841667Y-9009571D01*
X7136905Y-9247667D02*
X7127381Y-9238143D01*
X7108333Y-9209571D01*
X7098809Y-9190524D01*
X7089286Y-9161952D01*
X7079762Y-9114333D01*
X7079762Y-9076238D01*
X7089286Y-9028619D01*
X7098809Y-9000048D01*
X7108333Y-8981000D01*
X7127381Y-8952429D01*
X7136905Y-8942905D01*
X7298809Y-9038143D02*
X7298809Y-9171476D01*
X7251190Y-8961952D02*
X7203571Y-9104810D01*
X7327381Y-9104810D01*
X7555952Y-9171476D02*
X7555952Y-8971476D01*
X7641667Y-9171476D02*
X7641667Y-9066714D01*
X7632143Y-9047667D01*
X7613095Y-9038143D01*
X7584524Y-9038143D01*
X7565476Y-9047667D01*
X7555952Y-9057190D01*
X7765476Y-9171476D02*
X7746428Y-9161952D01*
X7736905Y-9152429D01*
X7727381Y-9133381D01*
X7727381Y-9076238D01*
X7736905Y-9057190D01*
X7746428Y-9047667D01*
X7765476Y-9038143D01*
X7794048Y-9038143D01*
X7813095Y-9047667D01*
X7822619Y-9057190D01*
X7832143Y-9076238D01*
X7832143Y-9133381D01*
X7822619Y-9152429D01*
X7813095Y-9161952D01*
X7794048Y-9171476D01*
X7765476Y-9171476D01*
X7946428Y-9171476D02*
X7927381Y-9161952D01*
X7917857Y-9142905D01*
X7917857Y-8971476D01*
X8098809Y-9161952D02*
X8079762Y-9171476D01*
X8041667Y-9171476D01*
X8022619Y-9161952D01*
X8013095Y-9142905D01*
X8013095Y-9066714D01*
X8022619Y-9047667D01*
X8041667Y-9038143D01*
X8079762Y-9038143D01*
X8098809Y-9047667D01*
X8108333Y-9066714D01*
X8108333Y-9085762D01*
X8013095Y-9104810D01*
X8184524Y-9161952D02*
X8203571Y-9171476D01*
X8241667Y-9171476D01*
X8260714Y-9161952D01*
X8270238Y-9142905D01*
X8270238Y-9133381D01*
X8260714Y-9114333D01*
X8241667Y-9104810D01*
X8213095Y-9104810D01*
X8194048Y-9095286D01*
X8184524Y-9076238D01*
X8184524Y-9066714D01*
X8194048Y-9047667D01*
X8213095Y-9038143D01*
X8241667Y-9038143D01*
X8260714Y-9047667D01*
X8336905Y-9247667D02*
X8346428Y-9238143D01*
X8365476Y-9209571D01*
X8375000Y-9190524D01*
X8384524Y-9161952D01*
X8394048Y-9114333D01*
X8394048Y-9076238D01*
X8384524Y-9028619D01*
X8375000Y-9000048D01*
X8365476Y-8981000D01*
X8346428Y-8952429D01*
X8336905Y-8942905D01*
M02*
