G04 #@! TF.GenerationSoftware,KiCad,Pcbnew,6.0.11-2627ca5db0~126~ubuntu22.04.1*
G04 #@! TF.CreationDate,2023-04-26T19:26:48+03:00*
G04 #@! TF.ProjectId,layzspa-wifi-remote,6c61797a-7370-4612-9d77-6966692d7265,rev?*
G04 #@! TF.SameCoordinates,Original*
G04 #@! TF.FileFunction,Legend,Top*
G04 #@! TF.FilePolarity,Positive*
%FSLAX46Y46*%
G04 Gerber Fmt 4.6, Leading zero omitted, Abs format (unit mm)*
G04 Created by KiCad (PCBNEW 6.0.11-2627ca5db0~126~ubuntu22.04.1) date 2023-04-26 19:26:48*
%MOMM*%
%LPD*%
G01*
G04 APERTURE LIST*
G04 Aperture macros list*
%AMRoundRect*
0 Rectangle with rounded corners*
0 $1 Rounding radius*
0 $2 $3 $4 $5 $6 $7 $8 $9 X,Y pos of 4 corners*
0 Add a 4 corners polygon primitive as box body*
4,1,4,$2,$3,$4,$5,$6,$7,$8,$9,$2,$3,0*
0 Add four circle primitives for the rounded corners*
1,1,$1+$1,$2,$3*
1,1,$1+$1,$4,$5*
1,1,$1+$1,$6,$7*
1,1,$1+$1,$8,$9*
0 Add four rect primitives between the rounded corners*
20,1,$1+$1,$2,$3,$4,$5,0*
20,1,$1+$1,$4,$5,$6,$7,0*
20,1,$1+$1,$6,$7,$8,$9,0*
20,1,$1+$1,$8,$9,$2,$3,0*%
G04 Aperture macros list end*
%ADD10C,0.200000*%
%ADD11C,0.300000*%
%ADD12C,0.250000*%
%ADD13C,0.150000*%
%ADD14C,0.120000*%
%ADD15C,0.127000*%
%ADD16R,1.700000X1.700000*%
%ADD17O,1.700000X1.700000*%
%ADD18R,2.000000X2.000000*%
%ADD19O,1.600000X2.000000*%
%ADD20RoundRect,0.250000X-0.400000X-0.625000X0.400000X-0.625000X0.400000X0.625000X-0.400000X0.625000X0*%
%ADD21C,1.600000*%
%ADD22RoundRect,0.250000X0.400000X0.625000X-0.400000X0.625000X-0.400000X-0.625000X0.400000X-0.625000X0*%
%ADD23C,3.600000*%
%ADD24C,5.700000*%
%ADD25C,1.524000*%
%ADD26R,1.524000X1.524000*%
G04 APERTURE END LIST*
D10*
X85608928Y-54192857D02*
X85537500Y-54335714D01*
X85466071Y-54407142D01*
X85323214Y-54478571D01*
X85251785Y-54478571D01*
X85108928Y-54407142D01*
X85037500Y-54335714D01*
X84966071Y-54192857D01*
X84966071Y-53907142D01*
X85037500Y-53764285D01*
X85108928Y-53692857D01*
X85251785Y-53621428D01*
X85323214Y-53621428D01*
X85466071Y-53692857D01*
X85537500Y-53764285D01*
X85608928Y-53907142D01*
X85608928Y-54192857D01*
X85680357Y-54335714D01*
X85751785Y-54407142D01*
X85894642Y-54478571D01*
X86180357Y-54478571D01*
X86323214Y-54407142D01*
X86394642Y-54335714D01*
X86466071Y-54192857D01*
X86466071Y-53907142D01*
X86394642Y-53764285D01*
X86323214Y-53692857D01*
X86180357Y-53621428D01*
X85894642Y-53621428D01*
X85751785Y-53692857D01*
X85680357Y-53764285D01*
X85608928Y-53907142D01*
X86394642Y-51192857D02*
X86466071Y-51335714D01*
X86466071Y-51621428D01*
X86394642Y-51764285D01*
X86323214Y-51835714D01*
X86180357Y-51907142D01*
X85751785Y-51907142D01*
X85608928Y-51835714D01*
X85537500Y-51764285D01*
X85466071Y-51621428D01*
X85466071Y-51335714D01*
X85537500Y-51192857D01*
X86466071Y-50550000D02*
X84966071Y-50550000D01*
X86466071Y-49907142D02*
X85680357Y-49907142D01*
X85537500Y-49978571D01*
X85466071Y-50121428D01*
X85466071Y-50335714D01*
X85537500Y-50478571D01*
X85608928Y-50550000D01*
X86466071Y-48550000D02*
X85680357Y-48550000D01*
X85537500Y-48621428D01*
X85466071Y-48764285D01*
X85466071Y-49050000D01*
X85537500Y-49192857D01*
X86394642Y-48550000D02*
X86466071Y-48692857D01*
X86466071Y-49050000D01*
X86394642Y-49192857D01*
X86251785Y-49264285D01*
X86108928Y-49264285D01*
X85966071Y-49192857D01*
X85894642Y-49050000D01*
X85894642Y-48692857D01*
X85823214Y-48550000D01*
X85466071Y-47835714D02*
X86466071Y-47835714D01*
X85608928Y-47835714D02*
X85537500Y-47764285D01*
X85466071Y-47621428D01*
X85466071Y-47407142D01*
X85537500Y-47264285D01*
X85680357Y-47192857D01*
X86466071Y-47192857D01*
X88881071Y-56764285D02*
X88881071Y-57478571D01*
X87381071Y-57478571D01*
X88881071Y-55550000D02*
X88881071Y-56264285D01*
X87381071Y-56264285D01*
X88738214Y-54192857D02*
X88809642Y-54264285D01*
X88881071Y-54478571D01*
X88881071Y-54621428D01*
X88809642Y-54835714D01*
X88666785Y-54978571D01*
X88523928Y-55050000D01*
X88238214Y-55121428D01*
X88023928Y-55121428D01*
X87738214Y-55050000D01*
X87595357Y-54978571D01*
X87452500Y-54835714D01*
X87381071Y-54621428D01*
X87381071Y-54478571D01*
X87452500Y-54264285D01*
X87523928Y-54192857D01*
X87381071Y-52550000D02*
X87381071Y-51621428D01*
X87952500Y-52121428D01*
X87952500Y-51907142D01*
X88023928Y-51764285D01*
X88095357Y-51692857D01*
X88238214Y-51621428D01*
X88595357Y-51621428D01*
X88738214Y-51692857D01*
X88809642Y-51764285D01*
X88881071Y-51907142D01*
X88881071Y-52335714D01*
X88809642Y-52478571D01*
X88738214Y-52550000D01*
X88738214Y-50978571D02*
X88809642Y-50907142D01*
X88881071Y-50978571D01*
X88809642Y-51050000D01*
X88738214Y-50978571D01*
X88881071Y-50978571D01*
X87381071Y-50407142D02*
X87381071Y-49478571D01*
X87952500Y-49978571D01*
X87952500Y-49764285D01*
X88023928Y-49621428D01*
X88095357Y-49550000D01*
X88238214Y-49478571D01*
X88595357Y-49478571D01*
X88738214Y-49550000D01*
X88809642Y-49621428D01*
X88881071Y-49764285D01*
X88881071Y-50192857D01*
X88809642Y-50335714D01*
X88738214Y-50407142D01*
X87309642Y-47764285D02*
X89238214Y-49050000D01*
X87381071Y-46550000D02*
X87381071Y-47264285D01*
X88095357Y-47335714D01*
X88023928Y-47264285D01*
X87952500Y-47121428D01*
X87952500Y-46764285D01*
X88023928Y-46621428D01*
X88095357Y-46550000D01*
X88238214Y-46478571D01*
X88595357Y-46478571D01*
X88738214Y-46550000D01*
X88809642Y-46621428D01*
X88881071Y-46764285D01*
X88881071Y-47121428D01*
X88809642Y-47264285D01*
X88738214Y-47335714D01*
X87381071Y-44907142D02*
X88881071Y-44407142D01*
X87381071Y-43907142D01*
X44961071Y-54228571D02*
X46461071Y-53871428D01*
X45389642Y-53585714D01*
X46461071Y-53300000D01*
X44961071Y-52942857D01*
X46389642Y-51800000D02*
X46461071Y-51942857D01*
X46461071Y-52228571D01*
X46389642Y-52371428D01*
X46246785Y-52442857D01*
X45675357Y-52442857D01*
X45532500Y-52371428D01*
X45461071Y-52228571D01*
X45461071Y-51942857D01*
X45532500Y-51800000D01*
X45675357Y-51728571D01*
X45818214Y-51728571D01*
X45961071Y-52442857D01*
X46461071Y-51085714D02*
X44961071Y-51085714D01*
X46032500Y-50585714D01*
X44961071Y-50085714D01*
X46461071Y-50085714D01*
X46461071Y-49157142D02*
X46389642Y-49300000D01*
X46318214Y-49371428D01*
X46175357Y-49442857D01*
X45746785Y-49442857D01*
X45603928Y-49371428D01*
X45532500Y-49300000D01*
X45461071Y-49157142D01*
X45461071Y-48942857D01*
X45532500Y-48800000D01*
X45603928Y-48728571D01*
X45746785Y-48657142D01*
X46175357Y-48657142D01*
X46318214Y-48728571D01*
X46389642Y-48800000D01*
X46461071Y-48942857D01*
X46461071Y-49157142D01*
X46389642Y-48085714D02*
X46461071Y-47942857D01*
X46461071Y-47657142D01*
X46389642Y-47514285D01*
X46246785Y-47442857D01*
X46175357Y-47442857D01*
X46032500Y-47514285D01*
X45961071Y-47657142D01*
X45961071Y-47871428D01*
X45889642Y-48014285D01*
X45746785Y-48085714D01*
X45675357Y-48085714D01*
X45532500Y-48014285D01*
X45461071Y-47871428D01*
X45461071Y-47657142D01*
X45532500Y-47514285D01*
X48876071Y-54728571D02*
X47376071Y-54728571D01*
X47376071Y-54371428D01*
X47447500Y-54157142D01*
X47590357Y-54014285D01*
X47733214Y-53942857D01*
X48018928Y-53871428D01*
X48233214Y-53871428D01*
X48518928Y-53942857D01*
X48661785Y-54014285D01*
X48804642Y-54157142D01*
X48876071Y-54371428D01*
X48876071Y-54728571D01*
X48876071Y-52442857D02*
X48876071Y-53300000D01*
X48876071Y-52871428D02*
X47376071Y-52871428D01*
X47590357Y-53014285D01*
X47733214Y-53157142D01*
X47804642Y-53300000D01*
X48876071Y-50657142D02*
X47376071Y-50657142D01*
X48447500Y-50157142D01*
X47376071Y-49657142D01*
X48876071Y-49657142D01*
X48876071Y-48942857D02*
X47876071Y-48942857D01*
X47376071Y-48942857D02*
X47447500Y-49014285D01*
X47518928Y-48942857D01*
X47447500Y-48871428D01*
X47376071Y-48942857D01*
X47518928Y-48942857D01*
X47876071Y-48228571D02*
X48876071Y-48228571D01*
X48018928Y-48228571D02*
X47947500Y-48157142D01*
X47876071Y-48014285D01*
X47876071Y-47800000D01*
X47947500Y-47657142D01*
X48090357Y-47585714D01*
X48876071Y-47585714D01*
X48876071Y-46871428D02*
X47876071Y-46871428D01*
X47376071Y-46871428D02*
X47447500Y-46942857D01*
X47518928Y-46871428D01*
X47447500Y-46800000D01*
X47376071Y-46871428D01*
X47518928Y-46871428D01*
D11*
X43688571Y-31679761D02*
X43688571Y-29679761D01*
X43688571Y-30441666D02*
X43879047Y-30346428D01*
X44260000Y-30346428D01*
X44450476Y-30441666D01*
X44545714Y-30536904D01*
X44640952Y-30727380D01*
X44640952Y-31298809D01*
X44545714Y-31489285D01*
X44450476Y-31584523D01*
X44260000Y-31679761D01*
X43879047Y-31679761D01*
X43688571Y-31584523D01*
X45307619Y-30346428D02*
X45783809Y-31679761D01*
X46260000Y-30346428D02*
X45783809Y-31679761D01*
X45593333Y-32155952D01*
X45498095Y-32251190D01*
X45307619Y-32346428D01*
X48450476Y-31584523D02*
X48640952Y-31679761D01*
X49021904Y-31679761D01*
X49212380Y-31584523D01*
X49307619Y-31394047D01*
X49307619Y-31298809D01*
X49212380Y-31108333D01*
X49021904Y-31013095D01*
X48736190Y-31013095D01*
X48545714Y-30917857D01*
X48450476Y-30727380D01*
X48450476Y-30632142D01*
X48545714Y-30441666D01*
X48736190Y-30346428D01*
X49021904Y-30346428D01*
X49212380Y-30441666D01*
X50164761Y-30346428D02*
X50164761Y-32060714D01*
X50069523Y-32251190D01*
X49879047Y-32346428D01*
X49783809Y-32346428D01*
X50164761Y-29679761D02*
X50069523Y-29775000D01*
X50164761Y-29870238D01*
X50260000Y-29775000D01*
X50164761Y-29679761D01*
X50164761Y-29870238D01*
X51117142Y-31679761D02*
X51117142Y-30346428D01*
X51117142Y-30536904D02*
X51212380Y-30441666D01*
X51402857Y-30346428D01*
X51688571Y-30346428D01*
X51879047Y-30441666D01*
X51974285Y-30632142D01*
X51974285Y-31679761D01*
X51974285Y-30632142D02*
X52069523Y-30441666D01*
X52260000Y-30346428D01*
X52545714Y-30346428D01*
X52736190Y-30441666D01*
X52831428Y-30632142D01*
X52831428Y-31679761D01*
X41879047Y-33090238D02*
X41974285Y-32995000D01*
X42164761Y-32899761D01*
X42640952Y-32899761D01*
X42831428Y-32995000D01*
X42926666Y-33090238D01*
X43021904Y-33280714D01*
X43021904Y-33471190D01*
X42926666Y-33756904D01*
X41783809Y-34899761D01*
X43021904Y-34899761D01*
X44260000Y-32899761D02*
X44450476Y-32899761D01*
X44640952Y-32995000D01*
X44736190Y-33090238D01*
X44831428Y-33280714D01*
X44926666Y-33661666D01*
X44926666Y-34137857D01*
X44831428Y-34518809D01*
X44736190Y-34709285D01*
X44640952Y-34804523D01*
X44450476Y-34899761D01*
X44260000Y-34899761D01*
X44069523Y-34804523D01*
X43974285Y-34709285D01*
X43879047Y-34518809D01*
X43783809Y-34137857D01*
X43783809Y-33661666D01*
X43879047Y-33280714D01*
X43974285Y-33090238D01*
X44069523Y-32995000D01*
X44260000Y-32899761D01*
X45688571Y-33090238D02*
X45783809Y-32995000D01*
X45974285Y-32899761D01*
X46450476Y-32899761D01*
X46640952Y-32995000D01*
X46736190Y-33090238D01*
X46831428Y-33280714D01*
X46831428Y-33471190D01*
X46736190Y-33756904D01*
X45593333Y-34899761D01*
X46831428Y-34899761D01*
X47498095Y-32899761D02*
X48736190Y-32899761D01*
X48069523Y-33661666D01*
X48355238Y-33661666D01*
X48545714Y-33756904D01*
X48640952Y-33852142D01*
X48736190Y-34042619D01*
X48736190Y-34518809D01*
X48640952Y-34709285D01*
X48545714Y-34804523D01*
X48355238Y-34899761D01*
X47783809Y-34899761D01*
X47593333Y-34804523D01*
X47498095Y-34709285D01*
X51021904Y-32804523D02*
X49307619Y-35375952D01*
X52069523Y-32899761D02*
X52260000Y-32899761D01*
X52450476Y-32995000D01*
X52545714Y-33090238D01*
X52640952Y-33280714D01*
X52736190Y-33661666D01*
X52736190Y-34137857D01*
X52640952Y-34518809D01*
X52545714Y-34709285D01*
X52450476Y-34804523D01*
X52260000Y-34899761D01*
X52069523Y-34899761D01*
X51879047Y-34804523D01*
X51783809Y-34709285D01*
X51688571Y-34518809D01*
X51593333Y-34137857D01*
X51593333Y-33661666D01*
X51688571Y-33280714D01*
X51783809Y-33090238D01*
X51879047Y-32995000D01*
X52069523Y-32899761D01*
X54450476Y-33566428D02*
X54450476Y-34899761D01*
X53974285Y-32804523D02*
X53498095Y-34233095D01*
X54736190Y-34233095D01*
X69915476Y-31384761D02*
X69915476Y-29384761D01*
X70582142Y-30813333D01*
X71248809Y-29384761D01*
X71248809Y-31384761D01*
X72201190Y-31384761D02*
X72201190Y-30051428D01*
X72201190Y-29384761D02*
X72105952Y-29480000D01*
X72201190Y-29575238D01*
X72296428Y-29480000D01*
X72201190Y-29384761D01*
X72201190Y-29575238D01*
X73153571Y-31384761D02*
X73153571Y-29384761D01*
X73344047Y-30622857D02*
X73915476Y-31384761D01*
X73915476Y-30051428D02*
X73153571Y-30813333D01*
X75534523Y-31289523D02*
X75344047Y-31384761D01*
X74963095Y-31384761D01*
X74772619Y-31289523D01*
X74677380Y-31099047D01*
X74677380Y-30337142D01*
X74772619Y-30146666D01*
X74963095Y-30051428D01*
X75344047Y-30051428D01*
X75534523Y-30146666D01*
X75629761Y-30337142D01*
X75629761Y-30527619D01*
X74677380Y-30718095D01*
X76582142Y-29384761D02*
X76391666Y-29765714D01*
X77344047Y-31289523D02*
X77534523Y-31384761D01*
X77915476Y-31384761D01*
X78105952Y-31289523D01*
X78201190Y-31099047D01*
X78201190Y-31003809D01*
X78105952Y-30813333D01*
X77915476Y-30718095D01*
X77629761Y-30718095D01*
X77439285Y-30622857D01*
X77344047Y-30432380D01*
X77344047Y-30337142D01*
X77439285Y-30146666D01*
X77629761Y-30051428D01*
X77915476Y-30051428D01*
X78105952Y-30146666D01*
X80486904Y-31289523D02*
X80772619Y-31384761D01*
X81248809Y-31384761D01*
X81439285Y-31289523D01*
X81534523Y-31194285D01*
X81629761Y-31003809D01*
X81629761Y-30813333D01*
X81534523Y-30622857D01*
X81439285Y-30527619D01*
X81248809Y-30432380D01*
X80867857Y-30337142D01*
X80677380Y-30241904D01*
X80582142Y-30146666D01*
X80486904Y-29956190D01*
X80486904Y-29765714D01*
X80582142Y-29575238D01*
X80677380Y-29480000D01*
X80867857Y-29384761D01*
X81344047Y-29384761D01*
X81629761Y-29480000D01*
X82486904Y-30051428D02*
X82486904Y-32051428D01*
X82486904Y-30146666D02*
X82677380Y-30051428D01*
X83058333Y-30051428D01*
X83248809Y-30146666D01*
X83344047Y-30241904D01*
X83439285Y-30432380D01*
X83439285Y-31003809D01*
X83344047Y-31194285D01*
X83248809Y-31289523D01*
X83058333Y-31384761D01*
X82677380Y-31384761D01*
X82486904Y-31289523D01*
X85153571Y-31384761D02*
X85153571Y-30337142D01*
X85058333Y-30146666D01*
X84867857Y-30051428D01*
X84486904Y-30051428D01*
X84296428Y-30146666D01*
X85153571Y-31289523D02*
X84963095Y-31384761D01*
X84486904Y-31384761D01*
X84296428Y-31289523D01*
X84201190Y-31099047D01*
X84201190Y-30908571D01*
X84296428Y-30718095D01*
X84486904Y-30622857D01*
X84963095Y-30622857D01*
X85153571Y-30527619D01*
X88772619Y-31194285D02*
X88677380Y-31289523D01*
X88391666Y-31384761D01*
X88201190Y-31384761D01*
X87915476Y-31289523D01*
X87725000Y-31099047D01*
X87629761Y-30908571D01*
X87534523Y-30527619D01*
X87534523Y-30241904D01*
X87629761Y-29860952D01*
X87725000Y-29670476D01*
X87915476Y-29480000D01*
X88201190Y-29384761D01*
X88391666Y-29384761D01*
X88677380Y-29480000D01*
X88772619Y-29575238D01*
X89915476Y-31384761D02*
X89725000Y-31289523D01*
X89629761Y-31194285D01*
X89534523Y-31003809D01*
X89534523Y-30432380D01*
X89629761Y-30241904D01*
X89725000Y-30146666D01*
X89915476Y-30051428D01*
X90201190Y-30051428D01*
X90391666Y-30146666D01*
X90486904Y-30241904D01*
X90582142Y-30432380D01*
X90582142Y-31003809D01*
X90486904Y-31194285D01*
X90391666Y-31289523D01*
X90201190Y-31384761D01*
X89915476Y-31384761D01*
X91439285Y-30051428D02*
X91439285Y-31384761D01*
X91439285Y-30241904D02*
X91534523Y-30146666D01*
X91725000Y-30051428D01*
X92010714Y-30051428D01*
X92201190Y-30146666D01*
X92296428Y-30337142D01*
X92296428Y-31384761D01*
X92963095Y-30051428D02*
X93725000Y-30051428D01*
X93248809Y-29384761D02*
X93248809Y-31099047D01*
X93344047Y-31289523D01*
X93534523Y-31384761D01*
X93725000Y-31384761D01*
X94391666Y-31384761D02*
X94391666Y-30051428D01*
X94391666Y-30432380D02*
X94486904Y-30241904D01*
X94582142Y-30146666D01*
X94772619Y-30051428D01*
X94963095Y-30051428D01*
X95915476Y-31384761D02*
X95725000Y-31289523D01*
X95629761Y-31194285D01*
X95534523Y-31003809D01*
X95534523Y-30432380D01*
X95629761Y-30241904D01*
X95725000Y-30146666D01*
X95915476Y-30051428D01*
X96201190Y-30051428D01*
X96391666Y-30146666D01*
X96486904Y-30241904D01*
X96582142Y-30432380D01*
X96582142Y-31003809D01*
X96486904Y-31194285D01*
X96391666Y-31289523D01*
X96201190Y-31384761D01*
X95915476Y-31384761D01*
X97725000Y-31384761D02*
X97534523Y-31289523D01*
X97439285Y-31099047D01*
X97439285Y-29384761D01*
X98772619Y-31384761D02*
X98582142Y-31289523D01*
X98486904Y-31099047D01*
X98486904Y-29384761D01*
X100296428Y-31289523D02*
X100105952Y-31384761D01*
X99725000Y-31384761D01*
X99534523Y-31289523D01*
X99439285Y-31099047D01*
X99439285Y-30337142D01*
X99534523Y-30146666D01*
X99725000Y-30051428D01*
X100105952Y-30051428D01*
X100296428Y-30146666D01*
X100391666Y-30337142D01*
X100391666Y-30527619D01*
X99439285Y-30718095D01*
X101248809Y-31384761D02*
X101248809Y-30051428D01*
X101248809Y-30432380D02*
X101344047Y-30241904D01*
X101439285Y-30146666D01*
X101629761Y-30051428D01*
X101820238Y-30051428D01*
D12*
X75184047Y-54046428D02*
X75945952Y-54046428D01*
X75565000Y-54427380D02*
X75565000Y-53665476D01*
X94869047Y-51506428D02*
X95630952Y-51506428D01*
X95250000Y-51887380D02*
X95250000Y-51125476D01*
X90043095Y-69350000D02*
X89947857Y-69302380D01*
X89805000Y-69302380D01*
X89662142Y-69350000D01*
X89566904Y-69445238D01*
X89519285Y-69540476D01*
X89471666Y-69730952D01*
X89471666Y-69873809D01*
X89519285Y-70064285D01*
X89566904Y-70159523D01*
X89662142Y-70254761D01*
X89805000Y-70302380D01*
X89900238Y-70302380D01*
X90043095Y-70254761D01*
X90090714Y-70207142D01*
X90090714Y-69873809D01*
X89900238Y-69873809D01*
X90519285Y-70302380D02*
X90519285Y-69302380D01*
X91090714Y-70302380D01*
X91090714Y-69302380D01*
X91566904Y-70302380D02*
X91566904Y-69302380D01*
X91805000Y-69302380D01*
X91947857Y-69350000D01*
X92043095Y-69445238D01*
X92090714Y-69540476D01*
X92138333Y-69730952D01*
X92138333Y-69873809D01*
X92090714Y-70064285D01*
X92043095Y-70159523D01*
X91947857Y-70254761D01*
X91805000Y-70302380D01*
X91566904Y-70302380D01*
X65024047Y-31821428D02*
X65785952Y-31821428D01*
X65405000Y-32202380D02*
X65405000Y-31440476D01*
X65024047Y-69921428D02*
X65785952Y-69921428D01*
X65405000Y-70302380D02*
X65405000Y-69540476D01*
X89519285Y-68016428D02*
X90281190Y-68016428D01*
X89900238Y-68397380D02*
X89900238Y-67635476D01*
X90662142Y-67397380D02*
X91281190Y-67397380D01*
X90947857Y-67778333D01*
X91090714Y-67778333D01*
X91185952Y-67825952D01*
X91233571Y-67873571D01*
X91281190Y-67968809D01*
X91281190Y-68206904D01*
X91233571Y-68302142D01*
X91185952Y-68349761D01*
X91090714Y-68397380D01*
X90805000Y-68397380D01*
X90709761Y-68349761D01*
X90662142Y-68302142D01*
X91566904Y-67397380D02*
X91900238Y-68397380D01*
X92233571Y-67397380D01*
D13*
X110577380Y-57483333D02*
X111291666Y-57483333D01*
X111434523Y-57530952D01*
X111529761Y-57626190D01*
X111577380Y-57769047D01*
X111577380Y-57864285D01*
X110672619Y-57054761D02*
X110625000Y-57007142D01*
X110577380Y-56911904D01*
X110577380Y-56673809D01*
X110625000Y-56578571D01*
X110672619Y-56530952D01*
X110767857Y-56483333D01*
X110863095Y-56483333D01*
X111005952Y-56530952D01*
X111577380Y-57102380D01*
X111577380Y-56483333D01*
X69723095Y-35647380D02*
X69723095Y-36456904D01*
X69770714Y-36552142D01*
X69818333Y-36599761D01*
X69913571Y-36647380D01*
X70104047Y-36647380D01*
X70199285Y-36599761D01*
X70246904Y-36552142D01*
X70294523Y-36456904D01*
X70294523Y-35647380D01*
X71294523Y-36647380D02*
X70723095Y-36647380D01*
X71008809Y-36647380D02*
X71008809Y-35647380D01*
X70913571Y-35790238D01*
X70818333Y-35885476D01*
X70723095Y-35933095D01*
X69700000Y-70302380D02*
X69400000Y-69826190D01*
X69185714Y-70302380D02*
X69185714Y-69302380D01*
X69528571Y-69302380D01*
X69614285Y-69350000D01*
X69657142Y-69397619D01*
X69700000Y-69492857D01*
X69700000Y-69635714D01*
X69657142Y-69730952D01*
X69614285Y-69778571D01*
X69528571Y-69826190D01*
X69185714Y-69826190D01*
X70557142Y-70302380D02*
X70042857Y-70302380D01*
X70300000Y-70302380D02*
X70300000Y-69302380D01*
X70214285Y-69445238D01*
X70128571Y-69540476D01*
X70042857Y-69588095D01*
X101393333Y-48617142D02*
X101345714Y-48664761D01*
X101202857Y-48712380D01*
X101107619Y-48712380D01*
X100964761Y-48664761D01*
X100869523Y-48569523D01*
X100821904Y-48474285D01*
X100774285Y-48283809D01*
X100774285Y-48140952D01*
X100821904Y-47950476D01*
X100869523Y-47855238D01*
X100964761Y-47760000D01*
X101107619Y-47712380D01*
X101202857Y-47712380D01*
X101345714Y-47760000D01*
X101393333Y-47807619D01*
X101726666Y-47712380D02*
X102393333Y-47712380D01*
X101964761Y-48712380D01*
X103355000Y-44902380D02*
X103055000Y-44426190D01*
X102840714Y-44902380D02*
X102840714Y-43902380D01*
X103183571Y-43902380D01*
X103269285Y-43950000D01*
X103312142Y-43997619D01*
X103355000Y-44092857D01*
X103355000Y-44235714D01*
X103312142Y-44330952D01*
X103269285Y-44378571D01*
X103183571Y-44426190D01*
X102840714Y-44426190D01*
X104126428Y-44235714D02*
X104126428Y-44902380D01*
X103912142Y-43854761D02*
X103697857Y-44569047D01*
X104255000Y-44569047D01*
X95607142Y-36996666D02*
X95654761Y-37044285D01*
X95702380Y-37187142D01*
X95702380Y-37282380D01*
X95654761Y-37425238D01*
X95559523Y-37520476D01*
X95464285Y-37568095D01*
X95273809Y-37615714D01*
X95130952Y-37615714D01*
X94940476Y-37568095D01*
X94845238Y-37520476D01*
X94750000Y-37425238D01*
X94702380Y-37282380D01*
X94702380Y-37187142D01*
X94750000Y-37044285D01*
X94797619Y-36996666D01*
X94702380Y-36091904D02*
X94702380Y-36568095D01*
X95178571Y-36615714D01*
X95130952Y-36568095D01*
X95083333Y-36472857D01*
X95083333Y-36234761D01*
X95130952Y-36139523D01*
X95178571Y-36091904D01*
X95273809Y-36044285D01*
X95511904Y-36044285D01*
X95607142Y-36091904D01*
X95654761Y-36139523D01*
X95702380Y-36234761D01*
X95702380Y-36472857D01*
X95654761Y-36568095D01*
X95607142Y-36615714D01*
X60793333Y-32107142D02*
X60745714Y-32154761D01*
X60602857Y-32202380D01*
X60507619Y-32202380D01*
X60364761Y-32154761D01*
X60269523Y-32059523D01*
X60221904Y-31964285D01*
X60174285Y-31773809D01*
X60174285Y-31630952D01*
X60221904Y-31440476D01*
X60269523Y-31345238D01*
X60364761Y-31250000D01*
X60507619Y-31202380D01*
X60602857Y-31202380D01*
X60745714Y-31250000D01*
X60793333Y-31297619D01*
X61745714Y-32202380D02*
X61174285Y-32202380D01*
X61460000Y-32202380D02*
X61460000Y-31202380D01*
X61364761Y-31345238D01*
X61269523Y-31440476D01*
X61174285Y-31488095D01*
X84963095Y-35012380D02*
X84963095Y-35821904D01*
X85010714Y-35917142D01*
X85058333Y-35964761D01*
X85153571Y-36012380D01*
X85344047Y-36012380D01*
X85439285Y-35964761D01*
X85486904Y-35917142D01*
X85534523Y-35821904D01*
X85534523Y-35012380D01*
X85963095Y-35107619D02*
X86010714Y-35060000D01*
X86105952Y-35012380D01*
X86344047Y-35012380D01*
X86439285Y-35060000D01*
X86486904Y-35107619D01*
X86534523Y-35202857D01*
X86534523Y-35298095D01*
X86486904Y-35440952D01*
X85915476Y-36012380D01*
X86534523Y-36012380D01*
X103355000Y-65857380D02*
X103055000Y-65381190D01*
X102840714Y-65857380D02*
X102840714Y-64857380D01*
X103183571Y-64857380D01*
X103269285Y-64905000D01*
X103312142Y-64952619D01*
X103355000Y-65047857D01*
X103355000Y-65190714D01*
X103312142Y-65285952D01*
X103269285Y-65333571D01*
X103183571Y-65381190D01*
X102840714Y-65381190D01*
X103655000Y-64857380D02*
X104255000Y-64857380D01*
X103869285Y-65857380D01*
X95607142Y-68587857D02*
X95654761Y-68635476D01*
X95702380Y-68778333D01*
X95702380Y-68873571D01*
X95654761Y-69016428D01*
X95559523Y-69111666D01*
X95464285Y-69159285D01*
X95273809Y-69206904D01*
X95130952Y-69206904D01*
X94940476Y-69159285D01*
X94845238Y-69111666D01*
X94750000Y-69016428D01*
X94702380Y-68873571D01*
X94702380Y-68778333D01*
X94750000Y-68635476D01*
X94797619Y-68587857D01*
X95702380Y-67635476D02*
X95702380Y-68206904D01*
X95702380Y-67921190D02*
X94702380Y-67921190D01*
X94845238Y-68016428D01*
X94940476Y-68111666D01*
X94988095Y-68206904D01*
X95702380Y-66683095D02*
X95702380Y-67254523D01*
X95702380Y-66968809D02*
X94702380Y-66968809D01*
X94845238Y-67064047D01*
X94940476Y-67159285D01*
X94988095Y-67254523D01*
X99417142Y-68587857D02*
X99464761Y-68635476D01*
X99512380Y-68778333D01*
X99512380Y-68873571D01*
X99464761Y-69016428D01*
X99369523Y-69111666D01*
X99274285Y-69159285D01*
X99083809Y-69206904D01*
X98940952Y-69206904D01*
X98750476Y-69159285D01*
X98655238Y-69111666D01*
X98560000Y-69016428D01*
X98512380Y-68873571D01*
X98512380Y-68778333D01*
X98560000Y-68635476D01*
X98607619Y-68587857D01*
X99512380Y-67635476D02*
X99512380Y-68206904D01*
X99512380Y-67921190D02*
X98512380Y-67921190D01*
X98655238Y-68016428D01*
X98750476Y-68111666D01*
X98798095Y-68206904D01*
X98512380Y-67016428D02*
X98512380Y-66921190D01*
X98560000Y-66825952D01*
X98607619Y-66778333D01*
X98702857Y-66730714D01*
X98893333Y-66683095D01*
X99131428Y-66683095D01*
X99321904Y-66730714D01*
X99417142Y-66778333D01*
X99464761Y-66825952D01*
X99512380Y-66921190D01*
X99512380Y-67016428D01*
X99464761Y-67111666D01*
X99417142Y-67159285D01*
X99321904Y-67206904D01*
X99131428Y-67254523D01*
X98893333Y-67254523D01*
X98702857Y-67206904D01*
X98607619Y-67159285D01*
X98560000Y-67111666D01*
X98512380Y-67016428D01*
X99417142Y-57951666D02*
X99464761Y-57999285D01*
X99512380Y-58142142D01*
X99512380Y-58237380D01*
X99464761Y-58380238D01*
X99369523Y-58475476D01*
X99274285Y-58523095D01*
X99083809Y-58570714D01*
X98940952Y-58570714D01*
X98750476Y-58523095D01*
X98655238Y-58475476D01*
X98560000Y-58380238D01*
X98512380Y-58237380D01*
X98512380Y-58142142D01*
X98560000Y-57999285D01*
X98607619Y-57951666D01*
X98940952Y-57380238D02*
X98893333Y-57475476D01*
X98845714Y-57523095D01*
X98750476Y-57570714D01*
X98702857Y-57570714D01*
X98607619Y-57523095D01*
X98560000Y-57475476D01*
X98512380Y-57380238D01*
X98512380Y-57189761D01*
X98560000Y-57094523D01*
X98607619Y-57046904D01*
X98702857Y-56999285D01*
X98750476Y-56999285D01*
X98845714Y-57046904D01*
X98893333Y-57094523D01*
X98940952Y-57189761D01*
X98940952Y-57380238D01*
X98988571Y-57475476D01*
X99036190Y-57523095D01*
X99131428Y-57570714D01*
X99321904Y-57570714D01*
X99417142Y-57523095D01*
X99464761Y-57475476D01*
X99512380Y-57380238D01*
X99512380Y-57189761D01*
X99464761Y-57094523D01*
X99417142Y-57046904D01*
X99321904Y-56999285D01*
X99131428Y-56999285D01*
X99036190Y-57046904D01*
X98988571Y-57094523D01*
X98940952Y-57189761D01*
X103355000Y-60777380D02*
X103055000Y-60301190D01*
X102840714Y-60777380D02*
X102840714Y-59777380D01*
X103183571Y-59777380D01*
X103269285Y-59825000D01*
X103312142Y-59872619D01*
X103355000Y-59967857D01*
X103355000Y-60110714D01*
X103312142Y-60205952D01*
X103269285Y-60253571D01*
X103183571Y-60301190D01*
X102840714Y-60301190D01*
X104169285Y-59777380D02*
X103740714Y-59777380D01*
X103697857Y-60253571D01*
X103740714Y-60205952D01*
X103826428Y-60158333D01*
X104040714Y-60158333D01*
X104126428Y-60205952D01*
X104169285Y-60253571D01*
X104212142Y-60348809D01*
X104212142Y-60586904D01*
X104169285Y-60682142D01*
X104126428Y-60729761D01*
X104040714Y-60777380D01*
X103826428Y-60777380D01*
X103740714Y-60729761D01*
X103697857Y-60682142D01*
X110450380Y-37163333D02*
X111164666Y-37163333D01*
X111307523Y-37210952D01*
X111402761Y-37306190D01*
X111450380Y-37449047D01*
X111450380Y-37544285D01*
X111450380Y-36163333D02*
X111450380Y-36734761D01*
X111450380Y-36449047D02*
X110450380Y-36449047D01*
X110593238Y-36544285D01*
X110688476Y-36639523D01*
X110736095Y-36734761D01*
X103355000Y-68397380D02*
X103055000Y-67921190D01*
X102840714Y-68397380D02*
X102840714Y-67397380D01*
X103183571Y-67397380D01*
X103269285Y-67445000D01*
X103312142Y-67492619D01*
X103355000Y-67587857D01*
X103355000Y-67730714D01*
X103312142Y-67825952D01*
X103269285Y-67873571D01*
X103183571Y-67921190D01*
X102840714Y-67921190D01*
X103869285Y-67825952D02*
X103783571Y-67778333D01*
X103740714Y-67730714D01*
X103697857Y-67635476D01*
X103697857Y-67587857D01*
X103740714Y-67492619D01*
X103783571Y-67445000D01*
X103869285Y-67397380D01*
X104040714Y-67397380D01*
X104126428Y-67445000D01*
X104169285Y-67492619D01*
X104212142Y-67587857D01*
X104212142Y-67635476D01*
X104169285Y-67730714D01*
X104126428Y-67778333D01*
X104040714Y-67825952D01*
X103869285Y-67825952D01*
X103783571Y-67873571D01*
X103740714Y-67921190D01*
X103697857Y-68016428D01*
X103697857Y-68206904D01*
X103740714Y-68302142D01*
X103783571Y-68349761D01*
X103869285Y-68397380D01*
X104040714Y-68397380D01*
X104126428Y-68349761D01*
X104169285Y-68302142D01*
X104212142Y-68206904D01*
X104212142Y-68016428D01*
X104169285Y-67921190D01*
X104126428Y-67873571D01*
X104040714Y-67825952D01*
X75922142Y-49696666D02*
X75969761Y-49744285D01*
X76017380Y-49887142D01*
X76017380Y-49982380D01*
X75969761Y-50125238D01*
X75874523Y-50220476D01*
X75779285Y-50268095D01*
X75588809Y-50315714D01*
X75445952Y-50315714D01*
X75255476Y-50268095D01*
X75160238Y-50220476D01*
X75065000Y-50125238D01*
X75017380Y-49982380D01*
X75017380Y-49887142D01*
X75065000Y-49744285D01*
X75112619Y-49696666D01*
X75017380Y-49363333D02*
X75017380Y-48744285D01*
X75398333Y-49077619D01*
X75398333Y-48934761D01*
X75445952Y-48839523D01*
X75493571Y-48791904D01*
X75588809Y-48744285D01*
X75826904Y-48744285D01*
X75922142Y-48791904D01*
X75969761Y-48839523D01*
X76017380Y-48934761D01*
X76017380Y-49220476D01*
X75969761Y-49315714D01*
X75922142Y-49363333D01*
X60793333Y-70207142D02*
X60745714Y-70254761D01*
X60602857Y-70302380D01*
X60507619Y-70302380D01*
X60364761Y-70254761D01*
X60269523Y-70159523D01*
X60221904Y-70064285D01*
X60174285Y-69873809D01*
X60174285Y-69730952D01*
X60221904Y-69540476D01*
X60269523Y-69445238D01*
X60364761Y-69350000D01*
X60507619Y-69302380D01*
X60602857Y-69302380D01*
X60745714Y-69350000D01*
X60793333Y-69397619D01*
X61174285Y-69397619D02*
X61221904Y-69350000D01*
X61317142Y-69302380D01*
X61555238Y-69302380D01*
X61650476Y-69350000D01*
X61698095Y-69397619D01*
X61745714Y-69492857D01*
X61745714Y-69588095D01*
X61698095Y-69730952D01*
X61126666Y-70302380D01*
X61745714Y-70302380D01*
X103355000Y-63317380D02*
X103055000Y-62841190D01*
X102840714Y-63317380D02*
X102840714Y-62317380D01*
X103183571Y-62317380D01*
X103269285Y-62365000D01*
X103312142Y-62412619D01*
X103355000Y-62507857D01*
X103355000Y-62650714D01*
X103312142Y-62745952D01*
X103269285Y-62793571D01*
X103183571Y-62841190D01*
X102840714Y-62841190D01*
X104126428Y-62317380D02*
X103955000Y-62317380D01*
X103869285Y-62365000D01*
X103826428Y-62412619D01*
X103740714Y-62555476D01*
X103697857Y-62745952D01*
X103697857Y-63126904D01*
X103740714Y-63222142D01*
X103783571Y-63269761D01*
X103869285Y-63317380D01*
X104040714Y-63317380D01*
X104126428Y-63269761D01*
X104169285Y-63222142D01*
X104212142Y-63126904D01*
X104212142Y-62888809D01*
X104169285Y-62793571D01*
X104126428Y-62745952D01*
X104040714Y-62698333D01*
X103869285Y-62698333D01*
X103783571Y-62745952D01*
X103740714Y-62793571D01*
X103697857Y-62888809D01*
X44116666Y-66127380D02*
X44116666Y-66841666D01*
X44069047Y-66984523D01*
X43973809Y-67079761D01*
X43830952Y-67127380D01*
X43735714Y-67127380D01*
X45021428Y-66460714D02*
X45021428Y-67127380D01*
X44783333Y-66079761D02*
X44545238Y-66794047D01*
X45164285Y-66794047D01*
X76628666Y-69307380D02*
X76628666Y-70021666D01*
X76581047Y-70164523D01*
X76485809Y-70259761D01*
X76342952Y-70307380D01*
X76247714Y-70307380D01*
X77009619Y-69307380D02*
X77628666Y-69307380D01*
X77295333Y-69688333D01*
X77438190Y-69688333D01*
X77533428Y-69735952D01*
X77581047Y-69783571D01*
X77628666Y-69878809D01*
X77628666Y-70116904D01*
X77581047Y-70212142D01*
X77533428Y-70259761D01*
X77438190Y-70307380D01*
X77152476Y-70307380D01*
X77057238Y-70259761D01*
X77009619Y-70212142D01*
X103355000Y-39822380D02*
X103055000Y-39346190D01*
X102840714Y-39822380D02*
X102840714Y-38822380D01*
X103183571Y-38822380D01*
X103269285Y-38870000D01*
X103312142Y-38917619D01*
X103355000Y-39012857D01*
X103355000Y-39155714D01*
X103312142Y-39250952D01*
X103269285Y-39298571D01*
X103183571Y-39346190D01*
X102840714Y-39346190D01*
X103697857Y-38917619D02*
X103740714Y-38870000D01*
X103826428Y-38822380D01*
X104040714Y-38822380D01*
X104126428Y-38870000D01*
X104169285Y-38917619D01*
X104212142Y-39012857D01*
X104212142Y-39108095D01*
X104169285Y-39250952D01*
X103655000Y-39822380D01*
X104212142Y-39822380D01*
X103355000Y-42362380D02*
X103055000Y-41886190D01*
X102840714Y-42362380D02*
X102840714Y-41362380D01*
X103183571Y-41362380D01*
X103269285Y-41410000D01*
X103312142Y-41457619D01*
X103355000Y-41552857D01*
X103355000Y-41695714D01*
X103312142Y-41790952D01*
X103269285Y-41838571D01*
X103183571Y-41886190D01*
X102840714Y-41886190D01*
X103655000Y-41362380D02*
X104212142Y-41362380D01*
X103912142Y-41743333D01*
X104040714Y-41743333D01*
X104126428Y-41790952D01*
X104169285Y-41838571D01*
X104212142Y-41933809D01*
X104212142Y-42171904D01*
X104169285Y-42267142D01*
X104126428Y-42314761D01*
X104040714Y-42362380D01*
X103783571Y-42362380D01*
X103697857Y-42314761D01*
X103655000Y-42267142D01*
X95607142Y-47156666D02*
X95654761Y-47204285D01*
X95702380Y-47347142D01*
X95702380Y-47442380D01*
X95654761Y-47585238D01*
X95559523Y-47680476D01*
X95464285Y-47728095D01*
X95273809Y-47775714D01*
X95130952Y-47775714D01*
X94940476Y-47728095D01*
X94845238Y-47680476D01*
X94750000Y-47585238D01*
X94702380Y-47442380D01*
X94702380Y-47347142D01*
X94750000Y-47204285D01*
X94797619Y-47156666D01*
X95035714Y-46299523D02*
X95702380Y-46299523D01*
X94654761Y-46537619D02*
X95369047Y-46775714D01*
X95369047Y-46156666D01*
X99417142Y-39536666D02*
X99464761Y-39584285D01*
X99512380Y-39727142D01*
X99512380Y-39822380D01*
X99464761Y-39965238D01*
X99369523Y-40060476D01*
X99274285Y-40108095D01*
X99083809Y-40155714D01*
X98940952Y-40155714D01*
X98750476Y-40108095D01*
X98655238Y-40060476D01*
X98560000Y-39965238D01*
X98512380Y-39822380D01*
X98512380Y-39727142D01*
X98560000Y-39584285D01*
X98607619Y-39536666D01*
X98512380Y-38679523D02*
X98512380Y-38870000D01*
X98560000Y-38965238D01*
X98607619Y-39012857D01*
X98750476Y-39108095D01*
X98940952Y-39155714D01*
X99321904Y-39155714D01*
X99417142Y-39108095D01*
X99464761Y-39060476D01*
X99512380Y-38965238D01*
X99512380Y-38774761D01*
X99464761Y-38679523D01*
X99417142Y-38631904D01*
X99321904Y-38584285D01*
X99083809Y-38584285D01*
X98988571Y-38631904D01*
X98940952Y-38679523D01*
X98893333Y-38774761D01*
X98893333Y-38965238D01*
X98940952Y-39060476D01*
X98988571Y-39108095D01*
X99083809Y-39155714D01*
X95607142Y-57951666D02*
X95654761Y-57999285D01*
X95702380Y-58142142D01*
X95702380Y-58237380D01*
X95654761Y-58380238D01*
X95559523Y-58475476D01*
X95464285Y-58523095D01*
X95273809Y-58570714D01*
X95130952Y-58570714D01*
X94940476Y-58523095D01*
X94845238Y-58475476D01*
X94750000Y-58380238D01*
X94702380Y-58237380D01*
X94702380Y-58142142D01*
X94750000Y-57999285D01*
X94797619Y-57951666D01*
X95702380Y-57475476D02*
X95702380Y-57285000D01*
X95654761Y-57189761D01*
X95607142Y-57142142D01*
X95464285Y-57046904D01*
X95273809Y-56999285D01*
X94892857Y-56999285D01*
X94797619Y-57046904D01*
X94750000Y-57094523D01*
X94702380Y-57189761D01*
X94702380Y-57380238D01*
X94750000Y-57475476D01*
X94797619Y-57523095D01*
X94892857Y-57570714D01*
X95130952Y-57570714D01*
X95226190Y-57523095D01*
X95273809Y-57475476D01*
X95321428Y-57380238D01*
X95321428Y-57189761D01*
X95273809Y-57094523D01*
X95226190Y-57046904D01*
X95130952Y-56999285D01*
D14*
X106620000Y-53430000D02*
X107950000Y-53430000D01*
X106620000Y-54760000D02*
X106620000Y-53430000D01*
X106620000Y-56030000D02*
X109280000Y-56030000D01*
X109280000Y-56030000D02*
X109280000Y-68790000D01*
X106620000Y-56030000D02*
X106620000Y-68790000D01*
X106620000Y-68790000D02*
X109280000Y-68790000D01*
X71840000Y-60705000D02*
X71840000Y-37385000D01*
X64940000Y-60705000D02*
X71840000Y-60705000D01*
X71840000Y-37385000D02*
X39510000Y-37385000D01*
X64940000Y-63245000D02*
X39510000Y-63245000D01*
X64940000Y-63245000D02*
X64940000Y-60705000D01*
X37380000Y-39505000D02*
X37380000Y-61115000D01*
X39510000Y-37385000D02*
G75*
G03*
X37380000Y-39515000I0J-2130000D01*
G01*
X37380000Y-61115000D02*
G75*
G03*
X39510000Y-63245000I2130002J2D01*
G01*
G36*
X46355000Y-64285000D02*
G01*
X45085000Y-64285000D01*
X45720000Y-63650000D01*
X46355000Y-64285000D01*
G37*
D13*
X46355000Y-64285000D02*
X45085000Y-64285000D01*
X45720000Y-63650000D01*
X46355000Y-64285000D01*
D14*
X69122936Y-70760000D02*
X70577064Y-70760000D01*
X69122936Y-68940000D02*
X70577064Y-68940000D01*
X104180000Y-49315000D02*
X104180000Y-49630000D01*
X98940000Y-46890000D02*
X98940000Y-47205000D01*
X98940000Y-49315000D02*
X98940000Y-49630000D01*
X98940000Y-46890000D02*
X104180000Y-46890000D01*
X98940000Y-49630000D02*
X104180000Y-49630000D01*
X104180000Y-46890000D02*
X104180000Y-47205000D01*
X104232064Y-43540000D02*
X102777936Y-43540000D01*
X104232064Y-45360000D02*
X102777936Y-45360000D01*
X93880000Y-39450000D02*
X93880000Y-34210000D01*
X93880000Y-39450000D02*
X94195000Y-39450000D01*
X96620000Y-39450000D02*
X96620000Y-34210000D01*
X93880000Y-34210000D02*
X94195000Y-34210000D01*
X96305000Y-34210000D02*
X96620000Y-34210000D01*
X96305000Y-39450000D02*
X96620000Y-39450000D01*
X63580000Y-30380000D02*
X58340000Y-30380000D01*
X58340000Y-33120000D02*
X58340000Y-32805000D01*
X63580000Y-33120000D02*
X58340000Y-33120000D01*
X63580000Y-30695000D02*
X63580000Y-30380000D01*
X58340000Y-30695000D02*
X58340000Y-30380000D01*
X63580000Y-33120000D02*
X63580000Y-32805000D01*
D15*
X92710000Y-64770000D02*
X78740000Y-64770000D01*
X92710000Y-36830000D02*
X92710000Y-64770000D01*
X78740000Y-64770000D02*
X78740000Y-36830000D01*
X78740000Y-36830000D02*
X92710000Y-36830000D01*
D14*
X104232064Y-66315000D02*
X102777936Y-66315000D01*
X104232064Y-64495000D02*
X102777936Y-64495000D01*
X96620000Y-65325000D02*
X96305000Y-65325000D01*
X94195000Y-65325000D02*
X93880000Y-65325000D01*
X93880000Y-65325000D02*
X93880000Y-70565000D01*
X94195000Y-70565000D02*
X93880000Y-70565000D01*
X96620000Y-70565000D02*
X96305000Y-70565000D01*
X96620000Y-65325000D02*
X96620000Y-70565000D01*
X98005000Y-65325000D02*
X97690000Y-65325000D01*
X100430000Y-70565000D02*
X100115000Y-70565000D01*
X100430000Y-65325000D02*
X100115000Y-65325000D01*
X97690000Y-65325000D02*
X97690000Y-70565000D01*
X98005000Y-70565000D02*
X97690000Y-70565000D01*
X100430000Y-65325000D02*
X100430000Y-70565000D01*
X100115000Y-55165000D02*
X100430000Y-55165000D01*
X100430000Y-60405000D02*
X100430000Y-55165000D01*
X97690000Y-55165000D02*
X98005000Y-55165000D01*
X97690000Y-60405000D02*
X98005000Y-60405000D01*
X100115000Y-60405000D02*
X100430000Y-60405000D01*
X97690000Y-60405000D02*
X97690000Y-55165000D01*
X104232064Y-61235000D02*
X102777936Y-61235000D01*
X104232064Y-59415000D02*
X102777936Y-59415000D01*
X106620000Y-34290000D02*
X106620000Y-32960000D01*
X106620000Y-35560000D02*
X109280000Y-35560000D01*
X106620000Y-32960000D02*
X107950000Y-32960000D01*
X106620000Y-35560000D02*
X106620000Y-48320000D01*
X109280000Y-35560000D02*
X109280000Y-48320000D01*
X106620000Y-48320000D02*
X109280000Y-48320000D01*
X104232064Y-67035000D02*
X102777936Y-67035000D01*
X104232064Y-68855000D02*
X102777936Y-68855000D01*
X76620000Y-52150000D02*
X76935000Y-52150000D01*
X74195000Y-52150000D02*
X74510000Y-52150000D01*
X76620000Y-46910000D02*
X76935000Y-46910000D01*
X74195000Y-52150000D02*
X74195000Y-46910000D01*
X76935000Y-52150000D02*
X76935000Y-46910000D01*
X74195000Y-46910000D02*
X74510000Y-46910000D01*
X63580000Y-68480000D02*
X58340000Y-68480000D01*
X63580000Y-68795000D02*
X63580000Y-68480000D01*
X63580000Y-71220000D02*
X58340000Y-71220000D01*
X58340000Y-68795000D02*
X58340000Y-68480000D01*
X58340000Y-71220000D02*
X58340000Y-70905000D01*
X63580000Y-71220000D02*
X63580000Y-70905000D01*
X104232064Y-61955000D02*
X102777936Y-61955000D01*
X104232064Y-63775000D02*
X102777936Y-63775000D01*
X44400000Y-71180000D02*
X44400000Y-69850000D01*
X54680000Y-71180000D02*
X54680000Y-68520000D01*
X47000000Y-68520000D02*
X54680000Y-68520000D01*
X45730000Y-71180000D02*
X44400000Y-71180000D01*
X47000000Y-71180000D02*
X47000000Y-68520000D01*
X47000000Y-71180000D02*
X54680000Y-71180000D01*
X78690000Y-68585000D02*
X78690000Y-65985000D01*
X80020000Y-71185000D02*
X78690000Y-71185000D01*
X78690000Y-71185000D02*
X78690000Y-69855000D01*
X81290000Y-71185000D02*
X81290000Y-68585000D01*
X81290000Y-68585000D02*
X78690000Y-68585000D01*
X78690000Y-65985000D02*
X88970000Y-65985000D01*
X81290000Y-71185000D02*
X88970000Y-71185000D01*
X88970000Y-71185000D02*
X88970000Y-65985000D01*
X104232064Y-38460000D02*
X102777936Y-38460000D01*
X104232064Y-40280000D02*
X102777936Y-40280000D01*
X104232064Y-42820000D02*
X102777936Y-42820000D01*
X104232064Y-41000000D02*
X102777936Y-41000000D01*
X93880000Y-44370000D02*
X94195000Y-44370000D01*
X93880000Y-49610000D02*
X93880000Y-44370000D01*
X96620000Y-49610000D02*
X96620000Y-44370000D01*
X96305000Y-49610000D02*
X96620000Y-49610000D01*
X93880000Y-49610000D02*
X94195000Y-49610000D01*
X96305000Y-44370000D02*
X96620000Y-44370000D01*
X97690000Y-41990000D02*
X98005000Y-41990000D01*
X97690000Y-41990000D02*
X97690000Y-36750000D01*
X100430000Y-41990000D02*
X100430000Y-36750000D01*
X97690000Y-36750000D02*
X98005000Y-36750000D01*
X100115000Y-36750000D02*
X100430000Y-36750000D01*
X100115000Y-41990000D02*
X100430000Y-41990000D01*
X93880000Y-60405000D02*
X94195000Y-60405000D01*
X96620000Y-60405000D02*
X96620000Y-55165000D01*
X96305000Y-60405000D02*
X96620000Y-60405000D01*
X96305000Y-55165000D02*
X96620000Y-55165000D01*
X93880000Y-55165000D02*
X94195000Y-55165000D01*
X93880000Y-60405000D02*
X93880000Y-55165000D01*
%LPC*%
D16*
X107950000Y-54760000D03*
D17*
X107950000Y-57300000D03*
X107950000Y-59840000D03*
X107950000Y-62380000D03*
X107950000Y-64920000D03*
X107950000Y-67460000D03*
D18*
X45720000Y-61745000D03*
D19*
X48260000Y-61745000D03*
X50800000Y-61745000D03*
X53340000Y-61745000D03*
X55880000Y-61745000D03*
X58420000Y-61745000D03*
X60960000Y-61745000D03*
X63500000Y-61745000D03*
X63500000Y-38885000D03*
X60960000Y-38885000D03*
X58420000Y-38885000D03*
X55880000Y-38885000D03*
X53340000Y-38885000D03*
X50800000Y-38885000D03*
X48260000Y-38885000D03*
X45720000Y-38885000D03*
D20*
X68300000Y-69850000D03*
X71400000Y-69850000D03*
D21*
X99060000Y-48260000D03*
X104060000Y-48260000D03*
D22*
X105055000Y-44450000D03*
X101955000Y-44450000D03*
D21*
X95250000Y-39330000D03*
X95250000Y-34330000D03*
X63460000Y-31750000D03*
X58460000Y-31750000D03*
D23*
X113700000Y-70800000D03*
D24*
X113700000Y-70800000D03*
D25*
X80010000Y-52070000D03*
X91440000Y-52070000D03*
X91440000Y-49530000D03*
D26*
X91440000Y-39370000D03*
D25*
X91440000Y-41910000D03*
X91440000Y-44450000D03*
X91440000Y-46990000D03*
X91440000Y-54610000D03*
X91440000Y-57150000D03*
X91440000Y-59690000D03*
X91440000Y-62230000D03*
X80010000Y-49530000D03*
D26*
X80010000Y-39370000D03*
D25*
X80010000Y-41910000D03*
X80010000Y-44450000D03*
X80010000Y-46990000D03*
X80010000Y-54610000D03*
X80010000Y-57150000D03*
X80010000Y-59690000D03*
X80010000Y-62230000D03*
D22*
X105055000Y-65405000D03*
X101955000Y-65405000D03*
D21*
X95250000Y-65445000D03*
X95250000Y-70445000D03*
X99060000Y-65445000D03*
X99060000Y-70445000D03*
X99060000Y-60285000D03*
X99060000Y-55285000D03*
D24*
X38700000Y-30800000D03*
D23*
X38700000Y-30800000D03*
D24*
X113700000Y-30800000D03*
D23*
X113700000Y-30800000D03*
D22*
X105055000Y-60325000D03*
X101955000Y-60325000D03*
D16*
X107950000Y-34290000D03*
D17*
X107950000Y-36830000D03*
X107950000Y-39370000D03*
X107950000Y-41910000D03*
X107950000Y-44450000D03*
X107950000Y-46990000D03*
D22*
X105055000Y-67945000D03*
X101955000Y-67945000D03*
D21*
X75565000Y-52030000D03*
X75565000Y-47030000D03*
X63460000Y-69850000D03*
X58460000Y-69850000D03*
D22*
X105055000Y-62865000D03*
X101955000Y-62865000D03*
D16*
X45730000Y-69850000D03*
D17*
X48270000Y-69850000D03*
X50810000Y-69850000D03*
X53350000Y-69850000D03*
D16*
X80020000Y-69855000D03*
D17*
X80020000Y-67315000D03*
X82560000Y-69855000D03*
X82560000Y-67315000D03*
X85100000Y-69855000D03*
X85100000Y-67315000D03*
X87640000Y-69855000D03*
X87640000Y-67315000D03*
D22*
X105055000Y-39370000D03*
X101955000Y-39370000D03*
X105055000Y-41910000D03*
X101955000Y-41910000D03*
D21*
X95250000Y-49490000D03*
X95250000Y-44490000D03*
X99060000Y-41870000D03*
X99060000Y-36870000D03*
X95250000Y-60285000D03*
X95250000Y-55285000D03*
D23*
X38700000Y-70800000D03*
D24*
X38700000Y-70800000D03*
M02*
