G04 #@! TF.GenerationSoftware,KiCad,Pcbnew,6.0.11-2627ca5db0~126~ubuntu22.04.1*
G04 #@! TF.CreationDate,2023-04-26T19:26:48+03:00*
G04 #@! TF.ProjectId,layzspa-wifi-remote,6c61797a-7370-4612-9d77-6966692d7265,rev?*
G04 #@! TF.SameCoordinates,Original*
G04 #@! TF.FileFunction,Soldermask,Top*
G04 #@! TF.FilePolarity,Negative*
%FSLAX46Y46*%
G04 Gerber Fmt 4.6, Leading zero omitted, Abs format (unit mm)*
G04 Created by KiCad (PCBNEW 6.0.11-2627ca5db0~126~ubuntu22.04.1) date 2023-04-26 19:26:48*
%MOMM*%
%LPD*%
G01*
G04 APERTURE LIST*
G04 Aperture macros list*
%AMRoundRect*
0 Rectangle with rounded corners*
0 $1 Rounding radius*
0 $2 $3 $4 $5 $6 $7 $8 $9 X,Y pos of 4 corners*
0 Add a 4 corners polygon primitive as box body*
4,1,4,$2,$3,$4,$5,$6,$7,$8,$9,$2,$3,0*
0 Add four circle primitives for the rounded corners*
1,1,$1+$1,$2,$3*
1,1,$1+$1,$4,$5*
1,1,$1+$1,$6,$7*
1,1,$1+$1,$8,$9*
0 Add four rect primitives between the rounded corners*
20,1,$1+$1,$2,$3,$4,$5,0*
20,1,$1+$1,$4,$5,$6,$7,0*
20,1,$1+$1,$6,$7,$8,$9,0*
20,1,$1+$1,$8,$9,$2,$3,0*%
G04 Aperture macros list end*
%ADD10R,1.700000X1.700000*%
%ADD11O,1.700000X1.700000*%
%ADD12R,2.000000X2.000000*%
%ADD13O,1.600000X2.000000*%
%ADD14RoundRect,0.250000X-0.400000X-0.625000X0.400000X-0.625000X0.400000X0.625000X-0.400000X0.625000X0*%
%ADD15C,1.600000*%
%ADD16RoundRect,0.250000X0.400000X0.625000X-0.400000X0.625000X-0.400000X-0.625000X0.400000X-0.625000X0*%
%ADD17C,3.600000*%
%ADD18C,5.700000*%
%ADD19C,1.524000*%
%ADD20R,1.524000X1.524000*%
G04 APERTURE END LIST*
D10*
X107950000Y-54760000D03*
D11*
X107950000Y-57300000D03*
X107950000Y-59840000D03*
X107950000Y-62380000D03*
X107950000Y-64920000D03*
X107950000Y-67460000D03*
D12*
X45720000Y-61745000D03*
D13*
X48260000Y-61745000D03*
X50800000Y-61745000D03*
X53340000Y-61745000D03*
X55880000Y-61745000D03*
X58420000Y-61745000D03*
X60960000Y-61745000D03*
X63500000Y-61745000D03*
X63500000Y-38885000D03*
X60960000Y-38885000D03*
X58420000Y-38885000D03*
X55880000Y-38885000D03*
X53340000Y-38885000D03*
X50800000Y-38885000D03*
X48260000Y-38885000D03*
X45720000Y-38885000D03*
D14*
X68300000Y-69850000D03*
X71400000Y-69850000D03*
D15*
X99060000Y-48260000D03*
X104060000Y-48260000D03*
D16*
X105055000Y-44450000D03*
X101955000Y-44450000D03*
D15*
X95250000Y-39330000D03*
X95250000Y-34330000D03*
X63460000Y-31750000D03*
X58460000Y-31750000D03*
D17*
X113700000Y-70800000D03*
D18*
X113700000Y-70800000D03*
D19*
X80010000Y-52070000D03*
X91440000Y-52070000D03*
X91440000Y-49530000D03*
D20*
X91440000Y-39370000D03*
D19*
X91440000Y-41910000D03*
X91440000Y-44450000D03*
X91440000Y-46990000D03*
X91440000Y-54610000D03*
X91440000Y-57150000D03*
X91440000Y-59690000D03*
X91440000Y-62230000D03*
X80010000Y-49530000D03*
D20*
X80010000Y-39370000D03*
D19*
X80010000Y-41910000D03*
X80010000Y-44450000D03*
X80010000Y-46990000D03*
X80010000Y-54610000D03*
X80010000Y-57150000D03*
X80010000Y-59690000D03*
X80010000Y-62230000D03*
D16*
X105055000Y-65405000D03*
X101955000Y-65405000D03*
D15*
X95250000Y-65445000D03*
X95250000Y-70445000D03*
X99060000Y-65445000D03*
X99060000Y-70445000D03*
X99060000Y-60285000D03*
X99060000Y-55285000D03*
D18*
X38700000Y-30800000D03*
D17*
X38700000Y-30800000D03*
D18*
X113700000Y-30800000D03*
D17*
X113700000Y-30800000D03*
D16*
X105055000Y-60325000D03*
X101955000Y-60325000D03*
D10*
X107950000Y-34290000D03*
D11*
X107950000Y-36830000D03*
X107950000Y-39370000D03*
X107950000Y-41910000D03*
X107950000Y-44450000D03*
X107950000Y-46990000D03*
D16*
X105055000Y-67945000D03*
X101955000Y-67945000D03*
D15*
X75565000Y-52030000D03*
X75565000Y-47030000D03*
X63460000Y-69850000D03*
X58460000Y-69850000D03*
D16*
X105055000Y-62865000D03*
X101955000Y-62865000D03*
D10*
X45730000Y-69850000D03*
D11*
X48270000Y-69850000D03*
X50810000Y-69850000D03*
X53350000Y-69850000D03*
D10*
X80020000Y-69855000D03*
D11*
X80020000Y-67315000D03*
X82560000Y-69855000D03*
X82560000Y-67315000D03*
X85100000Y-69855000D03*
X85100000Y-67315000D03*
X87640000Y-69855000D03*
X87640000Y-67315000D03*
D16*
X105055000Y-39370000D03*
X101955000Y-39370000D03*
X105055000Y-41910000D03*
X101955000Y-41910000D03*
D15*
X95250000Y-49490000D03*
X95250000Y-44490000D03*
X99060000Y-41870000D03*
X99060000Y-36870000D03*
X95250000Y-60285000D03*
X95250000Y-55285000D03*
D17*
X38700000Y-70800000D03*
D18*
X38700000Y-70800000D03*
M02*
