G04 #@! TF.GenerationSoftware,KiCad,Pcbnew,6.0.11-2627ca5db0~126~ubuntu22.04.1*
G04 #@! TF.CreationDate,2023-04-26T19:26:48+03:00*
G04 #@! TF.ProjectId,layzspa-wifi-remote,6c61797a-7370-4612-9d77-6966692d7265,rev?*
G04 #@! TF.SameCoordinates,Original*
G04 #@! TF.FileFunction,Legend,Bot*
G04 #@! TF.FilePolarity,Positive*
%FSLAX46Y46*%
G04 Gerber Fmt 4.6, Leading zero omitted, Abs format (unit mm)*
G04 Created by KiCad (PCBNEW 6.0.11-2627ca5db0~126~ubuntu22.04.1) date 2023-04-26 19:26:48*
%MOMM*%
%LPD*%
G01*
G04 APERTURE LIST*
%ADD10R,1.700000X1.700000*%
%ADD11O,1.700000X1.700000*%
%ADD12R,2.000000X2.000000*%
%ADD13O,1.600000X2.000000*%
%ADD14C,1.600000*%
%ADD15C,3.600000*%
%ADD16C,5.700000*%
%ADD17C,1.524000*%
%ADD18R,1.524000X1.524000*%
G04 APERTURE END LIST*
%LPC*%
D10*
X107950000Y-54760000D03*
D11*
X107950000Y-57300000D03*
X107950000Y-59840000D03*
X107950000Y-62380000D03*
X107950000Y-64920000D03*
X107950000Y-67460000D03*
D12*
X45720000Y-61745000D03*
D13*
X48260000Y-61745000D03*
X50800000Y-61745000D03*
X53340000Y-61745000D03*
X55880000Y-61745000D03*
X58420000Y-61745000D03*
X60960000Y-61745000D03*
X63500000Y-61745000D03*
X63500000Y-38885000D03*
X60960000Y-38885000D03*
X58420000Y-38885000D03*
X55880000Y-38885000D03*
X53340000Y-38885000D03*
X50800000Y-38885000D03*
X48260000Y-38885000D03*
X45720000Y-38885000D03*
D14*
X99060000Y-48260000D03*
X104060000Y-48260000D03*
X95250000Y-39330000D03*
X95250000Y-34330000D03*
X63460000Y-31750000D03*
X58460000Y-31750000D03*
D15*
X113700000Y-70800000D03*
D16*
X113700000Y-70800000D03*
D17*
X80010000Y-52070000D03*
X91440000Y-52070000D03*
X91440000Y-49530000D03*
D18*
X91440000Y-39370000D03*
D17*
X91440000Y-41910000D03*
X91440000Y-44450000D03*
X91440000Y-46990000D03*
X91440000Y-54610000D03*
X91440000Y-57150000D03*
X91440000Y-59690000D03*
X91440000Y-62230000D03*
X80010000Y-49530000D03*
D18*
X80010000Y-39370000D03*
D17*
X80010000Y-41910000D03*
X80010000Y-44450000D03*
X80010000Y-46990000D03*
X80010000Y-54610000D03*
X80010000Y-57150000D03*
X80010000Y-59690000D03*
X80010000Y-62230000D03*
D14*
X95250000Y-65445000D03*
X95250000Y-70445000D03*
X99060000Y-65445000D03*
X99060000Y-70445000D03*
X99060000Y-60285000D03*
X99060000Y-55285000D03*
D16*
X38700000Y-30800000D03*
D15*
X38700000Y-30800000D03*
D16*
X113700000Y-30800000D03*
D15*
X113700000Y-30800000D03*
D10*
X107950000Y-34290000D03*
D11*
X107950000Y-36830000D03*
X107950000Y-39370000D03*
X107950000Y-41910000D03*
X107950000Y-44450000D03*
X107950000Y-46990000D03*
D14*
X75565000Y-52030000D03*
X75565000Y-47030000D03*
X63460000Y-69850000D03*
X58460000Y-69850000D03*
D10*
X45730000Y-69850000D03*
D11*
X48270000Y-69850000D03*
X50810000Y-69850000D03*
X53350000Y-69850000D03*
D10*
X80020000Y-69855000D03*
D11*
X80020000Y-67315000D03*
X82560000Y-69855000D03*
X82560000Y-67315000D03*
X85100000Y-69855000D03*
X85100000Y-67315000D03*
X87640000Y-69855000D03*
X87640000Y-67315000D03*
D14*
X95250000Y-49490000D03*
X95250000Y-44490000D03*
X99060000Y-41870000D03*
X99060000Y-36870000D03*
X95250000Y-60285000D03*
X95250000Y-55285000D03*
D15*
X38700000Y-70800000D03*
D16*
X38700000Y-70800000D03*
M02*
