M48
; DRILL file {KiCad 5.1.2-f72e74a~84~ubuntu18.04.1} date Sun 28 Apr 2019 04:37:03 PM EEST
; FORMAT={2:4/ absolute / inch / suppress leading zeros}
; #@! TF.CreationDate,2019-04-28T16:37:03+03:00
; #@! TF.GenerationSoftware,Kicad,Pcbnew,5.1.2-f72e74a~84~ubuntu18.04.1
FMAT,2
INCH,TZ
T1C0.0157
T2C0.0197
T3C0.0236
T4C0.0300
T5C0.0315
T6C0.0394
T7C0.0394
T8C0.0492
T9C0.1260
%
G90
G05
T1
X34400Y-42400
X34400Y-44000
X34400Y-46200
X38400Y-42400
X38400Y-44000
X38400Y-46200
X39000Y-53400
X39600Y-51900
X39800Y-49000
X41400Y-53400
X42400Y-42400
X42400Y-44000
X42400Y-46200
X44000Y-52400
X46000Y-53400
X46400Y-42400
X46400Y-44000
X46400Y-46200
X46600Y-51900
X46600Y-52408
X46800Y-57000
X47000Y-49000
X48000Y-53400
X50400Y-42400
X50400Y-44000
X50400Y-46200
X51059Y-52600
X54000Y-53400
X54400Y-42400
X54400Y-44000
X54400Y-46200
X54600Y-51900
X54600Y-52400
X54800Y-49000
X56600Y-53400
X58400Y-42400
X58400Y-44000
X58400Y-46200
X58750Y-59500
X60000Y-52400
X62000Y-53400
X62400Y-42400
X62400Y-44000
X62400Y-46200
X62600Y-51900
X62600Y-52400
X62800Y-49000
T2
X66155Y-40800
X66432Y-40132
X66432Y-41468
X67100Y-39855
X67100Y-41745
X67768Y-40132
X67768Y-41468
X68045Y-40800
X66155Y-59200
X66432Y-58532
X66432Y-59868
X67100Y-58255
X67100Y-60145
X67768Y-58532
X67768Y-59868
X68045Y-59200
X31955Y-40750
X32232Y-40082
X32232Y-41418
X32900Y-39805
X32900Y-41695
X33568Y-40082
X33568Y-41418
X33845Y-40750
X31955Y-59200
X32232Y-58532
X32232Y-59868
X32900Y-58255
X32900Y-60145
X33568Y-58532
X33568Y-59868
X33845Y-59200
T3
X63250Y-46250
X63750Y-46250
X64250Y-46250
X47250Y-46250
X47750Y-46250
X48250Y-46250
X35250Y-46250
X35750Y-46250
X36250Y-46250
X59250Y-46250
X59750Y-46250
X60250Y-46250
X43250Y-46250
X43750Y-46250
X44250Y-46250
X51250Y-46250
X51750Y-46250
X52250Y-46250
X55250Y-46250
X55750Y-46250
X56250Y-46250
X39250Y-46250
X39750Y-46250
X40250Y-46250
T4
X59000Y-43250
X59500Y-43250
X60000Y-43250
X60500Y-43250
X63000Y-43250
X63500Y-43250
X64000Y-43250
X64500Y-43250
X47000Y-43250
X47500Y-43250
X48000Y-43250
X48500Y-43250
X39000Y-43250
X39500Y-43250
X40000Y-43250
X40500Y-43250
X51000Y-43250
X51500Y-43250
X52000Y-43250
X52500Y-43250
X43000Y-43250
X43500Y-43250
X44000Y-43250
X44500Y-43250
X35000Y-43250
X35500Y-43250
X36000Y-43250
X36500Y-43250
X55000Y-43250
X55500Y-43250
X56000Y-43250
X56500Y-43250
T5
X61400Y-49800
X63369Y-49800
X49500Y-58250
X49500Y-60219
X54000Y-58281
X54000Y-60250
X41750Y-58250
X41750Y-60219
X45400Y-49800
X47369Y-49800
X50750Y-58281
X50750Y-60250
X47750Y-58250
X47750Y-59250
X47750Y-60250
X44250Y-59500
X46219Y-59500
X38500Y-58281
X38500Y-60250
X38400Y-49800
X40369Y-49800
X53400Y-49800
X55369Y-49800
X40000Y-58250
X40000Y-59250
X40000Y-60250
X52250Y-58250
X52250Y-59250
X52250Y-60250
X32400Y-51500
X34369Y-51500
T6
X63000Y-40250
X65000Y-40250
X43000Y-40250
X45000Y-40250
X55000Y-41500
X57000Y-41500
X43000Y-41500
X45000Y-41500
X35000Y-40250
X37000Y-40250
X47000Y-40250
X49000Y-40250
X63250Y-48250
X65250Y-48250
X47000Y-41500
X49000Y-41500
X35000Y-41500
X37000Y-41500
X55250Y-48250
X57250Y-48250
X35250Y-48250
X37250Y-48250
X39000Y-41500
X41000Y-41500
X51000Y-41500
X53000Y-41500
X63000Y-41500
X65000Y-41500
X51250Y-48250
X53250Y-48250
X59000Y-40250
X61000Y-40250
X51000Y-40250
X53000Y-40250
X55000Y-40250
X57000Y-40250
X39000Y-40250
X41000Y-40250
X59250Y-48250
X61250Y-48250
X43250Y-48250
X45250Y-48250
X39250Y-48250
X41250Y-48250
X59000Y-41500
X61000Y-41500
X47250Y-48250
X49250Y-48250
T7
X47750Y-57000
X48750Y-57000
X52250Y-57000
X53250Y-57000
X67000Y-47250
X67000Y-48250
X55250Y-57900
X56250Y-57900
X57250Y-57900
X58250Y-57900
X59250Y-57900
X60250Y-57900
X61250Y-57900
X62250Y-57900
X63250Y-57900
X64250Y-57900
X40000Y-57000
X41000Y-57000
X46750Y-55500
X47750Y-55500
X48750Y-55500
X49750Y-55500
X50750Y-55500
X35750Y-59500
X36750Y-59500
T8
X67000Y-50500
X67000Y-52500
T9
X67100Y-40800
X67100Y-59200
X32900Y-40750
X32900Y-59200
T6
G00X34438Y-55106
M15
G01X34438Y-55894
M16
G05
G00X35225Y-57350
M15
G01X36013Y-57350
M16
G05
G00X36800Y-55106
M15
G01X36800Y-55894
M16
G05
T0
M30
