%FSLAX45Y45*%
G04 Gerber Fmt 4.5, Leading zero omitted, Abs format (unit mm)*
G04 Created by KiCad (PCBNEW 5.1.2-f72e74a~84~ubuntu18.04.1) date 2019-04-28 16:36:56*
%MOMM*%
%LPD*%
G04 APERTURE LIST*
%ADD10C,0.150000*%
%ADD11C,0.200000*%
%ADD12C,0.300000*%
G04 APERTURE END LIST*
D10*
X17450000Y-9950000D02*
X17450000Y-15450000D01*
X7950000Y-9950000D02*
X7950000Y-15450000D01*
X7950000Y-15450000D02*
X17450000Y-15450000D01*
X7950000Y-9950000D02*
X17450000Y-9950000D01*
D11*
X8717600Y-10749600D02*
X8757600Y-10789600D01*
X8757600Y-10749600D02*
X8717600Y-10789600D01*
X8717600Y-11156000D02*
X8757600Y-11196000D01*
X8757600Y-11156000D02*
X8717600Y-11196000D01*
X8717600Y-11714800D02*
X8757600Y-11754800D01*
X8757600Y-11714800D02*
X8717600Y-11754800D01*
X9733600Y-10749600D02*
X9773600Y-10789600D01*
X9773600Y-10749600D02*
X9733600Y-10789600D01*
X9733600Y-11156000D02*
X9773600Y-11196000D01*
X9773600Y-11156000D02*
X9733600Y-11196000D01*
X9733600Y-11714800D02*
X9773600Y-11754800D01*
X9773600Y-11714800D02*
X9733600Y-11754800D01*
X9886000Y-13543600D02*
X9926000Y-13583600D01*
X9926000Y-13543600D02*
X9886000Y-13583600D01*
X10038400Y-13162600D02*
X10078400Y-13202600D01*
X10078400Y-13162600D02*
X10038400Y-13202600D01*
X10089200Y-12426000D02*
X10129200Y-12466000D01*
X10129200Y-12426000D02*
X10089200Y-12466000D01*
X10495600Y-13543600D02*
X10535600Y-13583600D01*
X10535600Y-13543600D02*
X10495600Y-13583600D01*
X10749600Y-10749600D02*
X10789600Y-10789600D01*
X10789600Y-10749600D02*
X10749600Y-10789600D01*
X10749600Y-11156000D02*
X10789600Y-11196000D01*
X10789600Y-11156000D02*
X10749600Y-11196000D01*
X10749600Y-11714800D02*
X10789600Y-11754800D01*
X10789600Y-11714800D02*
X10749600Y-11754800D01*
X11156000Y-13289600D02*
X11196000Y-13329600D01*
X11196000Y-13289600D02*
X11156000Y-13329600D01*
X11664000Y-13543600D02*
X11704000Y-13583600D01*
X11704000Y-13543600D02*
X11664000Y-13583600D01*
X11765600Y-10749600D02*
X11805600Y-10789600D01*
X11805600Y-10749600D02*
X11765600Y-10789600D01*
X11765600Y-11156000D02*
X11805600Y-11196000D01*
X11805600Y-11156000D02*
X11765600Y-11196000D01*
X11765600Y-11714800D02*
X11805600Y-11754800D01*
X11805600Y-11714800D02*
X11765600Y-11754800D01*
X11816400Y-13162600D02*
X11856400Y-13202600D01*
X11856400Y-13162600D02*
X11816400Y-13202600D01*
X11816400Y-13291650D02*
X11856400Y-13331650D01*
X11856400Y-13291650D02*
X11816400Y-13331650D01*
X11867200Y-14458000D02*
X11907200Y-14498000D01*
X11907200Y-14458000D02*
X11867200Y-14498000D01*
X11918000Y-12426000D02*
X11958000Y-12466000D01*
X11958000Y-12426000D02*
X11918000Y-12466000D01*
X12172000Y-13543600D02*
X12212000Y-13583600D01*
X12212000Y-13543600D02*
X12172000Y-13583600D01*
X12781600Y-10749600D02*
X12821600Y-10789600D01*
X12821600Y-10749600D02*
X12781600Y-10789600D01*
X12781600Y-11156000D02*
X12821600Y-11196000D01*
X12821600Y-11156000D02*
X12781600Y-11196000D01*
X12781600Y-11714800D02*
X12821600Y-11754800D01*
X12821600Y-11714800D02*
X12781600Y-11754800D01*
X12949000Y-13340400D02*
X12989000Y-13380400D01*
X12989000Y-13340400D02*
X12949000Y-13380400D01*
X13696000Y-13543600D02*
X13736000Y-13583600D01*
X13736000Y-13543600D02*
X13696000Y-13583600D01*
X13797600Y-10749600D02*
X13837600Y-10789600D01*
X13837600Y-10749600D02*
X13797600Y-10789600D01*
X13797600Y-11156000D02*
X13837600Y-11196000D01*
X13837600Y-11156000D02*
X13797600Y-11196000D01*
X13797600Y-11714800D02*
X13837600Y-11754800D01*
X13837600Y-11714800D02*
X13797600Y-11754800D01*
X13848400Y-13162600D02*
X13888400Y-13202600D01*
X13888400Y-13162600D02*
X13848400Y-13202600D01*
X13848400Y-13289600D02*
X13888400Y-13329600D01*
X13888400Y-13289600D02*
X13848400Y-13329600D01*
X13899200Y-12426000D02*
X13939200Y-12466000D01*
X13939200Y-12426000D02*
X13899200Y-12466000D01*
X14356401Y-13543600D02*
X14396401Y-13583600D01*
X14396401Y-13543600D02*
X14356401Y-13583600D01*
X14813600Y-10749600D02*
X14853600Y-10789600D01*
X14853600Y-10749600D02*
X14813600Y-10789600D01*
X14813600Y-11156000D02*
X14853600Y-11196000D01*
X14853600Y-11156000D02*
X14813600Y-11196000D01*
X14813600Y-11714800D02*
X14853600Y-11754800D01*
X14853600Y-11714800D02*
X14813600Y-11754800D01*
X14902500Y-15093000D02*
X14942500Y-15133000D01*
X14942500Y-15093000D02*
X14902500Y-15133000D01*
X15220000Y-13289600D02*
X15260000Y-13329600D01*
X15260000Y-13289600D02*
X15220000Y-13329600D01*
X15728000Y-13543600D02*
X15768000Y-13583600D01*
X15768000Y-13543600D02*
X15728000Y-13583600D01*
X15829600Y-10749600D02*
X15869600Y-10789600D01*
X15869600Y-10749600D02*
X15829600Y-10789600D01*
X15829600Y-11156000D02*
X15869600Y-11196000D01*
X15869600Y-11156000D02*
X15829600Y-11196000D01*
X15829600Y-11714800D02*
X15869600Y-11754800D01*
X15869600Y-11714800D02*
X15829600Y-11754800D01*
X15880400Y-13162600D02*
X15920400Y-13202600D01*
X15920400Y-13162600D02*
X15880400Y-13202600D01*
X15880400Y-13289600D02*
X15920400Y-13329600D01*
X15920400Y-13289600D02*
X15880400Y-13329600D01*
X15931200Y-12426000D02*
X15971200Y-12466000D01*
X15971200Y-12426000D02*
X15931200Y-12466000D01*
X16828400Y-10363200D02*
G75*
G03X16828400Y-10363200I-25000J0D01*
G01*
X16898694Y-10193494D02*
G75*
G03X16898694Y-10193494I-25000J0D01*
G01*
X16898694Y-10532906D02*
G75*
G03X16898694Y-10532906I-25000J0D01*
G01*
X17068400Y-10123200D02*
G75*
G03X17068400Y-10123200I-25000J0D01*
G01*
X17068400Y-10603200D02*
G75*
G03X17068400Y-10603200I-25000J0D01*
G01*
X17238106Y-10193494D02*
G75*
G03X17238106Y-10193494I-25000J0D01*
G01*
X17238106Y-10532906D02*
G75*
G03X17238106Y-10532906I-25000J0D01*
G01*
X17308400Y-10363200D02*
G75*
G03X17308400Y-10363200I-25000J0D01*
G01*
X16828400Y-15036800D02*
G75*
G03X16828400Y-15036800I-25000J0D01*
G01*
X16898694Y-14867094D02*
G75*
G03X16898694Y-14867094I-25000J0D01*
G01*
X16898694Y-15206506D02*
G75*
G03X16898694Y-15206506I-25000J0D01*
G01*
X17068400Y-14796800D02*
G75*
G03X17068400Y-14796800I-25000J0D01*
G01*
X17068400Y-15276800D02*
G75*
G03X17068400Y-15276800I-25000J0D01*
G01*
X17238106Y-14867094D02*
G75*
G03X17238106Y-14867094I-25000J0D01*
G01*
X17238106Y-15206506D02*
G75*
G03X17238106Y-15206506I-25000J0D01*
G01*
X17308400Y-15036800D02*
G75*
G03X17308400Y-15036800I-25000J0D01*
G01*
X8141600Y-10350500D02*
G75*
G03X8141600Y-10350500I-25000J0D01*
G01*
X8211894Y-10180794D02*
G75*
G03X8211894Y-10180794I-25000J0D01*
G01*
X8211894Y-10520206D02*
G75*
G03X8211894Y-10520206I-25000J0D01*
G01*
X8381600Y-10110500D02*
G75*
G03X8381600Y-10110500I-25000J0D01*
G01*
X8381600Y-10590500D02*
G75*
G03X8381600Y-10590500I-25000J0D01*
G01*
X8551306Y-10180794D02*
G75*
G03X8551306Y-10180794I-25000J0D01*
G01*
X8551306Y-10520206D02*
G75*
G03X8551306Y-10520206I-25000J0D01*
G01*
X8621600Y-10350500D02*
G75*
G03X8621600Y-10350500I-25000J0D01*
G01*
X8141600Y-15036800D02*
G75*
G03X8141600Y-15036800I-25000J0D01*
G01*
X8211894Y-14867094D02*
G75*
G03X8211894Y-14867094I-25000J0D01*
G01*
X8211894Y-15206506D02*
G75*
G03X8211894Y-15206506I-25000J0D01*
G01*
X8381600Y-14796800D02*
G75*
G03X8381600Y-14796800I-25000J0D01*
G01*
X8381600Y-15276800D02*
G75*
G03X8381600Y-15276800I-25000J0D01*
G01*
X8551306Y-14867094D02*
G75*
G03X8551306Y-14867094I-25000J0D01*
G01*
X8551306Y-15206506D02*
G75*
G03X8551306Y-15206506I-25000J0D01*
G01*
X8621600Y-15036800D02*
G75*
G03X8621600Y-15036800I-25000J0D01*
G01*
X16065500Y-11717500D02*
X16065500Y-11777500D01*
X16035500Y-11747500D02*
X16095500Y-11747500D01*
X16192500Y-11717500D02*
X16192500Y-11777500D01*
X16162500Y-11747500D02*
X16222500Y-11747500D01*
X16319500Y-11717500D02*
X16319500Y-11777500D01*
X16289500Y-11747500D02*
X16349500Y-11747500D01*
X12001500Y-11717500D02*
X12001500Y-11777500D01*
X11971500Y-11747500D02*
X12031500Y-11747500D01*
X12128500Y-11717500D02*
X12128500Y-11777500D01*
X12098500Y-11747500D02*
X12158500Y-11747500D01*
X12255500Y-11717500D02*
X12255500Y-11777500D01*
X12225500Y-11747500D02*
X12285500Y-11747500D01*
X8953500Y-11717500D02*
X8953500Y-11777500D01*
X8923500Y-11747500D02*
X8983500Y-11747500D01*
X9080500Y-11717500D02*
X9080500Y-11777500D01*
X9050500Y-11747500D02*
X9110500Y-11747500D01*
X9207500Y-11717500D02*
X9207500Y-11777500D01*
X9177500Y-11747500D02*
X9237500Y-11747500D01*
X15049500Y-11717500D02*
X15049500Y-11777500D01*
X15019500Y-11747500D02*
X15079500Y-11747500D01*
X15176500Y-11717500D02*
X15176500Y-11777500D01*
X15146500Y-11747500D02*
X15206500Y-11747500D01*
X15303500Y-11717500D02*
X15303500Y-11777500D01*
X15273500Y-11747500D02*
X15333500Y-11747500D01*
X10985500Y-11717500D02*
X10985500Y-11777500D01*
X10955500Y-11747500D02*
X11015500Y-11747500D01*
X11112500Y-11717500D02*
X11112500Y-11777500D01*
X11082500Y-11747500D02*
X11142500Y-11747500D01*
X11239500Y-11717500D02*
X11239500Y-11777500D01*
X11209500Y-11747500D02*
X11269500Y-11747500D01*
X13017500Y-11717500D02*
X13017500Y-11777500D01*
X12987500Y-11747500D02*
X13047500Y-11747500D01*
X13144500Y-11717500D02*
X13144500Y-11777500D01*
X13114500Y-11747500D02*
X13174500Y-11747500D01*
X13271500Y-11717500D02*
X13271500Y-11777500D01*
X13241500Y-11747500D02*
X13301500Y-11747500D01*
X14033500Y-11717500D02*
X14033500Y-11777500D01*
X14003500Y-11747500D02*
X14063500Y-11747500D01*
X14160500Y-11717500D02*
X14160500Y-11777500D01*
X14130500Y-11747500D02*
X14190500Y-11747500D01*
X14287500Y-11717500D02*
X14287500Y-11777500D01*
X14257500Y-11747500D02*
X14317500Y-11747500D01*
X9969500Y-11717500D02*
X9969500Y-11777500D01*
X9939500Y-11747500D02*
X9999500Y-11747500D01*
X10096500Y-11717500D02*
X10096500Y-11777500D01*
X10066500Y-11747500D02*
X10126500Y-11747500D01*
X10223500Y-11717500D02*
X10223500Y-11777500D01*
X10193500Y-11747500D02*
X10253500Y-11747500D01*
X15012941Y-11012441D02*
X15012941Y-10958559D01*
X14959059Y-10958559D01*
X14959059Y-11012441D01*
X15012941Y-11012441D01*
X15139941Y-11012441D02*
X15139941Y-10958559D01*
X15086059Y-10958559D01*
X15086059Y-11012441D01*
X15139941Y-11012441D01*
X15266941Y-11012441D02*
X15266941Y-10958559D01*
X15213059Y-10958559D01*
X15213059Y-11012441D01*
X15266941Y-11012441D01*
X15393941Y-11012441D02*
X15393941Y-10958559D01*
X15340059Y-10958559D01*
X15340059Y-11012441D01*
X15393941Y-11012441D01*
X16028941Y-11012441D02*
X16028941Y-10958559D01*
X15975059Y-10958559D01*
X15975059Y-11012441D01*
X16028941Y-11012441D01*
X16155941Y-11012441D02*
X16155941Y-10958559D01*
X16102059Y-10958559D01*
X16102059Y-11012441D01*
X16155941Y-11012441D01*
X16282941Y-11012441D02*
X16282941Y-10958559D01*
X16229059Y-10958559D01*
X16229059Y-11012441D01*
X16282941Y-11012441D01*
X16409941Y-11012441D02*
X16409941Y-10958559D01*
X16356059Y-10958559D01*
X16356059Y-11012441D01*
X16409941Y-11012441D01*
X11964941Y-11012441D02*
X11964941Y-10958559D01*
X11911059Y-10958559D01*
X11911059Y-11012441D01*
X11964941Y-11012441D01*
X12091941Y-11012441D02*
X12091941Y-10958559D01*
X12038059Y-10958559D01*
X12038059Y-11012441D01*
X12091941Y-11012441D01*
X12218941Y-11012441D02*
X12218941Y-10958559D01*
X12165059Y-10958559D01*
X12165059Y-11012441D01*
X12218941Y-11012441D01*
X12345941Y-11012441D02*
X12345941Y-10958559D01*
X12292059Y-10958559D01*
X12292059Y-11012441D01*
X12345941Y-11012441D01*
X9932941Y-11012441D02*
X9932941Y-10958559D01*
X9879059Y-10958559D01*
X9879059Y-11012441D01*
X9932941Y-11012441D01*
X10059941Y-11012441D02*
X10059941Y-10958559D01*
X10006059Y-10958559D01*
X10006059Y-11012441D01*
X10059941Y-11012441D01*
X10186941Y-11012441D02*
X10186941Y-10958559D01*
X10133059Y-10958559D01*
X10133059Y-11012441D01*
X10186941Y-11012441D01*
X10313941Y-11012441D02*
X10313941Y-10958559D01*
X10260059Y-10958559D01*
X10260059Y-11012441D01*
X10313941Y-11012441D01*
X12980941Y-11012441D02*
X12980941Y-10958559D01*
X12927059Y-10958559D01*
X12927059Y-11012441D01*
X12980941Y-11012441D01*
X13107941Y-11012441D02*
X13107941Y-10958559D01*
X13054059Y-10958559D01*
X13054059Y-11012441D01*
X13107941Y-11012441D01*
X13234941Y-11012441D02*
X13234941Y-10958559D01*
X13181059Y-10958559D01*
X13181059Y-11012441D01*
X13234941Y-11012441D01*
X13361941Y-11012441D02*
X13361941Y-10958559D01*
X13308059Y-10958559D01*
X13308059Y-11012441D01*
X13361941Y-11012441D01*
X10948941Y-11012441D02*
X10948941Y-10958559D01*
X10895059Y-10958559D01*
X10895059Y-11012441D01*
X10948941Y-11012441D01*
X11075941Y-11012441D02*
X11075941Y-10958559D01*
X11022059Y-10958559D01*
X11022059Y-11012441D01*
X11075941Y-11012441D01*
X11202941Y-11012441D02*
X11202941Y-10958559D01*
X11149059Y-10958559D01*
X11149059Y-11012441D01*
X11202941Y-11012441D01*
X11329941Y-11012441D02*
X11329941Y-10958559D01*
X11276059Y-10958559D01*
X11276059Y-11012441D01*
X11329941Y-11012441D01*
X8916941Y-11012441D02*
X8916941Y-10958559D01*
X8863059Y-10958559D01*
X8863059Y-11012441D01*
X8916941Y-11012441D01*
X9043941Y-11012441D02*
X9043941Y-10958559D01*
X8990059Y-10958559D01*
X8990059Y-11012441D01*
X9043941Y-11012441D01*
X9170941Y-11012441D02*
X9170941Y-10958559D01*
X9117059Y-10958559D01*
X9117059Y-11012441D01*
X9170941Y-11012441D01*
X9297941Y-11012441D02*
X9297941Y-10958559D01*
X9244059Y-10958559D01*
X9244059Y-11012441D01*
X9297941Y-11012441D01*
X13996941Y-11012441D02*
X13996941Y-10958559D01*
X13943059Y-10958559D01*
X13943059Y-11012441D01*
X13996941Y-11012441D01*
X14123941Y-11012441D02*
X14123941Y-10958559D01*
X14070059Y-10958559D01*
X14070059Y-11012441D01*
X14123941Y-11012441D01*
X14250941Y-11012441D02*
X14250941Y-10958559D01*
X14197059Y-10958559D01*
X14197059Y-11012441D01*
X14250941Y-11012441D01*
X14377941Y-11012441D02*
X14377941Y-10958559D01*
X14324059Y-10958559D01*
X14324059Y-11012441D01*
X14377941Y-11012441D01*
X15595600Y-12689200D02*
X15635600Y-12649200D01*
X15595600Y-12609200D01*
X15555600Y-12649200D01*
X15595600Y-12689200D01*
X16095600Y-12689200D02*
X16135600Y-12649200D01*
X16095600Y-12609200D01*
X16055600Y-12649200D01*
X16095600Y-12689200D01*
X12573000Y-14835500D02*
X12613000Y-14795500D01*
X12573000Y-14755500D01*
X12533000Y-14795500D01*
X12573000Y-14835500D01*
X12573000Y-15335500D02*
X12613000Y-15295500D01*
X12573000Y-15255500D01*
X12533000Y-15295500D01*
X12573000Y-15335500D01*
X13716000Y-14843500D02*
X13756000Y-14803500D01*
X13716000Y-14763500D01*
X13676000Y-14803500D01*
X13716000Y-14843500D01*
X13716000Y-15343500D02*
X13756000Y-15303500D01*
X13716000Y-15263500D01*
X13676000Y-15303500D01*
X13716000Y-15343500D01*
X10604500Y-14835500D02*
X10644500Y-14795500D01*
X10604500Y-14755500D01*
X10564500Y-14795500D01*
X10604500Y-14835500D01*
X10604500Y-15335500D02*
X10644500Y-15295500D01*
X10604500Y-15255500D01*
X10564500Y-15295500D01*
X10604500Y-15335500D01*
X11531600Y-12689200D02*
X11571600Y-12649200D01*
X11531600Y-12609200D01*
X11491600Y-12649200D01*
X11531600Y-12689200D01*
X12031600Y-12689200D02*
X12071600Y-12649200D01*
X12031600Y-12609200D01*
X11991600Y-12649200D01*
X12031600Y-12689200D01*
X12890500Y-14843500D02*
X12930500Y-14803500D01*
X12890500Y-14763500D01*
X12850500Y-14803500D01*
X12890500Y-14843500D01*
X12890500Y-15343500D02*
X12930500Y-15303500D01*
X12890500Y-15263500D01*
X12850500Y-15303500D01*
X12890500Y-15343500D01*
X12128500Y-14835500D02*
X12168500Y-14795500D01*
X12128500Y-14755500D01*
X12088500Y-14795500D01*
X12128500Y-14835500D01*
X12128500Y-15089500D02*
X12168500Y-15049500D01*
X12128500Y-15009500D01*
X12088500Y-15049500D01*
X12128500Y-15089500D01*
X12128500Y-15343500D02*
X12168500Y-15303500D01*
X12128500Y-15263500D01*
X12088500Y-15303500D01*
X12128500Y-15343500D01*
X11239500Y-15153000D02*
X11279500Y-15113000D01*
X11239500Y-15073000D01*
X11199500Y-15113000D01*
X11239500Y-15153000D01*
X11739500Y-15153000D02*
X11779500Y-15113000D01*
X11739500Y-15073000D01*
X11699500Y-15113000D01*
X11739500Y-15153000D01*
X9779000Y-14843500D02*
X9819000Y-14803500D01*
X9779000Y-14763500D01*
X9739000Y-14803500D01*
X9779000Y-14843500D01*
X9779000Y-15343500D02*
X9819000Y-15303500D01*
X9779000Y-15263500D01*
X9739000Y-15303500D01*
X9779000Y-15343500D01*
X9753600Y-12689200D02*
X9793600Y-12649200D01*
X9753600Y-12609200D01*
X9713600Y-12649200D01*
X9753600Y-12689200D01*
X10253600Y-12689200D02*
X10293600Y-12649200D01*
X10253600Y-12609200D01*
X10213600Y-12649200D01*
X10253600Y-12689200D01*
X13563600Y-12689200D02*
X13603600Y-12649200D01*
X13563600Y-12609200D01*
X13523600Y-12649200D01*
X13563600Y-12689200D01*
X14063600Y-12689200D02*
X14103600Y-12649200D01*
X14063600Y-12609200D01*
X14023600Y-12649200D01*
X14063600Y-12689200D01*
X10160000Y-14835500D02*
X10200000Y-14795500D01*
X10160000Y-14755500D01*
X10120000Y-14795500D01*
X10160000Y-14835500D01*
X10160000Y-15089500D02*
X10200000Y-15049500D01*
X10160000Y-15009500D01*
X10120000Y-15049500D01*
X10160000Y-15089500D01*
X10160000Y-15343500D02*
X10200000Y-15303500D01*
X10160000Y-15263500D01*
X10120000Y-15303500D01*
X10160000Y-15343500D01*
X13271500Y-14835500D02*
X13311500Y-14795500D01*
X13271500Y-14755500D01*
X13231500Y-14795500D01*
X13271500Y-14835500D01*
X13271500Y-15089500D02*
X13311500Y-15049500D01*
X13271500Y-15009500D01*
X13231500Y-15049500D01*
X13271500Y-15089500D01*
X13271500Y-15343500D02*
X13311500Y-15303500D01*
X13271500Y-15263500D01*
X13231500Y-15303500D01*
X13271500Y-15343500D01*
X8229600Y-13121000D02*
X8269600Y-13081000D01*
X8229600Y-13041000D01*
X8189600Y-13081000D01*
X8229600Y-13121000D01*
X8729600Y-13121000D02*
X8769600Y-13081000D01*
X8729600Y-13041000D01*
X8689600Y-13081000D01*
X8729600Y-13121000D01*
X15952000Y-10173500D02*
X16052000Y-10273500D01*
X16052000Y-10173500D02*
X15952000Y-10273500D01*
X16052000Y-10223500D02*
G75*
G03X16052000Y-10223500I-50000J0D01*
G01*
X16460000Y-10173500D02*
X16560000Y-10273500D01*
X16560000Y-10173500D02*
X16460000Y-10273500D01*
X16560000Y-10223500D02*
G75*
G03X16560000Y-10223500I-50000J0D01*
G01*
X10872000Y-10173500D02*
X10972000Y-10273500D01*
X10972000Y-10173500D02*
X10872000Y-10273500D01*
X10972000Y-10223500D02*
G75*
G03X10972000Y-10223500I-50000J0D01*
G01*
X11380000Y-10173500D02*
X11480000Y-10273500D01*
X11480000Y-10173500D02*
X11380000Y-10273500D01*
X11480000Y-10223500D02*
G75*
G03X11480000Y-10223500I-50000J0D01*
G01*
X13920000Y-10491000D02*
X14020000Y-10591000D01*
X14020000Y-10491000D02*
X13920000Y-10591000D01*
X14020000Y-10541000D02*
G75*
G03X14020000Y-10541000I-50000J0D01*
G01*
X14428000Y-10491000D02*
X14528000Y-10591000D01*
X14528000Y-10491000D02*
X14428000Y-10591000D01*
X14528000Y-10541000D02*
G75*
G03X14528000Y-10541000I-50000J0D01*
G01*
X10872000Y-10491000D02*
X10972000Y-10591000D01*
X10972000Y-10491000D02*
X10872000Y-10591000D01*
X10972000Y-10541000D02*
G75*
G03X10972000Y-10541000I-50000J0D01*
G01*
X11380000Y-10491000D02*
X11480000Y-10591000D01*
X11480000Y-10491000D02*
X11380000Y-10591000D01*
X11480000Y-10541000D02*
G75*
G03X11480000Y-10541000I-50000J0D01*
G01*
X8840000Y-10173500D02*
X8940000Y-10273500D01*
X8940000Y-10173500D02*
X8840000Y-10273500D01*
X8940000Y-10223500D02*
G75*
G03X8940000Y-10223500I-50000J0D01*
G01*
X9348000Y-10173500D02*
X9448000Y-10273500D01*
X9448000Y-10173500D02*
X9348000Y-10273500D01*
X9448000Y-10223500D02*
G75*
G03X9448000Y-10223500I-50000J0D01*
G01*
X11888000Y-10173500D02*
X11988000Y-10273500D01*
X11988000Y-10173500D02*
X11888000Y-10273500D01*
X11988000Y-10223500D02*
G75*
G03X11988000Y-10223500I-50000J0D01*
G01*
X12396000Y-10173500D02*
X12496000Y-10273500D01*
X12496000Y-10173500D02*
X12396000Y-10273500D01*
X12496000Y-10223500D02*
G75*
G03X12496000Y-10223500I-50000J0D01*
G01*
X16015500Y-12205500D02*
X16115500Y-12305500D01*
X16115500Y-12205500D02*
X16015500Y-12305500D01*
X16115500Y-12255500D02*
G75*
G03X16115500Y-12255500I-50000J0D01*
G01*
X16523500Y-12205500D02*
X16623500Y-12305500D01*
X16623500Y-12205500D02*
X16523500Y-12305500D01*
X16623500Y-12255500D02*
G75*
G03X16623500Y-12255500I-50000J0D01*
G01*
X11888000Y-10491000D02*
X11988000Y-10591000D01*
X11988000Y-10491000D02*
X11888000Y-10591000D01*
X11988000Y-10541000D02*
G75*
G03X11988000Y-10541000I-50000J0D01*
G01*
X12396000Y-10491000D02*
X12496000Y-10591000D01*
X12496000Y-10491000D02*
X12396000Y-10591000D01*
X12496000Y-10541000D02*
G75*
G03X12496000Y-10541000I-50000J0D01*
G01*
X8840000Y-10491000D02*
X8940000Y-10591000D01*
X8940000Y-10491000D02*
X8840000Y-10591000D01*
X8940000Y-10541000D02*
G75*
G03X8940000Y-10541000I-50000J0D01*
G01*
X9348000Y-10491000D02*
X9448000Y-10591000D01*
X9448000Y-10491000D02*
X9348000Y-10591000D01*
X9448000Y-10541000D02*
G75*
G03X9448000Y-10541000I-50000J0D01*
G01*
X13983500Y-12205500D02*
X14083500Y-12305500D01*
X14083500Y-12205500D02*
X13983500Y-12305500D01*
X14083500Y-12255500D02*
G75*
G03X14083500Y-12255500I-50000J0D01*
G01*
X14491500Y-12205500D02*
X14591500Y-12305500D01*
X14591500Y-12205500D02*
X14491500Y-12305500D01*
X14591500Y-12255500D02*
G75*
G03X14591500Y-12255500I-50000J0D01*
G01*
X8697200Y-14047000D02*
X8797200Y-14147000D01*
X8797200Y-14047000D02*
X8697200Y-14147000D01*
X8797200Y-14097000D02*
G75*
G03X8797200Y-14097000I-50000J0D01*
G01*
X8707200Y-13997000D02*
X8707200Y-14197000D01*
X8787200Y-13997000D02*
X8787200Y-14197000D01*
X8707200Y-14197000D02*
G75*
G03X8787200Y-14197000I40000J0D01*
G01*
X8787200Y-13997000D02*
G75*
G03X8707200Y-13997000I-40000J0D01*
G01*
X8997200Y-14517000D02*
X9097200Y-14617000D01*
X9097200Y-14517000D02*
X8997200Y-14617000D01*
X9097200Y-14567000D02*
G75*
G03X9097200Y-14567000I-50000J0D01*
G01*
X8947200Y-14607000D02*
X9147200Y-14607000D01*
X8947200Y-14527000D02*
X9147200Y-14527000D01*
X9147200Y-14607000D02*
G75*
G03X9147200Y-14527000I0J40000D01*
G01*
X8947200Y-14527000D02*
G75*
G03X8947200Y-14607000I0J-40000D01*
G01*
X9297200Y-14047000D02*
X9397200Y-14147000D01*
X9397200Y-14047000D02*
X9297200Y-14147000D01*
X9397200Y-14097000D02*
G75*
G03X9397200Y-14097000I-50000J0D01*
G01*
X9307200Y-13997000D02*
X9307200Y-14197000D01*
X9387200Y-13997000D02*
X9387200Y-14197000D01*
X9307200Y-14197000D02*
G75*
G03X9387200Y-14197000I40000J0D01*
G01*
X9387200Y-13997000D02*
G75*
G03X9307200Y-13997000I-40000J0D01*
G01*
X8903500Y-12205500D02*
X9003500Y-12305500D01*
X9003500Y-12205500D02*
X8903500Y-12305500D01*
X9003500Y-12255500D02*
G75*
G03X9003500Y-12255500I-50000J0D01*
G01*
X9411500Y-12205500D02*
X9511500Y-12305500D01*
X9511500Y-12205500D02*
X9411500Y-12305500D01*
X9511500Y-12255500D02*
G75*
G03X9511500Y-12255500I-50000J0D01*
G01*
X9856000Y-10491000D02*
X9956000Y-10591000D01*
X9956000Y-10491000D02*
X9856000Y-10591000D01*
X9956000Y-10541000D02*
G75*
G03X9956000Y-10541000I-50000J0D01*
G01*
X10364000Y-10491000D02*
X10464000Y-10591000D01*
X10464000Y-10491000D02*
X10364000Y-10591000D01*
X10464000Y-10541000D02*
G75*
G03X10464000Y-10541000I-50000J0D01*
G01*
X12904000Y-10491000D02*
X13004000Y-10591000D01*
X13004000Y-10491000D02*
X12904000Y-10591000D01*
X13004000Y-10541000D02*
G75*
G03X13004000Y-10541000I-50000J0D01*
G01*
X13412000Y-10491000D02*
X13512000Y-10591000D01*
X13512000Y-10491000D02*
X13412000Y-10591000D01*
X13512000Y-10541000D02*
G75*
G03X13512000Y-10541000I-50000J0D01*
G01*
X15952000Y-10491000D02*
X16052000Y-10591000D01*
X16052000Y-10491000D02*
X15952000Y-10591000D01*
X16052000Y-10541000D02*
G75*
G03X16052000Y-10541000I-50000J0D01*
G01*
X16460000Y-10491000D02*
X16560000Y-10591000D01*
X16560000Y-10491000D02*
X16460000Y-10591000D01*
X16560000Y-10541000D02*
G75*
G03X16560000Y-10541000I-50000J0D01*
G01*
X12967500Y-12205500D02*
X13067500Y-12305500D01*
X13067500Y-12205500D02*
X12967500Y-12305500D01*
X13067500Y-12255500D02*
G75*
G03X13067500Y-12255500I-50000J0D01*
G01*
X13475500Y-12205500D02*
X13575500Y-12305500D01*
X13575500Y-12205500D02*
X13475500Y-12305500D01*
X13575500Y-12255500D02*
G75*
G03X13575500Y-12255500I-50000J0D01*
G01*
X14936000Y-10173500D02*
X15036000Y-10273500D01*
X15036000Y-10173500D02*
X14936000Y-10273500D01*
X15036000Y-10223500D02*
G75*
G03X15036000Y-10223500I-50000J0D01*
G01*
X15444000Y-10173500D02*
X15544000Y-10273500D01*
X15544000Y-10173500D02*
X15444000Y-10273500D01*
X15544000Y-10223500D02*
G75*
G03X15544000Y-10223500I-50000J0D01*
G01*
X12904000Y-10173500D02*
X13004000Y-10273500D01*
X13004000Y-10173500D02*
X12904000Y-10273500D01*
X13004000Y-10223500D02*
G75*
G03X13004000Y-10223500I-50000J0D01*
G01*
X13412000Y-10173500D02*
X13512000Y-10273500D01*
X13512000Y-10173500D02*
X13412000Y-10273500D01*
X13512000Y-10223500D02*
G75*
G03X13512000Y-10223500I-50000J0D01*
G01*
X13920000Y-10173500D02*
X14020000Y-10273500D01*
X14020000Y-10173500D02*
X13920000Y-10273500D01*
X14020000Y-10223500D02*
G75*
G03X14020000Y-10223500I-50000J0D01*
G01*
X14428000Y-10173500D02*
X14528000Y-10273500D01*
X14528000Y-10173500D02*
X14428000Y-10273500D01*
X14528000Y-10223500D02*
G75*
G03X14528000Y-10223500I-50000J0D01*
G01*
X9856000Y-10173500D02*
X9956000Y-10273500D01*
X9956000Y-10173500D02*
X9856000Y-10273500D01*
X9956000Y-10223500D02*
G75*
G03X9956000Y-10223500I-50000J0D01*
G01*
X10364000Y-10173500D02*
X10464000Y-10273500D01*
X10464000Y-10173500D02*
X10364000Y-10273500D01*
X10464000Y-10223500D02*
G75*
G03X10464000Y-10223500I-50000J0D01*
G01*
X14999500Y-12205500D02*
X15099500Y-12305500D01*
X15099500Y-12205500D02*
X14999500Y-12305500D01*
X15099500Y-12255500D02*
G75*
G03X15099500Y-12255500I-50000J0D01*
G01*
X15507500Y-12205500D02*
X15607500Y-12305500D01*
X15607500Y-12205500D02*
X15507500Y-12305500D01*
X15607500Y-12255500D02*
G75*
G03X15607500Y-12255500I-50000J0D01*
G01*
X10935500Y-12205500D02*
X11035500Y-12305500D01*
X11035500Y-12205500D02*
X10935500Y-12305500D01*
X11035500Y-12255500D02*
G75*
G03X11035500Y-12255500I-50000J0D01*
G01*
X11443500Y-12205500D02*
X11543500Y-12305500D01*
X11543500Y-12205500D02*
X11443500Y-12305500D01*
X11543500Y-12255500D02*
G75*
G03X11543500Y-12255500I-50000J0D01*
G01*
X9919500Y-12205500D02*
X10019500Y-12305500D01*
X10019500Y-12205500D02*
X9919500Y-12305500D01*
X10019500Y-12255500D02*
G75*
G03X10019500Y-12255500I-50000J0D01*
G01*
X10427500Y-12205500D02*
X10527500Y-12305500D01*
X10527500Y-12205500D02*
X10427500Y-12305500D01*
X10527500Y-12255500D02*
G75*
G03X10527500Y-12255500I-50000J0D01*
G01*
X14936000Y-10491000D02*
X15036000Y-10591000D01*
X15036000Y-10491000D02*
X14936000Y-10591000D01*
X15036000Y-10541000D02*
G75*
G03X15036000Y-10541000I-50000J0D01*
G01*
X15444000Y-10491000D02*
X15544000Y-10591000D01*
X15544000Y-10491000D02*
X15444000Y-10591000D01*
X15544000Y-10541000D02*
G75*
G03X15544000Y-10541000I-50000J0D01*
G01*
X11951500Y-12205500D02*
X12051500Y-12305500D01*
X12051500Y-12205500D02*
X11951500Y-12305500D01*
X12051500Y-12255500D02*
G75*
G03X12051500Y-12255500I-50000J0D01*
G01*
X12459500Y-12205500D02*
X12559500Y-12305500D01*
X12559500Y-12205500D02*
X12459500Y-12305500D01*
X12559500Y-12255500D02*
G75*
G03X12559500Y-12255500I-50000J0D01*
G01*
X12078462Y-14427962D02*
X12178538Y-14528038D01*
X12178538Y-14427962D02*
X12078462Y-14528038D01*
X12128500Y-14427962D02*
X12128500Y-14528038D01*
X12078462Y-14478000D02*
X12178538Y-14478000D01*
X12332462Y-14427962D02*
X12432538Y-14528038D01*
X12432538Y-14427962D02*
X12332462Y-14528038D01*
X12382500Y-14427962D02*
X12382500Y-14528038D01*
X12332462Y-14478000D02*
X12432538Y-14478000D01*
X13221462Y-14427962D02*
X13321538Y-14528038D01*
X13321538Y-14427962D02*
X13221462Y-14528038D01*
X13271500Y-14427962D02*
X13271500Y-14528038D01*
X13221462Y-14478000D02*
X13321538Y-14478000D01*
X13475462Y-14427962D02*
X13575538Y-14528038D01*
X13575538Y-14427962D02*
X13475462Y-14528038D01*
X13525500Y-14427962D02*
X13525500Y-14528038D01*
X13475462Y-14478000D02*
X13575538Y-14478000D01*
X16967962Y-11951462D02*
X17068038Y-12051538D01*
X17068038Y-11951462D02*
X16967962Y-12051538D01*
X17018000Y-11951462D02*
X17018000Y-12051538D01*
X16967962Y-12001500D02*
X17068038Y-12001500D01*
X16967962Y-12205462D02*
X17068038Y-12305538D01*
X17068038Y-12205462D02*
X16967962Y-12305538D01*
X17018000Y-12205462D02*
X17018000Y-12305538D01*
X16967962Y-12255500D02*
X17068038Y-12255500D01*
X13983462Y-14656562D02*
X14083538Y-14756638D01*
X14083538Y-14656562D02*
X13983462Y-14756638D01*
X14033500Y-14656562D02*
X14033500Y-14756638D01*
X13983462Y-14706600D02*
X14083538Y-14706600D01*
X14237462Y-14656562D02*
X14337538Y-14756638D01*
X14337538Y-14656562D02*
X14237462Y-14756638D01*
X14287500Y-14656562D02*
X14287500Y-14756638D01*
X14237462Y-14706600D02*
X14337538Y-14706600D01*
X14491462Y-14656562D02*
X14591538Y-14756638D01*
X14591538Y-14656562D02*
X14491462Y-14756638D01*
X14541500Y-14656562D02*
X14541500Y-14756638D01*
X14491462Y-14706600D02*
X14591538Y-14706600D01*
X14745462Y-14656562D02*
X14845538Y-14756638D01*
X14845538Y-14656562D02*
X14745462Y-14756638D01*
X14795500Y-14656562D02*
X14795500Y-14756638D01*
X14745462Y-14706600D02*
X14845538Y-14706600D01*
X14999462Y-14656562D02*
X15099538Y-14756638D01*
X15099538Y-14656562D02*
X14999462Y-14756638D01*
X15049500Y-14656562D02*
X15049500Y-14756638D01*
X14999462Y-14706600D02*
X15099538Y-14706600D01*
X15253462Y-14656562D02*
X15353538Y-14756638D01*
X15353538Y-14656562D02*
X15253462Y-14756638D01*
X15303500Y-14656562D02*
X15303500Y-14756638D01*
X15253462Y-14706600D02*
X15353538Y-14706600D01*
X15507462Y-14656562D02*
X15607538Y-14756638D01*
X15607538Y-14656562D02*
X15507462Y-14756638D01*
X15557500Y-14656562D02*
X15557500Y-14756638D01*
X15507462Y-14706600D02*
X15607538Y-14706600D01*
X15761462Y-14656562D02*
X15861538Y-14756638D01*
X15861538Y-14656562D02*
X15761462Y-14756638D01*
X15811500Y-14656562D02*
X15811500Y-14756638D01*
X15761462Y-14706600D02*
X15861538Y-14706600D01*
X16015462Y-14656562D02*
X16115538Y-14756638D01*
X16115538Y-14656562D02*
X16015462Y-14756638D01*
X16065500Y-14656562D02*
X16065500Y-14756638D01*
X16015462Y-14706600D02*
X16115538Y-14706600D01*
X16269462Y-14656562D02*
X16369538Y-14756638D01*
X16369538Y-14656562D02*
X16269462Y-14756638D01*
X16319500Y-14656562D02*
X16319500Y-14756638D01*
X16269462Y-14706600D02*
X16369538Y-14706600D01*
X10109962Y-14427962D02*
X10210038Y-14528038D01*
X10210038Y-14427962D02*
X10109962Y-14528038D01*
X10160000Y-14427962D02*
X10160000Y-14528038D01*
X10109962Y-14478000D02*
X10210038Y-14478000D01*
X10363962Y-14427962D02*
X10464038Y-14528038D01*
X10464038Y-14427962D02*
X10363962Y-14528038D01*
X10414000Y-14427962D02*
X10414000Y-14528038D01*
X10363962Y-14478000D02*
X10464038Y-14478000D01*
X11824462Y-14046962D02*
X11924538Y-14147038D01*
X11924538Y-14046962D02*
X11824462Y-14147038D01*
X11874500Y-14046962D02*
X11874500Y-14147038D01*
X11824462Y-14097000D02*
X11924538Y-14097000D01*
X12078462Y-14046962D02*
X12178538Y-14147038D01*
X12178538Y-14046962D02*
X12078462Y-14147038D01*
X12128500Y-14046962D02*
X12128500Y-14147038D01*
X12078462Y-14097000D02*
X12178538Y-14097000D01*
X12332462Y-14046962D02*
X12432538Y-14147038D01*
X12432538Y-14046962D02*
X12332462Y-14147038D01*
X12382500Y-14046962D02*
X12382500Y-14147038D01*
X12332462Y-14097000D02*
X12432538Y-14097000D01*
X12586462Y-14046962D02*
X12686538Y-14147038D01*
X12686538Y-14046962D02*
X12586462Y-14147038D01*
X12636500Y-14046962D02*
X12636500Y-14147038D01*
X12586462Y-14097000D02*
X12686538Y-14097000D01*
X12840462Y-14046962D02*
X12940538Y-14147038D01*
X12940538Y-14046962D02*
X12840462Y-14147038D01*
X12890500Y-14046962D02*
X12890500Y-14147038D01*
X12840462Y-14097000D02*
X12940538Y-14097000D01*
X9030462Y-15062962D02*
X9130538Y-15163038D01*
X9130538Y-15062962D02*
X9030462Y-15163038D01*
X9080500Y-15062962D02*
X9080500Y-15163038D01*
X9030462Y-15113000D02*
X9130538Y-15113000D01*
X9284462Y-15062962D02*
X9384538Y-15163038D01*
X9384538Y-15062962D02*
X9284462Y-15163038D01*
X9334500Y-15062962D02*
X9334500Y-15163038D01*
X9284462Y-15113000D02*
X9384538Y-15113000D01*
X16955516Y-12764516D02*
X17080484Y-12889484D01*
X17080484Y-12764516D02*
X16955516Y-12889484D01*
X17062183Y-12871183D02*
X17062183Y-12782817D01*
X16973817Y-12782817D01*
X16973817Y-12871183D01*
X17062183Y-12871183D01*
X16955516Y-13272516D02*
X17080484Y-13397484D01*
X17080484Y-13272516D02*
X16955516Y-13397484D01*
X17062183Y-13379183D02*
X17062183Y-13290817D01*
X16973817Y-13290817D01*
X16973817Y-13379183D01*
X17062183Y-13379183D01*
X16883400Y-10203200D02*
X17203400Y-10523200D01*
X17203400Y-10203200D02*
X16883400Y-10523200D01*
X17043400Y-10523200D02*
X17203400Y-10363200D01*
X17043400Y-10203200D01*
X16883400Y-10363200D01*
X17043400Y-10523200D01*
X16883400Y-14876800D02*
X17203400Y-15196800D01*
X17203400Y-14876800D02*
X16883400Y-15196800D01*
X17043400Y-15196800D02*
X17203400Y-15036800D01*
X17043400Y-14876800D01*
X16883400Y-15036800D01*
X17043400Y-15196800D01*
X8196600Y-10190500D02*
X8516600Y-10510500D01*
X8516600Y-10190500D02*
X8196600Y-10510500D01*
X8356600Y-10510500D02*
X8516600Y-10350500D01*
X8356600Y-10190500D01*
X8196600Y-10350500D01*
X8356600Y-10510500D01*
X8196600Y-14876800D02*
X8516600Y-15196800D01*
X8516600Y-14876800D02*
X8196600Y-15196800D01*
X8356600Y-15196800D02*
X8516600Y-15036800D01*
X8356600Y-14876800D01*
X8196600Y-15036800D01*
X8356600Y-15196800D01*
D12*
X8228928Y-15923214D02*
X8228928Y-15623214D01*
X8300357Y-15623214D01*
X8343214Y-15637500D01*
X8371786Y-15666071D01*
X8386071Y-15694643D01*
X8400357Y-15751786D01*
X8400357Y-15794643D01*
X8386071Y-15851786D01*
X8371786Y-15880357D01*
X8343214Y-15908929D01*
X8300357Y-15923214D01*
X8228928Y-15923214D01*
X8528928Y-15923214D02*
X8528928Y-15723214D01*
X8528928Y-15780357D02*
X8543214Y-15751786D01*
X8557500Y-15737500D01*
X8586071Y-15723214D01*
X8614643Y-15723214D01*
X8714643Y-15923214D02*
X8714643Y-15723214D01*
X8714643Y-15623214D02*
X8700357Y-15637500D01*
X8714643Y-15651786D01*
X8728928Y-15637500D01*
X8714643Y-15623214D01*
X8714643Y-15651786D01*
X8900357Y-15923214D02*
X8871786Y-15908929D01*
X8857500Y-15880357D01*
X8857500Y-15623214D01*
X9057500Y-15923214D02*
X9028928Y-15908929D01*
X9014643Y-15880357D01*
X9014643Y-15623214D01*
X9400357Y-15923214D02*
X9400357Y-15623214D01*
X9500357Y-15837500D01*
X9600357Y-15623214D01*
X9600357Y-15923214D01*
X9871786Y-15923214D02*
X9871786Y-15766071D01*
X9857500Y-15737500D01*
X9828928Y-15723214D01*
X9771786Y-15723214D01*
X9743214Y-15737500D01*
X9871786Y-15908929D02*
X9843214Y-15923214D01*
X9771786Y-15923214D01*
X9743214Y-15908929D01*
X9728928Y-15880357D01*
X9728928Y-15851786D01*
X9743214Y-15823214D01*
X9771786Y-15808929D01*
X9843214Y-15808929D01*
X9871786Y-15794643D01*
X10014643Y-15723214D02*
X10014643Y-16023214D01*
X10014643Y-15737500D02*
X10043214Y-15723214D01*
X10100357Y-15723214D01*
X10128928Y-15737500D01*
X10143214Y-15751786D01*
X10157500Y-15780357D01*
X10157500Y-15866071D01*
X10143214Y-15894643D01*
X10128928Y-15908929D01*
X10100357Y-15923214D01*
X10043214Y-15923214D01*
X10014643Y-15908929D01*
X10286071Y-15894643D02*
X10300357Y-15908929D01*
X10286071Y-15923214D01*
X10271786Y-15908929D01*
X10286071Y-15894643D01*
X10286071Y-15923214D01*
X10286071Y-15737500D02*
X10300357Y-15751786D01*
X10286071Y-15766071D01*
X10271786Y-15751786D01*
X10286071Y-15737500D01*
X10286071Y-15766071D01*
X7902500Y-16397500D02*
X7942500Y-16437500D01*
X7942500Y-16397500D02*
X7902500Y-16437500D01*
X8286071Y-16253214D02*
X8314643Y-16253214D01*
X8343214Y-16267500D01*
X8357500Y-16281786D01*
X8371786Y-16310357D01*
X8386071Y-16367500D01*
X8386071Y-16438929D01*
X8371786Y-16496071D01*
X8357500Y-16524643D01*
X8343214Y-16538929D01*
X8314643Y-16553214D01*
X8286071Y-16553214D01*
X8257500Y-16538929D01*
X8243214Y-16524643D01*
X8228928Y-16496071D01*
X8214643Y-16438929D01*
X8214643Y-16367500D01*
X8228928Y-16310357D01*
X8243214Y-16281786D01*
X8257500Y-16267500D01*
X8286071Y-16253214D01*
X8514643Y-16524643D02*
X8528928Y-16538929D01*
X8514643Y-16553214D01*
X8500357Y-16538929D01*
X8514643Y-16524643D01*
X8514643Y-16553214D01*
X8786071Y-16353214D02*
X8786071Y-16553214D01*
X8714643Y-16238929D02*
X8643214Y-16453214D01*
X8828928Y-16453214D01*
X9000357Y-16253214D02*
X9028928Y-16253214D01*
X9057500Y-16267500D01*
X9071786Y-16281786D01*
X9086071Y-16310357D01*
X9100357Y-16367500D01*
X9100357Y-16438929D01*
X9086071Y-16496071D01*
X9071786Y-16524643D01*
X9057500Y-16538929D01*
X9028928Y-16553214D01*
X9000357Y-16553214D01*
X8971786Y-16538929D01*
X8957500Y-16524643D01*
X8943214Y-16496071D01*
X8928928Y-16438929D01*
X8928928Y-16367500D01*
X8943214Y-16310357D01*
X8957500Y-16281786D01*
X8971786Y-16267500D01*
X9000357Y-16253214D01*
X9228928Y-16553214D02*
X9228928Y-16353214D01*
X9228928Y-16381786D02*
X9243214Y-16367500D01*
X9271786Y-16353214D01*
X9314643Y-16353214D01*
X9343214Y-16367500D01*
X9357500Y-16396071D01*
X9357500Y-16553214D01*
X9357500Y-16396071D02*
X9371786Y-16367500D01*
X9400357Y-16353214D01*
X9443214Y-16353214D01*
X9471786Y-16367500D01*
X9486071Y-16396071D01*
X9486071Y-16553214D01*
X9628928Y-16553214D02*
X9628928Y-16353214D01*
X9628928Y-16381786D02*
X9643214Y-16367500D01*
X9671786Y-16353214D01*
X9714643Y-16353214D01*
X9743214Y-16367500D01*
X9757500Y-16396071D01*
X9757500Y-16553214D01*
X9757500Y-16396071D02*
X9771786Y-16367500D01*
X9800357Y-16353214D01*
X9843214Y-16353214D01*
X9871786Y-16367500D01*
X9886071Y-16396071D01*
X9886071Y-16553214D01*
X10471786Y-16238929D02*
X10214643Y-16624643D01*
X10857500Y-16253214D02*
X10886071Y-16253214D01*
X10914643Y-16267500D01*
X10928928Y-16281786D01*
X10943214Y-16310357D01*
X10957500Y-16367500D01*
X10957500Y-16438929D01*
X10943214Y-16496071D01*
X10928928Y-16524643D01*
X10914643Y-16538929D01*
X10886071Y-16553214D01*
X10857500Y-16553214D01*
X10828928Y-16538929D01*
X10814643Y-16524643D01*
X10800357Y-16496071D01*
X10786071Y-16438929D01*
X10786071Y-16367500D01*
X10800357Y-16310357D01*
X10814643Y-16281786D01*
X10828928Y-16267500D01*
X10857500Y-16253214D01*
X11086071Y-16524643D02*
X11100357Y-16538929D01*
X11086071Y-16553214D01*
X11071786Y-16538929D01*
X11086071Y-16524643D01*
X11086071Y-16553214D01*
X11286071Y-16253214D02*
X11314643Y-16253214D01*
X11343214Y-16267500D01*
X11357500Y-16281786D01*
X11371786Y-16310357D01*
X11386071Y-16367500D01*
X11386071Y-16438929D01*
X11371786Y-16496071D01*
X11357500Y-16524643D01*
X11343214Y-16538929D01*
X11314643Y-16553214D01*
X11286071Y-16553214D01*
X11257500Y-16538929D01*
X11243214Y-16524643D01*
X11228928Y-16496071D01*
X11214643Y-16438929D01*
X11214643Y-16367500D01*
X11228928Y-16310357D01*
X11243214Y-16281786D01*
X11257500Y-16267500D01*
X11286071Y-16253214D01*
X11671786Y-16553214D02*
X11500357Y-16553214D01*
X11586071Y-16553214D02*
X11586071Y-16253214D01*
X11557500Y-16296071D01*
X11528928Y-16324643D01*
X11500357Y-16338929D01*
X11928928Y-16253214D02*
X11871786Y-16253214D01*
X11843214Y-16267500D01*
X11828928Y-16281786D01*
X11800357Y-16324643D01*
X11786071Y-16381786D01*
X11786071Y-16496071D01*
X11800357Y-16524643D01*
X11814643Y-16538929D01*
X11843214Y-16553214D01*
X11900357Y-16553214D01*
X11928928Y-16538929D01*
X11943214Y-16524643D01*
X11957500Y-16496071D01*
X11957500Y-16424643D01*
X11943214Y-16396071D01*
X11928928Y-16381786D01*
X11900357Y-16367500D01*
X11843214Y-16367500D01*
X11814643Y-16381786D01*
X11800357Y-16396071D01*
X11786071Y-16424643D01*
X12071786Y-16253214D02*
X12071786Y-16310357D01*
X12186071Y-16253214D02*
X12186071Y-16310357D01*
X12628928Y-16667500D02*
X12614643Y-16653214D01*
X12586071Y-16610357D01*
X12571786Y-16581786D01*
X12557500Y-16538929D01*
X12543214Y-16467500D01*
X12543214Y-16410357D01*
X12557500Y-16338929D01*
X12571786Y-16296071D01*
X12586071Y-16267500D01*
X12614643Y-16224643D01*
X12628928Y-16210357D01*
X12871786Y-16353214D02*
X12871786Y-16553214D01*
X12800357Y-16238929D02*
X12728928Y-16453214D01*
X12914643Y-16453214D01*
X13000357Y-16253214D02*
X13200357Y-16253214D01*
X13071786Y-16553214D01*
X13543214Y-16553214D02*
X13543214Y-16253214D01*
X13671786Y-16553214D02*
X13671786Y-16396071D01*
X13657500Y-16367500D01*
X13628928Y-16353214D01*
X13586071Y-16353214D01*
X13557500Y-16367500D01*
X13543214Y-16381786D01*
X13857500Y-16553214D02*
X13828928Y-16538929D01*
X13814643Y-16524643D01*
X13800357Y-16496071D01*
X13800357Y-16410357D01*
X13814643Y-16381786D01*
X13828928Y-16367500D01*
X13857500Y-16353214D01*
X13900357Y-16353214D01*
X13928928Y-16367500D01*
X13943214Y-16381786D01*
X13957500Y-16410357D01*
X13957500Y-16496071D01*
X13943214Y-16524643D01*
X13928928Y-16538929D01*
X13900357Y-16553214D01*
X13857500Y-16553214D01*
X14128928Y-16553214D02*
X14100357Y-16538929D01*
X14086071Y-16510357D01*
X14086071Y-16253214D01*
X14357500Y-16538929D02*
X14328928Y-16553214D01*
X14271786Y-16553214D01*
X14243214Y-16538929D01*
X14228928Y-16510357D01*
X14228928Y-16396071D01*
X14243214Y-16367500D01*
X14271786Y-16353214D01*
X14328928Y-16353214D01*
X14357500Y-16367500D01*
X14371786Y-16396071D01*
X14371786Y-16424643D01*
X14228928Y-16453214D01*
X14486071Y-16538929D02*
X14514643Y-16553214D01*
X14571786Y-16553214D01*
X14600357Y-16538929D01*
X14614643Y-16510357D01*
X14614643Y-16496071D01*
X14600357Y-16467500D01*
X14571786Y-16453214D01*
X14528928Y-16453214D01*
X14500357Y-16438929D01*
X14486071Y-16410357D01*
X14486071Y-16396071D01*
X14500357Y-16367500D01*
X14528928Y-16353214D01*
X14571786Y-16353214D01*
X14600357Y-16367500D01*
X14714643Y-16667500D02*
X14728928Y-16653214D01*
X14757500Y-16610357D01*
X14771786Y-16581786D01*
X14786071Y-16538929D01*
X14800357Y-16467500D01*
X14800357Y-16410357D01*
X14786071Y-16338929D01*
X14771786Y-16296071D01*
X14757500Y-16267500D01*
X14728928Y-16224643D01*
X14714643Y-16210357D01*
X7942500Y-16813500D02*
G75*
G03X7942500Y-16813500I-25000J0D01*
G01*
X8286071Y-16649214D02*
X8314643Y-16649214D01*
X8343214Y-16663500D01*
X8357500Y-16677786D01*
X8371786Y-16706357D01*
X8386071Y-16763500D01*
X8386071Y-16834929D01*
X8371786Y-16892072D01*
X8357500Y-16920643D01*
X8343214Y-16934929D01*
X8314643Y-16949214D01*
X8286071Y-16949214D01*
X8257500Y-16934929D01*
X8243214Y-16920643D01*
X8228928Y-16892072D01*
X8214643Y-16834929D01*
X8214643Y-16763500D01*
X8228928Y-16706357D01*
X8243214Y-16677786D01*
X8257500Y-16663500D01*
X8286071Y-16649214D01*
X8514643Y-16920643D02*
X8528928Y-16934929D01*
X8514643Y-16949214D01*
X8500357Y-16934929D01*
X8514643Y-16920643D01*
X8514643Y-16949214D01*
X8800357Y-16649214D02*
X8657500Y-16649214D01*
X8643214Y-16792072D01*
X8657500Y-16777786D01*
X8686071Y-16763500D01*
X8757500Y-16763500D01*
X8786071Y-16777786D01*
X8800357Y-16792072D01*
X8814643Y-16820643D01*
X8814643Y-16892072D01*
X8800357Y-16920643D01*
X8786071Y-16934929D01*
X8757500Y-16949214D01*
X8686071Y-16949214D01*
X8657500Y-16934929D01*
X8643214Y-16920643D01*
X9000357Y-16649214D02*
X9028928Y-16649214D01*
X9057500Y-16663500D01*
X9071786Y-16677786D01*
X9086071Y-16706357D01*
X9100357Y-16763500D01*
X9100357Y-16834929D01*
X9086071Y-16892072D01*
X9071786Y-16920643D01*
X9057500Y-16934929D01*
X9028928Y-16949214D01*
X9000357Y-16949214D01*
X8971786Y-16934929D01*
X8957500Y-16920643D01*
X8943214Y-16892072D01*
X8928928Y-16834929D01*
X8928928Y-16763500D01*
X8943214Y-16706357D01*
X8957500Y-16677786D01*
X8971786Y-16663500D01*
X9000357Y-16649214D01*
X9228928Y-16949214D02*
X9228928Y-16749214D01*
X9228928Y-16777786D02*
X9243214Y-16763500D01*
X9271786Y-16749214D01*
X9314643Y-16749214D01*
X9343214Y-16763500D01*
X9357500Y-16792072D01*
X9357500Y-16949214D01*
X9357500Y-16792072D02*
X9371786Y-16763500D01*
X9400357Y-16749214D01*
X9443214Y-16749214D01*
X9471786Y-16763500D01*
X9486071Y-16792072D01*
X9486071Y-16949214D01*
X9628928Y-16949214D02*
X9628928Y-16749214D01*
X9628928Y-16777786D02*
X9643214Y-16763500D01*
X9671786Y-16749214D01*
X9714643Y-16749214D01*
X9743214Y-16763500D01*
X9757500Y-16792072D01*
X9757500Y-16949214D01*
X9757500Y-16792072D02*
X9771786Y-16763500D01*
X9800357Y-16749214D01*
X9843214Y-16749214D01*
X9871786Y-16763500D01*
X9886071Y-16792072D01*
X9886071Y-16949214D01*
X10471786Y-16634929D02*
X10214643Y-17020643D01*
X10857500Y-16649214D02*
X10886071Y-16649214D01*
X10914643Y-16663500D01*
X10928928Y-16677786D01*
X10943214Y-16706357D01*
X10957500Y-16763500D01*
X10957500Y-16834929D01*
X10943214Y-16892072D01*
X10928928Y-16920643D01*
X10914643Y-16934929D01*
X10886071Y-16949214D01*
X10857500Y-16949214D01*
X10828928Y-16934929D01*
X10814643Y-16920643D01*
X10800357Y-16892072D01*
X10786071Y-16834929D01*
X10786071Y-16763500D01*
X10800357Y-16706357D01*
X10814643Y-16677786D01*
X10828928Y-16663500D01*
X10857500Y-16649214D01*
X11086071Y-16920643D02*
X11100357Y-16934929D01*
X11086071Y-16949214D01*
X11071786Y-16934929D01*
X11086071Y-16920643D01*
X11086071Y-16949214D01*
X11286071Y-16649214D02*
X11314643Y-16649214D01*
X11343214Y-16663500D01*
X11357500Y-16677786D01*
X11371786Y-16706357D01*
X11386071Y-16763500D01*
X11386071Y-16834929D01*
X11371786Y-16892072D01*
X11357500Y-16920643D01*
X11343214Y-16934929D01*
X11314643Y-16949214D01*
X11286071Y-16949214D01*
X11257500Y-16934929D01*
X11243214Y-16920643D01*
X11228928Y-16892072D01*
X11214643Y-16834929D01*
X11214643Y-16763500D01*
X11228928Y-16706357D01*
X11243214Y-16677786D01*
X11257500Y-16663500D01*
X11286071Y-16649214D01*
X11500357Y-16677786D02*
X11514643Y-16663500D01*
X11543214Y-16649214D01*
X11614643Y-16649214D01*
X11643214Y-16663500D01*
X11657500Y-16677786D01*
X11671786Y-16706357D01*
X11671786Y-16734929D01*
X11657500Y-16777786D01*
X11486071Y-16949214D01*
X11671786Y-16949214D01*
X11857500Y-16649214D02*
X11886071Y-16649214D01*
X11914643Y-16663500D01*
X11928928Y-16677786D01*
X11943214Y-16706357D01*
X11957500Y-16763500D01*
X11957500Y-16834929D01*
X11943214Y-16892072D01*
X11928928Y-16920643D01*
X11914643Y-16934929D01*
X11886071Y-16949214D01*
X11857500Y-16949214D01*
X11828928Y-16934929D01*
X11814643Y-16920643D01*
X11800357Y-16892072D01*
X11786071Y-16834929D01*
X11786071Y-16763500D01*
X11800357Y-16706357D01*
X11814643Y-16677786D01*
X11828928Y-16663500D01*
X11857500Y-16649214D01*
X12071786Y-16649214D02*
X12071786Y-16706357D01*
X12186071Y-16649214D02*
X12186071Y-16706357D01*
X12628928Y-17063500D02*
X12614643Y-17049214D01*
X12586071Y-17006357D01*
X12571786Y-16977786D01*
X12557500Y-16934929D01*
X12543214Y-16863500D01*
X12543214Y-16806357D01*
X12557500Y-16734929D01*
X12571786Y-16692071D01*
X12586071Y-16663500D01*
X12614643Y-16620643D01*
X12628928Y-16606357D01*
X12714643Y-16649214D02*
X12900357Y-16649214D01*
X12800357Y-16763500D01*
X12843214Y-16763500D01*
X12871786Y-16777786D01*
X12886071Y-16792072D01*
X12900357Y-16820643D01*
X12900357Y-16892072D01*
X12886071Y-16920643D01*
X12871786Y-16934929D01*
X12843214Y-16949214D01*
X12757500Y-16949214D01*
X12728928Y-16934929D01*
X12714643Y-16920643D01*
X13014643Y-16677786D02*
X13028928Y-16663500D01*
X13057500Y-16649214D01*
X13128928Y-16649214D01*
X13157500Y-16663500D01*
X13171786Y-16677786D01*
X13186071Y-16706357D01*
X13186071Y-16734929D01*
X13171786Y-16777786D01*
X13000357Y-16949214D01*
X13186071Y-16949214D01*
X13543214Y-16949214D02*
X13543214Y-16649214D01*
X13671786Y-16949214D02*
X13671786Y-16792072D01*
X13657500Y-16763500D01*
X13628928Y-16749214D01*
X13586071Y-16749214D01*
X13557500Y-16763500D01*
X13543214Y-16777786D01*
X13857500Y-16949214D02*
X13828928Y-16934929D01*
X13814643Y-16920643D01*
X13800357Y-16892072D01*
X13800357Y-16806357D01*
X13814643Y-16777786D01*
X13828928Y-16763500D01*
X13857500Y-16749214D01*
X13900357Y-16749214D01*
X13928928Y-16763500D01*
X13943214Y-16777786D01*
X13957500Y-16806357D01*
X13957500Y-16892072D01*
X13943214Y-16920643D01*
X13928928Y-16934929D01*
X13900357Y-16949214D01*
X13857500Y-16949214D01*
X14128928Y-16949214D02*
X14100357Y-16934929D01*
X14086071Y-16906357D01*
X14086071Y-16649214D01*
X14357500Y-16934929D02*
X14328928Y-16949214D01*
X14271786Y-16949214D01*
X14243214Y-16934929D01*
X14228928Y-16906357D01*
X14228928Y-16792072D01*
X14243214Y-16763500D01*
X14271786Y-16749214D01*
X14328928Y-16749214D01*
X14357500Y-16763500D01*
X14371786Y-16792072D01*
X14371786Y-16820643D01*
X14228928Y-16849214D01*
X14486071Y-16934929D02*
X14514643Y-16949214D01*
X14571786Y-16949214D01*
X14600357Y-16934929D01*
X14614643Y-16906357D01*
X14614643Y-16892072D01*
X14600357Y-16863500D01*
X14571786Y-16849214D01*
X14528928Y-16849214D01*
X14500357Y-16834929D01*
X14486071Y-16806357D01*
X14486071Y-16792072D01*
X14500357Y-16763500D01*
X14528928Y-16749214D01*
X14571786Y-16749214D01*
X14600357Y-16763500D01*
X14714643Y-17063500D02*
X14728928Y-17049214D01*
X14757500Y-17006357D01*
X14771786Y-16977786D01*
X14786071Y-16934929D01*
X14800357Y-16863500D01*
X14800357Y-16806357D01*
X14786071Y-16734929D01*
X14771786Y-16692071D01*
X14757500Y-16663500D01*
X14728928Y-16620643D01*
X14714643Y-16606357D01*
X7912500Y-17179500D02*
X7912500Y-17239500D01*
X7882500Y-17209500D02*
X7942500Y-17209500D01*
X8286071Y-17045214D02*
X8314643Y-17045214D01*
X8343214Y-17059500D01*
X8357500Y-17073786D01*
X8371786Y-17102357D01*
X8386071Y-17159500D01*
X8386071Y-17230929D01*
X8371786Y-17288072D01*
X8357500Y-17316643D01*
X8343214Y-17330929D01*
X8314643Y-17345214D01*
X8286071Y-17345214D01*
X8257500Y-17330929D01*
X8243214Y-17316643D01*
X8228928Y-17288072D01*
X8214643Y-17230929D01*
X8214643Y-17159500D01*
X8228928Y-17102357D01*
X8243214Y-17073786D01*
X8257500Y-17059500D01*
X8286071Y-17045214D01*
X8514643Y-17316643D02*
X8528928Y-17330929D01*
X8514643Y-17345214D01*
X8500357Y-17330929D01*
X8514643Y-17316643D01*
X8514643Y-17345214D01*
X8786071Y-17045214D02*
X8728928Y-17045214D01*
X8700357Y-17059500D01*
X8686071Y-17073786D01*
X8657500Y-17116643D01*
X8643214Y-17173786D01*
X8643214Y-17288072D01*
X8657500Y-17316643D01*
X8671786Y-17330929D01*
X8700357Y-17345214D01*
X8757500Y-17345214D01*
X8786071Y-17330929D01*
X8800357Y-17316643D01*
X8814643Y-17288072D01*
X8814643Y-17216643D01*
X8800357Y-17188072D01*
X8786071Y-17173786D01*
X8757500Y-17159500D01*
X8700357Y-17159500D01*
X8671786Y-17173786D01*
X8657500Y-17188072D01*
X8643214Y-17216643D01*
X9000357Y-17045214D02*
X9028928Y-17045214D01*
X9057500Y-17059500D01*
X9071786Y-17073786D01*
X9086071Y-17102357D01*
X9100357Y-17159500D01*
X9100357Y-17230929D01*
X9086071Y-17288072D01*
X9071786Y-17316643D01*
X9057500Y-17330929D01*
X9028928Y-17345214D01*
X9000357Y-17345214D01*
X8971786Y-17330929D01*
X8957500Y-17316643D01*
X8943214Y-17288072D01*
X8928928Y-17230929D01*
X8928928Y-17159500D01*
X8943214Y-17102357D01*
X8957500Y-17073786D01*
X8971786Y-17059500D01*
X9000357Y-17045214D01*
X9228928Y-17345214D02*
X9228928Y-17145214D01*
X9228928Y-17173786D02*
X9243214Y-17159500D01*
X9271786Y-17145214D01*
X9314643Y-17145214D01*
X9343214Y-17159500D01*
X9357500Y-17188072D01*
X9357500Y-17345214D01*
X9357500Y-17188072D02*
X9371786Y-17159500D01*
X9400357Y-17145214D01*
X9443214Y-17145214D01*
X9471786Y-17159500D01*
X9486071Y-17188072D01*
X9486071Y-17345214D01*
X9628928Y-17345214D02*
X9628928Y-17145214D01*
X9628928Y-17173786D02*
X9643214Y-17159500D01*
X9671786Y-17145214D01*
X9714643Y-17145214D01*
X9743214Y-17159500D01*
X9757500Y-17188072D01*
X9757500Y-17345214D01*
X9757500Y-17188072D02*
X9771786Y-17159500D01*
X9800357Y-17145214D01*
X9843214Y-17145214D01*
X9871786Y-17159500D01*
X9886071Y-17188072D01*
X9886071Y-17345214D01*
X10471786Y-17030929D02*
X10214643Y-17416643D01*
X10857500Y-17045214D02*
X10886071Y-17045214D01*
X10914643Y-17059500D01*
X10928928Y-17073786D01*
X10943214Y-17102357D01*
X10957500Y-17159500D01*
X10957500Y-17230929D01*
X10943214Y-17288072D01*
X10928928Y-17316643D01*
X10914643Y-17330929D01*
X10886071Y-17345214D01*
X10857500Y-17345214D01*
X10828928Y-17330929D01*
X10814643Y-17316643D01*
X10800357Y-17288072D01*
X10786071Y-17230929D01*
X10786071Y-17159500D01*
X10800357Y-17102357D01*
X10814643Y-17073786D01*
X10828928Y-17059500D01*
X10857500Y-17045214D01*
X11086071Y-17316643D02*
X11100357Y-17330929D01*
X11086071Y-17345214D01*
X11071786Y-17330929D01*
X11086071Y-17316643D01*
X11086071Y-17345214D01*
X11286071Y-17045214D02*
X11314643Y-17045214D01*
X11343214Y-17059500D01*
X11357500Y-17073786D01*
X11371786Y-17102357D01*
X11386071Y-17159500D01*
X11386071Y-17230929D01*
X11371786Y-17288072D01*
X11357500Y-17316643D01*
X11343214Y-17330929D01*
X11314643Y-17345214D01*
X11286071Y-17345214D01*
X11257500Y-17330929D01*
X11243214Y-17316643D01*
X11228928Y-17288072D01*
X11214643Y-17230929D01*
X11214643Y-17159500D01*
X11228928Y-17102357D01*
X11243214Y-17073786D01*
X11257500Y-17059500D01*
X11286071Y-17045214D01*
X11500357Y-17073786D02*
X11514643Y-17059500D01*
X11543214Y-17045214D01*
X11614643Y-17045214D01*
X11643214Y-17059500D01*
X11657500Y-17073786D01*
X11671786Y-17102357D01*
X11671786Y-17130929D01*
X11657500Y-17173786D01*
X11486071Y-17345214D01*
X11671786Y-17345214D01*
X11928928Y-17145214D02*
X11928928Y-17345214D01*
X11857500Y-17030929D02*
X11786071Y-17245214D01*
X11971786Y-17245214D01*
X12071786Y-17045214D02*
X12071786Y-17102357D01*
X12186071Y-17045214D02*
X12186071Y-17102357D01*
X12628928Y-17459500D02*
X12614643Y-17445214D01*
X12586071Y-17402357D01*
X12571786Y-17373786D01*
X12557500Y-17330929D01*
X12543214Y-17259500D01*
X12543214Y-17202357D01*
X12557500Y-17130929D01*
X12571786Y-17088072D01*
X12586071Y-17059500D01*
X12614643Y-17016643D01*
X12628928Y-17002357D01*
X12728928Y-17073786D02*
X12743214Y-17059500D01*
X12771786Y-17045214D01*
X12843214Y-17045214D01*
X12871786Y-17059500D01*
X12886071Y-17073786D01*
X12900357Y-17102357D01*
X12900357Y-17130929D01*
X12886071Y-17173786D01*
X12714643Y-17345214D01*
X12900357Y-17345214D01*
X13157500Y-17145214D02*
X13157500Y-17345214D01*
X13086071Y-17030929D02*
X13014643Y-17245214D01*
X13200357Y-17245214D01*
X13543214Y-17345214D02*
X13543214Y-17045214D01*
X13671786Y-17345214D02*
X13671786Y-17188072D01*
X13657500Y-17159500D01*
X13628928Y-17145214D01*
X13586071Y-17145214D01*
X13557500Y-17159500D01*
X13543214Y-17173786D01*
X13857500Y-17345214D02*
X13828928Y-17330929D01*
X13814643Y-17316643D01*
X13800357Y-17288072D01*
X13800357Y-17202357D01*
X13814643Y-17173786D01*
X13828928Y-17159500D01*
X13857500Y-17145214D01*
X13900357Y-17145214D01*
X13928928Y-17159500D01*
X13943214Y-17173786D01*
X13957500Y-17202357D01*
X13957500Y-17288072D01*
X13943214Y-17316643D01*
X13928928Y-17330929D01*
X13900357Y-17345214D01*
X13857500Y-17345214D01*
X14128928Y-17345214D02*
X14100357Y-17330929D01*
X14086071Y-17302357D01*
X14086071Y-17045214D01*
X14357500Y-17330929D02*
X14328928Y-17345214D01*
X14271786Y-17345214D01*
X14243214Y-17330929D01*
X14228928Y-17302357D01*
X14228928Y-17188072D01*
X14243214Y-17159500D01*
X14271786Y-17145214D01*
X14328928Y-17145214D01*
X14357500Y-17159500D01*
X14371786Y-17188072D01*
X14371786Y-17216643D01*
X14228928Y-17245214D01*
X14486071Y-17330929D02*
X14514643Y-17345214D01*
X14571786Y-17345214D01*
X14600357Y-17330929D01*
X14614643Y-17302357D01*
X14614643Y-17288072D01*
X14600357Y-17259500D01*
X14571786Y-17245214D01*
X14528928Y-17245214D01*
X14500357Y-17230929D01*
X14486071Y-17202357D01*
X14486071Y-17188072D01*
X14500357Y-17159500D01*
X14528928Y-17145214D01*
X14571786Y-17145214D01*
X14600357Y-17159500D01*
X14714643Y-17459500D02*
X14728928Y-17445214D01*
X14757500Y-17402357D01*
X14771786Y-17373786D01*
X14786071Y-17330929D01*
X14800357Y-17259500D01*
X14800357Y-17202357D01*
X14786071Y-17130929D01*
X14771786Y-17088072D01*
X14757500Y-17059500D01*
X14728928Y-17016643D01*
X14714643Y-17002357D01*
X7931341Y-17632441D02*
X7931341Y-17578559D01*
X7877459Y-17578559D01*
X7877459Y-17632441D01*
X7931341Y-17632441D01*
X8286071Y-17441214D02*
X8314643Y-17441214D01*
X8343214Y-17455500D01*
X8357500Y-17469786D01*
X8371786Y-17498357D01*
X8386071Y-17555500D01*
X8386071Y-17626929D01*
X8371786Y-17684072D01*
X8357500Y-17712643D01*
X8343214Y-17726929D01*
X8314643Y-17741214D01*
X8286071Y-17741214D01*
X8257500Y-17726929D01*
X8243214Y-17712643D01*
X8228928Y-17684072D01*
X8214643Y-17626929D01*
X8214643Y-17555500D01*
X8228928Y-17498357D01*
X8243214Y-17469786D01*
X8257500Y-17455500D01*
X8286071Y-17441214D01*
X8514643Y-17712643D02*
X8528928Y-17726929D01*
X8514643Y-17741214D01*
X8500357Y-17726929D01*
X8514643Y-17712643D01*
X8514643Y-17741214D01*
X8628928Y-17441214D02*
X8828928Y-17441214D01*
X8700357Y-17741214D01*
X9071786Y-17441214D02*
X9014643Y-17441214D01*
X8986071Y-17455500D01*
X8971786Y-17469786D01*
X8943214Y-17512643D01*
X8928928Y-17569786D01*
X8928928Y-17684072D01*
X8943214Y-17712643D01*
X8957500Y-17726929D01*
X8986071Y-17741214D01*
X9043214Y-17741214D01*
X9071786Y-17726929D01*
X9086071Y-17712643D01*
X9100357Y-17684072D01*
X9100357Y-17612643D01*
X9086071Y-17584072D01*
X9071786Y-17569786D01*
X9043214Y-17555500D01*
X8986071Y-17555500D01*
X8957500Y-17569786D01*
X8943214Y-17584072D01*
X8928928Y-17612643D01*
X9228928Y-17741214D02*
X9228928Y-17541214D01*
X9228928Y-17569786D02*
X9243214Y-17555500D01*
X9271786Y-17541214D01*
X9314643Y-17541214D01*
X9343214Y-17555500D01*
X9357500Y-17584072D01*
X9357500Y-17741214D01*
X9357500Y-17584072D02*
X9371786Y-17555500D01*
X9400357Y-17541214D01*
X9443214Y-17541214D01*
X9471786Y-17555500D01*
X9486071Y-17584072D01*
X9486071Y-17741214D01*
X9628928Y-17741214D02*
X9628928Y-17541214D01*
X9628928Y-17569786D02*
X9643214Y-17555500D01*
X9671786Y-17541214D01*
X9714643Y-17541214D01*
X9743214Y-17555500D01*
X9757500Y-17584072D01*
X9757500Y-17741214D01*
X9757500Y-17584072D02*
X9771786Y-17555500D01*
X9800357Y-17541214D01*
X9843214Y-17541214D01*
X9871786Y-17555500D01*
X9886071Y-17584072D01*
X9886071Y-17741214D01*
X10471786Y-17426929D02*
X10214643Y-17812643D01*
X10857500Y-17441214D02*
X10886071Y-17441214D01*
X10914643Y-17455500D01*
X10928928Y-17469786D01*
X10943214Y-17498357D01*
X10957500Y-17555500D01*
X10957500Y-17626929D01*
X10943214Y-17684072D01*
X10928928Y-17712643D01*
X10914643Y-17726929D01*
X10886071Y-17741214D01*
X10857500Y-17741214D01*
X10828928Y-17726929D01*
X10814643Y-17712643D01*
X10800357Y-17684072D01*
X10786071Y-17626929D01*
X10786071Y-17555500D01*
X10800357Y-17498357D01*
X10814643Y-17469786D01*
X10828928Y-17455500D01*
X10857500Y-17441214D01*
X11086071Y-17712643D02*
X11100357Y-17726929D01*
X11086071Y-17741214D01*
X11071786Y-17726929D01*
X11086071Y-17712643D01*
X11086071Y-17741214D01*
X11286071Y-17441214D02*
X11314643Y-17441214D01*
X11343214Y-17455500D01*
X11357500Y-17469786D01*
X11371786Y-17498357D01*
X11386071Y-17555500D01*
X11386071Y-17626929D01*
X11371786Y-17684072D01*
X11357500Y-17712643D01*
X11343214Y-17726929D01*
X11314643Y-17741214D01*
X11286071Y-17741214D01*
X11257500Y-17726929D01*
X11243214Y-17712643D01*
X11228928Y-17684072D01*
X11214643Y-17626929D01*
X11214643Y-17555500D01*
X11228928Y-17498357D01*
X11243214Y-17469786D01*
X11257500Y-17455500D01*
X11286071Y-17441214D01*
X11486071Y-17441214D02*
X11671786Y-17441214D01*
X11571786Y-17555500D01*
X11614643Y-17555500D01*
X11643214Y-17569786D01*
X11657500Y-17584072D01*
X11671786Y-17612643D01*
X11671786Y-17684072D01*
X11657500Y-17712643D01*
X11643214Y-17726929D01*
X11614643Y-17741214D01*
X11528928Y-17741214D01*
X11500357Y-17726929D01*
X11486071Y-17712643D01*
X11857500Y-17441214D02*
X11886071Y-17441214D01*
X11914643Y-17455500D01*
X11928928Y-17469786D01*
X11943214Y-17498357D01*
X11957500Y-17555500D01*
X11957500Y-17626929D01*
X11943214Y-17684072D01*
X11928928Y-17712643D01*
X11914643Y-17726929D01*
X11886071Y-17741214D01*
X11857500Y-17741214D01*
X11828928Y-17726929D01*
X11814643Y-17712643D01*
X11800357Y-17684072D01*
X11786071Y-17626929D01*
X11786071Y-17555500D01*
X11800357Y-17498357D01*
X11814643Y-17469786D01*
X11828928Y-17455500D01*
X11857500Y-17441214D01*
X12071786Y-17441214D02*
X12071786Y-17498357D01*
X12186071Y-17441214D02*
X12186071Y-17498357D01*
X12628928Y-17855500D02*
X12614643Y-17841214D01*
X12586071Y-17798357D01*
X12571786Y-17769786D01*
X12557500Y-17726929D01*
X12543214Y-17655500D01*
X12543214Y-17598357D01*
X12557500Y-17526929D01*
X12571786Y-17484072D01*
X12586071Y-17455500D01*
X12614643Y-17412643D01*
X12628928Y-17398357D01*
X12714643Y-17441214D02*
X12900357Y-17441214D01*
X12800357Y-17555500D01*
X12843214Y-17555500D01*
X12871786Y-17569786D01*
X12886071Y-17584072D01*
X12900357Y-17612643D01*
X12900357Y-17684072D01*
X12886071Y-17712643D01*
X12871786Y-17726929D01*
X12843214Y-17741214D01*
X12757500Y-17741214D01*
X12728928Y-17726929D01*
X12714643Y-17712643D01*
X13014643Y-17469786D02*
X13028928Y-17455500D01*
X13057500Y-17441214D01*
X13128928Y-17441214D01*
X13157500Y-17455500D01*
X13171786Y-17469786D01*
X13186071Y-17498357D01*
X13186071Y-17526929D01*
X13171786Y-17569786D01*
X13000357Y-17741214D01*
X13186071Y-17741214D01*
X13543214Y-17741214D02*
X13543214Y-17441214D01*
X13671786Y-17741214D02*
X13671786Y-17584072D01*
X13657500Y-17555500D01*
X13628928Y-17541214D01*
X13586071Y-17541214D01*
X13557500Y-17555500D01*
X13543214Y-17569786D01*
X13857500Y-17741214D02*
X13828928Y-17726929D01*
X13814643Y-17712643D01*
X13800357Y-17684072D01*
X13800357Y-17598357D01*
X13814643Y-17569786D01*
X13828928Y-17555500D01*
X13857500Y-17541214D01*
X13900357Y-17541214D01*
X13928928Y-17555500D01*
X13943214Y-17569786D01*
X13957500Y-17598357D01*
X13957500Y-17684072D01*
X13943214Y-17712643D01*
X13928928Y-17726929D01*
X13900357Y-17741214D01*
X13857500Y-17741214D01*
X14128928Y-17741214D02*
X14100357Y-17726929D01*
X14086071Y-17698357D01*
X14086071Y-17441214D01*
X14357500Y-17726929D02*
X14328928Y-17741214D01*
X14271786Y-17741214D01*
X14243214Y-17726929D01*
X14228928Y-17698357D01*
X14228928Y-17584072D01*
X14243214Y-17555500D01*
X14271786Y-17541214D01*
X14328928Y-17541214D01*
X14357500Y-17555500D01*
X14371786Y-17584072D01*
X14371786Y-17612643D01*
X14228928Y-17641214D01*
X14486071Y-17726929D02*
X14514643Y-17741214D01*
X14571786Y-17741214D01*
X14600357Y-17726929D01*
X14614643Y-17698357D01*
X14614643Y-17684072D01*
X14600357Y-17655500D01*
X14571786Y-17641214D01*
X14528928Y-17641214D01*
X14500357Y-17626929D01*
X14486071Y-17598357D01*
X14486071Y-17584072D01*
X14500357Y-17555500D01*
X14528928Y-17541214D01*
X14571786Y-17541214D01*
X14600357Y-17555500D01*
X14714643Y-17855500D02*
X14728928Y-17841214D01*
X14757500Y-17798357D01*
X14771786Y-17769786D01*
X14786071Y-17726929D01*
X14800357Y-17655500D01*
X14800357Y-17598357D01*
X14786071Y-17526929D01*
X14771786Y-17484072D01*
X14757500Y-17455500D01*
X14728928Y-17412643D01*
X14714643Y-17398357D01*
X7902500Y-18041500D02*
X7942500Y-18001500D01*
X7902500Y-17961500D01*
X7862500Y-18001500D01*
X7902500Y-18041500D01*
X8286071Y-17837214D02*
X8314643Y-17837214D01*
X8343214Y-17851500D01*
X8357500Y-17865786D01*
X8371786Y-17894357D01*
X8386071Y-17951500D01*
X8386071Y-18022929D01*
X8371786Y-18080072D01*
X8357500Y-18108643D01*
X8343214Y-18122929D01*
X8314643Y-18137214D01*
X8286071Y-18137214D01*
X8257500Y-18122929D01*
X8243214Y-18108643D01*
X8228928Y-18080072D01*
X8214643Y-18022929D01*
X8214643Y-17951500D01*
X8228928Y-17894357D01*
X8243214Y-17865786D01*
X8257500Y-17851500D01*
X8286071Y-17837214D01*
X8514643Y-18108643D02*
X8528928Y-18122929D01*
X8514643Y-18137214D01*
X8500357Y-18122929D01*
X8514643Y-18108643D01*
X8514643Y-18137214D01*
X8700357Y-17965786D02*
X8671786Y-17951500D01*
X8657500Y-17937214D01*
X8643214Y-17908643D01*
X8643214Y-17894357D01*
X8657500Y-17865786D01*
X8671786Y-17851500D01*
X8700357Y-17837214D01*
X8757500Y-17837214D01*
X8786071Y-17851500D01*
X8800357Y-17865786D01*
X8814643Y-17894357D01*
X8814643Y-17908643D01*
X8800357Y-17937214D01*
X8786071Y-17951500D01*
X8757500Y-17965786D01*
X8700357Y-17965786D01*
X8671786Y-17980072D01*
X8657500Y-17994357D01*
X8643214Y-18022929D01*
X8643214Y-18080072D01*
X8657500Y-18108643D01*
X8671786Y-18122929D01*
X8700357Y-18137214D01*
X8757500Y-18137214D01*
X8786071Y-18122929D01*
X8800357Y-18108643D01*
X8814643Y-18080072D01*
X8814643Y-18022929D01*
X8800357Y-17994357D01*
X8786071Y-17980072D01*
X8757500Y-17965786D01*
X9000357Y-17837214D02*
X9028928Y-17837214D01*
X9057500Y-17851500D01*
X9071786Y-17865786D01*
X9086071Y-17894357D01*
X9100357Y-17951500D01*
X9100357Y-18022929D01*
X9086071Y-18080072D01*
X9071786Y-18108643D01*
X9057500Y-18122929D01*
X9028928Y-18137214D01*
X9000357Y-18137214D01*
X8971786Y-18122929D01*
X8957500Y-18108643D01*
X8943214Y-18080072D01*
X8928928Y-18022929D01*
X8928928Y-17951500D01*
X8943214Y-17894357D01*
X8957500Y-17865786D01*
X8971786Y-17851500D01*
X9000357Y-17837214D01*
X9228928Y-18137214D02*
X9228928Y-17937214D01*
X9228928Y-17965786D02*
X9243214Y-17951500D01*
X9271786Y-17937214D01*
X9314643Y-17937214D01*
X9343214Y-17951500D01*
X9357500Y-17980072D01*
X9357500Y-18137214D01*
X9357500Y-17980072D02*
X9371786Y-17951500D01*
X9400357Y-17937214D01*
X9443214Y-17937214D01*
X9471786Y-17951500D01*
X9486071Y-17980072D01*
X9486071Y-18137214D01*
X9628928Y-18137214D02*
X9628928Y-17937214D01*
X9628928Y-17965786D02*
X9643214Y-17951500D01*
X9671786Y-17937214D01*
X9714643Y-17937214D01*
X9743214Y-17951500D01*
X9757500Y-17980072D01*
X9757500Y-18137214D01*
X9757500Y-17980072D02*
X9771786Y-17951500D01*
X9800357Y-17937214D01*
X9843214Y-17937214D01*
X9871786Y-17951500D01*
X9886071Y-17980072D01*
X9886071Y-18137214D01*
X10471786Y-17822929D02*
X10214643Y-18208643D01*
X10857500Y-17837214D02*
X10886071Y-17837214D01*
X10914643Y-17851500D01*
X10928928Y-17865786D01*
X10943214Y-17894357D01*
X10957500Y-17951500D01*
X10957500Y-18022929D01*
X10943214Y-18080072D01*
X10928928Y-18108643D01*
X10914643Y-18122929D01*
X10886071Y-18137214D01*
X10857500Y-18137214D01*
X10828928Y-18122929D01*
X10814643Y-18108643D01*
X10800357Y-18080072D01*
X10786071Y-18022929D01*
X10786071Y-17951500D01*
X10800357Y-17894357D01*
X10814643Y-17865786D01*
X10828928Y-17851500D01*
X10857500Y-17837214D01*
X11086071Y-18108643D02*
X11100357Y-18122929D01*
X11086071Y-18137214D01*
X11071786Y-18122929D01*
X11086071Y-18108643D01*
X11086071Y-18137214D01*
X11286071Y-17837214D02*
X11314643Y-17837214D01*
X11343214Y-17851500D01*
X11357500Y-17865786D01*
X11371786Y-17894357D01*
X11386071Y-17951500D01*
X11386071Y-18022929D01*
X11371786Y-18080072D01*
X11357500Y-18108643D01*
X11343214Y-18122929D01*
X11314643Y-18137214D01*
X11286071Y-18137214D01*
X11257500Y-18122929D01*
X11243214Y-18108643D01*
X11228928Y-18080072D01*
X11214643Y-18022929D01*
X11214643Y-17951500D01*
X11228928Y-17894357D01*
X11243214Y-17865786D01*
X11257500Y-17851500D01*
X11286071Y-17837214D01*
X11486071Y-17837214D02*
X11671786Y-17837214D01*
X11571786Y-17951500D01*
X11614643Y-17951500D01*
X11643214Y-17965786D01*
X11657500Y-17980072D01*
X11671786Y-18008643D01*
X11671786Y-18080072D01*
X11657500Y-18108643D01*
X11643214Y-18122929D01*
X11614643Y-18137214D01*
X11528928Y-18137214D01*
X11500357Y-18122929D01*
X11486071Y-18108643D01*
X11957500Y-18137214D02*
X11786071Y-18137214D01*
X11871786Y-18137214D02*
X11871786Y-17837214D01*
X11843214Y-17880072D01*
X11814643Y-17908643D01*
X11786071Y-17922929D01*
X12071786Y-17837214D02*
X12071786Y-17894357D01*
X12186071Y-17837214D02*
X12186071Y-17894357D01*
X12628928Y-18251500D02*
X12614643Y-18237214D01*
X12586071Y-18194357D01*
X12571786Y-18165786D01*
X12557500Y-18122929D01*
X12543214Y-18051500D01*
X12543214Y-17994357D01*
X12557500Y-17922929D01*
X12571786Y-17880072D01*
X12586071Y-17851500D01*
X12614643Y-17808643D01*
X12628928Y-17794357D01*
X12714643Y-17837214D02*
X12900357Y-17837214D01*
X12800357Y-17951500D01*
X12843214Y-17951500D01*
X12871786Y-17965786D01*
X12886071Y-17980072D01*
X12900357Y-18008643D01*
X12900357Y-18080072D01*
X12886071Y-18108643D01*
X12871786Y-18122929D01*
X12843214Y-18137214D01*
X12757500Y-18137214D01*
X12728928Y-18122929D01*
X12714643Y-18108643D01*
X13186071Y-18137214D02*
X13014643Y-18137214D01*
X13100357Y-18137214D02*
X13100357Y-17837214D01*
X13071786Y-17880072D01*
X13043214Y-17908643D01*
X13014643Y-17922929D01*
X13543214Y-18137214D02*
X13543214Y-17837214D01*
X13671786Y-18137214D02*
X13671786Y-17980072D01*
X13657500Y-17951500D01*
X13628928Y-17937214D01*
X13586071Y-17937214D01*
X13557500Y-17951500D01*
X13543214Y-17965786D01*
X13857500Y-18137214D02*
X13828928Y-18122929D01*
X13814643Y-18108643D01*
X13800357Y-18080072D01*
X13800357Y-17994357D01*
X13814643Y-17965786D01*
X13828928Y-17951500D01*
X13857500Y-17937214D01*
X13900357Y-17937214D01*
X13928928Y-17951500D01*
X13943214Y-17965786D01*
X13957500Y-17994357D01*
X13957500Y-18080072D01*
X13943214Y-18108643D01*
X13928928Y-18122929D01*
X13900357Y-18137214D01*
X13857500Y-18137214D01*
X14128928Y-18137214D02*
X14100357Y-18122929D01*
X14086071Y-18094357D01*
X14086071Y-17837214D01*
X14357500Y-18122929D02*
X14328928Y-18137214D01*
X14271786Y-18137214D01*
X14243214Y-18122929D01*
X14228928Y-18094357D01*
X14228928Y-17980072D01*
X14243214Y-17951500D01*
X14271786Y-17937214D01*
X14328928Y-17937214D01*
X14357500Y-17951500D01*
X14371786Y-17980072D01*
X14371786Y-18008643D01*
X14228928Y-18037214D01*
X14486071Y-18122929D02*
X14514643Y-18137214D01*
X14571786Y-18137214D01*
X14600357Y-18122929D01*
X14614643Y-18094357D01*
X14614643Y-18080072D01*
X14600357Y-18051500D01*
X14571786Y-18037214D01*
X14528928Y-18037214D01*
X14500357Y-18022929D01*
X14486071Y-17994357D01*
X14486071Y-17980072D01*
X14500357Y-17951500D01*
X14528928Y-17937214D01*
X14571786Y-17937214D01*
X14600357Y-17951500D01*
X14714643Y-18251500D02*
X14728928Y-18237214D01*
X14757500Y-18194357D01*
X14771786Y-18165786D01*
X14786071Y-18122929D01*
X14800357Y-18051500D01*
X14800357Y-17994357D01*
X14786071Y-17922929D01*
X14771786Y-17880072D01*
X14757500Y-17851500D01*
X14728928Y-17808643D01*
X14714643Y-17794357D01*
X7842500Y-18347500D02*
X7942500Y-18447500D01*
X7942500Y-18347500D02*
X7842500Y-18447500D01*
X7942500Y-18397500D02*
G75*
G03X7942500Y-18397500I-50000J0D01*
G01*
X8386071Y-18533214D02*
X8214643Y-18533214D01*
X8300357Y-18533214D02*
X8300357Y-18233214D01*
X8271786Y-18276072D01*
X8243214Y-18304643D01*
X8214643Y-18318929D01*
X8514643Y-18504643D02*
X8528928Y-18518929D01*
X8514643Y-18533214D01*
X8500357Y-18518929D01*
X8514643Y-18504643D01*
X8514643Y-18533214D01*
X8714643Y-18233214D02*
X8743214Y-18233214D01*
X8771786Y-18247500D01*
X8786071Y-18261786D01*
X8800357Y-18290357D01*
X8814643Y-18347500D01*
X8814643Y-18418929D01*
X8800357Y-18476072D01*
X8786071Y-18504643D01*
X8771786Y-18518929D01*
X8743214Y-18533214D01*
X8714643Y-18533214D01*
X8686071Y-18518929D01*
X8671786Y-18504643D01*
X8657500Y-18476072D01*
X8643214Y-18418929D01*
X8643214Y-18347500D01*
X8657500Y-18290357D01*
X8671786Y-18261786D01*
X8686071Y-18247500D01*
X8714643Y-18233214D01*
X9000357Y-18233214D02*
X9028928Y-18233214D01*
X9057500Y-18247500D01*
X9071786Y-18261786D01*
X9086071Y-18290357D01*
X9100357Y-18347500D01*
X9100357Y-18418929D01*
X9086071Y-18476072D01*
X9071786Y-18504643D01*
X9057500Y-18518929D01*
X9028928Y-18533214D01*
X9000357Y-18533214D01*
X8971786Y-18518929D01*
X8957500Y-18504643D01*
X8943214Y-18476072D01*
X8928928Y-18418929D01*
X8928928Y-18347500D01*
X8943214Y-18290357D01*
X8957500Y-18261786D01*
X8971786Y-18247500D01*
X9000357Y-18233214D01*
X9228928Y-18533214D02*
X9228928Y-18333214D01*
X9228928Y-18361786D02*
X9243214Y-18347500D01*
X9271786Y-18333214D01*
X9314643Y-18333214D01*
X9343214Y-18347500D01*
X9357500Y-18376072D01*
X9357500Y-18533214D01*
X9357500Y-18376072D02*
X9371786Y-18347500D01*
X9400357Y-18333214D01*
X9443214Y-18333214D01*
X9471786Y-18347500D01*
X9486071Y-18376072D01*
X9486071Y-18533214D01*
X9628928Y-18533214D02*
X9628928Y-18333214D01*
X9628928Y-18361786D02*
X9643214Y-18347500D01*
X9671786Y-18333214D01*
X9714643Y-18333214D01*
X9743214Y-18347500D01*
X9757500Y-18376072D01*
X9757500Y-18533214D01*
X9757500Y-18376072D02*
X9771786Y-18347500D01*
X9800357Y-18333214D01*
X9843214Y-18333214D01*
X9871786Y-18347500D01*
X9886071Y-18376072D01*
X9886071Y-18533214D01*
X10471786Y-18218929D02*
X10214643Y-18604643D01*
X10857500Y-18233214D02*
X10886071Y-18233214D01*
X10914643Y-18247500D01*
X10928928Y-18261786D01*
X10943214Y-18290357D01*
X10957500Y-18347500D01*
X10957500Y-18418929D01*
X10943214Y-18476072D01*
X10928928Y-18504643D01*
X10914643Y-18518929D01*
X10886071Y-18533214D01*
X10857500Y-18533214D01*
X10828928Y-18518929D01*
X10814643Y-18504643D01*
X10800357Y-18476072D01*
X10786071Y-18418929D01*
X10786071Y-18347500D01*
X10800357Y-18290357D01*
X10814643Y-18261786D01*
X10828928Y-18247500D01*
X10857500Y-18233214D01*
X11086071Y-18504643D02*
X11100357Y-18518929D01*
X11086071Y-18533214D01*
X11071786Y-18518929D01*
X11086071Y-18504643D01*
X11086071Y-18533214D01*
X11286071Y-18233214D02*
X11314643Y-18233214D01*
X11343214Y-18247500D01*
X11357500Y-18261786D01*
X11371786Y-18290357D01*
X11386071Y-18347500D01*
X11386071Y-18418929D01*
X11371786Y-18476072D01*
X11357500Y-18504643D01*
X11343214Y-18518929D01*
X11314643Y-18533214D01*
X11286071Y-18533214D01*
X11257500Y-18518929D01*
X11243214Y-18504643D01*
X11228928Y-18476072D01*
X11214643Y-18418929D01*
X11214643Y-18347500D01*
X11228928Y-18290357D01*
X11243214Y-18261786D01*
X11257500Y-18247500D01*
X11286071Y-18233214D01*
X11486071Y-18233214D02*
X11671786Y-18233214D01*
X11571786Y-18347500D01*
X11614643Y-18347500D01*
X11643214Y-18361786D01*
X11657500Y-18376072D01*
X11671786Y-18404643D01*
X11671786Y-18476072D01*
X11657500Y-18504643D01*
X11643214Y-18518929D01*
X11614643Y-18533214D01*
X11528928Y-18533214D01*
X11500357Y-18518929D01*
X11486071Y-18504643D01*
X11814643Y-18533214D02*
X11871786Y-18533214D01*
X11900357Y-18518929D01*
X11914643Y-18504643D01*
X11943214Y-18461786D01*
X11957500Y-18404643D01*
X11957500Y-18290357D01*
X11943214Y-18261786D01*
X11928928Y-18247500D01*
X11900357Y-18233214D01*
X11843214Y-18233214D01*
X11814643Y-18247500D01*
X11800357Y-18261786D01*
X11786071Y-18290357D01*
X11786071Y-18361786D01*
X11800357Y-18390357D01*
X11814643Y-18404643D01*
X11843214Y-18418929D01*
X11900357Y-18418929D01*
X11928928Y-18404643D01*
X11943214Y-18390357D01*
X11957500Y-18361786D01*
X12071786Y-18233214D02*
X12071786Y-18290357D01*
X12186071Y-18233214D02*
X12186071Y-18290357D01*
X12628928Y-18647500D02*
X12614643Y-18633214D01*
X12586071Y-18590357D01*
X12571786Y-18561786D01*
X12557500Y-18518929D01*
X12543214Y-18447500D01*
X12543214Y-18390357D01*
X12557500Y-18318929D01*
X12571786Y-18276072D01*
X12586071Y-18247500D01*
X12614643Y-18204643D01*
X12628928Y-18190357D01*
X12871786Y-18333214D02*
X12871786Y-18533214D01*
X12800357Y-18218929D02*
X12728928Y-18433214D01*
X12914643Y-18433214D01*
X13071786Y-18361786D02*
X13043214Y-18347500D01*
X13028928Y-18333214D01*
X13014643Y-18304643D01*
X13014643Y-18290357D01*
X13028928Y-18261786D01*
X13043214Y-18247500D01*
X13071786Y-18233214D01*
X13128928Y-18233214D01*
X13157500Y-18247500D01*
X13171786Y-18261786D01*
X13186071Y-18290357D01*
X13186071Y-18304643D01*
X13171786Y-18333214D01*
X13157500Y-18347500D01*
X13128928Y-18361786D01*
X13071786Y-18361786D01*
X13043214Y-18376072D01*
X13028928Y-18390357D01*
X13014643Y-18418929D01*
X13014643Y-18476072D01*
X13028928Y-18504643D01*
X13043214Y-18518929D01*
X13071786Y-18533214D01*
X13128928Y-18533214D01*
X13157500Y-18518929D01*
X13171786Y-18504643D01*
X13186071Y-18476072D01*
X13186071Y-18418929D01*
X13171786Y-18390357D01*
X13157500Y-18376072D01*
X13128928Y-18361786D01*
X13543214Y-18533214D02*
X13543214Y-18233214D01*
X13671786Y-18533214D02*
X13671786Y-18376072D01*
X13657500Y-18347500D01*
X13628928Y-18333214D01*
X13586071Y-18333214D01*
X13557500Y-18347500D01*
X13543214Y-18361786D01*
X13857500Y-18533214D02*
X13828928Y-18518929D01*
X13814643Y-18504643D01*
X13800357Y-18476072D01*
X13800357Y-18390357D01*
X13814643Y-18361786D01*
X13828928Y-18347500D01*
X13857500Y-18333214D01*
X13900357Y-18333214D01*
X13928928Y-18347500D01*
X13943214Y-18361786D01*
X13957500Y-18390357D01*
X13957500Y-18476072D01*
X13943214Y-18504643D01*
X13928928Y-18518929D01*
X13900357Y-18533214D01*
X13857500Y-18533214D01*
X14128928Y-18533214D02*
X14100357Y-18518929D01*
X14086071Y-18490357D01*
X14086071Y-18233214D01*
X14357500Y-18518929D02*
X14328928Y-18533214D01*
X14271786Y-18533214D01*
X14243214Y-18518929D01*
X14228928Y-18490357D01*
X14228928Y-18376072D01*
X14243214Y-18347500D01*
X14271786Y-18333214D01*
X14328928Y-18333214D01*
X14357500Y-18347500D01*
X14371786Y-18376072D01*
X14371786Y-18404643D01*
X14228928Y-18433214D01*
X14486071Y-18518929D02*
X14514643Y-18533214D01*
X14571786Y-18533214D01*
X14600357Y-18518929D01*
X14614643Y-18490357D01*
X14614643Y-18476072D01*
X14600357Y-18447500D01*
X14571786Y-18433214D01*
X14528928Y-18433214D01*
X14500357Y-18418929D01*
X14486071Y-18390357D01*
X14486071Y-18376072D01*
X14500357Y-18347500D01*
X14528928Y-18333214D01*
X14571786Y-18333214D01*
X14600357Y-18347500D01*
X14971786Y-18418929D02*
X15200357Y-18418929D01*
X15086071Y-18533214D02*
X15086071Y-18304643D01*
X15543214Y-18233214D02*
X15728928Y-18233214D01*
X15628928Y-18347500D01*
X15671786Y-18347500D01*
X15700357Y-18361786D01*
X15714643Y-18376072D01*
X15728928Y-18404643D01*
X15728928Y-18476072D01*
X15714643Y-18504643D01*
X15700357Y-18518929D01*
X15671786Y-18533214D01*
X15586071Y-18533214D01*
X15557500Y-18518929D01*
X15543214Y-18504643D01*
X16071786Y-18518929D02*
X16100357Y-18533214D01*
X16157500Y-18533214D01*
X16186071Y-18518929D01*
X16200357Y-18490357D01*
X16200357Y-18476072D01*
X16186071Y-18447500D01*
X16157500Y-18433214D01*
X16114643Y-18433214D01*
X16086071Y-18418929D01*
X16071786Y-18390357D01*
X16071786Y-18376072D01*
X16086071Y-18347500D01*
X16114643Y-18333214D01*
X16157500Y-18333214D01*
X16186071Y-18347500D01*
X16371786Y-18533214D02*
X16343214Y-18518929D01*
X16328928Y-18490357D01*
X16328928Y-18233214D01*
X16528928Y-18533214D02*
X16500357Y-18518929D01*
X16486071Y-18504643D01*
X16471786Y-18476072D01*
X16471786Y-18390357D01*
X16486071Y-18361786D01*
X16500357Y-18347500D01*
X16528928Y-18333214D01*
X16571786Y-18333214D01*
X16600357Y-18347500D01*
X16614643Y-18361786D01*
X16628928Y-18390357D01*
X16628928Y-18476072D01*
X16614643Y-18504643D01*
X16600357Y-18518929D01*
X16571786Y-18533214D01*
X16528928Y-18533214D01*
X16714643Y-18333214D02*
X16828928Y-18333214D01*
X16757500Y-18233214D02*
X16757500Y-18490357D01*
X16771786Y-18518929D01*
X16800357Y-18533214D01*
X16828928Y-18533214D01*
X16914643Y-18518929D02*
X16943214Y-18533214D01*
X17000357Y-18533214D01*
X17028928Y-18518929D01*
X17043214Y-18490357D01*
X17043214Y-18476072D01*
X17028928Y-18447500D01*
X17000357Y-18433214D01*
X16957500Y-18433214D01*
X16928928Y-18418929D01*
X16914643Y-18390357D01*
X16914643Y-18376072D01*
X16928928Y-18347500D01*
X16957500Y-18333214D01*
X17000357Y-18333214D01*
X17028928Y-18347500D01*
X17143214Y-18647500D02*
X17157500Y-18633214D01*
X17186071Y-18590357D01*
X17200357Y-18561786D01*
X17214643Y-18518929D01*
X17228928Y-18447500D01*
X17228928Y-18390357D01*
X17214643Y-18318929D01*
X17200357Y-18276072D01*
X17186071Y-18247500D01*
X17157500Y-18204643D01*
X17143214Y-18190357D01*
X7842424Y-18743462D02*
X7942500Y-18843538D01*
X7942500Y-18743462D02*
X7842424Y-18843538D01*
X7892462Y-18743462D02*
X7892462Y-18843538D01*
X7842424Y-18793500D02*
X7942500Y-18793500D01*
X8386071Y-18929214D02*
X8214643Y-18929214D01*
X8300357Y-18929214D02*
X8300357Y-18629214D01*
X8271786Y-18672072D01*
X8243214Y-18700643D01*
X8214643Y-18714929D01*
X8514643Y-18900643D02*
X8528928Y-18914929D01*
X8514643Y-18929214D01*
X8500357Y-18914929D01*
X8514643Y-18900643D01*
X8514643Y-18929214D01*
X8714643Y-18629214D02*
X8743214Y-18629214D01*
X8771786Y-18643500D01*
X8786071Y-18657786D01*
X8800357Y-18686357D01*
X8814643Y-18743500D01*
X8814643Y-18814929D01*
X8800357Y-18872072D01*
X8786071Y-18900643D01*
X8771786Y-18914929D01*
X8743214Y-18929214D01*
X8714643Y-18929214D01*
X8686071Y-18914929D01*
X8671786Y-18900643D01*
X8657500Y-18872072D01*
X8643214Y-18814929D01*
X8643214Y-18743500D01*
X8657500Y-18686357D01*
X8671786Y-18657786D01*
X8686071Y-18643500D01*
X8714643Y-18629214D01*
X9000357Y-18629214D02*
X9028928Y-18629214D01*
X9057500Y-18643500D01*
X9071786Y-18657786D01*
X9086071Y-18686357D01*
X9100357Y-18743500D01*
X9100357Y-18814929D01*
X9086071Y-18872072D01*
X9071786Y-18900643D01*
X9057500Y-18914929D01*
X9028928Y-18929214D01*
X9000357Y-18929214D01*
X8971786Y-18914929D01*
X8957500Y-18900643D01*
X8943214Y-18872072D01*
X8928928Y-18814929D01*
X8928928Y-18743500D01*
X8943214Y-18686357D01*
X8957500Y-18657786D01*
X8971786Y-18643500D01*
X9000357Y-18629214D01*
X9228928Y-18929214D02*
X9228928Y-18729214D01*
X9228928Y-18757786D02*
X9243214Y-18743500D01*
X9271786Y-18729214D01*
X9314643Y-18729214D01*
X9343214Y-18743500D01*
X9357500Y-18772072D01*
X9357500Y-18929214D01*
X9357500Y-18772072D02*
X9371786Y-18743500D01*
X9400357Y-18729214D01*
X9443214Y-18729214D01*
X9471786Y-18743500D01*
X9486071Y-18772072D01*
X9486071Y-18929214D01*
X9628928Y-18929214D02*
X9628928Y-18729214D01*
X9628928Y-18757786D02*
X9643214Y-18743500D01*
X9671786Y-18729214D01*
X9714643Y-18729214D01*
X9743214Y-18743500D01*
X9757500Y-18772072D01*
X9757500Y-18929214D01*
X9757500Y-18772072D02*
X9771786Y-18743500D01*
X9800357Y-18729214D01*
X9843214Y-18729214D01*
X9871786Y-18743500D01*
X9886071Y-18772072D01*
X9886071Y-18929214D01*
X10471786Y-18614929D02*
X10214643Y-19000643D01*
X10857500Y-18629214D02*
X10886071Y-18629214D01*
X10914643Y-18643500D01*
X10928928Y-18657786D01*
X10943214Y-18686357D01*
X10957500Y-18743500D01*
X10957500Y-18814929D01*
X10943214Y-18872072D01*
X10928928Y-18900643D01*
X10914643Y-18914929D01*
X10886071Y-18929214D01*
X10857500Y-18929214D01*
X10828928Y-18914929D01*
X10814643Y-18900643D01*
X10800357Y-18872072D01*
X10786071Y-18814929D01*
X10786071Y-18743500D01*
X10800357Y-18686357D01*
X10814643Y-18657786D01*
X10828928Y-18643500D01*
X10857500Y-18629214D01*
X11086071Y-18900643D02*
X11100357Y-18914929D01*
X11086071Y-18929214D01*
X11071786Y-18914929D01*
X11086071Y-18900643D01*
X11086071Y-18929214D01*
X11286071Y-18629214D02*
X11314643Y-18629214D01*
X11343214Y-18643500D01*
X11357500Y-18657786D01*
X11371786Y-18686357D01*
X11386071Y-18743500D01*
X11386071Y-18814929D01*
X11371786Y-18872072D01*
X11357500Y-18900643D01*
X11343214Y-18914929D01*
X11314643Y-18929214D01*
X11286071Y-18929214D01*
X11257500Y-18914929D01*
X11243214Y-18900643D01*
X11228928Y-18872072D01*
X11214643Y-18814929D01*
X11214643Y-18743500D01*
X11228928Y-18686357D01*
X11243214Y-18657786D01*
X11257500Y-18643500D01*
X11286071Y-18629214D01*
X11486071Y-18629214D02*
X11671786Y-18629214D01*
X11571786Y-18743500D01*
X11614643Y-18743500D01*
X11643214Y-18757786D01*
X11657500Y-18772072D01*
X11671786Y-18800643D01*
X11671786Y-18872072D01*
X11657500Y-18900643D01*
X11643214Y-18914929D01*
X11614643Y-18929214D01*
X11528928Y-18929214D01*
X11500357Y-18914929D01*
X11486071Y-18900643D01*
X11814643Y-18929214D02*
X11871786Y-18929214D01*
X11900357Y-18914929D01*
X11914643Y-18900643D01*
X11943214Y-18857786D01*
X11957500Y-18800643D01*
X11957500Y-18686357D01*
X11943214Y-18657786D01*
X11928928Y-18643500D01*
X11900357Y-18629214D01*
X11843214Y-18629214D01*
X11814643Y-18643500D01*
X11800357Y-18657786D01*
X11786071Y-18686357D01*
X11786071Y-18757786D01*
X11800357Y-18786357D01*
X11814643Y-18800643D01*
X11843214Y-18814929D01*
X11900357Y-18814929D01*
X11928928Y-18800643D01*
X11943214Y-18786357D01*
X11957500Y-18757786D01*
X12071786Y-18629214D02*
X12071786Y-18686357D01*
X12186071Y-18629214D02*
X12186071Y-18686357D01*
X12628928Y-19043500D02*
X12614643Y-19029214D01*
X12586071Y-18986357D01*
X12571786Y-18957786D01*
X12557500Y-18914929D01*
X12543214Y-18843500D01*
X12543214Y-18786357D01*
X12557500Y-18714929D01*
X12571786Y-18672072D01*
X12586071Y-18643500D01*
X12614643Y-18600643D01*
X12628928Y-18586357D01*
X12728928Y-18657786D02*
X12743214Y-18643500D01*
X12771786Y-18629214D01*
X12843214Y-18629214D01*
X12871786Y-18643500D01*
X12886071Y-18657786D01*
X12900357Y-18686357D01*
X12900357Y-18714929D01*
X12886071Y-18757786D01*
X12714643Y-18929214D01*
X12900357Y-18929214D01*
X13171786Y-18629214D02*
X13028928Y-18629214D01*
X13014643Y-18772072D01*
X13028928Y-18757786D01*
X13057500Y-18743500D01*
X13128928Y-18743500D01*
X13157500Y-18757786D01*
X13171786Y-18772072D01*
X13186071Y-18800643D01*
X13186071Y-18872072D01*
X13171786Y-18900643D01*
X13157500Y-18914929D01*
X13128928Y-18929214D01*
X13057500Y-18929214D01*
X13028928Y-18914929D01*
X13014643Y-18900643D01*
X13543214Y-18929214D02*
X13543214Y-18629214D01*
X13671786Y-18929214D02*
X13671786Y-18772072D01*
X13657500Y-18743500D01*
X13628928Y-18729214D01*
X13586071Y-18729214D01*
X13557500Y-18743500D01*
X13543214Y-18757786D01*
X13857500Y-18929214D02*
X13828928Y-18914929D01*
X13814643Y-18900643D01*
X13800357Y-18872072D01*
X13800357Y-18786357D01*
X13814643Y-18757786D01*
X13828928Y-18743500D01*
X13857500Y-18729214D01*
X13900357Y-18729214D01*
X13928928Y-18743500D01*
X13943214Y-18757786D01*
X13957500Y-18786357D01*
X13957500Y-18872072D01*
X13943214Y-18900643D01*
X13928928Y-18914929D01*
X13900357Y-18929214D01*
X13857500Y-18929214D01*
X14128928Y-18929214D02*
X14100357Y-18914929D01*
X14086071Y-18886357D01*
X14086071Y-18629214D01*
X14357500Y-18914929D02*
X14328928Y-18929214D01*
X14271786Y-18929214D01*
X14243214Y-18914929D01*
X14228928Y-18886357D01*
X14228928Y-18772072D01*
X14243214Y-18743500D01*
X14271786Y-18729214D01*
X14328928Y-18729214D01*
X14357500Y-18743500D01*
X14371786Y-18772072D01*
X14371786Y-18800643D01*
X14228928Y-18829214D01*
X14486071Y-18914929D02*
X14514643Y-18929214D01*
X14571786Y-18929214D01*
X14600357Y-18914929D01*
X14614643Y-18886357D01*
X14614643Y-18872072D01*
X14600357Y-18843500D01*
X14571786Y-18829214D01*
X14528928Y-18829214D01*
X14500357Y-18814929D01*
X14486071Y-18786357D01*
X14486071Y-18772072D01*
X14500357Y-18743500D01*
X14528928Y-18729214D01*
X14571786Y-18729214D01*
X14600357Y-18743500D01*
X14714643Y-19043500D02*
X14728928Y-19029214D01*
X14757500Y-18986357D01*
X14771786Y-18957786D01*
X14786071Y-18914929D01*
X14800357Y-18843500D01*
X14800357Y-18786357D01*
X14786071Y-18714929D01*
X14771786Y-18672072D01*
X14757500Y-18643500D01*
X14728928Y-18600643D01*
X14714643Y-18586357D01*
X7817532Y-19127016D02*
X7942500Y-19251984D01*
X7942500Y-19127016D02*
X7817532Y-19251984D01*
X7924199Y-19233683D02*
X7924199Y-19145317D01*
X7835833Y-19145317D01*
X7835833Y-19233683D01*
X7924199Y-19233683D01*
X8386071Y-19325214D02*
X8214643Y-19325214D01*
X8300357Y-19325214D02*
X8300357Y-19025214D01*
X8271786Y-19068072D01*
X8243214Y-19096643D01*
X8214643Y-19110929D01*
X8514643Y-19296643D02*
X8528928Y-19310929D01*
X8514643Y-19325214D01*
X8500357Y-19310929D01*
X8514643Y-19296643D01*
X8514643Y-19325214D01*
X8643214Y-19053786D02*
X8657500Y-19039500D01*
X8686071Y-19025214D01*
X8757500Y-19025214D01*
X8786071Y-19039500D01*
X8800357Y-19053786D01*
X8814643Y-19082357D01*
X8814643Y-19110929D01*
X8800357Y-19153786D01*
X8628928Y-19325214D01*
X8814643Y-19325214D01*
X9086071Y-19025214D02*
X8943214Y-19025214D01*
X8928928Y-19168072D01*
X8943214Y-19153786D01*
X8971786Y-19139500D01*
X9043214Y-19139500D01*
X9071786Y-19153786D01*
X9086071Y-19168072D01*
X9100357Y-19196643D01*
X9100357Y-19268072D01*
X9086071Y-19296643D01*
X9071786Y-19310929D01*
X9043214Y-19325214D01*
X8971786Y-19325214D01*
X8943214Y-19310929D01*
X8928928Y-19296643D01*
X9228928Y-19325214D02*
X9228928Y-19125214D01*
X9228928Y-19153786D02*
X9243214Y-19139500D01*
X9271786Y-19125214D01*
X9314643Y-19125214D01*
X9343214Y-19139500D01*
X9357500Y-19168072D01*
X9357500Y-19325214D01*
X9357500Y-19168072D02*
X9371786Y-19139500D01*
X9400357Y-19125214D01*
X9443214Y-19125214D01*
X9471786Y-19139500D01*
X9486071Y-19168072D01*
X9486071Y-19325214D01*
X9628928Y-19325214D02*
X9628928Y-19125214D01*
X9628928Y-19153786D02*
X9643214Y-19139500D01*
X9671786Y-19125214D01*
X9714643Y-19125214D01*
X9743214Y-19139500D01*
X9757500Y-19168072D01*
X9757500Y-19325214D01*
X9757500Y-19168072D02*
X9771786Y-19139500D01*
X9800357Y-19125214D01*
X9843214Y-19125214D01*
X9871786Y-19139500D01*
X9886071Y-19168072D01*
X9886071Y-19325214D01*
X10471786Y-19010929D02*
X10214643Y-19396643D01*
X10857500Y-19025214D02*
X10886071Y-19025214D01*
X10914643Y-19039500D01*
X10928928Y-19053786D01*
X10943214Y-19082357D01*
X10957500Y-19139500D01*
X10957500Y-19210929D01*
X10943214Y-19268072D01*
X10928928Y-19296643D01*
X10914643Y-19310929D01*
X10886071Y-19325214D01*
X10857500Y-19325214D01*
X10828928Y-19310929D01*
X10814643Y-19296643D01*
X10800357Y-19268072D01*
X10786071Y-19210929D01*
X10786071Y-19139500D01*
X10800357Y-19082357D01*
X10814643Y-19053786D01*
X10828928Y-19039500D01*
X10857500Y-19025214D01*
X11086071Y-19296643D02*
X11100357Y-19310929D01*
X11086071Y-19325214D01*
X11071786Y-19310929D01*
X11086071Y-19296643D01*
X11086071Y-19325214D01*
X11286071Y-19025214D02*
X11314643Y-19025214D01*
X11343214Y-19039500D01*
X11357500Y-19053786D01*
X11371786Y-19082357D01*
X11386071Y-19139500D01*
X11386071Y-19210929D01*
X11371786Y-19268072D01*
X11357500Y-19296643D01*
X11343214Y-19310929D01*
X11314643Y-19325214D01*
X11286071Y-19325214D01*
X11257500Y-19310929D01*
X11243214Y-19296643D01*
X11228928Y-19268072D01*
X11214643Y-19210929D01*
X11214643Y-19139500D01*
X11228928Y-19082357D01*
X11243214Y-19053786D01*
X11257500Y-19039500D01*
X11286071Y-19025214D01*
X11643214Y-19125214D02*
X11643214Y-19325214D01*
X11571786Y-19010929D02*
X11500357Y-19225214D01*
X11686071Y-19225214D01*
X11814643Y-19325214D02*
X11871786Y-19325214D01*
X11900357Y-19310929D01*
X11914643Y-19296643D01*
X11943214Y-19253786D01*
X11957500Y-19196643D01*
X11957500Y-19082357D01*
X11943214Y-19053786D01*
X11928928Y-19039500D01*
X11900357Y-19025214D01*
X11843214Y-19025214D01*
X11814643Y-19039500D01*
X11800357Y-19053786D01*
X11786071Y-19082357D01*
X11786071Y-19153786D01*
X11800357Y-19182357D01*
X11814643Y-19196643D01*
X11843214Y-19210929D01*
X11900357Y-19210929D01*
X11928928Y-19196643D01*
X11943214Y-19182357D01*
X11957500Y-19153786D01*
X12071786Y-19025214D02*
X12071786Y-19082357D01*
X12186071Y-19025214D02*
X12186071Y-19082357D01*
X12628928Y-19439500D02*
X12614643Y-19425214D01*
X12586071Y-19382357D01*
X12571786Y-19353786D01*
X12557500Y-19310929D01*
X12543214Y-19239500D01*
X12543214Y-19182357D01*
X12557500Y-19110929D01*
X12571786Y-19068072D01*
X12586071Y-19039500D01*
X12614643Y-18996643D01*
X12628928Y-18982357D01*
X12728928Y-19053786D02*
X12743214Y-19039500D01*
X12771786Y-19025214D01*
X12843214Y-19025214D01*
X12871786Y-19039500D01*
X12886071Y-19053786D01*
X12900357Y-19082357D01*
X12900357Y-19110929D01*
X12886071Y-19153786D01*
X12714643Y-19325214D01*
X12900357Y-19325214D01*
X13257500Y-19325214D02*
X13257500Y-19025214D01*
X13386071Y-19325214D02*
X13386071Y-19168072D01*
X13371786Y-19139500D01*
X13343214Y-19125214D01*
X13300357Y-19125214D01*
X13271786Y-19139500D01*
X13257500Y-19153786D01*
X13571786Y-19325214D02*
X13543214Y-19310929D01*
X13528928Y-19296643D01*
X13514643Y-19268072D01*
X13514643Y-19182357D01*
X13528928Y-19153786D01*
X13543214Y-19139500D01*
X13571786Y-19125214D01*
X13614643Y-19125214D01*
X13643214Y-19139500D01*
X13657500Y-19153786D01*
X13671786Y-19182357D01*
X13671786Y-19268072D01*
X13657500Y-19296643D01*
X13643214Y-19310929D01*
X13614643Y-19325214D01*
X13571786Y-19325214D01*
X13843214Y-19325214D02*
X13814643Y-19310929D01*
X13800357Y-19282357D01*
X13800357Y-19025214D01*
X14071786Y-19310929D02*
X14043214Y-19325214D01*
X13986071Y-19325214D01*
X13957500Y-19310929D01*
X13943214Y-19282357D01*
X13943214Y-19168072D01*
X13957500Y-19139500D01*
X13986071Y-19125214D01*
X14043214Y-19125214D01*
X14071786Y-19139500D01*
X14086071Y-19168072D01*
X14086071Y-19196643D01*
X13943214Y-19225214D01*
X14200357Y-19310929D02*
X14228928Y-19325214D01*
X14286071Y-19325214D01*
X14314643Y-19310929D01*
X14328928Y-19282357D01*
X14328928Y-19268072D01*
X14314643Y-19239500D01*
X14286071Y-19225214D01*
X14243214Y-19225214D01*
X14214643Y-19210929D01*
X14200357Y-19182357D01*
X14200357Y-19168072D01*
X14214643Y-19139500D01*
X14243214Y-19125214D01*
X14286071Y-19125214D01*
X14314643Y-19139500D01*
X14428928Y-19439500D02*
X14443214Y-19425214D01*
X14471786Y-19382357D01*
X14486071Y-19353786D01*
X14500357Y-19310929D01*
X14514643Y-19239500D01*
X14514643Y-19182357D01*
X14500357Y-19110929D01*
X14486071Y-19068072D01*
X14471786Y-19039500D01*
X14443214Y-18996643D01*
X14428928Y-18982357D01*
X7622500Y-19425500D02*
X7942500Y-19745500D01*
X7942500Y-19425500D02*
X7622500Y-19745500D01*
X7782500Y-19745500D02*
X7942500Y-19585500D01*
X7782500Y-19425500D01*
X7622500Y-19585500D01*
X7782500Y-19745500D01*
X8200357Y-19421214D02*
X8386071Y-19421214D01*
X8286071Y-19535500D01*
X8328928Y-19535500D01*
X8357500Y-19549786D01*
X8371786Y-19564072D01*
X8386071Y-19592643D01*
X8386071Y-19664072D01*
X8371786Y-19692643D01*
X8357500Y-19706929D01*
X8328928Y-19721214D01*
X8243214Y-19721214D01*
X8214643Y-19706929D01*
X8200357Y-19692643D01*
X8514643Y-19692643D02*
X8528928Y-19706929D01*
X8514643Y-19721214D01*
X8500357Y-19706929D01*
X8514643Y-19692643D01*
X8514643Y-19721214D01*
X8643214Y-19449786D02*
X8657500Y-19435500D01*
X8686071Y-19421214D01*
X8757500Y-19421214D01*
X8786071Y-19435500D01*
X8800357Y-19449786D01*
X8814643Y-19478357D01*
X8814643Y-19506929D01*
X8800357Y-19549786D01*
X8628928Y-19721214D01*
X8814643Y-19721214D01*
X9000357Y-19421214D02*
X9028928Y-19421214D01*
X9057500Y-19435500D01*
X9071786Y-19449786D01*
X9086071Y-19478357D01*
X9100357Y-19535500D01*
X9100357Y-19606929D01*
X9086071Y-19664072D01*
X9071786Y-19692643D01*
X9057500Y-19706929D01*
X9028928Y-19721214D01*
X9000357Y-19721214D01*
X8971786Y-19706929D01*
X8957500Y-19692643D01*
X8943214Y-19664072D01*
X8928928Y-19606929D01*
X8928928Y-19535500D01*
X8943214Y-19478357D01*
X8957500Y-19449786D01*
X8971786Y-19435500D01*
X9000357Y-19421214D01*
X9228928Y-19721214D02*
X9228928Y-19521214D01*
X9228928Y-19549786D02*
X9243214Y-19535500D01*
X9271786Y-19521214D01*
X9314643Y-19521214D01*
X9343214Y-19535500D01*
X9357500Y-19564072D01*
X9357500Y-19721214D01*
X9357500Y-19564072D02*
X9371786Y-19535500D01*
X9400357Y-19521214D01*
X9443214Y-19521214D01*
X9471786Y-19535500D01*
X9486071Y-19564072D01*
X9486071Y-19721214D01*
X9628928Y-19721214D02*
X9628928Y-19521214D01*
X9628928Y-19549786D02*
X9643214Y-19535500D01*
X9671786Y-19521214D01*
X9714643Y-19521214D01*
X9743214Y-19535500D01*
X9757500Y-19564072D01*
X9757500Y-19721214D01*
X9757500Y-19564072D02*
X9771786Y-19535500D01*
X9800357Y-19521214D01*
X9843214Y-19521214D01*
X9871786Y-19535500D01*
X9886071Y-19564072D01*
X9886071Y-19721214D01*
X10471786Y-19406929D02*
X10214643Y-19792643D01*
X10857500Y-19421214D02*
X10886071Y-19421214D01*
X10914643Y-19435500D01*
X10928928Y-19449786D01*
X10943214Y-19478357D01*
X10957500Y-19535500D01*
X10957500Y-19606929D01*
X10943214Y-19664072D01*
X10928928Y-19692643D01*
X10914643Y-19706929D01*
X10886071Y-19721214D01*
X10857500Y-19721214D01*
X10828928Y-19706929D01*
X10814643Y-19692643D01*
X10800357Y-19664072D01*
X10786071Y-19606929D01*
X10786071Y-19535500D01*
X10800357Y-19478357D01*
X10814643Y-19449786D01*
X10828928Y-19435500D01*
X10857500Y-19421214D01*
X11086071Y-19692643D02*
X11100357Y-19706929D01*
X11086071Y-19721214D01*
X11071786Y-19706929D01*
X11086071Y-19692643D01*
X11086071Y-19721214D01*
X11386071Y-19721214D02*
X11214643Y-19721214D01*
X11300357Y-19721214D02*
X11300357Y-19421214D01*
X11271786Y-19464072D01*
X11243214Y-19492643D01*
X11214643Y-19506929D01*
X11500357Y-19449786D02*
X11514643Y-19435500D01*
X11543214Y-19421214D01*
X11614643Y-19421214D01*
X11643214Y-19435500D01*
X11657500Y-19449786D01*
X11671786Y-19478357D01*
X11671786Y-19506929D01*
X11657500Y-19549786D01*
X11486071Y-19721214D01*
X11671786Y-19721214D01*
X11928928Y-19421214D02*
X11871786Y-19421214D01*
X11843214Y-19435500D01*
X11828928Y-19449786D01*
X11800357Y-19492643D01*
X11786071Y-19549786D01*
X11786071Y-19664072D01*
X11800357Y-19692643D01*
X11814643Y-19706929D01*
X11843214Y-19721214D01*
X11900357Y-19721214D01*
X11928928Y-19706929D01*
X11943214Y-19692643D01*
X11957500Y-19664072D01*
X11957500Y-19592643D01*
X11943214Y-19564072D01*
X11928928Y-19549786D01*
X11900357Y-19535500D01*
X11843214Y-19535500D01*
X11814643Y-19549786D01*
X11800357Y-19564072D01*
X11786071Y-19592643D01*
X12071786Y-19421214D02*
X12071786Y-19478357D01*
X12186071Y-19421214D02*
X12186071Y-19478357D01*
X12628928Y-19835500D02*
X12614643Y-19821214D01*
X12586071Y-19778357D01*
X12571786Y-19749786D01*
X12557500Y-19706929D01*
X12543214Y-19635500D01*
X12543214Y-19578357D01*
X12557500Y-19506929D01*
X12571786Y-19464072D01*
X12586071Y-19435500D01*
X12614643Y-19392643D01*
X12628928Y-19378357D01*
X12871786Y-19521214D02*
X12871786Y-19721214D01*
X12800357Y-19406929D02*
X12728928Y-19621214D01*
X12914643Y-19621214D01*
X13257500Y-19721214D02*
X13257500Y-19421214D01*
X13386071Y-19721214D02*
X13386071Y-19564072D01*
X13371786Y-19535500D01*
X13343214Y-19521214D01*
X13300357Y-19521214D01*
X13271786Y-19535500D01*
X13257500Y-19549786D01*
X13571786Y-19721214D02*
X13543214Y-19706929D01*
X13528928Y-19692643D01*
X13514643Y-19664072D01*
X13514643Y-19578357D01*
X13528928Y-19549786D01*
X13543214Y-19535500D01*
X13571786Y-19521214D01*
X13614643Y-19521214D01*
X13643214Y-19535500D01*
X13657500Y-19549786D01*
X13671786Y-19578357D01*
X13671786Y-19664072D01*
X13657500Y-19692643D01*
X13643214Y-19706929D01*
X13614643Y-19721214D01*
X13571786Y-19721214D01*
X13843214Y-19721214D02*
X13814643Y-19706929D01*
X13800357Y-19678357D01*
X13800357Y-19421214D01*
X14071786Y-19706929D02*
X14043214Y-19721214D01*
X13986071Y-19721214D01*
X13957500Y-19706929D01*
X13943214Y-19678357D01*
X13943214Y-19564072D01*
X13957500Y-19535500D01*
X13986071Y-19521214D01*
X14043214Y-19521214D01*
X14071786Y-19535500D01*
X14086071Y-19564072D01*
X14086071Y-19592643D01*
X13943214Y-19621214D01*
X14200357Y-19706929D02*
X14228928Y-19721214D01*
X14286071Y-19721214D01*
X14314643Y-19706929D01*
X14328928Y-19678357D01*
X14328928Y-19664072D01*
X14314643Y-19635500D01*
X14286071Y-19621214D01*
X14243214Y-19621214D01*
X14214643Y-19606929D01*
X14200357Y-19578357D01*
X14200357Y-19564072D01*
X14214643Y-19535500D01*
X14243214Y-19521214D01*
X14286071Y-19521214D01*
X14314643Y-19535500D01*
X14428928Y-19835500D02*
X14443214Y-19821214D01*
X14471786Y-19778357D01*
X14486071Y-19749786D01*
X14500357Y-19706929D01*
X14514643Y-19635500D01*
X14514643Y-19578357D01*
X14500357Y-19506929D01*
X14486071Y-19464072D01*
X14471786Y-19435500D01*
X14443214Y-19392643D01*
X14428928Y-19378357D01*
M02*
