G04 #@! TF.GenerationSoftware,KiCad,Pcbnew,8.0.2-8.0.2-0~ubuntu22.04.1*
G04 #@! TF.CreationDate,2024-05-02T22:53:01+03:00*
G04 #@! TF.ProjectId,blink-timer,626c696e-6b2d-4746-996d-65722e6b6963,rev?*
G04 #@! TF.SameCoordinates,Original*
G04 #@! TF.FileFunction,Legend,Top*
G04 #@! TF.FilePolarity,Positive*
%FSLAX46Y46*%
G04 Gerber Fmt 4.6, Leading zero omitted, Abs format (unit mm)*
G04 Created by KiCad (PCBNEW 8.0.2-8.0.2-0~ubuntu22.04.1) date 2024-05-02 22:53:01*
%MOMM*%
%LPD*%
G01*
G04 APERTURE LIST*
G04 Aperture macros list*
%AMRoundRect*
0 Rectangle with rounded corners*
0 $1 Rounding radius*
0 $2 $3 $4 $5 $6 $7 $8 $9 X,Y pos of 4 corners*
0 Add a 4 corners polygon primitive as box body*
4,1,4,$2,$3,$4,$5,$6,$7,$8,$9,$2,$3,0*
0 Add four circle primitives for the rounded corners*
1,1,$1+$1,$2,$3*
1,1,$1+$1,$4,$5*
1,1,$1+$1,$6,$7*
1,1,$1+$1,$8,$9*
0 Add four rect primitives between the rounded corners*
20,1,$1+$1,$2,$3,$4,$5,0*
20,1,$1+$1,$4,$5,$6,$7,0*
20,1,$1+$1,$6,$7,$8,$9,0*
20,1,$1+$1,$8,$9,$2,$3,0*%
G04 Aperture macros list end*
%ADD10C,0.152400*%
%ADD11C,0.101600*%
%ADD12C,0.150000*%
%ADD13C,0.120000*%
%ADD14RoundRect,0.250000X-0.450000X0.350000X-0.450000X-0.350000X0.450000X-0.350000X0.450000X0.350000X0*%
%ADD15RoundRect,0.250000X-0.412500X-0.650000X0.412500X-0.650000X0.412500X0.650000X-0.412500X0.650000X0*%
%ADD16RoundRect,0.250000X0.350000X0.450000X-0.350000X0.450000X-0.350000X-0.450000X0.350000X-0.450000X0*%
%ADD17RoundRect,0.250000X0.400000X0.600000X-0.400000X0.600000X-0.400000X-0.600000X0.400000X-0.600000X0*%
%ADD18RoundRect,0.250000X0.412500X0.650000X-0.412500X0.650000X-0.412500X-0.650000X0.412500X-0.650000X0*%
%ADD19RoundRect,0.250000X0.300000X-2.050000X0.300000X2.050000X-0.300000X2.050000X-0.300000X-2.050000X0*%
%ADD20RoundRect,0.250002X5.149998X-4.449998X5.149998X4.449998X-5.149998X4.449998X-5.149998X-4.449998X0*%
%ADD21RoundRect,0.250000X-0.350000X-0.450000X0.350000X-0.450000X0.350000X0.450000X-0.350000X0.450000X0*%
%ADD22RoundRect,0.150000X-0.825000X-0.150000X0.825000X-0.150000X0.825000X0.150000X-0.825000X0.150000X0*%
%ADD23RoundRect,0.250000X-0.400000X-0.600000X0.400000X-0.600000X0.400000X0.600000X-0.400000X0.600000X0*%
%ADD24RoundRect,0.250000X1.000000X0.650000X-1.000000X0.650000X-1.000000X-0.650000X1.000000X-0.650000X0*%
%ADD25R,3.000000X3.000000*%
%ADD26C,3.000000*%
G04 APERTURE END LIST*
D10*
X123648264Y-111787691D02*
X123648264Y-111981215D01*
X123648264Y-111981215D02*
X123599883Y-112077977D01*
X123599883Y-112077977D02*
X123503121Y-112174739D01*
X123503121Y-112174739D02*
X123309597Y-112223120D01*
X123309597Y-112223120D02*
X122970930Y-112223120D01*
X122970930Y-112223120D02*
X122777406Y-112174739D01*
X122777406Y-112174739D02*
X122680645Y-112077977D01*
X122680645Y-112077977D02*
X122632264Y-111981215D01*
X122632264Y-111981215D02*
X122632264Y-111787691D01*
X122632264Y-111787691D02*
X122680645Y-111690929D01*
X122680645Y-111690929D02*
X122777406Y-111594167D01*
X122777406Y-111594167D02*
X122970930Y-111545786D01*
X122970930Y-111545786D02*
X123309597Y-111545786D01*
X123309597Y-111545786D02*
X123503121Y-111594167D01*
X123503121Y-111594167D02*
X123599883Y-111690929D01*
X123599883Y-111690929D02*
X123648264Y-111787691D01*
X123648264Y-112658548D02*
X122825787Y-112658548D01*
X122825787Y-112658548D02*
X122729025Y-112706929D01*
X122729025Y-112706929D02*
X122680645Y-112755310D01*
X122680645Y-112755310D02*
X122632264Y-112852072D01*
X122632264Y-112852072D02*
X122632264Y-113045596D01*
X122632264Y-113045596D02*
X122680645Y-113142358D01*
X122680645Y-113142358D02*
X122729025Y-113190739D01*
X122729025Y-113190739D02*
X122825787Y-113239120D01*
X122825787Y-113239120D02*
X123648264Y-113239120D01*
X123648264Y-113577786D02*
X123648264Y-114158358D01*
X122632264Y-113868072D02*
X123648264Y-113868072D01*
X122560264Y-107022167D02*
X123576264Y-107022167D01*
X122560264Y-107505977D02*
X123576264Y-107505977D01*
X123576264Y-107505977D02*
X122560264Y-108086549D01*
X122560264Y-108086549D02*
X123576264Y-108086549D01*
X125261786Y-101927355D02*
X125358548Y-101975735D01*
X125358548Y-101975735D02*
X125552072Y-101975735D01*
X125552072Y-101975735D02*
X125648834Y-101927355D01*
X125648834Y-101927355D02*
X125697215Y-101830593D01*
X125697215Y-101830593D02*
X125697215Y-101782212D01*
X125697215Y-101782212D02*
X125648834Y-101685450D01*
X125648834Y-101685450D02*
X125552072Y-101637069D01*
X125552072Y-101637069D02*
X125406929Y-101637069D01*
X125406929Y-101637069D02*
X125310167Y-101588688D01*
X125310167Y-101588688D02*
X125261786Y-101491926D01*
X125261786Y-101491926D02*
X125261786Y-101443545D01*
X125261786Y-101443545D02*
X125310167Y-101346783D01*
X125310167Y-101346783D02*
X125406929Y-101298402D01*
X125406929Y-101298402D02*
X125552072Y-101298402D01*
X125552072Y-101298402D02*
X125648834Y-101346783D01*
X126132643Y-101298402D02*
X126132643Y-102169259D01*
X126132643Y-102169259D02*
X126084262Y-102266021D01*
X126084262Y-102266021D02*
X125987500Y-102314402D01*
X125987500Y-102314402D02*
X125939119Y-102314402D01*
X126132643Y-100959735D02*
X126084262Y-101008116D01*
X126084262Y-101008116D02*
X126132643Y-101056497D01*
X126132643Y-101056497D02*
X126181024Y-101008116D01*
X126181024Y-101008116D02*
X126132643Y-100959735D01*
X126132643Y-100959735D02*
X126132643Y-101056497D01*
X126616453Y-101975735D02*
X126616453Y-101298402D01*
X126616453Y-101395164D02*
X126664834Y-101346783D01*
X126664834Y-101346783D02*
X126761596Y-101298402D01*
X126761596Y-101298402D02*
X126906739Y-101298402D01*
X126906739Y-101298402D02*
X127003501Y-101346783D01*
X127003501Y-101346783D02*
X127051882Y-101443545D01*
X127051882Y-101443545D02*
X127051882Y-101975735D01*
X127051882Y-101443545D02*
X127100263Y-101346783D01*
X127100263Y-101346783D02*
X127197025Y-101298402D01*
X127197025Y-101298402D02*
X127342168Y-101298402D01*
X127342168Y-101298402D02*
X127438929Y-101346783D01*
X127438929Y-101346783D02*
X127487310Y-101443545D01*
X127487310Y-101443545D02*
X127487310Y-101975735D01*
X128696834Y-101056497D02*
X128745215Y-101008116D01*
X128745215Y-101008116D02*
X128841977Y-100959735D01*
X128841977Y-100959735D02*
X129083882Y-100959735D01*
X129083882Y-100959735D02*
X129180644Y-101008116D01*
X129180644Y-101008116D02*
X129229025Y-101056497D01*
X129229025Y-101056497D02*
X129277406Y-101153259D01*
X129277406Y-101153259D02*
X129277406Y-101250021D01*
X129277406Y-101250021D02*
X129229025Y-101395164D01*
X129229025Y-101395164D02*
X128648453Y-101975735D01*
X128648453Y-101975735D02*
X129277406Y-101975735D01*
X129906358Y-100959735D02*
X130003120Y-100959735D01*
X130003120Y-100959735D02*
X130099882Y-101008116D01*
X130099882Y-101008116D02*
X130148263Y-101056497D01*
X130148263Y-101056497D02*
X130196644Y-101153259D01*
X130196644Y-101153259D02*
X130245025Y-101346783D01*
X130245025Y-101346783D02*
X130245025Y-101588688D01*
X130245025Y-101588688D02*
X130196644Y-101782212D01*
X130196644Y-101782212D02*
X130148263Y-101878974D01*
X130148263Y-101878974D02*
X130099882Y-101927355D01*
X130099882Y-101927355D02*
X130003120Y-101975735D01*
X130003120Y-101975735D02*
X129906358Y-101975735D01*
X129906358Y-101975735D02*
X129809596Y-101927355D01*
X129809596Y-101927355D02*
X129761215Y-101878974D01*
X129761215Y-101878974D02*
X129712834Y-101782212D01*
X129712834Y-101782212D02*
X129664453Y-101588688D01*
X129664453Y-101588688D02*
X129664453Y-101346783D01*
X129664453Y-101346783D02*
X129712834Y-101153259D01*
X129712834Y-101153259D02*
X129761215Y-101056497D01*
X129761215Y-101056497D02*
X129809596Y-101008116D01*
X129809596Y-101008116D02*
X129906358Y-100959735D01*
X130632072Y-101056497D02*
X130680453Y-101008116D01*
X130680453Y-101008116D02*
X130777215Y-100959735D01*
X130777215Y-100959735D02*
X131019120Y-100959735D01*
X131019120Y-100959735D02*
X131115882Y-101008116D01*
X131115882Y-101008116D02*
X131164263Y-101056497D01*
X131164263Y-101056497D02*
X131212644Y-101153259D01*
X131212644Y-101153259D02*
X131212644Y-101250021D01*
X131212644Y-101250021D02*
X131164263Y-101395164D01*
X131164263Y-101395164D02*
X130583691Y-101975735D01*
X130583691Y-101975735D02*
X131212644Y-101975735D01*
X132083501Y-101298402D02*
X132083501Y-101975735D01*
X131841596Y-100911355D02*
X131599691Y-101637069D01*
X131599691Y-101637069D02*
X132228644Y-101637069D01*
X133341406Y-100911355D02*
X132470548Y-102217640D01*
X133873596Y-100959735D02*
X133970358Y-100959735D01*
X133970358Y-100959735D02*
X134067120Y-101008116D01*
X134067120Y-101008116D02*
X134115501Y-101056497D01*
X134115501Y-101056497D02*
X134163882Y-101153259D01*
X134163882Y-101153259D02*
X134212263Y-101346783D01*
X134212263Y-101346783D02*
X134212263Y-101588688D01*
X134212263Y-101588688D02*
X134163882Y-101782212D01*
X134163882Y-101782212D02*
X134115501Y-101878974D01*
X134115501Y-101878974D02*
X134067120Y-101927355D01*
X134067120Y-101927355D02*
X133970358Y-101975735D01*
X133970358Y-101975735D02*
X133873596Y-101975735D01*
X133873596Y-101975735D02*
X133776834Y-101927355D01*
X133776834Y-101927355D02*
X133728453Y-101878974D01*
X133728453Y-101878974D02*
X133680072Y-101782212D01*
X133680072Y-101782212D02*
X133631691Y-101588688D01*
X133631691Y-101588688D02*
X133631691Y-101346783D01*
X133631691Y-101346783D02*
X133680072Y-101153259D01*
X133680072Y-101153259D02*
X133728453Y-101056497D01*
X133728453Y-101056497D02*
X133776834Y-101008116D01*
X133776834Y-101008116D02*
X133873596Y-100959735D01*
X135131501Y-100959735D02*
X134647691Y-100959735D01*
X134647691Y-100959735D02*
X134599310Y-101443545D01*
X134599310Y-101443545D02*
X134647691Y-101395164D01*
X134647691Y-101395164D02*
X134744453Y-101346783D01*
X134744453Y-101346783D02*
X134986358Y-101346783D01*
X134986358Y-101346783D02*
X135083120Y-101395164D01*
X135083120Y-101395164D02*
X135131501Y-101443545D01*
X135131501Y-101443545D02*
X135179882Y-101540307D01*
X135179882Y-101540307D02*
X135179882Y-101782212D01*
X135179882Y-101782212D02*
X135131501Y-101878974D01*
X135131501Y-101878974D02*
X135083120Y-101927355D01*
X135083120Y-101927355D02*
X134986358Y-101975735D01*
X134986358Y-101975735D02*
X134744453Y-101975735D01*
X134744453Y-101975735D02*
X134647691Y-101927355D01*
X134647691Y-101927355D02*
X134599310Y-101878974D01*
X137502167Y-117612032D02*
X137502167Y-116596032D01*
X137502167Y-116596032D02*
X137744072Y-116596032D01*
X137744072Y-116596032D02*
X137889215Y-116644413D01*
X137889215Y-116644413D02*
X137985977Y-116741175D01*
X137985977Y-116741175D02*
X138034358Y-116837937D01*
X138034358Y-116837937D02*
X138082739Y-117031461D01*
X138082739Y-117031461D02*
X138082739Y-117176604D01*
X138082739Y-117176604D02*
X138034358Y-117370128D01*
X138034358Y-117370128D02*
X137985977Y-117466890D01*
X137985977Y-117466890D02*
X137889215Y-117563652D01*
X137889215Y-117563652D02*
X137744072Y-117612032D01*
X137744072Y-117612032D02*
X137502167Y-117612032D01*
X139098739Y-117612032D02*
X138760072Y-117128223D01*
X138518167Y-117612032D02*
X138518167Y-116596032D01*
X138518167Y-116596032D02*
X138905215Y-116596032D01*
X138905215Y-116596032D02*
X139001977Y-116644413D01*
X139001977Y-116644413D02*
X139050358Y-116692794D01*
X139050358Y-116692794D02*
X139098739Y-116789556D01*
X139098739Y-116789556D02*
X139098739Y-116934699D01*
X139098739Y-116934699D02*
X139050358Y-117031461D01*
X139050358Y-117031461D02*
X139001977Y-117079842D01*
X139001977Y-117079842D02*
X138905215Y-117128223D01*
X138905215Y-117128223D02*
X138518167Y-117128223D01*
X140017977Y-117612032D02*
X139534167Y-117612032D01*
X139534167Y-117612032D02*
X139534167Y-116596032D01*
X137937596Y-119247735D02*
X137937596Y-118231735D01*
X137937596Y-119199355D02*
X137840834Y-119247735D01*
X137840834Y-119247735D02*
X137647310Y-119247735D01*
X137647310Y-119247735D02*
X137550548Y-119199355D01*
X137550548Y-119199355D02*
X137502167Y-119150974D01*
X137502167Y-119150974D02*
X137453786Y-119054212D01*
X137453786Y-119054212D02*
X137453786Y-118763926D01*
X137453786Y-118763926D02*
X137502167Y-118667164D01*
X137502167Y-118667164D02*
X137550548Y-118618783D01*
X137550548Y-118618783D02*
X137647310Y-118570402D01*
X137647310Y-118570402D02*
X137840834Y-118570402D01*
X137840834Y-118570402D02*
X137937596Y-118618783D01*
X138808453Y-119199355D02*
X138711691Y-119247735D01*
X138711691Y-119247735D02*
X138518167Y-119247735D01*
X138518167Y-119247735D02*
X138421405Y-119199355D01*
X138421405Y-119199355D02*
X138373024Y-119102593D01*
X138373024Y-119102593D02*
X138373024Y-118715545D01*
X138373024Y-118715545D02*
X138421405Y-118618783D01*
X138421405Y-118618783D02*
X138518167Y-118570402D01*
X138518167Y-118570402D02*
X138711691Y-118570402D01*
X138711691Y-118570402D02*
X138808453Y-118618783D01*
X138808453Y-118618783D02*
X138856834Y-118715545D01*
X138856834Y-118715545D02*
X138856834Y-118812307D01*
X138856834Y-118812307D02*
X138373024Y-118909069D01*
X139437405Y-119247735D02*
X139340643Y-119199355D01*
X139340643Y-119199355D02*
X139292262Y-119102593D01*
X139292262Y-119102593D02*
X139292262Y-118231735D01*
X140259881Y-119247735D02*
X140259881Y-118715545D01*
X140259881Y-118715545D02*
X140211500Y-118618783D01*
X140211500Y-118618783D02*
X140114738Y-118570402D01*
X140114738Y-118570402D02*
X139921214Y-118570402D01*
X139921214Y-118570402D02*
X139824452Y-118618783D01*
X140259881Y-119199355D02*
X140163119Y-119247735D01*
X140163119Y-119247735D02*
X139921214Y-119247735D01*
X139921214Y-119247735D02*
X139824452Y-119199355D01*
X139824452Y-119199355D02*
X139776071Y-119102593D01*
X139776071Y-119102593D02*
X139776071Y-119005831D01*
X139776071Y-119005831D02*
X139824452Y-118909069D01*
X139824452Y-118909069D02*
X139921214Y-118860688D01*
X139921214Y-118860688D02*
X140163119Y-118860688D01*
X140163119Y-118860688D02*
X140259881Y-118812307D01*
X140646928Y-118570402D02*
X140888833Y-119247735D01*
X141130738Y-118570402D02*
X140888833Y-119247735D01*
X140888833Y-119247735D02*
X140792071Y-119489640D01*
X140792071Y-119489640D02*
X140743690Y-119538021D01*
X140743690Y-119538021D02*
X140646928Y-119586402D01*
X123527883Y-101966358D02*
X123576264Y-101869596D01*
X123576264Y-101869596D02*
X123576264Y-101724453D01*
X123576264Y-101724453D02*
X123527883Y-101579310D01*
X123527883Y-101579310D02*
X123431121Y-101482548D01*
X123431121Y-101482548D02*
X123334359Y-101434167D01*
X123334359Y-101434167D02*
X123140835Y-101385786D01*
X123140835Y-101385786D02*
X122995692Y-101385786D01*
X122995692Y-101385786D02*
X122802168Y-101434167D01*
X122802168Y-101434167D02*
X122705406Y-101482548D01*
X122705406Y-101482548D02*
X122608645Y-101579310D01*
X122608645Y-101579310D02*
X122560264Y-101724453D01*
X122560264Y-101724453D02*
X122560264Y-101821215D01*
X122560264Y-101821215D02*
X122608645Y-101966358D01*
X122608645Y-101966358D02*
X122657025Y-102014739D01*
X122657025Y-102014739D02*
X122995692Y-102014739D01*
X122995692Y-102014739D02*
X122995692Y-101821215D01*
X122560264Y-102450167D02*
X123576264Y-102450167D01*
X123576264Y-102450167D02*
X122560264Y-103030739D01*
X122560264Y-103030739D02*
X123576264Y-103030739D01*
X122560264Y-103514548D02*
X123576264Y-103514548D01*
X123576264Y-103514548D02*
X123576264Y-103756453D01*
X123576264Y-103756453D02*
X123527883Y-103901596D01*
X123527883Y-103901596D02*
X123431121Y-103998358D01*
X123431121Y-103998358D02*
X123334359Y-104046739D01*
X123334359Y-104046739D02*
X123140835Y-104095120D01*
X123140835Y-104095120D02*
X122995692Y-104095120D01*
X122995692Y-104095120D02*
X122802168Y-104046739D01*
X122802168Y-104046739D02*
X122705406Y-103998358D01*
X122705406Y-103998358D02*
X122608645Y-103901596D01*
X122608645Y-103901596D02*
X122560264Y-103756453D01*
X122560264Y-103756453D02*
X122560264Y-103514548D01*
X122947311Y-115658167D02*
X122947311Y-116432263D01*
X122560264Y-116045215D02*
X123334359Y-116045215D01*
X122560264Y-117448263D02*
X122560264Y-116867691D01*
X122560264Y-117157977D02*
X123576264Y-117157977D01*
X123576264Y-117157977D02*
X123431121Y-117061215D01*
X123431121Y-117061215D02*
X123334359Y-116964453D01*
X123334359Y-116964453D02*
X123285978Y-116867691D01*
X123479502Y-117835310D02*
X123527883Y-117883691D01*
X123527883Y-117883691D02*
X123576264Y-117980453D01*
X123576264Y-117980453D02*
X123576264Y-118222358D01*
X123576264Y-118222358D02*
X123527883Y-118319120D01*
X123527883Y-118319120D02*
X123479502Y-118367501D01*
X123479502Y-118367501D02*
X123382740Y-118415882D01*
X123382740Y-118415882D02*
X123285978Y-118415882D01*
X123285978Y-118415882D02*
X123140835Y-118367501D01*
X123140835Y-118367501D02*
X122560264Y-117786929D01*
X122560264Y-117786929D02*
X122560264Y-118415882D01*
X123576264Y-118706167D02*
X122560264Y-119044834D01*
X122560264Y-119044834D02*
X123576264Y-119383501D01*
D11*
X131411231Y-109092999D02*
X131048374Y-109346999D01*
X131411231Y-109528428D02*
X130649231Y-109528428D01*
X130649231Y-109528428D02*
X130649231Y-109238142D01*
X130649231Y-109238142D02*
X130685517Y-109165571D01*
X130685517Y-109165571D02*
X130721803Y-109129285D01*
X130721803Y-109129285D02*
X130794374Y-109092999D01*
X130794374Y-109092999D02*
X130903231Y-109092999D01*
X130903231Y-109092999D02*
X130975803Y-109129285D01*
X130975803Y-109129285D02*
X131012088Y-109165571D01*
X131012088Y-109165571D02*
X131048374Y-109238142D01*
X131048374Y-109238142D02*
X131048374Y-109528428D01*
X130721803Y-108802714D02*
X130685517Y-108766428D01*
X130685517Y-108766428D02*
X130649231Y-108693857D01*
X130649231Y-108693857D02*
X130649231Y-108512428D01*
X130649231Y-108512428D02*
X130685517Y-108439857D01*
X130685517Y-108439857D02*
X130721803Y-108403571D01*
X130721803Y-108403571D02*
X130794374Y-108367285D01*
X130794374Y-108367285D02*
X130866946Y-108367285D01*
X130866946Y-108367285D02*
X130975803Y-108403571D01*
X130975803Y-108403571D02*
X131411231Y-108838999D01*
X131411231Y-108838999D02*
X131411231Y-108367285D01*
X142322660Y-105126999D02*
X142358946Y-105163285D01*
X142358946Y-105163285D02*
X142395231Y-105272142D01*
X142395231Y-105272142D02*
X142395231Y-105344714D01*
X142395231Y-105344714D02*
X142358946Y-105453571D01*
X142358946Y-105453571D02*
X142286374Y-105526142D01*
X142286374Y-105526142D02*
X142213803Y-105562428D01*
X142213803Y-105562428D02*
X142068660Y-105598714D01*
X142068660Y-105598714D02*
X141959803Y-105598714D01*
X141959803Y-105598714D02*
X141814660Y-105562428D01*
X141814660Y-105562428D02*
X141742088Y-105526142D01*
X141742088Y-105526142D02*
X141669517Y-105453571D01*
X141669517Y-105453571D02*
X141633231Y-105344714D01*
X141633231Y-105344714D02*
X141633231Y-105272142D01*
X141633231Y-105272142D02*
X141669517Y-105163285D01*
X141669517Y-105163285D02*
X141705803Y-105126999D01*
X142395231Y-104401285D02*
X142395231Y-104836714D01*
X142395231Y-104618999D02*
X141633231Y-104618999D01*
X141633231Y-104618999D02*
X141742088Y-104691571D01*
X141742088Y-104691571D02*
X141814660Y-104764142D01*
X141814660Y-104764142D02*
X141850946Y-104836714D01*
X141514231Y-102372999D02*
X141151374Y-102626999D01*
X141514231Y-102808428D02*
X140752231Y-102808428D01*
X140752231Y-102808428D02*
X140752231Y-102518142D01*
X140752231Y-102518142D02*
X140788517Y-102445571D01*
X140788517Y-102445571D02*
X140824803Y-102409285D01*
X140824803Y-102409285D02*
X140897374Y-102372999D01*
X140897374Y-102372999D02*
X141006231Y-102372999D01*
X141006231Y-102372999D02*
X141078803Y-102409285D01*
X141078803Y-102409285D02*
X141115088Y-102445571D01*
X141115088Y-102445571D02*
X141151374Y-102518142D01*
X141151374Y-102518142D02*
X141151374Y-102808428D01*
X141514231Y-101647285D02*
X141514231Y-102082714D01*
X141514231Y-101864999D02*
X140752231Y-101864999D01*
X140752231Y-101864999D02*
X140861088Y-101937571D01*
X140861088Y-101937571D02*
X140933660Y-102010142D01*
X140933660Y-102010142D02*
X140969946Y-102082714D01*
X126937571Y-114347231D02*
X126937571Y-113585231D01*
X126937571Y-113585231D02*
X127119000Y-113585231D01*
X127119000Y-113585231D02*
X127227857Y-113621517D01*
X127227857Y-113621517D02*
X127300428Y-113694088D01*
X127300428Y-113694088D02*
X127336714Y-113766660D01*
X127336714Y-113766660D02*
X127373000Y-113911803D01*
X127373000Y-113911803D02*
X127373000Y-114020660D01*
X127373000Y-114020660D02*
X127336714Y-114165803D01*
X127336714Y-114165803D02*
X127300428Y-114238374D01*
X127300428Y-114238374D02*
X127227857Y-114310946D01*
X127227857Y-114310946D02*
X127119000Y-114347231D01*
X127119000Y-114347231D02*
X126937571Y-114347231D01*
X128098714Y-114347231D02*
X127663285Y-114347231D01*
X127881000Y-114347231D02*
X127881000Y-113585231D01*
X127881000Y-113585231D02*
X127808428Y-113694088D01*
X127808428Y-113694088D02*
X127735857Y-113766660D01*
X127735857Y-113766660D02*
X127663285Y-113802946D01*
X102108000Y-119092231D02*
X101854000Y-118729374D01*
X101672571Y-119092231D02*
X101672571Y-118330231D01*
X101672571Y-118330231D02*
X101962857Y-118330231D01*
X101962857Y-118330231D02*
X102035428Y-118366517D01*
X102035428Y-118366517D02*
X102071714Y-118402803D01*
X102071714Y-118402803D02*
X102108000Y-118475374D01*
X102108000Y-118475374D02*
X102108000Y-118584231D01*
X102108000Y-118584231D02*
X102071714Y-118656803D01*
X102071714Y-118656803D02*
X102035428Y-118693088D01*
X102035428Y-118693088D02*
X101962857Y-118729374D01*
X101962857Y-118729374D02*
X101672571Y-118729374D01*
X102761143Y-118584231D02*
X102761143Y-119092231D01*
X102579714Y-118293946D02*
X102398285Y-118838231D01*
X102398285Y-118838231D02*
X102870000Y-118838231D01*
X142322660Y-108126999D02*
X142358946Y-108163285D01*
X142358946Y-108163285D02*
X142395231Y-108272142D01*
X142395231Y-108272142D02*
X142395231Y-108344714D01*
X142395231Y-108344714D02*
X142358946Y-108453571D01*
X142358946Y-108453571D02*
X142286374Y-108526142D01*
X142286374Y-108526142D02*
X142213803Y-108562428D01*
X142213803Y-108562428D02*
X142068660Y-108598714D01*
X142068660Y-108598714D02*
X141959803Y-108598714D01*
X141959803Y-108598714D02*
X141814660Y-108562428D01*
X141814660Y-108562428D02*
X141742088Y-108526142D01*
X141742088Y-108526142D02*
X141669517Y-108453571D01*
X141669517Y-108453571D02*
X141633231Y-108344714D01*
X141633231Y-108344714D02*
X141633231Y-108272142D01*
X141633231Y-108272142D02*
X141669517Y-108163285D01*
X141669517Y-108163285D02*
X141705803Y-108126999D01*
X141705803Y-107836714D02*
X141669517Y-107800428D01*
X141669517Y-107800428D02*
X141633231Y-107727857D01*
X141633231Y-107727857D02*
X141633231Y-107546428D01*
X141633231Y-107546428D02*
X141669517Y-107473857D01*
X141669517Y-107473857D02*
X141705803Y-107437571D01*
X141705803Y-107437571D02*
X141778374Y-107401285D01*
X141778374Y-107401285D02*
X141850946Y-107401285D01*
X141850946Y-107401285D02*
X141959803Y-107437571D01*
X141959803Y-107437571D02*
X142395231Y-107872999D01*
X142395231Y-107872999D02*
X142395231Y-107401285D01*
D12*
X110394761Y-113595057D02*
X110299523Y-113547438D01*
X110299523Y-113547438D02*
X110204285Y-113452200D01*
X110204285Y-113452200D02*
X110061428Y-113309342D01*
X110061428Y-113309342D02*
X109966190Y-113261723D01*
X109966190Y-113261723D02*
X109870952Y-113261723D01*
X109918571Y-113499819D02*
X109823333Y-113452200D01*
X109823333Y-113452200D02*
X109728095Y-113356961D01*
X109728095Y-113356961D02*
X109680476Y-113166485D01*
X109680476Y-113166485D02*
X109680476Y-112833152D01*
X109680476Y-112833152D02*
X109728095Y-112642676D01*
X109728095Y-112642676D02*
X109823333Y-112547438D01*
X109823333Y-112547438D02*
X109918571Y-112499819D01*
X109918571Y-112499819D02*
X110109047Y-112499819D01*
X110109047Y-112499819D02*
X110204285Y-112547438D01*
X110204285Y-112547438D02*
X110299523Y-112642676D01*
X110299523Y-112642676D02*
X110347142Y-112833152D01*
X110347142Y-112833152D02*
X110347142Y-113166485D01*
X110347142Y-113166485D02*
X110299523Y-113356961D01*
X110299523Y-113356961D02*
X110204285Y-113452200D01*
X110204285Y-113452200D02*
X110109047Y-113499819D01*
X110109047Y-113499819D02*
X109918571Y-113499819D01*
X111299523Y-113499819D02*
X110728095Y-113499819D01*
X111013809Y-113499819D02*
X111013809Y-112499819D01*
X111013809Y-112499819D02*
X110918571Y-112642676D01*
X110918571Y-112642676D02*
X110823333Y-112737914D01*
X110823333Y-112737914D02*
X110728095Y-112785533D01*
D11*
X126365000Y-106011231D02*
X126111000Y-105648374D01*
X125929571Y-106011231D02*
X125929571Y-105249231D01*
X125929571Y-105249231D02*
X126219857Y-105249231D01*
X126219857Y-105249231D02*
X126292428Y-105285517D01*
X126292428Y-105285517D02*
X126328714Y-105321803D01*
X126328714Y-105321803D02*
X126365000Y-105394374D01*
X126365000Y-105394374D02*
X126365000Y-105503231D01*
X126365000Y-105503231D02*
X126328714Y-105575803D01*
X126328714Y-105575803D02*
X126292428Y-105612088D01*
X126292428Y-105612088D02*
X126219857Y-105648374D01*
X126219857Y-105648374D02*
X125929571Y-105648374D01*
X127054428Y-105249231D02*
X126691571Y-105249231D01*
X126691571Y-105249231D02*
X126655285Y-105612088D01*
X126655285Y-105612088D02*
X126691571Y-105575803D01*
X126691571Y-105575803D02*
X126764143Y-105539517D01*
X126764143Y-105539517D02*
X126945571Y-105539517D01*
X126945571Y-105539517D02*
X127018143Y-105575803D01*
X127018143Y-105575803D02*
X127054428Y-105612088D01*
X127054428Y-105612088D02*
X127090714Y-105684660D01*
X127090714Y-105684660D02*
X127090714Y-105866088D01*
X127090714Y-105866088D02*
X127054428Y-105938660D01*
X127054428Y-105938660D02*
X127018143Y-105974946D01*
X127018143Y-105974946D02*
X126945571Y-106011231D01*
X126945571Y-106011231D02*
X126764143Y-106011231D01*
X126764143Y-106011231D02*
X126691571Y-105974946D01*
X126691571Y-105974946D02*
X126655285Y-105938660D01*
X132461000Y-106011231D02*
X132207000Y-105648374D01*
X132025571Y-106011231D02*
X132025571Y-105249231D01*
X132025571Y-105249231D02*
X132315857Y-105249231D01*
X132315857Y-105249231D02*
X132388428Y-105285517D01*
X132388428Y-105285517D02*
X132424714Y-105321803D01*
X132424714Y-105321803D02*
X132461000Y-105394374D01*
X132461000Y-105394374D02*
X132461000Y-105503231D01*
X132461000Y-105503231D02*
X132424714Y-105575803D01*
X132424714Y-105575803D02*
X132388428Y-105612088D01*
X132388428Y-105612088D02*
X132315857Y-105648374D01*
X132315857Y-105648374D02*
X132025571Y-105648374D01*
X133114143Y-105249231D02*
X132969000Y-105249231D01*
X132969000Y-105249231D02*
X132896428Y-105285517D01*
X132896428Y-105285517D02*
X132860143Y-105321803D01*
X132860143Y-105321803D02*
X132787571Y-105430660D01*
X132787571Y-105430660D02*
X132751285Y-105575803D01*
X132751285Y-105575803D02*
X132751285Y-105866088D01*
X132751285Y-105866088D02*
X132787571Y-105938660D01*
X132787571Y-105938660D02*
X132823857Y-105974946D01*
X132823857Y-105974946D02*
X132896428Y-106011231D01*
X132896428Y-106011231D02*
X133041571Y-106011231D01*
X133041571Y-106011231D02*
X133114143Y-105974946D01*
X133114143Y-105974946D02*
X133150428Y-105938660D01*
X133150428Y-105938660D02*
X133186714Y-105866088D01*
X133186714Y-105866088D02*
X133186714Y-105684660D01*
X133186714Y-105684660D02*
X133150428Y-105612088D01*
X133150428Y-105612088D02*
X133114143Y-105575803D01*
X133114143Y-105575803D02*
X133041571Y-105539517D01*
X133041571Y-105539517D02*
X132896428Y-105539517D01*
X132896428Y-105539517D02*
X132823857Y-105575803D01*
X132823857Y-105575803D02*
X132787571Y-105612088D01*
X132787571Y-105612088D02*
X132751285Y-105684660D01*
D12*
X137738095Y-112454819D02*
X137738095Y-113264342D01*
X137738095Y-113264342D02*
X137785714Y-113359580D01*
X137785714Y-113359580D02*
X137833333Y-113407200D01*
X137833333Y-113407200D02*
X137928571Y-113454819D01*
X137928571Y-113454819D02*
X138119047Y-113454819D01*
X138119047Y-113454819D02*
X138214285Y-113407200D01*
X138214285Y-113407200D02*
X138261904Y-113359580D01*
X138261904Y-113359580D02*
X138309523Y-113264342D01*
X138309523Y-113264342D02*
X138309523Y-112454819D01*
X139309523Y-113454819D02*
X138738095Y-113454819D01*
X139023809Y-113454819D02*
X139023809Y-112454819D01*
X139023809Y-112454819D02*
X138928571Y-112597676D01*
X138928571Y-112597676D02*
X138833333Y-112692914D01*
X138833333Y-112692914D02*
X138738095Y-112740533D01*
D11*
X126937571Y-111347231D02*
X126937571Y-110585231D01*
X126937571Y-110585231D02*
X127119000Y-110585231D01*
X127119000Y-110585231D02*
X127227857Y-110621517D01*
X127227857Y-110621517D02*
X127300428Y-110694088D01*
X127300428Y-110694088D02*
X127336714Y-110766660D01*
X127336714Y-110766660D02*
X127373000Y-110911803D01*
X127373000Y-110911803D02*
X127373000Y-111020660D01*
X127373000Y-111020660D02*
X127336714Y-111165803D01*
X127336714Y-111165803D02*
X127300428Y-111238374D01*
X127300428Y-111238374D02*
X127227857Y-111310946D01*
X127227857Y-111310946D02*
X127119000Y-111347231D01*
X127119000Y-111347231D02*
X126937571Y-111347231D01*
X127663285Y-110657803D02*
X127699571Y-110621517D01*
X127699571Y-110621517D02*
X127772143Y-110585231D01*
X127772143Y-110585231D02*
X127953571Y-110585231D01*
X127953571Y-110585231D02*
X128026143Y-110621517D01*
X128026143Y-110621517D02*
X128062428Y-110657803D01*
X128062428Y-110657803D02*
X128098714Y-110730374D01*
X128098714Y-110730374D02*
X128098714Y-110802946D01*
X128098714Y-110802946D02*
X128062428Y-110911803D01*
X128062428Y-110911803D02*
X127627000Y-111347231D01*
X127627000Y-111347231D02*
X128098714Y-111347231D01*
X131411231Y-112648999D02*
X131048374Y-112902999D01*
X131411231Y-113084428D02*
X130649231Y-113084428D01*
X130649231Y-113084428D02*
X130649231Y-112794142D01*
X130649231Y-112794142D02*
X130685517Y-112721571D01*
X130685517Y-112721571D02*
X130721803Y-112685285D01*
X130721803Y-112685285D02*
X130794374Y-112648999D01*
X130794374Y-112648999D02*
X130903231Y-112648999D01*
X130903231Y-112648999D02*
X130975803Y-112685285D01*
X130975803Y-112685285D02*
X131012088Y-112721571D01*
X131012088Y-112721571D02*
X131048374Y-112794142D01*
X131048374Y-112794142D02*
X131048374Y-113084428D01*
X130649231Y-112394999D02*
X130649231Y-111923285D01*
X130649231Y-111923285D02*
X130939517Y-112177285D01*
X130939517Y-112177285D02*
X130939517Y-112068428D01*
X130939517Y-112068428D02*
X130975803Y-111995857D01*
X130975803Y-111995857D02*
X131012088Y-111959571D01*
X131012088Y-111959571D02*
X131084660Y-111923285D01*
X131084660Y-111923285D02*
X131266088Y-111923285D01*
X131266088Y-111923285D02*
X131338660Y-111959571D01*
X131338660Y-111959571D02*
X131374946Y-111995857D01*
X131374946Y-111995857D02*
X131411231Y-112068428D01*
X131411231Y-112068428D02*
X131411231Y-112286142D01*
X131411231Y-112286142D02*
X131374946Y-112358714D01*
X131374946Y-112358714D02*
X131338660Y-112394999D01*
X132279571Y-118457231D02*
X132279571Y-117695231D01*
X132279571Y-117695231D02*
X132461000Y-117695231D01*
X132461000Y-117695231D02*
X132569857Y-117731517D01*
X132569857Y-117731517D02*
X132642428Y-117804088D01*
X132642428Y-117804088D02*
X132678714Y-117876660D01*
X132678714Y-117876660D02*
X132715000Y-118021803D01*
X132715000Y-118021803D02*
X132715000Y-118130660D01*
X132715000Y-118130660D02*
X132678714Y-118275803D01*
X132678714Y-118275803D02*
X132642428Y-118348374D01*
X132642428Y-118348374D02*
X132569857Y-118420946D01*
X132569857Y-118420946D02*
X132461000Y-118457231D01*
X132461000Y-118457231D02*
X132279571Y-118457231D01*
X132969000Y-117695231D02*
X133440714Y-117695231D01*
X133440714Y-117695231D02*
X133186714Y-117985517D01*
X133186714Y-117985517D02*
X133295571Y-117985517D01*
X133295571Y-117985517D02*
X133368143Y-118021803D01*
X133368143Y-118021803D02*
X133404428Y-118058088D01*
X133404428Y-118058088D02*
X133440714Y-118130660D01*
X133440714Y-118130660D02*
X133440714Y-118312088D01*
X133440714Y-118312088D02*
X133404428Y-118384660D01*
X133404428Y-118384660D02*
X133368143Y-118420946D01*
X133368143Y-118420946D02*
X133295571Y-118457231D01*
X133295571Y-118457231D02*
X133077857Y-118457231D01*
X133077857Y-118457231D02*
X133005285Y-118420946D01*
X133005285Y-118420946D02*
X132969000Y-118384660D01*
D12*
X113279819Y-119409833D02*
X113994104Y-119409833D01*
X113994104Y-119409833D02*
X114136961Y-119457452D01*
X114136961Y-119457452D02*
X114232200Y-119552690D01*
X114232200Y-119552690D02*
X114279819Y-119695547D01*
X114279819Y-119695547D02*
X114279819Y-119790785D01*
X114279819Y-118409833D02*
X114279819Y-118981261D01*
X114279819Y-118695547D02*
X113279819Y-118695547D01*
X113279819Y-118695547D02*
X113422676Y-118790785D01*
X113422676Y-118790785D02*
X113517914Y-118886023D01*
X113517914Y-118886023D02*
X113565533Y-118981261D01*
D13*
X131980000Y-108772936D02*
X131980000Y-109227064D01*
X133450000Y-108772936D02*
X133450000Y-109227064D01*
X138288748Y-104090000D02*
X139711252Y-104090000D01*
X138288748Y-105910000D02*
X139711252Y-105910000D01*
X138727064Y-101765000D02*
X138272936Y-101765000D01*
X138727064Y-103235000D02*
X138272936Y-103235000D01*
X125750000Y-115110000D02*
X130160000Y-115110000D01*
X130160000Y-112890000D02*
X125750000Y-112890000D01*
X130160000Y-115110000D02*
X130160000Y-112890000D01*
X105002064Y-118010000D02*
X104547936Y-118010000D01*
X105002064Y-119480000D02*
X104547936Y-119480000D01*
X139711252Y-107090000D02*
X138288748Y-107090000D01*
X139711252Y-108910000D02*
X138288748Y-108910000D01*
X100845000Y-110250000D02*
X100845000Y-111750000D01*
X100845000Y-111750000D02*
X102655000Y-111750000D01*
X111245000Y-110250000D02*
X111245000Y-111750000D01*
X111245000Y-111750000D02*
X109435000Y-111750000D01*
X102655000Y-114312500D02*
X102325000Y-114552500D01*
X102325000Y-114072500D01*
X102655000Y-114312500D01*
G36*
X102655000Y-114312500D02*
G01*
X102325000Y-114552500D01*
X102325000Y-114072500D01*
X102655000Y-114312500D01*
G37*
X126772936Y-103265000D02*
X127227064Y-103265000D01*
X126772936Y-104735000D02*
X127227064Y-104735000D01*
X131272936Y-103265000D02*
X131727064Y-103265000D01*
X131272936Y-104735000D02*
X131727064Y-104735000D01*
X138500000Y-110440000D02*
X136550000Y-110440000D01*
X138500000Y-110440000D02*
X140450000Y-110440000D01*
X138500000Y-115560000D02*
X136550000Y-115560000D01*
X138500000Y-115560000D02*
X140450000Y-115560000D01*
X135800000Y-110535000D02*
X135560000Y-110205000D01*
X136040000Y-110205000D01*
X135800000Y-110535000D01*
G36*
X135800000Y-110535000D02*
G01*
X135560000Y-110205000D01*
X136040000Y-110205000D01*
X135800000Y-110535000D01*
G37*
X124840000Y-109890000D02*
X124840000Y-112110000D01*
X124840000Y-112110000D02*
X129250000Y-112110000D01*
X129250000Y-109890000D02*
X124840000Y-109890000D01*
X131980000Y-112772936D02*
X131980000Y-113227064D01*
X133450000Y-112772936D02*
X133450000Y-113227064D01*
X132010000Y-116350000D02*
X126500000Y-116350000D01*
X132010000Y-119650000D02*
X126500000Y-119650000D01*
X132010000Y-119650000D02*
X132010000Y-116350000D01*
X112217500Y-120850000D02*
X112217500Y-117850000D01*
X112457500Y-100390000D02*
X121677500Y-100390000D01*
X112457500Y-120610000D02*
X112457500Y-100390000D01*
X112457500Y-120610000D02*
X121677500Y-120610000D01*
X115217500Y-120850000D02*
X112217500Y-120850000D01*
X121677500Y-120610000D02*
X121677500Y-100390000D01*
%LPC*%
D14*
X132715000Y-108000000D03*
X132715000Y-110000000D03*
D15*
X137437500Y-105000000D03*
X140562500Y-105000000D03*
D16*
X139500000Y-102500000D03*
X137500000Y-102500000D03*
D17*
X129250000Y-114000000D03*
X125750000Y-114000000D03*
D16*
X105775000Y-118745000D03*
X103775000Y-118745000D03*
D18*
X140562500Y-108000000D03*
X137437500Y-108000000D03*
D19*
X103505000Y-114575000D03*
X106045000Y-114575000D03*
D20*
X106045000Y-105425000D03*
D19*
X108585000Y-114575000D03*
D21*
X126000000Y-104000000D03*
X128000000Y-104000000D03*
X130500000Y-104000000D03*
X132500000Y-104000000D03*
D22*
X136025000Y-111095000D03*
X136025000Y-112365000D03*
X136025000Y-113635000D03*
X136025000Y-114905000D03*
X140975000Y-114905000D03*
X140975000Y-113635000D03*
X140975000Y-112365000D03*
X140975000Y-111095000D03*
D23*
X125750000Y-111000000D03*
X129250000Y-111000000D03*
D14*
X132715000Y-112000000D03*
X132715000Y-114000000D03*
D24*
X130500000Y-118000000D03*
X126500000Y-118000000D03*
D25*
X117567500Y-118000000D03*
D26*
X117567500Y-113000000D03*
X117567500Y-108000000D03*
X117567500Y-103000000D03*
%LPD*%
M02*
