G04 #@! TF.GenerationSoftware,KiCad,Pcbnew,8.0.2-8.0.2-0~ubuntu22.04.1*
G04 #@! TF.CreationDate,2024-05-02T22:53:01+03:00*
G04 #@! TF.ProjectId,blink-timer,626c696e-6b2d-4746-996d-65722e6b6963,rev?*
G04 #@! TF.SameCoordinates,Original*
G04 #@! TF.FileFunction,Legend,Bot*
G04 #@! TF.FilePolarity,Positive*
%FSLAX46Y46*%
G04 Gerber Fmt 4.6, Leading zero omitted, Abs format (unit mm)*
G04 Created by KiCad (PCBNEW 8.0.2-8.0.2-0~ubuntu22.04.1) date 2024-05-02 22:53:01*
%MOMM*%
%LPD*%
G01*
G04 APERTURE LIST*
%ADD10C,0.254000*%
%ADD11R,3.000000X3.000000*%
%ADD12C,3.000000*%
G04 APERTURE END LIST*
D10*
X141202037Y-103264728D02*
X141202037Y-101740728D01*
X141202037Y-101740728D02*
X140839180Y-101740728D01*
X140839180Y-101740728D02*
X140621466Y-101813299D01*
X140621466Y-101813299D02*
X140476323Y-101958442D01*
X140476323Y-101958442D02*
X140403752Y-102103585D01*
X140403752Y-102103585D02*
X140331180Y-102393871D01*
X140331180Y-102393871D02*
X140331180Y-102611585D01*
X140331180Y-102611585D02*
X140403752Y-102901871D01*
X140403752Y-102901871D02*
X140476323Y-103047014D01*
X140476323Y-103047014D02*
X140621466Y-103192157D01*
X140621466Y-103192157D02*
X140839180Y-103264728D01*
X140839180Y-103264728D02*
X141202037Y-103264728D01*
X138807180Y-103264728D02*
X139315180Y-102539014D01*
X139678037Y-103264728D02*
X139678037Y-101740728D01*
X139678037Y-101740728D02*
X139097466Y-101740728D01*
X139097466Y-101740728D02*
X138952323Y-101813299D01*
X138952323Y-101813299D02*
X138879752Y-101885871D01*
X138879752Y-101885871D02*
X138807180Y-102031014D01*
X138807180Y-102031014D02*
X138807180Y-102248728D01*
X138807180Y-102248728D02*
X138879752Y-102393871D01*
X138879752Y-102393871D02*
X138952323Y-102466442D01*
X138952323Y-102466442D02*
X139097466Y-102539014D01*
X139097466Y-102539014D02*
X139678037Y-102539014D01*
X137428323Y-103264728D02*
X138154037Y-103264728D01*
X138154037Y-103264728D02*
X138154037Y-101740728D01*
X135106038Y-103264728D02*
X135106038Y-101740728D01*
X135106038Y-103192157D02*
X135251180Y-103264728D01*
X135251180Y-103264728D02*
X135541466Y-103264728D01*
X135541466Y-103264728D02*
X135686609Y-103192157D01*
X135686609Y-103192157D02*
X135759180Y-103119585D01*
X135759180Y-103119585D02*
X135831752Y-102974442D01*
X135831752Y-102974442D02*
X135831752Y-102539014D01*
X135831752Y-102539014D02*
X135759180Y-102393871D01*
X135759180Y-102393871D02*
X135686609Y-102321299D01*
X135686609Y-102321299D02*
X135541466Y-102248728D01*
X135541466Y-102248728D02*
X135251180Y-102248728D01*
X135251180Y-102248728D02*
X135106038Y-102321299D01*
X133799752Y-103192157D02*
X133944895Y-103264728D01*
X133944895Y-103264728D02*
X134235181Y-103264728D01*
X134235181Y-103264728D02*
X134380323Y-103192157D01*
X134380323Y-103192157D02*
X134452895Y-103047014D01*
X134452895Y-103047014D02*
X134452895Y-102466442D01*
X134452895Y-102466442D02*
X134380323Y-102321299D01*
X134380323Y-102321299D02*
X134235181Y-102248728D01*
X134235181Y-102248728D02*
X133944895Y-102248728D01*
X133944895Y-102248728D02*
X133799752Y-102321299D01*
X133799752Y-102321299D02*
X133727181Y-102466442D01*
X133727181Y-102466442D02*
X133727181Y-102611585D01*
X133727181Y-102611585D02*
X134452895Y-102756728D01*
X132856323Y-103264728D02*
X133001466Y-103192157D01*
X133001466Y-103192157D02*
X133074037Y-103047014D01*
X133074037Y-103047014D02*
X133074037Y-101740728D01*
X131622609Y-103264728D02*
X131622609Y-102466442D01*
X131622609Y-102466442D02*
X131695180Y-102321299D01*
X131695180Y-102321299D02*
X131840323Y-102248728D01*
X131840323Y-102248728D02*
X132130609Y-102248728D01*
X132130609Y-102248728D02*
X132275751Y-102321299D01*
X131622609Y-103192157D02*
X131767751Y-103264728D01*
X131767751Y-103264728D02*
X132130609Y-103264728D01*
X132130609Y-103264728D02*
X132275751Y-103192157D01*
X132275751Y-103192157D02*
X132348323Y-103047014D01*
X132348323Y-103047014D02*
X132348323Y-102901871D01*
X132348323Y-102901871D02*
X132275751Y-102756728D01*
X132275751Y-102756728D02*
X132130609Y-102684157D01*
X132130609Y-102684157D02*
X131767751Y-102684157D01*
X131767751Y-102684157D02*
X131622609Y-102611585D01*
X131042037Y-102248728D02*
X130679180Y-103264728D01*
X130316323Y-102248728D02*
X130679180Y-103264728D01*
X130679180Y-103264728D02*
X130824323Y-103627585D01*
X130824323Y-103627585D02*
X130896894Y-103700157D01*
X130896894Y-103700157D02*
X131042037Y-103772728D01*
X141274609Y-105645712D02*
X141129466Y-105718283D01*
X141129466Y-105718283D02*
X140839180Y-105718283D01*
X140839180Y-105718283D02*
X140694037Y-105645712D01*
X140694037Y-105645712D02*
X140621466Y-105500569D01*
X140621466Y-105500569D02*
X140621466Y-105427997D01*
X140621466Y-105427997D02*
X140694037Y-105282854D01*
X140694037Y-105282854D02*
X140839180Y-105210283D01*
X140839180Y-105210283D02*
X141056895Y-105210283D01*
X141056895Y-105210283D02*
X141202037Y-105137712D01*
X141202037Y-105137712D02*
X141274609Y-104992569D01*
X141274609Y-104992569D02*
X141274609Y-104919997D01*
X141274609Y-104919997D02*
X141202037Y-104774854D01*
X141202037Y-104774854D02*
X141056895Y-104702283D01*
X141056895Y-104702283D02*
X140839180Y-104702283D01*
X140839180Y-104702283D02*
X140694037Y-104774854D01*
X139968323Y-104702283D02*
X139968323Y-106008569D01*
X139968323Y-106008569D02*
X140040895Y-106153712D01*
X140040895Y-106153712D02*
X140186038Y-106226283D01*
X140186038Y-106226283D02*
X140258609Y-106226283D01*
X139968323Y-104194283D02*
X140040895Y-104266854D01*
X140040895Y-104266854D02*
X139968323Y-104339426D01*
X139968323Y-104339426D02*
X139895752Y-104266854D01*
X139895752Y-104266854D02*
X139968323Y-104194283D01*
X139968323Y-104194283D02*
X139968323Y-104339426D01*
X139242609Y-105718283D02*
X139242609Y-104702283D01*
X139242609Y-104847426D02*
X139170038Y-104774854D01*
X139170038Y-104774854D02*
X139024895Y-104702283D01*
X139024895Y-104702283D02*
X138807181Y-104702283D01*
X138807181Y-104702283D02*
X138662038Y-104774854D01*
X138662038Y-104774854D02*
X138589467Y-104919997D01*
X138589467Y-104919997D02*
X138589467Y-105718283D01*
X138589467Y-104919997D02*
X138516895Y-104774854D01*
X138516895Y-104774854D02*
X138371752Y-104702283D01*
X138371752Y-104702283D02*
X138154038Y-104702283D01*
X138154038Y-104702283D02*
X138008895Y-104774854D01*
X138008895Y-104774854D02*
X137936324Y-104919997D01*
X137936324Y-104919997D02*
X137936324Y-105718283D01*
X136122038Y-104339426D02*
X136049466Y-104266854D01*
X136049466Y-104266854D02*
X135904324Y-104194283D01*
X135904324Y-104194283D02*
X135541466Y-104194283D01*
X135541466Y-104194283D02*
X135396324Y-104266854D01*
X135396324Y-104266854D02*
X135323752Y-104339426D01*
X135323752Y-104339426D02*
X135251181Y-104484569D01*
X135251181Y-104484569D02*
X135251181Y-104629712D01*
X135251181Y-104629712D02*
X135323752Y-104847426D01*
X135323752Y-104847426D02*
X136194609Y-105718283D01*
X136194609Y-105718283D02*
X135251181Y-105718283D01*
X134307752Y-104194283D02*
X134162609Y-104194283D01*
X134162609Y-104194283D02*
X134017466Y-104266854D01*
X134017466Y-104266854D02*
X133944895Y-104339426D01*
X133944895Y-104339426D02*
X133872323Y-104484569D01*
X133872323Y-104484569D02*
X133799752Y-104774854D01*
X133799752Y-104774854D02*
X133799752Y-105137712D01*
X133799752Y-105137712D02*
X133872323Y-105427997D01*
X133872323Y-105427997D02*
X133944895Y-105573140D01*
X133944895Y-105573140D02*
X134017466Y-105645712D01*
X134017466Y-105645712D02*
X134162609Y-105718283D01*
X134162609Y-105718283D02*
X134307752Y-105718283D01*
X134307752Y-105718283D02*
X134452895Y-105645712D01*
X134452895Y-105645712D02*
X134525466Y-105573140D01*
X134525466Y-105573140D02*
X134598037Y-105427997D01*
X134598037Y-105427997D02*
X134670609Y-105137712D01*
X134670609Y-105137712D02*
X134670609Y-104774854D01*
X134670609Y-104774854D02*
X134598037Y-104484569D01*
X134598037Y-104484569D02*
X134525466Y-104339426D01*
X134525466Y-104339426D02*
X134452895Y-104266854D01*
X134452895Y-104266854D02*
X134307752Y-104194283D01*
X133219180Y-104339426D02*
X133146608Y-104266854D01*
X133146608Y-104266854D02*
X133001466Y-104194283D01*
X133001466Y-104194283D02*
X132638608Y-104194283D01*
X132638608Y-104194283D02*
X132493466Y-104266854D01*
X132493466Y-104266854D02*
X132420894Y-104339426D01*
X132420894Y-104339426D02*
X132348323Y-104484569D01*
X132348323Y-104484569D02*
X132348323Y-104629712D01*
X132348323Y-104629712D02*
X132420894Y-104847426D01*
X132420894Y-104847426D02*
X133291751Y-105718283D01*
X133291751Y-105718283D02*
X132348323Y-105718283D01*
X131042037Y-104702283D02*
X131042037Y-105718283D01*
X131404894Y-104121712D02*
X131767751Y-105210283D01*
X131767751Y-105210283D02*
X130824322Y-105210283D01*
X129155179Y-104121712D02*
X130461465Y-106081140D01*
X128356894Y-104194283D02*
X128211751Y-104194283D01*
X128211751Y-104194283D02*
X128066608Y-104266854D01*
X128066608Y-104266854D02*
X127994037Y-104339426D01*
X127994037Y-104339426D02*
X127921465Y-104484569D01*
X127921465Y-104484569D02*
X127848894Y-104774854D01*
X127848894Y-104774854D02*
X127848894Y-105137712D01*
X127848894Y-105137712D02*
X127921465Y-105427997D01*
X127921465Y-105427997D02*
X127994037Y-105573140D01*
X127994037Y-105573140D02*
X128066608Y-105645712D01*
X128066608Y-105645712D02*
X128211751Y-105718283D01*
X128211751Y-105718283D02*
X128356894Y-105718283D01*
X128356894Y-105718283D02*
X128502037Y-105645712D01*
X128502037Y-105645712D02*
X128574608Y-105573140D01*
X128574608Y-105573140D02*
X128647179Y-105427997D01*
X128647179Y-105427997D02*
X128719751Y-105137712D01*
X128719751Y-105137712D02*
X128719751Y-104774854D01*
X128719751Y-104774854D02*
X128647179Y-104484569D01*
X128647179Y-104484569D02*
X128574608Y-104339426D01*
X128574608Y-104339426D02*
X128502037Y-104266854D01*
X128502037Y-104266854D02*
X128356894Y-104194283D01*
X126470036Y-104194283D02*
X127195750Y-104194283D01*
X127195750Y-104194283D02*
X127268322Y-104919997D01*
X127268322Y-104919997D02*
X127195750Y-104847426D01*
X127195750Y-104847426D02*
X127050608Y-104774854D01*
X127050608Y-104774854D02*
X126687750Y-104774854D01*
X126687750Y-104774854D02*
X126542608Y-104847426D01*
X126542608Y-104847426D02*
X126470036Y-104919997D01*
X126470036Y-104919997D02*
X126397465Y-105065140D01*
X126397465Y-105065140D02*
X126397465Y-105427997D01*
X126397465Y-105427997D02*
X126470036Y-105573140D01*
X126470036Y-105573140D02*
X126542608Y-105645712D01*
X126542608Y-105645712D02*
X126687750Y-105718283D01*
X126687750Y-105718283D02*
X127050608Y-105718283D01*
X127050608Y-105718283D02*
X127195750Y-105645712D01*
X127195750Y-105645712D02*
X127268322Y-105573140D01*
%LPC*%
D11*
X117567500Y-118000000D03*
D12*
X117567500Y-113000000D03*
X117567500Y-108000000D03*
X117567500Y-103000000D03*
%LPD*%
M02*
