%TF.GenerationSoftware,KiCad,Pcbnew,8.0.2-8.0.2-0~ubuntu22.04.1*%
%TF.CreationDate,2024-05-02T22:53:10+03:00*%
%TF.ProjectId,blink-timer,626c696e-6b2d-4746-996d-65722e6b6963,rev?*%
%TF.SameCoordinates,Original*%
%TF.FileFunction,Drillmap*%
%TF.FilePolarity,Positive*%
%FSLAX45Y45*%
G04 Gerber Fmt 4.5, Leading zero omitted, Abs format (unit mm)*
G04 Created by KiCad (PCBNEW 8.0.2-8.0.2-0~ubuntu22.04.1) date 2024-05-02 22:53:10*
%MOMM*%
%LPD*%
G01*
G04 APERTURE LIST*
%ADD10C,0.100000*%
%ADD11C,0.200000*%
%ADD12C,0.130000*%
G04 APERTURE END LIST*
D10*
X10000000Y-10000000D02*
X14400000Y-10000000D01*
X14400000Y-12100000D01*
X10000000Y-12100000D01*
X10000000Y-10000000D01*
D11*
D10*
X12913600Y-10246600D02*
X12943600Y-10276600D01*
X12943600Y-10246600D02*
X12913600Y-10276600D01*
X12913600Y-10500600D02*
X12943600Y-10530600D01*
X12943600Y-10500600D02*
X12913600Y-10530600D01*
X12913600Y-10945100D02*
X12943600Y-10975100D01*
X12943600Y-10945100D02*
X12913600Y-10975100D01*
X13332700Y-10386300D02*
X13362700Y-10416300D01*
X13362700Y-10386300D02*
X13332700Y-10416300D01*
X13574000Y-11542000D02*
X13604000Y-11572000D01*
X13604000Y-11542000D02*
X13574000Y-11572000D01*
X13823000Y-10785000D02*
X13853000Y-10815000D01*
X13853000Y-10785000D02*
X13823000Y-10815000D01*
X13932500Y-10485000D02*
X13962500Y-10515000D01*
X13962500Y-10485000D02*
X13932500Y-10515000D01*
D12*
X11821750Y-10300000D02*
G75*
G02*
X11691750Y-10300000I-65000J0D01*
G01*
X11691750Y-10300000D02*
G75*
G02*
X11821750Y-10300000I65000J0D01*
G01*
X11821750Y-10800000D02*
G75*
G02*
X11691750Y-10800000I-65000J0D01*
G01*
X11691750Y-10800000D02*
G75*
G02*
X11821750Y-10800000I65000J0D01*
G01*
X11821750Y-11300000D02*
G75*
G02*
X11691750Y-11300000I-65000J0D01*
G01*
X11691750Y-11300000D02*
G75*
G02*
X11821750Y-11300000I65000J0D01*
G01*
X11821750Y-11800000D02*
G75*
G02*
X11691750Y-11800000I-65000J0D01*
G01*
X11691750Y-11800000D02*
G75*
G02*
X11821750Y-11800000I65000J0D01*
G01*
D11*
X10255777Y-12416484D02*
X10255777Y-12216484D01*
X10255777Y-12216484D02*
X10303396Y-12216484D01*
X10303396Y-12216484D02*
X10331967Y-12226008D01*
X10331967Y-12226008D02*
X10351015Y-12245055D01*
X10351015Y-12245055D02*
X10360539Y-12264103D01*
X10360539Y-12264103D02*
X10370063Y-12302198D01*
X10370063Y-12302198D02*
X10370063Y-12330769D01*
X10370063Y-12330769D02*
X10360539Y-12368865D01*
X10360539Y-12368865D02*
X10351015Y-12387912D01*
X10351015Y-12387912D02*
X10331967Y-12406960D01*
X10331967Y-12406960D02*
X10303396Y-12416484D01*
X10303396Y-12416484D02*
X10255777Y-12416484D01*
X10455777Y-12416484D02*
X10455777Y-12283150D01*
X10455777Y-12321246D02*
X10465301Y-12302198D01*
X10465301Y-12302198D02*
X10474824Y-12292674D01*
X10474824Y-12292674D02*
X10493872Y-12283150D01*
X10493872Y-12283150D02*
X10512920Y-12283150D01*
X10579586Y-12416484D02*
X10579586Y-12283150D01*
X10579586Y-12216484D02*
X10570063Y-12226008D01*
X10570063Y-12226008D02*
X10579586Y-12235531D01*
X10579586Y-12235531D02*
X10589110Y-12226008D01*
X10589110Y-12226008D02*
X10579586Y-12216484D01*
X10579586Y-12216484D02*
X10579586Y-12235531D01*
X10703396Y-12416484D02*
X10684348Y-12406960D01*
X10684348Y-12406960D02*
X10674824Y-12387912D01*
X10674824Y-12387912D02*
X10674824Y-12216484D01*
X10808158Y-12416484D02*
X10789110Y-12406960D01*
X10789110Y-12406960D02*
X10779586Y-12387912D01*
X10779586Y-12387912D02*
X10779586Y-12216484D01*
X11036729Y-12416484D02*
X11036729Y-12216484D01*
X11036729Y-12216484D02*
X11103396Y-12359341D01*
X11103396Y-12359341D02*
X11170063Y-12216484D01*
X11170063Y-12216484D02*
X11170063Y-12416484D01*
X11351015Y-12416484D02*
X11351015Y-12311722D01*
X11351015Y-12311722D02*
X11341491Y-12292674D01*
X11341491Y-12292674D02*
X11322443Y-12283150D01*
X11322443Y-12283150D02*
X11284348Y-12283150D01*
X11284348Y-12283150D02*
X11265301Y-12292674D01*
X11351015Y-12406960D02*
X11331967Y-12416484D01*
X11331967Y-12416484D02*
X11284348Y-12416484D01*
X11284348Y-12416484D02*
X11265301Y-12406960D01*
X11265301Y-12406960D02*
X11255777Y-12387912D01*
X11255777Y-12387912D02*
X11255777Y-12368865D01*
X11255777Y-12368865D02*
X11265301Y-12349817D01*
X11265301Y-12349817D02*
X11284348Y-12340293D01*
X11284348Y-12340293D02*
X11331967Y-12340293D01*
X11331967Y-12340293D02*
X11351015Y-12330769D01*
X11446253Y-12283150D02*
X11446253Y-12483150D01*
X11446253Y-12292674D02*
X11465301Y-12283150D01*
X11465301Y-12283150D02*
X11503396Y-12283150D01*
X11503396Y-12283150D02*
X11522443Y-12292674D01*
X11522443Y-12292674D02*
X11531967Y-12302198D01*
X11531967Y-12302198D02*
X11541491Y-12321246D01*
X11541491Y-12321246D02*
X11541491Y-12378388D01*
X11541491Y-12378388D02*
X11531967Y-12397436D01*
X11531967Y-12397436D02*
X11522443Y-12406960D01*
X11522443Y-12406960D02*
X11503396Y-12416484D01*
X11503396Y-12416484D02*
X11465301Y-12416484D01*
X11465301Y-12416484D02*
X11446253Y-12406960D01*
X11627205Y-12397436D02*
X11636729Y-12406960D01*
X11636729Y-12406960D02*
X11627205Y-12416484D01*
X11627205Y-12416484D02*
X11617682Y-12406960D01*
X11617682Y-12406960D02*
X11627205Y-12397436D01*
X11627205Y-12397436D02*
X11627205Y-12416484D01*
X11627205Y-12292674D02*
X11636729Y-12302198D01*
X11636729Y-12302198D02*
X11627205Y-12311722D01*
X11627205Y-12311722D02*
X11617682Y-12302198D01*
X11617682Y-12302198D02*
X11627205Y-12292674D01*
X11627205Y-12292674D02*
X11627205Y-12311722D01*
D10*
X9965000Y-12730000D02*
X9995000Y-12760000D01*
X9995000Y-12730000D02*
X9965000Y-12760000D01*
D11*
X10293872Y-12636484D02*
X10312920Y-12636484D01*
X10312920Y-12636484D02*
X10331967Y-12646008D01*
X10331967Y-12646008D02*
X10341491Y-12655531D01*
X10341491Y-12655531D02*
X10351015Y-12674579D01*
X10351015Y-12674579D02*
X10360539Y-12712674D01*
X10360539Y-12712674D02*
X10360539Y-12760293D01*
X10360539Y-12760293D02*
X10351015Y-12798388D01*
X10351015Y-12798388D02*
X10341491Y-12817436D01*
X10341491Y-12817436D02*
X10331967Y-12826960D01*
X10331967Y-12826960D02*
X10312920Y-12836484D01*
X10312920Y-12836484D02*
X10293872Y-12836484D01*
X10293872Y-12836484D02*
X10274824Y-12826960D01*
X10274824Y-12826960D02*
X10265301Y-12817436D01*
X10265301Y-12817436D02*
X10255777Y-12798388D01*
X10255777Y-12798388D02*
X10246253Y-12760293D01*
X10246253Y-12760293D02*
X10246253Y-12712674D01*
X10246253Y-12712674D02*
X10255777Y-12674579D01*
X10255777Y-12674579D02*
X10265301Y-12655531D01*
X10265301Y-12655531D02*
X10274824Y-12646008D01*
X10274824Y-12646008D02*
X10293872Y-12636484D01*
X10446253Y-12817436D02*
X10455777Y-12826960D01*
X10455777Y-12826960D02*
X10446253Y-12836484D01*
X10446253Y-12836484D02*
X10436729Y-12826960D01*
X10436729Y-12826960D02*
X10446253Y-12817436D01*
X10446253Y-12817436D02*
X10446253Y-12836484D01*
X10522444Y-12636484D02*
X10646253Y-12636484D01*
X10646253Y-12636484D02*
X10579586Y-12712674D01*
X10579586Y-12712674D02*
X10608158Y-12712674D01*
X10608158Y-12712674D02*
X10627205Y-12722198D01*
X10627205Y-12722198D02*
X10636729Y-12731722D01*
X10636729Y-12731722D02*
X10646253Y-12750769D01*
X10646253Y-12750769D02*
X10646253Y-12798388D01*
X10646253Y-12798388D02*
X10636729Y-12817436D01*
X10636729Y-12817436D02*
X10627205Y-12826960D01*
X10627205Y-12826960D02*
X10608158Y-12836484D01*
X10608158Y-12836484D02*
X10551015Y-12836484D01*
X10551015Y-12836484D02*
X10531967Y-12826960D01*
X10531967Y-12826960D02*
X10522444Y-12817436D01*
X10770063Y-12636484D02*
X10789110Y-12636484D01*
X10789110Y-12636484D02*
X10808158Y-12646008D01*
X10808158Y-12646008D02*
X10817682Y-12655531D01*
X10817682Y-12655531D02*
X10827205Y-12674579D01*
X10827205Y-12674579D02*
X10836729Y-12712674D01*
X10836729Y-12712674D02*
X10836729Y-12760293D01*
X10836729Y-12760293D02*
X10827205Y-12798388D01*
X10827205Y-12798388D02*
X10817682Y-12817436D01*
X10817682Y-12817436D02*
X10808158Y-12826960D01*
X10808158Y-12826960D02*
X10789110Y-12836484D01*
X10789110Y-12836484D02*
X10770063Y-12836484D01*
X10770063Y-12836484D02*
X10751015Y-12826960D01*
X10751015Y-12826960D02*
X10741491Y-12817436D01*
X10741491Y-12817436D02*
X10731967Y-12798388D01*
X10731967Y-12798388D02*
X10722444Y-12760293D01*
X10722444Y-12760293D02*
X10722444Y-12712674D01*
X10722444Y-12712674D02*
X10731967Y-12674579D01*
X10731967Y-12674579D02*
X10741491Y-12655531D01*
X10741491Y-12655531D02*
X10751015Y-12646008D01*
X10751015Y-12646008D02*
X10770063Y-12636484D01*
X10960539Y-12636484D02*
X10979586Y-12636484D01*
X10979586Y-12636484D02*
X10998634Y-12646008D01*
X10998634Y-12646008D02*
X11008158Y-12655531D01*
X11008158Y-12655531D02*
X11017682Y-12674579D01*
X11017682Y-12674579D02*
X11027205Y-12712674D01*
X11027205Y-12712674D02*
X11027205Y-12760293D01*
X11027205Y-12760293D02*
X11017682Y-12798388D01*
X11017682Y-12798388D02*
X11008158Y-12817436D01*
X11008158Y-12817436D02*
X10998634Y-12826960D01*
X10998634Y-12826960D02*
X10979586Y-12836484D01*
X10979586Y-12836484D02*
X10960539Y-12836484D01*
X10960539Y-12836484D02*
X10941491Y-12826960D01*
X10941491Y-12826960D02*
X10931967Y-12817436D01*
X10931967Y-12817436D02*
X10922444Y-12798388D01*
X10922444Y-12798388D02*
X10912920Y-12760293D01*
X10912920Y-12760293D02*
X10912920Y-12712674D01*
X10912920Y-12712674D02*
X10922444Y-12674579D01*
X10922444Y-12674579D02*
X10931967Y-12655531D01*
X10931967Y-12655531D02*
X10941491Y-12646008D01*
X10941491Y-12646008D02*
X10960539Y-12636484D01*
X11112920Y-12836484D02*
X11112920Y-12703150D01*
X11112920Y-12722198D02*
X11122444Y-12712674D01*
X11122444Y-12712674D02*
X11141491Y-12703150D01*
X11141491Y-12703150D02*
X11170063Y-12703150D01*
X11170063Y-12703150D02*
X11189110Y-12712674D01*
X11189110Y-12712674D02*
X11198634Y-12731722D01*
X11198634Y-12731722D02*
X11198634Y-12836484D01*
X11198634Y-12731722D02*
X11208158Y-12712674D01*
X11208158Y-12712674D02*
X11227205Y-12703150D01*
X11227205Y-12703150D02*
X11255777Y-12703150D01*
X11255777Y-12703150D02*
X11274824Y-12712674D01*
X11274824Y-12712674D02*
X11284348Y-12731722D01*
X11284348Y-12731722D02*
X11284348Y-12836484D01*
X11379586Y-12836484D02*
X11379586Y-12703150D01*
X11379586Y-12722198D02*
X11389110Y-12712674D01*
X11389110Y-12712674D02*
X11408158Y-12703150D01*
X11408158Y-12703150D02*
X11436729Y-12703150D01*
X11436729Y-12703150D02*
X11455777Y-12712674D01*
X11455777Y-12712674D02*
X11465301Y-12731722D01*
X11465301Y-12731722D02*
X11465301Y-12836484D01*
X11465301Y-12731722D02*
X11474824Y-12712674D01*
X11474824Y-12712674D02*
X11493872Y-12703150D01*
X11493872Y-12703150D02*
X11522443Y-12703150D01*
X11522443Y-12703150D02*
X11541491Y-12712674D01*
X11541491Y-12712674D02*
X11551015Y-12731722D01*
X11551015Y-12731722D02*
X11551015Y-12836484D01*
X11941491Y-12626960D02*
X11770063Y-12884103D01*
X12198634Y-12636484D02*
X12217682Y-12636484D01*
X12217682Y-12636484D02*
X12236729Y-12646008D01*
X12236729Y-12646008D02*
X12246253Y-12655531D01*
X12246253Y-12655531D02*
X12255777Y-12674579D01*
X12255777Y-12674579D02*
X12265301Y-12712674D01*
X12265301Y-12712674D02*
X12265301Y-12760293D01*
X12265301Y-12760293D02*
X12255777Y-12798388D01*
X12255777Y-12798388D02*
X12246253Y-12817436D01*
X12246253Y-12817436D02*
X12236729Y-12826960D01*
X12236729Y-12826960D02*
X12217682Y-12836484D01*
X12217682Y-12836484D02*
X12198634Y-12836484D01*
X12198634Y-12836484D02*
X12179586Y-12826960D01*
X12179586Y-12826960D02*
X12170063Y-12817436D01*
X12170063Y-12817436D02*
X12160539Y-12798388D01*
X12160539Y-12798388D02*
X12151015Y-12760293D01*
X12151015Y-12760293D02*
X12151015Y-12712674D01*
X12151015Y-12712674D02*
X12160539Y-12674579D01*
X12160539Y-12674579D02*
X12170063Y-12655531D01*
X12170063Y-12655531D02*
X12179586Y-12646008D01*
X12179586Y-12646008D02*
X12198634Y-12636484D01*
X12351015Y-12817436D02*
X12360539Y-12826960D01*
X12360539Y-12826960D02*
X12351015Y-12836484D01*
X12351015Y-12836484D02*
X12341491Y-12826960D01*
X12341491Y-12826960D02*
X12351015Y-12817436D01*
X12351015Y-12817436D02*
X12351015Y-12836484D01*
X12484348Y-12636484D02*
X12503396Y-12636484D01*
X12503396Y-12636484D02*
X12522444Y-12646008D01*
X12522444Y-12646008D02*
X12531967Y-12655531D01*
X12531967Y-12655531D02*
X12541491Y-12674579D01*
X12541491Y-12674579D02*
X12551015Y-12712674D01*
X12551015Y-12712674D02*
X12551015Y-12760293D01*
X12551015Y-12760293D02*
X12541491Y-12798388D01*
X12541491Y-12798388D02*
X12531967Y-12817436D01*
X12531967Y-12817436D02*
X12522444Y-12826960D01*
X12522444Y-12826960D02*
X12503396Y-12836484D01*
X12503396Y-12836484D02*
X12484348Y-12836484D01*
X12484348Y-12836484D02*
X12465301Y-12826960D01*
X12465301Y-12826960D02*
X12455777Y-12817436D01*
X12455777Y-12817436D02*
X12446253Y-12798388D01*
X12446253Y-12798388D02*
X12436729Y-12760293D01*
X12436729Y-12760293D02*
X12436729Y-12712674D01*
X12436729Y-12712674D02*
X12446253Y-12674579D01*
X12446253Y-12674579D02*
X12455777Y-12655531D01*
X12455777Y-12655531D02*
X12465301Y-12646008D01*
X12465301Y-12646008D02*
X12484348Y-12636484D01*
X12741491Y-12836484D02*
X12627206Y-12836484D01*
X12684348Y-12836484D02*
X12684348Y-12636484D01*
X12684348Y-12636484D02*
X12665301Y-12665055D01*
X12665301Y-12665055D02*
X12646253Y-12684103D01*
X12646253Y-12684103D02*
X12627206Y-12693627D01*
X12931967Y-12836484D02*
X12817682Y-12836484D01*
X12874825Y-12836484D02*
X12874825Y-12636484D01*
X12874825Y-12636484D02*
X12855777Y-12665055D01*
X12855777Y-12665055D02*
X12836729Y-12684103D01*
X12836729Y-12684103D02*
X12817682Y-12693627D01*
X13046253Y-12722198D02*
X13027206Y-12712674D01*
X13027206Y-12712674D02*
X13017682Y-12703150D01*
X13017682Y-12703150D02*
X13008158Y-12684103D01*
X13008158Y-12684103D02*
X13008158Y-12674579D01*
X13008158Y-12674579D02*
X13017682Y-12655531D01*
X13017682Y-12655531D02*
X13027206Y-12646008D01*
X13027206Y-12646008D02*
X13046253Y-12636484D01*
X13046253Y-12636484D02*
X13084348Y-12636484D01*
X13084348Y-12636484D02*
X13103396Y-12646008D01*
X13103396Y-12646008D02*
X13112920Y-12655531D01*
X13112920Y-12655531D02*
X13122444Y-12674579D01*
X13122444Y-12674579D02*
X13122444Y-12684103D01*
X13122444Y-12684103D02*
X13112920Y-12703150D01*
X13112920Y-12703150D02*
X13103396Y-12712674D01*
X13103396Y-12712674D02*
X13084348Y-12722198D01*
X13084348Y-12722198D02*
X13046253Y-12722198D01*
X13046253Y-12722198D02*
X13027206Y-12731722D01*
X13027206Y-12731722D02*
X13017682Y-12741246D01*
X13017682Y-12741246D02*
X13008158Y-12760293D01*
X13008158Y-12760293D02*
X13008158Y-12798388D01*
X13008158Y-12798388D02*
X13017682Y-12817436D01*
X13017682Y-12817436D02*
X13027206Y-12826960D01*
X13027206Y-12826960D02*
X13046253Y-12836484D01*
X13046253Y-12836484D02*
X13084348Y-12836484D01*
X13084348Y-12836484D02*
X13103396Y-12826960D01*
X13103396Y-12826960D02*
X13112920Y-12817436D01*
X13112920Y-12817436D02*
X13122444Y-12798388D01*
X13122444Y-12798388D02*
X13122444Y-12760293D01*
X13122444Y-12760293D02*
X13112920Y-12741246D01*
X13112920Y-12741246D02*
X13103396Y-12731722D01*
X13103396Y-12731722D02*
X13084348Y-12722198D01*
X13198634Y-12636484D02*
X13198634Y-12674579D01*
X13274825Y-12636484D02*
X13274825Y-12674579D01*
X13570063Y-12912674D02*
X13560539Y-12903150D01*
X13560539Y-12903150D02*
X13541491Y-12874579D01*
X13541491Y-12874579D02*
X13531968Y-12855531D01*
X13531968Y-12855531D02*
X13522444Y-12826960D01*
X13522444Y-12826960D02*
X13512920Y-12779341D01*
X13512920Y-12779341D02*
X13512920Y-12741246D01*
X13512920Y-12741246D02*
X13522444Y-12693627D01*
X13522444Y-12693627D02*
X13531968Y-12665055D01*
X13531968Y-12665055D02*
X13541491Y-12646008D01*
X13541491Y-12646008D02*
X13560539Y-12617436D01*
X13560539Y-12617436D02*
X13570063Y-12607912D01*
X13627206Y-12636484D02*
X13760539Y-12636484D01*
X13760539Y-12636484D02*
X13674825Y-12836484D01*
X13989110Y-12836484D02*
X13989110Y-12636484D01*
X14074825Y-12836484D02*
X14074825Y-12731722D01*
X14074825Y-12731722D02*
X14065301Y-12712674D01*
X14065301Y-12712674D02*
X14046253Y-12703150D01*
X14046253Y-12703150D02*
X14017682Y-12703150D01*
X14017682Y-12703150D02*
X13998634Y-12712674D01*
X13998634Y-12712674D02*
X13989110Y-12722198D01*
X14198634Y-12836484D02*
X14179587Y-12826960D01*
X14179587Y-12826960D02*
X14170063Y-12817436D01*
X14170063Y-12817436D02*
X14160539Y-12798388D01*
X14160539Y-12798388D02*
X14160539Y-12741246D01*
X14160539Y-12741246D02*
X14170063Y-12722198D01*
X14170063Y-12722198D02*
X14179587Y-12712674D01*
X14179587Y-12712674D02*
X14198634Y-12703150D01*
X14198634Y-12703150D02*
X14227206Y-12703150D01*
X14227206Y-12703150D02*
X14246253Y-12712674D01*
X14246253Y-12712674D02*
X14255777Y-12722198D01*
X14255777Y-12722198D02*
X14265301Y-12741246D01*
X14265301Y-12741246D02*
X14265301Y-12798388D01*
X14265301Y-12798388D02*
X14255777Y-12817436D01*
X14255777Y-12817436D02*
X14246253Y-12826960D01*
X14246253Y-12826960D02*
X14227206Y-12836484D01*
X14227206Y-12836484D02*
X14198634Y-12836484D01*
X14379587Y-12836484D02*
X14360539Y-12826960D01*
X14360539Y-12826960D02*
X14351015Y-12807912D01*
X14351015Y-12807912D02*
X14351015Y-12636484D01*
X14531968Y-12826960D02*
X14512920Y-12836484D01*
X14512920Y-12836484D02*
X14474825Y-12836484D01*
X14474825Y-12836484D02*
X14455777Y-12826960D01*
X14455777Y-12826960D02*
X14446253Y-12807912D01*
X14446253Y-12807912D02*
X14446253Y-12731722D01*
X14446253Y-12731722D02*
X14455777Y-12712674D01*
X14455777Y-12712674D02*
X14474825Y-12703150D01*
X14474825Y-12703150D02*
X14512920Y-12703150D01*
X14512920Y-12703150D02*
X14531968Y-12712674D01*
X14531968Y-12712674D02*
X14541491Y-12731722D01*
X14541491Y-12731722D02*
X14541491Y-12750769D01*
X14541491Y-12750769D02*
X14446253Y-12769817D01*
X14617682Y-12826960D02*
X14636730Y-12836484D01*
X14636730Y-12836484D02*
X14674825Y-12836484D01*
X14674825Y-12836484D02*
X14693872Y-12826960D01*
X14693872Y-12826960D02*
X14703396Y-12807912D01*
X14703396Y-12807912D02*
X14703396Y-12798388D01*
X14703396Y-12798388D02*
X14693872Y-12779341D01*
X14693872Y-12779341D02*
X14674825Y-12769817D01*
X14674825Y-12769817D02*
X14646253Y-12769817D01*
X14646253Y-12769817D02*
X14627206Y-12760293D01*
X14627206Y-12760293D02*
X14617682Y-12741246D01*
X14617682Y-12741246D02*
X14617682Y-12731722D01*
X14617682Y-12731722D02*
X14627206Y-12712674D01*
X14627206Y-12712674D02*
X14646253Y-12703150D01*
X14646253Y-12703150D02*
X14674825Y-12703150D01*
X14674825Y-12703150D02*
X14693872Y-12712674D01*
X14770063Y-12912674D02*
X14779587Y-12903150D01*
X14779587Y-12903150D02*
X14798634Y-12874579D01*
X14798634Y-12874579D02*
X14808158Y-12855531D01*
X14808158Y-12855531D02*
X14817682Y-12826960D01*
X14817682Y-12826960D02*
X14827206Y-12779341D01*
X14827206Y-12779341D02*
X14827206Y-12741246D01*
X14827206Y-12741246D02*
X14817682Y-12693627D01*
X14817682Y-12693627D02*
X14808158Y-12665055D01*
X14808158Y-12665055D02*
X14798634Y-12646008D01*
X14798634Y-12646008D02*
X14779587Y-12617436D01*
X14779587Y-12617436D02*
X14770063Y-12607912D01*
D12*
X9995000Y-13009000D02*
G75*
G02*
X9865000Y-13009000I-65000J0D01*
G01*
X9865000Y-13009000D02*
G75*
G02*
X9995000Y-13009000I65000J0D01*
G01*
D11*
X10360539Y-13100484D02*
X10246253Y-13100484D01*
X10303396Y-13100484D02*
X10303396Y-12900484D01*
X10303396Y-12900484D02*
X10284348Y-12929055D01*
X10284348Y-12929055D02*
X10265301Y-12948103D01*
X10265301Y-12948103D02*
X10246253Y-12957627D01*
X10446253Y-13081436D02*
X10455777Y-13090960D01*
X10455777Y-13090960D02*
X10446253Y-13100484D01*
X10446253Y-13100484D02*
X10436729Y-13090960D01*
X10436729Y-13090960D02*
X10446253Y-13081436D01*
X10446253Y-13081436D02*
X10446253Y-13100484D01*
X10522444Y-12900484D02*
X10646253Y-12900484D01*
X10646253Y-12900484D02*
X10579586Y-12976674D01*
X10579586Y-12976674D02*
X10608158Y-12976674D01*
X10608158Y-12976674D02*
X10627205Y-12986198D01*
X10627205Y-12986198D02*
X10636729Y-12995722D01*
X10636729Y-12995722D02*
X10646253Y-13014769D01*
X10646253Y-13014769D02*
X10646253Y-13062388D01*
X10646253Y-13062388D02*
X10636729Y-13081436D01*
X10636729Y-13081436D02*
X10627205Y-13090960D01*
X10627205Y-13090960D02*
X10608158Y-13100484D01*
X10608158Y-13100484D02*
X10551015Y-13100484D01*
X10551015Y-13100484D02*
X10531967Y-13090960D01*
X10531967Y-13090960D02*
X10522444Y-13081436D01*
X10770063Y-12900484D02*
X10789110Y-12900484D01*
X10789110Y-12900484D02*
X10808158Y-12910008D01*
X10808158Y-12910008D02*
X10817682Y-12919531D01*
X10817682Y-12919531D02*
X10827205Y-12938579D01*
X10827205Y-12938579D02*
X10836729Y-12976674D01*
X10836729Y-12976674D02*
X10836729Y-13024293D01*
X10836729Y-13024293D02*
X10827205Y-13062388D01*
X10827205Y-13062388D02*
X10817682Y-13081436D01*
X10817682Y-13081436D02*
X10808158Y-13090960D01*
X10808158Y-13090960D02*
X10789110Y-13100484D01*
X10789110Y-13100484D02*
X10770063Y-13100484D01*
X10770063Y-13100484D02*
X10751015Y-13090960D01*
X10751015Y-13090960D02*
X10741491Y-13081436D01*
X10741491Y-13081436D02*
X10731967Y-13062388D01*
X10731967Y-13062388D02*
X10722444Y-13024293D01*
X10722444Y-13024293D02*
X10722444Y-12976674D01*
X10722444Y-12976674D02*
X10731967Y-12938579D01*
X10731967Y-12938579D02*
X10741491Y-12919531D01*
X10741491Y-12919531D02*
X10751015Y-12910008D01*
X10751015Y-12910008D02*
X10770063Y-12900484D01*
X10960539Y-12900484D02*
X10979586Y-12900484D01*
X10979586Y-12900484D02*
X10998634Y-12910008D01*
X10998634Y-12910008D02*
X11008158Y-12919531D01*
X11008158Y-12919531D02*
X11017682Y-12938579D01*
X11017682Y-12938579D02*
X11027205Y-12976674D01*
X11027205Y-12976674D02*
X11027205Y-13024293D01*
X11027205Y-13024293D02*
X11017682Y-13062388D01*
X11017682Y-13062388D02*
X11008158Y-13081436D01*
X11008158Y-13081436D02*
X10998634Y-13090960D01*
X10998634Y-13090960D02*
X10979586Y-13100484D01*
X10979586Y-13100484D02*
X10960539Y-13100484D01*
X10960539Y-13100484D02*
X10941491Y-13090960D01*
X10941491Y-13090960D02*
X10931967Y-13081436D01*
X10931967Y-13081436D02*
X10922444Y-13062388D01*
X10922444Y-13062388D02*
X10912920Y-13024293D01*
X10912920Y-13024293D02*
X10912920Y-12976674D01*
X10912920Y-12976674D02*
X10922444Y-12938579D01*
X10922444Y-12938579D02*
X10931967Y-12919531D01*
X10931967Y-12919531D02*
X10941491Y-12910008D01*
X10941491Y-12910008D02*
X10960539Y-12900484D01*
X11112920Y-13100484D02*
X11112920Y-12967150D01*
X11112920Y-12986198D02*
X11122444Y-12976674D01*
X11122444Y-12976674D02*
X11141491Y-12967150D01*
X11141491Y-12967150D02*
X11170063Y-12967150D01*
X11170063Y-12967150D02*
X11189110Y-12976674D01*
X11189110Y-12976674D02*
X11198634Y-12995722D01*
X11198634Y-12995722D02*
X11198634Y-13100484D01*
X11198634Y-12995722D02*
X11208158Y-12976674D01*
X11208158Y-12976674D02*
X11227205Y-12967150D01*
X11227205Y-12967150D02*
X11255777Y-12967150D01*
X11255777Y-12967150D02*
X11274824Y-12976674D01*
X11274824Y-12976674D02*
X11284348Y-12995722D01*
X11284348Y-12995722D02*
X11284348Y-13100484D01*
X11379586Y-13100484D02*
X11379586Y-12967150D01*
X11379586Y-12986198D02*
X11389110Y-12976674D01*
X11389110Y-12976674D02*
X11408158Y-12967150D01*
X11408158Y-12967150D02*
X11436729Y-12967150D01*
X11436729Y-12967150D02*
X11455777Y-12976674D01*
X11455777Y-12976674D02*
X11465301Y-12995722D01*
X11465301Y-12995722D02*
X11465301Y-13100484D01*
X11465301Y-12995722D02*
X11474824Y-12976674D01*
X11474824Y-12976674D02*
X11493872Y-12967150D01*
X11493872Y-12967150D02*
X11522443Y-12967150D01*
X11522443Y-12967150D02*
X11541491Y-12976674D01*
X11541491Y-12976674D02*
X11551015Y-12995722D01*
X11551015Y-12995722D02*
X11551015Y-13100484D01*
X11941491Y-12890960D02*
X11770063Y-13148103D01*
X12198634Y-12900484D02*
X12217682Y-12900484D01*
X12217682Y-12900484D02*
X12236729Y-12910008D01*
X12236729Y-12910008D02*
X12246253Y-12919531D01*
X12246253Y-12919531D02*
X12255777Y-12938579D01*
X12255777Y-12938579D02*
X12265301Y-12976674D01*
X12265301Y-12976674D02*
X12265301Y-13024293D01*
X12265301Y-13024293D02*
X12255777Y-13062388D01*
X12255777Y-13062388D02*
X12246253Y-13081436D01*
X12246253Y-13081436D02*
X12236729Y-13090960D01*
X12236729Y-13090960D02*
X12217682Y-13100484D01*
X12217682Y-13100484D02*
X12198634Y-13100484D01*
X12198634Y-13100484D02*
X12179586Y-13090960D01*
X12179586Y-13090960D02*
X12170063Y-13081436D01*
X12170063Y-13081436D02*
X12160539Y-13062388D01*
X12160539Y-13062388D02*
X12151015Y-13024293D01*
X12151015Y-13024293D02*
X12151015Y-12976674D01*
X12151015Y-12976674D02*
X12160539Y-12938579D01*
X12160539Y-12938579D02*
X12170063Y-12919531D01*
X12170063Y-12919531D02*
X12179586Y-12910008D01*
X12179586Y-12910008D02*
X12198634Y-12900484D01*
X12351015Y-13081436D02*
X12360539Y-13090960D01*
X12360539Y-13090960D02*
X12351015Y-13100484D01*
X12351015Y-13100484D02*
X12341491Y-13090960D01*
X12341491Y-13090960D02*
X12351015Y-13081436D01*
X12351015Y-13081436D02*
X12351015Y-13100484D01*
X12484348Y-12900484D02*
X12503396Y-12900484D01*
X12503396Y-12900484D02*
X12522444Y-12910008D01*
X12522444Y-12910008D02*
X12531967Y-12919531D01*
X12531967Y-12919531D02*
X12541491Y-12938579D01*
X12541491Y-12938579D02*
X12551015Y-12976674D01*
X12551015Y-12976674D02*
X12551015Y-13024293D01*
X12551015Y-13024293D02*
X12541491Y-13062388D01*
X12541491Y-13062388D02*
X12531967Y-13081436D01*
X12531967Y-13081436D02*
X12522444Y-13090960D01*
X12522444Y-13090960D02*
X12503396Y-13100484D01*
X12503396Y-13100484D02*
X12484348Y-13100484D01*
X12484348Y-13100484D02*
X12465301Y-13090960D01*
X12465301Y-13090960D02*
X12455777Y-13081436D01*
X12455777Y-13081436D02*
X12446253Y-13062388D01*
X12446253Y-13062388D02*
X12436729Y-13024293D01*
X12436729Y-13024293D02*
X12436729Y-12976674D01*
X12436729Y-12976674D02*
X12446253Y-12938579D01*
X12446253Y-12938579D02*
X12455777Y-12919531D01*
X12455777Y-12919531D02*
X12465301Y-12910008D01*
X12465301Y-12910008D02*
X12484348Y-12900484D01*
X12731967Y-12900484D02*
X12636729Y-12900484D01*
X12636729Y-12900484D02*
X12627206Y-12995722D01*
X12627206Y-12995722D02*
X12636729Y-12986198D01*
X12636729Y-12986198D02*
X12655777Y-12976674D01*
X12655777Y-12976674D02*
X12703396Y-12976674D01*
X12703396Y-12976674D02*
X12722444Y-12986198D01*
X12722444Y-12986198D02*
X12731967Y-12995722D01*
X12731967Y-12995722D02*
X12741491Y-13014769D01*
X12741491Y-13014769D02*
X12741491Y-13062388D01*
X12741491Y-13062388D02*
X12731967Y-13081436D01*
X12731967Y-13081436D02*
X12722444Y-13090960D01*
X12722444Y-13090960D02*
X12703396Y-13100484D01*
X12703396Y-13100484D02*
X12655777Y-13100484D01*
X12655777Y-13100484D02*
X12636729Y-13090960D01*
X12636729Y-13090960D02*
X12627206Y-13081436D01*
X12931967Y-13100484D02*
X12817682Y-13100484D01*
X12874825Y-13100484D02*
X12874825Y-12900484D01*
X12874825Y-12900484D02*
X12855777Y-12929055D01*
X12855777Y-12929055D02*
X12836729Y-12948103D01*
X12836729Y-12948103D02*
X12817682Y-12957627D01*
X13008158Y-12919531D02*
X13017682Y-12910008D01*
X13017682Y-12910008D02*
X13036729Y-12900484D01*
X13036729Y-12900484D02*
X13084348Y-12900484D01*
X13084348Y-12900484D02*
X13103396Y-12910008D01*
X13103396Y-12910008D02*
X13112920Y-12919531D01*
X13112920Y-12919531D02*
X13122444Y-12938579D01*
X13122444Y-12938579D02*
X13122444Y-12957627D01*
X13122444Y-12957627D02*
X13112920Y-12986198D01*
X13112920Y-12986198D02*
X12998634Y-13100484D01*
X12998634Y-13100484D02*
X13122444Y-13100484D01*
X13198634Y-12900484D02*
X13198634Y-12938579D01*
X13274825Y-12900484D02*
X13274825Y-12938579D01*
X13570063Y-13176674D02*
X13560539Y-13167150D01*
X13560539Y-13167150D02*
X13541491Y-13138579D01*
X13541491Y-13138579D02*
X13531968Y-13119531D01*
X13531968Y-13119531D02*
X13522444Y-13090960D01*
X13522444Y-13090960D02*
X13512920Y-13043341D01*
X13512920Y-13043341D02*
X13512920Y-13005246D01*
X13512920Y-13005246D02*
X13522444Y-12957627D01*
X13522444Y-12957627D02*
X13531968Y-12929055D01*
X13531968Y-12929055D02*
X13541491Y-12910008D01*
X13541491Y-12910008D02*
X13560539Y-12881436D01*
X13560539Y-12881436D02*
X13570063Y-12871912D01*
X13731968Y-12967150D02*
X13731968Y-13100484D01*
X13684348Y-12890960D02*
X13636729Y-13033817D01*
X13636729Y-13033817D02*
X13760539Y-13033817D01*
X13989110Y-13100484D02*
X13989110Y-12900484D01*
X14074825Y-13100484D02*
X14074825Y-12995722D01*
X14074825Y-12995722D02*
X14065301Y-12976674D01*
X14065301Y-12976674D02*
X14046253Y-12967150D01*
X14046253Y-12967150D02*
X14017682Y-12967150D01*
X14017682Y-12967150D02*
X13998634Y-12976674D01*
X13998634Y-12976674D02*
X13989110Y-12986198D01*
X14198634Y-13100484D02*
X14179587Y-13090960D01*
X14179587Y-13090960D02*
X14170063Y-13081436D01*
X14170063Y-13081436D02*
X14160539Y-13062388D01*
X14160539Y-13062388D02*
X14160539Y-13005246D01*
X14160539Y-13005246D02*
X14170063Y-12986198D01*
X14170063Y-12986198D02*
X14179587Y-12976674D01*
X14179587Y-12976674D02*
X14198634Y-12967150D01*
X14198634Y-12967150D02*
X14227206Y-12967150D01*
X14227206Y-12967150D02*
X14246253Y-12976674D01*
X14246253Y-12976674D02*
X14255777Y-12986198D01*
X14255777Y-12986198D02*
X14265301Y-13005246D01*
X14265301Y-13005246D02*
X14265301Y-13062388D01*
X14265301Y-13062388D02*
X14255777Y-13081436D01*
X14255777Y-13081436D02*
X14246253Y-13090960D01*
X14246253Y-13090960D02*
X14227206Y-13100484D01*
X14227206Y-13100484D02*
X14198634Y-13100484D01*
X14379587Y-13100484D02*
X14360539Y-13090960D01*
X14360539Y-13090960D02*
X14351015Y-13071912D01*
X14351015Y-13071912D02*
X14351015Y-12900484D01*
X14531968Y-13090960D02*
X14512920Y-13100484D01*
X14512920Y-13100484D02*
X14474825Y-13100484D01*
X14474825Y-13100484D02*
X14455777Y-13090960D01*
X14455777Y-13090960D02*
X14446253Y-13071912D01*
X14446253Y-13071912D02*
X14446253Y-12995722D01*
X14446253Y-12995722D02*
X14455777Y-12976674D01*
X14455777Y-12976674D02*
X14474825Y-12967150D01*
X14474825Y-12967150D02*
X14512920Y-12967150D01*
X14512920Y-12967150D02*
X14531968Y-12976674D01*
X14531968Y-12976674D02*
X14541491Y-12995722D01*
X14541491Y-12995722D02*
X14541491Y-13014769D01*
X14541491Y-13014769D02*
X14446253Y-13033817D01*
X14617682Y-13090960D02*
X14636730Y-13100484D01*
X14636730Y-13100484D02*
X14674825Y-13100484D01*
X14674825Y-13100484D02*
X14693872Y-13090960D01*
X14693872Y-13090960D02*
X14703396Y-13071912D01*
X14703396Y-13071912D02*
X14703396Y-13062388D01*
X14703396Y-13062388D02*
X14693872Y-13043341D01*
X14693872Y-13043341D02*
X14674825Y-13033817D01*
X14674825Y-13033817D02*
X14646253Y-13033817D01*
X14646253Y-13033817D02*
X14627206Y-13024293D01*
X14627206Y-13024293D02*
X14617682Y-13005246D01*
X14617682Y-13005246D02*
X14617682Y-12995722D01*
X14617682Y-12995722D02*
X14627206Y-12976674D01*
X14627206Y-12976674D02*
X14646253Y-12967150D01*
X14646253Y-12967150D02*
X14674825Y-12967150D01*
X14674825Y-12967150D02*
X14693872Y-12976674D01*
X14770063Y-13176674D02*
X14779587Y-13167150D01*
X14779587Y-13167150D02*
X14798634Y-13138579D01*
X14798634Y-13138579D02*
X14808158Y-13119531D01*
X14808158Y-13119531D02*
X14817682Y-13090960D01*
X14817682Y-13090960D02*
X14827206Y-13043341D01*
X14827206Y-13043341D02*
X14827206Y-13005246D01*
X14827206Y-13005246D02*
X14817682Y-12957627D01*
X14817682Y-12957627D02*
X14808158Y-12929055D01*
X14808158Y-12929055D02*
X14798634Y-12910008D01*
X14798634Y-12910008D02*
X14779587Y-12881436D01*
X14779587Y-12881436D02*
X14770063Y-12871912D01*
M02*
